<svg viewBox="0 0 47 33" fill="none" xmlns="http://www.w3.org/2000/svg"><path d="m15.375 27.981-.008.002c-.006.008 0 0 .008-.002Zm21.707-16.296.012.029h.002l-.014-.03Zm-.012-.021c0 .002 0 .005 0 0Zm-1 .022s.001-.005.003-.007l-.008-.004c0 .004.002.006.004.01Zm1.612 5.813c-.006-.01-.008-.02-.012-.03h-.017c.01.004.021.012.03.032v-.002ZM3.893 9.914v-.005s-.002 0 0 .002v.003Zm-.35-.109-.005-.007s0 .005-.002.005h.009l-.002.002Zm25.005 5.585-.01.001.01.008v-.011.002Zm9.453-7.563s-.004.002-.006.007L38 7.827ZM3.893 9.913l.018.01-.002-.01c-.008.002-.012.002-.014 0h-.002Zm3.851 2.633s-.017-.017-.023-.027c.006.01.016.017.023.025v.002Z" fill="#2C6939"/><path d="M46.076 14.016c.029-.58-.114-1.116-.23-1.657-.065-.304-.143-.614-.362-.842-.2-.208-.212-.509-.305-.764-.079-.216-.123-.451-.34-.545a.804.804 0 0 1-.447-.48c-.025-.061-.086-.106-.135-.155-.181-.19-.402-.35-.492-.61-.06-.172-.11-.348-.23-.482-.338-.374-.703-.714-1.168-.945-.376-.188-.732-.392-.937-.787a1.965 1.965 0 0 0-.367-.458c-.28-.277-.624-.487-.88-.78-.262-.3-.634-.396-.982-.536-.363-.144-.735-.272-1.074-.462a7.49 7.49 0 0 0-1.95-.785c-.568-.133-1.133-.265-1.685-.44a4.032 4.032 0 0 0-1.238-.203.988.988 0 0 1-.327-.067c-.377-.134-.787-.201-1.139-.397a.366.366 0 0 0-.207-.048c-.157.016-.29-.036-.417-.085a1.036 1.036 0 0 0-.518-.07c-.372.051-.737.01-1.109.062a1.115 1.115 0 0 1-.4-.024c-.279-.062-.567-.086-.845-.158-.29-.073-.584.092-.87.17-.142.037-.295.056-.43.135-.593.347-1.229.59-1.825.924-.14.079-.223.064-.327-.038-.342-.328-.8-.477-1.251-.618a6.14 6.14 0 0 0-1.657-.29c-.062 0-.13-.025-.138-.095-.032-.314-.29-.381-.533-.376a.833.833 0 0 1-.535-.17.626.626 0 0 0-.58-.106c-.1.026-.187.036-.243-.062-.095-.165-.267-.191-.452-.191-.217 0-.412-.06-.544-.22-.09-.107-.204-.132-.345-.15-.231-.033-.467-.057-.669-.187a.642.642 0 0 0-.568-.07c-.316.114-.632.129-.947.121-.15-.004-.29.032-.437.079-.183.058-.365.14-.561.147-.412.013-.821.043-1.184.347-.082.07-.196.096-.303.12-.456.102-.882.28-1.27.585-.32.253-.628.537-1.028.661-.026.008-.045.049-.07.068-.242.157-.448.362-.661.552-.23.207-.488.37-.78.406-.5.062-.912.325-1.3.635-.422.338-.826.703-1.329.911-.37.154-.727.366-1.124.408-.134.013-.27.007-.41.026-.194.028-.384.085-.54.22-.3.263-.68.415-.957.716-.034.037-.097.049-.142.08-.365.252-.737.45-.958.906a6.16 6.16 0 0 1-.957 1.419c-.08.09-.148.197-.198.304-.16.344-.32.691-.462 1.04a6.302 6.302 0 0 1-.89 1.558c-.049.06-.101.119-.114.198-.064.375-.258.706-.475 1.027a.92.92 0 0 0-.167.632c.036.366.182.682.345.984.372.697.766 1.38 1.155 2.069.058.103.122.206.204.289.36.364.727.723 1.062 1.116.06.07.142.107.213.16.195.142.471.15.647.308.174.154.374.257.578.362.275.141.52.34.799.466.355.162.618.538 1.112.42.026-.006.06.01.086.026.172.1.37.16.509.31a.767.767 0 0 0 .321.212c.264.084.49.23.726.36.142.08.22.175.245.342.03.201.091.397.278.508.053.032.1.073.085.146-.036.175.046.247.21.256.081.004.115.073.171.113.256.174.372.456.527.706.277.443.531.9.748 1.383.163.36.318.733.63.995.045.038.08.09.109.142.2.334.46.61.79.824.158.104.278.24.332.438.058.212.176.4.318.564.105.12.185.253.273.387.215.328.426.661.828.81a.574.574 0 0 1 .328.29.487.487 0 0 0 .23.226c.362.186.682.417.932.735.034.043.1.075.158.08.224.023.404.128.589.228.104.056.215.135.33.137.259.006.427.148.575.299.276.282.634.389 1.022.449.103.015.199.043.296.075.241.079.488.133.761.084.181-.033.352-.033.509.068.162.107.359.124.57.075.249-.058.482-.043.686.092a.68.68 0 0 0 .531.107 1.993 1.993 0 0 1 1.038.044c.333.093.696.108 1.021.206.282.085.507.096.767-.124.174-.146.383-.214.594-.116.092.043.2.05.309.01.245-.095.497-.12.74-.129.178-.005.36-.06.533-.022.569.122 1.156-.013 1.73-.132a1.8 1.8 0 0 1 .828.03c.197.051.384.068.58.038.434-.064.866-.13 1.298-.12.385.007.759-.119 1.135-.222.114-.032.189-.113.267-.192.206-.208.427-.387.709-.47a1.22 1.22 0 0 0 .404-.221c.105-.08.213-.182.33-.218.336-.098.608-.299.867-.524.151-.132.338-.222.456-.389.219-.314.523-.541.798-.8.169-.158.307-.331.427-.538.142-.244.321-.492.577-.667a4.4 4.4 0 0 0 .963-.903c.429-.536.859-1.067 1.343-1.556a.347.347 0 0 0 .09-.17c.099-.347.265-.659.565-.9.052-.042.084-.1.125-.151.293-.365.537-.767.901-1.08.08-.07.193-.149.223-.237.123-.363.394-.645.58-.973.048-.085.096-.166.13-.26.112-.314.28-.605.565-.817.153-.115.294-.239.413-.387.041-.053.109-.098.092-.163-.049-.194.076-.264.233-.326.457-.18.805-.533 1.201-.813.28-.197.484-.46.68-.72.156-.204.369-.364.489-.586.198-.366.435-.706.693-1.037.027-.034.058-.07.068-.109.125-.471.348-.93.366-1.416.017-.198.071-.391.08-.589l-.01.004ZM37.82 4.778c-.202.058-.268.053-.569-.131-.168-.104-.417-.077-.521-.284.402.056.776.165 1.09.415ZM21.276 2.495c-.127.087-.228.051-.378.021.159-.113.265-.122.378-.02ZM7.167 20.43a2.729 2.729 0 0 1-.387-.259c-.273-.212-.565-.372-.955-.295a.235.235 0 0 1-.193-.054c-.252-.248-.647-.263-.927-.476-.182-.139-.423-.2-.608-.35a1.98 1.98 0 0 0-.48-.294c-.481-.196-.784-.592-1.126-.943-.122-.124-.214-.276-.388-.352a.322.322 0 0 1-.151-.167c-.2-.45-.5-.834-.76-1.243-.304-.478-.616-.963-.771-1.526a1.103 1.103 0 0 1 .134-.881c.163-.273.352-.54.39-.855a.342.342 0 0 1 .076-.167c.464-.504.694-1.122.989-1.704.07-.136.127-.277.181-.416.157-.413.378-.774.674-1.12.256-.298.433-.659.645-.993.291-.466.662-.85 1.144-1.112.095-.051.249-.14.335-.205.318-.235.626-.485 1-.617.062-.02.122-.052.187-.033.355.103.683-.096 1.012-.226.16-.064.31-.165.475-.221.359-.123.615-.421.937-.605.317-.186.555-.474.87-.662.145-.088.29-.16.45-.18.346-.043.654-.227.983-.335a.28.28 0 0 0 .131-.092c.219-.268.507-.462.757-.695.144-.133.328-.18.49-.274.316-.184.588-.432.91-.609.197-.107.4-.193.607-.23a1.41 1.41 0 0 0 .668-.326.943.943 0 0 1 .804-.197c.179.035.342-.023.508-.089.247-.097.498-.155.754-.14.286.016.57-.076.854-.115.118-.017.234-.036.339.017.134.07.288.1.437.126.275.05.537.105.743.302.11.105.295.126.465.122a.35.35 0 0 1 .292.13c.138.156.297.244.55.132.174-.078.452.063.521.217.025.055.002.104-.056.13-.039.017-.09.038-.121.028-.204-.067-.423-.075-.64-.097-.088-.01-.159-.08-.24-.115-.334-.148-.717-.12-1.08-.135-.492-.02-.99.017-1.486.04-.343.014-.681-.046-1.033.039-.437.103-.88.182-1.314.304-.385.109-.765.255-1.14.402-.152.058-.283.147-.337.334-.07.243-.296.356-.505.44a3.437 3.437 0 0 0-.782.427c-.185.137-.404.21-.587.36-.296.24-.655.331-.999.46-.583.222-1.185.399-1.742.707-.337.186-.662.395-.991.597-.023.014-.042.055-.042.081 0 .05.043.072.086.06a.624.624 0 0 0 .18-.073c.413-.257.856-.43 1.303-.607.217-.084.425-.22.651-.276.32-.079.617-.242.95-.287.265-.036.527-.184.774-.333.462-.278.886-.622 1.391-.827.268-.107.537-.26.655-.573.039-.103.162-.157.263-.187.3-.089.588-.262.872-.324.42-.09.834-.229 1.254-.3.16-.028.244.049.206.21-.058.248-.112.504-.23.733-.155.302-.264.616-.394.924-.127.299-.247.603-.417.887-.042.07-.096.133.005.177.086.037.113-.04.137-.096.321-.7.677-1.389.93-2.11.07-.201.225-.378.23-.597 0-.078.065-.143.141-.138.271.021.55-.08.836-.05-.013.2-.13.366-.228.53-.11.185-.378.112-.501.306.01.02.013.054.032.071.215.194.209.192.09.47-.161.38-.337.755-.515 1.129-.041.088-.116.192-.035.32.203-.189.245-.435.362-.641.182-.32.378-.64.462-.987.043-.176.152-.218.268-.178.108.036.043.124.009.182-.277.487-.374 1.032-.791 1.48-.282.305-.408.688-.453 1.077-.024.214-.263.35-.256.577.101.006.137-.079.176-.143.238-.381.443-.776.686-1.157.275-.43.516-.898.715-1.374.088-.21.194-.413.293-.62.032-.067.055-.157.144-.165.31-.028.561-.317.885-.284.037.004.082-.026.123-.037.058-.017.142-.012.118-.11-.017-.069-.079-.09-.148-.07-.177.048-.355.097-.537.091-.173-.007-.201-.056-.11-.2.131-.211.307-.31.548-.367.385-.09.68-.034.91.256.077.095.098.184.018.274-.275.306-.395.678-.558 1.03-.17.37-.344.742-.467 1.13-.077.24-.238.457-.284.722.187-.17.252-.385.366-.575.075-.126.116-.182.264-.101.153.082.34.139.533-.021.065-.055.125-.053.183.022.17.222.198.215.45-.067.27.302.593.182.926-.002.122-.068.253-.068.29.062.062.214.24.218.398.17.294-.087.593-.086.881-.189.125-.045.185-.019.195.1.013.173.108.295.202.424.114.154.286.15.446.128.28-.04.374-.255.227-.47-.032-.047-.096-.075-.086-.148.194-.024.418.167.415.374-.004.184 0 .372-.084.558-.07.15-.032.261.095.344.19.124.292.088.363-.15.022-.074.048-.142.086-.21.076-.142.176-.187.318-.136.084.03.172.064.263.07.085.007.176-.027.215-.121.036-.086-.022-.12-.082-.167-.148-.115-.3-.235-.305-.455-.002-.083-.065-.118-.123-.158-.084-.056-.14-.118-.12-.248.02-.126-.06-.195-.198-.135-.208.092-.342.015-.4-.152-.058-.166-.19-.203-.333-.205-.206-.002-.348-.096-.488-.209-.116-.092-.241-.172-.365-.257-.14-.096-.286-.116-.478-.118-.356 0-.74.013-1.018-.245-.112-.103-.265-.137-.422-.148-.288-.02-.57-.071-.872-.006a.463.463 0 0 1-.246-.022c-.1-.034-.143-.092-.133-.205.017-.222.116-.413.243-.411.404.009.828-.14 1.213-.038.33.086.689.047 1.006.14.466.136.986.114 1.425.326.271.13.516.304.804.404.064.022.083.08.12.126.137.169.2.18.434.097a.343.343 0 0 0 .06-.028c.546-.317 1.131-.535 1.69-.819.127-.064.26-.118.395-.156.218-.06.44-.124.654-.199a.636.636 0 0 1 .406-.022c.419.148.88.108 1.318.161.382.045.79-.019 1.186-.037.151-.008.291.007.404.107.06.054.136.084.226.075.25-.023.47.052.684.139.543.22 1.133.306 1.713.423.31.062.63.107.918.23a.46.46 0 0 0 .206.036c.183-.007.365.017.497.126.187.152.432.228.646.432-.331.075-.595.047-.86.032-.044-.002-.11-.049-.113-.086-.022-.21-.206-.188-.342-.201-.247-.025-.503-.019-.755-.019-.13 0-.264-.002-.339-.105-.133-.18-.34-.21-.548-.213-.291-.003-.585-.013-.877-.015-.522-.003-1.047-.022-1.501-.272-.154-.085-.335-.09-.51-.1-.38-.02-.76-.052-1.145.12-.183.083-.38.089-.561.097a1.37 1.37 0 0 0-.672.22c-.044.028-.097.039-.17.067-.02-.17-.009-.353-.25-.329.04-.139.14-.17.226-.203.075-.028.142-.054.189-.124.058-.09.022-.165-.08-.165a1 1 0 0 0-.44.103c-.365.18-.754.307-1.085.56-.104.08-.222.08-.334.122-.135.047-.236.122-.268.265-.02.088.126.355.22.37.117.02.246.042.349-.092.045-.058.093-.131.2-.094.004.106-.15.2-.082.308a.614.614 0 0 0 .232.228c.043.024.085.05.121.084.082.075.123.158.006.263-.105.094-.103.216-.101.327.003.154.134.231.256.132.256-.209.566-.291.838-.464.22-.141.463-.24.738-.245.369-.007.731-.127 1.081-.296.262-.126.524-.224.787-.072.064.036.19-.03.277-.017.4.062.808-.041 1.214-.07l.003-.009h.012c.018-.026.044-.04.073-.035.022.003.024.03.005.034-.026.005-.052.001-.078 0 0 .001-.004.003-.006.007h-.01c-.035.117-.14.126-.228.14-.54.1-1.062.313-1.595.457-.353.096-.68.307-1.041.399a4.784 4.784 0 0 0-.526.175 1.183 1.183 0 0 0-.587.437.493.493 0 0 0 .333-.088c.309-.227.679-.29 1.002-.475.042-.023.094-.027.113.013.031.067-.034.084-.083.107l-.514.246c.13.064.238.085.37.006.5-.295 1.038-.42 1.58-.532.122-.024.242-.062.384-.1-.113-.146-.249-.007-.363-.022-.095-.011-.208.041-.312.075-.073.023-.165.071-.178-.032-.01-.079.084-.131.155-.137.167-.013.307-.11.46-.165.462-.17.933-.282 1.404-.393.182-.043.37-.036.552-.117.05-.022.101-.04.127-.1-.028-.095-.108-.063-.18-.044-.145.04-.293.079-.437.127-.148.051-.198-.02-.21-.135-.01-.114.033-.223.173-.225.284-.004.574-.038.847.024.157.036.155.042.026.218.07.03.14.023.217.004.041-.011.095-.04.123-.026.27.124.57.12.87.139.121.007.245.007.366.017.528.04 1.038.142 1.553.229.039.007.074.03.12.015.244-.085.366.066.49.208.018.023.025.055.042.08.108.162.069.288-.12.377.014.011.027.034.036.032.282-.087.473-.027.611.225.077.137.257.21.39.316.03.024.057.06.022.103a.144.144 0 0 1-.082.045c-.373.047-.743.089-1.115.137-.297.04-.593.046-.888.06a.937.937 0 0 0-.369.089c-.039.019-.082.03-.123.043-.441.133-.649-.047-.565-.485.019-.101.096-.131.163-.131.32 0 .619-.186.944-.182.19.001.39-.094.591-.2-.114 0-.228-.016-.34.002-.411.07-.821.15-1.232.228a.498.498 0 0 1-.157.013c-.079-.011-.13-.057-.122-.145.008-.08.064-.103.135-.113.347-.048.688-.182 1.037-.186.086 0 .17-.003.258-.124-.405.051-.785.09-1.164.147-.326.047-.34.041-.444-.256-.04-.118-.082-.328-.203-.285-.188.068-.028.231-.02.344.035.41-.018.313-.945.419-.26.03-.51.137-.756.253-.176.083-.376.059-.563.094-.673.13-1.318.406-1.978.61a.182.182 0 0 0-.084.05c-.066.094-.27.058-.243.18.03.147.224.102.327.068.224-.072.464-.115.675-.218.38-.186.78-.263 1.169-.395.564-.19 1.15-.255 1.718-.445.234-.079.484-.056.718-.18.112-.059.14.037.16.12.022.101-.02.163-.13.169-.387.02-.765.152-1.146.227-.456.089-.907.222-1.36.333-.172.041-.351.052-.525.15.178.062.271.083.352.053.381-.14.777-.132 1.157-.256.352-.114.71-.143 1.058-.261.083-.028.163-.047.243.028-.633.45-1.196.987-1.916 1.278-.202.08-.393.191-.58.308-.23.143-.48.24-.694.419-.48.404-1.019.704-1.578.97-.136.063-.293.099-.374.26.082.055.155.008.232-.033a6.17 6.17 0 0 1 .782-.35c.061-.022.14-.043.174.015.033.06-.017.12-.073.164-.16.122-.31.255-.48.357-.195.116-.38.22-.616.084-.172-.097-.43-.013-.649-.02-.052 0-.118.024-.153.001-.277-.17-.595-.073-.902-.033-.181.022-.338-.057-.525-.021-.208.04-.417.032-.627.04a.916.916 0 0 1-.237-.033c-.567-.174-1.148-.124-1.743.096l-.061.025c-.103.047-.227.112-.217.221.01.124.129.164.263.128.056-.015.103-.01.135.064-.103.109-.23.083-.348.087-.084 0-.166-.01-.25-.01-.18 0-.25.056-.262.212-.011.152.054.24.219.215.243-.042.484-.02.725-.074.079-.017.12-.005.148.057.121.259.381.214.62.204.062-.002.126-.037.19-.043.153-.015.21.072.108.177-.165.167-.056.353-.133.524-.026.058.066.098.161.045.249-.137.501-.261.752-.39.048-.025.099-.051.177-.029-.087.323.122.398.374.5.36.146.634.013.918-.209.158-.122.33-.225.513-.296.157-.06.316-.123.464-.207.121-.07.112-.11-.045-.203.095-.158.204-.29.39-.359.1-.037.186-.118.275-.184.058-.041.116-.077.176-.038.279.18.582.023.802-.137a2.89 2.89 0 0 1 .78-.4 1.8 1.8 0 0 0 .808-.547c.153-.176.33-.325.492-.492.097-.101.09-.193-.03-.222a.428.428 0 0 0-.39.111c-.184.16-.35.337-.54.494a1.55 1.55 0 0 1-.718.339c.126-.185.288-.286.378-.44.092-.158.131-.351.324-.444.018-.009.04-.03.044-.045.079-.385.445-.458.707-.633.19-.124.412-.195.642-.29-.056.085-.096.202-.172.25-.165.104-.165.202-.11.343.042.11.048.236.076.355.028.113.019.238.153.304.101.049.07.203.124.297.065.113.043.207-.07.304-.065.059-.033.145.03.141.244-.01.19.203.283.33l-1.906.978c.077-.254.251-.45.131-.646-.048-.081-.097-.179-.22-.153-.049.027-.05.072-.034.085.185.135.129.31.037.496-.19.383-.469.661-.925.793.047-.213.277-.237.348-.383.07-.147.209-.29.125-.46-.096 0-.086.063-.109.106-.132.254-.276.478-.594.564-.198.055-.385.195-.576.295-.638.327-1.318.43-1.971.669-.167.062-.357.049-.535.056-.273.01-.273.004-.258.29-.41.001-.813.003-1.212-.06-.252-.042-.51-.057-.748-.15-.07-.03-.166-.008-.25-.005-.079.004-.155.028-.172.119-.015.077.005.15.086.172.159.046.316.106.484.108.247 0 .48.062.718.107.625.12 1.28.079 1.917-.029a16.565 16.565 0 0 0 1.728-.409c.377-.105.718-.318 1.096-.408a.2.2 0 0 0 .143-.12c.131-.276.348-.464.617-.618.575-.329 1.205-.513 1.773-.855a.759.759 0 0 1 .241-.1c.096-.018.163-.024.195.081.019.066.07.119.099.18.041.085.04.159-.04.256-.317.4-.658.774-1.035 1.125a29.4 29.4 0 0 1-1.195 1.062c-.071.06-.144.103-.234.101-.063 0-.13.012-.189-.001-.452-.104-.914-.03-1.378.077a3.74 3.74 0 0 0-.886.31c-.202.103-.445.16-.67.24-.312.113-.6.274-.87.472-.177.13-.362.176-.545.131-.144-.036-.288-.036-.434-.036h-1.485c-.368 0-.733-.02-1.107.085-.462.13-.862.013-1.236-.212-.24-.145-.516-.233-.794-.308-.18-.05-.279-.145-.309-.318-.013-.073-.011-.158-.108-.148-.118.011-.116.114-.128.195-.031.212-.15.43-.009.631.06.085.103.166.226.164.103 0 .135.019.144.152.012.18.023.376.116.541.238.423.453.857.698 1.274.176.299.273.633.4.954.035.089.071.158.165.194.09-.085.076-.18.037-.233-.148-.192-.189-.438-.288-.654-.151-.33-.338-.642-.51-1.001.16-.013.27.071.409.019.095-.036.123.06.155.139.28.693.66 1.333.982 2.006.006.011.03.011.047.015v-.005l.005.005s-.005-.005-.003-.005l.005.003c.077-.165-.043-.276-.105-.374-.13-.203-.196-.434-.303-.644-.099-.194-.174-.398-.306-.577-.109-.143-.144-.342-.213-.517.32-.09.342-.086.454.14.105.21.23.407.32.697.069-.183.103-.258.26-.22.2.049.355.112.452.298.14.271.339.513.447.797.08.209.213.39.268.603-.11.11-.199-.01-.296.055-.045.03-.123.005-.187.007-.13.006-.14-.118-.207-.182-.02.205-.165.113-.26.131-.191.042-.21-.15-.32-.217h-.006c-.043.221-.05.22-.219.206a10.569 10.569 0 0 1-1.847-.31c-.23-.06-.45-.139-.668-.227-.36-.149-.746-.254-1.06-.487a.105.105 0 0 0-.095-.013c-.241.068-.48.019-.726.088-.323.094-.65.03-.98.083a2.27 2.27 0 0 1-1.043-.068c-.155-.047-.36-.017-.533.034-.482.147-.978.165-1.458.33-.44.153-.881.194-1.285.006a.683.683 0 0 0-.593 0c-.144.07-.305.11-.445.032-.46-.248-.976-.265-1.514-.18-.193.03-.324 0-.42-.192-.12-.238-.368-.343-.654-.368-.237-.02-.47-.062-.707-.08-.462-.036-.87-.22-1.307-.32-.157-.036-.282-.079-.348-.224.07-.084.161-.093.236-.137.026-.015.058-.015.088-.022 0 .295.396.05.449.295.017.08.13.1.21.022.06-.062.128-.071.2-.098.145-.052.244-.052.282.113.015.064.076.113.123.164.045.049.112.071.163.01.076-.091.175-.121.269-.176.234-.135.23-.144.366.034.09.119.126.31.374.188.086-.041.135.07.182.13a.45.45 0 0 0 .368.188c.185.013.41.054.582.174.09.064.205.149.312-.045.041-.077.116-.026.168-.007.228.079.455.16.68.244.042.015.08.026.107-.015.027-.038.027-.088-.005-.117a1.865 1.865 0 0 0-.417-.28 5.912 5.912 0 0 1-.898-.52c-.146-.107-.248-.253-.376-.38-.299-.293-.678-.479-1.022-.71a5.56 5.56 0 0 1-.918-.742.755.755 0 0 0-.726-.22c-.305.059-.611.093-.914.177a.851.851 0 0 0-.459.3c-.332.416-.338.412-.061.79.011.015.01.037.015.062-.092.05-.161.005-.225-.034-.353-.225-.757-.351-1.157-.485-.187-.062-.335-.173-.486-.285-.36-.269-.574-.637-.71-1.062-.132-.408-.306-.796-.356-1.234-.017-.154-.019-.305.077-.457.1-.16.17-.188.286-.071.145.146.291.293.435.441.283.29.574.572.836.88.067.08.071.214.213.253.098-.152-.01-.246-.074-.338-.38-.541-.864-.992-1.3-1.484-.097-.111-.215-.213-.071-.408.312.17.548.427.765.686.273.327.632.562.895.9.146.186.363.325.498.535.03.047.08.074.13.04.075-.051.047-.124.006-.16-.112-.1-.19-.225-.29-.332-.473-.513-.96-1.011-1.445-1.513-.13-.135-.264-.267-.39-.404-.09-.098-.09-.398-.005-.53.042-.062.098-.056.13-.011.373.536.93.913 1.27 1.479a.54.54 0 0 0 .25.229c.054-.045.05-.087.026-.12-.266-.356-.509-.728-.806-1.054-.183-.201-.353-.421-.574-.594-.189-.147-.2-.182-.041-.38.168-.206.314-.426.47-.64a.241.241 0 0 1 .24-.111c-.018-.18.079-.297.247-.37a.913.913 0 0 0 .355-.24c.358.306.64.657.894 1.03.327.48.643.966.986 1.434.073.1.054.23.147.318.13.122.214.126.333-.028a.318.318 0 0 0 .045-.087c.034-.086.103-.178.178-.161.103.022.045.127.026.21-.052.216.02.304.24.304.031 0 .063-.015.095-.013.183.008.215.081.093.248a.325.325 0 0 0-.067.207c.004.186.159.253.327.148.211-.133.2-.12.376.023.206.165.394.353.65.454.07.029.132.059.199-.018.054-.062.09-.132.052-.203a3.132 3.132 0 0 0-.147-.258c-.043-.067-.051-.135.02-.195.082-.071.133-.022.18.038.06.077.136.142.102.264-.024.09.004.196.085.205.194.023.329.18.533.168.08-.006.104.037.14.084.065.087.136.171.213.248.337.338.625.363 1.107.098.118-.064.344.002.385.114.109.297.015.417-.31.395-.092-.006-.185-.015-.26-.075-.075-.062-.176-.058-.27-.034-.14.037-.273.058-.402.01-.052-.021-.102 0-.153.027-.041.023-.073.053-.082.098-.013.062.028.094.07.12.014.012.038.016.059.014.438-.05.84.103 1.272.082a.802.802 0 0 1 .39.059c.1.043.215.061.328.078.114.017.237.03.314.104.299.282.735.222 1.101.329a.18.18 0 0 0 .189-.064c.153-.196.26-.064.393 0 .198.1.44.077.66.133.512.13 1.05.175 1.56.321a.66.66 0 0 0 .25 0c.091-.01.123-.084.125-.165.004-.09-.043-.115-.136-.11-.447.018-.86-.084-1.266-.211a1.803 1.803 0 0 0-.51-.104c-.304 0-.5-.19-.743-.296-.075-.032-.064-.115-.049-.192.032-.171-.03-.3-.138-.411a.888.888 0 0 1-.172-.273 1.208 1.208 0 0 0-.496-.567c-.374-.224-.647-.573-1.054-.758-.16-.073-.324-.131-.502-.112-.394.041-.721-.064-1.049-.23-.183-.091-.389-.161-.587-.232-.104-.038-.217-.06-.278-.164-.014-.022-.043-.052-.068-.05-.417.024-.678-.273-1.03-.378-.028-.01-.073-.019-.079-.04-.069-.26-.291-.19-.495-.2-.195-.01-.378-.083-.565-.13-.018-.006-.032-.029-.05-.03-.516-.066-.722-.472-1.006-.814-.376-.453-.728-.932-1.193-1.306-.09-.071-.109-.135-.012-.227.066-.06.13-.122.2-.177.12-.094.225-.094.315.034.27.383.572.748.985.983.339.191.58.501.855.77.114.11.232.22.353.333.075-.111 0-.158-.047-.196-.159-.122-.293-.26-.364-.456-.036-.096-.144-.134-.21-.205-.43-.462-.852-.928-1.282-1.39-.098-.106-.158-.207-.025-.35a.101.101 0 0 0 .02-.06c0-.13.11-.295-.027-.376-.144-.086-.253.066-.361.15-.264.205-.522.416-.784.622-.08.064-.166.124-.258.05-.086-.074-.155-.147-.069-.29.062-.101.095-.218.131-.33.017-.053-.011-.106-.073-.112-.045-.003-.077.027-.099.07-.107.203-.21.4-.367.58-.115.132-.216.207-.38.217-.222.013-.388.118-.56.29-.449.457-.799.963-1.122 1.515-.144.244-.32.472-.48.707-.204.296-.223.608-.208.931.013.277.037.55.1.827.156-.036.098-.323.347-.242-.05.293-.03.612-.268.896-.07.086-.067.169-.069.265-.011.389.125.734.204 1.097.153.72.51 1.34.903 1.931.211.32.542.541.825.799.078.071.18.12.232.22-.165.073-.268-.064-.417-.075.009.118.078.182.146.225.218.137.345.374.589.483.076.034.12.146.233.028.011-.011.066-.002.084.013.182.16.44.2.627.348.054.043.108.094.174.114a.965.965 0 0 1 .611.528c.036.076.096.156.225.1-.01-.113-.16-.158-.105-.305.144-.022.26.044.36.117.158.115.337.178.53.212.42.076.817.224 1.273.207.247-.008.494.098.737.167.425.12.858.239 1.337.158.273-.045.55-.056.823-.116.26-.059.492-.027.682.105.335.229.728.16 1.117.126.323-.029.65-.145.966-.042.053.017.14.013.186-.02.187-.14.394-.102.589-.147.254-.06.463.07.675.152.42.166.84.261 1.331.124.524-.144 1.053-.126 1.574-.116.216.003.42-.06.629-.064.475-.011.938-.019 1.355.208.397.216.846.309 1.341.247.34-.042.662.039.98.114.04.01.079.023.116.036.052.019.103.019.137-.042.035-.061.003-.093-.045-.122a.91.91 0 0 0-.376-.118c-.413-.03-.814-.113-1.233-.122a1.92 1.92 0 0 1-1.17-.427c.163.029.33.046.486.089.305.086.627.113.943.154.192.024.383-.002.532-.175.094-.109.19-.1.287-.054.54.25 1.129.36 1.737.426.162.017.318.06.47.11.526.18 1.091.183 1.656.21.52.024 1.047-.066 1.567-.074.378-.005.75-.077 1.124-.107.299-.024.574-.06.837-.285.148-.126.378-.162.573-.22.117-.034.224-.083.33-.143.156-.085.307-.167.485-.194a.69.69 0 0 0 .329-.14c.226-.192.516-.235.742-.42.116-.095.275-.107.4-.1.41.023.808-.033 1.218-.148.273-.076.542-.125.77-.323a.339.339 0 0 1 .213-.077c.243-.007.457-.114.668-.236.194-.111.415-.117.611-.207.45-.209.89-.438 1.335-.654.107-.053.289-.12.399-.163.336-.128.654-.314.91-.553.27-.25.53-.563.537-.962 0-.09.071-.156.133-.22a6.69 6.69 0 0 0 .768-1.029c.07-.11.167-.205.251-.306.247-.303.355-.618.21-.96-.06-.137-.012-.3-.03-.45-.057-.479-.1-.956-.324-1.377-.013-.026-.022-.056-.032-.084-.017-.049-.026-.103.013-.149.062-.07.113-.009.167.004.215.051.247.231.194.519a.418.418 0 0 0 .202.453c.245.133.38.385.53.605a.083.083 0 0 1 .009.022c.102.515.06 1.015.022 1.522-.03.41-.236.746-.542 1.043-.307.296-.585.661-.86 1.007-.277.347-.602.661-.91.986-.147.154-.311.269-.532.303-.284.045-.546.227-.84.244-.048.002-.1.04-.15.067-.255.149-.49.333-.753.47-.07.038-.164.098-.129.2h.004c.006.001.006.016.007.026.075-.104.182-.149.294-.2.44-.199.898-.276 1.382-.398-.067.194-.234.209-.337.293-.564.464-1.155.889-1.813 1.206-.288.14-.57.29-.872.378-.219.066-.406.203-.619.286-.342.135-.692.253-1.028.411-.068.032-.174.05-.14.143.026.067.125.043.2.015.293-.117.589-.23.88-.353.391-.166.799-.286 1.17-.51.046-.026.115-.048.154-.033.226.088.4-.068.58-.18.542-.34 1.049-.737 1.582-1.094.327-.22.67-.432.97-.703.178-.158.402-.265.6-.39.072.039.025.114.055.16.235-.294.488-.566.841-.713.067.09.019.147-.032.21-.246.312-.577.538-.87.79-.487.42-1.005.808-1.551 1.144a2.49 2.49 0 0 0-.716.631c.18-.085.381-.113.53-.272.051-.055.13-.02.115.024-.07.197.108.16.189.2-.008.065-.047.099-.086.106-.142.029-.277.013-.425.12-.121.087-.295.132-.447.19-.796.308-1.61.523-2.421.75-.215.06-.423.169-.65.15-.016 0-.042.04-.063.06.032.102.163.015.202.096-.082.135-.224.175-.353.235-.169.079-.337.16-.509.227-.07.029-.09.081-.12.13.343-.05.642-.237.949-.398.168-.337.491-.269.755-.346.237-.068.48-.101.76-.16-.195.21-.394.292-.588.429-.38.266-.795.47-1.22.642-.837.34-1.68.662-2.572.718-.346.022-.696.109-1.043.156-.823.11-1.646.222-2.491.135.15-.146.34-.118.478-.218-.03-.107-.108-.075-.177-.06-.442.102-.887.137-1.328.2a2.583 2.583 0 0 1-.638.007 5.606 5.606 0 0 0-.776-.042c-.364.006-.693-.022-.987-.24-.243-.179-.576-.233-.882-.306-.373-.089-.767-.108-1.15-.16-.487-.068-1.044.06-1.502.135-.305.05-.604.14-.907.214a1.18 1.18 0 0 1-.473.014c-.38-.057-.772-.04-1.16-.046-.014 0-.031.025-.063.047.067.106.178.098.292.102.424.011.85.026 1.243.205-.037.035-.063.077-.082.075-.25-.02-.503.062-.76.037a1.505 1.505 0 0 0-.867.184c-.16.089-.333.16-.494.256a1.21 1.21 0 0 1-.744.17 69.225 69.225 0 0 1-1.666-.176c-.187-.022-.372.036-.563.027a2.587 2.587 0 0 1-.985-.25c-.552-.254-1.165-.312-1.795-.008-.404.194-.795.19-1.182.117-.27-.053-.535-.11-.813-.136a1.393 1.393 0 0 1-.569-.193c-.174-.1-.357-.16-.565-.154a.547.547 0 0 1-.325-.072.328.328 0 0 0-.264-.058.216.216 0 0 1-.177-.04c-.56-.433-1.251-.65-1.872-.982l.011.013Zm10.83-17.606a3.87 3.87 0 0 1-.255.344.163.163 0 0 1-.202.05c-.071-.03-.045-.1-.036-.148.04-.103.073-.193.109-.283.073-.186.13-.222.3-.186.135.028.167.096.085.221v.002Zm1.529 1.118c-.029-.03-.042-.079-.002-.107.112-.083.19-.013.3.04-.119.112-.209.16-.299.067Zm.622.397c-.206.052-.329.225-.523.263.08-.288.175-.339.523-.263Zm.642.253c.031 0 .046.023.046.055-.01.034-.035.045-.063.034-.015-.006-.03-.021-.032-.036-.006-.034.017-.055.05-.055l-.002.002Zm.587.14c.17-.117.34-.234.512-.35.095-.064.187-.077.236.032.043.1-.023.253-.122.282-.204.06-.41.12-.624.033l-.002.002Zm1.956.71c.007-.064.082-.055.129-.05.076.008.125.05.127.128a.089.089 0 0 1-.101.06c-.079-.015-.167-.039-.154-.139h-.001Zm6.02-1.113c-.018.092-.065.132-.136.12-.048-.007-.052-.052-.039-.095.019-.059.041-.132.116-.126.056.003.065.064.06.101Zm11.667 6.497c-.237-.047-.359.117-.417.306-.136.436-.308.864-.28 1.329.026.454-.18.886-.466 1.285-.091.127-.237.182-.335.315-.168.231-.364.442-.473.709-.054.133-.19.176-.31.235-.208.099-.432.142-.638.264a4.669 4.669 0 0 0-1.002.752.748.748 0 0 1-.366.21 3.274 3.274 0 0 0-.973.385c-.31.188-.641.22-.968.265-.375.051-.984.102-1.358.14a3.155 3.155 0 0 0-1.053.298c-.295.143-.581.308-.897.406-.232.073-.382.29-.55.475.237-.035.424-.214.645-.293.223-.08.43-.214.682-.244-.106.073-.207.17-.323.216-.396.158-.746.425-1.142.582a3.507 3.507 0 0 1-.657.19c-.357.066-.718.152-1.075.134-.348-.017-.698.043-1.045.058-.412.019-.802-.09-1.216-.064-.12.008-.129-.077-.032-.163.032-.029.077-.044.088-.12-.146-.066-.443.044-.428-.277h1.533a.473.473 0 0 0 .126-.013c.043-.011.078-.043.082-.09.002-.045-.02-.081-.067-.087-.146-.017-.3 0-.436-.06-.226-.103-.471-.17-.733-.137-.454.058-.645.165-.787-.019-.219-.284-.328-.63-.49-.945-.079-.15.004-.3.185-.332.241-.042.484-.07.71-.213.092-.056.204-.079.307-.107.066-.018.131-.01.155.06.032.09.07.173.182.173.146 0 .306.055.44-.024.377-.227.818-.24 1.183-.477.299-.194.647-.256.935-.466.05-.036.123-.038.185-.059.28-.09.567-.165.761-.434.052-.073.148-.095.226-.135.049-.026.107-.054.092-.116-.019-.077-.086-.072-.152-.047-.091.034-.183.071-.274.107-.264.107-.522.236-.8.274-.051.008-.107.025-.162-.03.18-.137.382-.207.582-.284.071-.028.151-.04.213-.08.178-.12.36-.218.569-.245.05-.005.1-.043.15-.07.035-.02.087-.037.076-.088-.013-.06-.071-.084-.12-.054-.277.167-.583.022-.862.195.453-.31.973-.484 1.367-.879-.052-.06-.1-.054-.13-.022-.272.274-.622.372-.956.497-.51.194-1.035.325-1.55.49-.382.123-.76.262-1.147.365-.21.057-.417.04-.623.11-.037.012-.09 0-.085-.057.001-.047.035-.077.078-.107.383-.252.826-.357 1.264-.387.408-.028.793-.228 1.169-.414.245-.122.503-.199.76-.274a.852.852 0 0 0 .375-.221.668.668 0 0 0-.51-.006c-.03.015-.062.047-.087.043-.088-.013-.218.122-.254.008-.037-.123.125-.117.198-.168.249-.174.516-.19.769-.135.387.083.766-.049 1.169-.13.001.111-.167.147-.144.254.048-.017.115-.043.104.036-.032.216-.037.445-.247.614-.033.026-.052.072-.091.126.095.02.27-.09.235.13-.028.174.178.186.286.293-.516.494-1.129.83-1.692 1.324.333-.131.598-.252.834-.453a.849.849 0 0 1 .477-.197c.33-.032.56-.252.705-.535a.97.97 0 0 1 .252-.338c.397-.32.623-.769.956-1.137a.357.357 0 0 0 .07-.145c.02-.084.033-.178-.065-.212-.102-.036-.155.043-.194.126-.206.43-.512.789-.864 1.118-.16.15-.293.163-.404.037-.106-.122-.08-.334.058-.443.455-.355.85-.774 1.27-1.165.093-.086.138-.186.088-.282-.049-.088-.152-.022-.232.002a.896.896 0 0 0-.178.083c-.035.02-.086.075-.056.1.198.159-.02.257-.105.343-.237.244-.491.472-.751.718-.04-.312.032-.47.293-.575a.88.88 0 0 0 .436-.387c-.178.094-.355.19-.535.286-.086-.02-.065-.111-.103-.164-.093-.13-.256-.163-.404-.058-.175.126-.38.175-.559.284-.06.035-.121.054-.185.039-.104-.024-.269.073-.314-.053-.05-.143.133-.176.217-.246.318-.267.64-.528.969-.778a.727.727 0 0 0 .22-.24c.026-.049.047-.1.092-.135.18-.14.314-.31.424-.504a.478.478 0 0 1 .215-.21c.16.148.053.428.232.565.092-.122.013-.216-.018-.298-.056-.155-.064-.32-.088-.478-.03-.186.168-.31.256-.524.24.415.342.82.495 1.212.154.398.318.793.402 1.217.021.102.056.173.142.203v-.005c.004 0 .006.002.01.003-.002-.186-.036-.364-.14-.509-.092-.13-.073-.291-.11-.436a17.051 17.051 0 0 0-.534-1.617c-.159-.432-.159-.468.137-.88-.219-.077-.185.215-.37.24l-.42-1.42c-.07.264.111 1.203.264 1.502l.006-.002s0 .004-.002.005c.045.183.112.363-.054.55-.041.046-.066.117-.142.116-.056-.002-.1-.038-.094-.094.01-.075-.086-.166.028-.22.16-.077.197-.22.262-.352v-.001c-.019.009-.037.022-.054.022-.353.025-.34.019-.445-.306-.146-.451-.202-.936-.417-1.357-.026-.05-.002-.116.049-.156.239-.187.302-.509.557-.685.017-.012.024-.043.04-.051.283-.132.478-.383.73-.55.12-.08.213-.132.241-.279a.332.332 0 0 1 .195-.233c.14.145.127.367.204.545.043.1-.066.162-.18.173-.245.025-.467.17-.709.222a.101.101 0 0 0-.084.103c.13.073.275.036.41-.026.185-.087.378-.073.565-.13.056-.017.112-.017.125.043.019.087-.054.106-.116.124-.062.02-.127.025-.189.051-.078.032-.181.066-.151.177.022.086.097.075.18.047.072-.025.149-.036.225-.047.14-.02.271.054.29.188.041.295-.08.563-.232.82-.142.243-.166.534-.407.737-.049.042-.045.162-.047.244-.006.288.02.572-.034.865-.022.12.298.35.423.317.05-.013.1-.049.151-.056.08-.013.152.015.174.09.019.066-.028.118-.093.154-.038.02-.073.045-.103.064-.006.094.063.107.116.13.056.024.084.05.033.11-.044.053-.087.098-.039.166.049.067.114.07.193.052a1.68 1.68 0 0 1 .222-.035c.062-.006.137-.006.15.067.035.183.163.128.294.096.23-.054.226-.047.286.18.024.089.02.2.123.241v-.008l.011.014c.004-.032.012-.062.012-.094 0-.22.127-.335.304-.235.126.07.22.079.343.011.114-.064.198.019.299.011.164-.071.29-.197.419-.319.05-.049.13-.122.196-.062.073.066.028.154-.043.22a1.652 1.652 0 0 0-.374.48c.2-.007.28-.148.389-.242.093-.082.155-.065.189.034.037.115.099.226.1.346.004.355.23.616.29.945.006.03.017.06.036.083.024.03.056.065.103.045a.1.1 0 0 0 .054-.134c-.1-.206-.127-.443-.206-.657-.058-.158.017-.344-.084-.49-.032-.048.036-.1.103-.138.419-.24.744-.58 1.042-.958.19-.24.396-.473.592-.71.133-.158.264-.318.365-.513.202.071.357.2.52.312a.298.298 0 0 1 .108.238c-.013.327.096.611.208.897.005.015-.008.04-.017.077l-.002-.006Zm-.005.571c.009-.04 0-.088.056-.096.067-.009.086.038.082.096-.01.158-.05.31-.095.466-.07.246-.227.46-.251.716l-.088-.017c.1-.389.198-.776.294-1.165h.002Zm-2.149 3.797c-.121.297-.385.38-.598.483-.339.165-.664.348-.988.543-.037.023-.076.041-.12.024.158-.415.84-.84 1.706-1.05Zm-2.31 1.415s-.016.013-.024.013c-.026 0-.03-.011-.013-.026.006-.006.019-.006.026-.004.006 0 .008.011.012.017Zm-12.376-.412c.291-.075.381.136.49.303.16.248.308.507.46.76.002 0 .003.003.005.005.054-.224.041-.429-.088-.607-.065-.09-.065-.207-.075-.32-.003-.054-.013-.103.064-.118.049-.01.08.015.082.062.006.13.085.216.144.32.221.38.356.807.543 1.206.007.015-.006.04-.01.064-.147.07-.235.022-.297-.104-.067-.139-.125-.285-.254-.381l.003.01h-.009c-.043.185.16.281.133.482-.284.024-.544-.05-.82-.045-.108.002-.143-.087-.18-.171-.133-.297-.257-.601-.423-.878a4.546 4.546 0 0 1-.255-.492c-.065-.148-.01-.21.16-.214.072 0 .147-.004.205.045.038.032.086.087.122.077v-.003Zm.162-1.469c.004-.045.049-.06.09-.064.036-.002.054.017.05.06-.009.038-.04.068-.084.059-.024-.006-.058-.036-.056-.055Zm.739-.148c.028-.025.075-.034.114-.04.032-.003.052.02.045.059-.034.05-.082.056-.13.041-.029-.008-.059-.036-.029-.06Zm.471-.055c.011-.028.041-.04.082-.03.015.006.045.017.029.055-.014.028-.04.047-.07.037-.026-.009-.054-.028-.04-.062Zm.53 1.064c.358-.21.74-.132 1.108-.21-.366.104-.73.287-1.109.21Zm1.1.11c.023.014.038.021.055.03-.02.023-.037.048-.062.066-.005.004-.028-.015-.043-.024l.05-.073v.002Zm-.528.153c-.131.22-.711.376-1.105.299.342-.248.723-.166 1.105-.3Zm-1.481 2.835s.003-.002.005-.006c0-.002 0-.002.004-.005.05.007.1.024.15.018.278-.03.28-.031.51.143-.168.09-.295.008-.406-.034-.082-.032-.25.057-.248-.12a.707.707 0 0 0-.025.023c-.007.005 0-.002.01-.017v-.002Zm.49-.385c.254-.134.288-.13.47.062a.616.616 0 0 1-.47-.062Zm2.864-2.92h.023c.005-.011.022.004 0 0v.002h.007l-.005.002h.005l-.007.011c-.008 0-.015-.004-.023-.004-.389.094-.759.303-1.226.357.232-.184.456-.163.64-.28.186-.118.39-.12.586-.077l.013-.003-.01-.01-.003.002Zm-.852.624-.027.02c-.007-.005-.018-.01-.022-.018-.011-.025 0-.045.03-.045s.035.018.019.043Zm1.396-.823c.028-.047.068-.086.124-.06.02.01.026.045.035.064-.031.075-.086.064-.132.06-.036-.002-.043-.034-.025-.064h-.002Zm-1.748-1.221s.015-.011.023-.02l.016.022c-.007.005-.016.016-.022.016-.008 0-.011-.01-.017-.018Zm.653-.102c-.157.075-.298.075-.522.045.548-.308 1.062-.467 1.572-.608.303-.083.629-.168.936-.029-.36.352-.821.453-1.244.64a.091.091 0 0 1-.112-.025c-.178-.212-.41-.128-.63-.025v.002Zm.31.171c-.187.094-.39.11-.582.182-.072.029-.127 0-.145-.061-.03-.095.061-.102.112-.113.185-.04.372-.07.557-.098.028-.004.056.017.058.09Zm7.586-6.83c.019.033.036.068-.01.147-.04-.033-.08-.052-.093-.084-.028-.07-.151-.068-.117-.175.003-.013.035-.03.052-.028.092.006.127.079.166.143l.002-.002Zm.03-.587c.015-.111.109-.068.176-.089-.017.08-.026.168-.125.15-.023-.003-.055-.04-.05-.061Zm-.59 3.459c-.07.088-.199.084-.247.009-.107-.165.086-.237.17-.37.095.122.183.223.076.36Zm.074-3.22c-.103.061-.206.048-.342.05-.026-.004-.09-.004-.148-.02-.022-.006-.045-.042-.048-.068a.077.077 0 0 1 .07-.09c.139-.017.266-.085.397-.128.06-.02.138-.03.159.04.024.078.006.159-.088.215Zm-.3 2.645c0 .034-.02.062-.051.071-.042.011-.053-.022-.05-.052 0-.017.02-.042.035-.051.033-.017.056 0 .065.032h.002Zm-.063-1.518c.077.022.075.107.06.186-.026.133-.035.276-.194.35-.053.024-.107.027-.144-.012-.026-.028-.032-.062-.011-.111.039-.088.05-.186.095-.27.04-.07.09-.173.193-.143h.001Zm-.078-.746c.017-.055.073-.083.129-.085.049-.002.08.025.063.075a.128.128 0 0 1-.12.09c-.05-.007-.087-.039-.074-.08h.002Zm-.17 1.492c.035-.023.078-.027.114 0 .153.11.164.298.005.567-.136-.152-.132-.33-.164-.492-.004-.021.022-.064.045-.077v.002Zm1.213-.113c-.035-.087-.056-.207.041-.24.09-.03.19.05.204.163.013.1.011.203.015.299-.013.056-.018.108-.04.16-.025.065-.089.116-.149.1-.09-.022-.024-.084-.005-.142.043-.128-.023-.233-.068-.34h.002Zm.642-.32c-.01-.016-.017-.035-.027-.052-.009-.017-.02-.034-.03-.05.09.031.225 0 .21.129-.01.08-.108.067-.153-.025v-.002Zm-.118 1.808c-.008.052-.028.096-.094.1-.04-.008-.08-.036-.073-.074.012-.053.064-.079.118-.079.034 0 .053.019.047.055l.002-.002Zm-.133-.26c.011.014.023.025.032.04 0 0-.013.019-.02.019-.027.004-.036-.008-.03-.034a.224.224 0 0 1 .018-.026v.002Zm.183.745c.038-.034.086-.044.116-.017.026.022.028.071.034.09-.019.084-.041.152-.096.191-.142.106-.29.203-.437.3-.052.033-.103.012-.13-.037-.027-.045.008-.08.04-.108.157-.141.316-.28.475-.42h-.002Zm.746-2.417c0-.054.025-.107.088-.12.071-.015.092.038.088.09a.222.222 0 0 0 .079.184c.063.062.018.164-.034.19-.163.077-.176.207-.204.342a.457.457 0 0 1-.166.267c-.075-.06-.107-.192-.266-.156-.159.038-.187-.075-.153-.212.05-.207.189-.337.396-.337.083 0 .133-.05.199-.071-.01-.058-.027-.115-.029-.175l.002-.002Zm-.082 2.531-.063.07c-.013-.02-.028-.028-.03-.042-.004-.035.02-.054.054-.052.015 0 .026.017.04.026V10.7Zm-.288-1.165c-.05.021-.07-.022-.073-.062-.002-.054-.032-.12.05-.156.055-.009.077.025.083.062.011.059.015.124-.062.154l.002.002ZM38 7.827l-.004.014c.356.332.502.781.604 1.253.01.041 0 .09-.039.113-.04.022-.09.003-.097-.04-.08-.455-.355-.817-.479-1.25-.005-.022.006-.05.013-.076l-.005-.006v-.008c-.086.016-.112-.058-.157-.103-.045-.045-.068-.109-.013-.165.07-.073.16-.06.237-.034.043.015.043.064.015.105a.356.356 0 0 0-.08.2h.009L38 7.826Zm-.047 2.794c.193-.186.337-.426.618-.522-.137.278-.369.485-.558.721-.039.051-.102.017-.1-.049 0-.048.007-.118.039-.148l.002-.002Zm.126-1.476c-.071.018-.131-.014-.135-.081-.01-.158-.118-.295-.04-.519.113.164.266.254.257.447-.002.06 0 .132-.082.153Zm.217-1.601c.08-.058.164-.034.245-.034.237 0 .226.004.222.235-.005.274.107.51.212.748.076.172.151.345.224.518.028.066.045.156-.034.2-.093.05-.136-.018-.183-.095-.151-.25-.24-.524-.32-.811a1.317 1.317 0 0 0-.291-.547c-.053-.056-.113-.115-.075-.214Zm-.62 1.647c-.1-.01-.07-.1-.082-.163-.013-.071.017-.122.1-.122.123 0 .052.077.028.122-.03.055.044.12-.045.163Zm.027-.82c.03.014.022.046.011.075-.015.007-.035.024-.043.02-.026-.017-.03-.047-.011-.075.007-.011.036-.024.043-.019V8.37Zm-.176 1.16c.067-.005.064.06.079.094.002.078-.041.104-.1.108-.052.001-.063-.04-.057-.083.005-.05.007-.113.08-.118h-.002Zm2.022-.398c.082-.013.07.055.069.092 0 .075.118.12.032.214-.006.006-.02.008-.029.006-.125-.028-.084-.135-.084-.222 0-.03.008-.058.012-.092v.002Zm1.187.303c-.234-.179-.417-.323-.673-.352-.101-.01-.137-.107-.176-.187-.093-.196-.193-.391-.24-.61-.031-.148-.123-.247-.274-.212-.168.04-.202-.05-.241-.154-.036-.092-.064-.187-.103-.308.175-.056.278.023.392.053.185.05.356.143.543.188a.575.575 0 0 1 .413.351c.09.197.168.397.305.573.125.16.09.39.054.658Zm-1.524-2.001c-.413-.102-.82-.203-1.273-.117-.092.017-.187-.005-.28-.013-.042-.004-.081-.022-.12-.017-.08.012-.133.164-.218.089-.061-.055-.087-.15-.121-.233-.026-.064-.071-.12-.05-.24.572.042 1.153.003 1.727.063-.308-.068-.596-.207-.922-.182-.475.035-.92-.092-1.39-.066-.18.011-.227-.124-.358-.19.232-.169.46-.109.671-.174.083-.025.176-.014.25-.05.257-.12.519-.018.777-.118.032-.011.086.01.112.032.503.447 1.13.716 1.71 1.052.13.076.156.207.22.365-.283-.049-.501-.149-.735-.207v.006ZM28.585 9.907c-.247.162-.525.21-.793.293-.095.03-.189.014-.282-.082.36-.36.785-.252 1.163-.374.047.12-.037.131-.088.165v-.002Zm-2.036.695a2.903 2.903 0 0 0-.718.13c-.114.038-.247.092-.374.038.075-.21.271-.235.42-.273.322-.082.646-.139.967-.233.144-.041.296-.03.378.128-.213.147-.447.194-.673.21Zm.426.273c-.067.12-.155.14-.232.173-.054.022-.138.066-.145-.028-.006-.072.067-.104.132-.115.071-.013.144-.019.247-.03h-.002Zm-2.337-.603c.36-.025.707-.323 1.073-.207 0 .119-.088.135-.151.14-.307.016-.625.211-.922.067Zm1.327-.205c.1-.139.206-.079.305-.053-.097.059-.19.12-.305.053Zm3.995 1.304c-.266.135-.45.396-.788.415-.243.013-.491.15-.74.224-.131.037-.264.1-.396.07-.004-.093.06-.106.104-.12.357-.093.696-.259 1.047-.377.041-.013.096-.024.12-.052.183-.235.404-.254.653-.16Zm-3.138.945c-.01.011-.023.032-.028.03-.015-.002-.026-.015-.038-.024.006-.008.015-.021.02-.021.014 0 .03.007.046.013v.002Zm-3.207 3.363c-.011.047-.041.068-.088.073-.116.015-.17-.047-.183-.145-.006-.04.034-.075.082-.076.092-.004.195.08.189.148Zm-.546-.092c-.037.101-.148.071-.211.13-.043.037-.098.063-.135.013-.052-.07-.108-.14-.116-.235-.007-.102.075-.147.14-.126.11.034.206.103.305.162.013.007.011.035.017.056Zm-.905-.968s0-.002-.002-.003c-.11.052-.207.043-.32-.046.161-.088.255-.067.32.046.004 0 .008-.004.011-.006 0 .004 0 .007-.002.011l.068.025c-.013.007-.027.024-.036.022-.028-.004-.037-.02-.032-.047-.002 0-.003 0-.005-.002h-.002Zm-.436.402s-.005.021-.01.021c-.007 0-.02 0-.023-.006-.004-.003.003-.016.007-.024l.026.01Zm-.146-.043c.004.119-.177.126-.245.25a.837.837 0 0 1-.183-.38c.066-.054.118-.043.161-.022.095.045.264.028.267.152Zm1.154 3.664s-.017.04-.03.043c-.058.019-.086-.032-.13-.045-.008-.002-.016-.011-.038-.03.028-.01.04-.017.047-.015.052.011.125-.023.15.049l.001-.002Zm-.449-.036s-.013.015-.02.02c-.01-.003-.023-.003-.024-.01-.01-.021.003-.034.03-.032.007 0 .014.013.014.02v.002Zm-1.51.23c-.118.093-.195.009-.3-.029.137-.06.24-.103.3.028ZM7.116 17.58c-.015-.075-.083-.084-.144-.079-.19.02-.337-.08-.507-.114a.265.265 0 0 1-.152-.088c-.276-.38-.68-.626-1.034-.923-.15-.126-.172-.329-.323-.44-.163.115-.174.134-.054.23.118.095.22.191.262.383-.427-.13-.604-.5-.892-.744-.307-.263-.391-.663-.646-1.03.217.028.26.152.313.24.168.279.428.457.69.63.125.085.228.18.327.288h.002c.015-.064-.01-.153.112-.145.189.011.372.036.533.128.286.165.598.27.95.283.316.013.542.21.795.344.607.32 1.217.635 1.879.86.192.066.445.108.523.35.017.055.066.07.122.07.043 0 .103-.021.123 0 .266.26.653.148.982.199a14.42 14.42 0 0 0 2.136.19c.766 0 1.53.032 2.303-.008.277-.015.57-.02.836.068a.864.864 0 0 0 .335.05c.09-.005.166.014.217.085.17.24.448.23.721.225.365-.003.735-.067 1.098-.045.096.006.206-.01.264.06.142.173.36.149.548.124.237-.032.452.025.686.006-.034.105-.101.105-.178.126-.35.096-.688.05-1.03.054-.462.006-.924.04-1.391.111-.348.053-.677.023-.973-.184-.359-.252-.815-.223-1.266-.139-.525.1-1.052.158-1.578.286a.664.664 0 0 1-.583-.122c-.224-.18-.509-.18-.791-.164-.262.017-.527.07-.79.12-.252.05-.48 0-.702-.067a9.298 9.298 0 0 0-1.863-.353c-.422-.04-.819-.171-1.211-.3-.202-.065-.402-.138-.608-.197-.097-.028-.2-.037-.268-.116 0-.086.072-.068.113-.086.078-.038.13-.087.114-.173v.007Zm-1.767-.924c.226.09.3.163.385.366-.215-.067-.275-.242-.385-.366Zm-.012.458c-.013.021-.022.05-.035.053-.06.015-.1-.015-.125-.06-.012-.019.005-.047.03-.049.054-.004.1.011.13.055v.001Zm-1.654-3.712c.168.167.151.366.205.53-.159-.119-.24-.269-.205-.53Zm.856 1.858c-.417-.154-.484-.582-.812-.84.464.023.505.066.812.84Zm.067-.29c.632.309 1.33.436 1.863.869-.187.013-.369.026-.524-.074-.108-.07-.228-.124-.342-.186a.66.66 0 0 0-.355-.077c-.458.023-.539-.043-.642-.531Zm2.123.373s.018-.012.028-.012c.009 0 .015.01.022.015-.01.004-.019.012-.028.012-.007 0-.015-.01-.022-.015Zm2.14 1.431c.324-.002.642.008.967.128-.065.054-.095.094-.112.09a5.93 5.93 0 0 1-.854-.22v.002Zm2.88.737s.004.004.006.004c.127-.017.258-.04.376.039-.204.101-.208.101-.376-.04h-.011l-.004-.001c-.254.107-.494.16-.75.052-.178-.073-.396-.067-.63-.101.075-.122.157-.14.252-.15.412-.053.812-.066 1.128.199.004 0 .006-.002.01-.004v.002Zm.872-.015a.38.38 0 0 1 .04-.036c.018.006.046.006.05.017.014.038-.021.047-.045.047-.015 0-.028-.019-.043-.028h-.002Zm1.823.216c.46-.188.901-.111 1.397-.066-.283.23-.488.041-.709.068-.228.026-.454-.002-.688 0v-.002Zm1.728-.489a4.7 4.7 0 0 0 1.634-.04c-.032.159-.133.181-.206.172-.293-.036-.585.066-.875.114-.275.047-.419-.07-.553-.246Zm2.053.292c-.07-.138-.208-.132-.301-.224.351-.056.654 0 .897.225-.237.198-.49.209-.598-.001h.002Zm.497.627c-.207.079-.387.053-.61.023.31-.175.45-.179.61-.023Zm.313-.971c-.03.011-.064.007-.07-.027-.003-.013.012-.045.023-.047.03-.009.061-.007.073.027-.008.017-.013.045-.025.049l-.001-.002Zm-.045 1.005s-.026.032-.04.034c-.046.005-.08-.012-.082-.062 0-.012.024-.027.038-.04.04.008.076.025.084.068Zm.123.043c.183-.1.361-.103.505 0h-.505Zm-9.497-2.807.015-.019.005.021H9.62l-.002-.002ZM3.54 9.795l.001.01-.01.008c0-.003 0-.007-.003-.009-.007-.002-.007-.004 0-.008 0-.009 0-.009.008-.001h.004v.003l.001.004s0-.004.002-.004c-.022-.1-.017-.206.064-.287.166-.162.224-.374.342-.556a4.68 4.68 0 0 1 .92-1.034c.06-.05.125-.092.206-.082.11.013.15.109.073.195-.301.336-.593.678-.92.992-.247.237-.524.459-.683.77l-.005-.001Zm-.244 3.562c-.16-.166-.17-.305-.031-.492.106.152.078.3.031.492Zm-.082-.76s-.005.016-.01.023c-.005-.002-.014-.003-.014-.007 0-.008 0-.017.005-.025.012-.02.02-.017.02.012v-.002Zm.7-2.688h-.008v.004l.008-.002-.006.013c-.024.017-.037.004-.017-.017.004-.003.004-.005.006-.007 0-.008.01-.013 0 0 0 0 0 .004.003.004h.006c.006-.01.019-.004 0 0v.003l.008.002ZM5.4 7.711a.78.78 0 0 0 .247-.158c.062-.052.114-.045.16.008.055.062.023.11-.042.15-.11.066-.2.177-.33.186-.063-.008-.104-.034-.12-.083-.027-.071.036-.086.085-.103Zm.585.633c.04-.092.148-.083.227-.107.06-.019.125-.011.189-.015.144-.004.24.049.344.148.231.226.422.49.673.701.187.156.27.408.484.547.075.049.095.148.084.248a.703.703 0 0 0 .02.272c.068.245-.038.481-.265.619-.061.037-.103.014-.133-.027a2.223 2.223 0 0 1-.129-.197c-.243-.428-.52-.832-.776-1.25-.172-.28-.422-.486-.613-.745-.045-.06-.148-.094-.105-.192v-.002Zm2.716 2.13c0-.039.03-.056.063-.056.036 0 .054.02.056.012-.004.077-.019.112-.048.118-.049.008-.071-.024-.07-.071l-.001-.002Zm.82.284c0-.01.047-.03.073-.031.032-.002.053.022.05.054-.001.032-.016.06-.027.056-.073-.01-.1-.037-.096-.079Zm.18.716c.01-.092.093-.064.142-.082.065-.012.108.009.105.07-.006.076-.066.11-.131.112-.066.004-.124-.023-.116-.1Zm.583-.509c.008-.036.04-.05.071-.043.012.004.015.032.021.047-.013.034-.041.052-.073.043-.013-.004-.022-.032-.019-.049v.002Zm1.463 1.57c.13.053.155.138.198.215-.097-.015-.164-.086-.198-.214Zm1.116-.655c.01-.058.07-.077.125-.073.041.002.082.01.08.064-.018.054-.056.094-.112.097-.061.006-.1-.037-.091-.088h-.002Zm.539.61c-.002 0-.006.002-.01.006a.034.034 0 0 1-.015.004l.017-.019c0-.002 0-.005.004-.011v-.006c-.226-.071-.255-.124-.176-.35.101.1.198.189.176.35.004 0 .005.002.01.004l-.012.013c0 .01.004.01.01.01H13.4Zm.15.581c0-.047.02-.08.07-.092a.104.104 0 0 1 .109.038c.072.097.078.227-.023.306-.097.077-.146.186-.252.267-.109-.087-.253-.105-.38-.162.07-.145.152-.092.238-.079.194.03.202.02.233-.186a.747.747 0 0 0 .006-.092h-.002Zm1.196-.124c0 .002 0 .004-.002.006-.004.013-.01.028-.013.041-.032-.02.004-.028.013-.041v-.006l-.011-.005c-.086 0-.14-.04-.144-.13h-.011l.001-.019-.007-.011c0-.004.005-.01.01-.015 0 .01-.003.019-.005.028a.041.041 0 0 0 .008.011v.006c.1-.02.086.09.136.126l.021.005h-.011c.004 0 .005.004.01.006l.005-.002Zm-.206.735c.133-.013.146.071.148.197-.275.02-.483-.068-.679-.182-.037-.023-.056-.05-.019-.098.027-.032.064-.036.084-.019.131.111.294.119.466.102Zm.34-.406c.223.167.245.297.08.532.076-.205-.2-.31-.08-.532ZM3.38 9.988c-.034.33-.217.55-.314.797-.025-.277-.02-.545.314-.797Zm37.604 2.907c.097-.228.198-.39.234-.573.13.264.097.347-.234.573Zm2.154.116c.058-.073.12-.16.207-.122.113.047.275.06.273.235a.724.724 0 0 1-.106.396c-.101.16-.094.165-.288.059-.006.433-.114.835-.389 1.198v-.002c-.002.004-.004.008-.006.008-.018 0-.018-.008 0-.017l.008.01c0-.003.002-.006.004-.008.016-.075.016-.145-.027-.205-.048-.07-.116-.08-.183-.008a.93.93 0 0 0-.15.216c-.09.201-.242.367-.355.555-.08.133-.218.2-.368.236-.06-.142.052-.204.13-.276.119-.107.235-.206.19-.38-.01-.035.005-.086.024-.121.333-.598.596-1.227 1.038-1.772l-.002-.002Zm-.279-.434c.032-.022.064-.01.083.015.046.06.05.13-.006.201-.026.034-.058.062-.13.14-.007-.1-.014-.14-.008-.181.007-.06 0-.128.063-.173l-.002-.002Zm-.37 2.833c-.007.045-.043.064-.082.07-.006 0-.017-.032-.015-.05.006-.031.035-.046.065-.052.011.012.034.023.032.032Zm-.284.524c-.378.399-.715.84-1.186 1.148a2.918 2.918 0 0 1-1.34.959c-.15.054-.3.112-.45.169.087-.164.24-.233.373-.33.497-.358 1.01-.696 1.498-1.068a4.86 4.86 0 0 0 .963-.988c.058-.08.112-.252.224-.18.088.056-.002.208-.082.292v-.002Zm-.614-1.08c.042-.1.098-.178.212-.154.04.01.05.06.028.102-.066.118-.152.09-.24.052Zm-15.72 7.412c.101.02.206.03.31.024.466-.022.91.06 1.364.1.368.032.721.162 1.116.077.12-.026.25.006.37.032.686.148 1.395.107 2.113.01.015-.003.032.018.071.044a.523.523 0 0 1-.34.143c-.337.04-.675.085-1.01.098-.566.02-1.13-.02-1.694.037-.33.034-.602 0-.89-.118-.217-.088-.49-.045-.748 0-.422.075-.858.177-1.256.058-.397-.118-.818-.054-1.225-.082-.307-.021-.574-.128-.838-.243-.322-.14-.666-.22-1.012-.298-.12-.029-.245-.042-.342-.113a1.563 1.563 0 0 0-.8-.325c-.024-.002-.045-.032-.064-.049a.134.134 0 0 1 .146-.107c.266.038.52-.113.784-.128.254-.015.486-.186.742-.218.348-.045.696-.101 1.026-.015.217.056.45.04.674.08.462.078.858.279 1.27.45.055.023.155.049.078.18-.097.17-.023.327.151.363h.004Zm1.453-.41c.13-.028.193.013.266.034a.346.346 0 0 1-.266-.034Zm.59.034s.016-.015.025-.019c.024-.007.04.002.04.029-.008.007-.02.02-.023.02-.015-.007-.028-.019-.043-.03h.002Zm.201.006c.118-.07.176-.015.234.058-.114.058-.183.028-.234-.058Zm-9.849.984c-.21.105-.368.074-.568-.018.237-.106.389-.021.568.018Zm-8.886-.548c-.267-.017-.505-.087-.656-.314-.112-.17-.303-.282-.35-.511.47.24.98.35 1.5.449.3.058.582.175.875.254.14.037.277.062.426.063.135.002.279.004.4.047.534.194 1.07.053 1.61-.146.31-.115.616-.19.932-.14a.736.736 0 0 1 .282.102c.43.275.916.387 1.455.374.267-.005.525.057.8-.002.036-.007.075.027.094.077-.15.183-.316.261-.548.201-.185-.047-.395-.007-.593-.032-.544-.063-1.058-.216-1.591-.308-.26-.045-.262-.054-.38.19-.054.115-.14.098-.217.088-.398-.04-.802-.052-1.19-.139-.354-.079-.726-.03-1.095-.022-.32.007-.652.088-.957-.013-.056-.02-.146-.015-.146-.083-.004-.226-.16-.167-.307-.165-.116 0-.23.037-.342.032l-.002-.002Zm3.678 1.138c.079.081.094.201.167.28.473.515.823 1.13 1.279 1.657.335.387.595.827.905 1.274-.213.013-.346-.034-.447-.17-.286-.39-.585-.767-.875-1.154-.307-.41-.623-.816-.907-1.242-.21-.312-.441-.605-.655-.913-.037-.053-.072-.102-.022-.164.037-.045.094-.037.148-.024.155.041.308.086.484.037.101-.028.163.027.224.107.457.602.932 1.19 1.382 1.795.3.402.552.843.866 1.232.193.239.369.487.552.731.028.037.07.068.035.158-.243-.14-.548-.179-.641-.498-.053-.177-.195-.295-.301-.438-.52-.706-1.045-1.409-1.563-2.115-.128-.175-.268-.34-.354-.543-.024-.055-.037-.117-.095-.147-.05-.026-.107-.071-.169-.007-.04.043-.046.11-.014.144h.001Zm-3.625-.885c.084-.075.183-.026.27-.073.042-.023.081-.004.089.045a.087.087 0 0 1-.064.098c-.112.024-.232.058-.293-.07h-.002Zm22.846 7.363c-.127.057-.235.168-.36.235a2.795 2.795 0 0 1-.863.28c-.08.015-.144.017-.168-.075-.028-.102.019-.173.116-.194.41-.09.769-.358 1.186-.433.157-.029.321-.132.461-.248.17-.142.358-.247.584-.267-.314.244-.587.54-.956.704v-.002Zm2.833-1.846c-.342.357-.707.693-1.058 1.042-.224.224-.524.308-.772.485-.049.034-.103 0-.13-.045-.033-.058.021-.107.06-.133.197-.126.358-.297.54-.434.562-.414 1.07-.886 1.583-1.353.032-.029.063-.064.134-.057-.069.201-.222.35-.359.493l.002.002Zm.52-.722-.02.011v.012c-.004 0-.006 0-.008-.002-.006.028-.013.054-.05.06-.004 0-.014-.017-.012-.025.01-.035.032-.045.06-.035v-.006c.002 0 .004-.004.008-.004 0-.017.003-.028.02-.032 0 .008.004.017 0 .02l.002.001Zm9.946-12.742a1.386 1.386 0 0 0-.058.305 2.334 2.334 0 0 1-.411 1.11 6.98 6.98 0 0 0-.372.545c-.313.544-.728 1.022-1.186 1.448-.342.32-.73.59-1.154.821-.516.28-1.078.42-1.576.735-.576.366-1.202.59-1.84.753-.488.124-.93.365-1.374.605-.563.305-1.13.601-1.726.82-.105.039-.213.095-.185.229.032.146.155.137.276.097.576-.184 1.111-.471 1.637-.783.288-.171.587-.306.897-.412.066-.022.142-.08.223.006-.086.113-.206.208-.28.336-.033.053-.092.104-.16.055-.116-.085-.204-.008-.308.067a1.506 1.506 0 0 0-.464.51c-.127.238-.327.443-.473.674a96.659 96.659 0 0 0-1.169 1.875c-.092.15-.219.27-.305.427-.088.16-.26.176-.447.2.062-.212.215-.349.34-.488.354-.39.61-.84.906-1.264.114-.164.265-.299.363-.474.04-.075.114-.156.01-.216-.081-.049-.134.026-.19.081-.148.139-.247.314-.37.47-.058.073-.114.139-.213.12-.058-.011-.137.013-.157-.062-.015-.056.03-.098.072-.135a.568.568 0 0 0 .165-.207c.03-.077.034-.152-.03-.197-.073-.053-.144 0-.194.06-.14.17-.286.34-.408.522-.09.135-.228.17-.348.244-.058.038-.063-.015-.086-.045-.039-.05-.099-.041-.127.017-.142.305-.419.447-.69.598-.067.037-.108.114-.19.13-.068-.074.03-.104.057-.15.04-.063.05-.121-.005-.165-.055-.04-.116-.03-.176.012-.138.098-.271.214-.344.359-.178.35-.49.464-.82.552-.218.058-.44.103-.66.156-.04.01-.085.019-.12.041-.072.044-.18.07-.175.175.006.11.098.133.198.143.257.024.505-.073.758-.117.07-.013.14-.049.213-.035v-.006h.007c.014-.026-.035-.004.002-.019.006-.002.02-.004.02 0 0 .017-.007.023-.023.02 0 .003 0 .005-.004.006h-.006c.011.196-.146.337-.245.48-.168.244-.11.465-.106.706.2-.267.447-.498.559-.81.011-.03.026-.058.041-.088.118-.233.395-.365.45-.637.19-.077.317-.272.549-.316-.13.372-.41.647-.623.959-.03.045-.073.082-.11.124-.05.054-.08.124-.027.167.07.054.11-.032.15-.077.153-.171.303-.346.458-.526.023.028.045.047.041.054-.237.455-.458.923-1.045 1.043-.15.03-.202.133-.17.261.03.118.099.156.232.109.237-.083.473-.156.675-.332.23-.2.518-.295.774-.45.312-.187.619-.383.96-.51.177-.066.32-.198.26-.421-.02-.077.029-.158.096-.23a5.78 5.78 0 0 0 .791-1.05c.189-.317.445-.596.604-.928a.73.73 0 0 1 .124-.173 2.69 2.69 0 0 0 .447-.571c.07-.12.145-.269.398-.314-.376.523-.638 1.017-.974 1.486-.283.393-.533.805-.775 1.218-.261.449-.615.841-.888 1.287.094.04.137-.008.165-.047.129-.192.284-.365.432-.543.411-.502.778-1.028 1.12-1.575.329-.524.72-1.016 1.08-1.523.122-.17.246-.338.313-.536a.548.548 0 0 1 .224-.28c.073-.048.101-.114.13-.184.026-.071-.102-.169.033-.212.165-.05.312-.186.49-.164.106.014.088.1.047.168a5.715 5.715 0 0 1-.3.432c-.188.242-.387.479-.58.72-.472.59-.822 1.249-1.25 1.865-.195.278-.382.562-.572.844-.238.35-.56.637-.784.995-.026.042-.049.075-.011.11.045.04.103.07.168.026a.994.994 0 0 0 .241-.228c.187-.246.39-.483.561-.736.135-.2.31-.36.453-.55.118-.159.254-.305.372-.467.22-.302.445-.605.7-.879.267-.29.446-.627.657-.947.37-.556.782-1.084 1.18-1.621.034-.045.062-.102.107-.126.419-.235.849-.442 1.32-.562-.351.235-.46.637-.74.917a.467.467 0 0 0-.094.133c-.21.493-.516.94-.815 1.385-.226.336-.507.64-.763.958-.365.451-.754.887-1.002 1.413a.454.454 0 0 1-.097.133c-.268.26-.468.583-.76.82a1.73 1.73 0 0 0-.243.238c-.207.284-.402.579-.626.851-.16.194-.344.376-.636.48.185-.27.368-.493.539-.726-.243.11-.39.32-.556.494-.174.184-.35.344-.557.493-.277.199-.516.452-.78.674-.278.233-.568.453-.849.684-.213.175-.47.239-.707.35-.389.18-.751.416-1.14.599a7.364 7.364 0 0 1-1.68.573c-.532.107-1.073.146-1.602.313-.17.055-.342.051-.503.05-.714-.006-1.432.151-2.147.198-.396.025-.79-.015-1.185-.026-.23-.005-.454-.032-.7.026-.403.098-.811.104-1.213.096-.084 0-.168.004-.228-.062-.052-.056-.146-.107-.228-.1-.636.052-1.244-.027-1.853-.121-.303-.047-.617-.057-.928-.081a3.282 3.282 0 0 1-.755-.12c-.161-.051-.35-.04-.528-.04-.34 0-.643-.137-.985-.135a1.05 1.05 0 0 1-.535-.156c-.172-.102-.348-.212-.553-.231-.15-.013-.1-.165-.187-.192-.08-.024-.105.15-.24.094-.314-.131-.69-.175-.955-.363-.21-.148-.471-.199-.658-.368-.075-.067-.167-.08-.257 0-.106.096-.168.051-.233-.024-.163-.182-.31-.38-.586-.428-.069-.012-.121-.1-.164-.166a7.921 7.921 0 0 0-.69-.887c-.14-.154-.208-.36-.284-.55-.186-.459-.503-.823-.75-1.238-.268-.45-.574-.874-.827-1.334-.133-.242-.318-.45-.432-.705-.032-.07-.078-.157-.177-.18-.101.109.007.197-.025.29 0 .003.004.005.004.009v.01c.142.03.13.178.189.268.393.588.767 1.189 1.184 1.76.09.122.153.267.243.425-.195.003-.262-.119-.326-.218-.218-.335-.44-.665-.723-.953-.13-.13-.202-.304-.253-.484a2.005 2.005 0 0 0-.24-.498.42.42 0 0 1-.074-.303l-.01-.002c.004-.005.004-.011.006-.017-.11-.225-.323-.387-.383-.674.323-.011.608.036.89.105.079.019.12.056.155.122.088.168.199.322.273.494.247.568.574 1.088.93 1.58.38.525.714 1.086 1.165 1.558.108.113.181.257.273.387.09.126.181.252.314.338.086-.088.011-.126-.017-.167-.176-.261-.344-.526-.552-.763a7.464 7.464 0 0 1-.505-.682c-.351-.522-.703-1.043-1.036-1.576-.245-.39-.46-.802-.678-1.21-.03-.056-.146-.11-.045-.207.06-.058.144-.058.213-.041.077.019.18.04.168.14-.048.388.255.578.41.854.19.342.445.64.697.94.544.642.924 1.406 1.416 2.087.18.247.314.526.484.781.054.08.139.117.241.124-.14-.291-.353-.534-.523-.804a98.868 98.868 0 0 0-1.418-2.19c-.228-.345-.516-.647-.727-1-.159-.263-.426-.472-.417-.848.305-.028.597.063.907.008a.06.06 0 0 1 .067.03c.337.673.821 1.236 1.257 1.838.351.484.748.933 1.08 1.482-.184-.011-.302-.064-.377-.18-.211-.333-.516-.592-.722-.927-.29-.47-.684-.849-1.03-1.27a1.432 1.432 0 0 1-.238-.372c-.06-.152-.181-.242-.374-.291.013.197.112.32.19.447.141.235.349.421.437.695.024.077.129.117.187.183.41.464.781.956 1.135 1.465.25.36.594.657.776 1.075.1.233.25.44.471.563.107.06.163.29.36.228.02-.023.005-.006.008-.002.004 0 .006 0 .01-.002l-.838-1.195c.249-.066.378.064.49.194.351.41.684.837 1.04 1.245.112.13.151.304.274.42.034.033.066.09.126.038.056-.045.03-.1 0-.139l-1.047-1.424c.205.075.42.077.52.276.022.046.082.076.13.036.096-.077.148-.007.225.012.346.082.52.338.682.612.04.068.09.13.137.194.028.037.058.095.12.043.052-.045.018-.098-.006-.141-.053-.098-.174-.16-.14-.305.117-.043.177.034.218.085.285.357.716.404 1.154.438.217.017.436.005.653.052.159.036.351-.043.529-.06.211-.02.4.017.563.1.306.156.636.26.985.284.266.018.46.15.666.253.293.149.587.115.879-.026.189-.092.377-.128.559-.135.308-.012.623-.004.925-.032.425-.04.754.08 1.12.206a1.7 1.7 0 0 0 1.14-.02 6.77 6.77 0 0 1 1.46-.335c.211-.026.42-.067.632-.116.628-.143 1.249-.158 1.866-.128.389.019.776-.017 1.169-.094.243-.049.437-.197.647-.316.048-.026.087-.075.054-.131-.034-.056-.09-.032-.14-.011-.193.075-.374.176-.578.229-.458.114-.903.13-1.361.094a5.254 5.254 0 0 0-1.601.118c-.378.087-.76.15-1.137.248-.208.055-.425.122-.647.105-.13-.01-.27.059-.404.11-.497.185-.946.114-1.337-.143-.181-.12-.38-.102-.568-.055-.216.055-.41.041-.62.04-.388-.004-.79-.021-1.18.125-.347.132-.64.104-.917-.082-.212-.141-.483-.152-.73-.209-.252-.058-.48-.156-.714-.246a1.557 1.557 0 0 0-.724-.116c-.394.039-.774-.025-1.16-.036-.094-.002-.19-.006-.283 0a.681.681 0 0 1-.556-.212 1.709 1.709 0 0 0-.864-.476c-.115-.028-.17-.116-.228-.199-.547-.77-1.09-1.544-1.645-2.309a45.538 45.538 0 0 0-1.132-1.48.884.884 0 0 1-.15-.33c.364-.099.71-.072 1.054-.043a.139.139 0 0 1 .11.072c.213.393.544.676.888.953.167.133.339.27.458.458.18.284.453.494.63.782.015.024.044.047.08.026.04-.025.066-.062.046-.105-.028-.064-.053-.132-.096-.184-.357-.433-.684-.891-1.107-1.269-.188-.169-.34-.38-.538-.603.247-.03.396.07.495.179.296.32.646.578.97.866.093.082.152.205.304.263.043-.158-.032-.237-.109-.323-.215-.24-.47-.448-.615-.803.333.021.658-.08.883.215.153.2.374.343.54.54a.97.97 0 0 0 .658.352c-.274-.443-.64-.73-.938-1.078.084-.081.164-.081.248-.077.236.01.472.017.705.033a.284.284 0 0 0 .268-.155c.153-.307.159-.15.798-.09.335.031.645.136.954.244.187.065.368-.025.535-.145.039-.03.056-.072.028-.107a.115.115 0 0 0-.077-.038c-.028 0-.062.015-.092.028-.205.102-.4.07-.583.004a6.064 6.064 0 0 0-1.303-.317c-.041-.006-.088-.008-.116-.03-.058-.045-.11-.1.011-.16.323-.162.63-.363.98-.46.142-.04.27-.012.4 0 .219.017.438.028.664-.025a.916.916 0 0 1 .66.1c.146.08.303.14.44.238.188.136.446.126.672.179.225.05.427.124.625.223.095.047.204.072.303.106-.011.067-.064.088-.097.082-.6-.11-1.227-.128-1.822-.259a1.636 1.636 0 0 0-.877.055c.006.103.096.043.144.054.48.1.96.194 1.438.29.315.063.647-.02.965.027.279.042.565.064.851.004.166-.034.318.027.475-.07a.632.632 0 0 1 .404-.052c.454.115.93.149 1.41 0 .458-.143.849-.037 1.238.11.254.095.5.19.804.155.172-.02.353.03.512.085a.72.72 0 0 0 .6-.064c.227-.122.48-.179.726-.2.66-.058 1.324-.139 1.982-.268.36-.072.707-.291 1.085-.273.428-.248.895-.208 1.342-.323.27-.067.395-.227.554-.413-.109-.047-.18.04-.26.054-.041.008-.094.027-.11-.02-.025-.068.037-.09.085-.113.07-.032.143-.056.214-.084a.464.464 0 0 0 .235-.175c.047-.072.14-.14.075-.22-.07-.087-.165-.162-.295-.098-.148.073-.296.145-.423.263-.423.399-.924.5-1.604.18-.388-.182-.833.016-1.128.384-.07.086-.168.086-.26.096-.551.05-1.09.015-1.634-.006.185-.107.376-.047.566-.09a5.727 5.727 0 0 1 1.021-.152c.172-.01.451-.053.621-.1.522-.145 1.045-.212 1.57-.268.053-.006.117-.006.156-.034.368-.278.817-.28 1.216-.468.34-.16.669-.33.977-.545.3-.207.61-.4.885-.646a.916.916 0 0 1 .29-.156c.121-.05.252-.028.288.04.082.157.198.106.308.046.412-.221.855-.2 1.278-.323.016-.004.035.013.108.041-.8.395-1.576.739-2.409 1.101.163.092.3.051.399.004.355-.162.72-.246 1.088-.332.137-.032.27-.046.331-.218.03-.083.14-.108.22-.134.425-.14.795-.422 1.222-.57.142-.05.265-.198.42-.26.053-.02.116-.026.137.026.02.05-.017.115-.067.134-.232.09-.412.294-.67.336-.121.019-.24.1-.359.16a8.8 8.8 0 0 1-.837.371c.072.12.123.02.17.006.187-.05.372-.135.559-.165.555-.085 1.043-.352 1.518-.665.056-.038.112-.072.168-.107.247-.166.498-.31.69-.56.22-.284.588-.395.855-.626.426-.368.946-.614 1.315-1.058.065-.079.115-.16.157-.248.024-.05.031-.109-.017-.139-.056-.034-.11.012-.13.06-.17.416-.598.538-.893.814-.146-.214-.135-.205.022-.389.23-.269.43-.556.593-.866.112-.212.236-.417.312-.643.032-.094.068-.182.023-.34-.357.883-.821 1.648-1.464 2.31-.07-.035-.01-.127-.073-.157-.303.166-.522.429-.754.671-.202.212-.441.35-.697.428a6.296 6.296 0 0 0-1.266.528c-.189.108-.404.245-.621.108.04-.136.144-.185.241-.222.328-.124.63-.304.943-.46.448-.226.819-.56 1.215-.863.228-.173.43-.372.683-.524.443-.267.753-.686 1.036-1.112.06-.09-.04-.113-.09-.15-.002 0-.004.003-.006.005.006.075-.043.135-.086.192-.228.297-.55.49-.828.736.273-.34.576-.65.914-.928v-.011l.006.003c.14-.212.306-.4.537-.524a.472.472 0 0 0 .153-.124c.181-.238.413-.437.574-.693a.35.35 0 0 0 .067-.178.153.153 0 0 0-.093-.143c-.05-.025-.103.005-.148.043-.026.02-.062.041-.073.068-.116.285-.41.47-.5.768a.315.315 0 0 1-.205.222c-.106-.09.049-.276-.08-.305-.131-.026-.21.13-.303.218-.023.023-.049.04-.109.089.096-.446.16-.859.393-1.24.1-.162.125-.37.338-.462.029-.012.05-.074.055-.113.009-.059.046-.136-.025-.164-.08-.034-.076.096-.157.1.053-.233.03-.43-.205-.528-.096-.04-.114-.122-.07-.233.045-.11.086-.22.16-.321.074-.104.052-.198-.023-.282-.075-.087-.146-.092-.232.013a1.078 1.078 0 0 0-.217.363c-.015.052-.056.107-.108.116-.071.013-.107-.043-.135-.098-.04-.073-.058-.154-.022-.238.099-.235.074-.49.248-.71-.153-.293-.045-.637-.123-.951-.071-.282-.16-.556-.241-.834-.11-.374-.25-.737-.372-1.107a.432.432 0 0 0-.109-.175c-.11-.107-.23-.077-.292.077-.035.09-.06.185-.082.277-.017.067 0 .148.073.135.155-.026.159.075.194.169.143.38.296.757.442 1.135.017.045.015.1.022.148.04.25.056.506.126.748.035.122.058.257-.027.4-.095.01-.173-.094-.29 0-.084.068-.134-.022-.168-.075-.134-.195-.282-.38-.413-.577-.151-.227-.163-.509-.103-.796.013-.068.086-.145-.007-.188-.066-.03-.11.028-.165.073-.114.098-.303.07-.467-.053-.124-.09-.1-.233-.015-.33.095-.11.069-.158.031-.263-.187-.534-.503-.99-.764-1.48a1.955 1.955 0 0 0-.71-.74c-.343-.21-.657-.465-1.042-.62-.229-.09-.369-.296-.561-.433a5.013 5.013 0 0 1-.836-.784c-.011-.01-.004-.037-.008-.073.161-.071.333.019.378.088.075.119.142.111.25.076a.272.272 0 0 1 .186.001c.046.017.108.046.15.027.439-.196.69.144 1.024.237.153.04.275.163.428.21.258.079.417.267.585.441.358.365.711.733.995 1.163a.532.532 0 0 0 .098.108c.402.308.914.458 1.286.81.157.148.31.302.49.428.153.107.198.296.247.47a.764.764 0 0 0 .258.386c.174.149.325.31.424.526.08.179.198.346.41.402.282.076.383.305.417.557.058.447.291.789.529 1.144.02.462.194.877.243 1.332.043.4.05.796-.088 1.206l-.015.03ZM34.416 25.11c.232-.345.465-.69.712-1.022.155-.208.295-.443.56-.544.057-.023.124-.068.171-.006.034.045-.002.1-.032.145-.32.51-.628 1.025-.996 1.508a.359.359 0 0 1-.098.088c-.256.149-.497.328-.83.472.156-.284.372-.432.513-.642v.001Zm-.288-.073c.032-.229.168-.404.355-.552-.08.205-.165.406-.355.552Zm.557-.81-.03.036.004-.01c.007-.009.017-.016.024-.026h.002Zm8.145-6.688c.004-.107.086-.137.172-.149.04-.005.083 0 .09.057-.03.094-.116.114-.196.133-.02.006-.066-.024-.066-.041Z" fill="#2C6939"/><path d="M36.052 11.719c-.06.107-.034.203-.007.298 0-.103 0-.204.013-.31 0 .004-.004.008-.006.01v.002Zm-1.374 1.27c.007.1.041.19.079.276l-.08-.277ZM4.956 15.936l-.05-.009.05.011v-.002Zm20.284 1.438v-.027a.11.11 0 0 0-.069-.071c-.007 0-.015 0-.022-.004a.195.195 0 0 1 .092.102Zm12.751-9.539.005-.002h-.005v.002Zm-9.442 7.555v-.004h-.01s0 .004.01.004Zm-15.144-2.922-.009.002h.009v-.002Zm21.25 11.798.006-.01-.006.01ZM3.9 9.904s-.007.003-.007.005h.013c-.002 0-.004 0-.006-.002v-.003Zm-.368-.102v.01s0-.006.002-.01h-.002Zm.003-.007-.002-.004c-.002 0-.006 0-.008.002V9.8h.006c0-.002 0-.006.002-.008l.002.002ZM32.898 25.19v-.005h-.002l.002.005ZM14.592 12.81l-.01.008.01-.008Zm10.588 5.868-.003.003-.004.006.013-.006s-.006-.005-.006-.003ZM9.497 7.112c.328.163.584.434.988.48.656.078 1.11.497 1.567.882.192.163.377.34.589.48.269.183.568.208.879-.024.274-.204.551-.407.79-.66.152-.16.17-.377.318-.55.462.245.89.528 1.354.763.238.119.556.222.44.624-.006.017.009.04.016.056.107.216.062.47.131.731-.22-.052-.39-.116-.572-.135-.452-.047-.854-.222-1.275-.34-.333-.094-.673-.154-1.012-.222-.069-.013-.164-.09-.222.032-.054.117.02.201.1.258.044.032.119.024.18.033.507.085 1.021.143 1.485.352.151.067.333.097.497.116.348.042.681.12 1.02.19.317.066.633.137.951.207.066.015.131.022.154-.062.018-.072-.051-.07-.1-.081a4.34 4.34 0 0 1-.439-.12c-.423-.141-.426-.132-.267-.63a.43.43 0 0 0 .299.104c.134.001.07.187.164.257.139.105.187.116.337-.041.082-.089.148-.081.219-.023.063.05.106.12.121.201.025.124.064.167.213.101.124-.052.283-.08.307.123.01.071.086.067.15.073.067.006.147-.066.207.013-.01.026-.017.056-.031.085-.05.097-.124.2-.01.278.107.071.195-.06.297-.077.023-.004.05-.045.064-.074.071-.152.215-.161.295-.103.174.122.4.086.58.165.174.077.33.068.496-.062.04-.032.091-.071.138-.02.008.047-.024.079-.049.114-.061.09-.091.188-.005.254.1.079.19.011.273-.08.09-.098.192-.183.284-.283.196-.212.398-.43.701-.505a.659.659 0 0 1-.127.336c-.024.036-.013.083.019.113s.073.028.114.006c.118-.064.224-.13.288-.261.151-.312.163-.632.196-.951.013-.124-.084-.15-.19-.128-.05.011-.098.049-.143.077-.116.073-.175.034-.215-.07-.022-.058-.013-.12-.017-.182-.018-.268-.084-.289-.329-.107-.026.02-.054.038-.114.077-.069-.124-.23-.122-.258-.259-.035-.178-.181-.28-.263-.426-.04-.068-.096-.123-.191-.13-.167-.011-.33-.045-.496-.045-.387.002-.71-.158-1.04-.286-.345-.133-.658-.336-.98-.515a.572.572 0 0 0-.326-.06c-.182.012-.352.102-.528.13-.448.07-.752.33-.93.744-.05.118-.104.239-.119.366-.015.124-.1.136-.185.089a25.684 25.684 0 0 0-.552-.3 5.05 5.05 0 0 1-1.23-.914.228.228 0 0 1-.034-.049c-.16-.282-.413-.477-.665-.665-.223-.165-.457-.316-.634-.532a.562.562 0 0 0-.477-.22 1.605 1.605 0 0 1-.95-.253.97.97 0 0 0-.65-.147c-.345.05-.685.186-1.033.149-.05-.006-.127.037-.157.107-.04.088.023.131.066.186.078.097.224.024.325.094-.123.22-.004.394.065.578-.22.068-.254.12-.196.292.034.1.105.167.183.227.05.04.126.06.094.162-.172-.014-.324-.046-.447-.162-.084-.08-.197-.133-.296-.201-.078-.055-.168-.1-.248.004-.075.095-.032.193.054.236l-.006.01Zm12.604 2.506s.02.008.02.01c-.005.028-.019.033-.032.013-.002-.004.008-.015.012-.023Zm-.453-.037c.026.103-.067.148-.142.19-.045.026-.103-.006-.088-.042.079-.175-.032-.318-.028-.5.245.03.223.212.258.352Zm-.413.37c.035-.025.076.007.075.058-.038.133-.15.212-.243.304-.008.008-.042 0-.055-.01-.013-.01-.028-.037-.022-.05a.724.724 0 0 1 .243-.302h.002Zm-.75-.275c-.097-.206-.071-.353.017-.55.11.182.134.327-.017.55Zm-.155-1.273c.061-.04.123-.027.18.001.068.034.078.1.024.153-.072.067-.015.165-.086.227-.128-.028-.094-.149-.131-.222-.026-.05-.07-.107.015-.16h-.002Zm-.705.576c-.024.017-.041.012-.043-.015-.004-.035.02-.05.052-.056l.034.03c-.015.013-.026.03-.043.041Zm.003-.73c.096.001.085.088.08.161-.014.056-.007.14-.09.137-.087-.004-.094-.086-.087-.161.006-.062.019-.14.1-.138h-.003ZM19.22 9.29c.04-.028.082-.034.112-.004.049.047.04.11.004.17-.026.043-.028.103-.094.122-.063 0-.069-.059-.09-.1-.037-.075 0-.135.07-.186l-.002-.002Zm-5.529-1.02c-.031 0-.052-.026-.043-.062.02-.071.055-.143.122-.175.036-.017.058.04.056.087-.024.064-.037.144-.135.15Zm.008-1.221c.017-.038.041-.07.1-.055.184.051.485.487.463.684a.376.376 0 0 1-.086.207c-.041.053-.088.113-.153.118-.079.006-.09-.071-.101-.126a2.188 2.188 0 0 0-.225-.646.204.204 0 0 1 .002-.18v-.002Zm-.297 1.383c.02.01.043.04.04.062 0 .03-.031.05-.072.049-.024-.008-.036-.032-.028-.062.007-.03.024-.064.06-.05Zm-.473-2.217c.147.137.26.31.43.434-.118.1-.178.047-.232-.012-.094-.101-.182-.204-.275-.306-.04-.041-.092-.101-.153-.037-.236.23-.206-.038-.296-.102.262-.137.354-.137.527.023h-.001Zm-.625 1.052.028-.034h-.002l.008-.006s.003-.003.003-.005l.004.004v.007c.023.101.116.17.112.282 0 .007-.009.017-.015.024-.134-.11-.14-.122-.097-.306v-.006c-.013.014-.026.025-.037.038l-.004.002Zm-.136.96.005.002.004.004c.054-.029.112-.051.16-.089.132-.1.253-.049.289.045.05.128.147.201.222.3.028.037.053.091.013.14-.039.05-.09.038-.14.02a1.166 1.166 0 0 1-.546-.416c-.004 0-.008.003-.011.005l.007-.01s-.007.01-.005.01v-.011c-.13-.05-.217-.156-.324-.237-.041-.032-.078-.08-.037-.128.048-.058.121-.048.168-.005.107.097.217.195.19.37h.005Zm-.004-2.129s.007.047 0 .051c-.064.034-.12.024-.193-.036.082-.05.14-.049.193-.015Zm-.19 1.26c-.125-.045-.204-.161-.235-.347.15.081.23.18.236.348Zm-.5-1.566c.062.026.159.047.09.143-.05.073-.079.214-.234.14-.187-.088-.195-.076-.404.162-.023-.174-.04-.3-.056-.432a.703.703 0 0 1 .604-.011V5.79Zm-.946.197c-.043-.005-.07-.035-.06-.08.01-.05.054-.059.095-.059.05 0 .06.038.058.077-.015.053-.052.068-.093.062Z" fill="#2C6939"/><path d="m12.341 7.227.005-.004h-.005v.004Zm-.626 13.553c.198.01.387.05.574.105a4.922 4.922 0 0 0 1.707.194c.367-.021.728 0 1.066.11a.61.61 0 0 0 .247.025c.275-.028.542.006.813 0 .096 0 .191-.011.287-.017.044-.002.084-.013.093-.068.01-.065-.032-.082-.086-.096-.122-.03-.245.034-.374.025-.497-.036-.984-.113-1.474-.173-.231-.028-.469-.024-.703-.06-.183-.028-.39.015-.589-.008-.503-.06-.983-.193-1.484-.263a3.675 3.675 0 0 1-1.266-.392 2.762 2.762 0 0 0-1.18-.352c-.376-.024-.754-.015-1.131-.02a.777.777 0 0 1-.429-.126 2.272 2.272 0 0 0-1.131-.387 1.443 1.443 0 0 1-.501-.132c-.554-.252-.986-.66-1.462-1.009-.32-.235-.599-.514-.88-.79-.096-.096-.237-.177-.227-.395.35.135.66.27.912.503.064-.094-.088-.15.028-.235.135-.097.053-.167-.032-.206-.08-.036-.175-.049-.265-.066a.61.61 0 0 1-.374-.23c-.296-.365-.61-.719-.877-1.106-.21-.302-.447-.608-.355-1.054.024-.122-.032-.235-.133-.33-.185.199-.127.422-.163.614-.316.049-.422-.131-.49-.355a1.295 1.295 0 0 0-.252-.498c-.058.137 0 .224.032.316.086.263.224.503.224.806 0 .14.02.329.17.392.241.1.355.3.475.506.27.454.733.742 1.017 1.187.17.267.496.39.664.675-.08.092-.176.084-.252.13-.058.033-.126.063-.127.136a.167.167 0 0 0 .104.17c.064.024.152.039.213.013.169-.072.283-.012.399.073.151.113.312.212.46.327.59.456 1.217.838 2.03.894.2.013.42.07.56.21.295.297.695.297 1.095.271.677-.045 1.31.03 1.89.321.364.183.745.346 1.18.369l-.003-.004Zm-8.168-4.141c-.047.05-.097.011-.144-.004-.142-.043-.226-.16-.329-.248a1.782 1.782 0 0 1-.626-1.189c.16.075.147.255.235.364.256.325.505.656.823.927.04.034.109.077.043.148l-.002.002Zm8.738-11.523c.574-.003 1.15-.122 1.75-.155a1.61 1.61 0 0 1-.744.56c-.103.037-.192.09-.189.197.002.116.088.17.21.169.02 0 .043.002.064 0 .36-.04.645.088.886.308.048.043.1.073.166.026.096-.071.18-.037.273-.026.154.019.313.019.468.036.063.005.099-.014.127-.072.036-.073.015-.124-.052-.148-.047-.017-.101-.02-.152-.025-.172-.007-.312-.09-.467-.135-.11-.032-.135-.107-.107-.214.013-.05.024-.107.054-.152.185-.295.217-.624.326-.934.017-.05.043-.11-.032-.122-.056-.01-.066.045-.079.084-.093.263-.2.525-.278.79-.146.488-.167.413-.565.3-.019-.006-.037-.017-.054-.024-.116-.057-.127-.119-.004-.198.174-.109.297-.266.44-.404.127-.124.08-.293-.081-.296-.335-.008-.677-.025-1.01.037a4.27 4.27 0 0 1-.628.073c-.237.01-.479.008-.716.143.095.158.24.18.4.179l-.006.003Zm6.066 10.138c-.222-.028-.454.066-.686.015-.204-.045-.426-.06-.645-.077-.353-.026-.742.04-1.034-.199-.02-.017-.06-.017-.09-.013-.211.028-.422.056-.632.094-.088.015-.123.086-.123.17 0 .084.067.09.129.09.04 0 .09-.005.125-.025.181-.103.34-.14.468.037.022.032.093.03.143.036.062.01.131.004.113.115-.391.03-.782.127-1.175.204-.355.072-.692.263-1.062.275.169.195.39.116.599.056.417-.12.83-.268 1.254-.302.447-.034.907-.18 1.341-.05.041.014.079 0 .122-.01.226-.06.454-.11.68-.074.03.006.071.021.083-.011.08-.207.24-.135.38-.154.095-.013.253.058.272-.083.023-.17-.164-.086-.262-.097v.003Zm-2.055-4.073c-.046-.024-.102.02-.151.023-.565.02-1.137.086-1.659-.124-.42-.17-.798-.41-1.197-.613-.512-.26-.996-.577-1.524-.819-.388-.178-.757-.408-1.247-.423-.037-.005-.099-.018-.16-.018a.127.127 0 0 0-.124.092c-.02.067-.007.127.06.152.037.013.082.01.121.02.711.18 1.405.4 2.031.76.578.33 1.175.63 1.77.935.644.33 1.35.263 2.07.171.048-.005.093-.032.089-.073-.004-.032-.043-.066-.075-.083h-.004ZM28.225 20.2c.353-.034.7-.046 1.05-.044.118 0 .212.072.335.041.498-.124 1.004-.052 1.502-.251.138-.055.288-.072.43-.141.157-.075.327-.119.495-.15a2.39 2.39 0 0 0 .408-.102c.531-.194 1.055-.411 1.602-.537.158-.036.31-.089.464-.141.05-.017.107-.062.094-.119-.013-.06-.077-.054-.131-.033-.11.045-.219.12-.331.137-.445.067-.871.22-1.3.38-.694.259-1.41.368-2.118.539-.668.16-1.34.178-2.009.199-.376.01-.753.127-1.133.118.176.188.42.124.64.103h.002ZM7.717 12.519l-.002-.004c0 .002.004.004.006.006-.028-.28-.236-.46-.354-.69-.134-.261-.344-.473-.527-.704-.47-.594-.93-1.195-1.397-1.79-.1-.129-.213-.247-.376-.305-.018.144.058.24.135.342.445.6.89 1.198 1.361 1.779.348.426.717.838 1.023 1.3.028.043.09.064.137.092a.095.095 0 0 0-.004-.022l-.002-.002v-.002ZM5.14 9.135c.157.222.321.438.49.65l-.017-.019a5.279 5.279 0 0 1-.473-.63Zm.942 1.223c.155.196.31.391.46.588.06.08.12.158.181.235-.224-.265-.432-.545-.641-.825v.002Z" fill="#2C6939"/><path d="m5.06 9.029.008.004v-.01l-.008.006Zm2.67 3.52-.007-.004v.011l.003-.004h.002l.002-.003Zm10.599-7.634c.232-.366.368-.78.608-1.15.091-.14.233-.298.145-.509-.173.115-.334.205-.37.41-.013.075-.069.133-.117.195-.188.239-.285.517-.4.782-.214.487-.418.975-.665 1.448-.11.21-.198.421-.237.645.185-.162.247-.393.374-.586.258-.395.408-.835.66-1.237l.002.002Zm-1.033 1.823-.012.012s.008.006.008.008c0-.006.004-.014.004-.02ZM5.6 10.52c-.237-.295-.48-.579-.806-.838.087.252 1.992 2.788 2.164 2.9.019-.014.036-.03.054-.044-.2-.286-.396-.575-.602-.857-.277-.381-.514-.791-.81-1.161Zm7.136.378c-.39-.053-.716-.262-1.1-.339a2.315 2.315 0 0 1-.458-.144c-.052-.023-.134-.04-.103-.119.072-.18-.039-.133-.136-.112-.095.02-.189.037-.284.062-.082.02-.137.071-.137.16 0 .072.043.103.109.121.147.042.29.094.437.13.475.117.952.222 1.425.34.11.028.213.053.34.004-.013-.088-.052-.1-.093-.103Zm5.29 2.735a.273.273 0 0 0-.09-.019l-1.5-.011a.804.804 0 0 0-.188.017.123.123 0 0 0-.092.12c-.002.054.017.103.073.114.06.012.123.008.185.016.208.02.419-.029.628-.051.247-.027.47.058.713.047h.22c.072 0 .131-.032.146-.104.015-.073-.039-.109-.095-.133v.004ZM4.462 16.61l.05-.044-1.458-1.644-.056.05c.392.634.854 1.203 1.466 1.639h-.002Zm14.802-1.185c0 .025 0 .051-.002.075.183.021.365.07.55.053.166-.015.254-.006.28.171.013.083.113.163.204.13.127-.047.07-.162.052-.246-.018-.093-.056-.173-.147-.21-.305-.125-.623-.007-.935.03l-.002-.003Zm14.438 5.329.024.016c-.032-.022.007.006-.024-.016-.335.067-.662.199-1.005.19-.073-.002-.15.027-.16.13.336.033.669-.02 1-.148.088-.033.166-.065.165-.174v.002Zm-.26.135ZM32.22 5.167c-.158-.086-.34-.019-.514-.004-.168.014-.346-.071-.54.087.37.037.71-.042 1.055-.083Zm2.145 15.449-.007-.007-.006.005c.004 0 .01 0 .013.002Z" fill="#2C6939"/><path d="M33.703 20.754c.23.067.45.058.65-.14-.227-.048-.433.115-.65.14Zm.242-.027c.052-.015.102-.032.155-.045l-.155.045Zm-9.169-.853c.137.012.257.02.43.034-.15-.123-.292-.134-.43-.034Zm8.539-14.806c-.234-.057-.4 0-.563.043-.015.004-.023.054-.034.084.174-.04.355-.024.596-.127Z" fill="#2C6939"/><path d="M32.716 5.194a.376.376 0 0 1-.043-.014l.047.015-.002-.001h-.002Zm4.568 12.617a.058.058 0 0 0 .028-.079.055.055 0 0 0-.08-.022c-.101.066-.196.139-.294.208.15.038.242-.058.346-.105v-.002ZM16.069 5.781c-.041.1-.132.171-.13.288.085-.079.152-.165.13-.288Zm20.57 12.359c.043 0 .084-.017.09-.067.005-.047-.029-.076-.072-.072a.1.1 0 0 0-.093.073c-.002.051.034.066.075.066Zm1.561.6c-.158-.055-.22.064-.345.079.134.039.213-.034.346-.08Z" fill="#2C6939"/><path d="M32.67 5.182h-.007.01c.014 0 .03.004.04.011-.056-.063-.095-.155-.216-.101-.005.002-.01.017-.009.024.02.11.114.062.182.066Zm4.702 12.398c.133-.019.208-.112.305-.082-.097-.032-.193-.06-.305.082Zm.16-.084c.02 0 .038-.008.059-.013-.02.009-.041.02-.06.013ZM17.29 6.756l-.006-.007.003.01h.004v-.003Zm-.004.003c-.077.047-.145.1-.11.233.05-.098.148-.143.11-.233Zm21.112 11.85-.007-.008v.004c.002 0 .004.002.009.006l-.002-.002Zm-.121.081c.066.016.09-.035.111-.086-.04-.032-.082-.041-.124.013-.02.028-.02.066.013.074Zm-9.567-8.11c.029.007.057-.013.074-.041.017-.025.013-.044-.015-.044-.026 0-.066 0-.08.017-.021.023-.008.058.02.068h.002ZM7.729 12.551l-.004.004h.008v-.006l-.002.002H7.73Z" fill="#2C6939"/><path d="M7.732 12.553c.006.05.032.086.087.094.003 0 .026-.034.024-.046-.013-.058-.058-.062-.11-.048Zm25.919-7.459-.024.008.022.008.002-.016Zm-1.168 3.744-.015-.022c-.014.01-.034.022-.036.033 0 .014.015.027.022.04.025-.01.034-.028.029-.05Zm8.264 7.698-.006-.008-.014.006c.006 0 .012 0 .02.002Zm-.037.006s.012-.004.016-.008a.167.167 0 0 1-.03-.004c.003.004.009.012.013.01l.002.002ZM31.48 26.69c-.383.046-.727-.103-1.11-.084.304-.276.69-.218 1.07-.383-.126-.058-.207-.057-.29-.006-.117.07-.203.062-.253-.06-.056-.137-.2-.094-.301-.068-.617.16-1.242.194-1.863.338-.207.05-.437.083-.649.025a.42.42 0 0 0-.25.026.973.973 0 0 1-.374.038c-.184-.004-.372-.073-.56.04-.201.12-.431.129-.616.114a1.439 1.439 0 0 0-.62.073c-.25.088-.508.134-.757.143a1.475 1.475 0 0 0-1.071.498c-.165.18-.325.186-.512.178-.073-.003-.145-.022-.217-.017-.6.044-1.16-.092-1.713-.225-.544-.132-1.077-.291-1.644-.357a.375.375 0 0 0-.217.026c-.04.02-.082.03-.095.08-.015.06.005.106.058.123.146.045.258.17.419.166.44-.008.824.155 1.23.251.716.167 1.432.322 2.2.308.414-.007.863-.1 1.231.128.023.013.062.008.094.004.211-.026.424-.032.632-.085.71-.178 1.427-.283 2.14-.419.52-.097 1.048-.126 1.573-.225.416-.079.834-.006 1.25-.173a.591.591 0 0 1 .28-.047c.318.04.623-.115.933-.15.105-.011.161-.07.157-.17-.004-.095-.082-.1-.16-.091l.005.002Zm-.815-.463c.024-.006.033.003.032.028l-.042.035c-.003-.015-.009-.03-.01-.045 0-.005.012-.017.02-.018Zm-4.196.967c-.597.064-1.188.274-1.784.303-.18.007-.374.097-.552.01.056-.11.15-.112.228-.129.812-.176 1.906-.306 2.158-.26 0 .035-.018.07-.05.074v.002Zm1.662-.223c-.047.009-.075-.03-.071-.076.006-.056.049-.07.09-.052.118.05.25-.05.404-.006-.148.126-.29.105-.423.134Zm.389-.305c.058-.053.1-.09.153-.077.012.002.027.032.023.038-.043.06-.1.071-.176.04Zm.449-.066a.509.509 0 0 1 .432-.062c-.183.05-.309.01-.432.062Zm.533-.107c.003-.04.037-.043.065-.04.015.003.024.023.038.035l-.056.03c-.017-.01-.047-.017-.047-.027v.002Zm.093.652c-.005.013-.032.019-.048.028-.034-.005-.049-.03-.042-.062 0-.007.036-.02.053-.02.034 0 .058.017.04.054h-.003Zm.268-.702c-.014-.021 0-.04.026-.038.017 0 .033.008.052.013-.011.015-.019.038-.032.043-.013.004-.037-.005-.044-.017l-.002-.001Zm.18.186c-.027.037-.064.05-.104.035-.028-.01-.043-.043-.02-.066.017-.018.056-.024.084-.024.024 0 .063.006.041.053l-.002.002Zm.074-.202v-.005l-.002.004v.002h-.002l-.015-.023.015.02c0-.001 0-.003.002-.005a.95.95 0 0 0-.004-.073c.017 0 .032.002.049.003a23.53 23.53 0 0 0-.04.068c0 .008-.003.013-.003.013v-.004Zm-8.493-.371c.52.073 1.024.212 1.58.122a.98.98 0 0 0 .39-.13 2.474 2.474 0 0 1 1.154-.39c.187-.014.387.043.636-.108-.249-.062-.449-.116-.652-.158a.616.616 0 0 0-.346.034c-.346.132-.718.158-1.04.382a.275.275 0 0 1-.123.033c-.414.04-.823.064-1.223-.013-.713-.133-1.433-.22-2.186-.146-.672.066-1.317-.015-1.943-.177-.197-.05-.4-.084-.602-.12-.049-.008-.114-.004-.137.062-.02.062.028.092.075.11.295.125.583.26.909.32.372.068.748.115 1.135.117.41.002.819-.025 1.23-.04.385-.015.767.049 1.145.102h-.002Zm15.973-1.492.004-.008c-.004 0-.006 0-.01.002l.006.006Z" fill="#2C6939"/><path d="M37.157 25.417c.417-.226.563-.695.928-.95.486-.341.794-.848.957-1.399.062-.208.258-.26.344-.438.18-.37.552-.62.735-.991.019-.036.067-.06.093-.094.225-.301.447-.602.629-.953-.208.02-.27.175-.38.273-.325.285-.641.582-.871.945-.441.69-1.014 1.296-1.436 1.998-.047.078-.109.138-.169.205-.147.17-.318.325-.389.543.122-.02.154-.135.223-.212.065-.073.1-.19.27-.212-.158.265-.341.466-.506.676-.035.043-.104.273-.19.03-.017-.049-.236.158-.178.188.144.071.03.131.004.205-.02.06-.131.101-.064.188v-.002Zm-17.63-.654c.169.084.328.18.522.225.217.051.442-.017.763.004.148-.032.395.02.65-.032.564-.118 1.136-.169 1.69-.387.061-.024.136-.013.13-.1-.003-.067-.065-.088-.132-.093-.157-.015-.315.018-.473.047-.453.08-.904.047-1.36.142-.31.064-.625.076-.937.081a1.798 1.798 0 0 1-.694-.107c-.076-.03-.162-.062-.222.041-.049.083.002.149.064.18v-.001Zm5.41 1.297c.017.105.11.084.2.073.48-.062.958-.149 1.442-.162.542-.015 1.09-.102 1.638-.165.337-.04.671-.094 1.008-.137.101-.014.178-.053.256-.19-.43.06-.823.13-1.213.165-.494.047-.993.11-1.476.087-.4-.021-.789-.021-1.19.067-.167.038-.34.038-.506.075-.078.02-.172.085-.155.184l-.004.002Zm-14.585-2.392c.058.08.116.16.148.255.07.224.203.408.342.583.406.514.753 1.07 1.139 1.6.26.357.48.744.729 1.11.088.128.21.232.316.346l.06-.05c-.885-1.42-1.93-2.73-2.762-4.243-.054.256-.058.277.028.397v.002Zm4.489.05c-.03.025-.057.05-.087.073.198.37.488.671.751.992.26.318.539.62.804.932.266.312.462.692.842.904-.172-.393-.46-.703-.716-1.028-.505-.644-1.06-1.25-1.593-1.87v-.003Zm17.649 4.915c.088.03.18.013.277-.028.321-.139.619-.33.925-.502a.361.361 0 0 0 .18-.22c-.011-.058-.041-.095-.097-.103a.502.502 0 0 0-.307.055c-.27.143-.542.282-.829.381a.649.649 0 0 0-.17.1c-.13.101-.12.27.02.317Zm-18.163-.783c-.06.077-.078.146-.015.221.139.166.223.365.303.566.03.075.084.124.202.096-.168-.305-.329-.594-.49-.883Zm-.002.01a.295.295 0 0 0 .021.165c-.03-.045-.049-.094-.02-.166Zm.14.332c.057.067.111.135.119.229-.01-.096-.07-.16-.118-.23Zm.919-.211c-.041.043-.068.105-.028.134.104.073.1.26.299.265-.01-.207-.206-.256-.271-.397v-.002Zm-.002-.001v.002s.002-.005.004-.005l-.006.003h.002Z" fill="#2C6939"/><path d="M37.503 24.72c.038.017.077-.028.087-.072.005-.026 0-.054 0-.08-.027.009-.057.015-.076.033-.04.038-.077.093-.01.12v-.001Zm.086-.162v.009c.002 0 .004 0 .007-.002l-.007-.007Zm-2.96-10.585c-.247.205-.464.438-.727.628-.632.458-1.18 1.039-1.885 1.397-.086.044-.101.104-.077.177.385-.242.817-.395 1.174-.7.386-.33.84-.56 1.24-.88a7.609 7.609 0 0 0 1.621-1.725c.038-.056.062-.124.139-.118.187.013.159-.115.144-.207-.053-.291-.064-.595-.19-.862l-.005.013c.006.192.043.378.066.564.032.25-.066.424-.228.59-.01.013-.017.024-.029.037-.467.57-.985 1.071-1.538 1.533.142-.124.28-.248.424-.37.116-.1.159-.207.136-.329-.05-.035-.093-.107-.132-.214-.098-.268-.114-.563-.217-.826h-.002c-.011.334.065.648.193.93.078.178.024.253-.109.362h.002Zm-1.494 1.362c.185-.144.37-.291.567-.42.052-.034.099-.072.15-.108-.235.18-.474.357-.717.528Z" fill="#2C6939"/><path d="m34.554 12.682.038.023c.03.094.058.19.086.285 0-.022-.004-.045-.002-.067.004-.094-.011-.205-.122-.245v.006-.002Zm1.509-.984v-.025c0 .014 0 .025-.004.036 0-.004.004-.008.006-.011h-.002Zm.003-.024-.005-.01v.008h.005v.002Zm-.006.406-.016-.061c0 .118.006.235-.005.355-.02.222-.116.367-.307.457a.296.296 0 0 0-.159.148c-.134.29-.411.453-.602.675-.07-.006-.093-.044-.1-.081-.021-.11-.07-.207-.115-.306.038.13.077.259.122.387a.44.44 0 0 1 .017.067c.082.059.186.017.334-.126.227-.218.395-.482.625-.697a.546.546 0 0 0 .047-.047c.215-.28.22-.501.158-.772Z" fill="#2C6939"/><path d="m34.554 12.682-.01-.01c0 .003 0 .006.003.008l.007.004v-.002Zm2.493 1.364c-.131.102-.284.175-.393.308-.29.355-.673.61-1.027.887-.4.312-.854.55-1.284.821-.04.025-.075.047-.077.098.055.064.112.013.167-.017.329-.18.641-.4.972-.57.619-.313 1.11-.79 1.642-1.22.056-.046.08-.128.118-.196.022-.04.033-.083-.002-.113-.034-.028-.073-.03-.114.002h-.002Zm.233-1.826c.015-.01.033-.047.03-.05-.118-.127-.056-.358-.217-.457.017.04.028.08.041.122-.014-.041-.026-.083-.042-.122a.103.103 0 0 0-.025-.015c.004.184.105.334.136.509.006.037.049.03.077.013Zm-.22-.528s.005.004.009.005v-.01l-.004.001-.005.004Zm-3.699-.244c.02.113.043.223.075.394.077-.195.059-.31-.01-.415l-.065.02Zm3.667-.075h-.002v.004s0-.004.002-.004Zm.036.307s.004-.012.004-.018c0 0 0-.004-.004-.007 0 .002.002.004.004.005.024-.103-.058-.184-.043-.285-.078.124-.034.216.039.302v.002Zm-.008-.099c-.018-.046-.052-.088-.052-.139 0 .051.034.094.053.14Z" fill="#2C6939"/><path d="M37.065 11.688h.004v-.004l-.004-.005c0 .004 0 .007-.003.013l.003-.004Zm-3.408 4.776c-.045-.003-.08.023-.109.057-.013.017-.005.033.02.035.044 0 .08-.024.112-.056.01-.019.004-.034-.023-.036Zm-2.134-2.184c.012-.025 0-.035-.028-.023-.01.003-.015.013-.022.02a.138.138 0 0 1 .022.014c.01-.004.026-.006.028-.012Zm.363-.9-.006.005h.013l-.007-.006Z" fill="#2C6939"/><path d="M31.838 13.42c.015-.01.028-.024.043-.035-.015-.002-.032-.006-.047-.006-.03 0-.062-.01-.083.027-.004.005 0 .02.006.024.026.02.054.01.08-.01Zm.007 2.712c-.026.004-.066 0-.06.041.004.034.04.03.07.025.028-.006.056-.015.086-.023-.023-.03-.053-.049-.094-.043h-.002Z" fill="#2C6939"/><path d="M31.942 16.181v-.006h-.002l.004.004-.002.002Zm1.865.249.014-.016-.018-.004.004.02Zm-10.554.588-.012-.015v.025l.012-.008v-.002Z" fill="#2C6939"/><path d="M22.94 16.384c.133.225.153.456.301.62a.695.695 0 0 0-.3-.62Zm.554 1.091c.025-.165-.034-.225-.127-.267-.03.111.033.171.127.267Zm-.131-.276c.023-.096-.024-.143-.103-.167.022.064-.008.163.103.167Z" fill="#2C6939"/><path d="M23.363 17.207s.004 0 .006.002c0-.004 0-.006.002-.01h-.008v.008Zm-.122-.182.018.006c0-.006-.004-.01-.006-.016l-.012.008v.002Zm1.893.245-.006-.007h-.002l.008.01v-.002Z" fill="#2C6939"/><path d="M25.128 17.261c0 .079.019.139.11.135v-.007a.37.37 0 0 1-.112-.128h.002Zm.112.122.006.003c0-.003-.004-.009-.006-.012v.009Z" fill="#2C6939"/><path d="m25.148 17.272-.013-.007v.005h.013v.002Zm.09.117.01.007-.008-.013v.006h-.002Zm12.119-9.045-.01-.004-.01.006.02-.002ZM12.34 7.223l-.006.005-.004.006.011-.006v-.005h-.002Z" fill="#2C6939"/></svg>