<svg viewBox="0 0 239 184" fill="none" xmlns="http://www.w3.org/2000/svg"><path d="M74.207 137.044a.07.07 0 0 0-.04.002c-.037.033 0 0 .04-.002Zm114.009-54.13.026.146.009.002c-.008-.049-.026-.1-.035-.148Zm-.041-.107c-.002.008.003.025 0 0Zm-4.579-.825s.013-.017.025-.024c-.01-.002-.018-.014-.035-.027-.004.019.004.03.01.051Zm1.99 27.958c-.018-.051-.018-.098-.027-.147l-.081-.017a.248.248 0 0 1 .106.173l.002-.009ZM38.526 44.18l.005-.022s-.011-.002-.003.01l-.002.012Zm-1.498-.82s-.006-.022-.014-.035c0 0-.005.02-.015.019l.041.008-.012.008Zm108.857 48.533s-.026-.005-.044 0l.035.043.01-.051-.001.008Zm50.079-25.69s-.021.005-.034.023l.034-.023Z" fill="#66462C" fill-opacity=".1"/><path d="M38.526 44.175s.024.024.074.064c.004-.02-.002-.04 0-.049-.039.002-.057-.002-.065-.013l-.009-.002Zm15.131 15.55s-.065-.098-.083-.149c.018.05.056.096.084.14l-.002.009Z" fill="#66462C" fill-opacity=".1"/><path d="M227.072 101.84c.664-2.617.51-5.186.481-7.756-.018-1.446-.09-2.93-.878-4.167-.719-1.135-.493-2.514-.684-3.763-.158-1.056-.146-2.167-1.049-2.795-.948-.664-1.406-1.514-1.595-2.594-.054-.305-.294-.567-.47-.835-.652-1.031-1.511-1.962-1.679-3.234-.115-.834-.182-1.684-.605-2.402-1.198-2.015-2.547-3.9-4.456-5.383-1.541-1.202-2.972-2.463-3.545-4.45-.247-.842-.731-1.652-1.248-2.425-1.024-1.517-2.399-2.793-3.297-4.364-.916-1.61-2.524-2.39-3.982-3.344-1.52-.994-3.099-1.92-4.467-3.097-2.464-2.12-5.147-3.99-8.168-5.377-2.468-1.133-4.922-2.254-7.276-3.559-1.676-.927-3.477-1.675-5.456-2.068-.512-.103-.979-.34-1.43-.61-1.599-.956-3.404-1.643-4.826-2.857-.242-.21-.579-.385-.902-.414-.732-.069-1.288-.43-1.823-.77a4.828 4.828 0 0 0-2.298-.796c-1.743-.113-3.367-.638-5.113-.742-.605-.034-1.215-.22-1.802-.481-1.213-.54-2.503-.918-3.708-1.5-1.253-.602-2.745-.12-4.12-.034-.683.04-1.399-.016-2.086.219-3.023 1.034-6.146 1.55-9.174 2.521-.712.23-1.074.085-1.457-.473-1.257-1.813-3.209-2.912-5.134-3.97-2.262-1.234-4.675-2.248-7.287-2.849-.281-.057-.572-.24-.542-.564.144-1.458-.97-2.004-2.083-2.203-1.011-.178-1.73-.662-2.281-1.273-.687-.771-1.486-1.076-2.546-1.015-.484.027-.885-.01-1.051-.506-.282-.841-1.042-1.12-1.886-1.291-.989-.2-1.82-.654-2.278-1.504-.311-.57-.808-.787-1.43-1.002-1.028-.36-2.08-.689-2.881-1.465-.631-.61-1.514-.984-2.528-.842-1.545.22-2.999-.003-4.425-.327-.678-.156-1.351-.123-2.068-.045-.889.095-1.792.304-2.693.148-1.887-.32-3.782-.562-5.717.489-.44.24-.984.255-1.492.267-2.174.04-4.283.459-6.329 1.487-1.692.86-3.36 1.866-5.299 2.06-.126.01-.25.181-.386.242-1.246.496-2.373 1.238-3.52 1.905-1.24.728-2.566 1.234-3.93 1.127-2.342-.18-4.46.636-6.51 1.69-2.24 1.149-4.418 2.435-6.904 2.92-1.83.359-3.654.995-5.5.817-.626-.064-1.243-.216-1.891-.259-.913-.051-1.835.03-2.667.502-1.615.919-3.487 1.26-5.026 2.374-.188.14-.488.132-.722.236-1.895.81-3.774 1.364-5.201 3.238-1.561 2.052-3.5 3.957-5.674 5.573a5.97 5.97 0 0 0-1.185 1.202c-1.05 1.417-2.096 2.852-3.066 4.312-1.535 2.316-3.321 4.43-5.496 6.268-.277.229-.57.446-.702.793-.637 1.652-1.828 2.977-3.114 4.24-.797.782-1.232 1.656-1.341 2.72-.176 1.7.197 3.272.66 4.8 1.053 3.517 2.221 6.995 3.36 10.485.17.524.364 1.053.663 1.506 1.309 1.992 2.649 3.965 3.812 6.062.209.371.55.619.825.924.755.83 2.01 1.12 2.666 2 .65.862 1.467 1.518 2.3 2.185 1.123.896 2.056 2.029 3.21 2.86 1.47 1.063 2.326 3.018 4.686 2.935.125-.001.263.107.368.2.693.612 1.54 1.069 2.033 1.88.314.51.729.959 1.27 1.264 1.125.629 2.023 1.497 2.976 2.313.575.49.844 1 .801 1.783-.05.943.052 1.89.802 2.567.21.194.384.425.249.745-.323.763-.014 1.164.727 1.359.364.091.453.439.672.67 1.007 1.032 1.276 2.422 1.753 3.703.852 2.275 1.59 4.588 2.134 6.987.409 1.793.773 3.63 1.954 5.116.17.212.275.483.365.741a11.606 11.606 0 0 0 2.836 4.485c.63.617 1.049 1.352 1.114 2.3.068 1.02.432 1.984.93 2.86.366.644.61 1.326.887 2.014.677 1.696 1.334 3.405 3.03 4.452.582.368 1.056.918 1.223 1.628.118.514.444.919.84 1.239 1.483 1.182 2.728 2.53 3.577 4.207.114.228.383.434.642.513 1.002.31 1.723.955 2.475 1.579.426.354.856.815 1.383.931 1.171.264 1.807 1.069 2.342 1.89 1.001 1.539 2.531 2.356 4.249 2.99.455.163.864.38 1.278.615 1.027.582 2.102 1.058 3.392 1.088.858.014 1.634.171 2.256.778.643.638 1.523.896 2.531.869 1.188-.035 2.24.249 3.044 1.054.613.614 1.43 1.002 2.323.978 1.75-.055 3.263.412 4.692 1.156 1.431.735 3.071 1.139 4.464 1.884 1.21.646 2.222.905 3.61.144.928-.506 1.946-.621 2.819.02.378.281.865.415 1.398.327 1.204-.201 2.377-.079 3.494.103.815.139 1.693.058 2.451.39 2.479 1.081 5.281 1.008 8.008 1 1.429-.004 2.65.368 3.749.902.848.413 1.685.662 2.608.707 2.037.11 4.067.21 6.028.652 1.749.39 3.571.163 5.38.04.549-.04.965-.339 1.396-.626 1.13-.759 2.301-1.368 3.664-1.483.714-.06 1.385-.307 2.047-.636.552-.271 1.14-.633 1.71-.686 1.616-.136 3.046-.799 4.431-1.587.812-.458 1.748-.696 2.439-1.348 1.287-1.227 2.887-1.98 4.379-2.906a10.705 10.705 0 0 0 2.44-2.053c.873-.98 1.921-1.943 3.25-2.502 1.91-.797 3.664-1.92 5.225-3.224 2.446-2.042 4.898-4.065 7.557-5.841.277-.185.429-.412.565-.687.772-1.491 1.819-2.757 3.407-3.584.277-.14.475-.376.71-.568 1.675-1.389 3.154-2.994 5.106-4.086.431-.242 1.015-.497 1.233-.872.897-1.536 2.394-2.569 3.541-3.895.3-.34.596-.662.836-1.059.801-1.325 1.837-2.495 3.329-3.199.805-.38 1.559-.815 2.242-1.38.236-.201.584-.344.568-.659-.043-.926.592-1.127 1.366-1.264 2.247-.4 4.158-1.686 6.224-2.594 1.461-.639 2.633-1.648 3.768-2.647.896-.789 2.015-1.319 2.766-2.218 1.241-1.484 2.638-2.813 4.12-4.08.15-.13.328-.263.407-.434 1.007-2.031 2.444-3.912 2.978-6.11.259-.883.685-1.714.91-2.603l-.055.006Zm-29.125-49.688c-.975.079-1.268-.007-2.471-1.124-.672-.626-1.83-.736-2.116-1.773 1.781.628 3.385 1.47 4.587 2.897Zm-73.321-25.68c-.66.275-1.087.02-1.742-.256.829-.366 1.324-.31 1.742.255Zm-80.878 68.61c-.563-.461-1.058-.998-1.525-1.538-1.05-1.219-2.232-2.215-4.085-2.226-.31 0-.663-.188-.828-.426-.922-1.362-2.707-1.795-3.79-3.02-.699-.802-1.741-1.307-2.448-2.153-.551-.655-1.168-1.288-1.92-1.787-2.01-1.334-3.025-3.419-4.261-5.335-.44-.676-.717-1.454-1.441-1.957-.295-.21-.456-.555-.536-.901-.497-2.238-1.507-4.26-2.314-6.364-.95-2.454-1.926-4.95-2.114-7.659-.094-1.373.357-2.724 1.427-3.887.994-1.09 2.1-2.13 2.563-3.532.072-.226.297-.546.504-.69 2.579-1.864 4.198-4.466 6.082-6.844.44-.552.835-1.14 1.21-1.723 1.098-1.737 2.437-3.175 4.103-4.476 1.444-1.123 2.587-2.601 3.858-3.928 1.76-1.852 3.802-3.255 6.245-4.006.481-.143 1.262-.403 1.715-.623 1.666-.776 3.303-1.628 5.13-1.881.3-.037.602-.127.883.019 1.525.799 3.2.194 4.821-.092.792-.142 1.568-.466 2.37-.57 1.75-.224 3.194-1.348 4.83-1.889 1.62-.553 2.969-1.642 4.575-2.207.746-.267 1.477-.457 2.22-.404 1.618.123 3.195-.43 4.794-.614a1.3 1.3 0 0 0 .682-.298c1.245-1.02 2.737-1.636 4.094-2.465.78-.474 1.659-.518 2.487-.796 1.61-.546 3.076-1.424 4.705-1.931 1.003-.305 2.003-.511 2.984-.49 1.195.019 2.313-.289 3.344-.863 1.24-.684 2.645-.657 3.848-.155.786.328 1.581.213 2.401.068 1.215-.217 2.411-.25 3.566.055 1.288.341 2.669.185 4.002.268.552.032 1.098.053 1.527.39.55.44 1.221.719 1.879.977 1.207.485 2.35.975 3.106 2.063.406.581 1.231.846 2.01.986.581.11.942.387 1.21.86.487.838 1.131 1.387 2.386 1.107.864-.19 2.004.709 2.177 1.474.061.27-.087.472-.375.539-.195.04-.444.088-.58.015-.867-.496-1.858-.732-2.826-1.035-.392-.124-.652-.506-.994-.745-1.381-.983-3.155-1.21-4.795-1.613-2.225-.54-4.525-.837-6.814-1.194-1.574-.248-3.062-.834-4.743-.774-2.09.066-4.184.015-6.274.17-1.857.14-3.723.457-5.572.777-.744.125-1.423.406-1.843 1.21-.54 1.04-1.675 1.345-2.708 1.536-1.366.257-2.68.614-3.957 1.22-.97.452-2.036.584-3.01 1.099-1.57.821-3.29.9-4.978 1.172-2.864.47-5.773.718-8.598 1.606-1.706.535-3.382 1.184-5.07 1.804-.114.039-.238.21-.262.33-.045.222.13.364.337.353.295-.012.608-.064.886-.168 2.122-.79 4.302-1.167 6.502-1.558 1.067-.184 2.139-.608 3.222-.656 1.531-.064 3.037-.533 4.597-.43 1.243.082 2.574-.352 3.836-.8 2.363-.838 4.615-2.011 7.106-2.477 1.318-.24 2.688-.693 3.513-2.004.274-.434.887-.568 1.376-.612 1.445-.125 2.918-.646 4.27-.665 2.002-.022 4.015-.273 5.999-.21.751.02 1.063.448.744 1.149-.494 1.075-.977 2.188-1.725 3.123-.987 1.234-1.771 2.562-2.652 3.844-.855 1.242-1.682 2.517-2.72 3.651-.251.279-.558.52-.137.81.357.25.548-.076.71-.31 2.112-2.885 4.368-5.696 6.185-8.747.509-.85 1.38-1.51 1.6-2.507.071-.351.43-.59.775-.493 1.217.344 2.581.14 3.857.541-.245.903-.935 1.547-1.529 2.201-.674.745-1.826.164-2.567.931.023.103.009.26.079.355.802 1.08.778 1.066-.024 2.221-1.084 1.58-2.232 3.127-3.387 4.665-.269.364-.705.766-.457 1.422 1.103-.667 1.518-1.75 2.246-2.582 1.121-1.286 2.311-2.559 3.016-4.064.359-.764.891-.852 1.384-.565.461.263.081.604-.126.838-1.711 1.96-2.657 4.35-4.973 6.01-1.568 1.124-2.493 2.753-3.056 4.482-.309.953-1.525 1.347-1.7 2.39.455.118.695-.234.933-.488 1.434-1.517 2.736-3.123 4.197-4.635a41.905 41.905 0 0 0 4.524-5.592c.595-.877 1.268-1.702 1.91-2.551.208-.279.393-.669.81-.62 1.441.158 2.85-.927 4.294-.474.167.051.399-.044.597-.057.28-.024.659.08.638-.387-.012-.332-.275-.484-.608-.462-.855.058-1.71.116-2.531-.077-.786-.195-.869-.443-.318-1.017.791-.837 1.684-1.128 2.836-1.162 1.84-.054 3.135.476 3.917 2.005.261.507.273.928-.177 1.265-1.536 1.14-2.425 2.723-3.491 4.172-1.117 1.528-2.253 3.06-3.175 4.717-.57 1.015-1.504 1.859-1.961 3.022 1.008-.597 1.506-1.52 2.201-2.279.457-.504.697-.722 1.296-.218.623.518 1.423.947 2.449.398.348-.187.62-.123.815.272.571 1.167.706 1.158 2.117.109.948 1.626 2.534 1.377 4.222.847.616-.196 1.213-.075 1.264.55.084 1.032.89 1.213 1.658 1.146 1.42-.13 2.783.155 4.191-.05.613-.09.861.086.795.633-.1.8.222 1.444.529 2.12.378.807 1.165.949 1.919.995 1.316.08 1.941-.818 1.465-1.93-.101-.243-.365-.43-.255-.755.91.069 1.756 1.149 1.548 2.086-.187.835-.343 1.694-.899 2.463-.454.62-.386 1.16.118 1.653.755.74 1.248.672 1.793-.349.17-.313.351-.596.584-.87.482-.58.975-.693 1.576-.33.356.214.726.45 1.138.56.377.112.826.042 1.092-.349.241-.36.008-.568-.221-.837-.568-.659-1.148-1.346-.97-2.352.067-.378-.19-.6-.417-.832-.332-.335-.531-.669-.317-1.24.21-.554-.093-.945-.779-.8-1.031.228-1.574-.247-1.684-1.062-.112-.806-.683-1.1-1.329-1.24-.936-.198-1.497-.757-2.033-1.4-.443-.526-.94-1.01-1.425-1.509-.551-.566-1.197-.795-2.073-.981-1.62-.328-3.388-.625-4.413-2.052-.416-.574-1.084-.87-1.79-1.067-1.293-.36-2.534-.852-3.967-.83-.393.009-.763-.137-1.105-.331-.421-.246-.563-.55-.416-1.055.281-.994.91-1.775 1.488-1.649 1.833.416 3.905.133 5.568.95 1.42.698 3.094.85 4.458 1.563 1.997 1.055 4.388 1.433 6.195 2.806 1.117.84 2.073 1.862 3.294 2.582.269.161.3.443.429.683.466.896.746 1.006 1.888.846.101-.015.203-.039.299-.073 2.782-.94 5.652-1.392 8.463-2.167a10.286 10.286 0 0 1 1.943-.345 46.99 46.99 0 0 0 3.168-.302c.693-.091 1.38-.023 1.871.272 1.772 1.063 3.915 1.31 5.861 1.954 1.698.558 3.615.644 5.44.925.698.105 1.323.304 1.743.86.223.304.544.512.962.552 1.163.129 2.092.673 2.992 1.265 2.27 1.502 4.884 2.442 7.42 3.508 1.358.569 2.774 1.07 3.973 1.9.265.179.569.303.905.353.842.135 1.647.414 2.151 1.033.713.865 1.76 1.434 2.543 2.563-1.578.036-2.754-.335-3.951-.65-.195-.048-.45-.322-.432-.496.092-.98-.765-1.046-1.375-1.232-1.103-.34-2.276-.55-3.427-.784-.588-.119-1.2-.252-1.446-.791-.439-.944-1.357-1.273-2.302-1.473-1.327-.287-2.657-.601-3.985-.88-2.375-.498-4.753-1.07-6.595-2.627-.621-.527-1.443-.72-2.235-.925-1.712-.445-3.413-.941-5.329-.51-.912.207-1.812.05-2.646-.083-1.136-.176-2.181-.014-3.264.38-.23.087-.48.09-.838.151.062-.788.283-1.616-.839-1.728.316-.595.797-.649 1.219-.715.367-.059.698-.117.975-.39.348-.357.255-.732-.214-.827a4.657 4.657 0 0 0-2.099.065c-1.829.484-3.718.697-5.461 1.546-.551.263-1.089.162-1.639.247-.657.09-1.187.338-1.464.959-.175.383.244 1.732.656 1.887.52.194 1.087.416 1.679-.096.259-.224.548-.512.999-.243-.08.483-.865.768-.659 1.327.169.48.446.91.847 1.25.174.15.346.31.477.496.305.418.417.833-.218 1.203-.564.33-.668.889-.762 1.395-.125.705.401 1.176 1.047.835 1.36-.712 2.852-.802 4.248-1.338 1.136-.438 2.336-.666 3.593-.43 1.686.307 3.451.095 5.202-.352 1.309-.331 2.593-.534 3.655.403.257.22.889.037 1.277.178 1.768.652 3.722.559 5.598.805.003-.017.013-.023.025-.039l.052.01c.109-.102.241-.138.365-.095.099.038.083.16-.006.16-.124.001-.24-.04-.358-.073-.001.008-.02.014-.032.029l-.043-.009c-.269.498-.755.444-1.17.431-2.556-.046-5.13.438-7.694.604-1.7.11-3.386.765-5.116.851-.852.041-1.712.17-2.557.31-1.093.18-2.125.54-3.081 1.45.632.164 1.139.115 1.599-.094 1.616-.75 3.362-.69 5.008-1.238.209-.064.451-.033.5.164.082.337-.232.353-.474.411-.832.206-1.665.42-2.572.645.529.41 1.005.605 1.683.368 2.549-.881 5.118-.948 7.695-.96.577.001 1.157-.06 1.84-.1-.377-.77-1.127-.263-1.634-.437-.424-.14-.984-.004-1.493.054-.353.035-.816.172-.78-.31.03-.368.505-.521.834-.481.771.094 1.499-.213 2.25-.328 2.262-.343 4.514-.42 6.765-.49.867-.029 1.721.18 2.623-.02.251-.056.498-.095.671-.336-.039-.462-.435-.39-.777-.37-.701.044-1.411.087-2.112.176-.721.095-.885-.277-.831-.809.055-.532.352-.988.993-.867 1.299.245 2.652.36 3.84.894.683.307.669.331-.082 1.016.287.2.618.232.985.218.198-.014.472-.092.587-.006 1.114.813 2.49 1.074 3.837 1.436.547.147 1.109.261 1.655.416 2.366.676 4.6 1.61 6.865 2.478.172.07.313.206.532.179 1.195-.159 1.61.638 2.041 1.402.064.12.069.272.123.4.345.84.046 1.377-.894 1.608.049.063.088.178.133.178 1.367-.132 2.181.317 2.58 1.592.223.695.973 1.194 1.482 1.796.113.139.208.327.007.491a.673.673 0 0 1-.417.13c-1.74-.13-3.466-.285-5.208-.406-1.392-.095-2.744-.343-4.105-.547a4.363 4.363 0 0 0-1.761.061c-.197.05-.403.061-.603.083-2.135.2-2.915-.814-2.127-2.729.178-.444.556-.51.863-.448 1.458.295 2.993-.275 4.473.043.86.183 1.86-.068 2.878-.36-.52-.106-1.024-.288-1.553-.307-1.94-.063-3.882-.074-5.828-.104-.248-.005-.506-.004-.729-.085-.347-.124-.536-.376-.42-.77.108-.362.385-.413.717-.39 1.631.1 3.306-.193 4.904.113.392.08.779.14 1.291-.326-1.897-.144-3.664-.316-5.447-.41-1.527-.087-1.59-.126-1.785-1.572-.078-.577-.071-1.573-.666-1.489-.915.135-.341 1.026-.402 1.548-.225 1.896-.375 1.411-4.701 1.033-1.213-.103-2.454.153-3.678.456-.878.214-1.768-.082-2.653-.092-3.189-.032-6.385.63-9.584.951-.145.015-.331.058-.429.145-.385.367-1.281.016-1.274.596.001.695.929.67 1.429.61 1.089-.117 2.22-.092 3.279-.367 1.902-.496 3.798-.477 5.693-.717 2.75-.342 5.479-.1 8.246-.439 1.138-.143 2.26.191 3.44-.157.565-.162.605.3.614.694.009.483-.236.727-.744.65-1.784-.263-3.628-.013-5.436-.024-2.162-.02-4.34.171-6.506.258-.822.03-1.651-.085-2.534.199.753.446 1.16.627 1.554.564 1.868-.28 3.668.12 5.514-.094 1.708-.196 3.371.007 5.066-.21.401-.053.785-.064 1.082.353-3.304 1.458-6.366 3.384-9.917 4.044-.996.182-1.968.51-2.928.868-1.18.437-2.413.65-3.549 1.266-2.564 1.395-5.297 2.266-8.091 2.955-.681.164-1.43.182-1.946.843.325.324.701.178 1.088.06 1.283-.372 2.579-.68 3.887-.868.302-.046.679-.067.779.229.098.305-.188.532-.484.677-.837.409-1.651.876-2.52 1.18-.994.351-1.934.65-2.883-.183-.694-.604-1.949-.457-2.94-.694-.238-.048-.559.003-.7-.133-1.104-1.034-2.644-.883-4.079-.987-.847-.065-1.491-.57-2.376-.58-.983-.012-1.931-.24-2.893-.399a4.25 4.25 0 0 1-1.053-.365c-2.422-1.319-5.121-1.625-8.035-1.174-.1.015-.203.039-.304.054-.512.119-1.135.304-1.193.809-.063.575.437.863 1.084.825.27-.016.478.052.555.416-.569.4-1.125.163-1.666.072-.383-.078-.75-.197-1.133-.275-.819-.166-1.186.027-1.39.725-.191.682.026 1.145.8 1.177 1.147.036 2.226.362 3.376.337.373-.005.551.085.621.393.315 1.293 1.542 1.328 2.642 1.506.283.049.606-.055.901-.022.713.073.897.52.331.904-.904.61-.581 1.556-1.089 2.264-.173.24.209.505.692.354 1.26-.395 2.526-.726 3.788-1.085.244-.066.499-.139.836.036-.699 1.39.186 1.926 1.244 2.621 1.502.999 2.878.646 4.378-.1a9.594 9.594 0 0 1 2.61-.879c.772-.128 1.554-.264 2.306-.512.618-.204.612-.392-.018-.965.581-.63 1.197-1.13 2.113-1.273.487-.08.953-.367 1.423-.584.303-.135.6-.243.837-.009 1.103 1.079 2.63.64 3.784.117a13.34 13.34 0 0 1 3.924-1.1 8.37 8.37 0 0 0 4.188-1.743c.862-.663 1.809-1.174 2.696-1.787.537-.372.588-.798.069-1.037-.602-.273-1.235-.214-1.876.146-.992.555-1.913 1.206-2.92 1.75-1.097.596-2.171.86-3.586.876.741-.723 1.576-1.034 2.128-1.653.563-.634.921-1.478 1.884-1.72.094-.025.215-.098.246-.163.714-1.681 2.452-1.676 3.807-2.23.976-.39 2.056-.509 3.192-.724-.334.333-.621.827-1.015.979-.846.318-.936.763-.819 1.454.094.545.003 1.123.022 1.688.024.539-.135 1.103.418 1.527.416.316.128.988.289 1.466.194.573.005.98-.596 1.321-.352.205-.287.628.006.67 1.117.181.674 1.098.984 1.757-3.163.89-6.232 1.756-9.591 2.696.584-1.084 1.557-1.813 1.193-2.822-.147-.412-.278-.902-.865-.897-.246.075-.296.279-.232.354.719.787.302 1.53-.287 2.293-1.223 1.569-2.75 2.577-4.952 2.754.409-.923 1.48-.822 1.939-1.423.46-.602 1.222-1.124.996-1.98-.434-.088-.451.211-.593.387-.839 1.032-1.702 1.917-3.231 2.017-.954.064-1.937.533-2.898.81-3.209.9-6.408.74-9.604 1.224-.816.128-1.673-.108-2.49-.238-1.254-.21-1.248-.235-1.444 1.079-1.869-.37-3.712-.735-5.469-1.394-1.113-.421-2.275-.728-3.272-1.375-.297-.194-.751-.188-1.139-.249-.361-.056-.733-.015-.893.38-.139.337-.113.69.233.866.683.352 1.343.771 2.109.935 1.125.228 2.134.727 3.175 1.152 2.737 1.124 5.759 1.54 8.765 1.643 2.697.092 5.489-.063 8.256-.268 1.819-.13 3.567-.782 5.372-.844.312-.007.55-.129.768-.414.851-1.136 2.014-1.791 3.383-2.244 2.921-.966 5.964-1.222 8.872-2.253.372-.13.775-.235 1.192-.23.452.002.764.039.812.547.024.317.206.603.285.913.11.423.033.754-.415 1.127a46.981 46.981 0 0 1-5.762 4.166c-2.116 1.29-4.236 2.551-6.427 3.728-.38.208-.752.337-1.159.246-.29-.059-.608-.07-.86-.183-1.968-.889-4.141-.982-6.354-.923-1.454.035-2.861.186-4.328.592-1.016.284-2.176.316-3.274.476-1.528.225-2.99.694-4.4 1.343-.929.426-1.817.47-2.61.095-.624-.296-1.28-.43-1.946-.564a905.828 905.828 0 0 0-6.769-1.372c-1.68-.34-3.323-.771-5.125-.638-2.226.163-3.943-.737-5.44-2.109-.966-.882-2.138-1.538-3.339-2.137-.773-.388-1.137-.916-1.114-1.73.008-.347.095-.73-.357-.777-.548-.057-.635.415-.76.772-.341.937-1.08 1.82-.626 2.866.195.44.317.847.881.953.469.095.597.21.516.826-.115.831-.244 1.731.03 2.57.692 2.144 1.272 4.319 2.004 6.444.526 1.522.661 3.135.944 4.715.081.435.178.784.572 1.033.487-.302.516-.75.385-1.026-.497-1.01-.457-2.168-.709-3.243-.386-1.645-.951-3.238-1.404-5.03.745.088 1.17.575 1.85.463.468-.074.507.388.579.777.639 3.415 1.779 6.683 2.625 10.042.015.056.126.079.199.112l.005-.026.021.03s-.021-.03-.012-.028c.008.001.015.012.022.022.502-.682.059-1.297-.133-1.799-.409-1.045-.494-2.157-.786-3.214-.273-.972-.425-1.974-.866-2.909-.363-.75-.341-1.69-.495-2.55 1.541-.114 1.64-.076 1.943 1.054.283 1.055.673 2.068.815 3.469.484-.766.706-1.077 1.388-.76.867.406 1.516.84 1.787 1.777.39 1.361 1.07 2.648 1.303 4.04.174 1.024.611 1.976.663 2.993-.604.394-.895-.226-1.398-.025-.232.095-.568-.089-.859-.139-.602-.095-.53-.668-.778-1.022-.275.916-.855.362-1.307.36-.908.011-.816-.879-1.257-1.289l-.025-.005c-.401.97-.433.954-1.189.739a49.263 49.263 0 0 1-8.137-3.119 25.06 25.06 0 0 1-2.834-1.652c-1.508-1.009-3.168-1.844-4.385-3.195a.49.49 0 0 0-.423-.148c-1.162.085-2.208-.359-3.39-.269-1.56.13-2.994-.464-4.543-.529-1.708-.07-3.247-.489-4.695-1.272-.664-.357-1.63-.41-2.461-.338-2.335.22-4.612-.152-6.955.157-2.144.287-4.195.067-5.863-1.162-.749-.552-1.719-.802-2.702-.547-.721.183-1.49.214-2.059-.266-1.868-1.555-4.206-2.108-6.74-2.221-.905-.041-1.474-.3-1.732-1.26-.326-1.197-1.363-1.905-2.645-2.281-1.063-.314-2.082-.716-3.148-1.021-2.073-.59-3.761-1.804-5.665-2.662-.683-.308-1.214-.62-1.38-1.34.394-.32.82-.279 1.202-.406.133-.044.278-.015.421-.022-.272 1.343 1.76.598 1.774 1.758.002.383.505.575.934.296.339-.225.654-.206 1.003-.26.713-.104 1.165-.013 1.183.775.01.304.246.584.412.858.16.264.446.429.733.193.433-.34.913-.385 1.389-.547 1.19-.4 1.182-.446 1.64.493.3.622.285 1.527 1.532 1.201.43-.109.55.44.707.758.319.617.674.965 1.506 1.195.832.232 1.817.627 2.49 1.334.35.373.801.865 1.466.083.259-.313.553-.013.774.121.968.57 1.925 1.147 2.87 1.74.182.108.342.193.508.031.154-.147.2-.378.082-.535a8.678 8.678 0 0 0-1.643-1.66c-1.282-.99-2.53-2.01-3.612-3.199-.566-.622-.9-1.385-1.364-2.075-1.093-1.61-2.652-2.808-4.008-4.178-1.304-1.316-2.503-2.672-3.501-4.228-.633-.992-1.635-1.658-3.105-1.67-1.444-.017-2.873-.147-4.333-.042-.9.067-1.64.344-2.366.945-1.9 1.583-1.922 1.56-1.01 3.536.038.078.009.18.012.296-.465.146-.739-.123-.992-.362-1.403-1.353-3.129-2.299-4.83-3.276-.796-.455-1.367-1.096-1.954-1.75-1.389-1.555-2.03-3.43-2.26-5.489-.22-1.977-.654-3.908-.48-5.948.065-.717.195-1.403.77-2.007.608-.634.95-.699 1.37-.061.53.802 1.06 1.604 1.58 2.413 1.02 1.578 2.09 3.13 3 4.775.232.43.126 1.04.737 1.352.584-.603.176-1.131-.029-1.609-1.231-2.814-3.023-5.315-4.555-7.958-.342-.595-.785-1.165.052-1.922 1.268 1.059 2.104 2.448 2.854 3.829.943 1.74 2.363 3.142 3.253 4.925.494.981 1.354 1.815 1.774 2.897.093.242.3.408.56.3.388-.161.328-.52.174-.721-.42-.557-.662-1.203-1.015-1.782-1.684-2.772-3.45-5.49-5.195-8.221-.472-.737-.956-1.458-1.41-2.2-.318-.528-.04-1.897.473-2.416.245-.244.495-.167.598.068 1.212 2.783 3.404 5.018 4.425 7.905.181.509.48.961.931 1.275.289-.155.31-.347.23-.523-.883-1.862-1.648-3.78-2.702-5.543-.65-1.085-1.223-2.243-2.07-3.234-.725-.842-.743-1.014.163-1.766.958-.785 1.826-1.65 2.732-2.482.414-.38.774-.405 1.202-.282.08-.839.632-1.28 1.467-1.457.648-.136 1.272-.321 1.841-.767 1.346 1.725 2.31 3.585 3.124 5.522 1.05 2.484 2.042 4.991 3.17 7.437.24.52.036 1.094.38 1.582.476.675.856.77 1.544.18.118-.101.206-.226.285-.352.233-.363.633-.718.959-.572.448.198.087.623-.075.982-.438.935-.187 1.405.81 1.607.145.03.304-.01.447.028.829.204.906.567.198 1.216a1.51 1.51 0 0 0-.498.879c-.154.85.49 1.301 1.355.978 1.087-.412 1.023-.363 1.693.45.785.942 1.473 1.972 2.547 2.67.29.193.544.387.922.099.304-.233.53-.516.426-.876a14.673 14.673 0 0 0-.436-1.308c-.134-.348-.106-.663.274-.87.44-.25.626.02.783.336.202.406.491.777.225 1.301-.194.389-.163.893.195 1.01.865.283 1.334 1.126 2.275 1.254.372.049.443.268.562.515.218.454.464.904.743 1.326 1.222 1.85 2.513 2.228 4.957 1.468.596-.182 1.567.326 1.65.877.22 1.452-.316 1.913-1.78 1.51-.412-.11-.83-.24-1.115-.583-.284-.351-.747-.427-1.196-.402-.674.041-1.299.012-1.842-.33-.22-.142-.469-.094-.725-.013-.209.065-.381.172-.465.37-.117.27.04.453.204.61a.427.427 0 0 0 .26.116c2.04.182 3.733 1.246 5.722 1.551.655.097 1.218.256 1.728.626.412.289.923.481 1.42.662.504.182 1.054.356 1.336.76 1.104 1.56 3.146 1.69 4.719 2.516a.84.84 0 0 0 .92-.117c.88-.748 1.244-.05 1.79.363.812.637 1.941.759 2.887 1.218 2.216 1.063 4.63 1.766 6.814 2.903.322.164.748.205 1.142.232.428.033.64-.27.724-.637.1-.407-.09-.561-.52-.63-2.055-.328-3.846-1.172-5.578-2.129-.695-.38-1.432-.77-2.232-.942-1.381-.28-2.101-1.325-3.11-2.037-.313-.215-.185-.58-.046-.918.303-.749.141-1.396-.251-2-.27-.42-.424-.888-.533-1.4A5.608 5.608 0 0 0 85 64.931c-1.499-1.364-2.42-3.207-4.11-4.422-.657-.48-1.353-.898-2.18-.976-1.838-.177-3.232-.958-4.572-2.013-.75-.589-1.624-1.095-2.462-1.603-.443-.268-.934-.474-1.12-1.002-.038-.115-.147-.28-.26-.293-1.924-.274-2.843-1.868-4.349-2.672-.12-.068-.315-.153-.322-.252-.074-1.253-1.154-1.133-2.073-1.373-.879-.222-1.646-.725-2.456-1.112-.08-.043-.118-.158-.202-.184-2.292-.776-2.856-2.814-3.836-4.633-1.296-2.409-2.457-4.915-4.235-7.047-.343-.408-.37-.716.159-1.045.354-.214.7-.437 1.075-.62.632-.316 1.11-.22 1.401.445.883 1.995 1.92 3.933 3.587 5.384 1.366 1.185 2.18 2.82 3.185 4.297.418.61.854 1.215 1.305 1.84.443-.435.145-.718-.033-.933-.612-.702-1.098-1.46-1.242-2.415-.073-.47-.533-.74-.765-1.126-1.535-2.502-3.032-5.013-4.566-7.515-.346-.569-.526-1.086.211-1.613a.47.47 0 0 0 .15-.255c.12-.59.766-1.243.219-1.736-.577-.527-1.212.066-1.785.35-1.39.689-2.761 1.408-4.146 2.107-.425.217-.873.411-1.221-.016-.325-.413-.573-.81-.049-1.381.375-.405.636-.904.902-1.384.125-.224.046-.49-.23-.572-.201-.059-.374.048-.516.224-.673.826-1.324 1.629-2.207 2.305-.65.491-1.18.74-1.93.633-1.027-.146-1.883.179-2.826.807-2.468 1.664-4.529 3.641-6.513 5.857-.882.979-1.894 1.851-2.843 2.772-1.204 1.163-1.577 2.566-1.807 4.05-.195 1.27-.337 2.541-.302 3.857.74-.019.741-1.381 1.8-.783-.5 1.287-.7 2.76-2.045 3.832-.404.328-.463.708-.56 1.142-.41 1.76-.107 3.46-.084 5.184.036 3.418 1.092 6.57 2.336 9.627.669 1.65 1.973 2.965 3.023 4.398.292.397.708.713.855 1.215-.818.181-1.16-.538-1.832-.728-.067.548.19.903.457 1.162.87.826 1.232 2.021 2.24 2.742.318.225.41.778 1.04.344.061-.04.3.052.371.138.68.895 1.82 1.313 2.535 2.161.208.247.408.528.688.683 1.202.68 1.984 1.64 2.3 2.968.093.375.291.798.932.661.06-.522-.58-.865-.197-1.482.677.03 1.145.437 1.538.863.61.667 1.37 1.124 2.217 1.456 1.849.731 3.52 1.773 5.615 2.118 1.133.194 2.16.9 3.205 1.442 1.824.94 3.693 1.88 5.95 1.954 1.287.047 2.559.252 3.86.23 1.238-.025 2.266.335 3.014 1.11 1.315 1.353 3.17 1.4 4.974 1.605 1.5.17 3.1-.058 4.446.705.223.125.627.19.863.077.98-.46 1.892-.097 2.82-.123 1.216-.038 2.051.745 2.938 1.317 1.766 1.141 3.587 1.965 5.956 1.795 2.52-.175 4.916.4 7.286.925.977.215 1.966.113 2.924.289 2.176.388 4.297.782 5.989 2.203 1.608 1.35 3.569 2.184 5.886 2.359 1.589.127 2.981.792 4.361 1.428.171.079.338.175.496.269.221.134.452.181.661-.062.219-.249.103-.424-.092-.597a4.239 4.239 0 0 0-1.605-.886c-1.856-.519-3.605-1.265-5.506-1.695-1.978-.446-3.648-1.488-4.943-3.024.715.279 1.459.51 2.135.852 1.31.675 2.752 1.092 4.155 1.572.855.289 1.749.346 2.591-.303.527-.41.953-.279 1.355.017 2.233 1.637 4.816 2.686 7.527 3.547.726.227 1.393.567 2.037.938 2.24 1.3 4.811 1.839 7.362 2.481 2.347.591 4.835.668 7.212 1.114 1.727.324 3.49.342 5.223.551 1.386.166 2.673.257 4.083-.526.789-.436 1.871-.386 2.812-.472a7.074 7.074 0 0 0 1.64-.344c.786-.241 1.553-.478 2.387-.433.527.027 1.161-.077 1.631-.338 1.208-.663 2.569-.592 3.771-1.221.617-.329 1.352-.233 1.916-.083 1.847.481 3.715.592 5.688.449 1.316-.098 2.588-.072 3.811-.759.34-.19.717-.211 1.043-.154 1.115.191 2.186-.1 3.262-.461.989-.325 2-.146 2.978-.375 2.239-.535 4.463-1.171 6.691-1.743.535-.141 1.424-.281 1.967-.376 1.653-.271 3.274-.824 4.662-1.673 1.458-.889 2.933-2.077 3.334-3.883.084-.411.468-.645.809-.879 1.646-1.162 3.081-2.545 4.454-3.977.417-.44.947-.778 1.425-1.162 1.404-1.15 2.19-2.486 1.841-4.177-.147-.68.224-1.37.277-2.072.187-2.233.431-4.445-.204-6.569-.035-.132-.05-.277-.067-.414-.031-.238-.024-.495.197-.664.347-.268.52.061.755.171.934.43.913 1.28.409 2.54-.327.825-.142 1.708.503 2.249.993.833 1.375 2.104 1.854 3.243.012.029.02.075.022.111-.006 2.439-.663 4.674-1.302 6.95-.514 1.836-1.763 3.177-3.435 4.245-1.672 1.068-3.279 2.47-4.851 3.79-1.583 1.326-3.356 2.454-5.062 3.649-.807.566-1.663.936-2.701.886-1.337-.058-2.699.53-4.053.336-.224-.037-.497.086-.745.17-1.305.438-2.54 1.061-3.869 1.441-.359.106-.84.293-.772.788l.017.003c.024.014.01.082.01.127.436-.401.964-.508 1.522-.635 2.188-.501 4.347-.428 6.668-.537-.485.819-1.258.734-1.805 1.024-3.003 1.59-6.089 2.977-9.383 3.815-1.441.366-2.867.79-4.321.913-1.059.098-2.038.549-3.086.729-1.685.299-3.389.515-5.069.922-.336.083-.84.071-.771.521.057.332.531.312.898.253 1.446-.259 2.898-.499 4.342-.794 1.934-.392 3.904-.562 5.807-1.236.229-.078.565-.117.73-.012.95.611 1.887.061 2.81-.286 2.786-1.047 5.462-2.383 8.222-3.516 1.694-.698 3.451-1.348 5.073-2.302.955-.554 2.077-.834 3.097-1.224.288.245.005.544.1.777 1.345-1.117 2.747-2.124 4.494-2.464.224.473-.05.684-.339.928-1.413 1.192-3.131 1.913-4.693 2.789-2.614 1.465-5.332 2.748-8.132 3.775-1.351.492-2.727 1.192-3.848 2.212.896-.219 1.843-.161 2.673-.749.28-.202.605.033.497.216-.497.834.347.827.678 1.081-.095.293-.306.41-.491.408-.674-.003-1.274-.196-2.047.155-.634.282-1.468.326-2.213.451-3.916.667-7.822.89-11.732 1.175-1.036.075-2.083.379-3.097.085-.077-.016-.233.14-.346.215.052.491.728.219.833.623-.5.539-1.185.588-1.829.742-.84.204-1.682.416-2.528.565-.35.063-.484.285-.666.48 1.607.085 3.143-.485 4.691-.938 1.077-1.375 2.49-.768 3.763-.875 1.145-.089 2.285-.018 3.609-.026-1.081.779-2.059.963-3.073 1.408-1.976.864-4.056 1.404-6.151 1.798-4.134.774-8.275 1.458-12.394.89-1.598-.217-3.272-.147-4.901-.254-3.854-.256-7.708-.512-11.482-1.687.818-.528 1.661-.224 2.384-.549-.038-.516-.425-.443-.754-.438-2.106.054-4.168-.195-6.237-.321a11.979 11.979 0 0 1-2.915-.555 26.153 26.153 0 0 0-3.5-.905c-1.668-.311-3.142-.744-4.279-2.007-.944-1.037-2.411-1.593-3.742-2.21-1.615-.746-3.397-1.196-5.096-1.79-2.154-.757-4.813-.691-6.971-.772-1.435-.059-2.882.075-4.333.137-.761.033-1.484-.123-2.169-.377-1.679-.608-3.485-.894-5.244-1.277-.069-.014-.168.082-.334.155.21.541.72.609 1.237.732 1.925.443 3.855.906 5.481 2.081-.204.128-.361.292-.445.266-1.123-.325-2.351-.182-3.496-.53-1.296-.397-2.743-.396-4.126.036-.815.253-1.665.419-2.487.707a5.62 5.62 0 0 1-3.549.082 320.695 320.695 0 0 1-7.435-2.335c-.832-.276-1.73-.182-2.59-.401-1.622-.408-2.956-1.097-4.263-2.048-2.281-1.664-5.024-2.496-8.178-1.693-2.02.507-3.799.129-5.496-.562-1.179-.488-2.338-.99-3.584-1.368-.929-.277-1.712-.792-2.413-1.406-.701-.614-1.481-1.057-2.433-1.223-.538-.101-1.041-.247-1.417-.626-.303-.302-.65-.515-1.149-.509a1.004 1.004 0 0 1-.773-.344c-2.149-2.492-5.104-4.115-7.628-6.203l.04.07Zm65.628-70.143c-.46.476-.973.906-1.485 1.328a.76.76 0 0 1-.967.044c-.297-.202-.111-.503-.025-.708.274-.434.511-.814.756-1.192.504-.779.801-.888 1.544-.568.588.253.67.59.179 1.087l-.002.009Zm5.934 6.5c-.1-.162-.114-.397.091-.489.588-.272.882.117 1.336.458-.65.403-1.102.534-1.427.032Zm2.474 2.38c-.987.05-1.709.723-2.63.714.632-1.234 1.113-1.377 2.63-.713Zm2.69 1.748c.145.03.192.146.163.291-.082.144-.204.173-.321.096-.063-.04-.118-.122-.112-.192.005-.16.127-.233.28-.202l-.01.007Zm2.549 1.176c.883-.373 1.767-.746 2.658-1.117.494-.203.924-.178 1.045.363.104.493-.336 1.134-.814 1.17-.985.086-1.978.17-2.879-.423l-.01.007Zm8.263 5.04c.093-.283.425-.171.633-.102.342.105.526.338.462.699a.414.414 0 0 1-.516.18c-.344-.141-.723-.333-.571-.775l-.008-.001Zm28.479.502c-.17.402-.42.538-.733.421-.215-.08-.191-.288-.091-.473.139-.247.309-.56.645-.465.252.069.239.35.179.517Zm47.197 40.359c-1.039-.433-1.744.198-2.184 1.009-1.024 1.858-2.204 3.65-2.504 5.788-.3 2.094-1.637 3.871-3.309 5.42-.536.497-1.251.61-1.817 1.128-.981.896-2.07 1.673-2.811 2.787-.37.557-1.033.628-1.632.782-1.038.262-2.101.251-3.152.617-1.85.631-3.637 1.391-5.263 2.495a3.476 3.476 0 0 1-1.865.619c-1.615.038-3.23.299-4.789.855-1.589.569-3.127.408-4.661.311-1.752-.115-4.578-.447-6.318-.622a14.723 14.723 0 0 0-5.076.387c-1.479.377-2.936.866-4.467 1.018-1.124.12-2.006.965-2.945 1.656 1.116.057 2.133-.583 3.212-.738 1.089-.162 2.159-.577 3.337-.481-.553.235-1.104.587-1.674.685-1.953.352-3.794 1.243-5.747 1.595a16.425 16.425 0 0 1-3.167.258c-1.689-.031-3.415.029-5.026-.387-1.57-.398-3.22-.448-4.819-.701-1.893-.294-3.575-1.152-5.483-1.414-.553-.076-.518-.47.006-.773.171-.099.389-.126.511-.466-.604-.435-2.062-.205-1.697-1.654l6.991 1.417c.187.039.385.07.583.056.207-.011.398-.124.459-.334.05-.204-.02-.387-.228-.456-.649-.212-1.364-.276-1.931-.676-.936-.68-1.99-1.214-3.215-1.302-2.126-.155-3.094.157-3.572-.813-.736-1.494-.911-3.168-1.362-4.755-.219-.757.295-1.365 1.151-1.343 1.138.035 2.272.131 3.436-.31.47-.172 1.002-.17 1.497-.204.316-.025.605.078.652.417.062.44.156.851.667.955.665.135 1.348.531 2.027.295 1.932-.686 3.956-.338 5.837-1.079 1.542-.605 3.185-.565 4.693-1.257.263-.116.597-.057.897-.094 1.363-.152 2.736-.23 3.871-1.273.306-.285.762-.3 1.156-.406.246-.075.537-.15.526-.446-.015-.368-.327-.405-.648-.354-.449.07-.901.156-1.352.234-1.301.243-2.597.595-3.902.509-.237-.013-.508.013-.705-.286.945-.458 1.93-.588 2.913-.754.35-.062.727-.04 1.046-.17.921-.384 1.838-.661 2.818-.587.235.02.5-.104.746-.178.181-.062.435-.09.431-.331-.004-.286-.246-.451-.495-.36-1.417.506-2.681-.436-4.111.094 2.349-.993 4.881-1.308 7.044-2.74-.184-.322-.402-.34-.576-.224-1.49.999-3.174 1.12-4.817 1.384-2.506.41-5.014.524-7.52.8-1.852.203-3.702.487-5.563.6-1.007.063-1.937-.206-2.939-.08-.183.026-.409-.083-.34-.336.051-.212.233-.318.456-.415 1.981-.792 4.098-.861 6.121-.594 1.885.249 3.825-.302 5.71-.801 1.23-.33 2.477-.442 3.723-.545a3.962 3.962 0 0 0 1.91-.664c-.584-.448-1.656-.674-2.322-.498-.151.041-.325.157-.432.118-.389-.141-1.111.353-1.167-.201-.058-.59.679-.415 1.058-.578 1.295-.566 2.528-.387 3.629.094 1.689.734 3.541.486 5.448.49-.093.506-.894.513-.89 1.022.237-.032.568-.09.444.259-.344.954-.581 1.993-1.692 2.569-.178.088-.305.276-.534.488.416.182 1.32-.16.955.808-.289.77.638 1.011 1.034 1.599-2.809 1.772-5.916 2.737-8.938 4.466 1.638-.291 2.96-.593 4.22-1.29a3.949 3.949 0 0 1 2.356-.458c1.539.16 2.782-.63 3.708-1.786.429-.537.87-1.008 1.463-1.306 2.103-1.088 3.549-2.923 5.406-4.292.198-.147.344-.385.449-.595.172-.366.318-.781-.094-1.025-.436-.258-.748.053-1.003.393-1.335 1.769-3.064 3.12-4.97 4.291-.872.536-1.49.473-1.877-.202-.373-.655-.058-1.597.674-1.965 2.399-1.197 4.585-2.74 6.864-4.13.506-.307.802-.719.661-1.202-.141-.447-.67-.242-1.059-.205-.299.028-.601.118-.887.212-.181.061-.461.262-.347.401.756.91-.332 1.153-.795 1.469-1.308.892-2.677 1.692-4.09 2.572.109-1.456.579-2.109 1.869-2.346.933-.176 1.671-.623 2.344-1.359-.897.264-1.795.536-2.702.806-.375-.165-.196-.565-.318-.84-.307-.676-1.017-.98-1.788-.638-.917.41-1.892.445-2.811.775-.306.107-.604.136-.88.009-.455-.208-1.296.084-1.384-.53-.098-.697.768-.681 1.216-.92a117.99 117.99 0 0 1 5.134-2.646c.492-.239.908-.493 1.228-.891.165-.198.305-.41.543-.531.947-.467 1.718-1.121 2.4-1.9.298-.331.654-.642 1.174-.76.588.823-.156 2 .536 2.79.53-.472.259-.972.19-1.378-.113-.753.005-1.513.04-2.254.035-.874 1.053-1.255 1.652-2.15.708 2.112.804 4.046 1.141 5.976.331 1.955.717 3.903.709 5.914 0 .48.097.838.461 1.055l.005-.026c.017.004.024.014.039.026.163-.849.175-1.692-.169-2.448-.298-.674-.064-1.393-.101-2.086-.145-2.656-.533-5.255-.937-7.857-.326-2.114-.293-2.276 1.434-3.877-.927-.552-1.042.804-1.909.744-.189-2.175-.385-4.405-.601-6.844-.566 1.131-.606 5.576-.183 7.077 0 0 .019-.005.028-.003 0 0-.004.017-.014.024.036.871.177 1.754-.754 2.447-.23.176-.407.479-.755.4-.254-.061-.417-.263-.34-.515.112-.333-.239-.832.331-.975.796-.203 1.098-.819 1.518-1.357l.002-.009c-.094.026-.192.068-.268.053-1.634-.215-1.569-.23-1.747-1.806-.249-2.187-.057-4.446-.649-6.56-.073-.256.099-.533.365-.666 1.265-.634 1.851-2.038 3.174-2.606.087-.036.15-.175.234-.193 1.409-.338 2.528-1.305 3.833-1.833.619-.248 1.093-.401 1.357-1.043.17-.401.531-.738 1.101-.88.506.788.242 1.785.427 2.668.104.494-.448.675-.978.621-1.14-.115-2.288.338-3.436.355a.47.47 0 0 0-.479.392c.52.453 1.22.417 1.891.26.924-.223 1.79.015 2.695-.07.271-.024.527.028.531.313.006.411-.344.43-.643.458-.299.028-.602-.007-.908.056-.387.073-.888.132-.853.664.022.414.374.432.775.38.355-.044.715-.024 1.075-.005.658.036 1.186.499 1.148 1.123-.085 1.381-.887 2.492-1.815 3.524-.872.972-1.251 2.275-2.538 2.976-.26.143-.354.694-.439 1.069-.291 1.303-.433 2.619-.951 3.903-.213.527 1.033 1.866 1.634 1.836.242-.013.505-.129.743-.116.378.014.676.208.709.571.025.317-.237.513-.568.615-.19.06-.374.138-.528.196-.112.422.191.546.409.697.233.163.337.309.051.536-.253.198-.491.363-.331.716.159.353.455.422.829.418.346-.001.701 0 1.048.043.286.031.627.1.619.446-.006.862.624.732 1.25.707 1.099-.035 1.075-.004 1.138 1.086.03.425-.09.926.341 1.209a.527.527 0 0 0 .007-.034l.039.07c.047-.142.109-.272.138-.417.203-1.001.888-1.405 1.606-.788.508.432.925.562 1.55.368.579-.186.887.269 1.354.328.816-.173 1.504-.63 2.205-1.067.275-.176.709-.435.952-.101.272.367-.014.727-.399.96-.781.484-1.501 1.014-2.149 1.845.919.15 1.416-.417 1.997-.744.503-.29.768-.156.83.328.065.557.244 1.118.141 1.668-.31 1.62.48 3.018.45 4.57a.855.855 0 0 0 .085.409c.084.16.196.351.428.3a.465.465 0 0 0 .37-.557c-.27-1.034-.17-2.136-.331-3.184-.119-.772.394-1.55.069-2.31-.102-.243.254-.42.595-.53 2.132-.707 3.929-1.954 5.633-3.399 1.092-.918 2.245-1.789 3.358-2.685.751-.596 1.496-1.202 2.136-1.998.855.511 1.445 1.237 2.083 1.9.263.276.371.796.274 1.186-.361 1.477-.129 2.869.119 4.272.012.074-.07.173-.147.335l-.004-.027Zm-.552 2.595c.079-.17.081-.402.344-.384.315.02.357.25.287.512-.189.71-.517 1.365-.865 2.033-.543 1.057-1.457 1.886-1.803 3.027l-.385-.158c.81-1.679 1.619-3.35 2.413-5.032l.009.002Zm-13.3 15.301c-.829 1.239-2.107 1.371-3.174 1.645a58.93 58.93 0 0 0-5.003 1.559c-.191.068-.388.118-.568.001 1.099-1.745 4.603-3.047 8.745-3.205Zm-11.835 4.306s-.089.044-.123.038c-.12-.025-.126-.079-.036-.132.031-.021.091-.009.123.007.026.005.024.058.036.087Zm-56.053-13.312c1.399-.072 1.615.969 1.955 1.83.504 1.278.938 2.595 1.395 3.89.008.001.015.011.022.022.454-.968.583-1.912.159-2.844-.215-.471-.107-1.002-.046-1.523.033-.252.036-.483.399-.48.23.002.353.142.318.358-.094.595.184 1.061.362 1.587.654 1.94.874 4.006 1.359 5.992.02.076-.062.175-.101.282-.74.189-1.095-.115-1.261-.745-.178-.695-.307-1.416-.807-1.971-.004.017.003.027.008.046l-.042-.008c-.368.806.473 1.431.159 2.32-1.318-.151-2.434-.733-3.692-.962-.497-.091-.577-.526-.67-.946-.331-1.474-.613-2.974-1.117-4.385a21.13 21.13 0 0 1-.705-2.476c-.161-.736.143-.968.922-.828.333.067.677.12.897.395.141.18.312.473.483.464l.003-.018Zm2.098-6.538c.058-.202.277-.229.468-.208.164.024.231.127.175.32-.078.163-.25.27-.438.188-.106-.048-.231-.216-.205-.3Zm3.504.007c.151-.085.373-.085.557-.074.148.012.221.134.151.306-.201.2-.427.18-.635.067-.121-.06-.232-.216-.073-.3Zm2.199.187c.077-.118.224-.141.403-.06.063.039.189.118.078.273-.086.117-.223.178-.351.108-.11-.067-.221-.179-.13-.32Zm1.432 5.33c1.831-.626 3.497.086 5.25.067-1.769.14-3.599.633-5.25-.066Zm4.919 1.523c.09.08.151.129.219.187-.114.084-.213.18-.342.242-.029.012-.114-.094-.173-.15l.298-.287-.002.008Zm-2.553.204c-.8.88-3.587 1.054-5.315.338 1.789-.812 3.452-.083 5.315-.338Zm-9.369 11.538s.019-.005.031-.02c.002-.009.002-.009.022-.023.223.081.429.203.665.224 1.298.121 1.308.114 2.196 1.122-.851.255-1.354-.239-1.819-.529-.346-.221-1.195.025-1.023-.777-.091.053-.132.08-.132.08-.039.019.002-.009.058-.068l.002-.009Zm2.589-1.301c1.283-.372 1.433-.324 2.092.718-.867.015-1.564-.225-2.092-.718Zm15.756-10.644.051.01.026.006.025.005c.036-.046.099.038 0 0l-.001.008.034.007s-.019.005-.028.004l.026.005-.045.044c-.034-.007-.064-.03-.098-.038-1.86.069-3.741.676-5.923.492 1.227-.624 2.231-.323 3.174-.683.962-.367 1.893-.187 2.749.191a.16.16 0 0 0 .063-.005l-.043-.053-.01.007Zm-4.463 2.052-.139.07c-.029-.033-.075-.069-.085-.107-.028-.121.042-.205.178-.177.137.028.145.118.046.214Zm7.128-2.456c.171-.188.387-.33.618-.16.085.063.078.23.103.324-.214.313-.451.212-.661.151-.16-.041-.165-.193-.052-.313l-.008-.002Zm-6.845-7.175s.079-.038.12-.065c.018.04.039.07.057.11-.039.019-.092.061-.117.056-.035-.007-.041-.062-.06-.101Zm3.069.141c-.785.197-1.425.067-2.42-.277 2.782-.896 5.274-1.148 7.732-1.318 1.457-.096 3.019-.18 4.289.736-1.961 1.268-4.161 1.303-6.259 1.76a.425.425 0 0 1-.489-.216c-.614-1.13-1.75-.96-2.851-.693l-.002.008Zm1.258 1.065c-.939.255-1.883.135-2.82.293-.358.06-.58-.118-.608-.418-.049-.455.375-.404.616-.409.88-.009 1.761.027 2.631.07.131.009.24.129.181.464Zm40.891-24.08c.056.163.1.34-.186.657-.148-.19-.31-.312-.34-.47-.064-.342-.628-.448-.376-.904.029-.056.19-.104.265-.08.412.11.507.477.627.804l.01-.007Zm.679-2.65c.171-.49.557-.207.883-.239-.15.344-.274.737-.71.569-.099-.038-.209-.239-.173-.33Zm-5.886 15.201c-.397.338-.982.202-1.134-.185-.333-.851.611-.999 1.117-1.528.323.644.63 1.187.017 1.713Zm3.313-14.591c-.526.187-.983.032-1.607-.086-.116-.04-.406-.1-.655-.23-.097-.047-.166-.23-.159-.353.008-.212.189-.362.407-.345.647.051 1.289-.14 1.926-.215.292-.039.658-.009.688.326.038.382-.122.733-.6.903Zm-3.805 11.766c-.04.153-.151.264-.305.277-.198.013-.218-.151-.182-.286.016-.077.132-.17.209-.198.169-.046.256.052.269.206l.009.001Zm1.111-6.97c.328.174.242.557.101.903-.243.583-.417 1.224-1.209 1.41-.262.064-.512.03-.646-.184-.094-.152-.088-.311.051-.515.26-.365.402-.8.684-1.143.243-.28.569-.704 1.01-.472l.009.002Zm.33-3.468c.127-.232.409-.309.666-.265.223.036.344.185.221.4a.597.597 0 0 1-.629.3c-.224-.08-.365-.26-.267-.436l.009.001Zm-2.153 6.634c.183-.07.383-.047.52.106.597.646.475 1.512-.498 2.588-.482-.819-.3-1.628-.296-2.393.002-.097.162-.27.276-.31l-.002.01Zm5.638.609c-.083-.427-.065-.993.409-1.057.437-.054.814.405.779.932-.033.466-.137.935-.208 1.374-.112.245-.186.48-.326.691-.18.275-.517.447-.776.324-.388-.186-.033-.408.106-.656.314-.541.113-1.08.007-1.61l.009.002Zm3.219-.862c-.027-.085-.044-.178-.071-.263-.027-.086-.063-.173-.09-.259.38.229 1.023.208.836.784-.118.36-.557.208-.677-.253l.002-.008Zm-2.205 8.12c-.083.233-.217.41-.518.367-.181-.072-.334-.237-.265-.401.099-.23.362-.3.61-.25.153.03.221.133.162.29l.011-.006Zm-.366-1.303c.039.07.079.132.108.209 0 0-.077.073-.111.066-.123-.007-.155-.067-.105-.181a1.1 1.1 0 0 1 .109-.103l-.001.009Zm.149 3.556c.201-.12.432-.117.544.03.098.127.062.351.07.442-.163.368-.328.655-.612.784a39.79 39.79 0 0 1-2.27.956c-.27.106-.481-.035-.564-.283-.078-.23.117-.36.288-.459.846-.496 1.699-.982 2.552-1.468l-.008-.002Zm5.631-10.31c.05-.248.21-.465.512-.466.338-.003.383.256.317.492-.091.364-.004.631.188.91.233.342-.065.762-.328.833-.813.2-.992.779-1.245 1.369-.172.41-.465.76-1.005 1.06-.286-.342-.309-.97-1.067-.955-.759.024-.783-.515-.503-1.108.421-.894 1.171-1.357 2.118-1.165.375.076.652-.108.969-.141.011-.274-.013-.546.034-.822l.01-.007Zm-2.71 11.446-.354.257c-.043-.097-.102-.154-.099-.216.016-.165.144-.229.296-.189.068.014.104.101.155.156l.002-.008Zm-.239-5.57c-.249.048-.303-.168-.275-.35.042-.25-.034-.576.374-.663.256.008.327.183.318.359-.002.275-.046.578-.423.644l.006.01Zm6.419-6.793s-.017.041-.029.056c1.313 1.843 1.564 4.022 1.597 6.264.005.197-.083.41-.283.477-.208.064-.412-.066-.407-.27.053-2.144-.865-4.049-1.029-6.13-.005-.108.072-.226.13-.339a.503.503 0 0 0-.02-.03l.007-.035c-.406-.011-.458-.369-.621-.615-.163-.247-.206-.559.093-.765.392-.268.789-.125 1.114.065.182.108.137.33-.029.493-.262.24-.474.5-.55.832l.042.009-.015-.012Zm-2.791 12.676c1.05-.67 1.928-1.631 3.295-1.808-.879 1.14-2.127 1.866-3.206 2.77-.226.194-.485-.019-.415-.316.045-.223.143-.532.316-.64l.01-.006Zm1.934-6.608c-.341.02-.585-.18-.539-.492.103-.727-.265-1.452.299-2.397.361.848.977 1.4.755 2.273-.064.272-.121.598-.515.616Zm2.466-7.087c.42-.19.781-.001 1.148.073 1.083.22 1.028.226.798 1.275-.279 1.243.014 2.425.273 3.6.19.857.372 1.713.545 2.567.067.326.061.752-.337.876-.473.144-.607-.203-.749-.597-.46-1.278-.608-2.608-.709-3.99-.071-.923-.303-1.923-.826-2.76-.186-.304-.405-.625-.143-1.044Zm-4.343 6.93c-.45-.145-.232-.52-.224-.82.006-.338.19-.54.565-.465.562.114.167.4.015.582-.187.22.094.589-.356.703Zm.877-3.714c.123.096.059.235-.018.353-.075.02-.184.078-.215.054-.104-.101-.093-.242.018-.353.045-.044.185-.078.214-.045l.001-.009Zm-1.872 5.124c.312.036.234.332.271.5-.063.352-.283.432-.551.396-.24-.04-.253-.239-.188-.43.073-.226.138-.506.476-.465l-.008-.001Zm9.584.054c.387.017.273.314.23.484-.069.342.426.656-.053 1.004-.03.02-.092.017-.133 0-.545-.244-.259-.694-.179-1.087.028-.137.088-.259.136-.41l-.001.01Zm5.134 2.475c-.901-1.029-1.603-1.857-2.745-2.222-.45-.144-.523-.613-.628-1.017-.246-.976-.517-1.958-.529-2.993-.008-.705-.334-1.243-1.058-1.22-.804.024-.874-.418-.957-.925-.078-.452-.117-.914-.185-1.498.853-.094 1.249.36 1.742.603.797.402 1.488.978 2.299 1.356.901.415 1.344 1.074 1.56 1.982.227.98.401 1.96.861 2.89.424.843.048 1.862-.36 3.044Zm-5.102-10.518c-1.79-.844-3.555-1.682-5.698-1.707-.434-.008-.848-.198-1.267-.32-.184-.054-.346-.176-.53-.187-.369-.021-.756.622-1.071.202-.231-.305-.262-.766-.339-1.173-.06-.315-.213-.613-.008-1.142 2.569.726 5.257 1.084 7.819 1.888-1.345-.593-2.529-1.492-4.035-1.682-2.199-.276-4.11-1.269-6.283-1.585-.829-.114-.917-.773-1.453-1.194 1.213-.555 2.198-.07 3.222-.175.397-.035.813.103 1.187.01 1.279-.311 2.379.393 3.648.178.155-.022.383.122.482.249 1.881 2.5 4.489 4.303 6.822 6.37.527.462.525 1.085.669 1.862-1.242-.483-2.148-1.138-3.16-1.62l-.005.026Zm-50.734 1.435c-1.274.508-2.59.473-3.885.602-.463.049-.873-.115-1.211-.637 1.968-1.302 3.813-.42 5.648-.628.102.591-.292.565-.553.672l.001-.009Zm-9.926 1.283c-1.124-.148-2.221-.21-3.393-.073-.555.065-1.211.19-1.74-.175.535-.889 1.453-.819 2.17-.851 1.542-.08 3.069-.037 4.622-.168.695-.055 1.375.137 1.605.931-1.107.47-2.216.468-3.264.336Zm1.693 1.634c-.418.486-.838.498-1.217.573-.268.052-.691.171-.639-.263.04-.33.402-.408.711-.4.336.007.674.048 1.153.092l-.008-.002Zm-10.101-4.905c1.668.222 3.521-.818 5.085.05-.11.54-.526.535-.819.494-1.414-.207-3.044.389-4.266-.544Zm6.242.294c.581-.541 1.011-.169 1.439.042-.497.176-.981.372-1.439-.042Zm17.008 9.627c-1.335.371-2.412 1.39-3.972 1.163-1.121-.165-2.381.23-3.583.334-.631.05-1.294.21-1.871-.05.068-.423.37-.424.586-.442 1.715-.098 3.411-.538 5.123-.752.2-.022.458-.023.594-.129 1.053-.9 2.076-.781 3.123-.123Zm-15.178 1.403c-.053.043-.132.125-.156.111-.066-.022-.105-.093-.148-.146.033-.029.088-.08.105-.077.068.014.129.062.201.103l-.002.009Zm-17.725 12.347c-.095.203-.25.27-.468.252-.543-.039-.733-.371-.703-.828.013-.193.223-.31.447-.274.421.067.812.547.724.85Zm-2.405-.924c-.264.427-.739.189-1.083.395-.231.131-.502.2-.626-.065-.174-.365-.366-.733-.312-1.176.06-.469.477-.598.756-.443.472.256.842.66 1.241 1.017.052.046.018.173.024.272Zm-3.233-5.241s.001-.009-.005-.02c-.552.138-.987.006-1.417-.5.815-.253 1.222-.073 1.417.5.017.004.037-.01.056-.014-.004.017-.007.034-.019.05.095.054.189.118.284.172-.066.023-.142.088-.182.07-.125-.043-.152-.128-.102-.243-.009-.002-.017-.003-.024-.014l-.008-.001Zm-2.358 1.427s-.045.09-.062.086c-.034-.007-.093-.02-.105-.048-.014-.02.032-.074.056-.105.04.026.072.042.111.067Zm-.625-.331c-.092.542-.926.409-1.348.911-.345-.702-.504-1.278-.485-1.897.349-.188.577-.088.754.046.393.293 1.176.372 1.079.94Zm1.88 17.745s-.114.164-.177.169c-.281.032-.362-.225-.555-.326-.032-.016-.058-.065-.143-.171.137-.017.195-.041.227-.026.229.1.592.013.637.361l.011-.007Zm-2.014-.577s-.073.056-.112.075c-.04-.026-.099-.038-.101-.074-.023-.103.048-.15.166-.118.034.007.056.074.049.108l-.002.009Zm-7.1-.353c-.624.319-.895-.137-1.338-.405.678-.147 1.187-.249 1.338.405ZM46.148 82.06c.001-.356-.297-.46-.584-.492-.878-.089-1.46-.679-2.204-.99-.246-.103-.504-.316-.61-.542-.911-1.984-2.526-3.477-3.863-5.155-.566-.712-.48-1.656-1.07-2.3-.847.37-.915.446-.458.992.449.546.83 1.077.84 1.987-1.824-.984-2.293-2.833-3.38-4.211-1.156-1.481-1.17-3.38-1.992-5.284.963.33 1.045.934 1.202 1.384.511 1.421 1.531 2.474 2.565 3.503.494.5.874 1.032 1.227 1.611l.009.002c.127-.277.098-.702.645-.555.85.226 1.664.506 2.312 1.074 1.152 1.017 2.478 1.785 4.07 2.17 1.428.351 2.277 1.459 3.305 2.3 2.477 2.015 4.965 4.015 7.775 5.653.817.478 1.93.9 2.065 2.075.026.264.234.377.49.429.196.04.488 0 .562.114.97 1.434 2.839 1.279 4.292 1.814 3.099 1.136 6.273 2.162 9.562 2.837 3.495.709 6.945 1.56 10.51 2.095 1.276.188 2.62.433 3.75 1.08.452.262.926.465 1.478.54.415.058.747.215.912.586.553 1.252 1.834 1.459 3.082 1.694 1.666.32 3.413.37 5.047.809.43.114.946.147 1.146.517.489.919 1.509 1.01 2.384 1.071 1.112.074 2.041.53 3.124.66-.251.448-.558.386-.926.409-1.683.113-3.185-.405-4.748-.704a46.513 46.513 0 0 0-6.446-.781c-1.634-.082-3.107-.523-4.263-1.737-1.405-1.478-3.511-1.772-5.644-1.803-2.488-.032-4.946-.255-7.46-.159-1.01.036-1.926-.346-2.547-1.095-.856-1.028-2.152-1.29-3.455-1.475-1.21-.165-2.469-.17-3.71-.182-1.195-.01-2.19-.444-3.142-.957-2.567-1.393-5.306-2.465-8.166-3.33-1.89-.57-3.577-1.535-5.25-2.48-.86-.485-1.704-1.004-2.588-1.46-.418-.217-.878-.355-1.112-.777.08-.393.387-.242.591-.29.393-.098.677-.272.68-.68l-.007.033Zm-7.204-5.841c.949.62 1.222 1.022 1.418 2.024-.918-.507-1.03-1.358-1.418-2.024Zm-.474 2.077c-.079.082-.147.201-.21.206-.287.013-.438-.16-.516-.39-.034-.095.069-.208.181-.194.251.033.45.145.547.369l-.002.009Zm-4.12-18.431c.614.917.353 1.808.45 2.602-.616-.686-.844-1.444-.45-2.602Zm2.19 9.25c-1.758-1.086-1.67-3.099-2.925-4.573 2.094.531 2.242.766 2.926 4.573Zm.575-1.254c2.597 1.986 5.66 3.213 7.69 5.672-.864-.112-1.703-.22-2.32-.817-.43-.417-.925-.775-1.388-1.163-.432-.364-.938-.582-1.549-.68-2.11-.32-2.415-.694-2.433-3.013Zm9.333 3.654s.096-.034.138-.025c.043.009.06.057.089.09-.046.008-.096.033-.138.025-.035-.007-.06-.057-.089-.09Zm8.441 8.497c1.477.29 2.917.627 4.29 1.475-.349.188-.522.34-.595.307-1.268-.533-2.532-1.083-3.693-1.79l-.002.008Zm12.45 6.014s.014.02.022.022c.596.041 1.213.06 1.678.527-1.023.274-1.04.27-1.678-.527l-.05-.01s-.01-.002-.016-.012c-1.258.253-2.398.27-3.468-.453-.742-.498-1.745-.675-2.78-1.045.455-.487.845-.488 1.29-.45 1.925.14 3.761.45 4.958 1.948.017.004.027-.003.046-.008l-.002.008Zm3.987.737c.072-.048.142-.087.22-.125.072.042.2.068.207.122.033.185-.138.195-.248.173-.069-.014-.11-.112-.17-.168l-.009-.002Zm8.113 2.669c2.271-.43 4.212.328 6.43.991-1.5.783-2.263-.263-3.294-.347-1.064-.091-2.07-.428-3.137-.636l.001-.008Zm8.329-.627c2.348.894 4.852 1.286 7.488 1.33-.29.69-.772.699-1.096.589-1.305-.434-2.729-.242-4.096-.287-1.296-.04-1.845-.704-2.296-1.632Zm9.093 3.223c-.19-.689-.825-.79-1.167-1.296 1.655.068 2.984.605 3.885 1.856-1.265.678-2.427.496-2.727-.562l.009.002Zm1.688 3.316c-1.019.168-1.813-.118-2.8-.46 1.568-.51 2.211-.398 2.8.46Zm2.321-4.133c-.147.023-.297-.025-.292-.184-.005-.063.093-.195.146-.193.145-.015.288.023.308.187-.049.07-.101.193-.156.2l-.006-.01Zm-1.133 4.534s-.148.122-.21.118c-.218-.017-.356-.126-.318-.358.01-.052.135-.097.207-.145.18.072.327.182.321.385Zm.523.311c.928-.284 1.741-.137 2.302.467l-2.302-.467ZM59.548 74.5l.085-.072.007.1-.085-.018-.007-.01ZM37.023 43.31s-.007.033-.002.052l-.058.024c.003-.017.007-.034 0-.044-.032-.016-.03-.024.007-.035.009-.042.009-.042.036-.001l.017.003-.004.017s-.001.009.005.02c0 0 .004-.018.012-.016-.01-.474.114-.956.556-1.25.907-.582 1.368-1.495 2.073-2.215 1.51-1.538 3.232-2.81 5.148-3.855.32-.175.656-.303 1.014-.186.491.162.582.635.153.957-1.683 1.253-3.33 2.54-5.11 3.666-1.344.85-2.81 1.603-3.823 2.876l-.024-.014Zm-4.396 15.992c-.58-.901-.495-1.543.31-2.27.345.79.08 1.44-.31 2.27Zm.326-3.532s-.04.063-.064.094c-.024-.014-.065-.03-.061-.048.007-.034.015-.077.048-.106.07-.084.1-.06.075.069l.002-.009Zm5.67-11.593-.035-.007-.003.017a.062.062 0 0 0 .035-.002l-.037.055c-.127.054-.174-.018-.061-.093.02-.013.022-.022.032-.029.007-.034.055-.05 0 0 0 0-.003.017.014.02.008.003.017.004.025.006.035-.037.089 0 0 0l-.003.017a.065.065 0 0 1 .032.016Zm8.806-8.634c.464-.057.862-.27 1.27-.49.33-.183.562-.1.727.183.19.332 0 .525-.335.644-.563.198-1.075.62-1.672.543-.283-.093-.446-.25-.478-.489-.053-.35.25-.359.488-.39Zm2.084 3.424c.264-.383.75-.24 1.13-.279.29-.03.582.065.875.106.66.116 1.055.446 1.432.994.85 1.24 1.474 2.623 2.423 3.813.709.882.86 2.106 1.704 2.936.295.292.297.764.154 1.207a3.264 3.264 0 0 0-.157 1.26c.081 1.173-.623 2.153-1.781 2.568-.316.114-.483-.027-.581-.243-.155-.334-.29-.673-.407-1.017-.713-2.175-1.602-4.27-2.385-6.405-.526-1.434-1.478-2.606-2.108-3.963-.15-.315-.587-.564-.3-.969l.001-.008Zm10.413 12.208c.037-.18.189-.229.342-.197.162.032.23.135.246.103-.089.347-.19.496-.331.494-.229-.011-.302-.177-.25-.39l-.007-.01Zm3.481 2.05c.01-.05.241-.093.362-.078.147.021.218.151.18.295-.038.144-.132.258-.18.23-.323-.11-.417-.262-.362-.447Zm.158 3.425c.128-.41.486-.204.725-.245.308.01.485.143.411.422-.095.337-.399.436-.699.384-.302-.044-.542-.217-.437-.56Zm3.13-1.779c.067-.155.226-.194.364-.13.048.027.039.159.05.232-.09.142-.236.202-.372.13-.056-.03-.073-.167-.04-.24l-.002.008Zm5.218 8.502c.548.36.581.768.706 1.159-.43-.159-.665-.545-.706-1.158Zm5.695-1.953c.096-.257.387-.287.639-.218.186.047.366.12.308.365-.136.231-.343.376-.602.341-.287-.03-.426-.264-.336-.486l-.009-.002Zm1.892 3.278c-.008-.002-.027.003-.048.017a.163.163 0 0 1-.072.003c.031-.02.064-.05.095-.07a.086.086 0 0 1 .027-.048l.005-.026c-.966-.534-1.045-.8-.479-1.753.369.547.73 1.039.48 1.753.016.004.023.014.038.026 0 0-.042.036-.063.05-.009.042.008.046.034.051l-.017-.003Zm.146 2.78c.044-.213.169-.348.41-.353a.486.486 0 0 1 .46.272c.241.512.147 1.107-.386 1.373-.514.261-.836.712-1.397.981-.415-.493-1.054-.712-1.582-1.086.45-.595.776-.28 1.156-.14.859.317.902.281 1.237-.63.045-.134.083-.278.11-.414l-.008-.002Zm5.571.542c-.001.009-.003.017-.013.024-.03.057-.07.12-.098.176-.126-.123.043-.124.098-.176l.005-.025-.046-.036c-.392-.08-.603-.31-.537-.724l-.051-.01s.012-.06.026-.084c-.005-.019-.019-.04-.024-.058.003-.017.034-.038.056-.06a.578.578 0 0 1-.043.125c.005.019.01.038.024.058l-.005.026c.47-.003.309.49.506.7l.089.044-.051-.01c.017.003.022.022.037.034l.027-.004Zm-1.615 3.155c.617.062.599.46.491 1.034-1.272-.16-2.137-.754-2.927-1.457-.15-.137-.209-.283.005-.462.15-.121.323-.104.401-.008.495.626 1.23.81 2.03.893Zm1.926-1.533c.86.967.843 1.577-.124 2.495.53-.864-.626-1.597.124-2.495Zm-49.417-25.6c-.459 1.474-1.497 2.305-2.167 3.336.144-1.28.417-2.498 2.167-3.336Zm168.772 47.985c.653-.945 1.262-1.588 1.594-2.393.353 1.327.123 1.672-1.594 2.393Zm9.714 2.52c.332-.28.693-.616 1.059-.363.468.317 1.198.527 1.028 1.321-.133.614-.357 1.192-.852 1.706-.607.634-.578.667-1.366 0-.426 1.97-1.292 3.7-2.88 5.097l.002-.009c-.012.016-.024.031-.033.029-.085-.017-.078-.051.016-.077 0 0 .012.03.026.05.001-.008.013-.024.023-.031.147-.326.211-.643.07-.956-.157-.361-.454-.475-.829-.204-.324.246-.648.528-.881.846-.595.832-1.446 1.443-2.131 2.195-.49.533-1.183.713-1.898.737-.141-.705.427-.884.851-1.136.636-.379 1.257-.725 1.212-1.554-.01-.171.105-.388.223-.533 2.069-2.413 3.852-5.034 6.367-7.107l-.007-.01Zm-.87-2.233c.166-.073.299.017.362.145.157.317.11.637-.212.91-.15.13-.321.229-.725.512.067-.459.069-.645.133-.828.089-.267.118-.582.449-.728l-.007-.01Zm-4.302 12.557c-.076.198-.255.251-.44.24-.025-.005-.047-.161-.023-.236.055-.14.206-.181.347-.179.041.062.133.134.116.175Zm-1.78 2.123c-2.09 1.465-4.032 3.164-6.465 4.131-2.043 1.759-4.405 2.731-6.997 3.123-.732.11-1.468.237-2.202.355.543-.665 1.306-.839 2-1.153 2.599-1.174 5.247-2.24 7.816-3.482 1.938-.934 3.706-2.17 5.302-3.61.338-.305.744-1.042 1.19-.613.349.338-.201.947-.646 1.258l.002-.009Zm-1.8-5.485c.28-.415.609-.722 1.106-.506.17.079.175.321.034.488-.407.479-.773.271-1.14.018Zm-78.516 19.215c.442.187.911.327 1.393.398 2.144.328 4.088 1.114 6.124 1.713 1.65.486 3.142 1.403 5.019 1.382.569-.009 1.137.258 1.658.488 2.992 1.31 6.262 1.777 9.626 1.996.07.005.127.115.282.271-.604.394-1.16.379-1.683.335-1.572-.131-3.156-.239-4.695-.488-2.602-.43-5.13-1.138-7.759-1.395-1.54-.152-2.745-.556-3.949-1.361-.907-.603-2.192-.658-3.41-.692-1.996-.048-4.076.011-5.783-.896-1.698-.905-3.676-1.003-5.508-1.508-1.379-.378-2.5-1.112-3.596-1.878-1.336-.938-2.832-1.616-4.337-2.295-.52-.239-1.079-.414-1.456-.829-.906-1.003-1.968-1.806-3.349-2.219-.109-.031-.175-.187-.245-.282.168-.393.573-.418.764-.352 1.176.416 2.474-.033 3.69.142 1.173.167 2.388-.397 3.586-.306 1.627.116 3.265.181 4.694.88.937.457 2.01.595 2.997.982 2.033.786 3.655 2.067 5.373 3.226.235.154.662.366.192.894-.6.68-.404 1.467.355 1.79l.017.004Zm7.003-.522c.623-.007.866.238 1.179.399-.389-.007-.74-.025-1.179-.399Zm2.663.7s.082-.055.128-.063c.118-.012.177.045.153.165-.041.027-.104.076-.121.073-.061-.048-.111-.112-.169-.177l.009.002Zm.907.211c.601-.208.815.094 1.012.481-.574.16-.862-.041-1.012-.481Zm-45.814-4.621c-1.052.286-1.747-.006-2.574-.61 1.18-.26 1.792.265 2.574.61ZM52.08 105.783c-1.204-.324-2.222-.86-2.703-2.035-.356-.874-1.121-1.563-1.123-2.65 1.918 1.529 4.145 2.497 6.423 3.43 1.31.542 2.49 1.333 3.756 1.964.605.3 1.205.538 1.885.685.612.133 1.267.274 1.782.583 2.25 1.374 4.828 1.228 7.475.821 1.513-.237 2.98-.295 4.374.228.47.175.86.405 1.194.723 1.708 1.646 3.82 2.608 6.288 3.046 1.225.222 2.344.742 3.651.731.17-.001.317.189.355.437-.85.692-1.681.897-2.683.409-.8-.385-1.792-.399-2.673-.693-2.422-.794-4.627-1.962-6.972-2.873-1.143-.446-1.143-.49-1.905.513-.353.471-.73.315-1.07.201-1.779-.556-3.61-.981-5.303-1.734-1.539-.685-3.28-.807-4.967-1.113-1.465-.262-3.057-.201-4.353-.945-.239-.137-.652-.203-.59-.511.192-1.03-.578-.91-1.245-1.036-.528-.107-1.083-.042-1.59-.171l-.006-.01Zm15.72 8.582c.283.441.24 1.002.5 1.429 1.682 2.78 2.71 5.9 4.302 8.726 1.17 2.071 1.949 4.313 2.951 6.635-.984-.137-1.546-.473-1.88-1.191-.945-2.035-1.96-4.031-2.925-6.061-1.02-2.148-2.087-4.287-2.99-6.492-.666-1.613-1.453-3.162-2.14-4.761-.122-.274-.24-.53.048-.765.212-.171.461-.085.696.025.67.332 1.327.679 2.174.619.486-.035.717.27.924.695 1.525 3.158 3.148 6.275 4.645 9.445.993 2.107 1.736 4.35 2.81 6.411.658 1.265 1.23 2.556 1.84 3.837.094.197.262.374.017.752-.98-.858-2.334-1.319-2.465-2.86-.076-.852-.615-1.522-.969-2.271-1.718-3.696-3.465-7.381-5.175-11.076-.419-.913-.906-1.795-1.11-2.798-.061-.271-.063-.565-.3-.755-.206-.167-.42-.424-.76-.19-.228.158-.316.461-.202.645l.008.001Zm-15.716-7.379c.453-.265.86.049 1.304-.083.209-.065.37.057.36.286a.404.404 0 0 1-.38.386c-.535.008-1.112.051-1.275-.587l-.009-.002Zm97.374 54.635c-.632.139-1.228.543-1.862.735-1.382.424-2.784.513-4.189.478-.38-.006-.672-.056-.698-.497-.034-.488.245-.77.708-.774 1.95-.032 3.835-.924 5.805-.881.743.017 1.588-.301 2.335-.702.906-.484 1.856-.79 2.906-.675-1.657.822-3.176 1.921-5.006 2.324l.001-.008Zm14.621-5.79c-1.89 1.309-3.862 2.503-5.788 3.769-1.229.81-2.671.919-3.968 1.493-.253.109-.469-.095-.547-.325-.1-.296.193-.468.396-.552 1.011-.391 1.902-1.021 2.865-1.476 2.939-1.363 5.693-3.04 8.461-4.696.171-.099.348-.232.665-.132-.5.851-1.337 1.385-2.091 1.909l.007.01Zm3.036-2.804s-.067.022-.104.032l-.011.052c-.017-.004-.025-.006-.032-.016-.051.123-.11.236-.286.227-.017-.003-.044-.089-.028-.121.075-.154.186-.176.306-.108l.005-.025c.008.001.02-.014.037-.01.016-.077.043-.125.124-.127-.007.034.001.081-.018.086l.007.01Zm57.107-48.817c-.244.414-.399.872-.545 1.332-.576 1.745-1.468 3.345-2.901 4.675-.621.569-1.644 1.501-2.199 2.137-1.927 2.192-4.26 3.98-6.742 5.499-1.855 1.138-3.87 2.011-6.018 2.671-2.612.798-5.306.91-7.865 1.888-2.964 1.135-6.027 1.574-9.085 1.729-2.34.114-4.574.801-6.825 1.484-2.847.866-5.704 1.693-8.625 2.134-.514.083-1.06.24-1.055.873.009.696.581.768 1.171.7 2.796-.306 5.5-1.12 8.183-2.054a21.896 21.896 0 0 1 4.472-1.044c.32-.042.723-.236 1.01.231-.496.434-1.131.76-1.589 1.272-.194.21-.514.386-.775.101-.451-.492-.923-.222-1.47.023-.986.441-1.911 1.064-2.584 1.889-.8.969-1.901 1.717-2.779 2.634a450.399 450.399 0 0 0-7.059 7.456c-.557.6-1.247 1.029-1.783 1.66-.549.646-1.348.564-2.224.502.478-.909 1.303-1.392 2.003-1.909 1.972-1.453 3.554-3.26 5.293-4.92.671-.639 1.486-1.115 2.091-1.82.257-.305.664-.605.251-.974-.33-.298-.639-.004-.945.192-.801.496-1.415 1.2-2.121 1.796-.332.28-.649.528-1.083.35-.254-.104-.635-.066-.659-.427-.016-.27.227-.417.457-.548.363-.212.71-.435.941-.789.208-.323.294-.662.046-.926-.284-.307-.657-.133-.942.094-.797.649-1.618 1.284-2.341 2.001-.534.533-1.196.559-1.811.791-.299.117-.276-.128-.351-.285-.132-.267-.413-.28-.595-.041-.929 1.255-2.322 1.649-3.697 2.083-.342.108-.6.421-.99.413-.239-.395.232-.442.402-.622.238-.254.343-.509.127-.758-.209-.238-.501-.244-.812-.111-.721.317-1.434.725-1.9 1.316-1.132 1.427-2.662 1.66-4.244 1.758-1.051.063-2.107.062-3.153.1-.197.004-.41.006-.593.075-.364.132-.882.151-.954.635-.077.51.32.697.772.833 1.146.348 2.37.133 3.56.17.337.006.685-.093 1.005.035l.006-.026.034.007c.084-.108-.159-.05.026-.084.027-.003.088 0 .085.017-.007.079-.047.098-.122.074-.001.008-.003.017-.022.022l-.025-.005c-.13.9-.976 1.396-1.559 1.954-.993.957-.933 2.02-1.138 3.118 1.158-1.03 2.497-1.854 3.296-3.17.079-.126.173-.241.269-.364.752-.952 2.135-1.295 2.643-2.483.932-.176 1.692-.948 2.789-.931-.932 1.575-2.464 2.564-3.723 3.787-.178.178-.409.309-.618.463-.272.203-.481.49-.273.737.265.312.532-.044.753-.213.857-.636 1.7-1.294 2.574-1.971.076.149.161.255.137.286-1.502 1.85-2.94 3.776-5.728 3.781-.71-.001-1.044.421-1.017 1.032.028.566.308.801.957.71 1.159-.157 2.301-.273 3.385-.89 1.232-.694 2.633-.864 3.944-1.329 1.597-.567 3.175-1.173 4.854-1.438.862-.137 1.64-.603 1.573-1.676-.023-.37.273-.692.646-.955a27.268 27.268 0 0 0 4.576-4.051c1.154-1.271 2.579-2.3 3.61-3.667a3.41 3.41 0 0 1 .722-.673c.968-.614 1.8-1.345 2.565-2.187.435-.481.913-1.088 2.106-1.06-2.196 2.03-3.846 4.038-5.814 5.865-1.649 1.527-3.172 3.169-4.653 4.827-1.608 1.803-3.582 3.264-5.237 5.039.39.266.629.091.793-.062.766-.753 1.633-1.397 2.471-2.073 2.339-1.903 4.495-3.96 6.56-6.132 1.984-2.083 4.22-3.962 6.334-5.938.71-.658 1.429-1.314 1.918-2.149a2.547 2.547 0 0 1 1.281-1.068c.378-.155.566-.428.758-.719.185-.3-.304-.863.35-.935.797-.079 1.595-.558 2.384-.291.474.158.309.534.059.804a26.796 26.796 0 0 1-1.763 1.691c-1.085.929-2.207 1.823-3.307 2.74-2.701 2.249-4.904 4.928-7.425 7.337-1.143 1.087-2.258 2.205-3.388 3.312-1.407 1.38-3.136 2.383-4.491 3.809-.157.164-.291.297-.151.486.166.23.403.42.743.275a4.619 4.619 0 0 0 1.309-.812c1.08-.947 2.219-1.838 3.238-2.834.797-.782 1.748-1.356 2.571-2.088.683-.61 1.44-1.151 2.126-1.777 1.286-1.174 2.588-2.343 4-3.357 1.487-1.07 2.617-2.444 3.875-3.703 2.202-2.189 4.564-4.213 6.876-6.291.195-.174.375-.405.602-.474 2.127-.682 4.279-1.226 6.538-1.338-1.82.745-2.685 2.475-4.222 3.49a2.152 2.152 0 0 0-.55.521c-1.409 2.047-3.22 3.8-4.995 5.55-1.342 1.322-2.901 2.449-4.362 3.657-2.079 1.716-4.255 3.341-5.874 5.506-.156.2-.344.385-.566.518-1.459.933-2.669 2.219-4.218 3.027-.388.206-1.003.572-1.328.862-1.208 1.1-2.367 2.263-3.642 3.296-.903.734-1.915 1.392-3.341 1.593 1.092-1.052 2.134-1.9 3.125-2.804-1.209.272-2.068 1.095-2.988 1.736a17.446 17.446 0 0 1-2.995 1.726c-1.446.651-2.771 1.585-4.178 2.35-1.485.804-3.009 1.536-4.502 2.329-1.133.599-2.36.653-3.545.938-1.94.462-3.812 1.204-5.754 1.674-2.716.661-5.407 1.059-8.185 1.057-2.528-.005-5.029-.325-7.596-.052-.826.09-1.607-.086-2.338-.243-3.252-.686-6.671-.631-9.972-1.077-1.83-.255-3.592-.8-5.381-1.216-1.043-.238-2.042-.565-3.213-.526-1.931.071-3.795-.28-5.621-.685-.384-.078-.771-.139-.983-.494-.187-.305-.566-.622-.949-.664-2.945-.356-5.643-1.277-8.336-2.268-1.338-.494-2.761-.827-4.154-1.225-1.16-.324-2.288-.669-3.334-1.246-.686-.379-1.558-.503-2.367-.667-1.552-.314-2.807-1.219-4.369-1.526-.886-.18-1.656-.63-2.294-1.205-.691-.62-1.39-1.287-2.31-1.563-.67-.198-.3-.844-.676-1.045-.344-.186-.617.587-1.178.206-1.311-.889-2.985-1.433-4.022-2.534-.818-.869-1.965-1.342-2.662-2.285-.278-.377-.684-.521-1.168-.236-.574.337-.814.075-1.043-.327-.573-.981-1.065-2.015-2.273-2.492-.305-.115-.463-.565-.598-.904-.675-1.615-1.433-3.176-2.328-4.675-.497-.831-.613-1.834-.788-2.769-.42-2.258-1.534-4.211-2.276-6.33-.805-2.291-1.811-4.507-2.537-6.836-.382-1.226-1.035-2.338-1.32-3.607-.08-.346-.212-.791-.643-.985-.561.402-.148.905-.378 1.294-.003.018.012.03.008.047l-.01.051c.622.26.425.923.615 1.389 1.248 3.04 2.398 6.123 3.772 9.108.297.639.453 1.357.717 2.158-.89-.162-1.085-.781-1.283-1.293-.688-1.724-1.39-3.434-2.42-5.005-.469-.709-.64-1.572-.704-2.44-.064-.868-.34-1.69-.632-2.488-.177-.481-.254-.933-.062-1.446-.017-.004-.023-.014-.04-.017.022-.023.027-.048.04-.072-.294-1.128-1.117-2.061-1.125-3.425 1.486.248 2.738.724 3.962 1.302.34.158.493.367.594.699.247.842.608 1.646.79 2.502.601 2.811 1.613 5.483 2.779 8.052 1.247 2.737 2.254 5.604 3.874 8.167.39.614.59 1.34.888 2.015.293.656.594 1.313 1.12 1.83.473-.323.167-.563.077-.777-.56-1.352-1.083-2.713-1.81-3.983-.547-.939-1.264-2.571-1.673-3.571-1.121-2.703-2.244-5.397-3.27-8.134-.756-2.005-1.356-4.077-1.977-6.135-.085-.285-.565-.631-.014-.983.326-.21.71-.132 1.01.009.332.156.782.346.637.797-.579 1.717.627 2.861 1.08 4.262.554 1.733 1.438 3.328 2.313 4.921 1.888 3.428 2.913 7.26 4.528 10.811.59 1.295.947 2.685 1.487 4.006.173.418.523.658.985.787-.37-1.455-1.119-2.756-1.645-4.144a460.792 460.792 0 0 0-4.44-11.284c-.724-1.776-1.758-3.419-2.395-5.222-.482-1.345-1.509-2.541-1.12-4.243 1.416.153 2.663.833 4.129.872a.28.28 0 0 1 .279.199c.914 3.373 2.602 6.387 4.034 9.527 1.155 2.531 2.548 4.942 3.56 7.747-.834-.222-1.322-.571-1.556-1.17-.657-1.709-1.807-3.171-2.436-4.884-.888-2.406-2.337-4.498-3.526-6.734-.32-.608-.614-1.22-.74-1.913-.132-.748-.603-1.271-1.436-1.672-.122.911.217 1.558.449 2.211.43 1.2 1.206 2.239 1.353 3.569.04.373.48.649.684 1.002 1.44 2.491 2.682 5.076 3.823 7.721.81 1.874 2.105 3.543 2.547 5.61.245 1.153.737 2.233 1.628 3.001.43.372.475 1.468 1.436 1.369.106-.086.022-.023.036-.002.017.003.025.005.044 0-.89-2.042-1.79-4.085-2.717-6.214 1.195-.07 1.663.64 2.055 1.334 1.224 2.198 2.348 4.447 3.591 6.631.392.694.41 1.526.865 2.17.124.177.217.463.537.287.297-.153.228-.426.128-.633-1.128-2.446-2.26-4.875-3.46-7.451.868.532 1.847.74 2.115 1.738.06.226.306.418.564.283.506-.262.68.103 1.013.259 1.5.696 2.058 2.02 2.546 3.419.117.344.29.673.444 1.007.093.197.176.49.506.308.28-.157.175-.428.105-.647-.15-.493-.646-.888-.36-1.515.578-.088.78.318.92.587.967 1.888 2.893 2.501 4.857 3.059.973.277 1.981.428 2.927.843.692.309 1.642.128 2.468.215.983.101 1.809.447 2.474.973 1.255.994 2.66 1.768 4.232 2.203 1.193.331 1.958 1.109 2.801 1.77 1.202.947 2.571 1.064 4.031.692.946-.244 1.84-.232 2.674-.099 1.418.234 2.843.558 4.25.71 1.972.213 3.361 1.064 4.916 1.976 1.421.831 3.173 1.249 5.212.958 2.304-.334 4.669-.353 6.967-.172.988.075 1.981.08 2.989.053 2.997-.069 5.841.436 8.627 1.143 1.756.445 3.554.641 5.415.653 1.154.002 2.177-.494 3.241-.839.246-.075.47-.261.369-.549-.102-.287-.38-.228-.629-.181-.948.164-1.868.459-2.846.51-2.195.098-4.238-.245-6.294-.831a24.508 24.508 0 0 0-7.407-.94c-1.802.044-3.6-.017-5.412.078-.997.057-2.049.164-3.047-.119-.58-.162-1.282.017-1.943.123-2.439.387-4.419-.353-5.964-1.886-.716-.715-1.637-.812-2.541-.773-1.031.049-1.906-.19-2.859-.392-1.77-.377-3.587-.825-5.496-.518-1.707.278-3.019-.122-4.11-1.225-.833-.836-2.059-1.138-3.132-1.623-1.098-.498-2.048-1.154-3.03-1.781-.969-.606-1.966-1.075-3.192-1.199-1.835-.185-3.507-.826-5.262-1.235-.424-.095-.855-.201-1.287-.261-1.037-.139-1.825-.673-2.336-1.48-.825-1.316-2.032-2.282-3.5-2.963-.503-.235-.669-.687-.857-1.117-1.787-4.013-3.545-8.038-5.372-12.033-1.2-2.621-2.484-5.214-3.792-7.785-.26-.516-.343-1.023-.387-1.637 1.754-.117 3.307.323 4.848.778a.643.643 0 0 1 .438.427c.61 1.984 1.856 3.582 3.17 5.157.636.761 1.294 1.545 1.666 2.511.557 1.457 1.607 2.667 2.152 4.14.046.125.153.254.334.192.21-.073.364-.22.31-.435-.069-.317-.117-.647-.265-.927-1.23-2.297-2.298-4.686-3.877-6.796-.705-.945-1.201-2.043-1.899-3.244 1.153.092 1.744.683 2.095 1.271 1.052 1.727 2.407 3.231 3.617 4.838.35.463.51 1.074 1.147 1.479.342-.678.074-1.107-.196-1.571-.759-1.294-1.736-2.471-2.065-4.221 1.499.402 3.076.241 3.827 1.791.513 1.057 1.388 1.911 1.964 2.963.5.903 1.264 1.734 2.677 2.207-.844-2.272-2.241-3.918-3.285-5.777.459-.29.825-.215 1.205-.12 1.064.269 2.133.512 3.183.805.488.134 1.031-.049 1.364-.463.981-1.252.863-.537 3.723.328 1.497.454 2.815 1.22 4.123 1.993.792.472 1.702.229 2.572-.165.207-.1.322-.273.227-.461a.536.536 0 0 0-.315-.242c-.128-.026-.296.011-.444.044-1.032.271-1.889-.054-2.664-.523-1.772-1.062-3.636-1.983-5.65-2.65-.181-.063-.393-.115-.5-.244-.223-.258-.411-.555.198-.716 1.625-.437 3.208-1.069 4.893-1.19.684-.049 1.238.197 1.824.37.982.279 1.969.532 3.05.502 1.124-.03 2.131.387 2.917 1.063.591.503 1.251.922 1.784 1.493.736.79 1.921.986 2.904 1.434.977.439 1.83.959 2.642 1.595.391.302.863.514 1.284.759-.114.298-.372.344-.52.287-2.634-1.06-5.475-1.716-8.065-2.864-1.254-.557-2.837-.762-4.049-.562-.069.475.395.285.606.381 2.091.896 4.196 1.767 6.29 2.646 1.373.581 2.967.512 4.373 1.02 1.232.446 2.516.813 3.876.803.79 0 1.425.414 2.23.123.545-.192 1.411-.088 1.89.134 1.966.941 4.1 1.534 6.428 1.303 2.221-.227 3.906.613 5.544 1.64 1.071.671 2.108 1.335 3.522 1.453.803.065 1.584.463 2.258.858.879.526 1.822.557 2.796.264 1.144-.347 2.347-.37 3.491-.236 3.064.345 6.165.591 9.286.609 1.711.008 3.491-.673 5.196-.238 2.181-.733 4.276-.122 6.42-.23 1.29-.06 2.009-.671 2.905-1.371-.451-.314-.855.014-1.235.008-.195-.004-.451.034-.484-.196-.049-.33.253-.376.496-.434.345-.081.7-.125 1.05-.187.459-.077.889-.23 1.235-.578.279-.282.768-.504.544-.932-.236-.457-.601-.887-1.257-.718-.741.197-1.48.386-2.169.807-2.295 1.423-4.673 1.422-7.482-.661-1.597-1.188-3.808-.701-5.495.702-.395.33-.847.238-1.273.196-2.562-.278-4.985-.939-7.447-1.536.943-.316 1.758.134 2.667.113 1.607-.048 3.22.012 4.796.251.793.116 2.103.177 2.922.121 2.512-.177 4.962-.001 7.41.228.244.023.533.082.738-.01 1.937-.926 3.985-.52 5.974-1.007 1.699-.412 3.357-.887 4.962-1.577 1.555-.664 3.148-1.258 4.629-2.124.434-.26.95-.351 1.465-.443.599-.11 1.177.105 1.277.446.229.795.805.671 1.363.499 2.08-.629 4.082-.125 6.121-.291.081-.001.15.093.457.289-4.013 1.056-7.869 1.904-11.997 2.786.656.57 1.317.508 1.812.385 1.769-.407 3.51-.455 5.269-.508.652-.019 1.269.044 1.71-.686.213-.349.738-.358 1.129-.403 2.066-.25 4.014-1.19 6.095-1.472.693-.091 1.392-.653 2.157-.792.258-.045.553-.012.598.246.047.25-.182.506-.43.545-1.14.197-2.147.963-3.362.913-.572-.027-1.192.23-1.784.395a41.541 41.541 0 0 1-4.163.919c.221.615.545.2.77.183.9-.058 1.822-.272 2.702-.236 2.61.129 5.082-.635 7.537-1.624.29-.12.577-.222.866-.332 1.278-.525 2.554-.952 3.663-1.912 1.259-1.089 3.041-1.253 4.473-2.058 2.284-1.283 4.881-1.923 6.97-3.601.371-.299.676-.62.945-.984.158-.208.245-.466.052-.648-.225-.206-.514-.051-.644.154-1.159 1.733-3.224 1.894-4.826 2.878-.468-1.11-.425-1.057.461-1.75a21.692 21.692 0 0 0 3.502-3.395c.707-.863 1.459-1.681 2.017-2.637.231-.398.475-.767.416-1.527-2.444 3.69-5.264 6.742-8.807 9.159-.284-.218.074-.582-.188-.778-1.534.473-2.774 1.468-4.055 2.357a7.444 7.444 0 0 1-3.576 1.306c-2.118.203-4.189.567-6.259 1.233-.96.313-2.067.739-2.929-.086.304-.579.826-.705 1.304-.786 1.607-.262 3.154-.803 4.722-1.225 2.254-.611 4.251-1.792 6.338-2.802 1.199-.576 2.304-1.296 3.595-1.756 2.267-.805 4.069-2.425 5.75-4.106.356-.355-.075-.55-.271-.767-.008-.002-.02.013-.03.02-.044.347-.321.576-.569.793-1.315 1.141-2.959 1.724-4.457 2.587a29.313 29.313 0 0 1 5.026-3.38l.01-.051s.014.02.022.022c.835-.837 1.768-1.538 2.931-1.89.283-.085.596-.227.813-.423 1.047-.919 2.288-1.611 3.257-2.626.216-.232.413-.459.472-.75.062-.308-.063-.565-.294-.737-.208-.157-.475-.069-.714.061-.138.07-.319.131-.395.24-.792 1.193-2.3 1.76-2.985 3.037-.258.482-.631.745-1.143.819-.402-.509.477-1.212-.085-1.46-.573-.24-1.075.397-1.583.713-.123.081-.258.134-.576.301.846-1.939 1.517-3.762 2.935-5.282.601-.644.913-1.57 1.97-1.791.138-.026.289-.289.351-.463.096-.257.338-.573.04-.767-.336-.228-.438.365-.808.308.454-1.012.533-1.93-.451-2.593-.398-.268-.407-.662-.1-1.125.307-.463.595-.921 1.021-1.316.436-.401.421-.85.158-1.303-.262-.463-.58-.554-1.07-.155-.522.429-1.009.864-1.323 1.45-.117.226-.355.436-.602.43-.336-.005-.446-.295-.524-.569-.111-.37-.122-.755.118-1.107.668-.977.793-2.163 1.789-3.003-.429-1.476.383-2.941.315-4.442-.064-1.349-.212-2.679-.33-4.02-.158-1.805-.463-3.585-.676-5.383a1.997 1.997 0 0 0-.333-.895c-.404-.59-.978-.563-1.401.08a9.834 9.834 0 0 0-.63 1.182c-.139.293-.137.676.208.684.731.023.655.489.73.949.298 1.86.649 3.72.965 5.574.035.22-.024.467-.035.697-.051 1.173-.21 2.352-.118 3.52.049.588.026 1.225-.489 1.797-.444-.045-.706-.588-1.322-.268-.446.23-.593-.227-.698-.497-.433-1.014-.937-1.99-1.351-3.008-.481-1.175-.272-2.468.266-3.722.122-.296.525-.579.139-.862-.271-.197-.529.026-.818.181-.61.34-1.445.037-2.083-.671-.479-.525-.237-1.152.237-1.52.536-.407.461-.654.388-1.167-.36-2.602-1.38-4.973-2.121-7.447-.468-1.547-1.363-2.912-2.55-4.017-1.375-1.276-2.571-2.73-4.185-3.787-.957-.62-1.406-1.691-2.158-2.494-1.217-1.306-2.202-2.797-3.088-4.339-.04-.062.018-.174.034-.34.799-.177 1.5.393 1.641.75.231.609.545.637 1.073.574.319-.042.588.03.842.18.198.12.453.305.658.258 2.184-.483 3.012 1.296 4.454 2.025.661.33 1.102.998 1.758 1.353 1.104.598 1.655 1.6 2.261 2.551 1.292 1.99 2.564 3.993 3.462 6.214.072.175.223.437.345.578 1.549 1.774 3.746 2.932 5.119 4.875.579.82 1.136 1.664 1.838 2.403.6.63.63 1.535.692 2.366.052.795.369 1.42.819 2 .656.837 1.198 1.713 1.45 2.788.202.887.585 1.757 1.496 2.209 1.218.603 1.467 1.74 1.388 2.917-.148 2.09.602 3.862 1.357 5.698-.332 2.123.077 4.174-.12 6.29-.174 1.861-.505 3.672-1.514 5.409l-.096.123Zm-60.554 37.361c1.376-1.359 2.759-2.709 4.191-3.994.9-.806 1.756-1.746 3.052-1.964.285-.049.634-.192.79.133.112.237-.101.452-.279.629-1.929 2.031-3.811 4.09-5.936 5.948a1.699 1.699 0 0 1-.525.312c-1.305.439-2.57 1.028-4.221 1.379.97-1.148 2.096-1.623 2.929-2.451l-.001.008Zm-1.246-.6c.357-1.014 1.14-1.683 2.13-2.186-.556.858-1.125 1.696-2.13 2.186Zm3.288-3.171-.169.135.025-.039c.043-.036.093-.062.136-.098l.008.002Zm43.311-22.922c.115-.484.518-.545.921-.517.184.011.375.076.357.34-.223.4-.634.414-1.018.426-.099.006-.276-.172-.26-.249Z" fill="#66462C" fill-opacity=".1"/><path d="M183.488 82.116c-.374.431-.342.892-.31 1.353.095-.47.189-.933.346-1.4-.004.018-.024.031-.035.038l-.001.009Zm-7.44 4.511c-.057.46.014.903.106 1.33l-.106-1.33ZM37.814 72.58c-.075-.033-.142-.056-.217-.09l.215.099.002-.01Zm91.16 25.29.025-.12a.512.512 0 0 0-.252-.39c-.034-.007-.068-.014-.099-.038a.905.905 0 0 1 .326.547Zm66.937-31.64.024-.006-.022-.005-.002.011ZM145.89 91.897l.003-.02-.047-.01s-.004.02.044.03ZM79.537 64.598l-.043.002.041.009.002-.01Zm86.002 73.351s.027-.035.038-.042l-.038.042ZM38.568 44.14s-.037.01-.038.018l.059.012c-.009-.002-.017-.004-.024-.014l.003-.017Zm-1.585-.803-.01.047s.006-.028.02-.045l-.01-.002Zm.02-.03s.002-.01-.006-.02c-.01-.003-.028-.006-.04.001l-.008.038.029.006c.002-.01.006-.028.017-.036l.008.011Zm119.671 97.226.005-.022-.011-.002.006.024Zm-72.04-73.281-.056.029.056-.029Zm42.862 36.497-.021.014c-.01.007-.012.015-.022.022l.065-.014s-.021-.03-.022-.022ZM66.663 36.601c1.34 1.047 2.26 2.515 4.058 3.102 2.921.958 4.606 3.285 6.331 5.46.727.922 1.408 1.897 2.242 2.734 1.06 1.079 2.401 1.466 4.03.701 1.442-.678 2.89-1.346 4.216-2.28.838-.587 1.123-1.553 1.956-2.203 1.88 1.538 3.57 3.226 5.469 4.723.973.759 2.327 1.523 1.428 3.246-.042.072.006.188.024.272.287 1.082-.152 2.196-.077 3.448-.958-.443-1.675-.891-2.484-1.144-2.02-.632-3.692-1.8-5.501-2.727-1.431-.735-2.927-1.323-4.408-1.944-.303-.124-.667-.563-1.044-.06-.355.48-.092.934.223 1.265.166.185.514.22.787.32 2.233.853 4.523 1.593 6.445 2.971.629.448 1.428.753 2.16.99 1.548.51 2.993 1.177 4.472 1.806 1.389.593 2.764 1.21 4.149 1.82.285.13.576.224.756-.14.152-.308-.166-.363-.377-.46a20.16 20.16 0 0 1-1.892-.953c-1.797-1.032-1.823-.993-.639-3.113.314.42.725.628 1.269.747.612.133.15.921.513 1.324.533.607.745.703 1.572.123.457-.326.748-.231 1.019.1.243.29.375.646.368 1.027-.003.587.136.82.879.66.611-.126 1.362-.108 1.285.839-.023.333.33.387.615.471.301.088.734-.162.934.252-.067.111-.129.241-.223.356-.312.4-.748.8-.299 1.257.42.423.942-.094 1.426-.076.106.004.272-.159.358-.275.464-.627 1.13-.537 1.442-.197.681.717 1.745.763 2.491 1.288.722.512 1.438.612 2.316.176.217-.107.484-.24.65.034-.009.22-.183.337-.327.477-.365.353-.591.77-.26 1.149.388.453.86.228 1.32-.115.499-.362 1.046-.652 1.556-1.02 1.091-.786 2.213-1.591 3.663-1.654-.155.592-.489 1.014-.89 1.414-.144.14-.136.364-.019.53.117.167.307.196.515.131.596-.181 1.143-.382 1.554-.922.978-1.28 1.324-2.724 1.773-4.147.174-.552-.245-.762-.752-.758-.232.007-.489.133-.719.22-.596.226-.833-.009-.917-.515-.048-.286.052-.56.092-.846.163-1.24-.117-1.395-1.402-.791-.138.07-.282.12-.591.245-.201-.629-.936-.769-.937-1.419.002-.845-.569-1.442-.809-2.185-.116-.345-.322-.644-.75-.767-.748-.205-1.459-.51-2.218-.663-1.766-.35-3.094-1.375-4.476-2.26-1.455-.928-2.691-2.14-3.993-3.25-.417-.352-.884-.5-1.436-.576-.838-.117-1.697.137-2.524.103-2.111-.099-3.733.81-4.924 2.528-.34.492-.698.99-.884 1.557-.183.55-.585.523-.925.231a120.27 120.27 0 0 0-2.24-1.87c-1.886-1.513-3.436-3.323-4.766-5.302a1.056 1.056 0 0 1-.108-.254c-.473-1.431-1.444-2.554-2.421-3.643-.862-.958-1.79-1.858-2.4-3.006-.405-.76-1.026-1.286-1.971-1.442-1.624-.266-2.953-.937-4.097-2.032-.722-.69-1.71-1.202-2.832-1.269-1.614-.096-3.292.214-4.843-.278-.225-.072-.615.053-.815.342-.26.366-.02.62.127.907.267.518 1 .32 1.396.729-.765.887-.38 1.793-.235 2.695-1.069.104-1.27.312-1.164 1.144.061.484.323.858.626 1.204.193.227.515.39.277.822-.772-.218-1.434-.504-1.889-1.148-.309-.446-.772-.789-1.161-1.189-.308-.32-.676-.608-1.138-.212-.43.367-.323.851.029 1.128l-.034.037Zm55.151 23.058s.087.053.085.062c-.052.123-.116.137-.157.03-.005-.018.048-.061.072-.092Zm-2.029-.59c.024.495-.444.614-.823.733-.229.079-.463-.12-.362-.27.519-.722.148-1.474.333-2.3 1.089.363.819 1.172.852 1.838Zm-2.225 1.304c.184-.078.342.105.287.334-.294.573-.878.828-1.389 1.161-.041.027-.188-.038-.239-.093-.049-.063-.093-.197-.055-.251.349-.5.821-.902 1.387-1.153l.009.002Zm-3.166-1.942c-.253-1.03.002-1.674.585-2.49.334.931.312 1.612-.585 2.49Zm.468-5.942c.317-.123.587-.006.816.174.285.218.267.526-.029.715-.387.242-.221.74-.602.956-.554-.246-.289-.762-.392-1.13-.073-.256-.217-.552.215-.714l-.008-.002Zm-3.747 1.974c-.126.054-.198.013-.182-.108.016-.166.141-.212.291-.208.042.053.083.114.125.167-.08.047-.147.113-.234.149Zm.692-3.324c.433.097.302.48.209.808-.112.245-.156.636-.536.542-.389-.097-.347-.48-.243-.815.083-.277.213-.616.578-.533l-.008-.002Zm-2.83 4.369c.205-.092.407-.078.515.086.179.26.079.533-.139.773-.159.173-.223.445-.539.47-.29-.059-.261-.329-.317-.536-.101-.377.125-.616.487-.783l-.007-.01Zm-24.259-9.762c-.145-.03-.214-.168-.139-.322.151-.307.38-.6.716-.683.177-.044.228.233.176.446-.17.268-.304.623-.753.56Zm1.161-5.553c.112-.155.252-.278.502-.156.798.402 1.768 2.665 1.484 3.542-.088.347-.313.622-.583.861-.236.202-.505.432-.809.398-.363-.047-.343-.408-.344-.667a10.162 10.162 0 0 0-.427-3.15c-.077-.273-.008-.571.175-.819l.002-.008Zm-2.632 6.021c.086.062.16.22.13.32-.027.137-.19.202-.377.155-.104-.056-.132-.178-.07-.308.061-.13.17-.268.317-.167Zm-.11-10.53c.546.76.898 1.651 1.56 2.373-.63.345-.853.05-1.047-.266-.333-.548-.638-1.1-.97-1.648-.142-.224-.325-.546-.665-.313-1.288.835-.903-.36-1.254-.734 1.32-.383 1.738-.298 2.384.59l-.009-.002Zm-3.82 4.213.16-.128-.009-.002s.02-.005.04-.019c0 0 .02-.014.022-.022l.013.02-.006.035c.008.482.372.877.251 1.386-.007.035-.058.069-.09.098-.512-.63-.527-.686-.161-1.484l.005-.026c-.072.048-.142.087-.205.136l-.02.006ZM77.81 44.14s.015.012.023.014l.014.02c.273-.078.558-.127.815-.253.688-.332 1.196.011 1.271.472.112.628.488 1.051.739 1.565.093.197.154.468-.07.654-.226.194-.444.088-.659-.036-.972-.589-1.638-1.418-2.105-2.403-.017-.004-.037.01-.056.015l.043-.036s-.043.036-.034.038l.01-.052c-.541-.35-.845-.91-1.257-1.376-.158-.184-.283-.44-.052-.616.275-.22.6-.11.772.13.396.543.809 1.09.528 1.86l.017.004Zm1.947-9.694s-.01.22-.047.23c-.321.096-.568.001-.845-.34.422-.155.684-.093.892.11Zm-2.025 5.564c-.531-.327-.782-.927-.753-1.8.607.506.882 1.034.753 1.8Zm-.839-7.596c.257.177.682.36.278.733-.298.287-.556.902-1.196.425-.771-.575-.816-.53-1.99.363l.142-2.02c1.1-.257 1.987-.033 2.765.507l.001-.008Zm-4.496.023c-.19-.065-.282-.226-.198-.423.088-.213.3-.215.489-.177.23.047.238.227.193.405-.117.225-.301.26-.484.195Z" fill="#66462C" fill-opacity=".1"/><path d="m79.524 39.756.026-.017-.022-.005-.004.022Zm-15.362 61.12c.895.226 1.717.589 2.52 1.01 2.33 1.247 4.871 2.065 7.605 2.459 1.69.244 3.317.672 4.758 1.489.342.194.712.296 1.103.34 1.279.125 2.467.526 3.708.751.435.088.88.125 1.32.188.207.033.396.018.49-.222.102-.29-.07-.405-.305-.515-.526-.25-1.148-.073-1.727-.235-2.235-.622-4.38-1.422-6.56-2.149-1.03-.342-2.117-.545-3.15-.923-.809-.298-1.795-.293-2.678-.579-2.238-.738-4.306-1.79-6.527-2.57-1.997-.698-3.839-1.641-5.41-2.957-1.463-1.231-3.093-2.167-5.055-2.69-1.691-.458-3.422-.765-5.14-1.14-.729-.165-1.31-.452-1.835-.968-1.315-1.309-2.882-2.294-4.801-2.808a6.708 6.708 0 0 1-2.164-1.062c-2.291-1.657-3.884-3.913-5.736-5.944-1.241-1.365-2.253-2.897-3.277-4.413-.355-.526-.92-1.024-.676-2.007 1.47.939 2.76 1.841 3.696 3.135.376-.369-.262-.765.344-1.043.704-.32.393-.713.046-.97-.334-.237-.756-.385-1.15-.545-.697-.284-1.168-.762-1.494-1.39-1.009-1.94-2.115-3.838-2.977-5.848-.676-1.57-1.476-3.184-.647-5.126.223-.534.071-1.099-.3-1.628-1.028.735-.97 1.807-1.31 2.646-1.485-.07-1.805-.99-1.905-2.07-.083-.862-.234-1.694-.692-2.5-.39.572-.206 1.019-.146 1.467.15 1.277.558 2.5.28 3.877-.13.641-.21 1.516.413 1.945 1.008.676 1.342 1.697 1.699 2.74.808 2.319 2.657 4.056 3.542 6.346.53 1.371 1.899 2.237 2.404 3.684-.451.345-.88.222-1.27.356-.296.1-.63.176-.707.507-.09.356.046.695.322.867.267.17.654.32.96.257.833-.17 1.298.21 1.748.702.587.653 1.228 1.255 1.796 1.913 2.273 2.624 4.777 4.94 8.434 5.948.9.245 1.845.704 2.355 1.475 1.073 1.624 2.897 1.994 4.746 2.244 3.128.42 5.94 1.347 8.323 3.21 1.486 1.165 3.074 2.262 5.04 2.767l-.013-.021Zm-33.42-26.4c-.26.188-.454-.038-.653-.15-.608-.328-.884-.936-1.272-1.433-1.36-1.736-1.963-3.8-1.759-5.993.664.49.438 1.3.738 1.877.869 1.716 1.697 3.451 2.897 4.977.148.19.423.45.06.715l-.011.007Zm50.474-44.382c2.62.514 5.356.507 8.124.908-1.198 1.048-2.472 1.645-3.91 1.861-.504.076-.961.233-1.043.724-.099.532.243.86.799.963.094.019.194.048.29.059 1.682.154 2.86.998 3.757 2.222.181.241.392.426.734.273.5-.237.853-.005 1.27.133.68.227 1.406.374 2.098.594.284.085.464.032.645-.207.23-.301.183-.551-.102-.724-.197-.12-.44-.188-.668-.252-.777-.193-1.34-.699-2.006-1.047-.474-.248-.515-.612-.288-1.074.106-.219.21-.465.387-.643 1.116-1.172 1.565-2.639 2.345-3.95.124-.215.299-.465-.032-.585-.247-.095-.34.144-.436.312-.669 1.111-1.396 2.201-1.999 3.335-1.115 2.089-1.14 1.728-2.852.846-.08-.042-.155-.111-.224-.16-.477-.365-.47-.657.165-.902.893-.336 1.601-.94 2.376-1.433.694-.447.637-1.26-.093-1.426-1.519-.343-3.064-.737-4.638-.762a19.877 19.877 0 0 1-2.933-.247c-1.091-.177-2.19-.408-3.397-.012.29.807.925 1.042 1.66 1.182l-.029.012Zm18.303 51.76c-.99-.334-2.133-.12-3.143-.566-.888-.393-1.889-.667-2.87-.947-1.588-.446-3.422-.506-4.532-1.862-.078-.096-.257-.132-.397-.143-.99-.067-1.979-.134-2.968-.156-.415-.013-.643.28-.719.655-.078.385.224.473.505.53.188.038.413.066.594.005.922-.303 1.68-.319 2.097.603.073.166.398.223.623.296.273.1.594.138.406.625-1.81-.224-3.682-.14-5.543-.153-1.686-.003-3.397.558-5.096.267.587 1.045 1.666.89 2.676.81 2.013-.162 4.034-.456 6-.218 2.07.26 4.302.017 6.158 1.017.176.098.358.073.565.061 1.087-.064 2.172-.076 3.17.296.132.053.306.16.386.024.558-.866 1.225-.393 1.873-.35.447.028 1.106.5 1.321-.124.26-.758-.67-.546-1.103-.687l-.004.017Zm-5.612-20.443c-.19-.154-.488 0-.711-.037-2.594-.428-5.263-.657-7.448-2.098-1.762-1.158-3.263-2.602-4.891-3.894-2.095-1.662-4.012-3.547-6.193-5.138-1.609-1.172-3.077-2.556-5.297-3.077-.165-.06-.434-.177-.716-.234a.592.592 0 0 0-.647.305c-.156.29-.152.575.132.748.159.095.367.12.535.207 3.074 1.477 6.034 3.12 8.559 5.332 2.33 2.04 4.772 3.96 7.202 5.894 2.636 2.102 5.913 2.446 9.28 2.692.227.02.456-.06.477-.25.013-.15-.135-.34-.265-.446l-.017-.004Zm46.065 52.08c1.642.173 3.238.443 4.831.775.537.109.898.52 1.488.497 2.382-.105 4.627.689 7.079.242.681-.12 1.378-.059 2.09-.244.786-.197 1.602-.237 2.399-.227.644.015 1.301.015 1.952-.085 2.6-.39 5.188-.898 7.802-.965.749-.017 1.497-.115 2.245-.213.245-.03.543-.184.535-.452-.004-.286-.299-.319-.565-.275-.545.103-1.109.345-1.636.318-2.092-.103-4.176.196-6.276.527-3.402.539-6.768.373-10.157.497-3.191.11-6.269-.425-9.341-.95-1.724-.296-3.553-.114-5.275-.508.628 1.018 1.803.953 2.82 1.061l.009.002ZM53.557 59.573s.001-.009-.006-.02c-.001.01.014.021.02.032.131-1.3-.649-2.314-.974-3.466-.373-1.313-1.132-2.474-1.754-3.695-1.593-3.137-3.135-6.299-4.717-9.442-.342-.675-.745-1.318-1.433-1.733-.218.641.043 1.148.299 1.68 1.474 3.15 2.952 6.28 4.565 9.359 1.192 2.263 2.492 4.477 3.463 6.864.088.223.35.374.538.545a.436.436 0 0 0 .004-.106l-.007-.01.002-.008Zm-8.635-17.788a70.247 70.247 0 0 0 1.634 3.412c-.02-.03-.04-.07-.06-.101a24.512 24.512 0 0 1-1.574-3.311Zm3.168 6.44a154.532 154.532 0 0 1 1.555 3.101c.2.415.4.83.61 1.237-.778-1.413-1.467-2.88-2.163-4.348l-.002.01Z" fill="#66462C" fill-opacity=".1"/><path d="m44.662 41.228.034.027.01-.048-.044.02Zm8.926 18.493s-.022-.022-.03-.024l-.01.051.02-.013.008.001.012-.015Zm55.369-24.957c1.395-1.453 2.399-3.209 3.832-4.673.548-.556 1.341-1.143 1.135-2.183-.899.361-1.715.623-2.066 1.523-.129.33-.439.543-.718.78-1.073.914-1.773 2.09-2.546 3.189-1.421 2.018-2.801 4.054-4.363 5.98-.697.857-1.292 1.734-1.677 2.715.993-.564 1.487-1.56 2.246-2.323 1.54-1.557 2.628-3.42 4.15-5.018l.007.01Zm-6.392 7.342-.067.045s.031.035.03.045c.005-.028.031-.062.037-.09Zm-56.815 6.41c-.81-1.563-1.657-3.08-2.901-4.56.16 1.225 6.507 14.533 7.187 15.206.1-.051.19-.104.289-.155-.649-1.485-1.277-2.984-1.955-4.457-.91-1.992-1.614-4.076-2.62-6.034Zm32.186 8.314c-1.733-.601-3.024-1.852-4.701-2.556-.68-.28-1.348-.665-1.955-1.082-.218-.151-.578-.304-.36-.634.49-.756-.056-.644-.519-.64-.453.006-.895-.003-1.353.02-.394.018-.688.199-.77.6-.067.334.101.51.382.657.636.325 1.235.696 1.876.995 2.058.969 4.135 1.888 6.183 2.864.477.23.923.437 1.548.332.022-.414-.147-.502-.331-.557Zm21.595 17.342a1.27 1.27 0 0 0-.392-.169l-6.827-1.437c-.281-.057-.581-.109-.877-.097-.27.016-.466.199-.528.462-.06.247-.019.486.226.59.263.106.556.148.83.239.928.286 1.936.259 2.912.35 1.15.108 2.086.699 3.205.872l1.006.204c.324.065.626-.025.76-.336.136-.32-.078-.532-.311-.695l-.004.017Zm-64.594 1.021.272-.159c-1.71-2.947-3.423-5.885-5.133-8.832l-.303.18c1.206 3.245 2.787 6.263 5.173 8.813l-.009-.002Zm68.584 8.283a4.07 4.07 0 0 1-.078.34c.817.264 1.599.654 2.459.748.772.085 1.164.21 1.121 1.038-.017.388.36.847.809.778.623-.096.465-.672.466-1.072 0-.437-.096-.839-.479-1.095-1.275-.846-2.834-.6-4.291-.727l-.007-.01Zm60.911 37.6s.067.067.095.1c-.124-.132.029.032-.095-.1-1.588-.001-3.202.295-4.753-.064-.331-.076-.708-.01-.855.45 1.505.457 3.071.525 4.698.249.432-.073.82-.146.912-.643l-.002.008Zm-1.31.376Zm8.941-72.703c-.645-.54-1.535-.4-2.341-.492-.78-.096-1.512-.645-2.544-.106 1.653.513 3.278.468 4.885.598Zm-4.478 72.316-.027-.041-.03.02c.017.004.042.009.057.021Z" fill="#66462C" fill-opacity=".1"/><path d="M164.441 121.078c.986.52 1.992.68 3.087-.033-.987-.432-2.076.122-3.087.033Zm1.124.103c.252-.02.498-.05.749-.062l-.749.062Zm-41.015-12.356c.612.177 1.149.331 1.93.551-.569-.697-1.212-.881-1.93-.551Zm52.592-59.518c-1.014-.473-1.824-.37-2.606-.324-.072.003-.153.228-.231.354.829-.019 1.642.217 2.837-.03Z" fill="#66462C" fill-opacity=".1"/><path d="M174.301 49.328a1.77 1.77 0 0 1-.187-.1l.203.112-.007-.01-.009-.002Zm9.182 61.665a.271.271 0 0 0 .2-.334.258.258 0 0 0-.345-.177c-.521.206-1.024.452-1.531.678.647.31 1.153-.042 1.674-.159l.002-.008Zm-85.63-74.374c-.28.415-.758.657-.857 1.188.46-.28.848-.611.858-1.188Zm82.384 75.274c.195.04.397.001.47-.225.069-.209-.058-.368-.257-.391a.467.467 0 0 0-.492.248c-.056.229.092.33.279.368Zm6.567 4.172c-.675-.395-1.065.087-1.65.039.577.304 1.003.043 1.65-.039Z" fill="#66462C" fill-opacity=".1"/><path d="m174.1 49.233-.034-.007.043.009a.345.345 0 0 1 .176.09c-.195-.343-.289-.799-.891-.662-.027.003-.067.066-.065.102-.007.515.461.387.771.468Zm9.997 60.789c.622.037 1.05-.322 1.466-.095-.414-.235-.823-.452-1.466.095Zm.802-.238c.094.019.186.002.285-.005-.102.024-.206.056-.285.005Zm-82.373-67.597-.027-.04s.001.035.006.054c0 0 .017.003.019-.005l.002-.009Zm-.024.005c-.395.142-.752.32-.721.958.322-.398.809-.513.721-.958Zm85.321 73.46-.021-.044-.004.019c.009.002.017.014.032.037l-.007-.012Zm-.624.261c.287.13.445-.079.586-.29-.151-.182-.339-.265-.578-.055-.12.109-.155.28-.008.345Zm-36.133-45.765c.122.06.269-.008.373-.12.099-.096.099-.185-.029-.211-.12-.025-.3-.061-.385.002-.115.083-.088.258.032.327l.009.002ZM53.581 59.73l-.024.017.04.008.007-.03-.012.008-.01-.002Z" fill="#66462C" fill-opacity=".1"/><path d="M53.593 59.74c-.02.236.067.423.308.508.018.003.152-.13.154-.183-.007-.277-.21-.336-.462-.325Zm125.061-10.002-.12.014.096.059.024-.073Zm-8.783 15.967s-.029-.077-.048-.117c-.071.04-.176.072-.195.122-.012.06.044.134.067.201.12-.02.181-.097.176-.206Zm30.577 42.683-.02-.043c-.021.006-.05.01-.071.015a.402.402 0 0 1 .091.028Zm-.17-.008s.057-.007.079-.021a.757.757 0 0 1-.141-.048c.015.022.034.064.054.059l.008.01Zm-51.453 37.672c-1.789-.149-3.221-1.143-4.986-1.412 1.644-.976 3.347-.354 5.239-.755-.526-.382-.895-.448-1.325-.295-.593.21-.978.096-1.096-.507-.129-.676-.825-.612-1.31-.586-2.961.157-5.84-.266-8.804-.182-.991.031-2.071-.028-2.981-.488-.33-.165-.745-.178-1.166-.112-.613.09-1.164-.04-1.74-.174-.832-.187-1.629-.678-2.586-.338-1.032.361-2.089.191-2.919-.048-.972-.286-1.895-.375-2.89-.238-1.224.17-2.442.137-3.584-.05-1.958-.326-3.743.114-5.345 1.276-.917.669-1.655.546-2.501.339-.329-.084-.636-.236-.973-.277-2.777-.358-5.201-1.491-7.602-2.61-2.36-1.101-4.642-2.321-7.165-3.144-.34-.113-.65-.167-1.013-.081-.196.05-.403.061-.508.272-.123.259-.073.492.15.618.624.34 1.02 1.008 1.757 1.139 2.02.374 3.616 1.472 5.378 2.284 3.111 1.423 6.234 2.786 9.742 3.435 1.9.349 4.031.345 5.501 1.72.09.081.274.091.423.104.987.075 1.964.247 2.959.199 3.405-.156 6.767.027 10.14.07 2.469.037 4.9.396 7.387.428 1.966.025 3.808.745 5.855.368.434-.082.932-.087 1.322.045 1.413.474 2.945.054 4.393.178.488.046.798-.168.872-.624.072-.44-.281-.538-.648-.568l.024.014Zm-3.289-2.867c.116-.003.15.049.119.158l-.221.125c-.003-.072-.014-.146-.009-.216.005-.026.075-.065.111-.067Zm-20.025.527c-2.778-.26-5.667.152-8.413-.271-.825-.132-1.795.099-2.525-.459.358-.452.786-.375 1.16-.379 3.863-.054 8.97.367 10.08.805-.033.163-.152.308-.3.296l-.002.008Zm7.786.519c-.222-.001-.313-.206-.255-.408.078-.251.286-.271.458-.156.49.339 1.188.009 1.847.347-.79.437-1.419.211-2.05.217Zm2.054-1.026c.313-.186.535-.319.77-.209.05.019.09.169.068.192-.252.233-.518.233-.838.017Zm2.107.115c.622-.221 1.219-.278 2.027.117-.881.053-1.416-.242-2.027-.117Zm2.529.005c.053-.176.21-.162.335-.119.066.022.09.125.139.188-.094.026-.19.06-.284.085-.068-.058-.197-.12-.188-.162l-.002.008Zm-.176 3.054c-.037.055-.162.057-.247.084-.148-.057-.194-.182-.131-.32.007-.035.181-.062.258-.046.154.031.249.13.129.284l-.009-.002Zm1.868-2.951c-.041-.107.036-.18.154-.147.077.015.147.065.227.108-.065.058-.12.154-.185.167-.063.005-.165-.06-.189-.118l-.007-.01Zm.647 1.012c-.154.147-.337.173-.502.068-.119-.069-.156-.237-.033-.319.094-.07.278-.059.406-.033.111.022.285.084.139.278l-.01.006Zm.526-.846.006-.025s-.002.008-.012.015l-.002.009-.009-.002c-.018-.04-.028-.077-.047-.117.019.04.03.069.049.108.002-.008.004-.017.014-.024.022-.111.036-.224.05-.337.077.016.144.038.219.062l-.242.272a.12.12 0 0 1-.029.056l.003-.017Zm-38.381-9.542c2.303.814 4.477 1.913 7.092 2.016.66.027 1.23.018 1.902-.229 1.843-.686 3.702-.968 5.621-.713.864.113 1.725.554 2.997.1-1.076-.512-1.938-.945-2.83-1.322-.482-.204-1.029-.262-1.608-.165-1.699.279-3.42.054-5.092.775-.175.072-.403.061-.594.04-1.921-.202-3.811-.47-5.564-1.19-3.125-1.266-6.328-2.325-9.831-2.687-3.122-.321-5.989-1.285-8.696-2.6-.848-.412-1.746-.755-2.634-1.104-.215-.079-.517-.122-.68.156-.15.263.043.445.239.574 1.233.838 2.42 1.72 3.849 2.294 1.634.652 3.304 1.213 5.068 1.579 1.865.387 3.756.646 5.646.958 1.77.287 3.45.931 5.124 1.519l-.009-.001Zm74.207 7.975s.015-.027.027-.035a.085.085 0 0 0-.05 0l.023.035Z" fill="#66462C" fill-opacity=".1"/><path d="M175.885 145.499c2.109-.641 3.208-2.645 5.106-3.471 2.53-1.099 4.405-3.123 5.655-5.479.474-.892 1.418-.95 1.973-1.675 1.16-1.519 3.087-2.312 4.266-3.837.118-.145.362-.211.513-.341 1.3-1.161 2.592-2.324 3.743-3.756-.965-.097-1.389.547-1.982.89-1.747.999-3.462 2.058-4.845 3.497-2.65 2.739-5.817 4.965-8.392 7.773-.285.308-.621.524-.957.777-.829.633-1.749 1.186-2.274 2.112.573.019.824-.474 1.21-.76.366-.273.636-.771 1.424-.718-.961 1.061-1.982 1.807-2.926 2.613-.202.163-.729 1.143-.897-.04-.032-.238-1.22.501-.984.691.591.458.015.627-.172.936-.149.255-.69.341-.463.797l.002-.009ZM96.107 126.23c.69.54 1.325 1.123 2.17 1.508.943.431 2.028.331 3.476.722.703-.009 1.779.459 2.988.455 2.684-.017 5.339.28 8.064-.2.304-.054.634.066.689-.333.045-.311-.217-.462-.519-.55-.702-.214-1.45-.205-2.2-.223-2.138-.051-4.162-.621-6.33-.607-1.475.004-2.917-.235-4.346-.498-1.138-.212-2.154-.543-3.065-1.128-.321-.208-.684-.433-1.052-.018-.298.332-.129.678.123.88l.002-.008Zm23.469 10.901c-.021.494.425.487.844.518 2.249.162 4.503.209 6.723.597 2.486.433 5.064.546 7.621.761 1.571.132 3.148.193 4.722.307.473.034.859-.075 1.343-.627-2.016-.123-3.871-.17-5.686-.369-2.294-.242-4.629-.413-6.806-.97-1.806-.464-3.579-.823-5.494-.793-.793.018-1.577-.141-2.371-.124-.375.013-.862.226-.877.695l-.019.005Zm-64.294-24.368c.19.421.38.834.437 1.3.118 1.083.553 2.044 1.023 2.968 1.375 2.718 2.448 5.571 3.715 8.339.856 1.866 1.505 3.832 2.3 5.729.283.663.742 1.246 1.122 1.866.11-.058.21-.117.32-.175-2.722-7.284-6.28-14.212-8.678-21.866-.483 1.113-.519 1.204-.238 1.83l-.002.009Zm20.423 4.38c-.159.084-.31.169-.468.253.562 1.868 1.606 3.504 2.512 5.21.892 1.686 1.883 3.321 2.806 4.986.923 1.665 1.468 3.574 3.003 4.892-.422-1.947-1.45-3.624-2.317-5.341-1.708-3.4-3.68-6.676-5.538-9.991l.002-.009Zm75.931 38.686c.373.218.807.226 1.288.127 1.595-.335 3.127-.933 4.683-1.428.438-.143.822-.421 1.022-.835.002-.275-.1-.474-.348-.56-.459-.146-.911-.194-1.449-.036-1.359.402-2.732.782-4.129.971-.292.039-.592.165-.867.296-.691.341-.796 1.121-.2 1.465Zm-82.088-20.352c-.344.295-.493.594-.273.995.479.881.678 1.865.86 2.855.067.37.269.642.832.623-.486-1.542-.953-3.007-1.419-4.473Zm-.017.041c-.102.282-.11.539-.059.771-.095-.232-.135-.472.059-.771Zm.332 1.643c.194.36.379.718.326 1.153.046-.445-.168-.791-.326-1.153Zm4.381-.109c-.228.159-.404.417-.251.581.41.431.22 1.282 1.12 1.483.147-.95-.703-1.354-.87-2.056v-.008Zm-.006-.009-.002.009s.013-.017.023-.015l-.03.004.009.002Z" fill="#66462C" fill-opacity=".1"/><path d="M178.106 142.646c.156.111.378-.057.461-.245.05-.115.05-.248.074-.368-.128.018-.271.016-.374.084-.223.133-.437.348-.162.537l.001-.008Zm.54-.657-.009.041c.01.002.021.004.033-.004l-.024-.037Zm-3.728-50.925c-1.314.705-2.518 1.565-3.896 2.185-3.304 1.503-6.338 3.64-9.883 4.622-.433.117-.556.377-.513.733 1.98-.748 4.09-1.041 6.001-2.105 2.06-1.141 4.345-1.773 6.464-2.858 3.345-1.7 6.352-3.752 8.983-6.353.223-.222.396-.508.74-.411.841.232.831-.375.848-.808.03-1.374.259-2.77-.066-4.1-.012.015-.025.039-.037.054-.152.878-.153 1.76-.222 2.627-.086 1.167-.69 1.872-1.585 2.474-.054.052-.099.096-.162.146-2.657 2.16-5.482 3.964-8.432 5.557.763-.433 1.508-.87 2.277-1.293.621-.346.916-.794.926-1.37-.197-.21-.327-.574-.408-1.098-.195-1.313 0-2.672-.226-3.964l-.008-.002c-.36 1.512-.3 3.012.02 4.412.193.885-.124 1.177-.829 1.55l.008.002Zm-8.069 4.82c.978-.487 1.957-.983 2.972-1.392.27-.105.517-.233.781-.349a94.02 94.02 0 0 1-3.753 1.742Z" fill="#66462C" fill-opacity=".1"/><path d="M175.768 85.119c.053.046.098.091.151.137.05.456.091.918.131 1.38.021-.102.024-.208.054-.31.104-.423.137-.942-.332-1.224l-.006.026.002-.009Zm7.789-3.086.023-.112c-.013.06-.023.112-.051.16.003-.017.024-.03.036-.046l-.008-.002Zm.032-.105s-.004-.031-.009-.052l-.008.038.019.004-.002.01Zm-.401 1.837c-.007-.1-.005-.197-.013-.288-.109.539-.191 1.074-.353 1.611-.298.99-.867 1.561-1.82 1.796-.401.096-.644.243-.861.528-.881 1.193-2.294 1.681-3.368 2.514-.319-.09-.386-.283-.386-.46.007-.516-.125-1.005-.237-1.5.051.625.11 1.251.197 1.874.013.11.018.217.014.323.321.342.837.25 1.642-.263 1.233-.783 2.245-1.834 3.491-2.596.091-.053.173-.108.257-.17 1.238-1.077 1.469-2.08 1.437-3.37Zm-7.42 1.353-.034-.05c-.002.008-.005.025.002.035.008.002.015.012.03.024l.002-.009Zm10.106 8.514c-.69.341-1.457.533-2.074 1.04-1.65 1.349-3.633 2.158-5.499 3.088-2.113 1.05-4.405 1.717-6.615 2.551-.202.075-.385.145-.44.374.188.341.499.164.774.077 1.667-.517 3.294-1.23 4.959-1.693 3.112-.856 5.794-2.575 8.613-4.043.297-.153.484-.507.717-.78.139-.16.23-.345.096-.515-.128-.16-.305-.204-.522-.097l-.009-.002Zm2.748-8.098c.076-.03.196-.183.182-.204-.419-.681.075-1.676-.564-2.278.04.195.053.394.074.594-.029-.202-.042-.4-.082-.596a.498.498 0 0 0-.097-.09c-.153.841.167 1.619.15 2.443-.009.176.194.182.337.13Zm-.516-2.607s.022.022.038.034a.907.907 0 0 1 .01-.051l-.019.005-.029.012Zm-16.638-4.53c-.01.532-.009 1.058-.021 1.866.532-.819.552-1.358.331-1.901l-.31.035Zm16.791 3.047-.011-.002-.005.022s.005-.022.016-.02Zm-.121 1.427s.027-.048.033-.073c0 0 .003-.017-.011-.038-.001.008.005.019.012.03.207-.449-.096-.893.066-1.341-.466.493-.353.952-.098 1.414l-.002.008Zm.056-.452c-.043-.23-.159-.45-.112-.681-.047.23.067.459.112.681Z" fill="#66462C" fill-opacity=".1"/><path d="m188.135 82.915.017.003.004-.017s-.005-.019-.012-.029c-.004.017-.007.034-.029.056l.02-.013Zm-19.946 18.593c-.203-.059-.39.028-.55.156-.075.065-.057.148.062.181.197.04.383-.038.558-.154.06-.076.048-.15-.07-.183Zm-7.713-11.918c.074-.102.031-.156-.108-.13-.047.008-.081.046-.123.074a.741.741 0 0 1 .092.08c.046-.008.125 0 .139-.025Zm2.482-3.764-.03.02.059.012-.029-.032Z" fill="#66462C" fill-opacity=".1"/><path d="M162.701 85.97c.079-.037.151-.085.23-.123-.067-.022-.14-.055-.209-.069-.137-.028-.274-.1-.402.044-.022.022-.019.094.004.117.1.118.24.093.377.032Zm-2.469 12.35c-.123-.008-.299-.062-.312.132-.014.158.152.174.294.176.134 0 .271-.016.415-.023-.075-.158-.194-.272-.388-.284l-.009-.002Z" fill="#66462C" fill-opacity=".1"/><path d="m160.63 98.634.006-.028-.01-.002.015.023-.011.007Zm8.271 2.857.08-.061-.08-.036v.097Zm-48.659-7.078s-.028-.054-.043-.077l-.022.113.063-.026.002-.01Zm-.843-3.177c.397 1.149.278 2.22.8 3.1.269-1.147.053-2.144-.8-3.1Zm1.52 5.481c.264-.73.054-1.057-.337-1.332-.24.476-.003.81.337 1.332Zm-.343-1.378c.191-.415.02-.673-.317-.857.044.312-.186.737.317.857Z" fill="#66462C" fill-opacity=".1"/><path d="M120.566 95.376s.019.004.026.016a.092.092 0 0 1 .019-.046l-.038-.008a.65.65 0 0 0-.007.038Zm-.386-.942.078.045c.005-.028-.01-.05-.013-.08l-.064.026-.001.01Zm8.405 2.871s-.014-.033-.021-.044l-.01-.002.029.055.002-.01Z" fill="#66462C" fill-opacity=".1"/><path d="M128.564 97.252c-.072.36-.042.65.382.718l.007-.034a1.71 1.71 0 0 1-.397-.686l.008.002Zm.399.659s.014.02.022.022c.004-.017-.008-.046-.013-.064l-.009.042Z" fill="#66462C" fill-opacity=".1"/><path d="M128.647 97.322s-.03-.024-.052-.046l-.005.025.059.012-.002.009Zm.303.613s.02.03.035.043l-.022-.066-.005.025-.008-.002Zm63.6-29.974-.042-.028-.053.019.095.01ZM79.52 39.733l-.031.02-.022.022.056-.015.005-.026-.009-.001Z" fill="#66462C" fill-opacity=".1"/></svg>