<svg width="62" height="37" fill="none" xmlns="http://www.w3.org/2000/svg"><path d="M4.477 2.813c10.863-.78 21.727-1.361 32.61-1.561 5.442-.1 10.884-.14 16.326-.08l4.051.06c.934.02 2.503-.26 3.039.76.496.94.377 2.261.397 3.282.02 1.36.02 2.721-.02 4.062a96.889 96.889 0 0 1-2.085 17.909c-.159.76.993 1.08 1.152.32a99.953 99.953 0 0 0 1.986-16.488c.06-1.36.08-2.722.06-4.062 0-1.321.02-2.682-.1-3.982-.08-.96-.357-1.961-1.211-2.502-1.013-.64-2.483-.44-3.615-.46-11.26-.18-22.502-.02-33.743.5-6.296.28-12.571.68-18.847 1.241-.636.06-.636 1.04 0 1Z" fill="#66462C"/><path d="M3.521 3.003C.796 2.863.736 7.004.578 8.825c-.276 3.54-.434 7.1-.513 10.662-.099 3.56-.08 7.101.02 10.662.04 1.44 0 2.96.632 4.3.612 1.3 1.876 1.96 3.219 2.2 1.58.281 3.239.281 4.839.321 1.777.04 3.574.04 5.352 0 3.515-.08 7.011-.3 10.507-.5l21.152-1.32c1.758-.1 3.535-.22 5.293-.32 1.501-.1 3.042-.16 4.503-.58 1.323-.38 2.568-1.08 3.397-2.201.73-.98 1.146-2.26.988-3.48-.08-.66-.356-1.18-.77-1.66-.455-.541-1.304.16-.968.76.533.9.493 2 .04 2.94-.534 1.1-1.502 1.82-2.647 2.2-1.304.46-2.686.56-4.05.64-1.638.1-3.258.2-4.897.32-6.537.42-13.075.84-19.592 1.24-6.518.42-13.035.9-19.572.64-1.383-.06-2.884 0-4.207-.48-1.264-.42-1.758-1.6-1.896-2.88-.158-1.52-.138-3.08-.178-4.6-.02-1.661-.04-3.301-.04-4.942.02-3.3.08-6.581.218-9.882.079-1.64.178-3.28.276-4.92.06-1.16.08-2.441.731-3.441.277-.4.612-.64 1.106-.64.553.02.553-.82 0-.86Z" fill="#66462C"/><path d="M2.851 4.032c-.494-.192-.97-.404-1.464-.539-.356-.077-.534.385-.237.558 3.957 2.446 8.111 4.602 12.207 6.836 4.115 2.253 8.23 4.448 12.345 6.662 2.018 1.098 4.056 2.176 6.074 3.274.91.5 1.84 1.04 2.888 1.155.97.115 1.9-.231 2.691-.77.85-.578 1.662-1.252 2.453-1.887.91-.694 1.8-1.406 2.71-2.118 1.801-1.425 3.582-2.87 5.362-4.313 4.017-3.255 7.973-6.566 11.91-9.898.614-.5-.257-1.328-.85-.847-6.846 5.719-13.81 11.341-20.774 16.906-.712.578-1.444 1.27-2.334 1.617-1.01.386-1.979-.057-2.869-.539-1.979-1.04-3.937-2.099-5.896-3.158-3.976-2.117-7.953-4.274-11.93-6.373-4.53-2.407-9.021-4.91-13.67-7.066-.08.192-.159.365-.238.558.514.096 1.068.115 1.603.173.118 0 .118-.192.02-.23Z" fill="#66462C"/><path d="M24.787 17.01c-.855.32-1.593.862-2.331 1.403a94.417 94.417 0 0 0-2.35 1.664 660.34 660.34 0 0 0-4.604 3.328 790.099 790.099 0 0 0-9.208 6.816c-.874.662-1.748 1.303-2.622 1.965-.835.642-1.768 1.223-2.525 1.965-.408.4.116 1.062.582.782.816-.481 1.554-1.143 2.312-1.724a223.15 223.15 0 0 1 2.234-1.685c1.515-1.142 3.03-2.285 4.545-3.408 3.05-2.285 6.119-4.57 9.169-6.856.854-.642 1.71-1.263 2.544-1.905.855-.621 1.749-1.223 2.428-2.045.098-.12 0-.36-.174-.3Zm16.403.455c.488.057.894.19 1.361.305.427.096.853.153 1.28.268.792.19 1.584.477 2.336.802a16.616 16.616 0 0 1 4.244 2.77c1.361 1.184 2.54 2.54 3.616 3.954a50.353 50.353 0 0 1 1.523 2.082c.528.726.995 1.509 1.584 2.197.407.439 1.056-.134.813-.593-.65-1.28-1.605-2.464-2.458-3.629-.853-1.165-1.767-2.292-2.803-3.343-1.909-1.948-4.224-3.63-6.885-4.603a12.564 12.564 0 0 0-2.214-.593c-.833-.152-1.564-.057-2.397 0-.264.02-.243.363 0 .383ZM2.118 6.98c.535-.603 1.018-1.263 1.501-1.924.449-.621.967-1.204 1.364-1.865.069-.136-.087-.252-.173-.155-.552.583-1 1.301-1.484 1.962-.449.622-.915 1.224-1.312 1.885-.052.077.052.155.104.097Zm-.941 2.986a67.6 67.6 0 0 0 4.796-4.82c.081-.08-.04-.2-.122-.12a72.137 72.137 0 0 0-4.816 4.8c-.102.1.04.24.142.14Zm.668 1.854c-.278.336-.538.672-.816.988-.092.119.056.257.149.158.89-.909 1.687-1.936 2.503-2.925.778-.928 1.65-1.857 2.299-2.885.074-.099-.074-.197-.149-.138-.927.87-1.705 1.956-2.503 2.925-.778.948-1.594 1.897-2.317 2.885.055.04.111.079.167.138.26-.355.519-.691.778-1.027.056-.08-.055-.198-.11-.119Zm-.081 2.933c-.256.348-.49.696-.747 1.043.086.04.17.097.256.136.64-.928 1.302-1.797 2.113-2.59.79-.772 1.685-1.39 2.56-2.086.15-.116-.042-.328-.213-.232-1.024.541-1.9 1.334-2.689 2.126-.768.792-1.472 1.68-2.027 2.646-.085.155.17.29.256.136.235-.367.47-.715.683-1.082.085-.116-.107-.213-.192-.097Zm.48 3.192c-.396.61-.81 1.218-1.225 1.808l.27.172a18.54 18.54 0 0 1 4.665-5.674c.126-.095-.036-.323-.162-.228-2 1.504-3.602 3.484-4.773 5.75-.09.17.162.323.27.152.415-.61.81-1.219 1.225-1.809.108-.171-.144-.323-.27-.171Zm1.275 2.103a6.966 6.966 0 0 0-2.498 2.732c-.084.133.104.305.25.172 1.915-1.891 3.914-3.763 5.704-5.769.084-.096-.062-.248-.166-.153-2.02 1.815-3.873 3.782-5.768 5.711l.25.172c.52-1.07 1.333-1.967 2.374-2.655.146-.076 0-.305-.146-.21ZM2.6 23.874l-1.57 1.822.234.246c.813-.968 1.607-1.936 2.42-2.903.776-.93 1.589-1.841 2.293-2.828.09-.133-.108-.285-.217-.171-.83.873-1.589 1.879-2.365 2.809-.776.949-1.589 1.898-2.365 2.847-.145.17.09.417.234.246.524-.607 1.048-1.214 1.571-1.84.145-.152-.09-.4-.234-.228Zm-1.264 5.48c-.204.02-.427.333-.297.583.018.042.055.063.111.063.111 0 .149-.083.223-.146.241-.25.464-.542.705-.813.428-.522.873-1.043 1.3-1.585.892-1.084 1.764-2.148 2.6-3.274.074-.104-.056-.25-.13-.146a52.66 52.66 0 0 0-2.525 2.961c-.39.459-.78.939-1.17 1.418-.205.25-.409.5-.613.772-.093.104-.241.25-.297.375-.037.063-.074.104-.112.167.13.083.223.042.279-.125.149-.042.074-.292-.074-.25Zm.164 1.343c-.187.018-.228-.018-.166-.108a.607.607 0 0 1 .206-.253c.124-.126.29-.234.434-.343.269-.216.558-.433.827-.65.579-.45 1.157-.92 1.736-1.372 1.157-.92 2.314-1.841 3.43-2.798.104-.09-.062-.235-.165-.144-2.005 1.462-3.947 2.997-5.869 4.567-.29.235-.868.56-.93.939-.02.162.062.397.248.451.29.09.723-.289.351-.451-.103-.054-.206.09-.103.162Z" fill="#66462C"/><path d="M3.889 31.035c-.613.92-1.245 1.84-1.858 2.76-.108.13.09.277.199.166.974-.938 1.93-1.895 2.885-2.852.956-.957 1.966-1.858 2.85-2.889.108-.129-.055-.294-.18-.184-1.01.883-1.93 1.895-2.886 2.852-.956.957-1.912 1.895-2.868 2.87l.217.166c.595-.938 1.208-1.858 1.803-2.796.09-.093-.09-.203-.162-.093Zm3.191.615c-.821.578-1.54 1.305-2.054 2.125-.103.149.123.298.267.186 1.89-1.547 3.862-3.056 5.65-4.714.164-.13-.062-.336-.226-.205-1.972 1.453-3.801 3.111-5.67 4.695.082.056.184.13.267.187a6.524 6.524 0 0 1 1.89-2.143c.082-.056-.041-.205-.124-.13Zm3.176 4.302c.79-.768 1.582-1.558 2.372-2.327.791-.768 1.602-1.537 2.333-2.37.119-.149-.06-.341-.198-.213-.83.726-1.581 1.537-2.372 2.327-.79.79-1.562 1.558-2.333 2.348-.158.15.04.385.198.235Zm3.316-2.606c-.505.473-1.01.946-1.535 1.418.06.06.142.138.202.197 1.05-1.044 2.12-2.068 3.25-3.013l1.636-1.36c.606-.472 1.252-.886 1.837-1.398.101-.079-.02-.236-.14-.177-1.293.69-2.464 1.674-3.554 2.6-1.151.985-2.241 2.009-3.23 3.151-.122.138.08.315.201.197.485-.512.97-1.004 1.454-1.497.06-.078-.06-.197-.121-.118Zm4.678-1.64a7.453 7.453 0 0 0-2.224 2.069c-.103.132.124.3.247.188 1.03-1.035 2.08-2.05 3.212-3.01 1.112-.96 2.368-1.787 3.48-2.746.103-.094-.041-.264-.165-.188-1.276.696-2.43 1.693-3.52 2.615a36.955 36.955 0 0 0-3.233 3.103c.082.057.164.113.247.188a6.736 6.736 0 0 1 2.059-2.031c.123-.075.02-.245-.103-.188Zm3.165.494c-.771.83-1.563 1.659-2.354 2.467-.188.187.104.457.27.27 2.375-2.446 4.916-4.644 7.624-6.717.125-.083-.041-.27-.145-.207-2.875 1.803-5.52 4.125-7.75 6.654l.292.29c.75-.85 1.52-1.7 2.292-2.529.104-.165-.104-.373-.23-.228Zm3.091-.174c-.482.557-.963 1.094-1.445 1.651-.18.186.08.434.26.269 2.249-1.858 4.517-3.737 6.645-5.719.1-.103-.04-.289-.16-.206-2.31 1.775-4.537 3.716-6.745 5.656l.281.29c.462-.579.923-1.136 1.405-1.694.14-.165-.1-.412-.24-.247Zm4.162-.622c-.52.433-1.061.847-1.602 1.261-.2.17.1.452.32.283 2.504-1.92 5.048-3.803 7.571-5.724.12-.094-.04-.282-.16-.207-2.704 1.695-5.288 3.634-7.731 5.648.1.095.22.189.32.283.521-.433 1.022-.866 1.543-1.28.18-.151-.08-.396-.26-.264Zm4.123-.779-1.73 1.976c-.186.213.093.532.298.34.781-.744 1.544-1.508 2.325-2.273.763-.765 1.581-1.488 2.27-2.338.13-.149-.038-.425-.205-.297-.819.658-1.563 1.445-2.307 2.188-.8.787-1.6 1.573-2.38 2.38.092.107.204.234.297.34a84.357 84.357 0 0 1 1.637-2.082c.149-.17-.075-.404-.205-.234Zm2.274 2.191c-.336.256-.651.532-.988.789-.23.197.105.532.358.335 2.48-1.933 4.96-3.826 7.524-5.68.126-.098-.063-.335-.21-.236a56.41 56.41 0 0 0-7.672 5.58l.358.336c.315-.276.63-.572.924-.848.21-.178-.084-.454-.294-.276Zm4.295-.582a42.11 42.11 0 0 1-1.309 1.362l.295.335c1.753-2.053 3.56-3.938 5.59-5.614.147-.126.018-.398-.148-.294-2.121 1.53-4.114 3.394-5.737 5.573-.166.23.11.545.295.335.406-.482.83-.963 1.255-1.424.147-.168-.093-.44-.24-.273Zm4.414-.881c-.633.951-1.537 1.716-2.667 2.257.09.13.181.242.249.354.79-.448 1.582-.914 2.373-1.361.745-.43 1.581-.821 2.214-1.344.158-.13-.045-.317-.226-.242-.813.317-1.582.84-2.327 1.268-.746.448-1.514.896-2.283 1.325-.248.149-.022.503.249.354 1.152-.597 2.101-1.436 2.757-2.443.113-.187-.226-.355-.34-.168Zm3.061.313-1.802 2.088c-.129.17.15.32.3.207 1.223-.846 2.425-1.73 3.626-2.596l1.802-1.297c.3-.207.58-.452.9-.62.258-.133.709-.264.923 0 .108.15.13.432-.107.488-.15.038-.129.263.043.245.472-.057.6-.527.365-.866-.43-.62-1.33-.188-1.802.132a217.327 217.327 0 0 0-6.007 4.27c.107.075.193.131.3.206.558-.714 1.116-1.43 1.695-2.144.086-.131-.15-.244-.236-.113ZM7.828 5.614c-.312-.238-.606-.13-.814.217-.052.086.052.216.121.151.97-.91 1.974-1.754 2.84-2.793.07-.087-.017-.238-.104-.173-1.022.823-1.905 1.84-2.84 2.793.052.044.087.087.139.13.156-.26.398-.368.658-.325ZM9.26 6.946a20.55 20.55 0 0 1 4.678-4.69c.139-.087.02-.324-.118-.237-1.915 1.183-3.513 2.775-4.796 4.733-.1.15.138.344.236.194Zm3.041-.985c1.575-1.232 3.19-2.428 4.665-3.752.1-.092-.04-.276-.16-.184-1.654 1.159-3.19 2.446-4.764 3.715-.14.13.1.35.26.221Zm3.867.018c1.27-.938 2.618-1.822 3.812-2.848.058-.053-.02-.16-.096-.124-1.367.867-2.6 1.893-3.85 2.848-.097.07.038.195.134.124Zm3.041.001c1.96-1.537 3.899-3.118 5.756-4.763.103-.087-.042-.282-.145-.195-1.98 1.515-3.899 3.118-5.776 4.741-.124.087.041.304.165.217Zm5.058-1.024c1.102-1.08 2.329-1.944 3.68-2.73.105-.078.042-.274-.083-.215-1.476.57-2.807 1.57-3.826 2.729-.125.137.083.353.229.216Zm4.05-.008c1.238-1.189 2.578-2.356 3.654-3.711.081-.104-.02-.313-.162-.209-1.34 1.064-2.558 2.419-3.756 3.649-.162.166.081.438.264.27Zm3.007.012c1.573-1.238 3.253-2.42 4.654-3.79.064-.075-.022-.225-.13-.15-1.701 1.089-3.231 2.458-4.782 3.697-.194.15.086.375.258.243Zm2.958-.012c1.236-1.243 2.49-2.465 3.688-3.75.094-.103-.056-.269-.15-.165-1.291 1.18-2.527 2.423-3.763 3.666-.168.145.075.415.225.249Zm4.042-.981c1.577-.917 3.175-1.834 4.645-2.83.085-.062-.021-.173-.128-.126-1.662.854-3.218 1.818-4.773 2.766-.192.11.064.3.256.19Zm2.904.006c1.258-.897 2.573-1.756 3.736-2.787.096-.096-.019-.23-.114-.172-1.316.783-2.555 1.757-3.775 2.673-.171.115-.019.401.153.286Zm2.07.974a35.838 35.838 0 0 1 2.744-2.52C46.998 1.641 48.015.935 48.97.17c.082-.08-.02-.201-.122-.161-2.175 1.129-4.107 2.943-5.794 4.677-.163.181.081.423.244.262Zm4.012-1.979c.906-.595 1.833-1.174 2.662-1.83.077-.06-.019-.182-.135-.121-.965.518-1.872 1.143-2.778 1.753-.174.122.077.305.25.198Zm1.971.999c1.91-1.242 3.943-2.41 5.689-3.821.082-.057-.02-.189-.103-.132-2.033 1.054-3.881 2.41-5.791 3.652-.185.132 0 .433.205.301Zm4.037-.073c.374-.793.953-1.279 1.583-1.458.153-.051.119-.46-.034-.435-.766.128-1.396.716-1.839 1.637-.119.256.17.512.29.256Zm.94 4.054a41.717 41.717 0 0 1 2.73-2.506c.962-.792 2.026-1.451 2.97-2.223.12-.095-.04-.264-.161-.208-1.104.528-2.107 1.357-3.03 2.11a24.83 24.83 0 0 0-2.73 2.62c-.12.15.08.357.22.207Zm.978 1.004c1.416-1.783 2.978-3.372 4.707-4.704.128-.086.018-.3-.11-.236-1.858 1.181-3.494 2.77-4.8 4.682-.11.172.074.408.203.258Zm1.025 2.015c1.66-1.15 3.189-2.442 4.696-3.754.13-.12-.066-.282-.197-.181-1.616 1.17-3.232 2.36-4.717 3.693-.131.12.066.363.218.242Zm-.141 2.286c-.354.483-.707.987-1.078 1.47-.13.16.074.382.204.221.762-.805 1.524-1.63 2.323-2.415.798-.765 1.653-1.49 2.396-2.315.093-.1-.018-.261-.13-.2-.892.603-1.69 1.408-2.47 2.173-.818.805-1.599 1.63-2.323 2.536.074.06.148.12.241.2.335-.502.688-1.005 1.04-1.509.075-.12-.11-.261-.204-.16Zm.226 2.657a13.817 13.817 0 0 1 1.7-2.052c.61-.602 1.294-1.11 1.922-1.694.093-.075-.037-.207-.147-.15-.777.376-1.497 1.035-2.107 1.637a14.01 14.01 0 0 0-1.682 2.09c-.13.187.166.376.314.169Zm.55.663-.844 1.15.195.239c.373-.536.763-1.072 1.202-1.528.47-.496.99-.853 1.51-1.25.081-.059.032-.217-.065-.178-1.137.397-2.225 1.547-2.875 2.737-.081.159.114.357.228.199.26-.397.536-.794.812-1.19.08-.12-.065-.298-.163-.179Zm.511 2.82c-.424.4-.848.801-1.29 1.181.073.127.165.232.239.359.885-.844 1.862-1.688 2.618-2.701.074-.105-.019-.295-.148-.211-.995.717-1.88 1.688-2.765 2.595-.185.19.11.528.295.317.405-.464.83-.886 1.235-1.33.148-.126-.055-.337-.184-.21Zm-.104 3.555c.284-.27.587-.54.871-.831.285-.291.533-.624.8-.936.071-.083-.018-.228-.106-.166-.303.27-.605.478-.89.748-.32.291-.622.603-.924.915-.16.166.07.436.249.27Zm-.609 1.862c-.214.327-.447.634-.661.96-.107.145.071.271.197.217a3.548 3.548 0 0 0 1.125-.796c.268-.272.608-.652.644-1.05.018-.127-.161-.181-.25-.109-.126.127-.197.29-.286.435-.126.18-.25.344-.411.507-.286.29-.608.543-.965.742l.214.217.643-.977c.108-.163-.143-.29-.25-.145Zm-43.648 3.185c2.336-1.795 4.651-3.61 6.987-5.424 2.315-1.815 4.712-3.55 6.946-5.444.06-.059-.02-.157-.102-.118-2.335 1.716-4.59 3.61-6.865 5.404-2.335 1.854-4.67 3.688-7.007 5.542l.041.04Zm7.142-2.027c1.159-.978 2.338-1.957 3.496-2.935l1.71-1.438c.53-.439 1.197-.858 1.59-1.437.059-.1-.059-.2-.137-.14-.629.3-1.16.918-1.69 1.358-.55.479-1.12.978-1.689 1.457-1.139.999-2.298 1.997-3.437 2.995-.098.08.059.24.157.14Zm4.027-1.01c.76-.835 1.503-1.67 2.3-2.461.799-.792 1.671-1.477 2.45-2.269.093-.107-.018-.278-.13-.214-.909.578-1.725 1.348-2.505 2.119-.816.813-1.614 1.669-2.301 2.632-.093.128.056.321.186.193Zm4.04-2.018c.402-.574.857-1.096 1.347-1.582.42-.4 1.032-.748 1.382-1.217.052-.07-.035-.156-.105-.139-.595.14-1.172.748-1.575 1.165a8.95 8.95 0 0 0-1.277 1.633c-.105.156.122.278.227.14Zm3.063.005c.471-.455.924-.91 1.394-1.365.415-.417.924-.815 1.263-1.308.094-.152-.095-.341-.245-.246-.49.34-.904.834-1.319 1.27-.452.455-.904.929-1.356 1.384-.17.17.094.436.263.265Zm3.017-.008c.56-.56 1.316-1.139 1.662-1.84.021-.053-.065-.123-.13-.088-.755.421-1.273 1.14-1.813 1.7-.172.175.108.403.28.228Z" fill="#66462C"/><path d="M43.194 17.968c2.185-1.901 4.294-3.882 6.422-5.844 1.035-.96 2.09-1.921 3.124-2.882l1.553-1.44c.556-.521 1.17-1.021 1.668-1.602.096-.08 0-.26-.115-.18-.556.4-1.035.9-1.534 1.361-.556.5-1.112 1-1.648 1.501-1.074.98-2.128 1.961-3.202 2.942-2.147 1.981-4.332 3.943-6.421 5.984-.115.1.038.26.153.16Zm2.019-.002c1.49-1.277 2.96-2.532 4.43-3.83.736-.65 1.47-1.3 2.185-1.948.735-.628 1.512-1.256 2.142-1.97.084-.108-.021-.281-.147-.195-.735.498-1.428 1.147-2.1 1.753l-2.268 2.013c-1.491 1.32-2.94 2.662-4.41 4.004-.126.108.042.28.168.173Zm2.04-.001c1.46-1.356 3.007-2.61 4.688-3.724.133-.1.022-.303-.133-.222-1.835.951-3.516 2.226-4.776 3.785-.11.121.089.263.221.162Zm1.981.994c.332-.278.646-.574.943-.886.28-.279.595-.54.804-.887.07-.104-.07-.226-.175-.174-.332.226-.611.54-.873.817a11.31 11.31 0 0 0-.892.939c-.122.139.053.313.193.19Zm-.002 1.999c.578-.514 1.176-1.055 1.732-1.65.107-.136-.043-.406-.193-.271-.598.487-1.154 1.055-1.71 1.596-.15.136 0 .487.171.325Zm2.886.261c.139 0 .139-.219 0-.219a.11.11 0 0 0 0 .219Zm-41.056 3.545a1257.1 1257.1 0 0 0 11.864-8.184c.159-.12 0-.378-.158-.278a971.853 971.853 0 0 0-11.765 8.362c-.06.04 0 .14.06.1Zm4.702-4.022a53.578 53.578 0 0 1 3.124-2.483c1.028-.774 2.135-1.43 3.164-2.204.178-.14.02-.398-.178-.298-1.187.615-2.274 1.49-3.322 2.284a39.82 39.82 0 0 0-2.947 2.543c-.098.099.06.258.159.159Zm.083-1.899c.652-.536 1.305-1.053 1.977-1.59.653-.516 1.364-1.012 1.898-1.648.1-.1-.02-.278-.158-.199-.712.398-1.325.994-1.938 1.53-.672.556-1.344 1.132-1.997 1.689-.158.139.06.357.218.218Zm-.872-.876c.692-.595 1.364-1.211 2.037-1.827.336-.318.672-.616 1.008-.934.297-.278.633-.536.81-.894.06-.099-.058-.198-.157-.159-.356.16-.633.497-.93.755-.336.318-.672.616-1.008.934a89.68 89.68 0 0 0-1.997 1.887c-.159.159.079.397.237.238Zm-.755-2.341c.474-.377.949-.755 1.404-1.152.454-.377.988-.735 1.364-1.192.119-.159-.04-.397-.217-.298-.515.278-.95.735-1.385 1.113-.494.397-.968.814-1.443 1.231-.198.18.08.457.277.298Zm-.804-.796c.534-.536 1.127-1.033 1.562-1.648.08-.12-.08-.298-.217-.219-.594.457-1.108 1.033-1.642 1.57-.178.198.119.496.297.297Zm-1.443-1.263c.238-.715.791-1.132 1.404-1.51.139-.099.1-.357-.079-.337-.89.119-1.542.874-1.8 1.708-.118.318.376.437.475.14Zm-.826-1.721c-.02-.119-.06-.238-.08-.377-.019-.16-.276-.16-.296 0-.02.139-.079.258-.099.377-.02.16.08.318.238.318.178 0 .277-.159.237-.318Zm22.666 8.831c6.21-4.608 12.3-9.396 18.449-14.104 1.74-1.33 3.46-2.661 5.2-3.992.158-.12 0-.398-.158-.278-6.13 4.707-12.24 9.415-18.35 14.143-1.76 1.37-3.5 2.721-5.24 4.112-.078.04.02.179.1.119Zm3.011-4.505c2.729-2.027 5.477-4.053 8.186-6.099a547.113 547.113 0 0 0 4.093-3.079c.672-.516 1.364-1.013 2.036-1.549.613-.477 1.325-.934 1.86-1.53.039-.06-.04-.159-.12-.119-.75.358-1.423.974-2.076 1.47-.692.517-1.364 1.033-2.036 1.55-1.345 1.013-2.67 2.006-3.994 3.019-2.69 2.046-5.359 4.132-8.028 6.198-.1.06-.02.218.079.139Zm.539-2.919c2.135-1.51 4.27-3.02 6.386-4.57 2.077-1.509 4.232-2.959 6.21-4.568.157-.12-.04-.377-.198-.258-2.156 1.41-4.192 3.04-6.269 4.569a362.946 362.946 0 0 0-6.208 4.668c-.1.06-.02.218.079.159Zm1.132-2.894c1.265-1.013 2.55-2.046 3.816-3.06l1.839-1.49c.652-.516 1.344-1.052 1.918-1.668.079-.08-.02-.238-.139-.159-.672.398-1.305.934-1.898 1.43-.652.517-1.285 1.034-1.918 1.55l-3.856 3.158c-.158.14.08.358.238.239Zm.118-1.856 1.641-1.648c.515-.497 1.088-.994 1.483-1.59.08-.119-.079-.297-.217-.218-.593.397-1.068.993-1.582 1.49-.534.556-1.088 1.112-1.641 1.668-.178.18.119.477.316.298Z" fill="#66462C"/></svg>