<svg width="42" height="61" fill="none" xmlns="http://www.w3.org/2000/svg"><path d="M14.511 57.06c-2.477-4.039-4.93-8.054-6.845-12.413-1.913-4.333-3.385-8.912-4.416-13.54-1.006-4.529-1.864-9.425-1.055-14.029.81-4.602 3.656-8.3 7.434-10.968a24.247 24.247 0 0 1 12.316-4.383c4.416-.294 9.225.465 12.267 3.942 2.822 3.232 3.582 7.712 3.14 11.85-.54 4.946-2.575 9.696-4.612 14.2a105.3 105.3 0 0 1-15.137 24.118c-.736.906-1.521 1.787-2.282 2.644.196-.073.417-.171.614-.245-.516.025-.933-.196-1.056-.71-.294-1.028-1.889-.588-1.643.49.294 1.126 1.275 1.959 2.453 1.983.687.024 1.006-.416 1.423-.906a70.94 70.94 0 0 0 1.3-1.542 95.161 95.161 0 0 0 4.76-6.121 107.128 107.128 0 0 0 8.17-13.173c2.429-4.627 4.637-9.45 6.207-14.42 1.496-4.775 2.159-9.99.392-14.765-.76-2.08-1.962-4.015-3.606-5.533-1.791-1.64-4.097-2.62-6.502-3.11-4.76-.93-9.838-.318-14.327 1.543-4.466 1.86-8.71 4.97-11.188 9.206-2.674 4.554-2.6 9.99-1.914 15.057C1.803 36.396 5.483 46.313 11.15 54.882c.712 1.053 1.448 2.081 2.257 3.06.516.612 1.521-.196 1.104-.881Z" fill="#66462C"/><path d="M23.116 11.25c-.74-.894-1.991-1.317-3.166-1.168-1.328.15-2.4.92-3.192 1.914-.894 1.118-1.456 2.46-1.992 3.777-.639 1.615-1.226 3.23-1.533 4.945-.536 2.933-.23 6.014 1.788 8.375 1.634 1.888 4.265 3.155 6.819 2.56 2.783-.647 4.341-3.306 5.158-5.766 1.047-3.18 1.252-6.585.715-9.89-.255-1.54-.638-3.107-1.302-4.523-.562-1.217-1.558-2.336-2.988-2.46-1.532-.15-2.784.92-3.626 2.038-.945 1.242-1.686 2.683-2.299 4.125-1.379 3.205-2.043 6.808-1.762 10.288.128 1.44.434 2.857 1.15 4.15a6.567 6.567 0 0 0 1.2 1.59c.587.547 1.098.77 1.915.795a.425.425 0 0 0 .306-.72c-.178-.2-.306-.448-.51-.622-.154-.149-.358-.248-.511-.398-.409-.372-.715-.795-.996-1.242-.511-.895-.766-1.938-.92-2.957-.332-2.51.026-5.169.715-7.604a19.725 19.725 0 0 1 1.405-3.579c.562-1.118 1.226-2.335 2.145-3.23.74-.72 1.66-1.093 2.452-.224.766.845 1.073 2.113 1.38 3.181.714 2.684.867 5.492.459 8.225-.358 2.287-.996 4.946-2.86 6.536-1.66 1.441-3.882 1.143-5.593 0-1.992-1.317-2.963-3.504-3.04-5.815-.05-1.615.281-3.18.716-4.746.434-1.466.944-2.957 1.583-4.349.562-1.193 1.302-2.41 2.528-3.007 1.124-.546 2.528-.72 3.473.199.281.174.588-.174.383-.397Z" fill="#66462C"/><path d="M25.687 1.89c4.232-.878 8.779 1.12 11.527 4.36 3.064 3.606 3.866 8.674 3.355 13.23-.559 5.166-2.796 10.038-5.13 14.619a182.88 182.88 0 0 1-7.855 13.96 177.501 177.501 0 0 1-4.985 7.602c-1.216 1.73-3.185 4.362-5.641 3.704-.973-.268-1.362 1.242-.414 1.486 2.383.633 4.475-.853 5.958-2.583 1.8-2.07 3.258-4.531 4.742-6.846a181.017 181.017 0 0 0 8.68-15.033c2.554-4.97 5.059-10.111 5.837-15.715.68-4.873-.025-10.233-2.991-14.277a13.488 13.488 0 0 0-5.934-4.605c-2.358-.95-4.838-1.072-7.246-.22-.194.074-.122.366.097.317ZM2.15 15.989c1.89-1.09 3.68-2.42 5.495-3.606a256.562 256.562 0 0 1 5.42-3.508 257.055 257.055 0 0 1 5.495-3.411c.945-.581 1.89-1.137 2.81-1.694.87-.532 1.814-1.016 2.61-1.645.05-.049 0-.145-.075-.121-.944.363-1.84.968-2.71 1.476-.944.556-1.89 1.113-2.834 1.693a267.16 267.16 0 0 0-5.594 3.484 368.195 368.195 0 0 0-5.52 3.605c-1.765 1.186-3.58 2.323-5.221 3.654-.075 0 .025.121.124.073Zm.154.836c-.415.33-.83.662-1.269.992-.097.071.025.237.147.166 3.585-1.867 7.049-4.016 10.488-6.119 3.44-2.103 6.952-4.182 10.245-6.52.195-.142.024-.45-.196-.308-3.488 2.056-6.854 4.324-10.268 6.45-3.44 2.126-6.952 4.134-10.367 6.331.049.048.098.119.147.166.414-.355.805-.685 1.22-1.016.048-.095-.074-.213-.147-.142Zm-1.126 4.153a149.802 149.802 0 0 0 8.75-5.667c.162-.11.024-.396-.161-.286a149.745 149.745 0 0 0-8.704 5.732c-.139.11-.024.31.115.221Zm2.01 15.007C5.398 34.787 7.3 33.15 8.98 31.17c.066-.098-.044-.22-.133-.147-1.724 1.834-3.714 3.423-5.792 4.719-.133.098 0 .318.133.244Zm1.14 2.945a23.418 23.418 0 0 1 3.007-3.051 22.39 22.39 0 0 1 1.718-1.297c.597-.407 1.29-.737 1.862-1.195.167-.127.072-.432-.143-.381-1.29.407-2.506 1.449-3.556 2.313-1.17.966-2.22 2.085-3.175 3.305-.143.23.12.509.287.306Zm1.992 2.043c2.115-1.163 4.127-2.714 5.63-4.653.153-.181-.076-.44-.255-.258-1.757 1.68-3.54 3.23-5.578 4.523-.255.155-.05.517.204.388Zm.028 2.993c2.11-1.145 4.221-2.698 5.62-4.658.127-.204-.153-.407-.33-.255-.84.815-1.628 1.68-2.543 2.419a20.455 20.455 0 0 1-3 2.087c-.23.153 0 .56.253.407Zm3.012 1.957c1.682-1.806 3.577-3.23 5.567-4.604.166-.127.024-.381-.166-.305-2.156 1.068-4.05 2.747-5.685 4.578-.214.229.07.56.284.33Zm1.998 2.033c1.19-.84 2.43-1.655 3.568-2.571.203-.153-.05-.484-.278-.356-1.215.763-2.38 1.654-3.543 2.494-.253.204 0 .611.253.433Zm.896 2.997c.573-.524 1.167-1.021 1.698-1.65.127-.13-.021-.366-.17-.287-.594.445-1.146 1.02-1.698 1.544-.191.183-.021.576.17.392ZM14.5 53c.667 0 .667-1 0-1s-.667 1 0 1ZM3.428 32.949c1.192-.844 2.501-1.687 3.519-2.667.145-.137-.03-.365-.262-.251-1.309.752-2.472 1.755-3.635 2.667-.174.16.145.41.378.25ZM2.36 30.952c1.564-1.19 3.198-2.335 4.596-3.705.119-.112-.023-.314-.19-.225-1.681 1.056-3.174 2.426-4.69 3.66-.214.158.07.428.284.27Zm-.044-2.976c1.217-.578 2.434-1.155 3.624-1.797.132-.064.027-.214-.132-.171-1.27.513-2.487 1.09-3.704 1.669-.238.128-.026.406.212.299Z" fill="#66462C"/><path d="M16.158 60.983c.608-.27 1.215-.54 1.792-.83.121-.062 0-.186-.122-.145-.607.27-1.184.56-1.791.85-.091.063 0 .187.121.125Zm.145-1.013c.845-.427 1.636-.879 2.454-1.33.738-.428 1.556-.804 2.189-1.357.132-.1 0-.326-.158-.276-.818.276-1.557.779-2.295 1.205-.818.477-1.61.93-2.4 1.457-.212.125-.027.427.21.301Z" fill="#66462C"/><path d="M18.259 57.995c1.808-.338 3.512-1.275 4.7-2.706.13-.182-.077-.39-.258-.234-1.369 1.17-2.84 2.055-4.572 2.576-.232.052-.129.416.13.364Zm.911-2.996c1.356-.141 3.18-.705 3.806-1.753.104-.18-.156-.322-.339-.2-.547.342-.964.764-1.564 1.047a7.76 7.76 0 0 1-1.929.624c-.209.04-.182.302.026.282Z" fill="#66462C"/><path d="M21.313 53.964a52.308 52.308 0 0 0 1.918-1.306c.586-.417 1.195-.783 1.714-1.305.135-.13 0-.418-.18-.34-1.309.6-2.527 1.645-3.677 2.507-.203.209-.023.6.225.444Zm1.023-2.004c.637-.433 1.274-.866 1.911-1.324.57-.408 1.206-.79 1.707-1.298.114-.128 0-.382-.16-.331-.636.28-1.205.738-1.797 1.145-.637.433-1.274.891-1.888 1.35-.25.178-.023.636.227.458Zm2.064-3c.785-.428 1.597-.856 2.383-1.31.735-.403 1.496-.78 2.155-1.31.152-.126 0-.403-.203-.327-.786.277-1.521.756-2.256 1.159-.787.428-1.573.881-2.359 1.335-.279.176-.025.63.28.453Zm1.976-2.011c.644-.435 1.263-.87 1.907-1.33.567-.41 1.237-.793 1.675-1.33.104-.128 0-.332-.154-.281-.644.23-1.237.716-1.804 1.125-.619.46-1.263.895-1.882 1.355-.283.205 0 .665.258.46Zm.949-2.957c.837-.184 1.597-.869 1.674-1.79.025-.185-.28-.29-.355-.106-.28.685-.736 1.211-1.471 1.37-.304.078-.178.605.152.526Zm2.956-3.022c.226-.185.452-.397.661-.582.122-.105.035-.475-.104-.37a8.53 8.53 0 0 0-.748.502c-.209.106-.017.608.191.45Zm6.018-12.993c.65-.288 1.273-.575 1.923-.863.571-.267 1.221-.492 1.715-.842.156-.102 0-.308-.208-.267-.624.165-1.196.514-1.767.78l-1.871.925c-.208.103-.026.37.208.267Zm1.076-3.002c1.227-.499 2.484-1.06 3.562-1.726.18-.124-.06-.312-.27-.228-1.287.457-2.484 1.08-3.592 1.705-.21.104.06.353.3.25Zm.013-1.015c.841-.48 1.836-.936 2.55-1.594.153-.126 0-.43-.204-.354-.918.329-1.785.987-2.601 1.492-.306.178-.026.633.255.456Zm1.009-1.995c1.22-.555 2.41-1.09 3.54-1.727.178-.102-.06-.287-.238-.226-1.25.494-2.41 1.048-3.57 1.603-.297.165-.03.493.268.35Zm.027-1.011c.63-.45 1.29-.901 1.92-1.378.57-.398 1.2-.822 1.62-1.352.12-.133-.09-.265-.24-.212-.66.265-1.23.795-1.8 1.193-.63.477-1.23.954-1.86 1.431-.21.186.15.477.36.318Zm-.034-1.991c1.17-.549 2.513-1.034 3.536-1.71.204-.127-.058-.317-.263-.232-1.227.401-2.396 1.098-3.536 1.626-.292.126-.029.464.263.316Zm1.027-1.031c.863-.82 1.8-1.639 2.54-2.595.124-.163-.048-.437-.196-.3-.963.737-1.801 1.639-2.69 2.512-.221.246.124.601.346.383Zm.944-2.962c.541-.25 1.163-.462 1.596-.782.108-.07 0-.23-.163-.177-.595.16-1.135.443-1.676.692-.27.106-.027.39.243.266Zm-.081-1.016c.236-.236.472-.49.69-.762.09-.109-.037-.254-.164-.164a9.013 9.013 0 0 0-.76.69c-.145.146.09.382.235.236Z" fill="#66462C"/><path d="M39.587 14.7c-.44.026-.209-.593-.07-.816.186-.297.534-.42.813-.619.37-.247.765-.643.65-1.163-.024-.148-.21-.123-.256 0-.255.891-1.392.842-1.67 1.733-.14.445-.024 1.212.556 1.163.163 0 .163-.297-.023-.297Zm-.259-2.753c.547-.577 1.152-1.153 1.641-1.787.087-.087-.028-.202-.115-.145-.633.49-1.21 1.096-1.785 1.643-.202.173.086.462.26.289Zm.408-1.914c-.137.104-.256.208-.393.313-.12.104-.257.156-.326.338-.05.13.018.313.12.313.137.026.257-.13.377-.208.137-.105.256-.209.393-.287.206-.183.035-.626-.17-.47ZM16.053 15.99c.078-.074.131-.173.184-.272.079.05.236.05.289-.025.473-.543.973-1.037 1.578-1.433.578-.37 1.235-.568 1.814-.939.131-.099.105-.321-.08-.321-1.445.099-2.865 1.384-3.68 2.397-.053.074-.027.222.026.272-.079.098-.131.197-.184.296l.053.025Z" fill="#66462C"/><path d="M16.286 14.942c1.037-1.184 2.291-1.924 3.642-2.688.145-.074.049-.296-.096-.247-1.496.395-2.798 1.48-3.787 2.663-.145.198.096.444.24.272Zm-1.026 1.033c1.22-.518 2.678-.995 3.686-1.741.132-.083 0-.27-.16-.228-1.299.352-2.545 1.12-3.686 1.72-.212.104-.053.353.16.25Zm-1.936 2.967c.545-.567 1.137-1.109 1.778-1.547.592-.413 1.256-.722 1.849-1.16.095-.078.047-.258-.095-.232-1.423.283-2.798 1.547-3.793 2.655-.19.181.095.465.26.284Zm-.051 2.041c.654-.308 1.307-.594 1.961-.902.584-.264 1.238-.506 1.728-.902.093-.066 0-.199-.117-.177-.63.133-1.237.485-1.821.77l-1.961.925c-.164.088.023.374.21.286Zm-.04.875c1.026-.498 2.051-.972 3.054-1.495l-.205-.298c-.934 1.02-1.937 1.967-2.94 2.888-.137.125.045.324.182.25.844-.424 1.732-.847 2.508-1.37-.046-.075-.092-.175-.137-.25-.82.499-1.368 1.196-1.733 2.117-.045.1.023.25.137.2.57-.25 1.163-.523 1.732-.772-.045-.05-.068-.125-.114-.175a7.73 7.73 0 0 1-1.777 2.391c-.114.1.022.274.136.2.89-.474 1.755-.972 2.667-1.445l-.114-.125c-.456.723-.934 1.445-1.367 2.192-.069.124.068.249.16.199.295-.15.592-.299.888-.448.32-.175.638-.498.342.05a47.845 47.845 0 0 0-.98 1.892c-.046.1.091.2.16.1.41-.797.774-1.619 1.162-2.44.023-.05-.023-.1-.068-.075-.547.224-1.095.448-1.619.672.046.075.091.125.137.2.456-.723.866-1.495 1.276-2.242.046-.075-.045-.15-.114-.125-.889.474-1.8.897-2.69 1.37.046.075.092.125.138.2.729-.723 1.299-1.545 1.8-2.466.046-.075-.022-.2-.114-.174-.57.249-1.162.498-1.732.747l.16.174a3.349 3.349 0 0 1 1.664-1.967c.136-.075.022-.324-.115-.25-.888.35-1.732.872-2.552 1.345.068.075.114.175.182.25.957-.997 1.937-1.968 2.986-2.864.16-.15-.046-.374-.205-.3-1.026.474-2.029 1.022-3.032 1.545-.205.1-.045.373.137.299Zm.961 37.12c1.929-1.234 3.906-2.42 5.762-3.773.096-.07.024-.26-.12-.19-2.002 1.14-3.882 2.444-5.787 3.726-.12.095 0 .332.145.237Zm2.033-5.001a297.62 297.62 0 0 0 3.477-2.37c1.066-.758 2.284-1.467 3.249-2.347.127-.122-.026-.317-.178-.244-1.193.636-2.284 1.54-3.376 2.297-1.117.782-2.208 1.59-3.325 2.396-.177.122 0 .366.152.268Zm3.062-4.004c2.223-1.161 4.573-2.3 6.643-3.698.153-.118.025-.332-.154-.26-2.325 1.019-4.522 2.37-6.693 3.627-.205.142 0 .45.204.331Zm3.048-3.003c1.764-.991 3.339-2.258 4.632-3.779.094-.115-.047-.253-.164-.16a37.21 37.21 0 0 1-4.703 3.547c-.235.161-.024.53.235.392Zm.973-3.003c1.558-.9 3.115-1.754 4.62-2.721.156-.09.026-.315-.155-.225-1.61.832-3.141 1.732-4.673 2.631-.233.135-.026.45.208.315Zm1.985-2.005c1.226-.876 2.476-1.675 3.633-2.655.162-.129.024-.386-.162-.283-1.272.747-2.476 1.701-3.68 2.577-.208.155 0 .516.209.361Zm1.005-3.989c1.552-.915 3.221-1.752 4.656-2.803.118-.078-.023-.214-.164-.156-1.647.76-3.176 1.771-4.704 2.667-.212.117 0 .409.211.292Zm1.007-3.023c1.584-1.216 3.168-2.407 4.66-3.742.092-.095-.023-.262-.138-.19-1.63 1.096-3.168 2.335-4.729 3.55-.23.168-.023.573.207.382Zm4.198-4.016c1.157-.842 2.551-1.685 3.47-2.738.09-.105-.088-.237-.207-.184-1.335.605-2.521 1.711-3.678 2.554-.267.237.118.579.415.368Zm-.24-1.96c1.223-.9 2.583-1.704 3.693-2.745.113-.095-.023-.284-.159-.213-1.314.71-2.515 1.75-3.738 2.626-.159.142.023.45.204.332Zm1.964-2.007c.587-.553 1.196-1.107 1.74-1.715.087-.111-.022-.332-.153-.222-.608.498-1.174 1.08-1.74 1.633-.173.11-.02.442.153.304Zm1.071-3.024c.21-.248.419-.497.663-.746.105-.107-.035-.249-.174-.178-.245.213-.489.427-.733.676-.175.142.104.426.244.248Zm2.44-4.785c.222 0 .222-.342 0-.342-.221 0-.221.342 0 .342Z" fill="#66462C"/></svg>