<svg width="177" height="140" fill="none" xmlns="http://www.w3.org/2000/svg"><path d="M53.331 94.114c-.005-.002-.01-.005-.025-.004-.027.016 0 0 .026.004Zm78.951-22.706-.006.097.005.003c.002-.033-.001-.067.001-.1Zm-.009-.074c-.002.005-.001.016 0 0Zm-2.699-1.038s.011-.01.019-.013c-.006-.003-.008-.01-.017-.021-.005.012-.002.02-.002.034Zm-3.159 18.406c-.003-.035.005-.066.007-.098l-.048-.02c.021.022.043.058.039.124l.002-.006ZM45.862 29.785l.006-.012s-.006-.003-.003.006l-.003.006Zm-.797-.695s0-.016-.003-.025c0 0-.006.013-.012.01l.024.01-.009.005Zm59.651 43.515s-.014-.006-.026-.005l.015.031.014-.031-.003.005Zm34.978-11.217s-.014.002-.026.012l.026-.012Zm-93.83-31.605s.011.018.036.05c.005-.012.005-.026.007-.032-.024-.003-.035-.008-.037-.016l-.006-.002Zm6.906 11.775s-.024-.07-.027-.105c.003.035.02.068.03.1l-.002.005Z" fill="#66462C" fill-opacity=".1"/><path d="M153.324 87.984c.821-1.63 1.13-3.318 1.515-4.994.216-.942.405-1.916.112-2.807-.267-.817.09-1.69.168-2.523.068-.704.25-1.426-.209-1.933-.482-.536-.632-1.14-.579-1.863.015-.204-.092-.401-.159-.594-.241-.743-.626-1.443-.53-2.289.06-.554.152-1.115.003-1.629-.424-1.442-.961-2.816-1.909-3.99-.763-.952-1.449-1.929-1.492-3.284-.02-.575-.191-1.155-.39-1.715-.395-1.099-1.044-2.08-1.352-3.2-.313-1.148-1.185-1.832-1.935-2.613-.784-.813-1.614-1.589-2.275-2.504-1.19-1.65-2.554-3.161-4.203-4.395-1.348-1.008-2.688-2.006-3.938-3.113-.89-.788-1.885-1.472-3.047-1.944-.3-.124-.551-.33-.788-.554-.838-.798-1.845-1.442-2.534-2.389a.967.967 0 0 0-.492-.368c-.441-.125-.728-.421-1.005-.701a2.75 2.75 0 0 0-1.295-.77c-1.06-.264-1.981-.784-3.043-1.043-.369-.089-.717-.277-1.038-.511-.665-.484-1.403-.871-2.056-1.382-.681-.53-1.678-.38-2.541-.474-.428-.05-.862-.165-1.323-.087-2.031.341-4.042.334-6.066.634-.476.07-.676-.063-.826-.468-.492-1.318-1.525-2.247-2.549-3.147-1.204-1.05-2.536-1.975-4.055-2.652-.165-.068-.316-.22-.247-.426.318-.933-.285-1.41-.941-1.662a2.226 2.226 0 0 1-1.21-1.078c-.303-.578-.749-.863-1.414-.94-.304-.036-.546-.104-.57-.445-.042-.578-.468-.843-.963-1.047-.58-.238-1.022-.625-1.172-1.228-.102-.405-.376-.6-.726-.809-.579-.346-1.177-.676-1.55-1.269a1.715 1.715 0 0 0-1.43-.825c-.99-.026-1.853-.33-2.683-.698-.395-.176-.816-.228-1.27-.256-.565-.036-1.156 0-1.688-.2-1.117-.415-2.25-.78-3.61-.309-.31.108-.648.058-.964.01-1.35-.212-2.719-.171-4.144.273-1.18.373-2.37.845-3.599.76-.08-.008-.182.09-.276.114-.848.186-1.66.545-2.474.853-.88.338-1.78.521-2.605.302-1.42-.375-2.857-.075-4.29.385-1.564.502-3.111 1.1-4.724 1.142-1.187.033-2.414.247-3.527-.072-.377-.11-.734-.277-1.128-.376-.556-.133-1.138-.182-1.727.034-1.142.42-2.352.438-3.478.993-.138.07-.323.033-.484.075-1.298.318-2.545.472-3.722 1.535a20.32 20.32 0 0 1-4.381 3.003 4.34 4.34 0 0 0-.921.652 75.78 75.78 0 0 0-2.572 2.469c-1.312 1.338-2.747 2.517-4.38 3.475-.207.118-.422.227-.558.438-.653 1.005-1.597 1.737-2.59 2.417-.616.421-1.021.942-1.256 1.622-.376 1.087-.392 2.15-.346 3.195.1 2.404.275 4.795.43 7.19.023.36.06.725.174 1.052.496 1.44 1.014 2.87 1.404 4.362.07.265.242.463.365.692.336.622 1.066.949 1.333 1.594.267.632.668 1.148 1.078 1.673.554.706.952 1.546 1.535 2.213.742.853.964 2.218 2.435 2.424.077.012.145.098.196.17.332.474.784.864.961 1.447.114.365.3.703.587.961.596.532 1.014 1.195 1.475 1.831.279.382.365.743.215 1.248-.178.608-.264 1.235.093 1.758.1.149.17.319.037.512-.32.46-.192.755.236.963.21.1.21.336.31.51.46.782.408 1.716.502 2.602.17 1.573.262 3.159.222 4.779-.03 1.211-.093 2.446.404 3.542.072.157.094.345.109.523.105 1.177.445 2.253 1.049 3.228.292.47.435.995.327 1.619-.118.671-.045 1.338.125 1.962.125.46.169.93.233 1.408.152 1.177.29 2.361 1.173 3.229.302.303.509.713.5 1.193-.008.347.13.646.325.898.73.932 1.288 1.945 1.55 3.13.034.16.168.324.316.404.57.311.915.81 1.282 1.299.207.276.4.624.708.757.682.3.949.894 1.15 1.486.378 1.111 1.195 1.811 2.157 2.412.255.156.474.341.693.54.543.491 1.133.919 1.925 1.08.528.103.983.291 1.272.754.297.485.8.75 1.428.843.74.107 1.345.408 1.716 1.019.282.467.726.809 1.281.891 1.09.157 1.952.626 2.718 1.267.769.635 1.72 1.078 2.463 1.716.646.553 1.231.832 2.208.49.653-.228 1.3-.191 1.74.321.188.225.469.366.812.367.775.001 1.481.21 2.143.45.482.18 1.036.224 1.453.523 1.362.975 3.105 1.235 4.791 1.529.885.154 1.58.53 2.175.998.46.362.938.616 1.501.746 1.242.296 2.48.583 3.623 1.086 1.02.446 2.181.498 3.318.616.346.034.65-.114.961-.254.818-.37 1.637-.637 2.498-.563.45.04.904-.047 1.364-.189.383-.116.804-.286 1.164-.259 1.02.09 2.008-.185 2.988-.545.573-.21 1.189-.262 1.719-.61.988-.657 2.094-.971 3.162-1.41a7.47 7.47 0 0 0 1.83-1.068c.694-.542 1.492-1.053 2.401-1.271 1.306-.309 2.566-.847 3.735-1.524 1.832-1.06 3.665-2.107 5.587-2.971.2-.089.33-.221.457-.385.712-.885 1.557-1.594 2.668-1.957.193-.061.353-.192.528-.292 1.253-.719 2.419-1.602 3.797-2.098.304-.11.705-.212.899-.432.795-.901 1.882-1.408 2.799-2.145.239-.188.473-.366.683-.597.703-.774 1.527-1.422 2.56-1.716a7.05 7.05 0 0 0 1.601-.652c.178-.105.416-.16.455-.367.119-.606.543-.667 1.043-.672 1.451-.013 2.834-.64 4.253-1.004 1.003-.256 1.886-.784 2.744-1.309.678-.415 1.453-.637 2.057-1.14 1.001-.829 2.072-1.54 3.187-2.201.113-.068.244-.135.32-.238.941-1.21 2.124-2.277 2.8-3.648.298-.546.692-1.04.97-1.594l-.035-.001Zm-10.197-35.52c-.614-.056-.782-.145-1.35-1.003-.317-.48-1.016-.68-1.03-1.386 1.002.604 1.862 1.328 2.38 2.389ZM101.85 27.712c-.451.107-.675-.106-1.036-.357.569-.147.866-.057 1.036.357ZM41.1 63.472a7.546 7.546 0 0 1-.702-1.167c-.457-.908-1.031-1.687-2.175-1.897a.626.626 0 0 1-.444-.368c-.356-.987-1.391-1.465-1.868-2.38-.306-.598-.871-1.041-1.175-1.67-.238-.486-.52-.966-.905-1.373-1.034-1.088-1.334-2.556-1.797-3.938-.165-.488-.215-1.025-.583-1.431-.149-.17-.194-.411-.19-.645.045-1.51-.262-2.936-.43-4.394-.202-1.7-.413-3.431-.104-5.214.157-.904.648-1.733 1.492-2.373.785-.6 1.633-1.155 2.138-2.016.08-.14.27-.323.42-.394 1.886-.93 3.295-2.444 4.833-3.785.359-.31.695-.65 1.018-.988a12.435 12.435 0 0 1 3.238-2.461c1.069-.573 2.007-1.409 3.001-2.133 1.379-1.011 2.86-1.7 4.488-1.92.32-.04.843-.124 1.158-.218 1.15-.321 2.296-.696 3.465-.66.191.008.392-.017.543.109.817.687 1.947.478 2.993.47.512-.006 1.042-.132 1.554-.112 1.117.046 2.185-.526 3.281-.698 1.089-.182 2.093-.743 3.174-.934.503-.092.985-.136 1.436-.02.98.258 2.041.07 3.058.127a.849.849 0 0 0 .469-.12c.93-.527 1.948-.763 2.917-1.153.556-.223 1.106-.156 1.661-.245 1.082-.179 2.125-.59 3.211-.74.667-.089 1.318-.113 1.921.008.735.144 1.475.066 2.202-.195a2.629 2.629 0 0 1 2.402.322c.434.3.944.312 1.473.308.785-.008 1.53.101 2.195.427.743.363 1.62.413 2.431.613.337.081.67.155.883.421.27.347.641.602 1.007.842.67.448 1.3.892 1.596 1.683.16.423.627.686 1.087.862.342.135.522.355.613.692.17.599.48 1.027 1.3.982.564-.029 1.127.681 1.114 1.198-.005.183-.127.298-.316.31-.127.004-.288.008-.361-.054-.458-.418-1.033-.68-1.584-.984-.222-.124-.323-.4-.497-.593-.699-.792-1.76-1.133-2.71-1.576-1.29-.595-2.665-1.041-4.023-1.524-.934-.334-1.761-.88-2.81-1.024-1.301-.187-2.587-.45-3.904-.578-1.169-.112-2.372-.111-3.564-.106-.48 0-.943.108-1.33.586-.496.617-1.246.69-1.914.701-.884.018-1.753.105-2.637.359-.67.188-1.35.157-2.032.385-1.099.363-2.174.225-3.26.217-1.844-.009-3.68-.167-5.566.1-1.138.162-2.276.4-3.416.618-.077.013-.18.11-.214.186-.063.14.024.252.153.267.184.025.386.025.574-.012 1.435-.281 2.841-.288 4.263-.3.688-.003 1.416-.162 2.094-.074.956.127 1.96-.013 2.908.225.755.19 1.645.054 2.496-.099 1.591-.287 3.168-.802 4.78-.832.852-.012 1.77-.156 2.485-.918.238-.253.638-.273.946-.247.913.077 1.905-.1 2.744.035 1.24.206 2.524.263 3.74.522.46.095.587.408.28.829-.474.645-.948 1.316-1.557 1.842-.803.695-1.497 1.473-2.242 2.21-.724.714-1.435 1.453-2.254 2.077-.2.154-.427.276-.212.511.181.203.35.011.488-.123 1.757-1.645 3.593-3.226 5.195-5.012.448-.497 1.09-.83 1.382-1.455.099-.22.358-.337.556-.236.698.358 1.573.374 2.299.775-.293.561-.82.904-1.29 1.265-.534.41-1.155-.094-1.733.324-.002.069-.035.17-.007.239.326.79.313.779-.364 1.442-.917.909-1.87 1.79-2.825 2.664-.223.207-.556.42-.505.874.786-.313 1.212-.972 1.792-1.433.895-.714 1.83-1.411 2.502-2.313.342-.457.685-.456.944-.216.244.222-.044.402-.21.532-1.364 1.087-2.324 2.538-4.015 3.363-1.146.56-1.973 1.518-2.593 2.581-.34.586-1.154.71-1.426 1.368.263.127.466-.075.654-.215 1.124-.83 2.18-1.731 3.32-2.554 1.288-.928 2.534-2 3.674-3.142.506-.505 1.051-.968 1.582-1.45.171-.158.347-.392.597-.314.866.261 1.907-.29 2.728.162.095.052.254.016.378.029.177.015.394.124.455-.182.044-.217-.094-.345-.303-.367-.538-.056-1.075-.112-1.553-.328-.455-.213-.467-.383-.036-.696.62-.458 1.218-.55 1.935-.445 1.145.167 1.862.653 2.105 1.734.082.359.023.634-.307.803-1.128.574-1.926 1.506-2.812 2.332-.93.87-1.873 1.743-2.703 2.72-.511.598-1.221 1.044-1.687 1.75.717-.277 1.17-.823 1.719-1.24.361-.278.543-.394.834 0 .304.405.731.772 1.451.528.245-.084.403-.013.461.266.17.822.255.831 1.291.303.331 1.162 1.35 1.174 2.476 1.014.412-.06.762.085.695.497-.11.68.36.887.845.928.898.07 1.695.405 2.598.427.392.009.518.15.391.499-.187.509-.089.963-.006 1.437.107.566.572.745 1.031.858.8.196 1.327-.32 1.208-1.095-.025-.17-.159-.32-.039-.519.551.144.904.94.629 1.527-.247.522-.478 1.064-.942 1.503-.378.354-.421.712-.187 1.089.35.564.666.574 1.162-.03a3.6 3.6 0 0 1 .498-.502c.389-.325.711-.344 1.026-.043.186.179.378.373.615.49a.602.602 0 0 0 .729-.108c.206-.208.095-.368-.005-.568-.247-.49-.497-1.002-.23-1.637.101-.238-.023-.41-.127-.587-.152-.254-.223-.493-.001-.841.217-.338.091-.625-.356-.605-.673.034-.934-.334-.874-.877.058-.536-.249-.79-.626-.952-.547-.232-.807-.657-1.036-1.134-.192-.391-.423-.76-.644-1.138-.252-.428-.615-.648-1.127-.866-.95-.391-1.996-.778-2.405-1.819-.167-.42-.533-.685-.939-.89-.743-.376-1.432-.832-2.321-.976-.244-.037-.45-.172-.63-.336-.222-.206-.262-.42-.093-.732.33-.616.841-1.055 1.179-.91 1.067.472 2.392.515 3.291 1.23.769.61 1.779.892 2.51 1.506 1.068.905 2.486 1.413 3.388 2.504.558.67.988 1.44 1.63 2.041.141.135.116.322.158.492.147.634.303.737 1.034.758.064 0 .131-.004.196-.015 1.867-.307 3.711-.286 5.57-.481a6.32 6.32 0 0 1 1.255-.012c.662.07 1.333.13 2.005.151.442.017.856.137 1.113.383.929.886 2.214 1.282 3.316 1.914.961.55 2.132.816 3.216 1.199.414.145.77.342.942.75a.76.76 0 0 0 .508.465c.699.211 1.187.667 1.65 1.151 1.167 1.227 2.635 2.125 4.035 3.096.749.52 1.546 1 2.156 1.673.136.145.304.259.504.328.5.18.953.45 1.168.908.304.642.862 1.126 1.168 1.947-.981-.15-1.649-.52-2.339-.856-.113-.053-.227-.26-.189-.371.21-.627-.308-.764-.656-.952-.629-.342-1.32-.608-1.995-.886-.345-.142-.702-.296-.769-.674-.123-.662-.639-.976-1.192-1.21-.775-.332-1.547-.683-2.324-1.01-1.39-.585-2.77-1.217-3.663-2.432-.301-.411-.779-.627-1.236-.848-.988-.477-1.961-.986-3.213-.916-.596.034-1.128-.166-1.622-.344-.674-.24-1.346-.249-2.077-.11-.156.03-.31.005-.541.005.162-.506.428-1.02-.248-1.216.289-.352.595-.335.866-.331.236.001.45 0 .664-.147.271-.194.272-.448-.003-.561a2.765 2.765 0 0 0-1.307-.189c-1.206.114-2.407.046-3.618.407-.381.11-.698-.014-1.051-.02-.42-.013-.787.09-1.055.464-.168.23-.121 1.154.109 1.3.291.183.607.39 1.053.121.195-.117.419-.273.655-.048-.125.305-.655.405-.616.79.03.331.133.641.328.906.084.118.165.24.216.376.124.306.127.587-.323.759-.4.153-.552.504-.69.824-.188.444.063.809.516.658.952-.314 1.888-.209 2.835-.405.771-.16 1.548-.177 2.288.115.994.384 2.118.44 3.27.342.861-.072 1.686-.063 2.195.663.124.172.544.121.762.256.989.618 2.211.771 3.332 1.138.005-.01.012-.014.022-.023l.03.012c.084-.054.171-.063.241-.021.055.035.026.112-.029.103-.077-.013-.142-.053-.209-.087-.003.005-.015.007-.025.015l-.025-.01c-.245.294-.537.206-.791.152-1.572-.31-3.239-.278-4.849-.451-1.068-.115-2.213.126-3.295-.008a13.496 13.496 0 0 0-1.629-.08c-.704-.002-1.398.12-2.132.606.365.176.686.2 1.003.114 1.117-.31 2.186-.08 3.289-.255.139-.02.284.028.283.16-.002.23-.198.206-.357.217-.546.042-1.095.09-1.691.137.263.325.526.504.983.424 1.713-.294 3.311-.055 4.906.22.356.064.724.088 1.152.137-.112-.543-.655-.295-.941-.464-.24-.137-.607-.11-.931-.129-.224-.016-.531.023-.433-.287.076-.236.393-.283.591-.221.461.145.959.026 1.441.033 1.452.025 2.856.222 4.258.424.54.076 1.035.306 1.624.274.164-.008.323-.007.468-.144.048-.305-.208-.302-.422-.327-.441-.048-.886-.098-1.334-.117-.46-.017-.503-.277-.386-.617.118-.34.373-.605.75-.456.764.303 1.582.525 2.232 1.003.374.276.362.29-.21.653.146.162.346.219.575.25.124.012.305-.008.364.06.56.651 1.369.972 2.145 1.355.315.156.645.292.957.453 1.356.699 2.59 1.551 3.854 2.365.095.065.161.168.3.175.763.027.895.591 1.041 1.136.021.085 0 .184.014.273.081.585-.188.901-.805.948.02.047.026.126.054.13.865.064 1.298.447 1.344 1.319.029.477.414.884.634 1.331.049.103.078.236-.073.32a.424.424 0 0 1-.278.039c-1.054-.276-2.097-.565-3.154-.835-.845-.215-1.642-.524-2.451-.807a2.591 2.591 0 0 0-1.098-.153c-.129.01-.259-.005-.385-.012-1.351-.105-1.674-.85-.887-2.009.181-.27.424-.27.604-.197.854.352 1.893.15 2.758.52.502.212 1.16.159 1.835.08-.305-.125-.588-.3-.912-.37-1.189-.254-2.387-.474-3.585-.706-.152-.031-.312-.059-.437-.136-.195-.118-.272-.303-.139-.547.124-.223.303-.226.505-.175.992.244 2.073.237 3.012.612.23.094.46.176.849-.07-1.15-.303-2.215-.608-3.302-.865-.929-.224-.962-.257-.856-1.219.043-.384.203-1.031-.177-1.041-.587-.013-.372.63-.492.963-.436 1.208-.453.877-3.067.156-.733-.2-1.541-.17-2.345-.107-.576.043-1.079-.247-1.625-.351-1.965-.37-4.044-.291-6.071-.433a.543.543 0 0 0-.288.047c-.296.197-.795-.13-.881.249-.109.452.469.537.787.553.692.043 1.387.183 2.084.12 1.254-.113 2.422.107 3.63.16 1.753.079 3.402.535 5.165.619.726.031 1.367.372 2.151.275.374-.043.326.262.27.519-.07.315-.26.447-.562.341-1.061-.367-2.239-.407-3.355-.612-1.333-.25-2.709-.365-4.061-.546-.513-.072-1.007-.237-1.597-.15.395.374.618.536.872.538 1.198.023 2.248.481 3.421.545 1.087.059 2.083.374 3.164.418.257.01.496.045.614.349-2.271.586-4.466 1.503-6.764 1.543-.644.009-1.296.115-1.945.243-.798.155-1.593.158-2.392.434-1.804.626-3.629.893-5.464 1.035-.447.032-.912-.039-1.335.335.15.246.405.192.663.158.851-.101 1.7-.159 2.538-.138.194.003.43.03.446.234.012.21-.2.326-.405.388-.582.174-1.158.389-1.743.491-.67.12-1.297.21-1.753-.436-.334-.469-1.133-.51-1.708-.773-.14-.058-.346-.06-.412-.164-.52-.794-1.495-.864-2.365-1.09-.514-.135-.832-.533-1.378-.637-.605-.116-1.155-.368-1.724-.577a2.42 2.42 0 0 1-.594-.353c-1.29-1.124-2.909-1.62-4.78-1.646-.065-.001-.132.003-.197.002-.335.021-.75.073-.865.395-.129.367.135.61.541.656.17.019.287.087.278.331-.415.198-.721-.017-1.04-.136-.226-.093-.434-.21-.658-.303-.48-.197-.737-.112-.973.32-.225.422-.164.747.31.853.702.15 1.318.48 2.033.59.231.038.327.115.322.323-.008.876.744 1.033 1.396 1.27.167.063.383.03.56.084.429.126.473.437.063.625-.654.297-.604.949-1.028 1.353-.145.138.049.352.372.306.841-.118 1.674-.195 2.511-.29.161-.016.33-.035.511.116-.65.827-.187 1.273.357 1.841.771.815 1.677.736 2.722.415a6.108 6.108 0 0 1 1.75-.285c.497.001 1.002-.001 1.505-.08.414-.065.44-.189.141-.63.458-.347.916-.603 1.505-.596.314.002.647-.135.972-.224.208-.054.408-.093.518.086.512.823 1.525.705 2.32.491a8.412 8.412 0 0 1 2.598-.285c1.042.04 1.958-.193 2.861-.675.637-.336 1.302-.565 1.947-.866.39-.183.488-.454.205-.667-.329-.244-.729-.275-1.182-.111-.7.253-1.372.575-2.079.818-.772.268-1.477.321-2.354.176.572-.388 1.137-.5 1.575-.841.447-.35.801-.86 1.434-.912.062-.006.149-.04.178-.08.705-1.015 1.778-.82 2.702-1.032.664-.147 1.351-.106 2.086-.121-.258.18-.513.47-.781.525-.572.114-.698.394-.734.856-.027.365-.174.731-.251 1.1-.07.354-.257.704.018 1.04.208.251-.075.657-.051.985.03.395-.151.639-.576.795-.25.094-.276.376-.101.436.661.24.244.788.332 1.251-2.094.232-4.127.458-6.35.701.531-.64 1.246-1.008 1.18-1.704-.026-.285-.03-.618-.394-.679-.164.022-.227.149-.199.205.321.59-.053 1.029-.537 1.46-1.002.886-2.104 1.375-3.492 1.248.397-.555 1.043-.372 1.422-.713.378-.34.931-.597.926-1.178-.255-.106-.312.087-.428.186-.68.58-1.352 1.06-2.313.958-.6-.063-1.28.134-1.918.209-2.124.233-4.076-.221-6.127-.258-.524-.006-1.017-.253-1.501-.428-.742-.273-.735-.29-1.062.544-1.097-.446-2.178-.886-3.16-1.507-.622-.396-1.293-.723-1.806-1.254-.154-.159-.436-.205-.665-.287-.215-.075-.451-.09-.612.15-.14.203-.178.436.008.589.367.304.709.649 1.156.84.66.271 1.205.706 1.782 1.097 1.514 1.032 3.316 1.634 5.158 2.03 1.652.357 3.402.562 5.144.732 1.144.115 2.327-.117 3.452.04.194.03.36-.023.539-.185.705-.645 1.526-.944 2.444-1.088 1.956-.308 3.877-.14 5.836-.493.25-.043.516-.067.772-.019.279.052.466.11.416.446-.034.208.033.414.033.625.001.287-.098.494-.433.687a32.43 32.43 0 0 1-4.215 2.078c-1.51.607-3.018 1.196-4.557 1.72-.267.094-.517.138-.755.033-.17-.07-.364-.112-.502-.213-1.077-.794-2.405-1.093-3.782-1.298-.904-.137-1.797-.193-2.767-.09-.673.074-1.395-.033-2.098-.049-.98-.021-1.957.124-2.93.391-.641.175-1.196.106-1.628-.225-.34-.26-.724-.42-1.114-.58a517.986 517.986 0 0 0-3.967-1.635c-.985-.406-1.933-.867-3.067-.978-1.401-.138-2.321-.912-3.03-1.968-.46-.68-1.08-1.235-1.729-1.757-.417-.338-.558-.721-.416-1.248.059-.224.172-.464-.1-.544-.329-.098-.457.2-.59.418-.358.573-.953 1.066-.836 1.796.05.308.062.586.394.717.275.113.336.202.19.593-.202.529-.424 1.1-.386 1.676.091 1.47.108 2.949.227 4.412.086 1.048-.084 2.112-.157 3.17-.018.292-.013.53.191.735.349-.143.437-.431.4-.625-.15-.71.057-1.46.07-2.187.02-1.113-.079-2.21-.078-3.427.447.14.633.503 1.07.505.302.003.253.308.237.569-.141 2.292.05 4.542.045 6.82 0 .039.066.066.106.095l.007-.016.008.022s-.008-.022-.003-.02c.005.002.008.01.01.017.418-.389.24-.838.2-1.185-.088-.725.034-1.458.02-2.177-.017-.663.046-1.33-.08-1.987-.105-.528.055-1.137.095-1.713.97.094 1.026.13 1.036.898.01.717.09 1.42-.041 2.346.419-.445.605-.623.977-.342.472.36.804.713.825 1.353.027.928.246 1.84.17 2.77-.052.685.068 1.353-.06 2.02-.434.19-.517-.245-.859-.17-.159.037-.337-.12-.51-.184-.356-.128-.222-.493-.32-.75-.313.565-.585.141-.864.09-.562-.092-.366-.66-.574-.976l-.015-.006c-.4.587-.417.573-.85.35a27.932 27.932 0 0 1-4.54-2.921 14.281 14.281 0 0 1-1.491-1.386c-.774-.822-1.668-1.547-2.208-2.56a.28.28 0 0 0-.238-.142c-.732-.073-1.309-.476-2.053-.547-.985-.088-1.777-.63-2.725-.843a6.03 6.03 0 0 1-2.701-1.343c-.354-.305-.943-.445-1.468-.49-1.477-.112-2.826-.604-4.322-.66-1.37-.05-2.603-.417-3.44-1.4a1.836 1.836 0 0 0-1.585-.652c-.474.04-.955-.024-1.23-.4-.911-1.215-2.268-1.832-3.816-2.184-.554-.126-.865-.356-.873-1.01-.014-.813-.543-1.388-1.276-1.773-.608-.321-1.175-.695-1.785-1.01-1.189-.61-2.042-1.586-3.083-2.353-.374-.275-.653-.537-.642-1.023.293-.166.55-.091.806-.133.089-.014.174.021.263.033-.379.843.995.581.82 1.338-.058.25.222.429.531.295.245-.11.437-.062.66-.06.458.011.723.12.61.634-.042.2.06.407.12.604.057.189.208.328.423.206.32-.174.624-.15.944-.203.799-.13.8-.16.936.5.088.438-.063 1.025.758.95.283-.024.27.347.318.57.1.436.265.702.743.943.478.242 1.025.607 1.33 1.14.158.282.359.652.892.216.21-.175.344.052.46.163.508.477 1.009.958 1.5 1.447.096.09.181.163.31.076.117-.078.183-.224.134-.34a5.15 5.15 0 0 0-.755-1.26c-.636-.784-1.248-1.584-1.73-2.477-.252-.467-.339-.999-.517-1.5-.423-1.167-1.198-2.117-1.82-3.157-.6-.999-1.128-2.012-1.5-3.134-.236-.715-.75-1.258-1.657-1.428-.89-.17-1.752-.41-2.67-.502-.568-.056-1.069.044-1.611.355-1.423.821-1.434.804-1.18 2.19.011.055-.023.117-.039.193-.31.044-.437-.161-.556-.344-.655-1.034-1.572-1.839-2.47-2.661-.42-.384-.673-.863-.933-1.353-.614-1.164-.716-2.454-.535-3.819.174-1.31.21-2.614.637-3.922.153-.46.341-.891.791-1.221.475-.346.697-.35.857.11.201.58.403 1.16.597 1.743.383 1.139.8 2.267 1.104 3.436.076.305-.086.691.243.96.456-.328.287-.716.235-1.05-.32-1.965-1.034-3.788-1.566-5.676-.117-.425-.302-.844.334-1.245.617.828.916 1.824 1.163 2.804.31 1.236.967 2.303 1.237 3.561.151.693.552 1.33.641 2.08.02.167.121.298.3.257.265-.063.284-.304.22-.451-.172-.409-.22-.855-.347-1.27-.606-1.989-1.27-3.95-1.92-5.919-.176-.53-.362-1.053-.525-1.586-.115-.378.272-1.238.67-1.52.19-.131.333-.053.36.11.311 1.944 1.315 3.638 1.493 5.629.032.35.145.677.375.931.203-.07.246-.192.224-.315-.253-1.308-.425-2.64-.799-3.903-.231-.776-.404-1.593-.771-2.33-.317-.627-.3-.742.377-1.131.716-.406 1.388-.874 2.078-1.316.316-.2.542-.178.787-.051.182-.537.591-.763 1.135-.787.423-.017.837-.069 1.259-.296.56 1.27.864 2.585 1.063 3.935.259 1.73.478 3.47.792 5.186.067.365-.15.715-.014 1.07.188.492.408.595.926.286.089-.052.163-.124.231-.197.201-.21.504-.398.682-.267.246.178-.044.415-.2.63-.418.561-.336.894.249 1.135.085.035.189.027.271.068.48.223.471.468-.068.812a1.105 1.105 0 0 0-.446.517c-.229.536.099.9.684.785.736-.149.69-.124.975.478.338.7.6 1.445 1.155 2.018.149.157.275.31.554.164.225-.117.409-.277.4-.522a9.748 9.748 0 0 0-.063-.9c-.028-.24.039-.442.306-.536.311-.113.384.082.431.306.061.286.181.558-.065.87-.181.232-.241.564-.039.68.491.278.648.878 1.21 1.064.222.073.231.223.266.397.064.319.145.64.25.944.466 1.338 1.204 1.725 2.834 1.499.397-.053.917.384.882.752-.092.968-.496 1.21-1.337.786-.237-.117-.475-.246-.598-.5-.12-.26-.395-.361-.676-.394-.423-.047-.804-.134-1.086-.416-.114-.117-.275-.113-.446-.088-.14.019-.263.07-.346.188-.114.163-.045.3.03.42.026.05.086.087.144.104 1.232.342 2.11 1.22 3.292 1.637.389.135.712.3.97.597.209.233.494.414.772.586.283.174.596.348.707.642.438 1.136 1.68 1.444 2.521 2.154a.512.512 0 0 0 .587.025c.66-.39.776.103 1.05.432.4.504 1.08.707 1.592 1.11 1.203.934 2.584 1.656 3.755 2.636.173.141.43.215.67.276.259.068.438-.106.547-.335.125-.254.032-.375-.223-.468-1.218-.438-2.192-1.183-3.112-1.996-.37-.324-.765-.659-1.232-.858-.81-.333-1.09-1.092-1.603-1.666-.158-.174-.022-.398.117-.602.305-.454.306-.893.159-1.33-.101-.302-.123-.623-.11-.968a3.547 3.547 0 0 0-.595-2.17c-.712-1.05-.993-2.35-1.846-3.327-.33-.384-.695-.732-1.194-.874-1.108-.316-1.847-.978-2.509-1.811-.371-.465-.832-.89-1.27-1.313-.231-.223-.502-.411-.534-.775-.006-.078-.048-.197-.115-.219-1.146-.39-1.464-1.527-2.268-2.215-.063-.058-.171-.134-.16-.2.151-.822-.535-.863-1.065-1.12-.508-.241-.904-.653-1.343-.993-.043-.037-.049-.116-.096-.142-1.295-.756-1.323-2.144-1.643-3.435-.423-1.709-.747-3.466-1.51-5.049-.149-.303-.117-.506.261-.662.252-.1.502-.208.762-.285.44-.137.72-.022.796.443.232 1.395.568 2.769 1.37 3.896.66.92.906 2.073 1.295 3.144.162.443.337.885.517 1.34.342-.234.203-.45.126-.61-.268-.524-.449-1.07-.388-1.707.028-.313-.213-.54-.296-.817-.556-1.795-1.086-3.594-1.642-5.39-.124-.407-.154-.764.384-1.026a.346.346 0 0 0 .133-.149c.166-.37.668-.724.407-1.106-.273-.405-.759-.09-1.157.033-.968.295-1.928.613-2.893.916-.297.094-.604.17-.753-.145-.135-.304-.226-.59.187-.904.296-.222.535-.518.775-.802.113-.131.105-.313-.052-.397-.115-.06-.24-.01-.355.09-.545.463-1.074.914-1.725 1.257-.479.248-.845.352-1.292.2-.612-.208-1.192-.09-1.873.215-1.787.811-3.37 1.872-4.945 3.095-.698.54-1.46.997-2.192 1.492-.926.624-1.377 1.496-1.752 2.437-.32.804-.607 1.615-.792 2.475.46.07.675-.817 1.236-.312-.512.783-.867 1.72-1.867 2.27-.3.168-.397.409-.525.68-.53 1.1-.609 2.24-.865 3.364-.515 2.227-.357 4.394-.068 6.519.154 1.146.754 2.145 1.178 3.192.118.291.325.542.337.885-.534.028-.633-.478-1.018-.675-.127.35-.024.608.1.806.408.633.444 1.45.954 2.03.161.18.131.55.588.338.045-.02.178.066.208.13.28.657.919 1.054 1.228 1.684.089.184.169.389.317.52.636.574.969 1.284.956 2.183-.002.254.054.551.472.532.12-.332-.222-.626.11-.986.415.094.64.41.816.731.272.5.67.881 1.141 1.19 1.028.679 1.897 1.54 3.138 1.994.669.25 1.193.823 1.754 1.29.98.811 1.987 1.628 3.37 1.924.788.172 1.541.444 2.348.573.77.12 1.349.466 1.69 1.053.6 1.024 1.738 1.258 2.82 1.59.902.275 1.926.302 2.638.946.118.106.357.192.52.145.68-.192 1.185.144 1.763.23.757.108 1.15.71 1.609 1.178.912.937 1.908 1.672 3.398 1.822 1.585.162 2.976.8 4.358 1.4.57.248 1.196.29 1.76.51 1.285.49 2.534.98 3.356 2.09.782 1.054 1.863 1.812 3.267 2.18.962.257 1.718.843 2.471 1.408.093.07.18.15.264.23.116.11.25.166.418.032.174-.139.13-.265.037-.4a2.417 2.417 0 0 0-.852-.752c-1.066-.54-2.03-1.218-3.137-1.706-1.152-.507-2.02-1.368-2.58-2.51.399.26.822.492 1.186.788.703.583 1.529 1.013 2.32 1.48.484.281 1.027.416 1.65.086.39-.208.632-.076.834.16 1.123 1.31 2.555 2.276 4.094 3.133.413.228.773.522 1.112.834 1.18 1.091 2.684 1.724 4.16 2.422 1.358.642 2.883.965 4.282 1.516 1.016.4 2.102.606 3.141.932.83.26 1.611.46 2.605.105.557-.197 1.217-.046 1.812.002.358.033.706.01 1.068-.044.523-.07 1.034-.14 1.543-.02.321.075.729.078 1.06-.04.851-.3 1.681-.104 2.523-.381.433-.147.872-.004 1.197.156 1.065.515 2.202.793 3.444.916.829.08 1.611.237 2.474-.076a.963.963 0 0 1 .669.015c.659.246 1.366.174 2.088.058.662-.103 1.259.124 1.9.082 1.467-.102 2.941-.272 4.408-.4.352-.032.924-.026 1.274-.028 1.064.005 2.152-.177 3.144-.577 1.04-.418 2.138-1.03 2.67-2.16.116-.258.39-.368.637-.483 1.2-.575 2.304-1.318 3.377-2.099.327-.24.708-.402 1.063-.6 1.049-.593 1.744-1.376 1.794-2.515.016-.458.353-.867.497-1.317.465-1.433.964-2.845.905-4.296-.001-.09.012-.186.023-.277.018-.158.063-.324.226-.41.257-.136.312.097.44.194.51.382.363.933-.147 1.698-.331.5-.355 1.095-.042 1.517.484.652.52 1.52.637 2.314a.24.24 0 0 1-.004.074c-.386 1.586-1.144 2.968-1.895 4.378-.607 1.139-1.588 1.874-2.789 2.385-1.201.512-2.414 1.248-3.593 1.934-1.186.689-2.459 1.228-3.701 1.818-.588.28-1.175.426-1.808.28-.818-.184-1.752.049-2.558-.226-.132-.048-.32.002-.487.029-.875.142-1.736.411-2.617.513-.238.03-.565.098-.601.428l.01.004c.013.011-.006.054-.013.083.332-.213.675-.224 1.04-.246 1.43-.086 2.754.199 4.205.383-.429.48-.893.339-1.276.467-2.106.706-4.231 1.27-6.398 1.453-.948.08-1.896.2-2.814.12-.669-.053-1.345.133-2.021.135-1.088.01-2.175-.036-3.277.044-.221.017-.53-.046-.558.254-.017.223.279.262.515.264.935-.01 1.869-.007 2.808-.04 1.257-.043 2.501.062 3.782-.168.154-.025.368-.014.454.072.491.502 1.156.248 1.781.123 1.886-.375 3.749-.951 5.632-1.385 1.157-.268 2.345-.499 3.497-.941.677-.256 1.415-.315 2.106-.457.139.191-.082.355-.06.517 1.006-.579 2.031-1.08 3.163-1.11.065.332-.138.44-.355.567-1.06.62-2.234.9-3.338 1.3a36.966 36.966 0 0 1-5.618 1.562c-.912.172-1.872.477-2.725 1.017.589-.044 1.165.098 1.77-.194.205-.1.369.088.273.195-.438.489.085.577.249.778-.105.18-.253.233-.368.212-.416-.076-.756-.268-1.288-.124-.436.114-.959.05-1.439.05-2.524.005-4.973-.279-7.434-.522-.652-.065-1.347.018-1.928-.285-.044-.019-.165.065-.247.102-.045.325.416.222.417.496-.394.297-.824.253-1.246.283-.552.04-1.105.086-1.652.09-.226.002-.343.132-.486.239.98.232 2.018.03 3.045-.095.882-.777 1.66-.227 2.463-.157.722.068 1.415.24 2.234.38-.79.387-1.423.4-2.119.578-1.357.345-2.727.468-4.084.495-2.676.05-5.342.04-7.798-.781-.954-.317-1.999-.455-2.989-.704-2.342-.589-4.683-1.178-6.83-2.356.588-.254 1.061.036 1.559-.096.058-.34-.193-.335-.398-.368-1.31-.196-2.544-.584-3.803-.892a6.902 6.902 0 0 1-1.714-.681 14.888 14.888 0 0 0-2.021-.973c-.982-.386-1.825-.829-2.33-1.776-.42-.778-1.24-1.3-1.965-1.848-.88-.662-1.911-1.15-2.868-1.723-1.212-.73-2.866-.978-4.187-1.267-.877-.196-1.792-.268-2.698-.387a3.17 3.17 0 0 1-1.281-.483c-.943-.58-2.014-.964-3.04-1.406-.04-.017-.117.035-.231.064.044.375.349.475.649.612 1.12.5 2.24 1.012 3.06 1.955-.146.061-.269.15-.316.124-.644-.335-1.424-.376-2.078-.728-.738-.4-1.632-.559-2.555-.43-.543.076-1.095.09-1.647.188a3.341 3.341 0 0 1-2.207-.336 184.098 184.098 0 0 1-4.228-2.335c-.47-.27-1.04-.308-1.538-.545-.937-.444-1.654-1.038-2.312-1.8-1.148-1.333-2.713-2.176-4.788-2-1.328.11-2.367-.332-3.308-.968-.652-.447-1.289-.9-2-1.282-.53-.283-.933-.704-1.27-1.18-.337-.477-.75-.85-1.312-1.063-.317-.124-.604-.275-.777-.563-.14-.229-.321-.406-.63-.457a.575.575 0 0 1-.424-.308c-.937-1.857-2.508-3.237-3.74-4.872l.013.05Zm51.567-38.43c-.36.26-.744.483-1.127.701-.239.137-.458.085-.604-.077-.152-.165.01-.34.095-.464.238-.252.444-.473.655-.692.434-.452.634-.49 1.043-.2.324.228.322.457-.06.726l-.002.006Zm2.646 4.88c-.036-.117-.008-.271.133-.308.406-.113.526.172.754.444-.465.19-.765.226-.887-.136Zm1.155 1.82c-.617-.076-1.17.282-1.737.175.584-.733.904-.773 1.737-.175Zm1.388 1.432c.085.035.096.116.055.207-.073.084-.153.09-.213.027-.033-.033-.054-.092-.04-.137.029-.103.115-.138.206-.1l-.008.003Zm1.39 1.044a375.15 375.15 0 0 1 1.819-.435c.337-.078.599-.014.588.35-.013.333-.385.702-.687.673-.621-.052-1.248-.107-1.712-.591l-.008.003Zm4.315 4.186c.102-.174.29-.065.408.002.195.106.272.278.175.506-.122.128-.254.118-.347.06-.19-.129-.394-.295-.231-.566l-.005-.002Zm17.52 3.45c-.168.244-.343.305-.519.194-.12-.075-.072-.208.018-.317.125-.146.279-.33.472-.232.145.072.093.255.029.356Zm22.83 31.435c-.574-.396-1.109-.062-1.508.417-.925 1.096-1.935 2.132-2.456 3.49-.515 1.33-1.619 2.339-2.896 3.163-.409.265-.869.26-1.3.534-.747.476-1.542.862-2.174 1.505-.317.322-.737.295-1.132.33-.682.056-1.338-.067-2.044.056-1.242.207-2.466.505-3.644 1.045-.41.188-.839.26-1.25.198a9.37 9.37 0 0 0-3.094.03c-1.071.196-1.996-.077-2.929-.308-1.064-.267-2.759-.793-3.806-1.098a8.811 8.811 0 0 0-3.198-.305c-.973.083-1.95.24-2.92.172-.714-.046-1.391.408-2.08.754.681.16 1.41-.145 2.101-.128.698.014 1.424-.139 2.138.054-.379.092-.775.26-1.142.261-1.263.015-2.54.393-3.802.408a9.818 9.818 0 0 1-1.998-.18c-1.039-.206-2.115-.356-3.045-.803-.908-.432-1.92-.645-2.868-.985-1.124-.4-2.028-1.142-3.166-1.521-.33-.11-.246-.363.125-.503.12-.046.26-.04.39-.247-.306-.349-1.243-.36-.79-1.262l4.097 1.69c.11.044.228.087.352.1a.33.33 0 0 0 .336-.168c.063-.127.049-.254-.069-.321-.368-.21-.8-.33-1.087-.652-.472-.545-1.04-1.008-1.783-1.2-1.289-.334-1.936-.237-2.08-.92-.22-1.053-.065-2.161-.094-3.243-.017-.517.396-.856.922-.748.697.148 1.383.335 2.171.176.318-.06.647-.001.957.031.2.018.362.117.338.343-.03.293-.037.57.263.694.389.161.749.494 1.205.415 1.302-.235 2.498.214 3.777-.062 1.048-.224 2.057-.018 3.097-.303.181-.046.378.029.57.038.865.05 1.726.15 2.591-.404.234-.151.518-.11.779-.137.164-.022.355-.039.394-.232.049-.241-.138-.3-.344-.302-.288-.004-.582.003-.872.004-.842.016-1.699.102-2.492-.097-.144-.034-.316-.048-.391-.263.656-.195 1.285-.171 1.919-.171.226-.002.455.054.674.004.629-.149 1.239-.228 1.833-.073.142.04.325-.012.489-.034.121-.02.283-.01.318-.168.042-.186-.081-.32-.25-.288-.954.174-1.588-.578-2.555-.39 1.608-.389 3.222-.316 4.783-1.01-.062-.23-.195-.265-.321-.209-1.077.487-2.137.38-3.193.372-1.613-.009-3.181-.21-4.773-.305-1.176-.07-2.364-.089-3.532-.22-.632-.07-1.165-.346-1.804-.374-.116-.003-.239-.099-.157-.256.065-.132.194-.181.347-.22 1.348-.298 2.668-.11 3.876.286 1.126.368 2.411.223 3.654.105.812-.08 1.6-.016 2.387.053a2.53 2.53 0 0 0 1.284-.222c-.29-.355-.918-.62-1.357-.578-.099.01-.225.066-.285.029-.218-.135-.742.108-.69-.26.057-.39.485-.194.745-.259.889-.226 1.623.026 2.228.46.928.662 2.111.704 3.289.916-.137.32-.633.236-.71.567.151.005.365.004.234.217-.363.583-.672 1.233-1.449 1.486-.124.038-.232.146-.407.259.228.164.84.04.463.63-.299.47.236.728.388 1.154-2.014.845-4.085 1.131-6.224 1.925 1.058-.01 1.922-.061 2.81-.377.5-.176 1.021-.19 1.528-.039.925.273 1.818-.104 2.572-.755.349-.302.696-.56 1.109-.69 1.47-.476 2.652-1.512 4.014-2.198.146-.074.273-.212.371-.338.164-.219.319-.473.103-.677-.229-.215-.47-.047-.681.146-1.103 1.004-2.384 1.693-3.746 2.246-.623.252-.994.144-1.127-.338-.128-.466.214-1.045.724-1.204 1.671-.515 3.264-1.28 4.89-1.934.361-.144.609-.38.597-.709-.016-.306-.376-.231-.622-.25a2.604 2.604 0 0 0-.581.04c-.121.02-.326.121-.278.224.325.675-.385.713-.721.868-.949.437-1.921.807-2.931 1.225.295-.935.688-1.309 1.523-1.321.604-.012 1.13-.222 1.662-.627-.596.073-1.194.151-1.797.228-.205-.149-.032-.39-.064-.581-.084-.474-.475-.75-1.005-.612-.631.167-1.239.082-1.859.196-.205.036-.395.022-.545-.091-.249-.185-.814-.087-.772-.497.048-.464.582-.359.896-.465a78.29 78.29 0 0 1 3.588-1.158c.342-.101.638-.22.899-.445.132-.11.253-.233.418-.286.659-.2 1.238-.54 1.782-.972.236-.183.505-.346.845-.365.234.6-.411 1.283-.107 1.873.402-.249.312-.604.334-.875.048-.503.24-.984.378-1.462.159-.565.848-.702 1.358-1.217.106 1.45-.138 2.72-.233 4.012-.102 1.308-.169 2.618-.49 3.925-.075.313-.072.556.119.737l.008-.016c.01.004.012.011.02.02.234-.533.373-1.08.279-1.61-.078-.472.18-.913.265-1.368.328-1.744.496-3.477.655-5.215.13-1.41.176-1.513 1.495-2.364-.486-.462-.77.409-1.297.275.225-1.437.454-2.909.704-4.52-.528.675-1.25 3.562-1.225 4.585h.018s-.005.011-.012.015c-.115.57-.166 1.16-.85 1.51-.171.088-.327.266-.53.176-.147-.067-.216-.217-.129-.372.122-.204-.017-.567.358-.598.523-.045.807-.412 1.151-.716l.002-.006c-.062.007-.129.024-.174.005-.976-.32-.934-.32-.796-1.366.19-1.45.663-2.899.629-4.34-.005-.173.145-.335.33-.392.881-.274 1.464-1.123 2.371-1.348.059-.013.12-.096.175-.1.923-.065 1.767-.57 2.656-.77.421-.095.739-.142 1.002-.53a1.07 1.07 0 0 1 .819-.453c.189.569-.131 1.188-.155 1.783-.013.333-.383.39-.702.297-.686-.2-1.467-.031-2.179-.146-.11-.02-.266.011-.358.202.251.352.689.405 1.129.376.605-.043 1.103.207 1.675.252.172.013.322.075.28.261-.062.268-.281.241-.47.227-.189-.014-.371-.07-.57-.063-.25.005-.569-.011-.631.339-.051.272.163.322.419.332.226.01.446.062.665.114.402.096.655.455.533.857-.269.89-.939 1.524-1.674 2.093-.692.537-1.131 1.343-2.036 1.658-.183.065-.328.413-.439.647-.384.816-.679 1.656-1.2 2.435-.215.32.345 1.327.721 1.374.152.018.333-.029.477.005.232.051.386.21.349.45-.034.209-.227.308-.448.338-.126.017-.253.048-.357.069-.135.262.033.376.144.498.118.132.159.238-.053.355-.187.1-.36.182-.317.43.043.246.215.324.447.362.214.037.433.077.64.143.173.052.372.134.313.358-.139.56.271.545.662.598.684.097.665.114.533.83-.049.28-.201.593.02.825l.01-.022.013.05c.051-.087.11-.165.151-.256.282-.63.769-.817 1.116-.336.246.336.483.466.9.409.387-.057.506.272.785.362.532-.023 1.028-.245 1.53-.453.198-.084.507-.205.604.04.111.268-.123.47-.397.58-.559.229-1.087.495-1.618.965.545.198.941-.116 1.351-.265.356-.134.5-.017.462.304-.048.37-.025.754-.175 1.1-.446 1.02-.177 2.016-.44 3.023a.588.588 0 0 0-.011.276c.027.112.066.25.217.242a.332.332 0 0 0 .316-.322c-.004-.703.23-1.408.296-2.108.048-.515.486-.965.405-1.495-.025-.17.223-.246.451-.279 1.428-.227 2.735-.84 4.015-1.594.818-.477 1.668-.917 2.496-1.378.558-.305 1.113-.618 1.634-1.065.448.426.699.963.988 1.464.12.209.105.56-.016.802-.455.92-.53 1.852-.597 2.792-.005.05-.071.105-.144.202l.002-.018Zm-.749 1.627c.076-.102.114-.252.273-.212.192.047.182.202.097.365-.228.441-.533.831-.854 1.228-.501.627-1.196 1.067-1.589 1.771l-.213-.145c.764-1.003 1.527-2.001 2.281-3.009l.005.002Zm-10.621 8.495c-.706.715-1.517.661-2.219.722-1.117.1-2.221.263-3.337.466-.129.023-.258.033-.351-.062.954-1.015 3.323-1.478 5.907-1.126Zm-7.989 1.503s-.062.019-.082.01c-.07-.028-.066-.065-.001-.089.022-.01.057.005.074.018.015.006.006.04.009.06Zm-32.548-14.81c.876.106.845.807.92 1.405.111.886.173 1.79.252 2.683.005.002.007.01.01.017.432-.58.66-1.18.545-1.833-.06-.33.09-.663.21-.996.06-.16.098-.31.322-.268.142.026.196.131.14.268-.151.377-.052.71-.025 1.072.1 1.334-.089 2.702-.1 4.047 0 .052-.066.107-.108.173-.486.041-.659-.195-.662-.623 0-.472.032-.955-.19-1.371-.004.01-.001.018-.001.03l-.025-.01c-.354.485.067.984-.266 1.528-.79-.244-1.389-.745-2.13-1.031-.293-.115-.274-.406-.266-.69.027-.995.088-2.001-.002-2.974a14.16 14.16 0 0 1-.047-1.689c.016-.496.24-.614.7-.437.195.08.4.152.492.355.059.133.119.342.226.355l.005-.011Zm2.322-4.023c.068-.125.207-.119.322-.084.098.033.123.108.058.227-.073.097-.197.148-.3.074-.058-.043-.109-.166-.08-.218Zm2.165.388c.106-.038.243-.014.355.013.09.025.116.112.045.216-.155.108-.292.07-.402-.026-.066-.052-.11-.166.002-.203Zm1.33.364c.065-.069.16-.068.258.004.033.033.098.098.005.187-.072.066-.166.091-.234.031-.057-.055-.108-.14-.03-.222Zm.047 3.624c1.23-.206 2.148.44 3.234.62-1.115-.103-2.324.017-3.234-.62Zm2.801 1.53c.043.063.073.1.106.146-.084.042-.16.093-.249.12-.02.005-.056-.073-.084-.117l.229-.154-.002.005Zm-1.61-.147c-.632.484-2.382.292-3.337-.363 1.233-.332 2.146.324 3.337.363Zm-7.6 6.478s.012-.001.022-.01c.002-.005.002-.005.017-.012.125.077.233.18.375.219.784.22.791.217 1.181.97-.565.073-.799-.303-1.04-.543-.18-.182-.743-.115-.51-.618-.065.024-.095.038-.095.038-.027.008.003-.006.047-.038l.002-.006Zm1.803-.562c.852-.101.937-.053 1.18.697-.538-.086-.931-.318-1.18-.697Zm11.408-5.196.03.013.015.006.015.006c.029-.026.055.035 0 0l-.002.005.02.009-.018-.001.015.006-.034.024c-.02-.008-.036-.027-.056-.035-1.16-.16-2.417.028-3.736-.33.856-.272 1.429.034 2.068-.097.652-.132 1.199.087 1.668.427a.1.1 0 0 0 .04.003l-.018-.04-.007.004Zm-3.08.845-.097.03c-.013-.024-.035-.052-.036-.078.002-.082.058-.129.138-.096.08.033.071.093-.005.144Zm4.79-.815c.135-.103.291-.173.407-.036.043.05.012.158.013.222-.181.18-.312.088-.432.026-.093-.045-.072-.145.017-.21l-.005-.002Zm-3.103-5.419s.054-.016.084-.029c.005.028.013.05.018.078-.027.008-.066.03-.081.023-.02-.008-.016-.044-.021-.072Zm1.874.429c-.516.042-.891-.113-1.452-.446 1.86-.278 3.44-.168 4.985-.009.916.097 1.894.214 2.535.95-1.411.609-2.776.39-4.144.457a.247.247 0 0 1-.269-.194c-.202-.803-.93-.816-1.652-.764l-.003.006Zm.61.83c-.62.063-1.184-.118-1.788-.119-.231 0-.34-.14-.31-.338.04-.301.295-.222.444-.199.546.091 1.084.212 1.615.335.08.02.128.11.039.322Zm29.05-11.178c.009.112.008.232-.219.407-.061-.14-.142-.237-.136-.343.014-.23-.318-.36-.09-.63.027-.033.133-.046.176-.023.238.118.238.366.261.592l.008-.003Zm.835-1.65c.183-.3.377-.073.583-.058-.146.207-.284.45-.528.292-.055-.036-.091-.178-.055-.233Zm-6.023 9.244c-.299.176-.639.023-.672-.245-.073-.59.534-.583.93-.872.098.455.203.842-.258 1.117Zm4.337-9.13c-.354.065-.612-.086-.979-.231-.065-.04-.235-.11-.369-.222-.052-.04-.066-.167-.043-.247a.25.25 0 0 1 .306-.18c.392.105.818.051 1.224.072.186.006.408.066.374.288a.586.586 0 0 1-.513.52Zm-4.198 7.238c-.049.095-.135.155-.232.146-.124-.013-.111-.122-.067-.206.021-.048.108-.095.16-.105.111-.012.15.061.134.163l.005.002Zm1.78-4.412c.176.149.063.388-.079.598-.241.352-.45.75-.968.785-.172.012-.322-.037-.371-.19-.034-.11-.005-.213.113-.33.218-.21.374-.477.602-.67.194-.155.462-.395.698-.195l.005.002Zm.749-2.22c.115-.138.301-.156.453-.1.133.048.184.158.074.285-.12.135-.284.183-.436.126-.125-.077-.184-.21-.096-.313l.005.002Zm-2.372 4.08c.124-.026.244.01.305.125.267.486.056 1.036-.714 1.63-.169-.587.07-1.093.193-1.59.016-.063.142-.158.219-.171l-.003.005Zm3.388 1.014c.016-.287.116-.653.419-.643.279.013.44.353.335.692-.093.3-.231.593-.344.871-.107.147-.19.291-.31.414-.154.159-.39.234-.53.125-.211-.163.044-.269.168-.415.279-.318.24-.69.257-1.047l.005.003Zm2.125-.207c-.003-.06.001-.121-.003-.18-.003-.059-.011-.12-.014-.178.199.19.599.247.393.602-.129.22-.377.074-.379-.24l.003-.005Zm-2.637 5.04c-.088.142-.199.243-.378.181-.101-.066-.169-.19-.101-.29.098-.138.271-.155.416-.095.09.037.116.111.055.207l.008-.003Zm-.022-.888c.013.05.028.094.034.148 0 0-.059.039-.079.03-.075-.017-.085-.06-.036-.129a.745.745 0 0 1 .083-.055l-.002.006Zm-.466 2.33c.143-.056.285-.03.331.079.041.093-.017.235-.026.295-.158.221-.305.39-.501.443a25.94 25.94 0 0 1-1.553.373c-.183.039-.292-.076-.304-.247-.012-.157.129-.22.25-.266.601-.23 1.204-.453 1.808-.675l-.005-.002Zm5.098-6.09c.07-.155.203-.28.39-.247.209.036.196.209.119.355a.703.703 0 0 0-.027.613c.09.248-.16.488-.334.506-.534.041-.735.397-.984.753-.171.249-.407.444-.788.58-.122-.254-.038-.665-.509-.738-.473-.068-.403-.421-.137-.776.401-.536.937-.754 1.492-.526.22.091.42.002.621.014.05-.176.078-.356.15-.53l.007-.004Zm-3.472 7.149-.259.129c-.011-.069-.039-.112-.027-.152.036-.106.125-.133.213-.09.04.016.048.077.071.118l.002-.005Zm.728-3.65c-.162.004-.161-.142-.116-.257.065-.158.07-.379.336-.39.157.032.173.154.14.267-.045.18-.119.372-.363.373l.003.008Zm5.033-3.715s-.017.025-.027.034c.522 1.343.335 2.788.004 4.25-.029.128-.116.258-.25.279-.139.02-.245-.088-.209-.22.369-1.39.1-2.73.326-4.101.014-.07.08-.139.134-.206l-.008-.022.01-.022c-.25-.052-.225-.29-.287-.468-.062-.179-.04-.386.177-.488.284-.131.507.005.678.165.096.09.033.23-.095.318-.2.127-.372.273-.471.48l.025.01-.007-.009Zm-3.715 7.94c.753-.32 1.447-.849 2.32-.814-.722.645-1.607.98-2.416 1.45-.17.102-.297-.065-.207-.251.062-.14.172-.33.295-.381l.008-.004Zm2.232-4.086c-.214-.024-.333-.182-.256-.38.178-.46.064-.973.561-1.526.09.591.384 1.018.111 1.561-.083.17-.169.377-.416.345Zm2.637-4.34c.289-.078.483.085.698.173.634.262.6.26.293.917-.368.779-.372 1.58-.396 2.372-.018.579-.04 1.156-.067 1.73-.01.22-.081.496-.346.533-.315.042-.343-.199-.369-.47-.084-.882.034-1.764.188-2.674.102-.608.115-1.284-.077-1.886-.067-.218-.152-.451.076-.695Zm-3.772 4.032c-.255-.144-.062-.363-.01-.558.057-.22.202-.331.422-.24.33.135.041.277-.082.38-.15.122-.034.393-.33.418Zm1.125-2.32c.061.076 0 .16-.066.227-.05.005-.127.031-.142.012-.048-.077-.019-.167.067-.227.034-.024.126-.03.139-.007l.002-.005Zm-1.961 3.128c.187.058.092.242.089.355-.094.222-.243.25-.403.197-.142-.052-.119-.183-.048-.3.08-.14.164-.314.367-.25l-.005-.002Zm5.913 1.087c.237.053.12.234.067.34-.097.214.16.473-.19.647-.022.01-.06.001-.082-.015-.299-.218-.051-.48.06-.727.038-.085.094-.158.148-.25l-.003.005Zm2.785 2.173c-.395-.768-.699-1.384-1.348-1.746-.255-.144-.227-.457-.228-.731.001-.662-.012-1.33.143-2.005.105-.46-.011-.846-.462-.91-.501-.073-.475-.368-.447-.707.024-.302.072-.607.121-.994.542.032.716.371.982.583.43.349.766.8 1.208 1.134.492.369.662.846.653 1.46-.014.664-.06 1.32.078 1.975.13.595-.262 1.217-.7 1.941Zm-1.502-7.402c-.974-.745-1.933-1.485-3.253-1.736-.267-.052-.493-.222-.733-.346-.105-.056-.186-.154-.298-.18-.224-.055-.565.32-.693.013-.095-.224-.042-.527-.025-.8.012-.212-.036-.422.174-.744 1.473.754 3.078 1.282 4.535 2.086-.738-.533-1.329-1.248-2.229-1.537-1.316-.42-2.341-1.276-3.634-1.72-.494-.166-.445-.604-.711-.936.837-.229 1.37.195 2.019.24.251.02.487.155.732.136.839-.062 1.409.516 2.226.516.1.003.218.121.259.215.77 1.833 2.099 3.291 3.216 4.892.253.359.154.764.121 1.285-.692-.45-1.149-.976-1.698-1.4l-.008.016Zm-31.576-4.633c-.867.19-1.675.023-2.496-.035-.293-.019-.521-.17-.648-.547 1.421-.631 2.422.145 3.589.211-.03.396-.269.335-.448.376l.003-.005Zm-6.335-.255c-.672-.219-1.34-.38-2.086-.42-.353-.018-.778-.008-1.048-.304.471-.52 1.027-.373 1.475-.316.966.118 1.902.313 2.883.399.438.04.828.239.845.781-.758.184-1.443.061-2.069-.14Zm.789 1.25c-.334.27-.596.231-.842.238-.174.005-.454.036-.353-.241.076-.21.312-.221.502-.182.206.041.409.105.698.186l-.005-.002Zm-5.472-4.3c.996.327 2.304-.146 3.134.59-.152.34-.408.29-.583.231-.841-.289-1.942-.08-2.551-.821Zm3.811.876c.444-.288.652.001.883.185-.335.06-.665.134-.883-.185Zm8.999 8.13c-.883.094-1.709.639-2.637.32-.667-.23-1.508-.112-2.266-.176-.398-.037-.833-.006-1.149-.238.108-.267.295-.235.432-.223 1.075.124 2.192.024 3.284.073.126.008.286.035.387-.019.791-.47 1.405-.28 1.949.262Zm-9.6-.754c-.039.022-.101.067-.113.055-.038-.022-.051-.071-.069-.11.025-.016.067-.043.077-.04.04.017.07.055.108.09l-.003.005ZM91.161 68c-.09.122-.197.148-.33.112-.328-.084-.394-.322-.303-.615.038-.125.186-.178.319-.13.25.09.416.445.314.633Zm-1.341-.865c-.23.249-.487.041-.731.138-.164.06-.342.075-.377-.11-.05-.257-.111-.518-.008-.8.11-.299.388-.337.536-.206.252.218.417.522.607.798.026.036-.016.115-.027.18Zm-1.175-3.765s.002-.005 0-.013c-.363.03-.61-.105-.797-.48.543-.076.766.086.796.48.01.005.025-.002.037-.003a.09.09 0 0 1-.019.03c.05.046.098.098.149.144-.045.007-.102.04-.124.025-.07-.041-.074-.1-.025-.17-.005-.001-.01-.003-.013-.01l-.005-.003Zm-1.681.67s-.042.053-.052.05c-.02-.009-.055-.023-.058-.044-.005-.015.032-.044.052-.061.02.02.037.034.057.055Zm-.335-.284c-.142.343-.636.164-.976.445-.103-.495-.11-.887-.002-1.287.245-.084.37.006.46.112.196.234.667.371.518.73Zm-1.624 11.75s-.096.095-.136.091c-.179-.01-.189-.186-.291-.273-.018-.014-.026-.049-.062-.127.087.004.127-.005.144.008.126.09.364.074.337.305l.008-.004Zm-1.154-.596s-.054.029-.081.036c-.02-.02-.055-.035-.05-.059 0-.069.053-.092.12-.058.02.008.023.054.014.076l-.003.005ZM79.52 73.9c-.436.14-.532-.187-.763-.41.442-.021.772-.032.763.41ZM44.627 55.264c.056-.231-.111-.332-.284-.384-.529-.154-.795-.602-1.207-.886a.724.724 0 0 1-.29-.42c-.253-1.39-1.016-2.539-1.579-3.777-.238-.525-.037-1.13-.3-1.614-.582.149-.636.19-.44.596.193.404.344.791.208 1.385-.973-.84-.972-2.095-1.428-3.11-.481-1.091-.192-2.328-.4-3.657.543.32.498.722.525 1.032.092.981.557 1.778 1.035 2.56.226.38.378.768.505 1.183l.005.003c.122-.167.17-.446.486-.29.49.24.948.511 1.26.952.552.788 1.251 1.433 2.174 1.857.828.386 1.179 1.2 1.682 1.86 1.214 1.582 2.437 3.157 3.917 4.53.43.4 1.051.797.95 1.577-.025.174.085.27.235.333.115.047.302.054.33.136.374 1.04 1.553 1.143 2.368 1.65 1.736 1.08 3.536 2.095 5.463 2.896 2.049.844 4.047 1.776 6.166 2.516.759.262 1.55.569 2.147 1.114.239.22.5.403.83.514.246.082.427.22.47.48.146.876.905 1.15 1.64 1.44.979.391 2.05.616 2.99 1.08.249.122.563.2.628.463.158.65.774.822 1.305.958.676.17 1.178.568 1.827.772-.225.264-.405.19-.637.164-1.057-.11-1.904-.613-2.823-.979a26.874 26.874 0 0 0-3.86-1.215c-.998-.233-1.839-.681-2.363-1.598-.636-1.115-1.891-1.537-3.204-1.792-1.532-.294-3.016-.708-4.585-.921-.63-.088-1.136-.437-1.402-.992-.368-.763-1.127-1.077-1.904-1.34-.721-.24-1.498-.381-2.263-.524-.737-.139-1.284-.53-1.792-.968-1.368-1.188-2.892-2.186-4.523-3.062-1.08-.578-1.97-1.391-2.855-2.19-.455-.41-.896-.84-1.37-1.233-.224-.188-.487-.328-.565-.628.11-.247.276-.115.41-.123.259-.021.461-.103.527-.37l-.01.022Zm-3.535-4.59c.489.507.595.8.559 1.472-.488-.43-.423-.996-.559-1.472Zm-.619 1.299c-.061.045-.123.115-.163.111-.179-.023-.245-.152-.257-.31-.006-.066.075-.128.143-.107.15.05.255.144.28.3l-.003.006Zm.348-12.442c.235.663-.066 1.215-.131 1.742-.273-.514-.295-1.032.131-1.742Zm-.099 6.258c-.916-.9-.546-2.2-1.09-3.296 1.21.575 1.265.744 1.09 3.296Zm.552-.753c1.293 1.577 2.993 2.711 3.862 4.534-.517-.168-1.019-.33-1.305-.786-.2-.319-.45-.606-.676-.91a1.75 1.75 0 0 0-.85-.61c-1.254-.441-1.384-.718-1.031-2.228Zm5.194 3.401s.064-.011.09 0c.024.01.027.043.04.067-.03 0-.065.012-.09.001-.02-.008-.028-.043-.04-.068Zm3.882 6.454c.867.35 1.704.728 2.42 1.43-.246.084-.376.164-.416.135-.7-.486-1.395-.983-2.002-1.57l-.002.005Zm6.75 5.279s.005.014.01.016c.361.092.74.172.953.527-.675.066-.685.062-.954-.527l-.03-.012s-.005-.002-.007-.01c-.817.027-1.525-.086-2.072-.675-.38-.405-.972-.63-1.553-.984.356-.267.598-.225.867-.152 1.167.303 2.254.706 2.758 1.812.01.004.017 0 .03 0l-.003.005Zm2.347.916c.052-.023.102-.04.156-.056.038.034.113.065.108.102-.008.123-.115.111-.18.084-.04-.016-.05-.084-.079-.128l-.005-.002Zm4.595 2.627c1.47-.031 2.551.675 3.817 1.35-1.049.345-1.357-.42-1.98-.587-.644-.176-1.212-.506-1.84-.758l.003-.005Zm5.245.506c1.31.84 2.796 1.369 4.418 1.687-.287.416-.586.37-.769.262-.739-.425-1.649-.456-2.486-.636-.795-.168-1.03-.66-1.163-1.313Zm5.113 3.094c-.009-.469-.386-.605-.517-.971 1.012.226 1.749.72 2.109 1.633-.889.303-1.578.057-1.597-.664l.005.002Zm.523 2.343c-.656-.003-1.102-.276-1.658-.607 1.049-.16 1.428-.016 1.658.607Zm2.083-2.435c-.095 0-.18-.048-.151-.151.006-.042.087-.117.12-.11.092.006.174.047.16.156-.04.04-.092.114-.127.113l-.002-.008Zm-1.412 2.826s-.111.063-.148.054c-.132-.036-.2-.121-.14-.268.014-.033.098-.049.15-.072.1.067.174.154.138.286Zm.274.26c.618-.083 1.098.102 1.35.556l-1.35-.556Zm-21.774-18.49.064-.038-.011.066-.05-.021-.003-.008Zm-9.023-22.763s-.01.022-.01.034l-.039.01c.005-.011.01-.022.007-.03-.017-.013-.015-.019.01-.021.012-.027.012-.027.022.003l.01.004-.004.01s-.003.006 0 .014c0 0 .005-.011.01-.01.068-.309.22-.609.539-.751.652-.28 1.08-.823 1.629-1.214a15.024 15.024 0 0 1 3.786-1.943c.226-.079.454-.125.656-.01.278.16.26.477-.056.64-1.236.63-2.456 1.287-3.733 1.824-.964.405-1.989.735-2.814 1.452l-.013-.012Zm-5.227 9.921c-.217-.65-.063-1.058.548-1.443.09.553-.176.947-.548 1.444Zm.756-2.261s-.034.037-.054.054c-.013-.012-.035-.027-.03-.038.01-.021.021-.048.046-.064.057-.046.072-.027.035.053l.003-.005Zm5.324-6.92-.02-.009-.005.011a.04.04 0 0 0 .022.003l-.032.032c-.086.021-.105-.03-.023-.067.015-.007.017-.012.025-.016.01-.021.042-.027 0 0 0 0-.005.011.005.015l.015.006c.027-.02.055.01 0 0l-.005.011c.005.002.01.004.018.014Zm6.797-4.65c.296.013.576-.082.863-.18.232-.082.362-.003.42.199.065.237-.083.341-.308.382-.38.067-.762.285-1.119.17-.16-.092-.236-.212-.219-.37.022-.234.211-.207.363-.201Zm.75 2.455c.224-.22.502-.073.743-.057.184.012.35.106.524.165.39.148.582.406.729.804.33.9.499 1.868.898 2.746.3.652.2 1.465.592 2.097.137.222.064.53-.094.802a2.37 2.37 0 0 0-.295.802c-.134.773-.723 1.333-1.504 1.476-.213.04-.294-.07-.32-.222a6.792 6.792 0 0 1-.092-.706c-.1-1.493-.32-2.953-.468-4.429-.1-.99-.505-1.857-.681-2.809-.043-.221-.274-.431-.034-.663l.003-.006Zm4.519 9.085c.05-.113.152-.128.242-.091.095.04.121.113.136.094-.11.216-.195.302-.282.285-.14-.032-.159-.148-.093-.28l-.003-.008Zm1.83 1.716c.014-.032.163-.035.235-.011.087.03.111.122.065.211-.046.09-.122.154-.147.13-.183-.107-.217-.216-.154-.33Zm-.44 2.245c.142-.253.331-.08.485-.08.19.04.278.147.188.32-.111.209-.315.24-.492.173-.18-.062-.3-.2-.182-.413Zm2.212-.814c.066-.094.17-.102.246-.045.025.023-.001.108-.005.157-.079.082-.178.105-.25.043-.031-.025-.02-.116.012-.16l-.002.005Zm1.89 6.104c.282.294.239.563.255.83-.241-.15-.326-.426-.255-.83Zm3.826-.646c.1-.156.284-.144.429-.072.108.051.208.118.133.272-.12.135-.27.207-.426.155-.172-.051-.221-.218-.131-.353l-.005-.002Zm.655 2.34c-.005-.002-.018-.001-.033.006a.098.098 0 0 1-.044-.006c.022-.01.047-.026.069-.035a.058.058 0 0 1 .024-.029l.007-.016c-.513-.453-.52-.635-.02-1.193.142.396.288.756.02 1.193.01.004.013.012.02.021 0 0-.031.019-.046.026-.012.027-.002.03.013.037l-.01-.004Zm-.347 1.825c.06-.134.16-.208.309-.185a.281.281 0 0 1 .241.227c.07.36-.082.737-.453.851-.36.113-.63.372-1.018.485-.179-.366-.54-.579-.807-.88.371-.338.523-.096.736.036.482.3.514.281.864-.275.049-.082.095-.17.133-.257l-.005-.002Zm3.358.963a.025.025 0 0 1-.012.015c-.027.033-.062.07-.088.103-.059-.094.046-.076.088-.103l.007-.017-.023-.028c-.23-.095-.324-.267-.218-.53l-.03-.012s.017-.037.03-.051c-.001-.013-.006-.028-.006-.04.005-.012.027-.022.044-.034-.012.027-.03.052-.046.077 0 .013 0 .026.005.04l-.007.016c.291.05.114.353.203.51l.048.04-.03-.013c.01.004.01.017.018.027h.017Zm-1.494 1.875c.372.109.298.365.142.727-.761-.243-1.203-.725-1.58-1.269-.071-.105-.085-.207.075-.3.111-.062.216-.032.25.04.207.46.632.661 1.113.802Zm1.431-.786c.38.724.273 1.12-.468 1.61.463-.504-.136-1.107.468-1.61ZM44.393 29.43c-.515.91-1.287 1.336-1.863 1.933.29-.817.65-1.58 1.863-1.933Zm96.76 49.735c.552-.544 1.03-.895 1.361-1.382.009.902-.187 1.101-1.361 1.382Zm5.607 2.706c.249-.146.525-.325.712-.121.239.258.657.475.428.972-.179.385-.408.737-.795 1.017-.475.345-.462.37-.844-.15-.573 1.234-1.379 2.265-2.58 3l.003-.006c-.01.009-.02.017-.025.016-.05-.021-.04-.043.022-.049 0 0 .003.02.008.035a.046.046 0 0 1 .019-.017c.142-.197.231-.395.194-.615-.041-.252-.206-.359-.48-.223-.24.124-.484.272-.678.453-.498.476-1.12.78-1.662 1.194-.386.293-.843.334-1.288.272.023-.475.403-.529.705-.646.452-.177.89-.334.992-.878.021-.112.126-.24.222-.322 1.657-1.343 3.17-2.853 5.05-3.925l-.003-.007Zm-.187-1.549c.114-.03.182.043.201.134.048.223-.032.426-.273.569-.114.068-.235.113-.529.253.113-.29.144-.412.212-.524.097-.164.164-.365.392-.424l-.003-.008Zm-4.63 7.697c-.078.12-.197.135-.309.108-.015-.006-.004-.11.023-.156.056-.086.155-.096.242-.079.016.045.061.102.044.127Zm-1.433 1.186c-1.521.723-2.988 1.615-4.643 1.978-1.539.92-3.152 1.293-4.814 1.264-.47-.01-.945-.008-1.417-.011.44-.373.939-.403 1.417-.53 1.79-.48 3.594-.882 5.376-1.409 1.345-.395 2.631-1.004 3.844-1.766.256-.162.623-.596.831-.268.163.258-.273.594-.596.747l.002-.005Zm-.251-3.766c.238-.24.489-.403.763-.208.093.07.058.228-.056.321-.327.267-.52.091-.707-.113Zm-51.536 3.885c.244.17.511.313.798.412 1.274.448 2.352 1.173 3.516 1.786.943.497 1.72 1.257 2.884 1.45.353.057.662.292.948.5 1.644 1.18 3.591 1.842 5.635 2.354.042.01.061.089.132.207-.435.19-.776.12-1.093.034-.95-.258-1.913-.502-2.824-.833-1.54-.565-2.992-1.303-4.576-1.759-.928-.268-1.609-.663-2.226-1.319-.467-.491-1.252-.669-2-.824-1.225-.25-2.52-.44-3.432-1.217-.908-.775-2.114-1.056-3.167-1.586-.793-.397-1.37-.998-1.928-1.616-.678-.757-1.496-1.362-2.32-1.969-.283-.212-.6-.388-.769-.699-.402-.752-.933-1.39-1.721-1.811-.063-.032-.079-.141-.107-.21a.406.406 0 0 1 .527-.146c.662.4 1.534.25 2.258.498.7.237 1.538.003 2.264.194.988.254 1.99.476 2.763 1.088.507.4 1.149.607 1.698.967 1.132.735 1.934 1.746 2.813 2.688.121.127.352.311-.022.603-.477.377-.48.91-.06 1.204l.01.004Zm4.41.429c.386.064.497.25.666.39-.24-.049-.454-.099-.667-.39Zm1.535.748s.06-.027.09-.027c.074.005.102.048.068.123-.03.014-.077.039-.087.035-.03-.038-.05-.085-.076-.133l.005.002Zm.528.236c.404-.069.489.15.55.424-.38.041-.527-.121-.55-.424ZM67.61 82.705c-.695.07-1.079-.197-1.495-.68.77-.04 1.066.37 1.495.68ZM44.568 71.348c-.693-.343-1.238-.804-1.35-1.62-.084-.608-.448-1.14-.279-1.848.946 1.205 2.17 2.08 3.431 2.937.725.496 1.33 1.14 2.013 1.69a4.5 4.5 0 0 0 1.057.651c.358.154.74.318 1.01.576 1.175 1.14 2.79 1.328 4.49 1.354.972.012 1.888.135 2.667.628.264.166.467.358.625.601.797 1.258 1.951 2.116 3.407 2.672.722.278 1.332.74 2.141.876.105.018.166.158.151.324-.634.356-1.18.398-1.722-.029-.435-.338-1.045-.456-1.543-.744-1.372-.782-2.551-1.784-3.857-2.635-.637-.415-.63-.444-1.258.125-.293.268-.5.125-.694.014-1.01-.557-2.076-1.034-3.004-1.71-.843-.615-1.9-.885-2.895-1.27-.864-.33-1.857-.465-2.541-1.091-.126-.116-.37-.204-.284-.398.28-.648-.215-.655-.607-.81-.31-.128-.663-.146-.956-.286l-.002-.007Zm8.367 7.308c.106.317-.009.678.085.984.602 1.993.747 4.136 1.288 6.149.398 1.475.527 3.02.782 4.64-.586-.197-.88-.478-.974-.981-.265-1.428-.58-2.837-.857-4.264-.293-1.51-.616-3.018-.828-4.55-.159-1.124-.402-2.218-.575-3.334-.033-.191-.065-.37.15-.492.157-.088.298-.004.426.093.361.29.713.587 1.246.64.306.032.4.255.462.554.447 2.223.96 4.428 1.387 6.655.283 1.48.39 3.02.73 4.479.208.894.36 1.797.535 2.698.027.138.103.272-.108.49-.47-.665-1.234-1.114-1.074-2.13.087-.563-.14-1.058-.242-1.584-.481-2.593-.983-5.182-1.46-7.773-.114-.64-.277-1.267-.246-1.942.005-.183.05-.375-.066-.525-.102-.13-.194-.321-.44-.206-.166.078-.268.265-.226.397l.005.002Zm-8.553-6.525c.321-.122.524.126.819.089.139-.02.22.078.177.226-.04.142-.179.226-.296.21-.331-.055-.694-.09-.695-.523l-.005-.002Zm51.595 46.226c-.412.021-.844.219-1.266.275-.92.123-1.801.028-2.663-.149-.235-.046-.407-.11-.354-.401.056-.321.272-.473.559-.425 1.21.193 2.515-.18 3.726.064.456.092 1.028-.022 1.553-.201.636-.215 1.27-.31 1.902-.12-1.154.353-2.265.901-3.46.963l.003-.006Zm9.944-2.162c-1.373.644-2.78 1.205-4.168 1.817-.887.392-1.795.305-2.687.536-.173.043-.275-.114-.287-.271-.015-.204.193-.284.332-.316.686-.144 1.336-.456 2.002-.646 2.03-.565 3.995-1.353 5.965-2.127.122-.046.252-.113.433-.013-.444.499-1.044.755-1.592 1.013l.002.007Zm2.317-1.491-.07.01a.309.309 0 0 0-.014.032c-.01-.004-.015-.006-.018-.014-.051.075-.105.142-.212.117-.01-.005-.013-.063.001-.083.071-.091.143-.094.206-.036l.007-.016c.005.002.015-.007.025-.002.022-.049.046-.077.096-.069-.01.021-.012.052-.024.054l.003.007Zm42.953-25.492c-.215.243-.383.524-.546.807-.63 1.072-1.432 2.015-2.526 2.723-.473.302-1.252.796-1.695 1.149-1.534 1.214-3.257 2.122-5.029 2.837a17.048 17.048 0 0 1-4.139 1.078c-1.739.232-3.421.01-5.156.365-2.01.413-3.972.363-5.886.128-1.463-.183-2.952.02-4.45.217-1.895.25-3.791.475-5.665.442-.331-.003-.693.039-.789.451-.104.455.238.564.614.585 1.775.107 3.574-.126 5.379-.439a13.65 13.65 0 0 1 2.927-.188c.204.007.484-.075.588.261-.375.228-.818.37-1.182.653-.152.115-.378.195-.495-.019-.201-.37-.535-.246-.911-.147-.679.179-1.348.483-1.894.946-.646.542-1.444.908-2.131 1.408a325.274 325.274 0 0 0-5.532 4.076c-.438.329-.933.533-1.363.884-.44.36-.921.219-1.453.083.438-.539 1.024-.763 1.538-1.022 1.446-.729 2.708-1.731 4.043-2.62.515-.342 1.093-.562 1.578-.955.206-.169.505-.32.307-.605-.157-.231-.393-.074-.613.02-.574.235-1.063.626-1.593.936-.249.146-.484.272-.724.109-.141-.096-.382-.112-.34-.35.032-.178.205-.247.368-.307.258-.097.507-.205.706-.41.179-.187.285-.398.173-.597-.127-.231-.385-.158-.597-.042-.594.335-1.201.658-1.76 1.045-.414.288-.827.232-1.244.316-.203.043-.15-.114-.172-.224-.039-.189-.211-.228-.361-.092-.771.714-1.694.818-2.612.949-.228.033-.437.208-.676.161-.086-.284.213-.263.346-.361.187-.139.291-.294.197-.479-.092-.178-.271-.214-.484-.161-.496.127-1 .314-1.381.647-.924.804-1.905.788-2.898.678-.66-.075-1.313-.191-1.965-.281-.122-.019-.254-.041-.378-.016-.245.046-.569.001-.689.308-.127.324.088.489.346.627.653.352 1.444.347 2.174.501.207.041.437.015.615.133l.008-.016.02.008c.068-.061-.091-.05.029-.052.017.001.054.01.05.021-.017.05-.044.058-.087.034-.002.006-.005.011-.017.012l-.015-.006c-.221.571-.822.801-1.27 1.101-.764.513-.894 1.211-1.193 1.903.878-.543 1.834-.932 2.535-1.7.068-.074.145-.138.223-.208.614-.536 1.523-.608 2.023-1.325.604-.012 1.194-.431 1.87-.299-.823.921-1.925 1.397-2.896 2.054-.138.096-.301.157-.454.234-.2.102-.374.266-.285.449.115.232.336.03.499-.055.63-.321 1.254-.656 1.9-1.001.024.106.06.184.04.202-1.219 1.038-2.409 2.134-4.133 1.831-.438-.079-.711.159-.79.559-.072.372.064.556.479.567.741.026 1.465.076 2.232-.207.87-.317 1.763-.273 2.646-.432 1.075-.193 2.146-.414 3.225-.403.554.006 1.108-.212 1.235-.917.044-.243.278-.421.55-.551a19.17 19.17 0 0 0 3.463-2.133c.913-.7 1.955-1.213 2.807-1.989.132-.124.381-.283.552-.359a8.728 8.728 0 0 0 1.928-1.141c.344-.266.735-.608 1.467-.459-1.675 1.08-3.01 2.205-4.513 3.178-1.259.812-2.457 1.713-3.633 2.629-1.277.996-2.726 1.73-4.027 2.703.199.216.374.129.5.047.591-.406 1.228-.729 1.852-1.077 1.744-.982 3.399-2.083 5.016-3.27 1.553-1.137 3.23-2.114 4.846-3.168.543-.35 1.09-.697 1.523-1.187.252-.285.593-.476.959-.554.258-.059.418-.217.582-.385.162-.175-.053-.594.363-.57.505.036 1.073-.188 1.519.072.268.155.107.382-.09.53-.441.322-.891.626-1.355.907-.816.485-1.65.944-2.474 1.419-2.022 1.167-3.804 2.668-5.74 3.959-.877.581-1.741 1.187-2.613 1.783-1.086.743-2.313 1.206-3.374 1.985-.123.089-.226.161-.17.299.067.168.184.318.416.261.33-.075.644-.206.937-.385.816-.498 1.66-.952 2.446-1.488.615-.422 1.293-.69 1.916-1.077.518-.321 1.071-.59 1.594-.923.978-.622 1.966-1.24 2.998-1.744 1.087-.533 2.001-1.303 2.976-1.984 1.704-1.183 3.482-2.24 5.237-3.338.148-.092.295-.222.446-.243 1.422-.21 2.837-.327 4.25-.152-1.241.284-2.047 1.315-3.157 1.807a1.51 1.51 0 0 0-.421.278c-1.192 1.177-2.586 2.119-3.958 3.063-1.037.713-2.178 1.274-3.27 1.9-1.554.888-3.154 1.707-4.494 2.938a1.481 1.481 0 0 1-.431.274c-1.048.447-1.998 1.151-3.082 1.507-.272.092-.71.261-.956.415-.919.583-1.818 1.212-2.768 1.744-.673.379-1.402.696-2.315.67.84-.564 1.617-1.002 2.372-1.481-.79.044-1.45.485-2.12.802a11.77 11.77 0 0 1-2.121.794c-.996.265-1.961.727-2.951 1.07-1.044.36-2.101.669-3.147 1.021-.795.265-1.561.166-2.338.221-1.272.088-2.545.365-3.819.458-1.782.132-3.507.096-5.224-.21-1.561-.281-3.056-.763-4.686-.868-.524-.031-.98-.232-1.407-.414-1.901-.803-4.023-1.143-5.992-1.795-1.091-.367-2.095-.914-3.135-1.381-.607-.27-1.173-.592-1.903-.695-1.204-.166-2.301-.599-3.366-1.063-.225-.093-.454-.175-.53-.429-.067-.218-.252-.467-.482-.536-1.764-.555-3.286-1.45-4.795-2.39-.75-.468-1.577-.841-2.375-1.253-.665-.338-1.309-.686-1.864-1.176-.365-.322-.884-.498-1.359-.694-.91-.374-1.542-1.1-2.46-1.472-.52-.214-.924-.591-1.228-1.035-.33-.48-.657-.99-1.182-1.271-.383-.202-.053-.582-.254-.754-.183-.158-.473.315-.76.005-.67-.722-1.62-1.26-2.088-2.09-.369-.655-1.003-1.088-1.286-1.778-.113-.276-.34-.414-.684-.282-.408.157-.515-.04-.594-.327-.2-.7-.342-1.428-1.013-1.87-.17-.109-.197-.42-.228-.654a23.605 23.605 0 0 0-.704-3.297c-.177-.595-.091-1.26-.052-1.888.094-1.515-.287-2.908-.413-4.367-.138-1.58-.412-3.132-.495-4.726-.043-.84-.273-1.635-.25-2.491.005-.234-.006-.538-.242-.712-.41.2-.234.573-.437.8-.005.012.003.021-.002.032l-.014.032c.343.237.117.647.162.971.293 2.115.52 4.247.9 6.34.084.448.068.932.105 1.482-.525-.204-.548-.627-.59-.982-.155-1.197-.32-2.386-.71-3.522-.178-.513-.148-1.093-.052-1.664.097-.572.055-1.137 0-1.688-.034-.332-.01-.635.19-.948-.01-.004-.013-.011-.023-.015.017-.012.024-.028.037-.043-.006-.766-.368-1.463-.158-2.351.879.324 1.578.772 2.243 1.281.186.14.248.293.258.52.02.576.117 1.138.095 1.715-.07 1.895.136 3.744.453 5.543.341 1.918.514 3.893 1.112 5.738.145.442.154.936.232 1.408.078.459.162.92.405 1.314.344-.158.192-.348.17-.497-.134-.941-.243-1.884-.494-2.79-.19-.67-.377-1.811-.473-2.507-.268-1.881-.539-3.757-.743-5.65-.152-1.387-.198-2.801-.259-4.208-.008-.195-.25-.473.146-.64.234-.102.46-.009.622.116.181.138.43.31.27.588-.628 1.054-.062 1.93-.002 2.891.07 1.188.366 2.323.656 3.455.629 2.438.66 5.043 1.101 7.53.161.907.164 1.85.29 2.77.041.29.22.485.485.62 0-.988-.258-1.916-.366-2.877a303.262 303.262 0 0 0-.973-7.828c-.167-1.234-.548-2.417-.66-3.66-.086-.927-.532-1.818-.025-2.883.851.255 1.515.835 2.414 1.02a.164.164 0 0 1 .142.16c.035 2.295.605 4.441.997 6.64.316 1.774.799 3.495.983 5.431-.48-.236-.727-.516-.777-.932-.138-1.184-.62-2.261-.74-3.444-.17-1.663-.737-3.183-1.12-4.768-.103-.43-.188-.86-.157-1.325.035-.502-.174-.894-.625-1.245-.219.578-.111 1.037-.07 1.487.078.828.393 1.589.276 2.47-.034.247.195.475.265.727.498 1.779.86 3.597 1.15 5.442.207 1.308.745 2.536.694 3.929-.03.778.104 1.534.535 2.131.207.29.063 1.007.672 1.048.079-.044.017-.012.022.003.01.004.015.006.028.005-.23-1.426-.465-2.854-.704-4.34.75.085.928.598 1.061 1.092.41 1.564.752 3.151 1.178 4.709.133.494.014 1.037.194 1.506.049.129.061.325.286.246.208-.068.208-.252.179-.398-.313-1.715-.632-3.42-.969-5.227.453.441 1.026.684 1.035 1.363.002.153.123.305.304.246.353-.115.404.141.585.28.818.617.954 1.54 1.037 2.503.018.237.073.47.116.704.027.138.032.338.264.255.198-.071.176-.259.166-.409-.014-.337-.26-.648.017-1.025.37.006.43.292.476.483.3 1.334 1.395 1.944 2.52 2.523.558.287 1.158.496 1.677.87.379.276.995.263 1.491.41.592.174 1.048.489 1.377.905.619.784 1.366 1.442 2.269 1.897.685.346 1.036.936 1.453 1.459.594.747 1.422.974 2.382.892a3.845 3.845 0 0 1 1.668.229c.84.308 1.67.675 2.515.928 1.185.355 1.91 1.062 2.728 1.825.747.697 1.765 1.161 3.07 1.196 1.476.035 2.94.282 4.332.652.599.157 1.212.27 1.839.363 1.863.283 3.54.924 5.151 1.69 1.016.482 2.096.806 3.244 1.018.713.128 1.423-.082 2.135-.19.164-.022.331-.118.314-.316-.018-.199-.199-.191-.36-.187-.612.003-1.227.093-1.84.019-1.37-.177-2.58-.624-3.758-1.231a14.14 14.14 0 0 0-4.43-1.424c-1.12-.169-2.222-.406-3.356-.543-.625-.073-1.292-.118-1.865-.412-.333-.169-.794-.13-1.22-.133-1.567-.016-2.675-.714-3.389-1.881-.33-.544-.884-.708-1.449-.782-.645-.081-1.147-.333-1.705-.569-1.034-.439-2.087-.93-3.315-.94-1.098-.006-1.847-.41-2.347-1.247-.384-.636-1.094-.967-1.681-1.4-.6-.445-1.084-.976-1.593-1.491-.503-.5-1.046-.915-1.784-1.13-1.105-.322-2.038-.923-3.058-1.381-.247-.109-.497-.224-.754-.311a1.832 1.832 0 0 1-1.212-1.22c-.303-.946-.897-1.707-1.697-2.31-.274-.209-.306-.521-.354-.822-.475-2.806-.93-5.618-1.43-8.417a135.98 135.98 0 0 0-1.122-5.48c-.079-.365-.051-.704.018-1.108 1.102.117 1.993.573 2.874 1.038a.384.384 0 0 1 .203.326c.065 1.358.585 2.534 1.15 3.703.273.565.557 1.146.635 1.816.115 1.009.575 1.912.68 2.93.008.086.054.181.176.161.141-.024.26-.103.26-.25.007-.213.03-.433-.018-.631-.4-1.63-.685-3.301-1.329-4.847-.288-.692-.422-1.46-.664-2.318.698.186.97.635 1.095 1.056.379 1.24.98 2.366 1.475 3.545.144.339.147.754.477 1.088.318-.404.22-.712.125-1.044-.265-.925-.684-1.798-.613-2.972.863.425 1.863.493 2.084 1.584.15.744.557 1.396.748 2.143.168.643.51 1.267 1.308 1.73-.165-1.57-.77-2.795-1.123-4.118.329-.139.544-.05.764.053.615.292 1.237.568 1.84.873.28.141.645.081.915-.151.803-.707.618-.255 2.25.621.853.46 1.548 1.103 2.235 1.75.415.394 1.016.335 1.615.175.143-.043.242-.143.212-.276a.313.313 0 0 0-.156-.192c-.075-.03-.184-.024-.281-.02-.68.064-1.159-.242-1.564-.632-.929-.886-1.936-1.69-3.075-2.344-.103-.061-.226-.118-.272-.213-.097-.193-.166-.407.236-.445 1.072-.106 2.15-.343 3.21-.237.43.044.734.264 1.07.44.562.29 1.132.563 1.805.662.7.104 1.256.486 1.636 1.012.286.392.628.737.867 1.167.331.594 1.033.852 1.57 1.252.535.392.98.824 1.382 1.327.194.24.453.429.674.635-.117.18-.283.182-.366.129-1.462-.978-3.114-1.717-4.534-2.748-.688-.5-1.633-.807-2.414-.81-.118.302.2.229.315.314 1.151.813 2.315 1.61 3.471 2.412.757.529 1.753.659 2.542 1.143.692.425 1.427.805 2.27.948.488.087.815.426 1.358.325.367-.066.886.097 1.147.294 1.067.828 2.293 1.448 3.768 1.553 1.408.096 2.317.828 3.168 1.675.557.554 1.093 1.1 1.948 1.332.487.13.906.475 1.261.806.46.438 1.039.562 1.686.479.762-.1 1.509.016 2.195.23 1.839.56 3.717 1.06 5.642 1.414 1.057.193 2.264-.055 3.249.415 1.463-.237 2.662.39 4.003.555.807.103 1.347-.216 2.011-.573-.23-.254-.531-.085-.765-.13-.12-.024-.284-.028-.268-.18.022-.221.215-.218.374-.229.226-.015.453-.004.679-.007.295.001.585-.051.854-.24.217-.153.553-.243.482-.546-.074-.324-.232-.644-.664-.605-.489.047-.975.088-1.467.287-1.641.674-3.111.412-4.52-1.252-.8-.947-2.243-.873-3.505-.145-.296.17-.561.062-.818-.013-1.54-.462-2.933-1.157-4.361-1.816.633-.102 1.065.28 1.631.366 1 .145 1.987.361 2.924.69a9.617 9.617 0 0 0 1.787.399c1.58.16 3.066.544 4.543.961.147.042.317.112.458.075 1.342-.39 2.543.099 3.849 0 1.115-.082 2.214-.208 3.314-.481 1.065-.262 2.143-.473 3.194-.875.309-.12.642-.123.975-.126.388-.006.711.197.719.43.017.542.392.524.764.474 1.384-.181 2.542.366 3.828.482.05.008.078.077.237.238-2.646.247-5.161.376-7.851.496.316.443.734.475 1.06.45 1.157-.071 2.24.089 3.335.247.406.06.778.168 1.165-.258.186-.204.512-.152.761-.139 1.315.064 2.667-.334 3.997-.289.443.017.963-.272 1.458-.278.166-.001.343.052.331.226-.011.167-.193.309-.352.307-.735.003-1.478.39-2.221.225-.349-.08-.773.019-1.165.061a25.6 25.6 0 0 1-2.716.141c.04.425.305.19.447.204.565.06 1.168.023 1.707.143 1.593.37 3.24.144 4.912-.23.198-.046.392-.08.588-.121.872-.201 1.727-.339 2.563-.842.949-.57 2.076-.481 3.088-.848 1.612-.584 3.318-.715 4.872-1.578a3.72 3.72 0 0 0 .738-.536c.13-.118.225-.277.134-.416-.106-.159-.309-.09-.422.03-.988 1-2.29.878-3.434 1.342-.115-.773-.097-.734.56-1.088a15.412 15.412 0 0 0 2.697-1.824c.572-.484 1.165-.934 1.66-1.494.206-.234.414-.447.497-.948-2.089 2.132-4.311 3.809-6.88 4.992-.142-.173.137-.37.005-.526-1.022.139-1.944.65-2.875 1.088a4.774 4.774 0 0 1-2.415.457c-1.341-.1-2.677-.09-4.061.116-.643.098-1.394.254-1.797-.378.279-.343.621-.368.929-.368 1.034.006 2.076-.177 3.111-.279 1.489-.15 2.908-.699 4.356-1.128.832-.243 1.627-.59 2.497-.747 1.528-.275 2.896-1.132 4.198-2.04.276-.193.04-.366-.047-.53-.005-.001-.014.007-.022.01-.081.222-.289.34-.476.454-.991.598-2.099.797-3.16 1.194a19.99 19.99 0 0 1 3.636-1.647l.015-.033s.005.015.01.017c.647-.453 1.334-.807 2.108-.908.188-.024.404-.082.569-.186.791-.483 1.667-.797 2.425-1.35.17-.128.327-.254.409-.437a.463.463 0 0 0-.066-.511c-.104-.126-.282-.097-.451-.04-.096.03-.218.05-.282.114-.676.689-1.697.892-2.321 1.648-.235.285-.507.415-.835.407-.169-.375.485-.736.176-.959-.316-.22-.726.14-1.089.29-.089.04-.181.06-.403.133.827-1.168 1.528-2.28 2.642-3.114.473-.353.811-.921 1.499-.95.089 0 .224-.156.289-.262.1-.157.299-.336.146-.495-.172-.185-.328.19-.548.112.439-.608.633-1.197.129-1.736-.205-.218-.148-.475.114-.743s.512-.534.838-.744c.332-.213.393-.506.302-.83-.089-.33-.272-.425-.637-.218-.39.221-.759.45-1.045.798-.108.134-.288.244-.44.214-.207-.041-.229-.241-.234-.428-.011-.253.043-.505.246-.707.567-.563.83-1.32 1.578-1.758-.034-1.007.698-1.871.891-2.855.173-.885.29-1.766.428-2.652.185-1.19.276-2.383.427-3.575.03-.224.002-.426-.065-.62-.157-.427-.516-.473-.879-.1a7.03 7.03 0 0 0-.574.699c-.132.175-.191.424.021.467.448.096.328.39.302.698-.108 1.242-.183 2.491-.279 3.732-.013.148-.088.301-.131.45-.216.757-.499 1.507-.626 2.276-.062.389-.175.8-.584 1.116-.267-.078-.344-.46-.774-.32-.312.102-.331-.212-.354-.4-.108-.707-.266-1.396-.363-2.105-.112-.817.22-1.635.749-2.391.122-.18.416-.32.221-.546-.136-.158-.331-.041-.533.028-.431.154-.899-.134-1.182-.665-.214-.394.034-.776.385-.962.395-.207.387-.376.423-.718.186-1.732-.072-3.386-.142-5.077a5.682 5.682 0 0 0-.945-2.893c-.649-.98-1.16-2.057-1.992-2.922-.494-.51-.603-1.255-.941-1.86-.548-.983-.922-2.061-1.227-3.161-.016-.045.038-.112.074-.218.521-.027.865.42.896.668.048.421.237.474.573.491a.726.726 0 0 1 .492.21c.103.1.232.248.366.24 1.426-.075 1.658 1.174 2.434 1.806.357.287.525.77.874 1.073.589.51.772 1.222.997 1.908.486 1.436.958 2.878 1.164 4.422.017.121.069.309.123.413.678 1.325 1.854 2.319 2.397 3.734.229.597.441 1.207.759 1.765.272.475.148 1.067.056 1.615-.092.522.005.964.192 1.391.274.617.472 1.246.459 1.973-.015.599.085 1.207.578 1.6.658.527.633 1.294.399 2.05-.419 1.344-.234 2.58-.056 3.857-.539 1.344-.607 2.724-1.062 4.078-.399 1.192-.888 2.334-1.784 3.353l-.079.07Zm-43.285 17.661a86.198 86.198 0 0 1 3.217-2.138c.683-.426 1.359-.943 2.194-.943.184-.001.422-.056.467.173.032.166-.133.283-.271.379-1.511 1.11-2.997 2.242-4.602 3.218a1.13 1.13 0 0 1-.373.145c-.875.142-1.749.387-2.825.434.779-.64 1.55-.826 2.195-1.273l-.002.005Zm-.676-.527c.38-.62.969-.97 1.659-1.188-.478.497-.961.979-1.659 1.188Zm2.53-1.702-.126.069.022-.023c.032-.018.067-.029.099-.048l.005.002Zm30.363-10.16c.147-.302.406-.297.65-.235.112.027.22.09.167.26-.2.236-.457.2-.696.166-.062-.007-.143-.142-.121-.19Z" fill="#66462C" fill-opacity=".1"/><path d="M129.488 70.37c-.299.24-.352.543-.404.846.132-.296.263-.586.433-.873-.005.011-.019.018-.027.021l-.002.005Zm-5.307 2.118c-.108.293-.133.589-.144.877l.144-.877ZM40.965 48.183c-.041-.03-.08-.052-.12-.081l.117.087.003-.006Zm52.361 26.455.034-.075a.32.32 0 0 0-.094-.281.126.126 0 0 1-.056-.036.57.57 0 0 1 .116.392Zm46.332-13.239.016-.001-.013-.005-.003.006Zm-34.94 11.208.005-.011-.029-.012s-.005.011.024.023ZM68 47.569l-.028-.004.025.01.003-.006Zm41.631 57.154s.022-.019.03-.023l-.03.023ZM45.897 29.764s-.025.003-.027.008l.034.014c-.005-.002-.01-.004-.012-.011l.005-.01Zm-.857-.695-.013.03s.008-.019.019-.028l-.006-.003Zm.02-.019s.003-.005 0-.014c-.005-.002-.016-.006-.025-.003l-.01.024.016.007c.003-.006.008-.018.017-.022l.002.009Zm58.688 76.379.005-.012-.006-.003.001.015ZM70.732 49.855l-.039.013.039-.013ZM91.49 78.3l-.015.007c-.007.003-.01.008-.017.011l.042-.001s-.008-.022-.01-.017ZM64.439 27.943c.664.828 1.001 1.884 2.02 2.463 1.655.943 2.331 2.642 3.055 4.247.305.68.573 1.388.957 2.024.485.818 1.253 1.218 2.38.898.997-.283 1.998-.558 2.963-1.02.61-.29.938-.887 1.555-1.22.92 1.208 1.7 2.491 2.638 3.674.482.6 1.199 1.246.372 2.268-.036.042-.025.123-.027.18.007.735-.439 1.411-.59 2.235-.521-.394-.894-.764-1.355-1.018-1.149-.632-1.998-1.575-2.97-2.377-.77-.635-1.602-1.182-2.42-1.748-.167-.114-.323-.44-.635-.154-.295.273-.204.597-.061.847.074.139.283.2.436.295 1.246.8 2.545 1.533 3.517 2.64.317.36.764.646 1.18.881.876.502 1.664 1.094 2.479 1.666.765.538 1.518 1.09 2.278 1.64.156.114.32.208.49-.01.141-.183-.046-.254-.162-.34a11.48 11.48 0 0 1-1.02-.828c-.948-.868-.97-.845.095-2.094.128.307.349.488.666.625.358.153-.051.615.11.917.234.453.35.54.952.253.333-.162.499-.069.614.176.104.215.13.462.066.71-.094.38-.045.547.44.524.397-.014.858.08.662.687-.067.215.143.288.306.375.172.09.48-.026.538.266-.06.065-.118.142-.194.207-.255.225-.588.439-.382.785.193.321.597.042.893.107.065.014.193-.073.264-.14.386-.357.783-.225.923.03.308.541.958.688 1.336 1.112.366.412.793.556 1.404.368.151-.046.337-.103.397.093-.04.143-.167.2-.277.275-.281.19-.487.436-.341.719.168.337.495.242.833.07.365-.181.749-.31 1.122-.493.797-.392 1.617-.792 2.523-.674-.189.368-.462.606-.772.822-.11.075-.141.222-.095.343.047.121.159.161.298.142.397-.053.766-.124 1.105-.43.806-.725 1.246-1.626 1.746-2.503.195-.34-.032-.523-.345-.575-.145-.022-.323.032-.48.063-.403.082-.512-.096-.484-.435.014-.192.12-.359.189-.54.295-.79.147-.92-.742-.669-.097.03-.193.048-.404.095-.025-.431-.458-.603-.356-1.026.134-.55-.125-1-.157-1.51-.018-.237-.098-.455-.343-.581-.43-.216-.822-.492-1.267-.675-1.036-.421-1.696-1.234-2.411-1.962-.753-.763-1.327-1.687-1.957-2.552-.203-.275-.468-.422-.797-.532-.5-.168-1.07-.097-1.576-.21-1.289-.296-2.434.117-3.44 1.104-.287.283-.586.567-.79.916-.2.338-.444.276-.609.049a68.39 68.39 0 0 0-1.09-1.462c-.928-1.192-1.601-2.54-2.112-3.973a.684.684 0 0 1-.028-.176c-.067-.984-.49-1.82-.924-2.636-.382-.718-.814-1.406-1.01-2.22-.132-.538-.433-.948-.993-1.153a4.265 4.265 0 0 1-2.212-1.772 2.578 2.578 0 0 0-1.551-1.136c-.982-.24-2.068-.222-2.95-.712-.127-.072-.387-.033-.557.133-.218.21-.109.4-.064.604.085.366.569.317.749.627-.612.493-.517 1.124-.569 1.727-.676-.05-.834.064-.899.617-.038.322.065.594.198.852.084.169.258.31.042.565-.442-.227-.806-.485-.986-.954-.121-.324-.354-.598-.532-.9-.14-.243-.322-.47-.67-.264-.322.192-.333.519-.158.737l-.027.02Zm30.46 21.051s.046.044.043.05c-.05.074-.093.076-.101.002 0-.012.039-.034.059-.052Zm-1.16-.606c-.063.325-.371.35-.624.387-.154.025-.268-.13-.182-.215.434-.414.323-.944.567-1.46.616.355.322.852.239 1.288Zm-1.58.604c.126-.03.195.106.124.249-.27.34-.672.442-1.04.603-.03.013-.11-.046-.133-.087-.02-.047-.027-.138.005-.17a2.35 2.35 0 0 1 1.038-.597l.005.002Zm-1.652-1.61c.006-.699.264-1.09.752-1.557.061.643-.06 1.084-.752 1.556Zm1.222-3.815c.216-.045.364.06.477.203.142.173.082.371-.13.462-.277.115-.253.456-.522.555-.304-.22-.06-.527-.065-.778-.005-.174-.047-.383.245-.44l-.005-.002Zm-2.625.873c-.087.022-.124-.013-.096-.09.036-.107.12-.123.213-.104.018.04.033.084.051.123-.057.021-.109.057-.168.071Zm.95-2.086c.251.11.11.345.001.548-.107.147-.196.397-.416.294-.225-.106-.139-.35-.022-.557.095-.171.229-.377.441-.283l-.005-.002Zm-2.435 2.531c.141-.037.263-.006.305.113.07.188-.036.355-.208.488-.125.095-.207.265-.407.246-.17-.07-.11-.243-.111-.384-.004-.256.173-.386.423-.455l-.002-.008ZM74.16 35.873c-.085-.035-.106-.133-.035-.224.142-.184.328-.35.55-.366.116-.01.103.176.038.309-.147.156-.286.372-.553.281Zm1.59-3.485c.093-.089.199-.153.334-.046.43.349.674 1.927.36 2.467-.108.216-.29.37-.495.496-.177.105-.38.226-.561.17-.218-.07-.149-.303-.109-.472a7.073 7.073 0 0 0 .231-2.096.689.689 0 0 1 .237-.513l.002-.006Zm-2.572 3.628c.043.05.064.16.03.223-.038.086-.15.11-.257.06-.056-.05-.054-.131.004-.21.059-.077.147-.155.223-.073Zm1.585-6.862c.218.555.296 1.173.591 1.715-.443.155-.535-.062-.605-.288-.12-.393-.222-.785-.341-1.179-.052-.161-.115-.39-.362-.276-.926.401-.501-.334-.659-.616.876-.104 1.121-.003 1.38.646l-.004-.002Zm-3.022 2.321.119-.066-.005-.002s.012-.001.027-.008c0 0 .015-.006.017-.012l.005.015-.01.022c-.07.315.093.611-.061.93-.01.02-.047.038-.072.053-.217-.466-.218-.504.134-.983l.007-.016c-.052.023-.101.04-.148.066l-.013.001Zm-1.598 2.596s.008.01.013.012l.005.014c.18-.02.365-.021.543-.075.478-.14.737.138.712.446-.03.421.136.738.21 1.1.027.138.022.32-.146.417-.17.102-.288.009-.401-.095-.508-.49-.79-1.103-.923-1.795-.01-.004-.025.003-.038.004l.033-.019s-.032.02-.027.021l.014-.032c-.28-.287-.38-.685-.56-1.034-.07-.136-.106-.317.064-.406.205-.113.388-.006.457.169.16.397.328.798.034 1.269l.01.004Zm2.725-6.093s-.04.143-.065.145c-.213.027-.351-.062-.469-.314.285-.055.438.015.534.169Zm-2.124 3.398c-.277-.271-.338-.69-.183-1.254.296.396.382.77.183 1.254Zm.674-5.034c.13.143.364.31.056.507-.229.154-.485.526-.806.146-.386-.459-.42-.435-1.287.017.165-.524.282-.903.406-1.298.72-.047 1.232.196 1.628.633l.003-.005Zm-2.782-.478c-.108-.064-.14-.178-.056-.297.087-.13.22-.107.33-.061.134.055.11.173.055.284-.107.134-.227.136-.33.074Z" fill="#66462C" fill-opacity=".1"/><path d="m71.894 31.405.018-.007-.013-.005-.005.012ZM52.803 69.483c.517.245.969.572 1.399.933 1.244 1.067 2.686 1.878 4.313 2.434 1.006.345 1.944.802 2.706 1.492.181.163.394.27.629.341.77.222 1.442.614 2.173.896.255.105.525.178.787.267.122.044.242.055.337-.09.109-.178.02-.272-.107-.37-.287-.22-.698-.172-1.031-.341-1.284-.65-2.484-1.406-3.716-2.118-.583-.336-1.223-.587-1.801-.946-.454-.283-1.064-.388-1.565-.67-1.267-.727-2.38-1.638-3.63-2.388-1.124-.674-2.114-1.49-2.878-2.518-.711-.962-1.572-1.75-2.702-2.305-.973-.483-1.995-.873-2.997-1.305-.425-.188-.739-.438-.983-.831-.607-.996-1.42-1.809-2.526-2.354a3.827 3.827 0 0 1-1.17-.928c-1.156-1.33-1.786-2.972-2.611-4.496-.553-1.024-.938-2.132-1.333-3.231-.136-.381-.407-.767-.102-1.38.76.772 1.416 1.501 1.791 2.446.29-.2-.041-.527.377-.641.485-.132.355-.42.18-.627-.168-.19-.406-.333-.625-.48-.386-.261-.602-.624-.704-1.068-.32-1.373-.705-2.73-.922-4.13-.171-1.097-.412-2.234.405-3.407.222-.323.217-.707.07-1.092-.75.365-.883 1.069-1.224 1.578-.908-.209-.96-.842-.853-1.555.084-.57.121-1.128-.035-1.703-.331.329-.288.64-.32.938-.109.847-.048 1.688-.437 2.553-.181.403-.367.963-.05 1.31.517.551.563 1.252.62 1.97.136 1.596 1.005 2.93 1.193 4.516.112.95.822 1.664.907 2.66-.333.175-.578.049-.841.093-.198.033-.417.045-.516.253-.111.221-.081.457.063.599.138.14.354.28.552.272.542-.019.77.279.97.648.26.49.562.952.81 1.442.992 1.957 2.176 3.738 4.278 4.795.518.258 1.03.66 1.224 1.218.408 1.174 1.477 1.615 2.58 1.98 1.867.617 3.46 1.528 4.64 3.002.735.92 1.544 1.809 2.68 2.353l-.005-.015ZM36.295 48.642c-.19.093-.274-.075-.38-.17-.324-.28-.399-.706-.56-1.071-.569-1.28-.617-2.688-.146-4.092.333.392.066.894.161 1.302.267 1.212.507 2.432 1.009 3.556.061.14.19.34-.076.472l-.008.003Zm38.159-23.335c1.54.622 3.23.918 4.878 1.482-.904.55-1.786.799-2.708.782-.323-.006-.63.046-.758.356-.145.335.015.586.342.715.055.022.113.052.17.07 1.015.284 1.61.963 1.973 1.857.074.177.175.321.41.259.347-.1.529.09.764.225.386.223.81.398 1.203.617.163.086.282.072.432-.064.19-.17.2-.338.05-.482-.102-.1-.242-.17-.372-.237-.45-.21-.72-.602-1.076-.902-.254-.213-.222-.454-.01-.73.1-.13.203-.28.34-.375.875-.64 1.382-1.546 2.07-2.313.11-.127.258-.27.072-.385-.137-.088-.232.057-.318.156-.588.65-1.208 1.279-1.759 1.95-1.017 1.237-.976 1-1.895.238-.043-.037-.079-.09-.114-.13-.237-.288-.188-.478.244-.568.605-.12 1.137-.436 1.693-.671.5-.215.592-.75.167-.938-.885-.39-1.778-.816-2.747-1.005a11.56 11.56 0 0 1-1.773-.482c-.647-.235-1.29-.506-2.098-.38.052.556.408.779.84.95l-.02.005Zm3.186 35.68c-.558-.326-1.299-.313-1.853-.713-.487-.354-1.062-.642-1.625-.931-.91-.465-2.035-.705-2.508-1.709-.033-.071-.138-.114-.223-.136a38.74 38.74 0 0 0-1.81-.428c-.254-.054-.44.111-.547.348-.108.242.064.332.23.4.11.045.244.088.365.068.618-.096 1.089-.023 1.202.622.018.117.21.19.338.261.153.095.345.155.153.452-1.083-.345-2.253-.496-3.401-.708-1.042-.187-2.188-.01-3.192-.385.2.744.89.761 1.527.82 1.27.115 2.564.146 3.742.517 1.238.395 2.656.483 3.646 1.337.093.083.21.086.34.102.681.077 1.354.188 1.912.54.073.049.164.137.235.058.48-.503.818-.121 1.212-.023.272.068.605.447.836.065.28-.465-.329-.429-.574-.568l-.005.01Zm-.258-13.915c-.094-.12-.302-.054-.434-.102-1.536-.563-3.15-1.005-4.273-2.182-.907-.947-1.608-2.05-2.411-3.07-1.034-1.311-1.923-2.748-3.02-4.022-.81-.939-1.5-2-2.79-2.583-.093-.057-.241-.163-.406-.23-.15-.063-.323-.02-.448.127-.142.17-.184.357-.036.5.083.08.208.118.298.194 1.668 1.298 3.24 2.691 4.452 4.408 1.12 1.582 2.327 3.1 3.525 4.625 1.3 1.657 3.27 2.24 5.312 2.77.138.037.291.01.334-.112.031-.095-.03-.235-.093-.319l-.01-.004ZM97.67 86.007c.989.293 1.933.643 2.865 1.034.315.13.473.437.841.487 1.489.193 2.751.956 4.337.934.439-.004.861.113 1.33.07.516-.042 1.027.022 1.518.116.396.08.802.153 1.219.159 1.668.031 3.348-.015 4.973.228.466.07.943.09 1.421.108.157.007.364-.06.402-.236.042-.186-.135-.24-.306-.24-.353.007-.74.102-1.061.027-1.277-.297-2.611-.331-3.961-.346-2.187-.022-4.241-.5-6.355-.791-1.989-.278-3.807-.964-5.623-1.642-1.019-.382-2.178-.465-3.18-.91.228.731.965.818 1.576 1l.005.002ZM52.734 41.449s.002-.006 0-.013c-.003.005.005.015.008.022.284-.831-.039-1.576-.059-2.361-.024-.896-.311-1.734-.504-2.596-.491-2.216-.948-4.442-1.432-6.66-.106-.477-.254-.94-.613-1.285-.236.393-.154.752-.08 1.126.417 2.21.838 4.41 1.352 6.589.381 1.603.837 3.186 1.063 4.846.02.154.157.281.246.413a.311.311 0 0 0 .02-.068l-.004-.008.003-.005Zm-2.543-12.52c.135.808.297 1.607.474 2.4-.008-.023-.013-.05-.021-.073-.204-.746-.36-1.53-.453-2.326Zm.947 4.537c.163.73.327 1.46.473 2.19.059.29.117.582.183.87-.259-1.004-.454-2.034-.654-3.065l-.002.005Z" fill="#66462C" fill-opacity=".1"/><path d="m50.12 28.54.017.02.013-.03-.03.01Zm2.612 13.01s-.01-.017-.015-.019l-.014.032.014-.007.005.002.01-.008Zm38.131-10.162c1.09-.792 1.987-1.824 3.102-2.62.426-.301 1.008-.596 1.044-1.295-.612.136-1.158.217-1.516.764-.131.2-.356.305-.566.429-.806.476-1.423 1.165-2.073 1.795-1.195 1.157-2.368 2.33-3.636 3.412-.565.48-1.07.986-1.463 1.582.703-.258 1.165-.852 1.753-1.265 1.197-.844 2.162-1.937 3.353-2.81l.002.008Zm-5.103 4.077-.048.02s.014.027.011.033c.008-.017.03-.036.037-.053ZM49.646 33.4c-.255-1.105-.54-2.185-1.077-3.285-.093.815 1.74 10.17 2.054 10.682.07-.023.134-.047.203-.07-.168-1.037-.32-2.08-.508-3.114-.25-1.395-.358-2.829-.672-4.213Zm18.586 8.939c-.977-.581-1.578-1.536-2.504-2.179a6.156 6.156 0 0 1-1.038-.918c-.111-.122-.31-.261-.123-.452.422-.438.067-.425-.22-.473-.281-.046-.553-.1-.84-.136-.246-.031-.456.054-.57.307-.093.21-.017.343.134.469.341.28.654.588 1.002.852 1.12.857 2.26 1.683 3.371 2.543.259.202.502.385.905.385.079-.267-.012-.342-.117-.398Zm10.621 13.653a.722.722 0 0 0-.216-.153l-3.993-1.684a2.162 2.162 0 0 0-.527-.16c-.17-.019-.32.079-.4.243-.074.154-.087.314.048.408.146.099.32.158.476.247.528.288 1.155.381 1.744.547.693.197 1.18.684 1.844.92l.59.242c.19.079.39.053.522-.135.134-.193.035-.355-.084-.486l-.004.01Zm-40.077-6.424.193-.074c-.594-2.105-1.19-4.204-1.785-6.31l-.215.084c.236 2.244.739 4.381 1.813 6.302l-.005-.002Zm41.081 12.913c-.032.07-.065.145-.102.213.463.26.885.6 1.402.756.464.14.687.264.53.798-.072.25.09.591.378.595.4.006.392-.386.456-.646.068-.284.072-.556-.124-.765-.656-.69-1.657-.702-2.538-.944l-.002-.007Zm31.739 31.143s.031.051.043.076l-.043-.076c-.981-.175-2.025-.159-2.927-.563-.193-.085-.436-.084-.599.2.859.462 1.816.678 2.864.677.279 0 .53-.005.665-.319l-.003.005Zm-.868.101Zm16.935-46.315c-.313-.422-.885-.428-1.369-.577-.467-.148-.833-.586-1.556-.347.942.515 1.953.664 2.925.924Zm-14.118 46.553-.01-.03-.022.01c.01.005.025.01.032.02Z" fill="#66462C" fill-opacity=".1"/><path d="M111.6 93.627c.527.447 1.124.66 1.912.317-.541-.39-1.301-.148-1.912-.317Zm.678.19c.159.015.316.022.473.042l-.473-.042ZM88.873 81.28c.35.182.658.341 1.106.57-.242-.516-.61-.707-1.106-.57Zm41.844-32.95c-.552-.419-1.069-.44-1.56-.496-.045-.005-.13.132-.199.206.516.078.981.321 1.759.29Z" fill="#66462C" fill-opacity=".1"/><path d="M128.957 48.034a1.208 1.208 0 0 1-.1-.087l.108.096-.003-.007-.005-.002Zm-4.008 41.122a.195.195 0 0 0 .177-.194c-.002-.103-.087-.176-.186-.153-.355.076-.704.181-1.053.273.352.272.72.099 1.06.08l.002-.006ZM83.713 31.378c-.24.239-.572.343-.717.679.328-.133.62-.305.717-.68Zm39.089 58.008c.115.047.246.044.326-.095.076-.129.022-.246-.097-.283-.112-.04-.243-.01-.343.108-.071.143.005.225.114.27Zm3.405 3.434c-.355-.33-.672-.06-1.026-.155.309.262.613.138 1.026.155Z" fill="#66462C" fill-opacity=".1"/><path d="m128.848 47.949-.02-.008.024.01c.04.016.075.044.096.077-.068-.244-.054-.551-.447-.529-.018 0-.052.037-.057.06-.085.335.224.303.404.39Zm-3.366 40.643c.379.093.7-.094.921.1-.218-.2-.437-.385-.921-.1Zm.534-.067c.055.023.115.022.177.028-.067.005-.137.014-.177-.028ZM85.724 35.511l-.01-.029s-.005.023-.004.036c0 0 .01.004.012-.001l.002-.006Z" fill="#66462C" fill-opacity=".1"/><path d="M85.712 35.513c-.267.05-.516.125-.597.544.262-.223.581-.244.597-.544Zm41.188 57.15-.006-.03-.006.012c.006.002.009.01.014.027l-.002-.009Zm-.424.103c.157.116.288-.003.409-.125-.065-.135-.169-.21-.349-.1-.092.058-.14.166-.06.225Zm-15.147-33.738c.066.053.168.025.25-.037.076-.052.09-.11.015-.14-.07-.03-.176-.073-.238-.041-.085.041-.095.158-.032.216l.005.002ZM52.725 41.555l-.018.008.025.01.008-.02-.009.004-.006-.002Z" fill="#66462C" fill-opacity=".1"/><path d="M52.731 41.563c-.05.151-.026.283.11.364.01.005.115-.067.124-.102.04-.181-.076-.242-.234-.262Zm78.851 7.214-.076-.004.05.048.026-.044Zm-7.935 9.424s-.006-.054-.011-.081c-.05.017-.12.027-.14.057-.017.038.007.093.01.139.078 0 .127-.044.141-.115Zm12.194 31.122-.005-.03-.046.001a.21.21 0 0 1 .051.029Zm-.104-.023s.037.001.053-.006a.438.438 0 0 1-.08-.046c.005.016.011.045.024.044l.003.008Zm-37.706 18.861c-1.082-.293-1.81-1.097-2.86-1.465 1.17-.455 2.125.136 3.356.083-.264-.306-.482-.389-.772-.337-.399.071-.62-.045-.597-.45.026-.454-.414-.489-.718-.525-1.854-.223-3.567-.814-5.412-1.084-.617-.089-1.275-.246-1.765-.645-.178-.144-.433-.197-.704-.201-.392-.009-.712-.153-1.047-.304-.485-.213-.9-.62-1.545-.503-.695.121-1.321-.105-1.797-.352a3.894 3.894 0 0 0-1.748-.472 7.088 7.088 0 0 1-2.207-.426c-1.159-.427-2.33-.336-3.504.244-.671.335-1.108.174-1.598-.054-.19-.091-.356-.223-.558-.287-1.66-.537-2.98-1.54-4.288-2.531-1.285-.976-2.504-2.02-3.934-2.832-.192-.111-.375-.18-.613-.164-.13.01-.259-.004-.356.12-.118.156-.123.313-.005.42.332.29.472.767.907.934 1.189.464 2.003 1.354 2.965 2.075 1.699 1.267 3.415 2.497 5.48 3.304 1.12.436 2.437.667 3.13 1.723.043.062.155.089.245.113.598.158 1.175.377 1.797.455 2.129.272 4.178.76 6.256 1.157 1.52.296 2.965.796 4.497 1.09 1.21.231 2.236.902 3.56.881.281-.005.59.046.81.175.799.463 1.812.358 2.687.598.294.083.52-.022.637-.311.113-.278-.09-.381-.311-.441l.012.012Zm-1.582-2.226c.072.011.085.048.049.116l-.156.057c.009-.047.013-.096.028-.142.007-.016.056-.033.079-.031Zm-12.457-1.854c-1.677-.474-3.526-.523-5.157-1.099-.489-.176-1.125-.133-1.488-.576.292-.255.544-.157.776-.119 2.396.389 5.486 1.223 6.102 1.63-.045.102-.141.183-.231.159l-.002.005Zm4.73 1.192c-.138-.025-.162-.169-.094-.293.088-.155.22-.146.308-.052.25.275.732.136 1.086.429-.556.197-.91-.019-1.3-.084Zm1.43-.442c.222-.087.38-.149.509-.052.027.018.029.12.011.132-.192.125-.356.095-.52-.08Zm1.284.306c.419-.076.797-.047 1.234.298-.553-.062-.837-.313-1.234-.298Zm1.562.28c.06-.108.155-.082.225-.04.038.022.036.091.057.138-.062.006-.127.018-.189.024-.033-.046-.103-.1-.091-.127l-.002.005Zm-.588 1.968c-.032.032-.11.019-.166.028-.083-.054-.092-.14-.03-.223.009-.022.12-.02.166-.002.09.037.133.113.035.2l-.005-.003Zm1.617-1.715c-.008-.074.051-.113.118-.079.046.019.08.059.124.096-.05.03-.099.086-.14.088-.04-.004-.094-.057-.1-.098l-.002-.007Zm.241.73c-.118.078-.235.075-.32-.011-.064-.058-.06-.171.029-.211.069-.035.181-.008.256.023.065.026.163.086.042.195l-.007.004Zm.458-.493.008-.016s-.003.005-.01.009l-.003.005-.005-.002c-.005-.028-.005-.053-.01-.081.005.028.007.048.013.075a.026.026 0 0 1 .012-.014 3.04 3.04 0 0 0 .084-.213c.045.018.083.04.125.064l-.192.15a.091.091 0 0 1-.027.034l.005-.011ZM72.504 95.488c1.295.782 2.466 1.736 4.066 2.09.404.09.757.146 1.21.06 1.248-.245 2.44-.225 3.586.152.517.168.98.55 1.837.394-.585-.451-1.05-.828-1.541-1.17a1.668 1.668 0 0 0-.968-.285c-1.094-.004-2.122-.34-3.269-.054-.119.028-.258-.004-.373-.039-1.155-.342-2.28-.724-3.251-1.385-1.733-1.166-3.546-2.206-5.654-2.827-1.878-.551-3.499-1.493-4.965-2.645-.46-.361-.96-.682-1.455-1.007-.12-.075-.3-.137-.444.027-.135.155-.043.294.057.4.63.68 1.226 1.384 2.019 1.914.907.603 1.851 1.152 2.883 1.584 1.092.456 2.22.832 3.34 1.242 1.048.381 1.985.984 2.927 1.55l-.005-.001Zm44.606 13.33s.014-.016.022-.019a.05.05 0 0 0-.03-.006l.008.025Z" fill="#66462C" fill-opacity=".1"/><path d="M114.839 110.77c1.404-.186 2.398-1.369 3.7-1.698 1.737-.437 3.213-1.548 4.355-2.944.433-.528 1.025-.463 1.482-.873.956-.861 2.271-1.166 3.239-2.028.096-.082.257-.098.37-.166.986-.612 1.967-1.227 2.904-2.032-.582-.17-.945.203-1.365.361-1.236.458-2.462.959-3.543 1.743-2.068 1.492-4.374 2.592-6.407 4.136-.224.169-.466.273-.713.401-.612.321-1.267.579-1.737 1.124.352.075.584-.218.868-.362.269-.137.513-.431.992-.31-.76.584-1.508.957-2.218 1.378-.151.085-.63.664-.549-.124.018-.158-.832.192-.716.342.293.363-.089.409-.253.59-.132.149-.48.146-.411.467l.002-.005ZM68.564 89.482c.34.427.642.876 1.104 1.22.514.383 1.201.437 2.034.85.436.072 1.028.494 1.775.624 1.661.283 3.256.768 5.015.754.196-.001.382.113.478-.14.077-.198-.062-.325-.234-.415-.4-.216-.864-.292-1.325-.387-1.313-.267-2.474-.86-3.817-1.089-.911-.159-1.765-.473-2.607-.8-.67-.264-1.245-.59-1.716-1.071-.166-.17-.355-.357-.648-.127-.236.183-.186.427-.062.586l.002-.005Zm12.789 9.665c-.09.32.186.363.44.43 1.364.352 2.75.63 4.06 1.126 1.47.554 3.044.91 4.59 1.331.95.258 1.916.471 2.87.718.287.074.543.045.929-.261-1.227-.301-2.365-.535-3.456-.863-1.38-.41-2.796-.777-4.054-1.378-1.043-.5-2.082-.929-3.27-1.119-.493-.076-.953-.265-1.446-.34-.234-.034-.568.051-.651.355l-.012.001ZM45.449 76.24c.05.295.104.585.066.894-.097.718.02 1.39.166 2.043.423 1.92.638 3.893.986 5.833.236 1.307.329 2.657.523 3.98.07.462.262.891.4 1.336.077-.025.148-.053.225-.079-.538-5.037-1.65-9.934-1.93-15.177-.473.671-.51.726-.434 1.165l-.002.005Zm11.933 5.091c-.111.037-.217.076-.329.113.054 1.277.443 2.456.734 3.666.287 1.195.643 2.367.952 3.551.308 1.185.345 2.487 1.087 3.512.045-1.312-.326-2.516-.593-3.728-.521-2.4-1.226-4.748-1.853-7.108l.002-.006Zm40.851 33.499c.196.182.463.235.776.224 1.038-.044 2.079-.264 3.118-.416.293-.045.574-.183.762-.431.045-.179.013-.319-.127-.402a1.372 1.372 0 0 0-.89-.182c-.903.112-1.811.209-2.703.178-.187-.007-.392.043-.583.098-.48.146-.668.642-.353.931ZM50.702 92.582c-.26.154-.399.332-.325.617.157.626.126 1.288.082 1.952-.016.248.066.447.417.496-.058-1.056-.116-2.06-.174-3.065Zm-.017.024a.992.992 0 0 0-.158.496.54.54 0 0 1 .157-.496Zm-.053 1.106c.063.255.121.509.02.786.098-.285.02-.533-.02-.786Zm2.721.411c-.165.078-.315.226-.246.35.185.325-.066.859.459 1.088.24-.602-.221-.958-.215-1.433l.002-.005Zm-.001-.007-.003.006s.012-.01.018-.007l-.021-.002.006.003Z" fill="#66462C" fill-opacity=".1"/><path d="M116.659 109.158c.079.09.243.004.324-.109.049-.069.07-.156.104-.232-.083-.002-.171-.019-.245.014-.159.062-.325.179-.185.332l.002-.005Zm.438-.369-.012.026c.006.003.012.006.021.001l-.009-.027Zm5.691-33.538c-.923.314-1.802.741-2.751.994-2.278.615-4.488 1.672-6.833 1.922-.285.029-.403.184-.432.42 1.341-.268 2.691-.228 4.039-.71 1.452-.517 2.963-.677 4.443-1.15 2.334-.739 4.515-1.744 6.549-3.148.172-.12.324-.286.522-.186.483.244.572-.153.65-.432.234-.891.596-1.774.604-2.675-.01.009-.022.023-.032.031-.232.555-.371 1.128-.55 1.685-.236.75-.72 1.142-1.367 1.436-.042.027-.077.051-.124.076-1.98 1.114-4.009 1.978-6.082 2.69.539-.198 1.068-.4 1.61-.59.437-.158.69-.417.787-.79-.089-.158-.112-.41-.08-.76.086-.875.42-1.737.483-2.603l-.005-.002a6.882 6.882 0 0 0-.68 2.872c-.02.597-.261.752-.756.918l.005.002Zm-5.743 2.25c.68-.21 1.363-.425 2.055-.58.183-.038.356-.094.537-.14-.856.258-1.723.5-2.592.72Z" fill="#66462C" fill-opacity=".1"/><path d="M124.244 71.478c.026.036.046.07.072.106-.04.301-.088.607-.136.912.029-.065.048-.133.082-.196.131-.264.233-.598-.013-.833l-.007.016.002-.005Zm5.299-1.153.032-.07c-.018.037-.032.07-.057.099.005-.011.02-.018.03-.027l-.005-.002Zm.036-.066.002-.034-.011.023.011.005-.002.006Zm-.536 1.151c.011-.065.028-.128.037-.188-.152.338-.287.678-.471 1.01-.34.61-.781.92-1.407.968-.263.019-.436.087-.615.25-.732.678-1.682.841-2.476 1.265-.183-.094-.194-.226-.166-.342.085-.334.08-.667.089-1.002-.067.412-.129.827-.173 1.241a1.467 1.467 0 0 1-.042.212c.145.258.478.255 1.056.009.885-.374 1.675-.947 2.565-1.306.064-.025.124-.051.185-.083.935-.564 1.235-1.192 1.418-2.034Zm-4.8.066-.013-.037c-.002.006-.007.016-.004.024.005.002.007.009.015.018l.002-.005Zm4.913 6.648c-.481.146-.984.187-1.446.45-1.231.696-2.583 1.004-3.883 1.405-1.47.452-2.991.634-4.488.934-.136.026-.26.052-.331.195.063.242.283.161.467.135 1.111-.154 2.228-.438 3.33-.558 2.057-.215 3.985-1.039 5.957-1.685.208-.067.379-.277.566-.429.111-.088.196-.2.14-.325-.054-.117-.156-.166-.307-.12l-.005-.002Zm2.968-4.966c.052-.01.15-.098.145-.112-.152-.49.309-1.083.009-1.545-.006.132-.029.262-.047.395.013-.135.036-.265.042-.397-.013-.024-.025-.048-.045-.07-.227.531-.151 1.072-.291 1.607-.034.114.09.14.187.122Zm.09-1.754.017.026.014-.031-.012.001-.019.004Zm-9.57-4.771c-.089.346-.171.688-.305 1.212.457-.474.554-.823.503-1.2l-.198-.012Zm9.896 3.825-.007-.003-.005.013s.005-.013.012-.01Zm-.298.913s.025-.028.032-.044c0 0 .005-.01 0-.026-.003.006 0 .013.003.02.198-.268.08-.59.251-.864-.366.27-.368.58-.283.909l-.003.005Zm.106-.287c.01-.156-.028-.311.038-.456-.066.145-.031.306-.038.456Z" fill="#66462C" fill-opacity=".1"/><path d="m132.235 71.4.01.004.005-.01s0-.013-.003-.02c-.005.01-.009.02-.026.032l.014-.007Zm-15.245 9.908c-.116-.06-.245-.025-.364.041-.057.034-.059.091.009.125.116.048.243.017.369-.039.05-.043.054-.093-.014-.127Zm-2.897-8.601c.062-.058.044-.097-.046-.096-.03 0-.058.021-.088.034.016.02.031.038.044.063.03 0 .078.013.09-.001Zm2.124-2.176-.022.01.034.014-.012-.024Z" fill="#66462C" fill-opacity=".1"/><path d="M116.037 70.598c.055-.016.107-.04.162-.055-.038-.022-.078-.051-.119-.068-.08-.033-.153-.095-.255-.016-.017.012-.026.06-.016.076.044.089.134.087.228.063Zm-3.463 7.762c-.075-.017-.176-.072-.214.053-.033.101.067.13.154.147.083.014.17.019.26.03-.021-.11-.077-.198-.195-.227l-.005-.002Z" fill="#66462C" fill-opacity=".1"/><path d="m112.769 78.61.008-.02-.006-.002.007.017-.009.004Zm4.661 2.763.059-.03-.044-.032-.015.062Zm-28.958-9.942s-.008-.038-.014-.054l-.031.07.043-.01.002-.006Zm-.022-2.159c.065.79-.177 1.474.008 2.105.346-.718.37-1.39-.008-2.105Zm.08 3.733c.277-.446.198-.683 0-.905-.223.284-.13.527 0 .905Zm.004-.933c.184-.25.119-.436-.061-.594-.022.209-.23.46.061.594Z" fill="#66462C" fill-opacity=".1"/><path d="M88.523 72.092s.012.005.014.013a.064.064 0 0 1 .02-.028l-.023-.009a2.19 2.19 0 0 0-.01.024Zm-.092-.655.041.038c.008-.018.002-.034.005-.053l-.043.01-.003.005Zm4.743 2.789-.006-.03-.006-.003.009.04.003-.007Z" fill="#66462C" fill-opacity=".1"/><path d="M93.171 74.192c-.102.226-.129.419.123.51l.01-.022a1.089 1.089 0 0 1-.138-.49l.005.002Zm.142.471s.005.014.01.017c.005-.011.002-.03.002-.043l-.012.026Z" fill="#66462C" fill-opacity=".1"/><path d="M93.21 74.246s-.015-.018-.025-.035l-.008.016.035.014-.002.005Zm.092.432s.007.022.015.03l-.003-.044-.008.016-.004-.002Zm44.008-12.521-.022-.023-.035.006.057.017ZM71.894 31.391l-.022.01-.017.011.036-.003.008-.016-.005-.002Z" fill="#66462C" fill-opacity=".1"/></svg>