<svg width="307" height="245" fill="none" xmlns="http://www.w3.org/2000/svg"><path d="M127.624 198.896c-.012.004-.024.007-.044.025-.023.057 0 0 .044-.025Zm97.985-124.762.112.15.011-.003c-.037-.05-.086-.097-.123-.147Zm-.106-.097c.003.01.017.026 0 0Zm-5.615 1.636s.006-.026.014-.042c-.012.004-.027-.005-.054-.01.007.023.022.032.04.052Zm17.897 30.345c-.049-.047-.075-.1-.112-.149l-.101.027a.303.303 0 0 1 .216.134l-.003-.012Zm-202.323 8.361-.007-.026s-.013.003.004.013l.003.013Zm-2.144-.082s-.02-.022-.036-.032c0 0 .007.026-.006.029l.051-.013-.01.016ZM183 107.946s-.031.008-.049.024l.064.028-.017-.063.002.011Zm41.97-56.956s-.021.018-.026.045l.026-.045Z" fill="#66462C" fill-opacity=".1"/><path d="M35.46 114.375s.04.013.12.029c-.007-.023-.024-.043-.028-.054-.043.024-.066.03-.08.021l-.012.004Zm25.736 9.024s-.128-.074-.177-.121c.049.047.117.077.174.11l.003.011Z" fill="#66462C" fill-opacity=".1"/><path d="M279.936 73.67c-.719-3.316-2.331-6.121-3.804-8.997-.829-1.618-1.741-3.247-3.321-4.198-1.445-.873-1.963-2.552-2.877-3.851-.77-1.1-1.378-2.357-2.746-2.558-1.439-.216-2.43-.916-3.248-2.026-.231-.312-.648-.473-.996-.675-1.311-.796-2.799-1.363-3.701-2.7-.596-.873-1.148-1.793-2.026-2.364-2.477-1.596-5.05-2.962-8.029-3.56-2.407-.492-4.724-1.109-6.482-3.023-.749-.81-1.747-1.45-2.763-2.03-2.001-1.133-4.263-1.8-6.153-3.065-1.933-1.299-4.18-1.276-6.354-1.534-2.268-.266-4.563-.424-6.761-.982-3.96-1.005-8.028-1.608-12.204-1.477-3.412.108-6.801.221-10.181.07-2.405-.104-4.851.063-7.299.73-.633.17-1.291.164-1.95.114-2.335-.18-4.751.057-7.032-.512-.389-.1-.867-.109-1.246.038-.862.333-1.691.238-2.483.154-1.04-.119-2.051-.006-3.031.392-2.025.85-4.147 1.169-6.17 2.028-.7.302-1.491.434-2.297.468-1.668.072-3.331.37-5.013.39-1.748.025-3.156 1.402-4.656 2.27-.746.426-1.583.764-2.225 1.413-2.823 2.857-6.048 5.186-8.912 7.975-.673.658-1.16.698-1.905.284-2.43-1.337-5.242-1.48-8-1.593-3.236-.12-6.52.089-9.796.876-.348.093-.779.05-.926-.331-.654-1.721-2.214-1.712-3.578-1.313-1.238.366-2.318.224-3.279-.154-1.205-.484-2.275-.379-3.434.283-.53.302-1.002.485-1.467.019-.788-.788-1.8-.676-2.845-.396-1.225.328-2.415.283-3.406-.416-.669-.468-1.35-.433-2.171-.327-1.358.17-2.725.39-4.062-.036-1.051-.332-2.254-.259-3.316.468-1.615 1.114-3.377 1.678-5.163 2.11-.85.206-1.589.62-2.352 1.108-.947.606-1.847 1.346-2.947 1.675-2.304.697-4.572 1.487-6.161 3.752-.36.517-.965.838-1.53 1.137-2.424 1.263-4.562 2.914-6.288 5.217-1.423 1.914-2.737 3.981-4.81 5.286-.137.082-.18.344-.3.49-1.124 1.254-1.976 2.72-2.893 4.113-.987 1.514-2.198 2.826-3.792 3.47-2.737 1.107-4.663 3.213-6.38 5.548-1.877 2.547-3.607 5.213-6.134 7.151-1.858 1.43-3.555 3.167-5.731 4-.741.278-1.52.453-2.274.768-1.056.454-2.048 1.06-2.72 2.058-1.303 1.94-3.218 3.372-4.327 5.486-.133.263-.475.423-.68.67-1.68 1.972-3.483 3.648-4.04 6.557-.607 3.184-1.723 6.413-3.264 9.449a7.513 7.513 0 0 0-.66 2.017c-.388 2.182-.761 4.383-1.036 6.569-.43 3.465-1.256 6.844-2.674 10.131-.183.413-.391.82-.346 1.285.209 2.216-.39 4.375-1.13 6.515-.46 1.327-.459 2.553.014 3.812.755 2.013 2.056 3.572 3.432 5.032 3.155 3.367 6.417 6.627 9.653 9.917.483.495.999.981 1.588 1.323 2.59 1.509 5.202 2.978 7.686 4.686.443.302.965.389 1.446.578 1.314.511 2.889.135 4.12.759 1.215.606 2.501.885 3.812 1.17 1.765.379 3.45 1.131 5.214 1.42 2.25.373 4.308 2.093 6.918.679.139-.072.355-.027.525.018 1.123.301 2.333.34 3.342.978.638.397 1.357.67 2.137.711 1.617.078 3.114.551 4.644.936.922.23 1.51.652 1.9 1.558.473 1.088 1.117 2.097 2.34 2.439.344.101.67.263.697.699.064 1.039.636 1.317 1.58 1.121.46-.1.755.241 1.131.379 1.711.597 2.792 2.011 4.046 3.186 2.234 2.081 4.36 4.271 6.315 6.666 1.464 1.788 2.903 3.651 5.064 4.662.31.144.58.39.826.631 1.635 1.583 3.521 2.747 5.704 3.457 1.054.342 1.937.935 2.541 1.965.648 1.11 1.598 1.991 2.648 2.698.773.519 1.428 1.15 2.127 1.769 1.711 1.529 3.407 3.085 5.902 3.313.861.088 1.703.441 2.289 1.147.42.512 1.014.785 1.64.924 2.33.5 4.485 1.319 6.38 2.731.256.192.674.273 1.01.217 1.301-.212 2.474.11 3.67.391.677.159 1.419.437 2.077.273 1.466-.359 2.633.191 3.694.815 1.989 1.171 4.169 1.234 6.456.985.604-.071 1.185-.057 1.783-.024 1.482.08 2.958.014 4.426-.675.974-.465 1.935-.722 2.976-.388 1.08.358 2.215.156 3.335-.439 1.317-.705 2.66-.974 4.015-.52 1.033.348 2.171.327 3.162-.2 1.939-1.042 3.902-1.363 5.927-1.327 2.022.026 4.094-.438 6.08-.379 1.722.049 3.007-.227 4.143-1.86.761-1.09 1.841-1.788 3.183-1.557a2.278 2.278 0 0 0 1.756-.414c1.242-.901 2.631-1.42 3.99-1.841.995-.301 1.937-.883 2.976-.934 3.396-.172 6.508-1.823 9.572-3.36 1.607-.805 3.189-1.07 4.724-1.084 1.186-.011 2.268-.199 3.331-.665 2.354-1.017 4.695-2.042 7.149-2.643 2.187-.54 4.109-1.816 6.076-2.968.596-.353.897-.921 1.221-1.485.847-1.488 1.824-2.828 3.294-3.722.769-.467 1.386-1.121 1.946-1.862.469-.614.929-1.35 1.54-1.73 1.743-1.057 2.981-2.604 4.098-4.266.657-.971 1.577-1.763 1.99-2.884.762-2.101 2.14-3.844 3.301-5.723a13.463 13.463 0 0 0 1.596-3.675c.433-1.593 1.073-3.263 2.256-4.636 1.703-1.967 3.048-4.213 4.074-6.555 1.609-3.667 3.235-7.317 5.233-10.805.208-.363.252-.704.251-1.09.035-2.11.503-4.121 1.827-5.94.233-.313.325-.689.481-1.038 1.107-2.499 1.873-5.135 3.458-7.456.349-.514.864-1.129.899-1.672.15-2.232 1.255-4.232 1.804-6.366.147-.551.299-1.08.348-1.661.159-1.939.67-3.836 1.954-5.464.693-.878 1.298-1.79 1.75-2.808.153-.359.465-.715.27-1.06-.567-1.018.036-1.6.829-2.187 2.305-1.708 3.736-4.226 5.552-6.405 1.286-1.537 2.04-3.33 2.757-5.089.568-1.39 1.53-2.613 1.871-4.044.566-2.366 1.394-4.644 2.352-6.9.096-.23.222-.479.215-.716-.005-2.849.56-5.77-.07-8.544-.203-1.138-.189-2.311-.435-3.438l-.057.038Zm-60.604-39.602c-1.053.635-1.431.702-3.41.119-1.106-.328-2.471.197-3.375-.81 2.356-.291 4.633-.242 6.785.691Zm-96.895 12.165c-.587.68-1.212.631-2.102.688.727-.876 1.315-1.09 2.102-.688Zm-52.59 122.502c-.892-.204-1.75-.53-2.578-.876-1.863-.784-3.752-1.244-5.843-.218-.35.174-.852.16-1.17-.015-1.801-1.017-4.053-.505-5.958-1.277-1.235-.51-2.69-.495-3.96-1.051-.987-.429-2.036-.795-3.161-.937-3.01-.374-5.32-2.151-7.784-3.615-.874-.515-1.621-1.235-2.717-1.396-.45-.072-.824-.369-1.108-.713-1.812-2.241-4.081-3.949-6.168-5.866-2.443-2.23-4.94-4.491-6.668-7.435-.875-1.492-1.124-3.265-.57-5.173.506-1.783 1.17-3.573.904-5.41-.045-.295.029-.78.18-1.059 1.86-3.542 2.224-7.376 3.013-11.108.186-.867.3-1.75.397-2.616.263-2.569.964-4.937 2.11-7.334.996-2.072 1.454-4.376 2.143-6.582.943-3.069 2.455-5.791 4.783-8.004.462-.43 1.194-1.16 1.581-1.662 1.44-1.806 2.806-3.682 4.72-4.99.317-.21.607-.48 1.005-.473 2.163.045 3.71-1.574 5.373-2.803.812-.604 1.504-1.402 2.348-1.97 1.843-1.231 2.84-3.304 4.378-4.829 1.514-1.53 2.421-3.51 3.912-5.046.69-.719 1.406-1.342 2.273-1.699 1.889-.767 3.353-2.273 5.05-3.375.26-.172.476-.422.6-.717.83-1.846 2.164-3.374 3.228-5.067.611-.97 1.576-1.512 2.353-2.288 1.506-1.517 2.663-3.326 4.213-4.809.958-.904 1.968-1.697 3.083-2.223 1.355-.647 2.442-1.62 3.28-2.843 1.012-1.464 2.609-2.221 4.244-2.33 1.068-.07 1.899-.645 2.74-1.268 1.246-.924 2.573-1.632 4.043-1.935 1.641-.338 3.108-1.287 4.654-1.94.64-.273 1.266-.555 1.937-.417.866.189 1.777.126 2.662.048 1.629-.13 3.19-.219 4.65.582.782.427 1.859.263 2.815-.016.715-.203 1.277-.092 1.844.29 1.017.67 2.048.927 3.304-.09.865-.698 2.652-.325 3.276.44.219.27.167.58-.121.815-.196.155-.45.348-.644.343-1.254-.073-2.501.216-3.76.417-.511.08-1.017-.204-1.536-.281-2.104-.334-4.227.406-6.299.87-2.806.638-5.562 1.592-8.337 2.472-1.91.603-3.913.776-5.771 1.785-2.315 1.245-4.7 2.361-6.965 3.706-2.011 1.198-3.934 2.599-5.836 3.994-.767.558-1.373 1.254-1.396 2.396-.024 1.471-1.132 2.45-2.187 3.243-1.393 1.055-2.673 2.193-3.77 3.589-.84 1.053-1.964 1.798-2.772 2.923-1.306 1.803-3.197 2.855-4.945 4.107-2.96 2.133-6.094 4.04-8.776 6.622-1.62 1.558-3.143 3.227-4.696 4.87-.107.107-.15.369-.11.517.074.276.35.338.577.21a3.65 3.65 0 0 0 .903-.686c1.945-2.077 4.187-3.723 6.445-5.395 1.097-.805 2.065-1.882 3.258-2.543 1.687-.928 3.12-2.3 4.932-3.058 1.445-.604 2.7-1.837 3.87-3.048 2.189-2.267 4.067-4.848 6.609-6.767 1.349-1.01 2.637-2.285 2.83-4.223.067-.642.681-1.136 1.206-1.458 1.557-.951 2.922-2.362 4.434-3.142 2.24-1.145 4.364-2.555 6.633-3.594.855-.4 1.447-.093 1.48.875.047 1.487.127 3.01-.192 4.48-.42 1.942-.558 3.875-.832 5.811-.267 1.877-.483 3.775-1.015 5.633-.127.454-.337.896.298.987.543.082.575-.392.627-.747.76-4.428 1.725-8.855 2.06-13.306.098-1.241.708-2.472.397-3.717-.116-.435.154-.905.596-.989 1.562-.294 2.983-1.288 4.644-1.551.23 1.154-.185 2.264-.488 3.333-.342 1.216-1.963 1.208-2.368 2.486.085.102.157.287.288.354 1.507.766 1.472.764 1.217 2.514-.335 2.383-.76 4.769-1.199 7.146-.099.56-.365 1.256.282 1.855.868-1.368.728-2.818 1.081-4.162.542-2.076 1.169-4.174 1.119-6.262-.024-1.061.526-1.458 1.24-1.411.667.037.431.634.329 1.013-.828 3.163-.554 6.383-2.231 9.547-1.135 2.144-1.264 4.495-.93 6.756.187 1.245-.96 2.37-.575 3.641.58-.121.652-.652.777-1.071.765-2.51 1.331-5.047 2.128-7.566a52.597 52.597 0 0 0 1.959-8.827c.179-1.32.474-2.625.722-3.94.077-.43.067-.973.563-1.151 1.711-.629 2.689-2.64 4.567-2.939.217-.035.425-.273.641-.399.301-.183.785-.278.5-.792-.2-.367-.58-.39-.942-.18-.93.545-1.859 1.09-2.892 1.332-.994.22-1.226-.012-.927-.967.421-1.385 1.264-2.212 2.541-2.895 2.04-1.092 3.794-1.221 5.53.063.578.424.827.89.51 1.521-1.09 2.143-1.204 4.422-1.592 6.65-.402 2.345-.822 4.706-.932 7.086-.072 1.462-.651 2.934-.515 4.5.801-1.237.844-2.555 1.202-3.798.232-.823.379-1.203 1.336-.971.991.234 2.132.269 2.979-.923.287-.406.628-.486 1.069-.15 1.296.992 1.443.908 2.443-1.064 1.978 1.298 3.624.13 5.226-1.411.584-.566 1.323-.764 1.73-.09.673 1.115 1.682.867 2.509.362 1.524-.942 3.217-1.385 4.688-2.403.639-.444 1.017-.386 1.249.267.335.955 1.058 1.5 1.782 2.089.877.696 1.843.415 2.718.044 1.524-.647 1.726-2.007.568-2.991-.251-.217-.652-.28-.71-.707 1.061-.432 2.618.309 2.91 1.48.257 1.044.562 2.098.367 3.274-.163.953.216 1.521 1.059 1.795 1.264.41 1.781.057 1.822-1.397a6.21 6.21 0 0 1 .17-1.306c.218-.921.709-1.326 1.589-1.255.52.043 1.068.1 1.594-.007.487-.084.953-.414 1.033-1.003.07-.541-.308-.644-.717-.819-1.008-.422-2.045-.871-2.409-2.103-.136-.463-.549-.568-.936-.703-.56-.19-.971-.455-1.05-1.217-.075-.741-.634-1.012-1.325-.463-1.033.833-1.91.602-2.49-.253-.577-.845-1.384-.855-2.189-.651-1.165.3-2.11-.014-3.072-.438-.794-.343-1.624-.61-2.449-.9-.937-.327-1.792-.223-2.883.058-2.007.537-4.163 1.195-6.115.162-.79-.413-1.707-.372-2.611-.198-1.658.32-3.33.461-4.931 1.287-.436.231-.934.274-1.428.247-.611-.04-.942-.304-1.059-.954-.24-1.276.03-2.507.751-2.688 2.296-.559 4.469-2.038 6.798-2.05 1.99-.01 3.958-.776 5.893-.738 2.837.069 5.739-.845 8.542-.313 1.728.321 3.375.936 5.152 1.062.394.03.587.33.867.528 1.026.747 1.402.715 2.598-.105a2.02 2.02 0 0 0 .295-.25c2.605-2.617 5.581-4.732 8.311-7.178a12.888 12.888 0 0 1 1.993-1.477 59.36 59.36 0 0 0 3.396-2.113c.728-.491 1.54-.8 2.257-.742 2.591.203 5.14-.718 7.691-1.084 2.223-.323 4.429-1.3 6.64-2.006.844-.272 1.659-.4 2.443-.007.421.216.899.27 1.392.081 1.381-.506 2.73-.414 4.076-.252 3.395.42 6.863.012 10.314-.208 1.847-.12 3.721-.35 5.535-.087.399.053.81.022 1.216-.11 1.024-.32 2.085-.456 3-.042 1.286.575 2.783.628 4.297 1.46-1.756.925-3.288 1.165-4.811 1.482-.246.055-.686-.111-.764-.317-.445-1.153-1.446-.749-2.237-.616-1.431.236-2.87.655-4.295 1.037-.729.196-1.493.389-2.071-.08-1.023-.817-2.241-.672-3.416-.369-1.653.42-3.326.812-4.976 1.243-2.953.768-5.949 1.457-8.893.736-.994-.245-2.027-.002-3.035.21-2.175.459-4.367.853-6.282 2.411-.91.744-2.011 1.073-3.024 1.39-1.377.437-2.462 1.204-3.46 2.255-.21.227-.489.37-.859.64-.371-.923-.586-1.979-1.912-1.476.023-.846.534-1.176.972-1.486.38-.273.72-.523.879-.986.191-.596-.123-.966-.704-.81a5.855 5.855 0 0 0-2.326 1.247c-1.787 1.57-3.794 2.868-5.28 4.8-.472.603-1.135.792-1.706 1.195-.69.468-1.146 1.045-1.11 1.899.017.529 1.244 1.813 1.795 1.756.694-.072 1.457-.14 1.836-1.049.165-.396.329-.883.988-.832.18.587-.544 1.35.001 1.862a3.59 3.59 0 0 0 1.653.931c.28.073.563.156.815.293.578.3.935.703.429 1.475-.45.688-.255 1.374-.077 1.996.254.864 1.11 1.1 1.646.355 1.132-1.564 2.761-2.5 4.031-3.886 1.033-1.128 2.256-2.058 3.803-2.495 2.069-.6 3.937-1.827 5.656-3.31 1.289-1.106 2.62-2.053 4.339-1.594.413.105 1.022-.456 1.538-.514 2.354-.256 4.5-1.456 6.75-2.23-.006-.02.002-.034.007-.058l.063-.017c.066-.176.194-.29.358-.312.133-.012.183.133.083.183-.139.071-.293.09-.444.119.003.01-.015.026-.02.05l-.053.015c-.025.71-.602.922-1.076 1.14-2.902 1.38-5.528 3.366-8.319 4.989-1.852 1.075-3.382 2.757-5.282 3.822-.935.523-1.831 1.15-2.704 1.781-1.129.814-2.088 1.797-2.655 3.358.804-.17 1.347-.509 1.747-1.002 1.399-1.75 3.397-2.66 4.943-4.198.198-.19.488-.29.654-.096.282.334-.063.528-.303.729-.821.697-1.639 1.404-2.533 2.166.825.165 1.469.118 2.1-.528 2.374-2.42 5.229-3.934 8.122-5.39.649-.322 1.269-.715 2.014-1.142-.855-.657-1.416.334-2.083.422-.555.08-1.11.547-1.65.896-.378.238-.822.652-1.052.089-.172-.431.277-.87.67-1.009.92-.326 1.567-1.078 2.348-1.628 2.354-1.653 4.845-3.002 7.339-4.34.959-.518 2.038-.762 2.94-1.492.251-.204.508-.386.568-.754-.303-.498-.709-.196-1.082.017-.765.444-1.539.89-2.279 1.383-.758.51-1.151.184-1.387-.446-.237-.63-.159-1.309.631-1.532 1.6-.451 3.186-1.08 4.821-1.144.942-.037.939-.002.478 1.19.436.064.826-.086 1.231-.308.215-.126.479-.367.657-.335 1.708.292 3.403-.185 5.121-.532.698-.141 1.395-.328 2.096-.46 3.041-.564 6.078-.765 9.113-1.056.234-.017.468.057.699-.096 1.256-.847 2.17-.184 3.083.435.139.099.23.267.362.38.858.754.823 1.524-.106 2.31.091.044.199.152.249.127 1.465-.915 2.633-.864 3.795.346.64.657 1.765.8 2.674 1.192.206.092.418.25.283.548a.843.843 0 0 1-.397.38c-2.031.827-4.06 1.62-6.088 2.46-1.619.672-3.28 1.15-4.926 1.683-.678.216-1.359.546-1.947 1.055-.194.166-.42.294-.632.43-2.291 1.421-3.736.718-3.922-1.878-.048-.6.339-.886.72-.988 1.806-.484 3.215-1.986 5.058-2.457 1.07-.275 2.055-1.119 3.037-2.018-.644.173-1.314.25-1.919.526-2.219 1.015-4.41 2.09-6.617 3.147-.282.132-.571.278-.868.312-.461.055-.814-.123-.905-.632-.08-.467.203-.679.59-.84 1.891-.801 3.612-2.069 5.581-2.62.486-.13.956-.278 1.27-1.089-2.215.9-4.3 1.697-6.358 2.59-1.767.757-1.86.748-2.89-.77-.411-.606-.962-1.73-1.583-1.303-.954.665.191 1.346.414 1.968.809 2.259.369 1.797-4.711 3.795-1.423.563-2.677 1.546-3.884 2.574-.868.732-2.035.897-3.037 1.381-3.607 1.75-6.834 4.284-10.253 6.438-.154.098-.34.25-.401.403-.228.629-1.433.736-1.101 1.385.391.781 1.421.233 1.951-.114 1.159-.742 2.446-1.348 3.484-2.25 1.863-1.624 4.007-2.664 6.005-3.994 2.903-1.925 6.11-3.182 9.034-5.113 1.201-.798 2.65-1.05 3.783-2.104.546-.498.849 0 1.08.438.28.538.141.95-.474 1.149-2.155.702-4.09 2.016-6.131 3.017-2.444 1.188-4.788 2.623-7.176 3.933-.909.493-1.906.829-2.741 1.643 1.097.08 1.656.056 2.065-.236 1.945-1.361 4.195-1.919 6.152-3.193 1.813-1.178 3.798-1.88 5.584-3.074.422-.284.848-.511 1.416-.21-2.903 3.493-5.27 7.375-8.896 10.107-1.019.761-1.929 1.675-2.809 2.615-1.083 1.153-2.351 2.084-3.285 3.413-2.105 3.005-4.692 5.516-7.45 7.856-.675.567-1.508 1.006-1.718 2.039.547.183.888-.193 1.259-.542 1.235-1.137 2.521-2.209 3.887-3.154.314-.22.727-.456 1.005-.178.281.288.086.704-.165 1.032-.714.93-1.367 1.911-2.175 2.74-.923.952-1.812 1.815-3.348 1.409-1.119-.29-2.449.577-3.696.865-.296.08-.628.316-.863.243-1.822-.546-3.47.487-5.142 1.173-.991.402-1.997.195-3 .679-1.112.537-2.307.811-3.478 1.17a5.374 5.374 0 0 1-1.39.18c-3.465-.128-6.673 1.038-9.699 3.178-.105.074-.207.158-.312.231-.51.42-1.108.978-.89 1.579.25.682.976.726 1.682.321.294-.17.567-.208.857.157-.416.77-1.174.814-1.834 1.014-.475.127-.954.198-1.429.326-1.014.272-1.32.694-1.158 1.594.166.875.669 1.274 1.559.876 1.311-.6 2.707-.839 3.988-1.511.418-.214.667-.213.919.094 1.079 1.278 2.479.63 3.816.215.346-.103.651-.401 1.002-.529.843-.317 1.301.083.879.832-.676 1.192.217 2.077.043 3.157-.06.368.517.452.976.01 1.198-1.149 2.436-2.23 3.656-3.34.237-.212.483-.437.96-.428-.008 1.955 1.289 2.062 2.868 2.252 2.249.283 3.601-.885 4.871-2.566.703-.926 1.518-1.77 2.446-2.45.796-.576 1.6-1.166 2.307-1.867.581-.576.469-.784-.56-1.076.3-1.035.714-1.94 1.665-2.616.503-.362.867-.947 1.274-1.454.265-.32.539-.61.936-.478 1.847.596 3.319-.753 4.324-1.988a16.835 16.835 0 0 1 3.8-3.437c1.718-1.153 2.892-2.558 3.737-4.306.599-1.228 1.378-2.334 2.034-3.52.396-.72.214-1.227-.504-1.205-.83.029-1.51.45-2.03 1.213-.804 1.181-1.477 2.43-2.305 3.605-.901 1.286-1.962 2.184-3.545 2.994.429-1.228 1.195-2.046 1.469-3.05.279-1.03.208-2.18 1.157-2.991.092-.082.187-.232.186-.322-.139-2.291 1.821-3.26 3.035-4.641.88-.985 2.029-1.725 3.186-2.603-.189.562-.235 1.279-.594 1.67-.773.832-.626 1.383-.107 2.096.411.56.633 1.261.97 1.886.329.593.466 1.318 1.326 1.485.644.122.698 1.04 1.146 1.487.54.537.555 1.1.069 1.821-.282.428.028.867.382.75 1.359-.421 1.373.858 2.092 1.427-3.061 2.773-6.03 5.465-9.284 8.404.05-1.547.737-2.912-.238-3.843-.396-.382-.818-.86-1.476-.525-.235.222-.177.48-.062.528 1.25.483 1.197 1.553.961 2.741-.499 2.45-1.652 4.44-4.031 5.872-.056-1.268 1.206-1.754 1.386-2.688.18-.934.745-1.948.012-2.785-.539.144-.39.49-.451.768-.367 1.631-.842 3.11-2.507 4.079-1.037.607-1.881 1.685-2.807 2.535-3.108 2.809-6.797 4.422-10.122 6.755-.847.602-1.944.816-2.936 1.127-1.528.467-1.537.435-1.021 2.023-2.31.63-4.588 1.252-6.935 1.495-1.488.149-2.968.454-4.452.284-.444-.051-.951.21-1.421.358-.438.14-.834.394-.793.928.032.457.259.84.747.845.966.013 1.944.115 2.898-.13 1.394-.373 2.808-.377 4.218-.482 3.709-.267 7.344-1.491 10.783-3.06 3.088-1.407 6.143-3.145 9.141-4.925 1.975-1.165 3.576-2.878 5.574-3.958.347-.184.546-.453.631-.896.322-1.756 1.263-3.144 2.552-4.42 2.745-2.723 6.027-4.715 8.721-7.504.347-.354.741-.698 1.212-.927.51-.25.882-.384 1.221.162.205.342.569.562.832.867.36.414.46.83.164 1.5a59.16 59.16 0 0 1-4.151 7.915c-1.659 2.637-3.338 5.244-5.145 7.795-.31.447-.657.8-1.167.926-.359.096-.722.262-1.069.275-2.713.103-5.211 1.215-7.669 2.52-1.616.854-3.114 1.812-4.538 3.09-.984.889-2.272 1.575-3.418 2.37-1.593 1.108-2.976 2.455-4.198 3.976-.808 1-1.783 1.545-2.886 1.568-.867.016-1.68.234-2.504.455-2.802.739-5.591 1.487-8.387 2.247-2.081.558-4.171.993-6.125 2.152-2.413 1.431-4.849 1.379-7.302.674-1.582-.451-3.268-.533-4.955-.535-1.088-.004-1.793-.394-2.223-1.324-.184-.393-.302-.873-.837-.673-.648.242-.481.822-.423 1.295.142 1.245-.194 2.653.902 3.574.465.386.83.777 1.525.579.581-.155.788-.097 1.043.641.336 1 .694 2.085 1.472 2.876 1.981 2.025 3.851 4.147 5.865 6.128 1.444 1.419 2.499 3.158 3.703 4.777.334.445.64.783 1.222.843.379-.613.16-1.133-.141-1.371-1.124-.857-1.728-2.183-2.615-3.251-1.355-1.636-2.883-3.112-4.397-4.875.889-.318 1.64-.008 2.342-.514.485-.346.788.152 1.087.549 2.632 3.485 5.744 6.524 8.577 9.831.049.055.186.018.287.014l-.009-.032.041.023s-.041-.023-.03-.026c.011-.003.024.005.037.013.184-1.049-.66-1.493-1.156-1.95-1.046-.947-1.765-2.151-2.685-3.176-.852-.942-1.584-1.983-2.604-2.789-.828-.641-1.33-1.711-1.985-2.591 1.67-.993 1.803-1.006 2.777.096.909 1.028 1.915 1.951 2.86 3.447.115-1.132.191-1.607 1.135-1.633 1.204-.027 2.178.098 3.008 1 1.201 1.314 2.687 2.38 3.728 3.816.77 1.055 1.795 1.882 2.422 2.997-.458.781-1.134.247-1.586.754-.209.238-.689.219-1.045.326-.731.23-.971-.456-1.448-.714.204 1.183-.759.885-1.27 1.135-1.015.522-1.41-.531-2.135-.745l-.032.008c.092 1.316.047 1.317-.923 1.497-3.647.671-7.275 1.03-10.904 1.048-1.39.009-2.756-.102-4.115-.272-2.262-.291-4.597-.301-6.724-1.139a.61.61 0 0 0-.558.07c-1.261.746-2.687.833-3.965 1.596-1.685 1.019-3.63 1.154-5.41 1.949-1.961.878-3.928 1.268-5.996 1.198-.948-.03-2.064.451-2.959.997-2.504 1.557-5.274 2.413-7.739 4.073-2.252 1.523-4.683 2.424-7.248 1.976-1.152-.202-2.384.059-3.348.897-.708.61-1.557 1.076-2.466.854-2.973-.703-5.914-.017-8.828 1.275-1.042.461-1.827.49-2.655-.447-1.037-1.164-2.6-1.381-4.254-1.086-1.372.243-2.745.361-4.114.614-2.663.498-5.244.076-7.866.177-.941.036-1.714-.018-2.303-.735.264-.581.767-.773 1.124-1.13.125-.124.305-.172.463-.26.445 1.664 2.315-.314 2.98.985.217.43.89.363 1.217-.19.255-.443.621-.598.983-.854.744-.518 1.304-.668 1.765.208.181.338.603.52.944.735.328.208.742.233.933-.193.297-.625.811-.944 1.257-1.393 1.116-1.117 1.08-1.164 2.121-.364.686.532 1.177 1.559 2.397.494.423-.364.865.188 1.22.456.704.516 1.3.708 2.365.502 1.066-.206 2.396-.312 3.549.106.603.224 1.386.525 1.696-.727.116-.497.615-.324.939-.297 1.408.099 2.808.212 4.203.35.266.019.494.026.59-.249.091-.252.014-.538-.208-.649a10.901 10.901 0 0 0-2.778-.947c-1.997-.397-3.973-.844-5.856-1.577-.986-.383-1.788-1.054-2.697-1.571-2.133-1.201-4.558-1.675-6.85-2.458-2.205-.749-4.314-1.604-6.308-2.795-1.269-.762-2.768-.951-4.43-.142-1.634.79-3.316 1.445-4.899 2.38-.977.58-1.654 1.306-2.133 2.389-1.253 2.845-1.29 2.832.844 4.543.086.068.11.198.178.327-.441.425-.9.276-1.319.149-2.337-.736-4.809-.835-7.27-.982-1.15-.066-2.152-.468-3.178-.874-2.434-.972-4.205-2.723-5.618-4.912-1.355-2.101-2.925-4.031-3.872-6.423-.328-.844-.566-1.689-.257-2.691.329-1.054.677-1.317 1.508-.836 1.045.606 2.09 1.212 3.128 1.831 2.033 1.204 4.106 2.352 6.05 3.694.503.353.725 1.1 1.588 1.107.32-1.005-.436-1.371-.934-1.794-2.962-2.477-6.379-4.287-9.583-6.403-.717-.478-1.536-.872-1.018-2.192 2.02.481 3.74 1.576 5.356 2.71 2.036 1.43 4.42 2.211 6.42 3.72 1.105.828 2.54 1.284 3.618 2.267.24.219.565.291.8.024.345-.399.076-.77-.21-.909-.785-.392-1.418-.983-2.14-1.437-3.447-2.177-6.956-4.246-10.45-6.342-.944-.565-1.893-1.106-2.818-1.687-.655-.415-1.11-2.11-.822-2.982.139-.412.464-.465.712-.259 2.922 2.454 6.64 3.74 9.406 6.417.489.471 1.078.813 1.762.914.238-.336.154-.564-.034-.718-2.036-1.601-3.972-3.331-6.145-4.724-1.339-.857-2.632-1.839-4.14-2.48-1.288-.54-1.406-.725-.806-2.078.639-1.42 1.13-2.881 1.683-4.323.254-.659.645-.889 1.195-.991-.378-.989-.005-1.793.835-2.461.654-.516 1.252-1.073 1.644-1.894 2.48 1.187 4.606 2.741 6.607 4.465 2.572 2.206 5.093 4.472 7.733 6.593.562.451.652 1.21 1.314 1.567.913.493 1.394.387 1.837-.663.077-.179.105-.369.123-.555.06-.538.312-1.162.76-1.18.615-.029.446.652.465 1.147.031 1.298.577 1.685 1.812 1.354.18-.048.337-.181.52-.218 1.046-.235 1.336.13.902 1.257-.18.468-.183.878-.068 1.267.302 1.044 1.281 1.19 2.073.342.992-1.072.948-.981 2.157-.442 1.412.621 2.762 1.395 4.363 1.58.433.054.827.13 1.09-.406.214-.432.31-.878-.01-1.224-.387-.43-.803-.841-1.223-1.228-.346-.316-.49-.686-.18-1.133.358-.527.716-.328 1.071-.06.455.344.987.599.982 1.338-.001.546.316 1.097.784 1.028 1.133-.167 2.132.519 3.263.137.446-.154.649.053.92.264.5.388 1.03.758 1.58 1.076 2.411 1.398 4.075 1.1 6.4-1.124.569-.539 1.946-.511 2.349.063 1.061 1.51.715 2.33-1.157 2.695-.526.107-1.069.195-1.582-.031-.516-.236-1.081-.062-1.572.217-.736.424-1.454.742-2.257.662-.327-.038-.58.155-.823.391-.199.189-.333.407-.317.675.02.37.3.488.572.574a.534.534 0 0 0 .358-.017c2.398-.937 4.899-.688 7.307-1.458.791-.257 1.513-.394 2.296-.263.625.094 1.308.024 1.967-.05.67-.078 1.387-.19 1.931.107 2.116 1.137 4.486.138 6.718.187.409.004.805-.249.97-.646.571-1.334 1.372-.753 2.218-.594 1.271.261 2.61-.234 3.931-.247 3.09-.044 6.2-.605 9.294-.548.454.003.957-.189 1.415-.38.501-.202.57-.663.458-1.122-.115-.514-.416-.581-.938-.418-2.496.782-4.984.835-7.469.729-.996-.04-2.044-.065-3.04.19-1.711.458-3.107-.315-4.642-.551-.47-.067-.532-.55-.564-1.007-.079-1.012-.623-1.65-1.403-2.111-.539-.321-.974-.761-1.384-1.276a7.049 7.049 0 0 0-3.656-2.45c-2.45-.695-4.52-2.252-7.101-2.674-1.009-.173-2.026-.252-3.002.123-2.166.83-4.173.732-6.271.295-1.175-.242-2.442-.323-3.669-.425-.648-.054-1.316-.011-1.82-.5-.109-.108-.323-.232-.458-.185-2.318.769-4.246-.509-6.39-.57-.173-.011-.44.004-.503-.104-.786-1.368-1.935-.628-3.103-.383-1.113.241-2.259.105-3.386.123-.114-.003-.222-.111-.33-.093-3.015.41-4.79-1.567-6.913-3.065-2.807-1.985-5.517-4.155-8.712-5.559-.614-.267-.816-.599-.406-1.265.278-.438.544-.884.863-1.299.534-.71 1.125-.87 1.825-.284 2.111 1.75 4.363 3.35 7.052 4.05 2.201.568 4.032 1.951 5.99 3.051.813.452 1.643.888 2.5 1.34.255-.738-.239-.89-.56-1.031-1.082-.448-2.053-1.029-2.75-2.023-.345-.487-1.014-.534-1.492-.838-3.128-1.956-6.219-3.944-9.346-5.9-.709-.446-1.2-.927-.666-1.933a.592.592 0 0 0 .025-.37c-.196-.732.167-1.828-.726-2.077-.944-.27-1.326.752-1.811 1.394-1.18 1.553-2.32 3.13-3.486 4.692-.358.483-.753.952-1.384.667-.596-.283-1.098-.592-.828-1.527.195-.666.21-1.374.24-2.063.015-.323-.223-.577-.58-.515-.259.047-.393.264-.455.542-.295 1.306-.578 2.574-1.192 3.829-.456.917-.913 1.493-1.818 1.793-1.237.41-2.018 1.256-2.729 2.491-1.845 3.254-3.056 6.634-4.049 10.239-.444 1.595-1.093 3.143-1.647 4.711-.702 1.983-.337 3.77.236 5.57.491 1.537 1.043 3.048 1.82 4.509.822-.436.06-1.97 1.588-1.89.157 1.729.756 3.499-.157 5.459-.27.595-.124 1.055.01 1.598.524 2.211 1.818 3.954 2.81 5.88 1.953 3.826 4.907 6.782 8.02 9.525 1.676 1.482 3.88 2.231 5.864 3.256.552.283 1.196.406 1.642.888-.819.663-1.607.045-2.469.208.232.653.72.909 1.165 1.05 1.443.443 2.519 1.585 4.056 1.832.485.075.898.645 1.363-.195.047-.08.367-.109.495-.053 1.266.626 2.784.458 4.064 1.012.372.162.755.366 1.156.383 1.734.092 3.151.735 4.251 2.052.315.37.775.735 1.418.222-.223-.621-1.136-.649-1.051-1.558.78-.345 1.533-.149 2.214.111 1.06.409 2.171.497 3.31.396 2.49-.213 4.954.025 7.506-.761 1.383-.416 2.936-.197 4.414-.172 2.58.035 5.209.046 7.79-1.134 1.474-.668 3.02-1.15 4.472-1.902 1.38-.722 2.738-.893 4.014-.44 2.237.786 4.35-.2 6.496-.98 1.785-.648 3.457-1.8 5.398-1.696.322.016.812-.138 1.015-.397.846-1.067 2.075-1.169 3.105-1.718 1.346-.724 2.725-.309 4.044-.163 2.626.296 5.137.202 7.707-1.316 2.739-1.608 5.757-2.303 8.718-3.04 1.22-.304 2.275-.973 3.452-1.311 2.666-.782 5.274-1.527 7.973-.876 2.566.619 5.24.459 7.945-.641 1.86-.748 3.799-.779 5.708-.836.236-.007.478.008.709.025.324.027.609-.049.708-.439.107-.404-.12-.536-.438-.621a5.33 5.33 0 0 0-2.301-.099c-2.38.456-4.765.596-7.146 1.177-2.475.606-4.938.369-7.256-.634.961-.087 1.927-.244 2.879-.238 1.853.026 3.709-.312 5.557-.557 1.125-.154 2.162-.591 2.746-1.792.363-.757.916-.848 1.534-.741 3.43.592 6.924.325 10.457-.224.944-.151 1.886-.142 2.818-.085 3.249.209 6.444-.625 9.674-1.331 2.973-.649 5.815-1.956 8.74-2.785 2.125-.604 4.119-1.57 6.186-2.305 1.653-.591 3.152-1.208 4.301-2.879.644-.933 1.889-1.483 2.9-2.105a8.872 8.872 0 0 0 1.653-1.307c.749-.711 1.48-1.407 2.444-1.824.608-.265 1.263-.736 1.646-1.293.988-1.423 2.56-2.105 3.56-3.486.51-.716 1.391-1.02 2.11-1.168 2.347-.492 4.511-1.413 6.651-2.679 1.426-.848 2.873-1.531 3.864-2.989.277-.403.689-.639 1.087-.757 1.362-.41 2.405-1.337 3.414-2.345.931-.92 2.168-1.285 3.141-2.091 2.22-1.856 4.366-3.816 6.554-5.708.522-.458 1.444-1.114 2.002-1.525 1.709-1.23 3.223-2.76 4.31-4.493 1.143-1.817 2.137-3.98 1.577-6.238-.136-.508.166-.987.418-1.44 1.202-2.23 2.042-4.59 2.785-6.97.224-.73.631-1.407.953-2.107.937-2.08 1.073-4.023-.268-5.731-.545-.683-.515-1.668-.848-2.487-1.04-2.617-2.004-5.244-3.908-7.277-.114-.129-.212-.284-.307-.43-.169-.25-.304-.542-.151-.856.241-.496.62-.223.946-.23 1.291-.04 1.744.929 1.882 2.63.094 1.11.797 2 1.825 2.247 1.585.382 2.726 1.598 3.904 2.611a.495.495 0 0 1 .086.113c1.359 2.748 1.872 5.632 2.427 8.55.45 2.354-.204 4.562-1.487 6.7-1.284 2.139-2.307 4.616-3.337 6.982-1.038 2.379-2.402 4.64-3.654 6.941-.591 1.09-1.347 1.985-2.542 2.51-1.538.684-2.741 2.108-4.374 2.648-.271.084-.51.375-.742.608-1.223 1.225-2.265 2.617-3.547 3.789-.345.32-.782.8-.428 1.319l.021-.006c.035.002.057.087.082.137.266-.696.8-1.111 1.357-1.567 2.182-1.789 4.653-2.916 7.204-4.338-.088 1.193-1.005 1.53-1.458 2.162-2.489 3.472-5.185 6.761-8.423 9.548-1.417 1.22-2.784 2.495-4.351 3.449-1.137.702-1.986 1.758-3.065 2.547-1.729 1.281-3.525 2.478-5.188 3.877-.332.282-.905.549-.576 1.018.25.342.773.054 1.153-.218 1.482-1.102 2.981-2.185 4.441-3.325 1.958-1.524 4.079-2.819 5.843-4.644.213-.216.57-.448.815-.422 1.411.155 2.158-.988 3.001-1.895 2.55-2.739 4.813-5.741 7.284-8.561 1.516-1.735 3.128-3.45 4.42-5.432.765-1.159 1.87-2.102 2.8-3.112.461.115.31.61.547.818.888-2.01 1.903-3.928 3.677-5.29.517.408.328.799.139 1.236-.923 2.132-2.452 3.905-3.719 5.766-2.121 3.112-4.462 6.079-7.038 8.802-1.245 1.31-2.401 2.869-3.091 4.644.886-.748 1.984-1.213 2.588-2.34.203-.384.7-.301.681-.035-.093 1.217.854.737 1.368.837.057.383-.114.633-.324.735-.76.374-1.544.493-2.216 1.32-.556.672-1.47 1.189-2.238 1.747-4.034 2.943-8.305 5.382-12.545 7.893-1.124.664-2.132 1.593-3.438 1.829-.095.026-.184.288-.269.436.333.524.942-.162 1.286.234-.26.888-1.004 1.325-1.642 1.86-.831.7-1.659 1.41-2.529 2.052-.359.266-.385.591-.48.912 1.856-.804 3.265-2.306 4.753-3.681.443-2.152 2.372-2.26 3.745-3.093 1.239-.741 2.561-1.3 4.047-2.05-.781 1.481-1.778 2.237-2.669 3.304-1.741 2.08-3.779 3.852-5.916 5.47-4.218 3.185-8.496 6.274-13.449 7.942-1.92.65-3.765 1.667-5.658 2.458-4.48 1.871-8.96 3.741-13.865 4.533.624-1.053 1.743-1.183 2.375-1.954-.331-.558-.727-.259-1.095-.07-2.339 1.24-4.799 2.115-7.198 3.133-1.119.47-2.36.825-3.59 1.007a32.791 32.791 0 0 0-4.446.942c-2.051.583-3.953.922-5.941.138-1.642-.639-3.605-.443-5.448-.392-2.235.066-4.492.557-6.737.84-2.848.355-5.803 1.919-8.277 3.036-1.648.737-3.202 1.698-4.799 2.58-.838.463-1.739.693-2.653.791-2.229.256-4.421.946-6.616 1.5-.085.023-.143.186-.289.361.54.492 1.152.282 1.802.131 2.414-.579 4.845-1.14 7.333-.727-.157.258-.243.53-.351.548-1.447.263-2.748 1.111-4.232 1.361-1.68.28-3.307 1.091-4.622 2.352-.775.741-1.639 1.404-2.403 2.188-1.125 1.165-2.477 1.822-3.948 2.08a405.681 405.681 0 0 1-9.675 1.536c-1.09.156-2.048.765-3.14 1-2.053.448-3.94.42-5.944.083-3.499-.596-7.051.004-10.151 2.674-1.989 1.703-4.202 2.273-6.5 2.446-1.6.111-3.185.195-4.798.468-1.201.208-2.37.067-3.504-.231-1.132-.298-2.258-.36-3.422-.014-.663.189-1.31.306-1.946.09-.51-.17-1.02-.215-1.577.07a1.266 1.266 0 0 1-1.063.047c-3.814-1.602-8.049-1.773-12.058-2.709l.083.057Zm34.571-115.687c-.251.795-.588 1.566-.927 2.327-.212.477-.628.657-1.064.592-.447-.062-.407-.504-.425-.783.065-.642.119-1.202.184-1.764.131-1.16.404-1.449 1.419-1.505.803-.045 1.085.288.811 1.123l.002.01Zm10.319 3.993c-.204-.127-.352-.383-.172-.601.508-.636 1.057-.363 1.76-.233-.506.816-.942 1.217-1.588.834Zm4.116 1.293c-1.082.608-1.518 1.77-2.56 2.276.02-1.743.482-2.173 2.56-2.276Zm4.007.46c.179-.048.298.056.346.236-.012.208-.133.308-.308.287-.093-.009-.2-.071-.234-.153-.082-.182.013-.333.203-.384l-.007.014Zm3.526-.105c.785-.914 1.571-1.829 2.366-2.746.442-.505.94-.718 1.379-.177.394.497.257 1.465-.26 1.774-1.061.647-2.132 1.298-3.477 1.136l-.008.013Zm12.122 1.045c-.055-.372.382-.432.655-.47.444-.074.781.085.911.527a.52.52 0 0 1-.48.492c-.466.034-.999.03-1.076-.552l-.01.003Zm32.33-15.386c.033.548-.171.84-.59.885-.286.031-.375-.218-.366-.481.017-.357.033-.804.464-.886.323-.063.467.262.492.482Zm75.716 18.983c-1.412.095-1.852 1.2-1.892 2.358-.113 2.665-.437 5.342.422 7.916.835 2.525.327 5.273-.688 7.953-.324.859-1.066 1.387-1.413 2.286-.602 1.558-1.393 3.042-1.602 4.711-.105.834-.811 1.285-1.399 1.794-1.022.876-2.224 1.46-3.201 2.46-1.728 1.746-3.314 3.602-4.526 5.755a4.375 4.375 0 0 1-1.752 1.741c-1.795.947-3.467 2.144-4.91 3.644-1.47 1.53-3.291 2.211-5.071 2.96-2.036.852-5.403 2.061-7.459 2.839a18.481 18.481 0 0 0-5.495 3.278c-1.453 1.253-2.819 2.618-4.456 3.647-1.2.765-1.718 2.21-2.388 3.513 1.288-.561 2.074-1.85 3.202-2.629 1.134-.793 2.105-1.859 3.486-2.411-.492.575-.914 1.279-1.501 1.709-2.001 1.49-3.573 3.523-5.573 5.013a20.577 20.577 0 0 1-3.421 2.064c-1.918.912-3.826 1.945-5.872 2.38-1.99.431-3.874 1.299-5.816 1.91-2.296.729-4.668.706-6.962 1.48-.665.223-.846-.24-.427-.874.137-.207.368-.36.315-.811-.923-.15-2.435.925-2.836-.91l8.661-2.32c.232-.063.472-.138.688-.264.226-.129.378-.363.328-.633-.057-.258-.238-.425-.511-.386-.849.125-1.69.453-2.552.32-1.434-.24-2.92-.251-4.347.336-2.479 1.017-3.394 1.909-4.475 1.086-1.665-1.269-2.8-3.054-4.196-4.588-.671-.729-.433-1.701.543-2.156 1.3-.598 2.631-1.125 3.693-2.273.433-.456 1.032-.753 1.571-1.068.341-.205.725-.251.967.104.316.461.652.87 1.286.701.824-.221 1.814-.157 2.445-.803 1.79-1.854 4.263-2.596 5.965-4.483 1.397-1.544 3.268-2.42 4.577-4.043.231-.278.64-.399.958-.609 1.448-.933 2.95-1.79 3.643-3.599.185-.493.689-.764 1.073-1.106.235-.222.52-.468.342-.795-.222-.406-.594-.273-.927-.036-.466.33-.927.68-1.391 1.02-1.327 1.003-2.589 2.125-4.106 2.758-.274.119-.565.3-.954.074.807-1.045 1.843-1.743 2.857-2.48.358-.266.796-.452 1.082-.778.821-.947 1.698-1.773 2.842-2.238.276-.108.505-.397.739-.618.17-.17.44-.345.3-.615-.165-.319-.529-.369-.758-.126-1.311 1.362-3.262 1.01-4.574 2.407 2.087-2.433 4.76-4.205 6.392-7.028-.386-.26-.642-.157-.773.071-1.117 1.958-2.945 3.038-4.645 4.254-2.591 1.864-5.35 3.399-8.015 5.112-1.971 1.266-3.894 2.622-5.924 3.791-1.098.635-2.296.853-3.353 1.557-.191.13-.507.136-.571-.188-.06-.268.084-.488.282-.723 1.785-2 4.129-3.264 6.555-4.096 2.26-.776 4.135-2.482 5.977-4.1 1.199-1.06 2.54-1.884 3.884-2.699a4.977 4.977 0 0 0 1.778-1.816c-.908-.177-2.242.169-2.892.74-.147.13-.278.36-.421.375-.516.059-1.051 1.02-1.425.427-.396-.632.532-.846.867-1.243 1.141-1.362 2.628-1.851 4.137-1.926 2.311-.12 4.256-1.436 6.405-2.5.178.622-.718 1.078-.43 1.648.249-.169.59-.419.646.043.147 1.267.461 2.568-.466 3.839-.151.199-.188.481-.328.848.57-.028 1.396-.919 1.527.375.106 1.028 1.285.78 2.059 1.22-2.168 3.567-5.125 6.392-7.557 10.031 1.681-1.245 2.999-2.325 4.026-3.816a4.968 4.968 0 0 1 2.396-1.834c1.821-.681 2.777-2.266 3.173-4.087.181-.844.414-1.621.914-2.29 1.757-2.4 2.356-5.275 3.68-7.856.141-.276.172-.625.172-.92-.011-.508-.079-1.058-.68-1.102-.635-.045-.811.479-.908 1.005-.512 2.737-1.702 5.225-3.19 7.612-.682 1.09-1.412 1.366-2.225.823-.787-.528-.96-1.764-.343-2.588 2.03-2.69 3.626-5.65 5.412-8.492.397-.629.5-1.258.07-1.722-.408-.425-.889.102-1.307.361-.32.2-.609.47-.878.736-.169.17-.372.554-.166.646 1.361.6.272 1.483-.072 2.098-.973 1.737-2.066 3.404-3.162 5.185-.693-1.7-.53-2.697.79-3.687.95-.72 1.531-1.636 1.876-2.842-.862.799-1.72 1.608-2.589 2.42-.515.024-.538-.526-.828-.766-.724-.59-1.694-.534-2.37.283-.803.976-1.88 1.56-2.729 2.446-.284.292-.605.491-.986.503-.629.02-1.411.82-1.854.178-.501-.728.483-1.197.853-1.716a147.812 147.812 0 0 1 4.296-5.853c.42-.544.745-1.062.883-1.69.074-.315.113-.632.313-.901.804-1.056 1.306-2.224 1.637-3.483.149-.54.376-1.088.896-1.512 1.123.597.943 2.337 2.165 2.839.333-.828-.253-1.239-.557-1.657-.55-.784-.842-1.705-1.218-2.558-.45-1.004.482-2.003.655-3.344 1.979 1.98 3.171 4.102 4.63 6.084 1.468 2.014 2.994 3.99 4.111 6.258.269.54.578.89 1.109.93l-.008-.033c.021-.005.034.002.058.007-.291-1.046-.751-2.001-1.561-2.659-.714-.592-.852-1.532-1.282-2.291-1.651-2.908-3.542-5.615-5.455-8.317-1.551-2.196-1.605-2.397-.558-5.165-1.352-.103-.722 1.488-1.73 1.906a6529.605 6529.605 0 0 0-4.51-7.366c-.004 1.591 2.44 6.614 3.758 8.067 0 0 .018-.016.029-.019 0 0 .005.021-.002.035.529.96 1.181 1.875.522 3.176-.161.327-.19.766-.626.872-.32.074-.617-.062-.67-.388-.061-.439-.736-.803-.174-1.283.781-.675.777-1.537.948-2.377l-.003-.011c-.092.081-.177.184-.272.21-1.96.672-1.894.62-2.977-1.054-1.505-2.323-2.555-4.971-4.405-7.02-.225-.246-.187-.654.039-.953 1.068-1.421.941-3.33 2.111-4.71.078-.09.072-.28.156-.349 1.396-1.169 2.114-2.883 3.287-4.208.557-.626 1.005-1.064.942-1.933-.033-.548.185-1.129.747-1.609 1.011.604 1.272 1.874 1.975 2.765.393.496-.126 1.01-.753 1.246-1.347.509-2.385 1.661-3.668 2.323a.593.593 0 0 0-.32.71c.84.218 1.607-.214 2.274-.768.915-.767 2.023-.985 2.994-1.586.291-.18.608-.265.773.054.236.46-.148.676-.468.875-.32.2-.681.33-.99.572-.395.3-.925.646-.589 1.225.258.454.663.277 1.085-.006.375-.248.792-.428 1.208-.608.761-.329 1.613-.103 1.921.621.678 1.602.397 3.3-.069 4.982-.437 1.582-.134 3.26-1.19 4.77-.212.307-.009.98.105 1.448.403 1.63.979 3.19 1.116 4.925.055.713 2.207 1.521 2.867 1.151.265-.15.496-.428.77-.547.434-.195.878-.144 1.119.246.205.342.02.71-.296 1.01-.18.173-.343.365-.484.516.11.538.521.508.851.556.354.053.552.158.357.574-.174.365-.348.684.028.992.377.308.75.22 1.168.005.389-.195.789-.393 1.203-.538.34-.125.762-.239.947.155.476.974 1.112.474 1.803.096 1.217-.655 1.207-.607 1.889.584.271.461.417 1.092 1.06 1.17l-.011-.043.083.057c-.027-.185-.03-.366-.078-.546-.333-1.24.212-2.079 1.366-1.786.813.202 1.355.114 1.95-.454.548-.533 1.148-.195 1.707-.39.822-.651 1.339-1.551 1.884-2.435.211-.352.554-.887 1.015-.647.511.26.391.827.089 1.305-.609.98-1.122 1.981-1.385 3.279 1.118-.346 1.36-1.262 1.83-1.956.404-.608.778-.606 1.118-.095.385.59.901 1.121 1.093 1.797.558 1.997 2.23 3.127 3.065 4.89.077.162.186.314.326.413.183.133.416.286.649.099a.586.586 0 0 0 .105-.834c-.883-1.013-1.389-2.309-2.156-3.398-.566-.802-.424-1.964-1.216-2.638-.251-.217.05-.615.373-.93 2.003-1.99 3.327-4.4 4.436-6.98.714-1.644 1.523-3.27 2.275-4.902.511-1.09 1.009-2.19 1.284-3.444 1.249.097 2.319.582 3.408.972.451.163.864.688.973 1.181.42 1.864 1.462 3.3 2.527 4.74.054.077.017.234.021.46l-.019-.029Zm.832 3.23c-.007-.237-.134-.498.172-.625.366-.155.542.081.609.415.186.905.183 1.825.166 2.773-.019 1.492-.583 2.938-.334 4.416-.178.013-.344.024-.522.038-.028-2.344-.053-4.677-.102-7.014l.011-.003Zm-6.399 24.666c-.238 1.858-1.602 2.724-2.65 3.629-1.662 1.445-3.224 2.965-4.756 4.556-.178.184-.371.35-.639.32.259-2.58 3.473-6.008 8.045-8.505Zm-10.906 11.474s-.075.1-.118.111c-.148.04-.186-.018-.113-.128.023-.041.097-.061.142-.061.031-.009.059.052.089.078Zm-70.534 16.413c1.534-.866 2.359.185 3.224.964 1.283 1.155 2.51 2.394 3.748 3.595.011-.003.024.005.038.013-.032-1.343-.415-2.478-1.414-3.29-.506-.409-.682-1.066-.905-1.688-.103-.301-.23-.563.18-.763.261-.127.477-.037.559.225.227.722.802 1.091 1.296 1.583 1.822 1.817 3.227 4.019 4.886 5.982.065.073.027.231.043.374-.726.626-1.297.484-1.835-.133-.591-.682-1.14-1.42-2.013-1.766.006.022.019.029.035.048l-.053.014c.038 1.114 1.335 1.346 1.48 2.522-1.569.568-3.15.538-4.694.985-.61.175-.944-.269-1.283-.689-1.199-1.474-2.356-3.003-3.713-4.309a26.48 26.48 0 0 1-2.181-2.391c-.594-.738-.381-1.17.574-1.449.412-.11.829-.244 1.23-.057.26.124.617.358.803.251l-.005-.021Zm-1.302-8.533c-.047-.26.184-.412.411-.496.198-.064.332.014.376.263.004.226-.13.444-.387.456-.146.005-.382-.114-.4-.223Zm3.948-1.955c.122-.18.372-.304.585-.395.174-.069.324.027.341.261-.113.337-.379.442-.676.431-.17 0-.382-.114-.25-.297Zm2.58-1.02c.02-.176.172-.285.419-.294.093.009.279.027.241.265-.032.178-.151.324-.334.316-.162-.013-.349-.077-.326-.287Zm4.596 5.196c1.71-1.73 3.984-1.862 5.945-2.865-1.911 1.148-3.695 2.728-5.945 2.865Zm6.388-1.042c.147.041.243.06.352.088-.082.158-.14.321-.249.464-.026.03-.181-.042-.28-.073a95.5 95.5 0 0 1 .175-.489l.002.01Zm-2.759 1.66c-.407 1.437-3.446 3.194-5.791 3.357 1.559-1.917 3.838-2.028 5.791-3.357Zm-4.081 18.23s.019-.016.023-.04c-.002-.011-.002-.011.013-.037.296-.034.597-.013.873-.121 1.529-.591 1.536-.604 3.1.033-.815.763-1.658.489-2.343.423-.513-.055-1.331.697-1.587-.301-.072.11-.103.163-.103.163-.034.044-.003-.01.027-.109l-.003-.011Zm2.186-2.913c1.234-1.138 1.43-1.167 2.755-.364-.968.502-1.886.623-2.755.364Zm11.769-20.802.063-.017.032-.009.032-.008c.014-.072.132-.013 0 0l.003.01.042-.011s-.018.016-.029.019l.032-.008-.026.075c-.042.011-.09.001-.132.012-2.055 1.119-3.831 2.855-6.389 3.87 1.031-1.389 2.33-1.612 3.189-2.547.877-.95 2.026-1.269 3.2-1.323a.18.18 0 0 0 .068-.041l-.077-.036-.008.014Zm-3.874 4.808-.117.156c-.05-.02-.122-.035-.155-.072-.1-.12-.068-.254.101-.299.169-.045.229.052.171.215Zm6.647-6.755c.087-.307.249-.589.606-.526.13.022.216.215.297.307-.066.472-.389.49-.659.54-.203.043-.294-.126-.234-.324l-.01.003Zm-11.722-4.241s.068-.086.099-.14c.043.034.083.057.126.091-.034.043-.069.121-.101.129-.042.012-.081-.046-.124-.08Zm3.533-1.56c-.773.662-1.565.874-2.878 1.044 2.629-2.567 5.292-4.246 7.963-5.813 1.586-.925 3.296-1.894 5.238-1.574-1.497 2.525-3.952 3.796-6.058 5.484a.535.535 0 0 1-.671.032c-1.324-.928-2.506-.1-3.596.816l.002.011Zm2.012.494c-.914.813-2.043 1.206-3.009 1.908-.37.27-.719.193-.918-.128-.311-.485.195-.666.463-.806a55.956 55.956 0 0 1 3-1.394c.153-.064.343.01.464.42Zm32.531-49.998c.154.152.303.328.158.844-.273-.132-.523-.178-.645-.338-.264-.35-.958-.153-.93-.807.002-.08.156-.224.254-.239.526-.107.837.253 1.156.554l.007-.014Zm-.719-3.361c-.083-.648.51-.546.859-.765.024.47.105.983-.481 1.038-.132.013-.368-.151-.378-.273Zm1.889 20.4c-.258.604-.992.778-1.38.427-.852-.77.128-1.465.402-2.344.723.544 1.373.983.978 1.918Zm-4.444-18.274c-.487.506-1.088.587-1.856.804-.154.019-.513.115-.866.107-.135.002-.316-.165-.377-.308-.11-.242.01-.513.265-.616.756-.305 1.372-.878 2.046-1.32.307-.207.737-.38.958-.018.256.408.273.892-.17 1.351Zm2.307 15.372c.041.194-.022.38-.187.482-.216.126-.33-.048-.365-.22-.026-.096.054-.264.124-.34.165-.146.317-.085.418.081l.01-.003Zm-2.653-8.465c.467.011.585.49.619.958.054.792.217 1.612-.57 2.265-.259.217-.56.32-.83.155-.191-.12-.274-.302-.231-.608.088-.558.004-1.126.13-1.67.116-.452.245-1.111.872-1.097l.01-.003Zm-1.57-4.088c.012-.333.287-.576.601-.672.271-.084.491.016.472.328a.748.748 0 0 1-.539.69c-.297.033-.557-.09-.545-.343l.011-.003Zm1.293 8.67c.166-.18.404-.266.644-.172 1.034.393 1.381 1.436.889 3.192-1.001-.652-1.25-1.664-1.673-2.527-.053-.111.03-.395.137-.503l.003.01Zm6.684-2.472c-.331-.433-.629-1.08-.131-1.418.462-.306 1.144 0 1.399.613.224.542.37 1.128.535 1.662.012.338.06.643.02.96-.048.41-.331.793-.692.799-.541.009-.265-.44-.247-.797.05-.785-.479-1.28-.894-1.816l.01-.003Zm3.141-2.772c-.079-.08-.149-.176-.228-.257-.078-.081-.167-.16-.245-.24.555.044 1.267-.34 1.378.413.07.47-.51.546-.903.095l-.002-.01Zm2.065 10.372c.038.308-.013.583-.377.703-.244.02-.508-.08-.523-.303-.016-.314.24-.541.546-.623.19-.051.324.026.347.236l.007-.013Zm-1.141-1.261c.083.057.163.103.239.174 0 0-.046.126-.088.137-.142.06-.212.011-.22-.145a1.24 1.24 0 0 1 .066-.177l.003.01Zm2.159 3.918c.16-.247.421-.374.629-.27.182.087.267.36.327.457.022.505-.003.92-.249 1.225a50.006 50.006 0 0 1-2.021 2.347c-.244.27-.561.23-.793-.003-.216-.215-.069-.47.068-.677.674-1.032 1.362-2.057 2.05-3.082l-.011.003Zm.563-14.755c-.082-.308-.024-.641.315-.812.379-.192.574.074.633.376.101.461.349.713.722.92.452.253.352.893.096 1.12-.802.681-.68 1.432-.634 2.238.036.558-.098 1.116-.537 1.756-.514-.226-.892-.92-1.736-.477-.841.452-1.17-.141-1.187-.966-.027-1.242.559-2.182 1.731-2.496.465-.125.674-.487 1.012-.703-.141-.314-.321-.607-.422-.943l.007-.013Zm3.36 14.397-.254.488c-.103-.086-.201-.116-.232-.188-.075-.195.034-.338.227-.379.085-.022.174.056.262.09l-.003-.011Zm-3.387-6.134c-.254.193-.435-.02-.506-.24-.093-.304-.361-.63.05-.955.292-.135.47.022.558.225.152.312.272.677-.115.962l.013.008Zm3.419-11.239s.003.056-.002.08c2.51 1.337 4.012 3.65 5.306 6.153.115.22.136.509-.052.695-.198.19-.501.157-.609-.075-1.141-2.443-3.241-4.072-4.592-6.322-.065-.118-.045-.294-.042-.454l-.04-.023-.012-.043c-.463.215-.721-.158-1.043-.345-.322-.186-.545-.512-.324-.912.291-.521.818-.583 1.29-.55.266.02.34.295.244.57-.16.418-.253.829-.153 1.245l.053-.014-.024-.005Zm3.957 15.827c.807-1.34 1.257-2.915 2.697-3.88-.351 1.775-1.349 3.291-2.058 4.912-.145.346-.555.252-.644-.122-.074-.276-.136-.68-.002-.897l.007-.013Zm-1.524-8.518c-.372.213-.759.124-.882-.252-.291-.876-1.111-1.485-1.005-2.865.88.752 1.883 1.029 2.122 2.134.081.342.199.742-.235.983Zm-1.193-9.356c.366-.45.878-.44 1.332-.562 1.342-.36 1.284-.32 1.612.988.383 1.556 1.374 2.72 2.324 3.897.694.86 1.378 1.72 2.051 2.585.258.329.489.812.111 1.174-.452.428-.797.112-1.178-.252-1.233-1.18-2.144-2.594-3.032-4.094-.596-.998-1.417-1.993-2.474-2.642-.381-.238-.807-.476-.746-1.094Zm-1.006 10.23c-.588.089-.552-.455-.712-.798-.182-.383-.09-.714.375-.839.697-.187.412.355.343.646-.087.353.435.61-.006.99Zm-1.093-4.67c.191.039.197.23.177.406-.073.065-.164.192-.212.182-.173-.056-.24-.22-.177-.407.025-.075.164-.192.215-.171l-.003-.01Zm.761 6.814c.372-.134.45.242.586.41.127.432-.076.645-.398.754-.293.09-.419-.126-.452-.378-.045-.295-.128-.647.275-.79l-.011.004Zm10.816-5.306c.445-.199.484.2.53.414.114.424.847.5.504 1.16-.024.04-.095.07-.15.074-.751.03-.68-.635-.811-1.123-.045-.17-.045-.34-.075-.536l.002.01Zm7.165-.092c-1.59-.652-2.844-1.19-4.334-.962-.587.09-.933-.397-1.276-.794-.824-.96-1.679-1.912-2.272-3.07-.404-.79-1.072-1.212-1.874-.782-.891.477-1.217.02-1.595-.503-.34-.466-.643-.964-1.047-1.583.908-.584 1.608-.294 2.298-.297 1.122.006 2.222.267 3.347.239 1.246-.039 2.114.455 2.865 1.356.805.976 1.55 1.98 2.588 2.77.949.711 1.097 2.068 1.3 3.627Zm-11.632-8.977c-2.488.053-4.944.098-7.369 1.27-.492.234-1.065.251-1.605.35-.238.041-.488-.005-.701.086-.427.182-.503 1.123-1.092.826-.431-.214-.723-.714-1.039-1.13-.244-.32-.583-.57-.648-1.28 3.297-.622 6.522-1.724 9.856-2.254-1.845.085-3.682-.263-5.483.367-2.629.92-5.335.873-7.957 1.735-.997.335-1.466-.357-2.305-.53 1.055-1.304 2.434-1.31 3.528-2.001.428-.262.973-.34 1.342-.655 1.265-1.066 2.897-.89 4.204-1.842.163-.112.5-.077.682.01 3.517 1.76 7.462 2.328 11.244 3.347.853.226 1.2.928 1.797 1.722-1.668.152-3.055-.079-4.463-.053l.009.032Zm-56.29 30.028c-1.15 1.284-2.65 1.982-4.035 2.852-.494.314-1.047.36-1.72-.038 1.485-2.568 4.055-2.609 6.005-3.87.445.608-.013.799-.247 1.066l-.003-.01Zm-10.452 7.002c-1.347.463-2.617 1.008-3.86 1.818-.587.385-1.255.893-2.056.778.105-1.3 1.177-1.735 1.965-2.173 1.692-.953 3.434-1.76 5.109-2.777.751-.451 1.623-.617 2.327.148-.983 1.15-2.232 1.768-3.485 2.206Zm2.82.891c-.198.78-.664 1.03-1.048 1.326-.273.21-.683.58-.867.062-.14-.394.224-.685.577-.847.381-.182.785-.324 1.349-.544l-.011.003Zm-14.114.137c2.001-.684 3.504-2.893 5.75-2.79.179.667-.292.895-.645 1.013-1.707.56-3.207 2.143-5.105 1.777Zm7.19-3.165c.349-.934 1.042-.756 1.642-.758-.462.476-.896.967-1.642.758Zm24.531 1.309c-1.295 1.164-1.936 2.915-3.819 3.533-1.353.442-2.551 1.592-3.845 2.382-.683.41-1.339.96-2.134.992-.16-.514.179-.684.412-.827 1.876-1.07 3.538-2.515 5.345-3.714.212-.137.501-.282.596-.478.68-1.602 1.898-2.042 3.445-1.888Zm-16.295 10.078c-.036.078-.079.215-.113.212-.088.012-.171-.045-.249-.08.021-.052.054-.14.075-.146.084-.022.18-.002.284.004l.003.01Zm-13.033 23.821c.008.282-.13.444-.385.546-.633.26-1.033-.007-1.254-.538-.094-.225.076-.475.348-.559.512-.16 1.221.161 1.291.551Zm-3.223.307c-.058.629-.727.626-.998 1.051-.186.277-.452.507-.74.278-.401-.313-.823-.62-1.01-1.149-.196-.561.201-.94.602-.922.674.023 1.318.271 1.966.45.085.022.117.184.18.292Zm-6.574-4.087s-.003-.011-.017-.018c-.543.463-1.107.557-1.874.229.775-.741 1.334-.766 1.874-.229.021-.006.037-.033.055-.049a.133.133 0 0 1 .007.066c.138.009.279.028.417.036-.063.062-.111.177-.167.181-.164.021-.242-.06-.25-.217-.011.003-.021.006-.035-.002l-.01.003Zm-1.854 2.927s0 .125-.021.131c-.043.011-.117.031-.146.005-.027-.016-.005-.101.005-.149.059.007.104.006.162.013Zm-.889-.023c.2.662-.813.979-1.006 1.78-.783-.597-1.283-1.155-1.609-1.863.288-.406.6-.422.875-.371.606.11 1.531-.24 1.74.454Zm12.053 18.916s-.035.248-.103.289c-.299.193-.535-.05-.808-.056-.045 0-.101-.041-.257-.113.145-.096.197-.155.242-.156.313-.016.673-.317.919.049l.007-.013Zm-2.589.478s-.051.104-.085.147c-.058-.007-.132.013-.154-.026-.084-.103-.03-.197.121-.226.042-.011.104.052.116.094l.002.011Zm-8.188 3.579c-.523.708-1.084.347-1.732.294.68-.546 1.196-.945 1.732-.294Zm-79.054 13.597c-.198-.402-.593-.353-.933-.228-1.038.392-2.023.054-3.035.121-.334.021-.745-.073-.99-.269-2.136-1.721-4.79-2.498-7.234-3.637-1.036-.484-1.469-1.594-2.492-1.99-.746.893-.78 1.015.04 1.375.81.362 1.536.747 2.058 1.765-2.604-.086-4.167-1.904-6.163-2.846-2.13-1.019-3.21-3.149-5.2-4.83 1.268-.169 1.699.465 2.128.884 1.37 1.313 3.109 1.926 4.849 2.505.835.287 1.56.672 2.282 1.126l.01-.003c-.011-.383-.282-.844.416-.986 1.084-.222 2.156-.362 3.203-.086 1.866.5 3.79.62 5.795.162 1.805-.404 3.38.366 5.008.737 3.916.881 7.836 1.739 11.916 2.008 1.187.08 2.675-.069 3.485 1.179.178.281.475.293.792.208.243-.065.55-.272.697-.187 1.895 1.071 3.91-.151 5.846-.363 4.123-.457 8.27-1.08 12.349-2.162 4.331-1.16 8.689-2.135 13.002-3.529 1.54-.503 3.19-.98 4.823-.883.656.04 1.303.003 1.968-.221.498-.168.96-.178 1.353.149 1.324 1.098 2.881.613 4.417.179 2.054-.573 4.049-1.494 6.132-1.916.548-.113 1.148-.364 1.58-.06 1.064.76 2.263.291 3.283-.13 1.293-.539 2.593-.547 3.885-1.007-.032.645-.412.746-.814.979-1.83 1.07-3.81 1.328-5.737 1.867a58.369 58.369 0 0 0-7.691 2.731c-1.885.823-3.79 1.151-5.771.433-2.408-.877-4.943-.027-7.361 1.132-2.817 1.357-5.708 2.483-8.483 3.999-1.117.606-2.362.69-3.48.194-1.54-.677-3.145-.247-4.715.276-1.453.491-2.873 1.19-4.275 1.872-1.352.658-2.715.727-4.074.683-3.668-.13-7.35.198-11.054.827-2.446.417-4.884.275-7.295.149-1.24-.065-2.482-.176-3.731-.193-.592-.012-1.187.091-1.687-.252-.13-.488.3-.489.503-.657.387-.331.61-.686.383-1.148l.012.043Zm-11.378-2.539c1.414.166 1.947.466 2.729 1.483-1.317-.056-1.919-.951-2.73-1.483Zm.629 2.602c-.043.137-.053.31-.121.351-.316.175-.583.065-.799-.15-.092-.089-.04-.273.095-.321.301-.103.588-.089.822.11l.003.01Zm-14.958-18.433c1.203.689 1.41 1.837 1.962 2.677-1.076-.427-1.758-1.153-1.962-2.677Zm7.645 9.184c-2.588-.238-3.615-2.552-5.853-3.509 2.654-.574 2.951-.393 5.853 3.509Zm-.056-1.734c4.035.781 8.168.446 11.831 2.076-1.036.358-2.04.706-3.068.38-.718-.228-1.476-.354-2.214-.532-.69-.167-1.382-.129-2.123.104-2.554.82-3.107.571-4.427-2.028Zm12.55-1.114s.089-.092.141-.106c.053-.015.099.03.15.05-.047.036-.089.092-.142.106-.042.012-.098-.03-.15-.05Zm14.257 4.833c1.825-.5 3.635-.928 5.654-.742-.287.406-.397.674-.497.678-1.725.11-3.456.199-5.16.054l.003.01Zm17.38-.205s.026.016.037.013c.692-.288 1.398-.613 2.182-.346-.998.88-1.019.886-2.182.346l-.064.017s-.01.003-.024-.005c-1.274.989-2.547 1.648-4.156 1.432-1.114-.145-2.341.218-3.713.381.238-.802.678-1.022 1.2-1.23 2.243-.919 4.484-1.599 6.67-.583.02-.006.028-.019.046-.035l.003.01Zm4.899-1.403c.054-.094.11-.178.178-.264.104.006.262-.036.3.022.142.189-.045.296-.182.333-.085.022-.187-.064-.286-.094l-.01.003Zm10.624-1.541c2.315-1.756 4.924-1.99 7.791-2.485-1.248 1.72-2.694.972-3.901 1.454-1.249.493-2.569.677-3.887 1.041l-.003-.01Zm9.022-5.37c3.144-.309 6.18-1.27 9.172-2.696.059.938-.478 1.218-.904 1.275-1.712.243-3.206 1.257-4.77 1.971-1.481.681-2.471.242-3.498-.55Zm12.037-1.465c-.598-.669-1.371-.428-2.038-.806 1.901-.85 3.697-.99 5.411-.087-1.044 1.472-2.453 1.918-3.383.895l.01-.002Zm3.758 2.786c-1.053.759-2.107.882-3.409 1.05 1.479-1.453 2.265-1.686 3.409-1.05Zm.296-5.951c-.152.109-.347.139-.43-.044-.041-.068-.005-.271.056-.298.154-.099.337-.136.451.038-.016.106-.006.274-.063.312l-.014-.008Zm1.266 5.737s-.1.22-.171.25c-.255.103-.471.058-.558-.225-.017-.064.097-.185.151-.279.244-.02.47.021.578.254Zm.762.057c.885-.839 1.883-1.129 2.852-.764l-2.852.764ZM76.1 136.726l.056-.129.063.108-.105.029-.014-.008Zm-42.816-22.484s.01.043.027.061l-.052.059c-.006-.021-.011-.042-.025-.05-.045.001-.048-.01-.011-.042-.014-.053-.014-.053.04-.022l.02-.006.006.021s.003.011.016.019c0 0-.005-.021.005-.024-.277-.528-.407-1.14-.075-1.718.696-1.163.703-2.448 1.093-3.654.838-2.575 2.064-4.971 3.635-7.22.261-.377.568-.709 1.037-.778.643-.093 1.01.388.707.992-1.193 2.352-2.324 4.722-3.698 6.987-1.036 1.709-2.264 3.378-2.691 5.377l-.035-.002Zm4.01 20.458c-1.159-.689-1.422-1.459-.924-2.728.832.697.898 1.576.924 2.728Zm-1.612-4.156s-.01.093-.019.141c-.035-.002-.09.001-.096-.02-.011-.042-.026-.095-.005-.146.032-.133.08-.124.123.035l-.003-.01Zm-.113-16.221-.042.011.006.021a.087.087 0 0 0 .039-.022l-.012.083c-.112.132-.205.078-.12-.07.015-.027.012-.038.02-.051-.011-.042.033-.088 0 0 0 0 .006.021.027.016l.031-.009c.018-.061.1-.049 0 0l.006.021a.082.082 0 0 1 .045 0Zm5.075-14.648c.49-.324.82-.787 1.156-1.263.27-.39.576-.427.92-.201.4.267.294.59-.016.912-.524.538-.863 1.299-1.578 1.548-.37.053-.642-.033-.811-.283-.256-.363.08-.544.33-.713Zm4.263 2.685c.083-.578.71-.69 1.116-.946.31-.197.691-.253 1.044-.371.808-.239 1.437-.089 2.168.317 1.65.92 3.128 2.125 4.862 2.933 1.292.596 2.147 1.889 3.562 2.35.496.163.763.693.85 1.272.078.546.254 1.033.527 1.505.75 1.276.506 2.772-.565 3.888-.292.305-.558.24-.79.052-.36-.289-.703-.595-1.027-.917-2.02-2.048-4.194-3.907-6.271-5.872-1.395-1.318-3.123-2.104-4.592-3.278-.344-.271-.976-.306-.88-.922l-.004-.011Zm18.556 7.907c-.06-.223.084-.364.274-.414.201-.054.335.023.334-.022.096.44.065.664-.096.741-.263.116-.438-.03-.498-.298l-.014-.007Zm5.066.357c-.017-.063.219-.24.364-.29.176-.059.33.048.367.231.038.182-.004.364-.073.36-.426.057-.617-.062-.658-.301Zm2.096 3.765c-.087-.533.431-.501.677-.681.353-.162.627-.111.7.244.082.433-.205.714-.572.824-.364.12-.731.059-.805-.387Zm2.526-3.754c-.012-.213.145-.346.336-.351.069.004.133.157.187.234-.023.21-.153.358-.347.354-.08-.002-.175-.147-.18-.248l.004.011Zm10.633 6.645c.819.099 1.084.539 1.443.908-.572.062-1.053-.24-1.443-.908Zm5.315-5.388c-.035-.342.274-.539.597-.602.235-.052.479-.072.55.238-.023.336-.174.615-.486.721-.34.125-.627-.059-.65-.359l-.011.002Zm3.965 2.629c-.011.003-.03.019-.045.046a.217.217 0 0 1-.079.044c.024-.041.044-.091.067-.132a.107.107 0 0 1 .004-.069l-.008-.032c-1.386-.06-1.624-.314-1.521-1.705.72.409 1.403.76 1.52 1.705.022-.005.035.002.06.007 0 0-.029.065-.044.091.014.053.035.048.067.039l-.021.006Zm1.722 3.048c-.071-.265-.006-.487.262-.627a.61.61 0 0 1 .67.048c.56.44.787 1.163.336 1.761-.433.581-.543 1.27-1.023 1.887-.743-.324-1.585-.212-2.389-.337.173-.921.717-.749 1.223-.805 1.144-.124 1.172-.189 1.039-1.402a4.389 4.389 0 0 0-.108-.528l-.01.003Zm6.572-2.511c.003.011.006.021-.002.035-.001.08-.01.173-.011.253-.211-.069-.022-.165.011-.253l-.008-.032-.072-.015c-.486.13-.852-.01-1.009-.513l-.064.017s-.02-.074-.017-.109c-.017-.018-.044-.034-.06-.052-.005-.021.018-.062.03-.099.015.053.018.109.022.165a.236.236 0 0 0 .059.052l.009.032c.528-.267.622.378.961.503l.125.001-.064.017c.021-.006.038.012.062.017l.028-.019Zm-.051 4.454c.73-.275.931.182 1.132.889-1.521.533-2.827.349-4.11 0-.245-.071-.393-.201-.253-.523.1-.22.306-.297.447-.233.907.427 1.837.223 2.784-.133Zm1.309-2.803c1.509.606 1.832 1.303 1.257 2.877.113-1.269-1.598-1.446-1.257-2.877Zm-69.948-1.132c.31 1.916-.394 3.433-.571 4.968-.555-1.521-.93-3.044.57-4.968Zm216.801-40.523c.205-1.43.532-2.493.454-3.585 1.14 1.295 1.075 1.813-.454 3.585Zm12.344-2.603c.216-.501.434-1.082.988-1.003.704.095 1.643-.077 1.897.911.193.766.265 1.541-.003 2.397-.329 1.053-.279 1.074-1.539.764.624 2.457.619 4.888-.386 7.35l-.002-.011c-.005.024-.01.048-.021.05-.105.029-.117-.014-.025-.095 0 0 .029.026.056.042a.08.08 0 0 1 .01-.048c-.019-.45-.124-.842-.457-1.116-.38-.318-.777-.28-1.047.235-.228.459-.434.957-.518 1.445-.204 1.27-.82 2.434-1.17 3.664-.252.874-.932 1.465-1.723 1.892-.554-.714-.013-1.234.322-1.755.504-.782 1.008-1.52.494-2.426-.107-.188-.099-.496-.048-.726.978-3.873 1.516-7.822 3.185-11.563l-.013-.007Zm-2.23-2.026c.146-.176.345-.15.487-.04.355.268.482.655.273 1.142-.097.23-.234.438-.53.982-.182-.553-.284-.764-.314-1.006-.049-.35-.194-.72.097-1.07l-.013-.008Zm2.19 16.539c.026.265-.146.425-.36.516-.031.009-.143-.154-.158-.253-.016-.188.13-.318.29-.395.081.046.224.076.228.132Zm-.813 3.386c-1.532 2.818-2.766 5.818-4.962 8.269-1.314 3.123-3.429 5.54-6.125 7.433-.763.533-1.52 1.088-2.28 1.633.239-1.052 1-1.677 1.605-2.418 2.268-2.777 4.651-5.46 6.845-8.296 1.658-2.136 2.956-4.517 3.947-7.031.208-.533.253-1.59.994-1.357.582.185.305 1.18-.021 1.778l-.003-.01Zm-5.097-5.164c.082-.624.279-1.154.961-1.189.236-.006.376.263.311.53-.19.766-.719.738-1.272.659Zm-77.597 65.594a7.17 7.17 0 0 0 1.79-.332c2.596-.832 5.224-1.037 7.85-1.502 2.129-.377 4.322-.181 6.422-1.255.637-.329 1.424-.347 2.14-.38 4.101-.202 8.041-1.508 11.95-3.145.081-.034.208.058.469.146-.458.782-1.093 1.077-1.706 1.321-1.842.732-3.686 1.498-5.556 2.079-3.17.974-6.411 1.593-9.513 2.776-1.819.692-3.401.911-5.207.68-1.358-.17-2.835.487-4.225 1.132-2.273 1.063-4.581 2.295-7.01 2.23-2.418-.067-4.698.93-7.043 1.388-1.763.347-3.435.148-5.098-.099-2.03-.308-4.092-.232-6.166-.154-.718.022-1.446.138-2.103-.118-1.581-.621-3.226-.929-5.012-.621-.14.026-.302-.113-.433-.18-.03-.537.411-.791.662-.824 1.557-.19 2.766-1.423 4.233-1.907 1.414-.469 2.465-1.785 3.864-2.353 1.896-.78 3.776-1.625 5.776-1.638 1.31-.01 2.594-.457 3.922-.574 2.728-.254 5.271.28 7.853.621.351.043.95.041.716.899-.294 1.101.367 1.877 1.403 1.816l.022-.006Zm7.588-4.509c.696-.357 1.107-.217 1.551-.211-.443.209-.848.386-1.551.211Zm3.388-.704s.062-.107.109-.142c.126-.08.225-.049.265.099-.031.054-.075.145-.096.151-.096-.02-.187-.064-.288-.105l.01-.003Zm1.139-.271c.56-.57.97-.351 1.408-.025-.556.501-.992.436-1.408.025Zm-54.144 20.459c-1.024.91-1.97.971-3.239.754 1.182-.952 2.165-.705 3.239-.754ZM85.216 176.11c-1.536.309-2.983.277-4.182-.776-.89-.784-2.137-1.131-2.747-2.353 3.014.646 6.062.488 9.15.263 1.777-.125 3.548.105 5.326.106.849-.001 1.656-.07 2.504-.285.764-.194 1.58-.401 2.332-.341 3.302.285 6.121-1.322 8.872-3.263 1.57-1.114 3.189-2.002 5.05-2.194.628-.066 1.194-.024 1.749.145 2.843.896 5.76.796 8.782-.093 1.502-.437 3.053-.478 4.518-1.222.189-.096.462.035.644.293-.569 1.254-1.39 1.951-2.79 1.963-1.117.015-2.24.554-3.397.717-3.17.463-6.305.383-9.454.67-1.537.14-1.561.089-1.858 1.645-.133.729-.644.763-1.091.826-2.313.37-4.611.918-6.939 1.019-2.115.09-4.143.929-6.213 1.529-1.795.526-3.553 1.485-5.428 1.375-.345-.021-.846.136-.948-.246-.362-1.266-1.161-.7-1.982-.468-.655.175-1.243.56-1.885.698l-.013-.008Zm22.496.854c.566.337.832.992 1.363 1.327 3.45 2.187 6.354 5.123 9.729 7.41 2.476 1.676 4.608 3.762 7.037 5.814-1.184.397-2.005.333-2.783-.288-2.203-1.76-4.464-3.437-6.686-5.181-2.351-1.846-4.749-3.656-6.999-5.631-1.655-1.442-3.407-2.744-5.077-4.159-.291-.24-.565-.462-.374-.888.143-.311.472-.354.798-.362.939-.001 1.873.021 2.792-.521.528-.311.959-.098 1.429.265 3.486 2.7 7.058 5.297 10.517 8.027 2.298 1.815 4.391 3.923 6.753 5.641 1.449 1.054 2.816 2.187 4.221 3.287.215.169.503.274.439.836-1.583-.416-3.365-.177-4.375-1.837-.563-.917-1.545-1.369-2.363-2.013-4.003-3.198-8.033-6.365-12.027-9.565-.982-.793-2.024-1.513-2.816-2.528-.22-.27-.388-.6-.761-.682-.324-.072-.709-.241-.961.213-.168.305-.097.695.134.838l.01-.003Zm-21.818.497c.362-.551.996-.425 1.421-.823.199-.19.449-.143.565.121a.507.507 0 0 1-.212.647c-.596.308-1.221.68-1.763.052l-.01.003Zm140.178 6.947c-.633.51-1.078 1.299-1.684 1.87-1.317 1.251-2.846 2.137-4.446 2.884-.431.206-.787.313-1.064-.169-.312-.53-.155-1.003.363-1.267 2.176-1.129 3.798-3.187 6.04-4.242.845-.397 1.618-1.229 2.234-2.098.749-1.052 1.646-1.929 2.893-2.388-1.406 1.853-2.499 3.941-4.333 5.42l-.003-.01Zm13.211-14.704c-1.393 2.531-2.945 4.98-4.402 7.483-.93 1.6-2.492 2.53-3.63 3.902-.224.265-.581.156-.797-.059-.278-.277-.046-.635.136-.843.919-1.007 1.569-2.214 2.397-3.265 2.544-3.18 4.704-6.61 6.892-10.024.137-.207.262-.456.675-.521-.087 1.238-.729 2.307-1.284 3.319l.013.008Zm1.846-4.856s-.062.063-.099.095l.017.064c-.021.005-.031.008-.045 0 .011.168.009.328-.194.416-.021.006-.1-.076-.101-.121-.001-.215.112-.302.285-.292l-.009-.032c.011-.002.015-.026.037-.032-.026-.095-.022-.165.067-.211.012.042.047.089.029.106l.013.007Zm36.926-86.915c-.042.602.04 1.205.133 1.804.329 2.286.221 4.586-.646 6.885-.381.988-1.01 2.61-1.279 3.636-.94 3.546-2.564 6.866-4.507 9.964-1.45 2.319-3.228 4.431-5.276 6.377-2.493 2.36-5.462 3.996-7.794 6.529-2.7 2.938-5.9 5.147-9.255 7.033-2.57 1.438-4.699 3.463-6.849 5.493-2.72 2.568-5.471 5.1-8.511 7.232-.532.381-1.06.863-.7 1.573.401.778 1.084.538 1.711.132 2.975-1.91 5.562-4.341 8.058-6.895a27.585 27.585 0 0 1 4.448-3.679c.336-.226.681-.671 1.266-.305-.316.766-.847 1.487-1.076 2.321-.1.345-.362.721-.816.548-.782-.302-1.162.266-1.64.848-.863 1.049-1.555 2.268-1.85 3.574-.358 1.538-1.179 2.996-1.653 4.52a562.986 562.986 0 0 0-3.768 12.343c-.291.987-.827 1.857-1.078 2.867-.255 1.033-1.201 1.389-2.22 1.81.028-1.291.686-2.296 1.184-3.27 1.406-2.739 2.174-5.659 3.201-8.501.398-1.094 1.049-2.087 1.334-3.219.119-.486.409-1.052-.263-1.236-.539-.151-.721.352-.955.745-.625 1.007-.92 2.143-1.382 3.209-.217.501-.434.957-1.022 1.001-.345.024-.752.28-.981-.112-.17-.295.021-.596.207-.874.29-.44.555-.886.617-1.414.053-.48-.039-.909-.467-1.067-.491-.187-.813.218-1.007.633-.534 1.177-1.102 2.351-1.514 3.563-.302.898-1.033 1.299-1.595 1.904-.271.299-.382.011-.554-.125-.299-.226-.622-.083-.693.288-.343 1.932-1.69 3.156-2.994 4.414-.324.314-.44.811-.882 1.02-.491-.311.013-.628.103-.925.125-.42.101-.765-.281-.924-.369-.151-.701.006-.976.33-.634.76-1.208 1.618-1.401 2.544-.476 2.24-2.066 3.359-3.792 4.355-1.148.66-2.336 1.251-3.493 1.879-.218.115-.457.236-.624.417-.336.351-.909.663-.718 1.248.199.617.751.605 1.335.506 1.484-.25 2.741-1.178 4.102-1.804.381-.181.718-.487 1.15-.524a.353.353 0 0 1-.008-.031l.042-.012c.034-.168-.207.033-.018-.108.029-.02.1-.05.106-.029.036.093.002.136-.096.151.003.01.006.021-.012.037l-.032.009c.358 1.085-.316 2.117-.66 3.072-.581 1.633.081 2.795.466 4.146.727-1.808 1.772-3.485 1.934-5.413.018-.187.06-.368.099-.561.313-1.492 1.678-2.652 1.583-4.274.95-.72 1.373-2.014 2.618-2.609-.167 2.293-1.337 4.265-2.069 6.346-.101.3-.287.577-.436.867-.193.381-.267.821.105.982.473.203.575-.347.728-.66.608-1.197 1.189-2.409 1.793-3.661.169.125.324.197.315.245-.655 2.924-1.194 5.896-4.329 7.463-.8.396-.939 1.058-.566 1.73.347.623.795.73 1.474.264 1.216-.826 2.437-1.595 3.31-2.897.999-1.471 2.48-2.448 3.695-3.704 1.48-1.532 2.917-3.099 4.656-4.337.894-.637 1.509-1.597.833-2.767-.233-.403-.08-.932.192-1.437a34.265 34.265 0 0 0 2.881-7.12c.587-2.077 1.614-4.033 2.009-6.149.058-.333.258-.853.436-1.161.745-1.233 1.271-2.522 1.661-3.898.22-.786.418-1.736 1.776-2.372-1.334 3.514-2.066 6.697-3.258 9.856-1.001 2.642-1.795 5.341-2.533 8.037-.8 2.929-2.203 5.679-3.072 8.603.588.081.76-.249.859-.514.439-1.276 1.054-2.486 1.619-3.716 1.566-3.452 2.841-6.973 3.948-10.575 1.067-3.454 2.53-6.822 3.802-10.229.431-1.137.873-2.278.955-3.492a3.207 3.207 0 0 1 .844-1.919c.338-.385.398-.799.451-1.233.04-.443-.826-.801-.131-1.249.853-.535 1.483-1.521 2.521-1.663.622-.087.646.429.516.872a33.009 33.009 0 0 1-1.037 2.89c-.7 1.653-1.462 3.288-2.187 4.936-1.78 4.043-2.759 8.291-4.247 12.415-.678 1.863-1.305 3.746-1.957 5.624-.81 2.34-2.195 4.438-2.921 6.801-.085.273-.161.498.102.632.316.165.688.247.99-.107a5.82 5.82 0 0 0 1.019-1.647c.684-1.671 1.467-3.312 2.056-5.002.459-1.327 1.208-2.505 1.724-3.79.427-1.068.976-2.101 1.398-3.191.789-2.04 1.599-4.085 2.621-6.017 1.073-2.037 1.576-4.216 2.287-6.337 1.251-3.697 2.777-7.297 4.215-10.93.122-.305.195-.665.412-.871 2.011-1.959 4.128-3.775 6.608-5.166-1.631 1.856-1.636 4.288-2.797 6.291a2.718 2.718 0 0 0-.327.894c-.439 3.093-1.495 6.079-2.513 9.043-.769 2.239-1.894 4.38-2.861 6.559-1.378 3.095-2.917 6.142-3.526 9.485a2.644 2.644 0 0 1-.348.899c-1.119 1.867-1.76 3.993-3.05 5.769-.322.45-.81 1.205-1.013 1.714-.744 1.914-1.396 3.872-2.252 5.748-.606 1.332-1.376 2.64-2.867 3.664.639-1.795 1.336-3.334 1.946-4.905-1.209.982-1.715 2.39-2.391 3.627-.704 1.302-1.455 2.468-2.403 3.62-1.263 1.542-2.231 3.334-3.386 4.984-1.221 1.735-2.526 3.414-3.762 5.142-.94 1.308-2.29 2.056-3.464 3.04-1.924 1.606-3.616 3.49-5.537 5.107-2.688 2.264-5.492 4.22-8.619 5.773-2.849 1.411-5.842 2.451-8.578 4.195-.879.565-1.856.804-2.768 1.037-4.043 1.049-7.861 3.026-11.824 4.372-2.203.738-4.491 1.112-6.737 1.646-1.307.316-2.615.508-3.91 1.207-2.134 1.162-4.428 1.811-6.71 2.377-.476.127-.945.276-1.383-.004-.381-.239-.985-.384-1.439-.217-3.514 1.249-7.066 1.723-10.652 2.116-1.782.194-3.57.616-5.361.948-1.486.285-2.948.529-4.449.466-.985-.043-2.034.306-3.038.575-1.922.515-3.84.2-5.771.729-1.098.294-2.216.219-3.256-.07-1.125-.312-2.285-.671-3.476-.466-.864.153-.809-.782-1.345-.797-.492-.017-.365 1.006-1.211.892-1.973-.267-4.161.058-5.945-.599-1.407-.52-2.963-.41-4.274-1.081-.525-.268-1.062-.204-1.447.388-.458.702-.874.541-1.358.216-1.194-.782-2.326-1.671-3.953-1.53-.408.041-.837-.378-1.179-.683-1.665-1.44-3.392-2.771-5.238-3.957-1.025-.657-1.717-1.721-2.437-2.675-1.739-2.305-4.085-3.88-6.107-5.848-2.189-2.127-4.563-4.058-6.684-6.272-1.116-1.166-2.474-2.051-3.505-3.319-.284-.344-.682-.772-1.276-.749-.405.768.34 1.101.3 1.669.006.021.03.026.036.047l.017.064c.845-.056.995.8 1.47 1.218 3.106 2.723 6.127 5.547 9.346 8.137.691.553 1.269 1.273 2.015 2.027-1.093.316-1.658-.271-2.168-.737-1.74-1.555-3.487-3.085-5.527-4.276-.924-.536-1.6-1.411-2.158-2.352-.558-.941-1.33-1.711-2.104-2.446-.47-.442-.81-.907-.88-1.593-.021.006-.034-.002-.056.004.013-.037.004-.069.007-.104-.964-1.104-2.413-1.693-3.185-3.224 1.81-.553 3.487-.718 5.187-.753.472-.013.76.136 1.06.453.75.811 1.606 1.512 2.29 2.374 2.251 2.826 4.886 5.266 7.637 7.505 2.936 2.381 5.676 5.043 8.934 7.02.783.472 1.413 1.177 2.127 1.77.697.574 1.405 1.145 2.285 1.432.353-.628-.126-.727-.347-.918-1.388-1.207-2.739-2.446-4.269-3.467-1.141-.75-2.861-2.186-3.882-3.082-2.775-2.414-5.548-4.817-8.234-7.322-1.974-1.833-3.81-3.828-5.663-5.797-.254-.272-.988-.393-.565-1.097.25-.419.725-.547 1.141-.556.462-.01 1.074-.049 1.164.54.31 2.256 2.308 2.868 3.602 4.191 1.594 1.64 3.482 2.939 5.359 4.242 4.045 2.8 7.345 6.538 11.15 9.63 1.389 1.127 2.57 2.491 3.917 3.675.428.373.958.447 1.55.334-1.232-1.43-2.803-2.474-4.173-3.743a580.677 580.677 0 0 0-11.316-10.209c-1.809-1.594-3.892-2.864-5.62-4.536-1.295-1.243-3.12-2.015-3.635-4.148 1.679-.62 3.463-.553 5.134-1.33a.35.35 0 0 1 .425.067c2.918 3.284 6.505 5.73 9.875 8.461 2.718 2.202 5.636 4.134 8.345 6.725-1.063.216-1.808.098-2.406-.446-1.696-1.556-3.81-2.556-5.477-4.131-2.347-2.211-5.149-3.754-7.739-5.604-.701-.504-1.374-1.028-1.904-1.738-.568-.768-1.39-1.093-2.552-1.077.372 1.093 1.116 1.632 1.742 2.236 1.158 1.11 2.612 1.845 3.523 3.259.253.397.904.461 1.331.744 3.015 1.998 5.86 4.211 8.626 6.547 1.961 1.656 4.353 2.809 6.007 4.887.923 1.161 2.08 2.1 3.514 2.465.693.178 1.356 1.386 2.382.736.072-.155.013-.037.039-.022a.088.088 0 0 0 .05-.025c-2.146-1.798-4.302-3.594-6.537-5.471 1.305-.747 2.23-.211 3.059.35 2.608 1.789 5.133 3.69 7.755 5.452.83.561 1.316 1.487 2.189 1.957.239.129.503.399.765.023.248-.34.018-.607-.21-.785-2.64-2.12-5.275-4.219-8.067-6.446 1.275.112 2.492-.203 3.353.77.195.221.579.3.794.004.422-.579.823-.266 1.284-.276 2.079-.058 3.447 1.12 4.781 2.421.324.322.703.595 1.063.885.216.169.473.452.742.062.227-.333-.042-.579-.245-.786-.443-.472-1.224-.637-1.252-1.504.6-.422 1.054-.078 1.363.145 2.145 1.583 4.656 1.195 7.179.723 1.251-.233 2.47-.628 3.766-.691.951-.039 1.92-.776 2.898-1.14 1.162-.436 2.286-.51 3.33-.29 1.968.415 3.983.5 5.995.108 1.528-.296 2.825.152 4.143.423 1.883.393 3.49-.242 4.925-1.478.928-.806 1.94-1.293 2.954-1.61 1.725-.53 3.511-.963 5.18-1.581 2.338-.865 4.378-.685 6.639-.529 2.064.139 4.27-.372 6.401-1.84 2.406-1.667 5.057-3.014 7.744-4.097a36.427 36.427 0 0 0 3.394-1.613c3.333-1.757 6.817-2.781 10.348-3.546 2.226-.482 4.358-1.269 6.46-2.298 1.299-.644 2.173-1.775 3.177-2.76.235-.221.383-.556.108-.823-.275-.267-.555-.045-.809.148-.975.716-1.846 1.562-2.918 2.168-2.414 1.339-4.905 2.098-7.547 2.59a30.783 30.783 0 0 0-8.863 3.09c-2.003 1.059-4.061 1.997-6.047 3.119-1.09.622-2.213 1.332-3.495 1.573-.743.142-1.433.736-2.117 1.226-2.529 1.802-5.172 2.078-7.768 1.218-1.206-.403-2.298.002-3.293.553-1.133.633-2.251.853-3.437 1.16-2.203.567-4.499 1.08-6.475 2.495-1.765 1.268-3.466 1.554-5.311.924-1.406-.475-2.955-.128-4.434-.073-1.514.054-2.95-.152-4.407-.307-1.43-.139-2.814-.109-4.263.439-2.169.819-4.41 1.034-6.614 1.556-.531.131-1.075.254-1.595.427-1.244.425-2.43.265-3.457-.356-1.666-1.019-3.565-1.43-5.598-1.374-.698.017-1.138-.399-1.59-.778-4.259-3.515-8.492-7.059-12.784-10.531-2.818-2.278-5.717-4.476-8.628-6.638-.58-.435-.958-.958-1.352-1.625 1.909-1.113 3.903-1.489 5.892-1.84a.81.81 0 0 1 .731.236c1.797 1.892 4.095 2.991 6.456 4.028 1.142.5 2.321 1.013 3.281 1.892 1.443 1.328 3.303 2.102 4.74 3.454.122.115.314.2.484.029.195-.2.286-.451.105-.664-.255-.318-.495-.662-.817-.894-2.67-1.896-5.212-3.986-8.169-5.477-1.323-.667-2.496-1.625-3.954-2.586 1.349-.543 2.345-.208 3.069.257 2.152 1.354 4.519 2.287 6.78 3.418.653.325 1.176.923 2.119 1.023.005-.956-.537-1.287-1.101-1.659-1.578-1.031-3.337-1.808-4.687-3.593 1.911-.387 3.596-1.452 5.309-.128 1.17.902 2.632 1.373 3.87 2.234 1.069.735 2.394 1.244 4.249.985-2.222-2.085-4.717-3.154-6.932-4.661.353-.583.808-.705 1.289-.811 1.348-.293 2.687-.618 4.033-.876.624-.122 1.132-.633 1.275-1.285.403-1.959.67-1.088 4.373-1.717 1.939-.326 3.852-.203 5.756-.066 1.156.088 2.044-.695 2.802-1.625.177-.229.209-.488-.003-.646a.675.675 0 0 0-.49-.096c-.158.042-.326.178-.475.297-1.008.884-2.155.998-3.289.905-2.591-.204-5.204-.196-7.842.181-.241.031-.508.091-.701.006-.395-.166-.773-.394-.178-.917 1.584-1.401 3.012-2.999 4.84-4.079.743-.438 1.503-.471 2.26-.606 1.261-.236 2.514-.503 3.713-1.142 1.248-.664 2.615-.758 3.879-.438.946.235 1.924.336 2.842.681 1.272.477 2.715.033 4.073-.012a15.724 15.724 0 0 1 3.865.315c.61.121 1.259.094 1.87.135.039.398-.225.594-.424.613-3.558.284-7.122 1.137-10.68 1.295-1.723.075-3.619.731-4.871 1.634.188.575.604.1.896.09 2.854-.163 5.711-.361 8.559-.545 1.871-.115 3.627-1.085 5.493-1.301 1.636-.189 3.286-.495 4.812-1.267.889-.442 1.835-.333 2.577-1.111.506-.521 1.54-.889 2.202-.908 2.74-.041 5.474-.569 7.964-2.134 2.372-1.498 4.739-1.497 7.157-1.259 1.582.156 3.121.323 4.778-.337.94-.377 2.042-.366 3.022-.299 1.283.099 2.362-.394 3.294-1.269 1.093-1.031 2.434-1.731 3.797-2.221 3.64-1.327 7.268-2.788 10.79-4.515 1.931-.949 3.553-2.712 5.715-3.178 2.044-2.047 4.744-2.532 7.095-3.855 1.419-.789 1.885-1.879 2.502-3.168-.684-.101-.955.494-1.386.7-.221.105-.488.29-.654.051-.24-.345.075-.566.315-.766.343-.285.718-.533 1.076-.8.475-.343.873-.756 1.067-1.342.156-.473.582-.996.091-1.353-.522-.382-1.174-.662-1.817-.103-.724.636-1.45 1.263-1.99 2.123-1.785 2.886-4.462 4.216-8.789 3.445-2.462-.442-4.678 1.344-5.79 3.868-.261.592-.82.742-1.324.934-3.039 1.121-6.135 1.735-9.24 2.442.884-.884 2.052-.834 3.064-1.366 1.782-.955 3.63-1.791 5.537-2.404.958-.313 2.466-.979 3.357-1.501 2.728-1.606 5.583-2.779 8.466-3.893.287-.111.646-.207.826-.425 1.66-2.126 4.192-2.816 6.158-4.478 1.681-1.416 3.282-2.878 4.701-4.553 1.378-1.619 2.838-3.18 4.019-4.984.344-.535.873-.926 1.402-1.318.612-.46 1.383-.541 1.686-.213.703.765 1.281.304 1.814-.202 1.988-1.873 4.523-2.428 6.725-3.756.09-.047.221.02.676.069-3.925 3.436-7.789 6.55-11.941 9.854 1.058.273 1.767-.166 2.256-.581 1.762-1.449 3.694-2.478 5.644-3.523.723-.387 1.453-.662 1.54-1.73.044-.511.631-.816 1.045-1.086 2.185-1.437 3.85-3.587 6.034-5.069.729-.491 1.202-1.515 1.985-2.099.265-.196.615-.324.811-.059.193.255.078.672-.179.854-1.173.86-1.878 2.287-3.273 2.91-.658.29-1.212.927-1.787 1.444a52.059 52.059 0 0 1-4.169 3.366c.593.568.725-.081.969-.225.98-.57 1.898-1.327 2.909-1.779 3.009-1.317 5.362-3.561 7.571-6.049.26-.297.526-.573.789-.859 1.144-1.306 2.341-2.501 3.051-4.202.808-1.931 2.721-3.114 3.882-4.822 1.852-2.722 4.416-4.897 5.827-7.955.25-.544.413-1.076.512-1.636.061-.323.015-.663-.305-.759-.368-.105-.606.23-.638.535-.334 2.599-2.568 3.936-3.819 5.94-1.148-.987-1.07-.95-.461-2.227.893-1.863 1.589-3.787 2.039-5.782.313-1.367.701-2.709.793-4.096.038-.578.105-1.13-.387-1.952-.683 5.52-2.147 10.535-4.781 15.238-.442-.086-.243-.695-.648-.769-1.461 1.391-2.299 3.206-3.243 4.924-.819 1.503-1.964 2.638-3.292 3.471-2.27 1.415-4.397 2.984-6.353 4.894-.905.889-1.912 1.988-3.345 1.543.018-.822.535-1.256 1.028-1.615 1.661-1.195 3.099-2.67 4.628-4.023 2.194-1.95 3.78-4.397 5.562-6.703 1.027-1.32 1.867-2.749 3.063-3.989 2.1-2.175 3.22-5.008 4.171-7.84.201-.6-.392-.577-.734-.713-.011.003-.016.027-.023.04.145.416-.039.829-.197 1.212-.84 2.02-2.364 3.597-3.566 5.407a36.746 36.746 0 0 1 3.763-6.618l-.018-.064s.027.016.038.013c.471-1.41 1.127-2.721 2.239-3.769.272-.254.544-.588.679-.931.664-1.62 1.673-3.094 2.195-4.779.112-.382.207-.748.11-1.108-.102-.382-.387-.6-.744-.664-.322-.061-.572.187-.769.467-.116.156-.286.327-.309.492-.224 1.786-1.604 3.269-1.659 5.09-.02.686-.292 1.19-.827 1.561-.739-.347-.143-1.631-.914-1.595-.779.05-.987 1.048-1.382 1.688-.093.16-.215.296-.479.662-.134-2.656-.4-5.083.344-7.588.316-1.06.148-2.277 1.213-3.118.142-.107.164-.487.136-.718-.035-.343.06-.834-.384-.885-.505-.07-.288.656-.737.799-.056-1.393-.481-2.472-1.959-2.666-.599-.078-.829-.516-.743-1.21.086-.692.153-1.37.412-2.052.266-.696-.002-1.192-.553-1.555-.553-.374-.963-.299-1.289.425-.348.774-.653 1.537-.678 2.373-.005.32-.155.689-.436.821-.382.182-.668-.082-.908-.347-.333-.354-.561-.781-.488-1.312.205-1.474-.318-2.878.332-4.381-1.309-1.421-1.216-3.524-2.134-5.175-.827-1.482-1.738-2.896-2.623-4.34-1.188-1.941-2.528-3.774-3.774-5.677a2.516 2.516 0 0 0-.877-.822c-.785-.437-1.415-.086-1.531.876-.065.563-.06 1.13-.048 1.682.008.407.225.837.617.653.837-.383 1.011.183 1.354.66 1.376 1.925 2.813 3.822 4.207 5.731.164.23.235.54.351.803.6 1.35 1.081 2.766 1.838 4.028.385.635.716 1.364.457 2.296-.525.198-1.124-.266-1.637.44-.373.508-.795.076-1.064-.17-1.056-.898-2.169-1.713-3.206-2.627-1.199-1.053-1.689-2.626-1.785-4.338-.028-.4.267-.946-.326-1.048-.415-.07-.581.326-.819.663-.497.723-1.606.85-2.72.41-.833-.321-.912-1.163-.584-1.842.374-.759.152-.995-.218-1.531-1.863-2.727-4.338-4.823-6.557-7.192-1.393-1.479-3.165-2.514-5.119-3.092-2.262-.666-4.422-1.631-6.831-1.917-1.425-.164-2.529-1.117-3.825-1.599-2.101-.788-4.045-1.914-5.905-3.153-.08-.047-.078-.207-.153-.402.801-.646 1.909-.398 2.267-.074.601.554.97.41 1.529.045a1.593 1.593 0 0 1 1.048-.27c.29.025.681.09.885-.078 2.187-1.767 4.116-.228 6.146-.216.929.001 1.8.506 2.737.539 1.577.054 2.758.873 3.973 1.604 2.568 1.515 5.121 3.057 7.377 5.053.178.157.494.367.711.457 2.736 1.13 5.858 1.201 8.49 2.62 1.112.599 2.211 1.236 3.415 1.674 1.028.372 1.568 1.374 2.104 2.275.503.865 1.21 1.39 2.043 1.793 1.206.573 2.306 1.255 3.192 2.324.724.885 1.642 1.65 2.921 1.648 1.708-.004 2.625 1.136 3.196 2.505 1.003 2.434 2.84 4.009 4.718 5.652.815 2.575 2.424 4.654 3.386 7.144.848 2.192 1.489 4.417 1.326 6.936l-.039.192Zm-47.221 75.955c.787-2.3 1.588-4.593 2.48-6.842.561-1.411.999-2.948 2.335-3.919.293-.215.605-.571.963-.292.258.203.14.564.039.864-1.034 3.366-1.999 6.736-3.35 10.017-.097.23-.246.474-.416.645-1.223 1.225-2.315 2.596-3.977 3.916.448-1.835 1.449-3 1.923-4.399l.003.01Zm-1.737.023c-.167-1.341.34-2.533 1.172-3.653-.145 1.277-.316 2.538-1.172 3.653Zm1.924-5.41c-.036.077-.08.168-.115.246l.006-.058c.029-.065.07-.121.098-.186l.011-.002Zm35.902-50.05c-.141-.61.278-.904.747-1.098.214-.09.465-.124.592.183-.027.575-.481.821-.907 1.049-.108.063-.407-.039-.432-.134Z" fill="#66462C" fill-opacity=".1"/><path d="M219.841 75.883c-.178.696.115 1.196.409 1.697-.156-.583-.31-1.155-.394-1.769.005.022-.01.048-.018.062l.003.01Zm-5.845 9.244c.193.55.52 1.008.863 1.438l-.863-1.438Zm-163.43 61.61c-.102.004-.19.017-.293.021l.296-.01-.003-.011Zm116.751-22.595-.04-.149a.643.643 0 0 0-.501-.298.269.269 0 0 1-.133.013c.278.062.499.208.674.434Zm57.608-73.092.023-.02-.026.007.003.013Zm-41.917 56.897-.006-.024-.06.016s.007.024.066.008Zm-89.958 6.441-.048.027.051-.014-.003-.013Zm137.861 34.376s.011-.054.02-.069l-.02.069ZM35.488 114.31s-.037.033-.034.043l.074-.02c-.01.003-.021.006-.035-.002l-.005-.021Zm-2.234-.014.016.059s-.01-.036-.004-.063l-.012.004Zm.006-.045s-.003-.012-.018-.02c-.012.003-.035.009-.044.024l.013.048.035-.01c-.003-.012-.01-.035 0-.05l.014.008Zm189.122 42.385-.007-.027-.013.004.02.023Zm-122.11-42.116-.047.064.047-.064Zm68.674 17.066-.015.027c-.008.013-.005.023-.013.037l.066-.052s-.041-.023-.038-.012ZM62.882 90.094c2.096.427 3.951 1.565 6.304 1.218 3.824-.559 7.023 1.116 10.183 2.598 1.335.63 2.647 1.346 4.054 1.821 1.796.62 3.523.305 4.927-1.468 1.243-1.57 2.5-3.134 3.469-4.927.614-1.13.393-2.376.966-3.575 2.978.678 5.826 1.63 8.8 2.253 1.52.308 3.472.41 3.425 2.853-.006.104.112.208.18.292.928 1.057 1.058 2.556 1.844 3.924-1.326.037-2.384-.066-3.437.103-2.627.42-5.162.043-7.717.012-2.022-.026-4.035.15-6.05.281-.41.03-1.065-.26-1.208.517-.13.739.42 1.103.96 1.299.29.115.702-.04 1.064-.081 2.99-.29 5.983-.74 8.918-.266.958.152 2.027.047 2.985-.096 2.027-.293 4.027-.352 6.044-.472 1.895-.11 3.788-.186 5.688-.275.393-.014.774-.071.773-.582-.003-.43-.391-.315-.682-.305a25.72 25.72 0 0 1-2.664-.013c-2.6-.156-2.607-.097-2.462-3.145.589.296 1.168.3 1.846.13.764-.194.686.952 1.319 1.202.94.384 1.232.374 1.839-.742.331-.623.712-.68 1.201-.459.436.19.784.517.991.95.324.663.612.847 1.357.25.618-.484 1.473-.883 1.917.224.161.389.588.252.956.187.388-.07.735-.594 1.192-.24-.013.163-.01.344-.052.525-.127.625-.393 1.32.367 1.582.71.242 1.008-.633 1.564-.884.121-.055.217-.33.248-.51.171-.965.97-1.236 1.513-1.03 1.166.426 2.391-.118 3.524.056 1.099.17 1.961-.117 2.705-1.1.184-.242.41-.541.75-.326.114.254-.018.482-.101.72-.212.602-.234 1.198.352 1.439.689.292 1.094-.225 1.42-.869.359-.687.812-1.32 1.179-2.02.788-1.494 1.6-3.029 3.197-3.911.157.753.017 1.415-.21 2.089-.083.238.051.486.276.607.225.122.455.049.653-.14.569-.539 1.072-1.071 1.232-1.91.384-1.987-.035-3.805-.327-5.658-.114-.719-.703-.72-1.271-.432-.257.137-.475.423-.686.65-.544.589-.942.457-1.32-.067-.215-.294-.256-.658-.37-1.002-.512-1.487-.913-1.504-2.021-.106-.117.156-.25.294-.528.607-.578-.594-1.484-.34-1.849-1.072-.471-.952-1.448-1.304-2.134-2.006-.324-.322-.723-.544-1.273-.442-.958.188-1.928.244-2.868.495-2.183.597-4.252.186-6.304-.036-2.156-.23-4.226-.9-6.313-1.42-.666-.163-1.274-.068-1.939.155-1.007.339-1.832 1.105-2.782 1.53-2.43 1.071-3.747 3.002-4.126 5.602-.106.744-.231 1.505-.122 2.248.103.722-.366.915-.912.778a151.83 151.83 0 0 0-3.567-.85c-2.97-.647-5.729-1.816-8.333-3.298a1.319 1.319 0 0 1-.264-.224c-1.334-1.346-3.056-2.066-4.766-2.744-1.506-.596-3.054-1.09-4.384-2.04-.88-.626-1.875-.87-3.025-.517-1.977.609-3.847.6-5.75.007-1.197-.372-2.595-.394-3.896.159-1.87.796-3.585 2.084-5.606 2.399-.294.044-.662.404-.726.842-.088.557.326.707.65.95.592.432 1.305-.202 1.98.037-.364 1.426.576 2.23 1.245 3.164-1.144.716-1.255 1.063-.67 1.94.341.51.845.784 1.38 1.005.344.146.798.15.772.77-.992.186-1.896.235-2.769-.236-.597-.328-1.31-.455-1.972-.686-.526-.189-1.101-.307-1.4.397-.277.654.113 1.14.665 1.254l-.018.061Zm74.978-4.94s.127.01.13.021c.011.168-.054.22-.159.123-.017-.019.019-.096.029-.144Zm-2.613.472c.304.544-.156.94-.516 1.286-.214.216-.59.124-.559-.1.18-1.105-.659-1.743-.914-2.776 1.43-.201 1.578.86 1.989 1.59Zm-1.775 2.713c.164-.191.444-.073.511.216-.01.809-.525 1.423-.914 2.084-.031.054-.232.062-.32.03-.091-.044-.215-.17-.204-.253a4.22 4.22 0 0 1 .916-2.074l.011-.003Zm-4.65-.412c-.862-1.018-.935-1.884-.737-3.13.899.861 1.255 1.64.737 3.13Zm-2.802-6.949c.289-.316.658-.335 1.017-.26.442.085.594.442.367.82-.299.49.166.956-.142 1.413-.761.033-.752-.696-1.074-1.052-.225-.247-.553-.5-.157-.924l-.011.003Zm-3.11 4.32c-.112.132-.215.126-.266-.02-.075-.195.04-.317.211-.397.077.036.158.083.235.119-.064.097-.102.21-.18.298Zm-1.083-4.127c.541-.134.608.37.687.792.012.338.182.803-.299.91-.492.108-.659-.347-.73-.782-.062-.358-.105-.812.352-.923l-.01.003Zm-.738 6.5c.179-.218.414-.315.628-.19.346.19.387.554.277.947-.083.284-.002.625-.344.83-.359.097-.478-.223-.657-.425-.325-.368-.205-.763.11-1.154l-.014-.008Zm-32.767 2.602c-.18.048-.335-.07-.336-.285-.002-.43.09-.887.422-1.169.175-.15.387.135.448.403-.041.397.007.872-.534 1.051Zm-1.803-6.899c.038-.237.127-.454.478-.457 1.122.006 3.481 2.008 3.653 3.155.095.44-.004.875-.174 1.296-.153.359-.326.769-.687.9-.435.15-.615-.267-.76-.558a12.773 12.773 0 0 0-2.245-3.305c-.24-.265-.33-.639-.262-1.02l-.003-.01Zm.41 8.249c.13.022.303.157.326.287.046.17-.102.335-.338.386-.148-.005-.249-.126-.252-.307-.003-.18.04-.397.264-.366Zm-6.022-11.787c1.042.55 1.937 1.355 3.085 1.796-.515.74-.932.534-1.327.288-.681-.43-1.334-.88-2.015-1.311-.285-.174-.671-.434-.923.02-.982 1.66-1.219.1-1.822-.125 1.271-1.17 1.789-1.309 3.013-.671l-.011.003Zm-1.938 6.879.107-.233-.01.002s.018-.016.033-.043c0 0 .016-.026.013-.037l.027.015.011.043c.28.538.91.778 1.06 1.42.011.042-.027.109-.048.16-.928-.422-.976-.477-1.012-1.58l-.008-.032c-.054.094-.111.177-.155.268l-.018.017Zm.68 5.62s.024.006.034.003l.027.016c.264-.242.557-.456.775-.742.589-.76 1.352-.657 1.695-.181.478.644 1.138.91 1.708 1.347.215.17.435.44.287.775-.145.346-.45.348-.761.33-1.424-.119-2.638-.68-3.715-1.527-.02.006-.036.033-.054.05l.028-.065s-.028.064-.018.061l-.017-.063c-.805-.091-1.46-.551-2.185-.846-.28-.118-.566-.337-.404-.664.186-.402.613-.46.942-.286.75.39 1.52.773 1.637 1.799l.02-.006ZM76.41 80.337s.113.254.076.287c-.307.286-.639.318-1.141.09.388-.411.718-.488 1.065-.377Zm.838 7.396c-.781-.07-1.4-.605-1.856-1.604.967.23 1.572.67 1.856 1.604Zm-5.198-8.078c.388.055.968.024.722.669-.174.49-.12 1.327-1.107 1.149-1.19-.215-1.215-.14-2.037 1.522-.391-.951-.676-1.636-.97-2.352 1.093-.906 2.216-1.15 3.394-.978l-.002-.01Zm-5.047 2.544c-.251.034-.445-.096-.46-.365-.021-.29.218-.41.45-.473.286-.076.395.122.445.347-.005.32-.194.46-.435.491Z" fill="#66462C" fill-opacity=".1"/><path d="m79.122 86.441.02-.034-.027.008.007.026Zm16.942 77.382c1.134-.247 2.263-.3 3.402-.276 3.32.099 6.638-.404 9.935-1.492 2.039-.672 4.109-1.101 6.188-.988.494.026.968-.066 1.432-.236 1.51-.575 3.071-.789 4.594-1.231.539-.145 1.061-.353 1.591-.529.25-.078.455-.201.426-.523-.047-.385-.305-.418-.631-.41-.732.015-1.333.562-2.076.704-2.863.551-5.726.853-8.584 1.255-1.352.192-2.688.573-4.062.725-1.078.119-2.185.677-3.339.85-2.932.422-5.848.397-8.784.763-2.639.333-5.24.303-7.744-.298-2.337-.567-4.695-.707-7.196-.196-2.16.431-4.279 1.056-6.421 1.596-.914.222-1.728.224-2.61-.062-2.211-.736-4.526-.967-6.974-.47-1 .199-2.035.181-3.03.016-3.506-.582-6.563-2.227-9.784-3.477-2.161-.84-4.158-1.997-6.16-3.13-.694-.393-1.608-.637-1.884-1.88 2.18.234 4.137.527 5.915 1.459.217-.627-.724-.715-.197-1.367.613-.755.044-1.023-.491-1.118-.509-.079-1.067-.009-1.6.031-.943.071-1.741-.203-2.458-.726-2.223-1.62-4.531-3.136-6.627-4.914-1.64-1.389-3.444-2.757-3.6-5.407-.046-.725-.534-1.276-1.249-1.664-.745 1.404-.08 2.577.01 3.711-1.712.754-2.586-.102-3.304-1.261-.576-.924-1.212-1.776-2.178-2.426-.12.862.337 1.261.656 1.732.883 1.354 2.028 2.501 2.485 4.207.213.794.613 1.823 1.555 1.957 1.513.196 2.461 1.157 3.447 2.131 2.208 2.157 5.262 3.076 7.54 5.157 1.364 1.247 3.39 1.454 4.769 2.799-.315.641-.865.743-1.23 1.113-.276.279-.611.55-.511.966.098.451.44.757.847.795.396.042.915-.006 1.224-.248.843-.657 1.578-.491 2.36-.19 1.026.407 2.085.725 3.093 1.148 4.027 1.68 8.142 2.883 12.822 1.97 1.15-.229 2.47-.242 3.476.34 2.117 1.227 4.378.622 6.598-.132 3.756-1.279 7.44-1.812 11.164-1.05 2.325.479 4.727.824 7.222.291l-.027-.015ZM43.67 152.832c-.187.356-.532.21-.819.196-.868-.028-1.52-.558-2.234-.9-2.504-1.192-4.337-3.176-5.335-5.759 1.022.18 1.22 1.217 1.881 1.699 1.939 1.445 3.843 2.934 6.048 3.978.272.132.729.271.467.772l-.008.014Zm31.945-78.211c3.237-.89 6.312-2.429 9.651-3.528-.76 1.85-1.861 3.236-3.358 4.284-.524.368-.951.8-.768 1.398.186.654.754.832 1.438.637.116-.031.246-.055.36-.096 1.978-.769 3.777-.479 5.471.396.34.17.681.26.98-.103.431-.547.957-.484 1.503-.562.894-.126 1.792-.367 2.694-.506.368-.065.54-.224.61-.595.09-.467-.102-.722-.52-.758-.29-.025-.601.036-.892.091-.983.218-1.9-.036-2.845-.055-.671-.013-.922-.4-.926-1.047-.003-.306-.024-.64.077-.94.6-1.944.282-3.846.426-5.759.019-.311.076-.69-.364-.64-.33.032-.301.353-.316.595-.13 1.625-.338 3.26-.38 4.872-.087 2.976-.316 2.583-2.737 2.55-.114-.003-.236-.038-.343-.055-.74-.143-.897-.475-.319-1.107.818-.878 1.276-1.955 1.872-2.943.53-.892.011-1.775-.903-1.553-1.902.464-3.86.887-5.647 1.74a25.009 25.009 0 0 1-3.438 1.365c-1.327.412-2.693.766-3.83 1.889.777.745 1.625.655 2.53.4l-.026.03Zm49.585 47.995c-1.3.178-2.468 1.058-3.854 1.123-1.219.054-2.499.306-3.76.542-2.036.387-4.134 1.346-6.142.442-.142-.064-.364-.005-.527.062-1.151.479-2.302.957-3.428 1.486-.474.218-.567.674-.442 1.141.128.476.517.406.865.313.233-.062.502-.157.671-.327.868-.858 1.712-1.3 2.697-.496.175.146.574.028.868-.017.362-.04.745-.177.807.477-2.163.761-4.223 1.903-6.324 2.932-1.899.941-3.511 2.531-5.585 3.155 1.246.847 2.373.068 3.465-.588 2.174-1.309 4.284-2.772 6.63-3.605 2.474-.867 4.85-2.39 7.5-2.305.252.012.443-.119.669-.247 1.187-.682 2.402-1.303 3.734-1.444.178-.013.433.009.448-.188.142-1.287 1.158-1.128 1.911-1.443.519-.219 1.525-.057 1.417-.88-.131-.998-1.06-.238-1.626-.154l.006.021Zm-17.764-19.862c-.301-.067-.549.272-.821.357-3.159.971-6.291 2.208-9.556 1.811-2.632-.317-5.13-1.102-7.686-1.643-3.288-.698-6.501-1.745-9.846-2.313-2.467-.418-4.894-1.154-7.684-.497-.22.025-.588.044-.937.138a.744.744 0 0 0-.558.706c-.014.412.151.731.568.767.231.018.48-.071.718-.067 4.286-.058 8.537.131 12.618 1.207 3.763.99 7.587 1.783 11.406 2.599 4.144.889 8.023-.559 11.951-2.168.266-.106.48-.322.396-.549-.069-.175-.342-.306-.547-.353l-.022.005Zm81.006 32.807a60.538 60.538 0 0 1 5.87-1.834c.666-.179 1.302.082 1.954-.274 2.622-1.452 5.592-1.816 8.101-3.692.699-.517 1.518-.839 2.216-1.446.774-.662 1.67-1.163 2.572-1.598.734-.344 1.473-.712 2.149-1.189 2.708-1.895 5.336-3.917 8.24-5.456.834-.439 1.62-.968 2.407-1.496.259-.172.508-.511.349-.809-.165-.32-.515-.192-.791.007-.555.421-1.054 1.009-1.662 1.274-2.411 1.055-4.59 2.559-6.767 4.108-3.527 2.512-7.408 4.211-11.152 6.247-3.53 1.911-7.293 3.033-11.043 4.163-2.106.633-4.064 1.861-6.222 2.383 1.276.793 2.564.062 3.768-.385l.011-.003ZM60.998 123.283s-.003-.01-.016-.018c.002.011.026.016.04.023-.582-1.536-2.027-2.239-3.038-3.353-1.156-1.27-2.66-2.15-4.044-3.176-3.548-2.638-7.055-5.332-10.596-7.984-.763-.567-1.576-1.065-2.583-1.147.113.844.691 1.268 1.278 1.724 3.422 2.718 6.839 5.413 10.378 7.974 2.609 1.879 5.311 3.642 7.742 5.785.224.201.604.224.91.312a.543.543 0 0 0-.055-.121l-.013-.008-.003-.011Zm-19.679-15.18a88.17 88.17 0 0 0 3.75 2.925c-.04-.024-.084-.058-.124-.081a30.767 30.767 0 0 1-3.626-2.844Zm7.172 5.472a194.46 194.46 0 0 1 3.487 2.62c.457.354.914.709 1.38 1.05-1.669-1.155-3.264-2.419-4.87-3.681l.003.011Z" fill="#66462C" fill-opacity=".1"/><path d="m40.715 107.622.053.011-.016-.06-.038.049Zm20.402 15.811s-.037-.012-.048-.01l.017.063.016-.026.01-.003.005-.024Zm48.332-59.093c.756-2.417.903-4.954 1.695-7.404.305-.933.869-2.038.055-3.092-.809.91-1.581 1.661-1.473 2.87.04.444-.189.857-.37 1.28-.695 1.629-.825 3.344-1.079 5.014-.469 3.067-.882 6.13-1.561 9.174-.305 1.354-.483 2.674-.367 3.994.801-1.192.801-2.588 1.226-3.872.862-2.616 1.042-5.322 1.861-7.971l.013.008Zm-3.081 11.842-.051.088s.056.023.059.034c-.009-.035.001-.087-.008-.122ZM46.02 115.213c-1.787-1.304-3.589-2.536-5.818-3.506.866 1.29 15.462 12.71 16.604 13.086.083-.113.155-.224.238-.337-1.562-1.308-3.108-2.642-4.696-3.92-2.14-1.732-4.1-3.683-6.328-5.323Zm40.877-8.67c-2.287.295-4.44-.389-6.722-.243-.922.065-1.889.006-2.806-.123-.33-.048-.82-.018-.76-.512.129-1.124-.423-.692-.941-.429-.508.261-1.01.498-1.512.78-.434.241-.663.609-.53 1.107.11.414.4.518.797.525.897.009 1.78.091 2.668.069 2.859-.062 5.711-.19 8.562-.239.666-.008 1.284-.026 1.928-.494-.207-.478-.446-.482-.684-.441Zm34.015 7.421a1.588 1.588 0 0 0-.536.03l-8.488 2.206c-.348.093-.715.203-1.041.381-.294.17-.413.486-.336.817.072.31.251.557.585.536.355-.027.709-.144 1.069-.195 1.203-.198 2.323-.793 3.472-1.237 1.354-.522 2.739-.382 4.095-.814l1.247-.334c.401-.107.691-.378.667-.803-.026-.436-.386-.555-.74-.608l.006.021Zm-72.12 37.325.218-.331c-3.576-2.358-7.148-4.706-10.723-7.064l-.24.371c3.174 2.977 6.643 5.488 10.756 7.021l-.01.003Zm81.821-29.09c.037.138.076.286.103.427 1.066-.161 2.164-.16 3.184-.536.918-.336 1.428-.416 1.843.54.199.446.881.752 1.347.423.648-.458.147-1.016-.076-1.468-.245-.491-.578-.89-1.152-.963-1.909-.238-3.526.911-5.236 1.585l-.013-.008Zm89.603 8.198s.112.038.163.059c-.213-.079.051.02-.163-.059-1.788.888-3.438 2.125-5.385 2.59-.415.1-.802.386-.709.985 1.949-.329 3.75-1.129 5.426-2.351.445-.324.841-.623.666-1.234l.002.01Zm-1.263 1.157Zm-30.656-86.819c-1.028-.247-1.95.41-2.91.757-.931.329-2.062.121-2.922 1.305 2.148-.348 3.951-1.308 5.832-2.062Zm35.461 83.884-.053-.031-.023.04a.177.177 0 0 1 .076-.009Z" fill="#66462C" fill-opacity=".1"/><path d="M220.227 130.394c1.401.034 2.623-.351 3.455-1.766-1.352.067-2.267 1.3-3.455 1.766Zm1.323-.513c.273-.164.532-.336.808-.489-.273.164-.535.325-.808.489Zm-53.076 9.066a331.4 331.4 0 0 0 2.479-.46c-1.03-.466-1.857-.313-2.479.46Zm25.852-96.429c-1.406.035-2.261.605-3.114 1.095-.079.044-.045.342-.063.528.923-.486 1.97-.675 3.177-1.623Z" fill="#66462C" fill-opacity=".1"/><path d="M191.14 44.133c-.091.002-.172 0-.267-.009l.291.014-.013-.008-.011.003Zm44.868 64.248a.34.34 0 0 0 .039-.487.324.324 0 0 0-.488-.006c-.471.524-.899 1.082-1.344 1.621.902-.015 1.275-.694 1.796-1.117l-.003-.011ZM97.992 72.646c-.084.624-.485 1.163-.298 1.817.358-.573.61-1.162.297-1.817Zm134.867 38.566c.242-.064.448-.222.403-.516-.04-.274-.272-.382-.508-.296a.586.586 0 0 0-.415.554c.066.289.288.32.52.258Zm9.726 1.017c-.98-.067-1.149.695-1.834.969.82.019 1.153-.513 1.834-.969Z" fill="#66462C" fill-opacity=".1"/><path d="m190.862 44.14-.043.011.053-.014a.438.438 0 0 1 .249.002c-.413-.277-.773-.737-1.374-.246-.029.019-.038.112-.016.152.281.584.736.178 1.131.095Zm45.293 62.806c.721-.307 1.002-.951 1.596-.928-.597-.033-1.178-.048-1.596.928Zm.77-.718c.116-.031.21-.102.318-.165-.102.084-.201.179-.318.165ZM106.369 76.295l-.053-.03s.021.038.038.057c0 0 .021-.006.018-.017l-.003-.01Zm-.025.019c-.364.381-.667.78-.274 1.481.139-.627.622-1.03.274-1.481Zm137.158 34.88-.049-.038.007.024c.011-.003.026.006.057.023l-.015-.009Zm-.556.644c.394-.015.455-.338.495-.656-.271-.12-.529-.108-.68.262-.074.191-.017.403.185.394Zm-66.294-31.263c.171 0 .299-.16.352-.345.058-.163.008-.264-.151-.221-.148.04-.371.1-.43.218-.083.158.045.34.219.35l.01-.002ZM61.114 123.448l-.018.032.05-.014-.01-.038-.009.016-.013.004Z" fill="#66462C" fill-opacity=".1"/><path d="M61.133 123.452c.109.278.311.439.63.399.022-.005.098-.23.07-.291-.162-.309-.422-.262-.7-.108ZM196.27 42.156l-.128.084.141.012-.013-.096Zm-.944 22.887s-.076-.07-.119-.105c-.058.084-.158.18-.151.246.02.074.125.126.187.19.124-.091.149-.212.083-.33Zm58.316 30.907-.047-.038c-.02.018-.052.039-.072.057a.433.433 0 0 1 .119-.02Zm-.197.086s.061-.04.077-.069a1.013 1.013 0 0 1-.185.026c.029.016.074.052.094.035l.014.008Zm-36.805 71.207c-2.097.834-4.265.518-6.402 1.204 1.305-2.019 3.569-2.274 5.473-3.783-.806-.136-1.257-.004-1.656.409-.55.568-1.047.656-1.517.043-.524-.688-1.272-.227-1.802.075-3.245 1.834-6.721 2.97-10.009 4.726-1.099.589-2.347 1.128-3.629 1.119-.464 0-.938.218-1.375.528-.64.444-1.332.607-2.056.778-1.041.256-2.213.15-3.098 1.069-.96.984-2.244 1.385-3.313 1.58-1.253.222-2.342.639-3.385 1.35a15.136 15.136 0 0 1-4.062 1.952c-2.386.73-4.148 2.224-5.3 4.429-.657 1.266-1.557 1.542-2.624 1.782-.418.09-.848.091-1.251.233-3.325 1.152-6.688 1.236-10.016 1.321-3.272.082-6.524-.012-9.824.475-.447.063-.824.175-1.185.476-.194.166-.42.294-.42.59.007.361.194.595.515.611.892.034 1.713.563 2.616.299 2.481-.711 4.894-.369 7.33-.443 4.298-.141 8.577-.356 12.887-1.59 2.334-.671 4.73-1.869 7.154-1.145.147.04.36-.051.534-.12 1.154-.468 2.349-.823 3.442-1.433 3.744-2.083 7.63-3.76 11.45-5.601 2.8-1.341 5.736-2.298 8.553-3.655 2.226-1.073 4.702-1.294 6.795-2.865.442-.334.999-.62 1.513-.689 1.855-.259 3.344-1.589 5.043-2.26.575-.222.804-.636.632-1.192-.166-.534-.618-.447-1.047-.276l.034.003Zm-5.306-1.384c.128-.068.195-.029.222.111l-.179.264c-.043-.079-.098-.156-.131-.238-.009-.031.048-.115.088-.137Zm-22.24 11.808c-3.273 1.263-6.293 3.344-9.619 4.406-1.003.314-1.965 1.117-3.099.899.149-.711.674-.863 1.092-1.077 4.318-2.224 10.301-4.611 11.795-4.739.054.202.002.431-.172.501l.003.01Zm9.052-3.777c-.25.124-.468-.056-.515-.316-.053-.326.17-.466.428-.433.742.108 1.341-.654 2.273-.643-.645.934-1.479 1.032-2.186 1.392Zm1.737-2.305c.248-.384.424-.659.75-.666.066-.007.196.14.183.177-.152.405-.452.553-.933.489Zm2.436-1.05c.575-.597 1.216-.996 2.346-1.004-.961.553-1.729.52-2.346 1.004Zm2.848-1.411c-.038-.228.146-.3.31-.321.087-.012.172.09.263.134-.092.081-.18.173-.272.254-.109-.027-.29-.024-.304-.077l.003.01Zm1.513 3.536c-.011.082-.151.154-.232.232-.198.019-.32-.096-.326-.287-.011-.043.17-.171.265-.196.19-.051.353.008.304.248l-.011.003Zm.449-4.368c-.105-.097-.06-.222.091-.252.095-.025.202-.008.316-.005-.041.102-.049.241-.115.292-.068.041-.219.025-.279-.027l-.013-.008Zm1.295.777c-.091.252-.282.383-.527.357-.173-.01-.308-.178-.216-.339.067-.132.28-.223.439-.266.137-.036.367-.064.312.235l-.008.013Zm.119-1.247-.009-.031s.003.01-.005.024l.003.01-.01.003c-.043-.034-.076-.071-.119-.105.043.034.073.061.116.094-.003-.01-.006-.021.002-.034-.037-.138-.085-.273-.132-.408.095-.025.182-.037.28-.052l-.119.441a.153.153 0 0 1-.002.08l-.005-.022Zm-48.537 10.757c3.047-.373 6.109-.354 9.11-1.703.758-.339 1.394-.669 2.012-1.322 1.69-1.805 3.624-3.163 5.926-3.95 1.036-.358 2.252-.343 3.43-1.567-1.499.027-2.711.023-3.925.098-.657.04-1.306.282-1.903.714-1.756 1.266-3.818 1.977-5.297 3.725-.156.178-.419.294-.646.377-2.274.848-4.55 1.606-6.927 1.777-4.226.326-8.423.928-12.569 2.482-3.693 1.387-7.459 1.908-11.241 1.945-1.186.011-2.388.128-3.583.233-.286.031-.65.151-.677.556-.023.381.297.477.59.512 1.856.252 3.687.579 5.616.426 2.204-.182 4.398-.486 6.587-1.061 2.316-.609 4.589-1.377 6.89-2.085 2.154-.668 4.405-.885 6.618-1.16l-.011.003Zm87.975-32.584s.002-.039.011-.054a.105.105 0 0 0-.056.027l.045.027Z" fill="#66462C" fill-opacity=".1"/><path d="M246.782 151.466c2.015-1.903 2.129-4.772 3.803-6.765 2.232-2.654 3.208-5.982 3.295-9.333.034-1.269 1.063-1.863 1.282-2.989.455-2.359 2.179-4.332 2.652-6.707.052-.23.29-.441.386-.671.814-2.035 1.616-4.068 2.11-6.323-1.141.43-1.257 1.392-1.733 2.11-1.406 2.103-2.742 4.256-3.494 6.649-1.447 4.567-3.765 8.845-5.091 13.448-.147.505-.405.937-.641 1.409-.579 1.178-1.304 2.315-1.376 3.651.655-.3.662-.995.936-1.534.259-.512.284-1.223 1.2-1.605-.487 1.732-1.218 3.143-1.83 4.579-.135.297-.179 1.695-1.032.458-.168-.25-1.092 1.247-.719 1.329.921.184.368.696.33 1.149-.025.37-.586.77-.075 1.156l-.003-.011Zm-100.57 22.996c1.079.222 2.121.521 3.288.481 1.302-.042 2.467-.763 4.315-1.133.786-.404 2.26-.481 3.617-1.162 3.011-1.523 6.166-2.675 8.964-4.742.311-.231.751-.28.588-.759-.123-.376-.503-.399-.891-.329-.91.153-1.746.581-2.602.981-2.434 1.14-5.03 1.632-7.463 2.863-1.657.83-3.414 1.369-5.169 1.873-1.4.398-2.728.595-4.081.446-.478-.053-1.012-.103-1.194.57-.15.54.234.834.631.921l-.003-.01Zm32.516-.877c.255.568.751.31 1.241.111 2.621-1.077 5.184-2.287 7.9-3.094 3.04-.905 6.004-2.222 9.003-3.411 1.841-.732 3.65-1.546 5.485-2.299.551-.227.924-.566 1.161-1.458-2.339.99-4.452 1.976-6.605 2.769-2.718 1.012-5.441 2.128-8.203 2.72-2.292.489-4.489 1.078-6.627 2.185-.883.463-1.854.724-2.738 1.188-.415.224-.844.737-.598 1.273l-.019.016Zm-86 8.587c.45.368.896.725 1.22 1.217.74 1.154 1.768 1.991 2.813 2.767 3.07 2.289 5.875 4.899 8.852 7.304 2.008 1.62 3.839 3.469 5.797 5.159.69.587 1.532.986 2.308 1.471.09-.127.17-.25.261-.377-7.142-6.672-15.026-12.475-22.011-19.745.08 1.523.09 1.645.757 2.193l.003.011Zm25.437-6.509c-.132.183-.254.363-.386.546 1.679 1.787 3.77 3.044 5.745 4.457 1.948 1.397 3.979 2.681 5.95 4.038 1.971 1.357 3.654 3.201 6.119 3.823-1.565-1.954-3.66-3.266-5.599-4.712-3.825-2.87-7.879-5.452-11.827-8.142l-.002-.01Zm107.114 1.007c.542.037 1.034-.197 1.521-.578 1.607-1.27 2.997-2.801 4.47-4.23.412-.405.69-.934.682-1.511-.151-.312-.377-.478-.705-.436-.598.092-1.133.293-1.65.772-1.305 1.213-2.637 2.41-4.103 3.405-.307.207-.574.517-.811.819-.586.77-.267 1.707.596 1.759Zm-103.776 23.071c-.221.525-.222.946.251 1.273 1.031.723 1.808 1.719 2.565 2.731.283.379.663.572 1.286.235-1.411-1.462-2.756-2.85-4.102-4.239Zm.004.056c.044.375.179.668.366.901-.237-.209-.417-.456-.366-.901Zm1.295 1.663c.419.297.827.596 1.011 1.115-.197-.526-.632-.796-1.011-1.115Zm4.868-2.576c-.167.306-.221.695.043.795.702.255.965 1.32 2.09 1.041-.365-1.151-1.548-1.13-2.13-1.825l-.003-.011Zm-.012-.007.004.012s.005-.027.017-.03l-.033.022.012-.004Z" fill="#66462C" fill-opacity=".1"/><path d="M247.684 147.011c.238.039.393-.275.38-.533-.007-.157-.082-.307-.122-.456-.134.093-.295.17-.373.305-.177.274-.296.635.118.695l-.003-.011Zm.239-1.041.014.051c.013-.003.026-.007.035-.023l-.049-.028Zm-32.714-55.217c-1.085 1.528-1.958 3.17-3.161 4.64-2.877 3.542-5.095 7.645-8.534 10.736-.421.374-.414.735-.166 1.112 1.809-1.95 4.019-3.462 5.574-5.73 1.679-2.437 3.896-4.428 5.674-6.835 2.812-3.786 5.047-7.78 6.551-12.18.126-.375.161-.794.603-.878 1.076-.209.724-.887.501-1.383-.736-1.564-1.259-3.263-2.37-4.578-.005.024-.007.059-.012.083.321 1.072.814 2.064 1.221 3.08.558 1.36.272 2.493-.397 3.672-.033.088-.058.163-.101.254-1.781 3.918-3.948 7.531-6.376 10.976.615-.915 1.209-1.824 1.838-2.73.504-.737.585-1.406.274-2.061-.339-.125-.69-.463-1.073-1.007-.956-1.368-1.497-3.006-2.475-4.334l-.01.003c.442 1.903 1.349 3.556 2.493 4.953.713.888.52 1.394-.065 2.21l.011-.003Zm-6.381 9.943c.827-1.096 1.651-2.203 2.564-3.231.245-.27.452-.553.683-.83a116.549 116.549 0 0 1-3.247 4.061Z" fill="#66462C" fill-opacity=".1"/><path d="M212.836 83.587c.085.022.16.047.246.07.312.484.616.982.92 1.48-.034-.127-.09-.249-.113-.379-.121-.535-.373-1.138-1.059-1.193l.009.032-.003-.01Zm7.037-7.835-.038-.14c.02.076.038.14.033.21-.005-.021.01-.048.015-.073l-.01.003Z" fill="#66462C" fill-opacity=".1"/><path d="M219.85 75.616s-.022-.033-.04-.053l.013.047.024-.006.003.012Zm.577 2.291c-.063-.108-.115-.219-.175-.316.179.667.386 1.316.505 2.01.219 1.282-.101 2.242-1.043 3.04-.397.333-.588.634-.673 1.077-.323 1.836-1.64 3.176-2.382 4.715-.41.076-.593-.102-.692-.302-.281-.584-.703-1.061-1.107-1.555.407.675.824 1.346 1.271 1.999.076.116.142.234.197.356.553.204 1.082-.188 1.701-1.216.948-1.572 1.499-3.32 2.474-4.877.073-.11.134-.218.193-.336.792-1.904.489-3.163-.269-4.595Zm-7.592 5.679-.066-.038c.003.01.008.031.022.04.01-.004.023.004.047.009l-.003-.01Zm16.142 3.921c-.586.77-1.342 1.415-1.753 2.331-1.1 2.442-2.88 4.463-4.459 6.556-1.789 2.364-3.995 4.398-6.015 6.574-.185.198-.352.378-.286.667.403.279.654-.095.915-.347 1.586-1.515 3.018-3.228 4.632-4.682 3.022-2.706 5.079-6.142 7.428-9.372.249-.34.261-.843.371-1.28.067-.257.065-.518-.181-.634-.233-.108-.458-.059-.642.184l-.01.002Zm-1.444-10.652c.07-.076.118-.316.091-.332-.853-.532-.855-1.928-1.91-2.247.154.197.28.413.416.627-.147-.211-.272-.427-.427-.624a.61.61 0 0 0-.159-.048c.299 1.032 1.094 1.728 1.537 2.665.089.204.319.096.452-.041Zm-2.04-2.645s.037.012.061.017l-.017-.063-.018.016-.026.03Zm-21.261 4.22c.287.605.582 1.196 1.02 2.112.14-1.218-.139-1.836-.691-2.325l-.329.214Zm20.602-5.974-.014.004.007.026s-.007-.026.007-.03Zm.663 1.674s.004-.07-.005-.101c0 0-.005-.022-.032-.037.002.01.016.018.029.026-.018-.62-.607-.95-.675-1.545-.248.816.135 1.27.68 1.646l.003.01Zm-.191-.54c-.177-.236-.43-.418-.507-.704.077.286.333.478.507.704Z" fill="#66462C" fill-opacity=".1"/><path d="m225.519 74.18.021-.006-.006-.02s-.016-.019-.029-.027c.005.022.011.043-.002.08l.016-.027Zm-12.035 32.094c-.26.047-.422.249-.53.483-.049.115.019.199.171.17.244-.065.408-.257.54-.486.025-.12-.03-.196-.181-.167ZM198.13 97.18c.026-.155-.052-.19-.194-.084-.048.035-.065.097-.096.151.048.01.096.02.147.04.048-.035.141-.072.143-.106Zm.686-5.624-.023.04.074-.02-.051-.02Zm-.209.307c.068-.087.122-.18.19-.267-.088.012-.189.016-.274.039-.17.045-.364.04-.427.274-.013.037.031.116.069.129.18.077.322-.03.442-.175Zm4.138 15.278c-.143.061-.371.1-.277.325.073.185.269.11.43.032.15-.074.295-.17.454-.258-.173-.135-.371-.196-.596-.102l-.011.003Z" fill="#66462C" fill-opacity=".1"/><path d="m203.369 107.274-.009-.036-.012.003.03.018-.009.015Zm10.908-1.418.056-.114-.11.005.054.109Zm-58.722 19.287s-.062-.046-.091-.063l.037.14.058-.066-.004-.011Zm-2.729-3.104c1.091 1.07 1.556 2.343 2.637 3.041-.341-1.442-1.141-2.443-2.637-3.041Zm4.78 5.317c-.112-.969-.532-1.22-1.125-1.311-.002.671.449.913 1.125 1.311Zm-1.158-1.359c-.017-.575-.354-.768-.836-.787.224.326.204.933.836.787Z" fill="#66462C" fill-opacity=".1"/><path d="M156.458 126.045s.024-.006.039.003c-.006-.024-.01-.036-.004-.063l-.048.013.013.047Zm-.962-.844.114.007c-.01-.035-.039-.052-.06-.083l-.057.065.003.011Zm11.067-1.477s-.034-.029-.049-.038l-.012.003.064.047-.003-.012Z" fill="#66462C" fill-opacity=".1"/><path d="M166.51 123.676c.119.445.316.756.831.596l-.012-.043a2.163 2.163 0 0 1-.83-.551l.011-.002Zm.818.518s.027.016.037.013c-.005-.021-.035-.047-.051-.065l.014.052Z" fill="#66462C" fill-opacity=".1"/><path d="M166.643 123.708s-.048-.01-.085-.022l.008.031.074-.02.003.011Zm.683.521s.04.023.064.028l-.062-.062.009.031-.011.003Zm54.787-69.349-.064-.007-.048.05.112-.043ZM79.104 86.417l-.023.04-.013.038.055-.049-.008-.031-.01.002Z" fill="#66462C" fill-opacity=".1"/></svg>