<svg width="249" height="213" fill="none" xmlns="http://www.w3.org/2000/svg"><path d="M114.491 169.692a.067.067 0 0 0-.03.022c-.01.048 0 0 .03-.022Zm59.093-107.106.105.113.008-.003c-.035-.038-.078-.072-.113-.11Zm-.093-.07c.003.007.018.02 0 0Zm-4.097 1.688s.001-.022.006-.035c-.009.004-.021-.002-.043-.005.008.019.021.025.037.04Zm17.634 23.322c-.044-.035-.07-.075-.105-.113l-.074.028c.048.002.112.018.182.094l-.003-.01ZM32.915 107.498l-.01-.021s-.01.004.005.011l.005.01Zm-1.657.075s-.018-.017-.032-.024c0 0 .008.021-.001.024l.038-.014-.005.014Zm113.998-14.91s-.023.01-.035.023l.052.018-.021-.049.004.008Zm24.857-48.714s-.014.016-.015.039l.015-.04Z" fill="#66462C" fill-opacity=".1"/><path d="M32.91 107.494s.033.008.095.016c-.008-.018-.024-.033-.027-.042-.03.022-.047.029-.06.023l-.008.003Zm20.905 5.601s-.108-.051-.15-.085c.042.034.098.054.146.076l.004.009Z" fill="#66462C" fill-opacity=".1"/><path d="M215.195 58.661c-.979-2.63-2.577-4.788-4.076-7.013-.845-1.252-1.755-2.507-3.089-3.171-1.221-.61-1.834-1.932-2.702-2.92-.733-.838-1.361-1.813-2.436-1.886-1.132-.08-1.982-.58-2.753-1.422-.217-.238-.557-.34-.851-.48-1.108-.557-2.322-.917-3.186-1.938-.57-.666-1.112-1.372-1.858-1.776-2.106-1.126-4.256-2.06-6.618-2.349-1.91-.239-3.766-.585-5.361-2.015-.679-.605-1.527-1.057-2.381-1.459-1.681-.783-3.502-1.173-5.114-2.07-1.65-.923-3.371-.758-5.072-.824-1.774-.067-3.554-.044-5.313-.35-3.167-.553-6.364-.774-9.551-.395-2.603.31-5.188.623-7.8.722-1.859.073-3.713.367-5.505 1.066-.464.178-.97.217-1.481.22-1.815.006-3.637.356-5.46.046-.311-.056-.679-.031-.951.112-.618.325-1.267.302-1.885.287-.812-.028-1.574.128-2.274.514-1.444.818-3.031 1.214-4.472 2.04-.498.29-1.088.448-1.702.528-1.269.167-2.507.517-3.794.642-1.338.135-2.241 1.338-3.28 2.136-.517.394-1.116.721-1.524 1.287-1.798 2.49-3.971 4.581-5.809 7.02-.432.574-.8.638-1.425.353-2.036-.92-4.211-.852-6.342-.763-2.498.114-4.99.498-7.4 1.347-.256.099-.592.092-.754-.206-.723-1.347-1.918-1.238-2.914-.826-.902.376-1.748.332-2.535.09-.987-.312-1.794-.157-2.597.453-.368.278-.706.457-1.123.11-.706-.584-1.468-.427-2.234-.133-.897.345-1.815.387-2.666-.113-.573-.334-1.091-.261-1.707-.122-1.02.227-2.04.493-3.12.237-.85-.2-1.763-.062-2.484.594-1.095 1.005-2.374 1.575-3.688 2.041-.626.221-1.14.603-1.662 1.047-.648.551-1.243 1.208-2.045 1.545-1.677.714-3.315 1.499-4.242 3.431-.21.44-.632.74-1.027 1.018-1.697 1.177-3.125 2.65-4.152 4.622-.845 1.638-1.587 3.392-3.009 4.58-.094.076-.094.29-.166.415-.701 1.087-1.166 2.326-1.69 3.51-.563 1.286-1.322 2.425-2.462 3.048-1.957 1.073-3.163 2.899-4.18 4.895-1.111 2.178-2.095 4.444-3.783 6.173-1.242 1.275-2.32 2.789-3.882 3.603-.532.273-1.108.465-1.645.769-.751.435-1.434.99-1.822 1.838-.75 1.65-2.033 2.932-2.611 4.711-.069.221-.31.373-.436.586-1.034 1.701-2.202 3.172-2.254 5.556a28.77 28.77 0 0 1-1.288 7.84 6.042 6.042 0 0 0-.246 1.671c-.017 1.787-.02 3.587.051 5.37.117 2.825-.082 5.606-.746 8.352-.088.345-.195.687-.1 1.06.445 1.774.264 3.556-.028 5.332-.181 1.101-.023 2.091.502 3.076.838 1.575 2.036 2.748 3.28 3.837 2.854 2.512 5.776 4.93 8.682 7.373.434.368.892.727 1.389.964 2.18 1.049 4.373 2.064 6.499 3.281.378.214.79.25 1.183.372 1.074.326 2.233-.081 3.258.343 1.01.409 2.033.551 3.074.695 1.404.19 2.793.688 4.183.805 1.775.154 3.574 1.408 5.394.096.097-.067.269-.045.405-.02.9.17 1.833.122 2.69.572.54.278 1.126.452 1.73.433 1.25-.043 2.46.242 3.683.453.736.125 1.242.427 1.658 1.133.503.847 1.126 1.619 2.11 1.815.276.059.547.169.624.519.182.835.657 1.022 1.356.802.34-.111.61.145.916.231 1.39.371 2.401 1.441 3.514 2.307 1.982 1.535 3.895 3.163 5.703 4.968 1.353 1.348 2.697 2.758 4.485 3.432.256.096.495.277.714.455 1.459 1.171 3.055 1.988 4.82 2.418.853.207 1.607.628 2.203 1.42.64.853 1.482 1.502 2.378 2.004.66.369 1.244.835 1.859 1.289 1.51 1.123 3.012 2.267 4.955 2.289.672.014 1.363.244 1.903.776.388.386.879.567 1.377.638 1.852.251 3.61.772 5.246 1.787.221.139.552.177.802.11.971-.256 1.912-.073 2.866.076.54.084 1.145.26 1.628.084 1.079-.386 2.044-.017 2.939.417 1.676.815 3.356.723 5.079.372a7.438 7.438 0 0 1 1.364-.135c1.147-.032 2.271-.182 3.309-.834.687-.439 1.391-.71 2.232-.508.875.218 1.719-.019 2.502-.573.919-.655 1.914-.96 3.013-.681.837.213 1.707.122 2.399-.368 1.354-.968 2.818-1.356 4.376-1.459 1.554-.111 3.084-.621 4.614-.704 1.328-.072 2.278-.379 2.939-1.772.443-.929 1.182-1.563 2.241-1.464.46.046.923-.093 1.294-.449.837-.808 1.835-1.319 2.823-1.747.725-.308 1.373-.839 2.163-.948 2.582-.361 4.757-1.897 6.909-3.338 1.129-.755 2.308-1.072 3.485-1.183.908-.087 1.713-.309 2.469-.755 1.675-.975 3.338-1.955 5.143-2.6 1.608-.58 2.918-1.735 4.279-2.793.412-.324.569-.803.745-1.279.458-1.256 1.034-2.402 2.047-3.219.53-.427.919-.995 1.253-1.63.281-.526.539-1.151.959-1.497 1.201-.967 1.951-2.297 2.594-3.712.379-.826.983-1.525 1.155-2.457.313-1.746 1.146-3.243 1.795-4.835.398-.97.645-1.96.751-3.071.127-1.314.402-2.704 1.133-3.889 1.053-1.699 1.796-3.6 2.281-5.557.762-3.065 1.539-6.117 2.622-9.063.114-.306.104-.585.053-.896-.245-1.705-.145-3.359.636-4.914.139-.268.161-.578.235-.869.528-2.09.776-4.267 1.693-6.245.202-.437.517-.967.474-1.408-.173-1.811.418-3.497.564-5.256.042-.454.091-.891.053-1.363-.127-1.576.02-3.14.796-4.538.418-.754.765-1.53.98-2.38.071-.3.265-.608.071-.874-.566-.785-.179-1.294.354-1.82 1.548-1.529 2.321-3.655 3.434-5.532.789-1.325 1.136-2.82 1.46-4.288.256-1.158.837-2.209.914-3.386.129-1.947.471-3.84.915-5.722.045-.193.109-.402.073-.593-.37-2.3-.314-4.695-1.154-6.891-.302-.906-.443-1.854-.776-2.747l-.039.034Zm-51.587-28.003c-.726.58-1.007.66-2.6.319-.891-.193-1.871.32-2.694-.434 1.77-.388 3.523-.498 5.294.115ZM90.85 46.81c-.363.587-.848.588-1.524.692.446-.754.869-.966 1.524-.692ZM66.286 149.123c-.71-.106-1.41-.314-2.09-.539-1.53-.511-3.038-.758-4.51.207-.246.162-.633.184-.9.063-1.512-.702-3.173-.142-4.734-.641-1.013-.331-2.128-.223-3.174-.589-.812-.282-1.663-.509-2.544-.55-2.357-.105-4.358-1.389-6.437-2.409-.736-.359-1.402-.891-2.264-.949-.354-.029-.68-.244-.942-.503-1.678-1.69-3.638-2.921-5.486-4.331-2.161-1.641-4.367-3.303-6.072-5.566-.863-1.147-1.283-2.561-1.104-4.138.16-1.472.438-2.96-.003-4.426-.072-.234-.078-.631.002-.866.97-2.98.756-6.099.88-9.162a21.75 21.75 0 0 0-.032-2.138c-.13-2.091.104-4.048.674-6.058.497-1.737.552-3.626.796-5.452.328-2.539 1.138-4.835 2.638-6.773.3-.378.767-1.015 1-1.445.872-1.552 1.677-3.155 2.977-4.336.216-.19.404-.427.71-.448 1.665-.105 2.643-1.512 3.76-2.613.546-.54.973-1.23 1.548-1.743 1.255-1.115 1.752-2.853 2.736-4.184.965-1.334 1.405-2.992 2.35-4.329.438-.625.907-1.175 1.526-1.52 1.35-.743 2.28-2.053 3.439-3.054a1.19 1.19 0 0 0 .368-.618c.399-1.544 1.225-2.864 1.823-4.3.344-.824 1.014-1.324 1.51-2.001.96-1.323 1.615-2.859 2.613-4.157.618-.792 1.29-1.498 2.079-1.996.956-.61 1.664-1.467 2.15-2.51.587-1.247 1.714-1.962 2.954-2.157.81-.127 1.374-.645 1.939-1.202.837-.828 1.764-1.486 2.852-1.827 1.216-.38 2.218-1.242 3.32-1.87.456-.262.9-.53 1.432-.462.689.095 1.38-.015 2.048-.136 1.233-.211 2.42-.385 3.642.166.655.293 1.46.09 2.157-.197.523-.21.968-.158 1.452.114.866.474 1.69.614 2.523-.29.574-.62 1.993-.435 2.57.141.203.204.202.457.012.667-.131.137-.301.31-.45.319-.971.023-1.89.337-2.83.582-.382.098-.807-.099-1.215-.127-1.657-.131-3.19.604-4.72 1.114-2.07.699-4.06 1.65-6.076 2.54-1.388.612-2.902.883-4.197 1.819-1.616 1.156-3.3 2.212-4.866 3.446-1.388 1.098-2.683 2.355-3.962 3.605-.517.5-.892 1.102-.762 2.025.17 1.19-.553 2.051-1.26 2.761-.933.942-1.768 1.944-2.43 3.143-.508.905-1.275 1.58-1.75 2.54-.769 1.541-2.084 2.514-3.264 3.638-1.996 1.916-4.154 3.66-5.879 5.919-1.042 1.364-1.995 2.81-2.974 4.237-.068.094-.068.308-.018.425.092.218.312.25.469.131.227-.165.444-.375.605-.612 1.224-1.803 2.732-3.278 4.248-4.776.739-.721 1.342-1.654 2.172-2.265 1.175-.86 2.097-2.06 3.39-2.79 1.03-.582 1.834-1.66 2.575-2.713 1.387-1.973 2.495-4.18 4.198-5.895.905-.902 1.729-2.017 1.628-3.593-.032-.523.376-.962.737-1.256 1.071-.87 1.937-2.097 2.996-2.825 1.571-1.071 3.02-2.348 4.625-3.335.605-.378 1.098-.17 1.248.61.228 1.196.485 2.42.43 3.629-.072 1.594.071 3.163.11 4.744.037 1.532.116 3.078-.053 4.612-.04.375-.143.746.356.778.427.03.39-.354.384-.644.013-3.624.183-7.26-.132-10.874-.085-1.009.224-2.042-.175-3.027-.145-.343.001-.74.33-.837 1.16-.339 2.122-1.234 3.362-1.555.325.916.15 1.84.055 2.722-.105 1.004-1.35 1.103-1.496 2.161.078.077.157.222.266.267 1.255.52 1.228.52 1.257 1.95.05 1.945.032 3.898.001 5.846-.003.459-.118 1.038.456 1.479.489-1.161.195-2.323.293-3.43.148-1.711.358-3.446.051-5.128-.155-.855.216-1.211.77-1.22.516-.014.412.484.382.797-.227 2.607.398 5.188-.481 7.851-.595 1.805-.39 3.71.157 5.514.303.993-.432 1.976.028 2.976.428-.135.416-.568.458-.915.263-2.076.37-4.16.657-6.246a43.42 43.42 0 0 0 .367-7.252c-.034-1.077.025-2.15.045-3.228.004-.352-.073-.79.284-.966 1.232-.62 1.723-2.306 3.125-2.67.162-.043.291-.248.44-.364.208-.167.567-.276.282-.672-.2-.283-.495-.277-.746-.084-.643.5-1.286 1-2.047 1.264-.733.243-.942.07-.835-.72.145-1.145.684-1.868 1.576-2.503 1.424-1.014 2.753-1.233 4.25-.31.498.304.75.665.587 1.194-.56 1.801-.354 3.648-.365 5.472-.006 1.919-.024 3.852.198 5.78.133 1.185-.122 2.411.184 3.665.455-1.05.319-2.116.433-3.143.072-.68.136-.996.9-.871.79.124 1.67.078 2.166-.94.168-.347.42-.434.8-.191 1.123.717 1.225.638 1.738-1.018 1.684.919 2.796-.132 3.826-1.481.376-.495.918-.703 1.317-.185.659.856 1.401.59 1.97.128 1.049-.86 2.29-1.328 3.287-2.246.433-.4.73-.379.992.134.38.749 1.005 1.14 1.636 1.57.763.504 1.468.214 2.091-.143 1.086-.622 1.065-1.733.05-2.451-.22-.159-.536-.183-.636-.524.759-.419 2.049.078 2.423 1.004.332.826.701 1.657.704 2.619-.003.78.361 1.213 1.043 1.38 1.023.248 1.373-.072 1.218-1.247a5.212 5.212 0 0 1-.038-1.066c.048-.758.373-1.116 1.057-1.116.405 0 .832.01 1.222-.11.362-.1.678-.397.663-.878-.016-.44-.319-.5-.656-.613-.827-.276-1.68-.57-2.118-1.54-.164-.365-.494-.423-.808-.507-.455-.117-.804-.304-.963-.914-.152-.593-.616-.775-1.075-.287-.685.74-1.388.611-1.943-.04-.552-.645-1.172-.601-1.763-.383-.855.318-1.62.126-2.413-.153-.653-.225-1.324-.386-1.994-.566-.761-.204-1.404-.064-2.204.234-1.47.566-3.04 1.237-4.67.531-.659-.282-1.357-.188-2.028.011-1.23.366-2.495.59-3.617 1.361-.305.215-.681.282-1.063.293-.474.007-.762-.184-.936-.701-.348-1.014-.3-2.025.23-2.22 1.69-.6 3.166-1.936 4.95-2.097 1.526-.139 2.937-.886 4.426-.981 2.185-.13 4.294-1.057 6.512-.811 1.367.146 2.71.534 4.089.52.305-.001.493.228.732.37.884.536 1.168.485 1.98-.255a1.41 1.41 0 0 0 .194-.221c1.661-2.283 3.672-4.184 5.45-6.337a9.03 9.03 0 0 1 1.339-1.322 40.74 40.74 0 0 0 2.333-1.928c.496-.444 1.079-.746 1.636-.746 2.013-.005 3.85-.916 5.76-1.378 1.663-.406 3.23-1.339 4.835-2.053.612-.274 1.221-.43 1.873-.166.35.148.724.16 1.078-.025.994-.499 2.041-.512 3.094-.47 2.658.117 5.266-.438 7.884-.842 1.402-.217 2.81-.525 4.235-.431.313.016.624-.036.919-.168.744-.325 1.54-.505 2.295-.231 1.061.38 2.216.325 3.484.898-1.228.861-2.372 1.155-3.499 1.51-.181.06-.541-.044-.627-.206-.49-.901-1.205-.51-1.795-.35-1.067.283-2.117.716-3.161 1.117-.534.206-1.095.411-1.599.07-.89-.592-1.805-.395-2.668-.074-1.214.448-2.446.873-3.657 1.329-2.166.813-4.375 1.565-6.727 1.175-.794-.133-1.555.131-2.3.369-1.609.512-3.24.973-4.508 2.356-.603.66-1.405.997-2.141 1.319-1 .443-1.733 1.133-2.363 2.047-.133.197-.328.33-.577.572-.404-.72-.705-1.558-1.657-1.066-.092-.685.258-.984.554-1.264.256-.244.485-.468.548-.852.07-.494-.219-.772-.645-.609a4.032 4.032 0 0 0-1.623 1.16c-1.169 1.383-2.541 2.562-3.432 4.218-.285.518-.769.714-1.155 1.077-.469.423-.745.918-.607 1.605.081.426 1.188 1.382 1.603 1.3.523-.104 1.099-.209 1.273-.966.076-.331.139-.735.651-.737.214.463-.243 1.125.241 1.503.409.33.875.559 1.388.644.224.04.451.089.662.183.482.204.808.506.519 1.162-.256.585-.018 1.126.199 1.617.306.68.993.815 1.308.178.667-1.336 1.795-2.198 2.591-3.4.648-.978 1.466-1.808 2.596-2.262 1.51-.62 2.785-1.732 3.913-3.041.846-.977 1.745-1.829 3.123-1.57.33.057.724-.435 1.113-.516 1.773-.36 3.264-1.47 4.89-2.24-.007-.017-.003-.029-.002-.048l.047-.018c.027-.147.111-.247.234-.275.1-.019.157.095.087.142-.098.066-.213.091-.325.125.004.008-.008.022-.009.042l-.039.015c.073.575-.343.784-.678.99-2.048 1.303-3.807 3.079-5.739 4.57-1.282.99-2.239 2.447-3.559 3.431-.65.484-1.257 1.048-1.845 1.614-.761.73-1.37 1.588-1.604 2.884.594-.19.967-.498 1.211-.923.848-1.503 2.263-2.368 3.251-3.711.127-.166.337-.266.489-.12.259.25.02.43-.139.608-.54.616-1.076 1.24-1.664 1.914.655.08 1.143-.001 1.543-.564 1.51-2.108 3.504-3.517 5.536-4.881.457-.303.881-.66 1.398-1.054-.74-.474-1.043.363-1.543.477-.416.102-.781.514-1.151.832-.259.216-.546.58-.795.14-.188-.337.1-.72.384-.858.663-.323 1.063-.973 1.591-1.468 1.593-1.488 3.33-2.74 5.071-3.982.669-.481 1.464-.748 2.063-1.397.166-.18.34-.344.338-.645-.297-.383-.569-.112-.828.084-.529.408-1.066.819-1.569 1.265-.516.461-.86.224-1.122-.269-.263-.492-.29-1.046.287-1.278 1.169-.469 2.304-1.08 3.551-1.238.717-.091.72-.063.519.929.343.023.623-.123.905-.329.149-.115.32-.327.461-.313 1.348.124 2.586-.372 3.86-.764.517-.16 1.028-.357 1.548-.508 2.26-.655 4.564-1.015 6.855-1.448.176-.03.366.015.523-.124.854-.766 1.641-.29 2.421.15.119.07.211.2.326.282.756.553.828 1.177.217 1.873.076.029.172.109.207.085 1.006-.834 1.908-.87 2.956.032.575.489 1.456.53 2.204.787.17.06.353.175.288.424a.6.6 0 0 1-.256.332c-1.451.8-2.905 1.574-4.353 2.383-1.155.65-2.367 1.144-3.562 1.681-.492.219-.972.53-1.357.98-.127.145-.284.264-.43.388-1.574 1.296-2.773.823-3.25-1.26-.114-.482.146-.738.425-.845 1.323-.508 2.21-1.813 3.564-2.313.785-.293 1.432-1.038 2.069-1.827-.472.181-.975.287-1.404.55-1.571.964-3.114 1.975-4.671 2.972-.199.125-.402.262-.625.309-.346.074-.64-.046-.776-.451-.121-.372.069-.562.345-.716 1.347-.771 2.504-1.907 3.944-2.48.356-.137.697-.287.834-.962-1.584.871-3.08 1.65-4.545 2.505-1.257.727-1.33.726-2.315-.432-.393-.462-.96-1.334-1.382-.948-.646.599.32 1.074.571 1.56.911 1.771.514 1.428-3.125 3.372-1.019.547-1.854 1.423-2.648 2.331-.571.648-1.445.857-2.152 1.314-2.541 1.648-4.69 3.904-7.035 5.866-.106.09-.229.224-.256.352-.094.522-1.004.687-.666 1.19.4.605 1.12.094 1.482-.22.794-.675 1.703-1.248 2.382-2.044 1.22-1.432 2.731-2.412 4.092-3.616 1.979-1.744 4.277-2.968 6.271-4.717.819-.723 1.898-1.022 2.632-1.946.354-.437.651-.055.884.283.284.416.231.758-.215.958-1.563.708-2.878 1.895-4.315 2.836-1.721 1.12-3.334 2.43-4.998 3.644-.634.457-1.355.793-1.891 1.505.852-.007 1.278-.063 1.554-.325 1.317-1.226 2.971-1.823 4.308-2.98 1.239-1.069 2.671-1.766 3.887-2.846.287-.256.585-.468 1.059-.261-1.776 3.008-3.092 6.296-5.522 8.738-.683.681-1.264 1.479-1.818 2.295-.682 1.002-1.535 1.835-2.08 2.97-1.227 2.563-2.889 4.758-4.703 6.827-.444.502-1.027.91-1.055 1.758.443.112.656-.213.895-.52.801-.998 1.65-1.947 2.576-2.8.213-.198.499-.415.748-.209.252.214.157.562.006.844-.427.797-.802 1.632-1.315 2.354-.585.828-1.157 1.583-2.387 1.355-.896-.161-1.804.626-2.723.94-.217.084-.442.297-.631.253-1.468-.321-2.599.62-3.794 1.283-.708.389-1.506.288-2.213.744-.784.506-1.665.806-2.517 1.172a3.805 3.805 0 0 1-1.043.236c-2.674.123-4.985 1.274-7.031 3.199-.071.066-.138.14-.209.207-.337.372-.724.862-.48 1.332.28.534.842.523 1.332.15.204-.157.408-.206.678.07-.221.649-.796.734-1.277.938-.348.134-.706.223-1.054.357-.743.285-.923.647-.683 1.362.24.695.678.984 1.309.606.928-.571 1.968-.855 2.864-1.481.293-.2.485-.215.717.016.992.961 1.983.347 2.955-.076.252-.106.448-.366.7-.493.607-.31 1.009-.018.782.615-.365 1.006.434 1.662.439 2.545.002.301.455.331.751-.055.77-1.006 1.581-1.96 2.373-2.936.155-.186.315-.384.682-.408.246 1.579 1.254 1.58 2.49 1.63 1.762.082 2.648-.95 3.406-2.389.42-.794.937-1.527 1.56-2.137.537-.518 1.078-1.047 1.529-1.658.372-.503.259-.664-.568-.832.097-.855.298-1.613.941-2.22.339-.325.543-.822.79-1.257.162-.277.335-.528.657-.447 1.492.36 2.448-.825 3.06-1.887a11.897 11.897 0 0 1 2.472-3.023c1.169-1.043 1.889-2.253 2.312-3.72.302-1.03.757-1.973 1.107-2.974.211-.606.007-1.004-.542-.94-.633.078-1.1.462-1.4 1.113-.465 1.005-.821 2.057-1.305 3.06-.525 1.097-1.223 1.89-2.333 2.648.171-1.019.653-1.73.734-2.558.081-.849-.121-1.773.502-2.49.06-.071.114-.199.101-.272-.401-1.84.977-2.75 1.731-3.944.548-.852 1.334-1.524 2.109-2.309-.073.466-.016 1.047-.241 1.387-.486.722-.302 1.157.188 1.698.387.425.647.977.987 1.46.328.457.527 1.032 1.208 1.11.51.058.669.794 1.07 1.127.484.397.568.851.288 1.465-.161.364.133.698.389.58.989-.429 1.165.603 1.789 1.015-1.991 2.439-3.922 4.806-6.039 7.39-.161-1.251.19-2.398-.677-3.086-.354-.283-.739-.64-1.2-.327-.152.195-.074.398.02.43 1.021.308 1.118 1.176 1.09 2.15-.067 2.01-.695 3.691-2.335 5.003-.207-1.02.699-1.495.716-2.26.018-.766.321-1.622-.349-2.25-.395.152-.236.422-.247.65-.071 1.34-.245 2.565-1.398 3.456-.717.558-1.225 1.483-1.827 2.23-2.022 2.47-4.644 4.013-6.894 6.114-.572.54-1.386.785-2.107 1.101-1.112.477-1.122.451-.522 1.7-1.691.66-3.359 1.31-5.127 1.66-1.123.217-2.219.56-3.379.52-.347-.013-.702.231-1.044.382-.317.141-.589.372-.488.8.083.367.306.66.682.633.742-.052 1.506-.034 2.205-.293 1.022-.393 2.106-.489 3.174-.666 2.811-.458 5.441-1.683 7.877-3.174 2.187-1.337 4.307-2.94 6.378-4.573 1.364-1.07 2.372-2.556 3.765-3.558.243-.171.361-.402.369-.765.021-1.438.564-2.62 1.388-3.734 1.756-2.378 4.016-4.2 5.724-6.627.22-.309.478-.612.81-.827.359-.236.627-.368.957.05.201.263.509.417.75.646.33.31.46.64.319 1.2a45.325 45.325 0 0 1-2.164 6.66c-.934 2.236-1.886 4.45-2.943 6.628-.181.38-.401.689-.776.823-.263.101-.52.259-.785.292-2.067.26-3.84 1.321-5.557 2.536-1.131.794-2.156 1.665-3.083 2.79-.641.782-1.541 1.42-2.317 2.136-1.08.999-1.967 2.177-2.709 3.484-.491.86-1.168 1.363-2.011 1.454-.663.07-1.259.299-1.863.53-2.054.78-4.096 1.566-6.143 2.363-1.525.586-3.072 1.074-4.421 2.137-1.667 1.312-3.543 1.43-5.515 1.021-1.271-.26-2.575-.216-3.87-.108-.835.068-1.425-.2-1.875-.923-.192-.305-.344-.685-.729-.488-.466.237-.263.695-.157 1.072.268.996.192 2.154 1.151 2.826.407.282.737.573 1.245.368.425-.163.592-.13.882.449.387.785.802 1.637 1.5 2.225 1.78 1.505 3.488 3.095 5.288 4.563 1.291 1.051 2.323 2.385 3.455 3.614.314.337.592.59 1.046.6.212-.519-.023-.925-.284-1.097-.973-.618-1.607-1.649-2.425-2.454-1.25-1.231-2.612-2.323-4-3.647.641-.314 1.256-.113 1.73-.568.327-.31.624.072.904.372 2.468 2.642 5.247 4.891 7.846 7.374.044.042.145.003.221-.007l-.01-.025.034.016s-.034-.016-.027-.019c.008-.003.02.002.031.008.005-.858-.699-1.162-1.138-1.499-.925-.695-1.631-1.62-2.469-2.388-.775-.704-1.47-1.497-2.356-2.08-.718-.464-1.241-1.294-1.857-1.962 1.153-.91 1.253-.929 2.143-.104.83.771 1.72 1.45 2.637 2.596-.057-.922-.06-1.31.661-1.393.92-.101 1.683-.063 2.436.611 1.09.981 2.367 1.745 3.351 2.836.726.801 1.619 1.401 2.244 2.261-.251.66-.838.273-1.12.712-.129.205-.5.222-.76.331-.531.233-.803-.304-1.202-.481.309.942-.469.764-.828.999-.711.487-1.15-.336-1.734-.462l-.023.009c.24 1.056.205 1.059-.516 1.268a44.052 44.052 0 0 1-8.229 1.559 23.128 23.128 0 0 1-3.191.049c-1.773-.086-3.565.058-5.304-.48a.44.44 0 0 0-.42.093c-.87.685-1.953.848-2.835 1.548-1.162.933-2.636 1.169-3.899 1.927a9.324 9.324 0 0 1-4.445 1.358c-.73.038-1.525.499-2.142.999-1.72 1.42-3.735 2.292-5.411 3.792-1.532 1.377-3.28 2.263-5.305 2.069-.91-.088-1.821.204-2.453.943-.465.539-1.056.97-1.781.85-2.371-.372-4.539.373-6.608 1.607-.74.44-1.338.514-2.094-.188-.946-.872-2.173-.945-3.403-.598-1.022.286-2.059.47-3.077.764-1.978.576-4.012.405-6.01.657-.718.091-1.318.098-1.861-.442.127-.487.488-.674.716-.986.08-.108.212-.159.321-.24.556 1.314 1.736-.405 2.413.6.222.333.73.235.91-.233.138-.374.399-.523.643-.753.504-.467.915-.624 1.381.053.182.26.53.38.819.531.278.146.599.14.69-.217.148-.523.501-.815.785-1.206.713-.975.68-1.01 1.58-.433.595.385 1.104 1.182 1.903.242.278-.321.688.095.995.289.606.37 1.087.486 1.878.25.79-.235 1.797-.408 2.736-.147.492.142 1.13.334 1.207-.697.025-.409.43-.302.682-.301 1.093-.012 2.181-.012 3.27.008.206-.002.382-.011.42-.24.037-.209-.058-.435-.243-.51a8.69 8.69 0 0 0-2.253-.583c-1.583-.189-3.156-.421-4.695-.89-.806-.245-1.508-.734-2.271-1.092-1.79-.829-3.712-1.054-5.572-1.535-1.787-.461-3.515-1.013-5.198-1.845-1.071-.532-2.246-.586-3.417.176-1.151.744-2.356 1.382-3.45 2.241-.675.531-1.1 1.162-1.33 2.067-.594 2.379-.624 2.371 1.233 3.612.075.049.11.153.179.253-.283.371-.655.281-.992.206-1.888-.442-3.796-.36-5.704-.317-.89.021-1.71-.238-2.55-.499-1.992-.625-3.576-1.923-4.942-3.596-1.31-1.608-2.763-3.063-3.797-4.932-.36-.66-.651-1.326-.544-2.155.117-.872.35-1.108 1.05-.773.88.42 1.76.841 2.635 1.273 1.714.839 3.452 1.63 5.116 2.586.431.252.698.84 1.36.79.116-.832-.51-1.078-.946-1.387-2.591-1.806-5.446-3.043-8.176-4.542-.612-.339-1.29-.604-1.063-1.703 1.61.256 3.071 1.028 4.457 1.837 1.746 1.022 3.675 1.497 5.403 2.583.955.596 2.114.87 3.068 1.593.213.162.471.199.616-.032.214-.345-.04-.627-.278-.72-.652-.265-1.214-.701-1.826-1.02-2.925-1.532-5.883-2.972-8.833-4.436-.796-.394-1.594-.769-2.378-1.177-.556-.292-1.123-1.631-1.015-2.354.054-.341.296-.405.513-.255 2.557 1.79 5.575 2.585 8.041 4.565.436.348.932.585 1.47.622.139-.287.045-.465-.119-.577-1.768-1.159-3.475-2.429-5.322-3.412-1.137-.604-2.256-1.312-3.495-1.73-1.058-.353-1.171-.494-.886-1.625.307-1.188.496-2.399.735-3.6.11-.548.38-.759.789-.877-.418-.774-.235-1.447.323-2.041.436-.46.822-.948 1.017-1.636 2.055.795 3.886 1.91 5.643 3.171 2.258 1.613 4.483 3.277 6.78 4.816.49.328.657.935 1.21 1.179.765.339 1.12.222 1.325-.655a1.55 1.55 0 0 0 .023-.456c-.024-.438.089-.958.43-1.002.468-.063.427.498.505.895.19 1.046.659 1.323 1.564.975.132-.051.235-.168.37-.21.773-.258 1.042.017.855.955-.078.39-.028.721.11 1.028.367.822 1.136.877 1.634.14.623-.93.602-.853 1.598-.497 1.163.409 2.299.945 3.55.989.34.016.652.052.785-.399.107-.362.123-.728-.166-.987a16.668 16.668 0 0 0-1.097-.911c-.305-.233-.463-.522-.283-.903.206-.448.507-.311.814-.118.393.248.834.419.925 1.016.07.44.384.864.734.778.847-.209 1.702.28 2.52-.103.323-.153.505.001.74.154.434.28.887.544 1.35.765 2.03.97 3.268.621 4.765-1.326.367-.472 1.427-.539 1.81-.102 1.008 1.149.848 1.833-.54 2.25-.39.121-.795.228-1.218.079-.426-.157-.837.02-1.178.278-.51.39-1.02.694-1.646.681-.255-.008-.425.164-.581.37-.128.166-.203.35-.156.566.062.297.293.373.513.425.083.027.19.005.272-.036 1.719-.914 3.669-.876 5.417-1.655.574-.26 1.11-.417 1.727-.362.492.034 1.007-.066 1.503-.17.504-.106 1.04-.244 1.495-.039 1.77.779 3.459-.182 5.177-.288a.742.742 0 0 0 .661-.585c.266-1.114.955-.698 1.625-.625 1.008.128 1.971-.359 2.983-.456 2.364-.238 4.678-.893 7.059-1.05.348-.027.71-.214 1.037-.399.358-.195.351-.572.206-.935-.154-.408-.394-.442-.773-.277-1.814.795-3.716 1.001-5.636 1.077-.768.033-1.576.081-2.307.352-1.253.482-2.423-.051-3.631-.141-.37-.023-.48-.409-.563-.776-.19-.812-.69-1.291-1.348-1.612-.455-.224-.845-.551-1.225-.94-.865-.893-1.952-1.506-3.12-1.738-1.97-.401-3.758-1.523-5.792-1.694-.796-.074-1.587-.071-2.287.295-1.554.812-3.107.864-4.772.648-.932-.118-1.914-.101-2.87-.103-.503-.001-1.01.077-1.46-.285-.097-.08-.277-.166-.375-.119-1.679.772-3.322-.133-4.975-.043-.134.003-.337.033-.4-.05-.778-1.053-1.564-.381-2.429-.107-.822.267-1.718.232-2.58.321-.089.004-.185-.075-.266-.054-2.26.528-3.876-.952-5.697-2.022-2.409-1.419-4.767-2.993-7.398-3.917-.507-.175-.704-.43-.476-.995.158-.372.304-.749.495-1.105.319-.608.752-.775 1.364-.349 1.845 1.276 3.778 2.42 5.93 2.808 1.762.315 3.345 1.312 4.989 2.071.68.313 1.374.61 2.09.92.1-.614-.298-.704-.563-.797-.888-.29-1.707-.696-2.37-1.453-.327-.37-.847-.365-1.252-.579-2.651-1.374-5.278-2.776-7.93-4.15-.6-.314-1.039-.67-.759-1.518a.507.507 0 0 0-.028-.3c-.244-.578-.107-1.486-.824-1.63-.76-.155-.921.695-1.21 1.244-.705 1.332-1.376 2.68-2.07 4.016-.212.413-.455.817-.976.628-.494-.19-.918-.405-.831-1.178.064-.55-.017-1.123-.082-1.681-.03-.261-.245-.45-.511-.378-.193.055-.268.24-.279.468-.059 1.073-.112 2.115-.422 3.168-.232.77-.508 1.265-1.163 1.566-.896.413-1.387 1.146-1.773 2.19-.996 2.746-1.49 5.553-1.787 8.528-.135 1.316-.434 2.608-.657 3.91-.283 1.646.227 3.065.899 4.48.575 1.209 1.192 2.392 1.976 3.521.575-.406-.207-1.594.974-1.63.344 1.386 1.032 2.776.584 4.417-.131.498.04.86.213 1.289.687 1.75 1.903 3.073 2.912 4.562 1.991 2.961 4.638 5.154 7.379 7.165 1.476 1.086 3.264 1.547 4.918 2.244.46.193.97.25 1.373.61-.542.588-1.226.141-1.867.328.262.513.669.687 1.029.772 1.164.263 2.136 1.115 3.348 1.214.38.028.771.462 1.02-.247.025-.068.267-.112.373-.075 1.051.423 2.194.188 3.247.551.306.107.626.246.936.234 1.342-.039 2.512.387 3.526 1.378.288.279.688.543 1.116.087-.251-.487-.956-.45-1.007-1.189.553-.329 1.157-.221 1.713-.055.866.26 1.729.259 2.59.103 1.882-.334 3.802-.304 5.659-1.105 1.007-.426 2.226-.35 3.363-.427 1.983-.14 4.002-.303 5.83-1.425 1.045-.635 2.169-1.125 3.185-1.827.966-.673 1.986-.9 3.023-.617 1.817.488 3.31-.446 4.856-1.216 1.286-.64 2.42-1.679 3.923-1.722.248-.008.605-.164.727-.386.511-.917 1.441-1.08 2.16-1.59.94-.672 2.051-.428 3.081-.396 2.053.067 3.966-.173 5.743-1.566 1.894-1.477 4.119-2.235 6.295-3.023.897-.326 1.62-.934 2.479-1.284 1.945-.806 3.849-1.577 6.003-1.228 2.048.331 4.079.028 6.012-1.037 1.33-.725 2.814-.877 4.271-1.048.18-.021.367-.025.547-.026.252.001.461-.08.487-.401.03-.333-.162-.424-.416-.472a3.91 3.91 0 0 0-1.779.07c-1.766.524-3.578.792-5.329 1.417-1.821.651-3.741.621-5.648-.037.727-.133 1.447-.323 2.179-.38 1.424-.1 2.804-.495 4.19-.814.843-.197 1.582-.618 1.875-1.625.182-.634.594-.744 1.082-.698 2.707.253 5.353-.19 7.992-.864.705-.184 1.429-.238 2.151-.253 2.518-.044 4.862-.926 7.249-1.707 2.197-.719 4.209-1.959 6.345-2.819 1.553-.626 2.958-1.536 4.449-2.265 1.192-.585 2.262-1.181 2.928-2.605.374-.795 1.258-1.32 1.953-1.889a6.188 6.188 0 0 0 1.1-1.162c.483-.623.954-1.233 1.639-1.632.433-.254.875-.677 1.097-1.151.574-1.214 1.692-1.867 2.281-3.047.299-.611.936-.914 1.468-1.08 1.738-.551 3.279-1.436 4.758-2.598.984-.777 2.006-1.423 2.578-2.664.161-.344.447-.561.737-.682.992-.42 1.672-1.237 2.316-2.117.596-.803 1.498-1.179 2.141-1.893 1.463-1.642 2.857-3.365 4.291-5.035.342-.404.965-.994 1.34-1.362 1.152-1.104 2.117-2.438 2.727-3.908.643-1.541 1.127-3.352.407-5.138-.17-.401 0-.807.135-1.19.635-1.879.975-3.838 1.239-5.808.077-.603.302-1.176.459-1.762.451-1.74.305-3.318-.943-4.608-.506-.516-.61-1.313-.971-1.953-1.135-2.044-2.213-4.1-3.935-5.618-.104-.096-.199-.215-.291-.326-.161-.19-.303-.418-.225-.682.12-.416.446-.22.695-.248.986-.116 1.457.637 1.783 2 .215.89.868 1.563 1.689 1.695 1.265.205 2.297 1.112 3.33 1.853.027.019.06.055.082.085 1.396 2.13 2.16 4.423 2.962 6.742.648 1.871.431 3.696-.278 5.506-.709 1.81-1.175 3.876-1.661 5.853-.49 1.988-1.244 3.903-1.908 5.841-.313.918-.778 1.69-1.627 2.192-1.091.653-1.831 1.88-3.014 2.423-.197.086-.343.337-.491.54-.781 1.068-1.401 2.26-2.233 3.29-.223.28-.497.697-.158 1.092l.015-.006c.027 0 .055.066.081.105.114-.579.47-.95.839-1.354 1.443-1.585 3.193-2.657 4.967-3.972.086.97-.574 1.3-.84 1.841-1.462 2.965-3.106 5.796-5.231 8.257-.93 1.077-1.815 2.196-2.894 3.068-.781.64-1.297 1.549-2.023 2.256-1.161 1.147-2.384 2.23-3.48 3.469-.218.249-.624.502-.311.859.236.259.6-.007.857-.252.995-.985 2.005-1.958 2.978-2.974 1.305-1.358 2.765-2.542 3.884-4.13.136-.188.38-.398.57-.394 1.103.034 1.529-.938 2.059-1.725 1.603-2.377 2.952-4.949 4.484-7.386.94-1.5 1.956-2.99 2.691-4.673.438-.986 1.164-1.82 1.747-2.695.369.062.317.471.526.624.422-1.68.953-3.294 2.139-4.51.449.295.354.624.265.988-.433 1.782-1.378 3.313-2.11 4.898-1.226 2.65-2.64 5.198-4.265 7.564-.786 1.14-1.472 2.473-1.773 3.95.583-.661 1.366-1.108 1.684-2.057.106-.323.498-.29.518-.073.085.989.75.539 1.157.586.093.305-.006.518-.154.614-.535.352-1.121.499-1.53 1.21-.34.58-.975 1.057-1.491 1.557-2.716 2.64-5.678 4.887-8.607 7.19-.777.61-1.43 1.426-2.402 1.702-.069.027-.103.244-.149.369.322.401.701-.192 1.016.105-.085.734-.599 1.135-1.02 1.608-.547.62-1.091 1.247-1.676 1.822-.241.238-.219.502-.25.768 1.32-.771 2.207-2.075 3.172-3.282.062-1.766 1.528-1.979 2.474-2.742.855-.679 1.797-1.216 2.84-1.919-.408 1.247-1.076 1.922-1.622 2.842-1.068 1.792-2.403 3.356-3.833 4.801-2.826 2.847-5.709 5.619-9.294 7.289-1.389.651-2.673 1.592-4.023 2.355-3.196 1.802-6.391 3.605-10.052 4.564.343-.89 1.185-1.068 1.57-1.732-.326-.429-.59-.162-.848.015-1.635 1.154-3.409 2.021-5.118 2.999a10.47 10.47 0 0 1-2.625 1.048c-1.12.265-2.213.617-3.289 1.05-1.498.606-2.913 1.004-4.539.5-1.342-.408-2.822-.121-4.229.04-1.706.199-3.374.743-5.06 1.119-2.139.472-4.204 1.927-5.958 2.991-1.169.702-2.237 1.58-3.349 2.396-.583.429-1.244.673-1.933.811-1.677.353-3.27 1.053-4.882 1.644-.062.024-.085.159-.174.31.477.362.919.153 1.398-.012 1.778-.625 3.57-1.236 5.532-1.066-.088.218-.118.444-.199.465-1.076.307-1.965 1.077-3.071 1.375-1.252.336-2.397 1.097-3.243 2.201-.499.649-1.076 1.24-1.561 1.923a4.89 4.89 0 0 1-2.76 1.937c-2.405.652-4.81 1.284-7.224 1.872-.816.197-1.473.751-2.279 1.013-1.518.495-2.969.596-4.549.454-2.761-.252-5.409.465-7.442 2.823-1.307 1.504-2.931 2.109-4.67 2.398-1.214.195-2.42.366-3.622.692-.894.247-1.81.209-2.717.043-.907-.167-1.779-.143-2.627.212-.484.196-.966.332-1.481.199-.413-.103-.81-.106-1.2.161a.915.915 0 0 1-.81.106c-3.132-1.043-6.402-.904-9.598-1.398l.071.041Zm11.62-95.635c-.09.658-.249 1.303-.411 1.94-.101.398-.397.57-.74.546-.351-.02-.377-.38-.427-.604-.033-.523-.063-.978-.086-1.436-.05-.944.123-1.196.895-1.307.61-.089.869.162.766.853l.003.008Zm8.43 2.548c-.173-.089-.32-.286-.21-.474.308-.546.764-.362 1.32-.303-.282.693-.565 1.044-1.11.777Zm3.324.775c-.752.562-.937 1.528-1.67 2.004-.21-1.408.089-1.785 1.67-2.004Zm3.132.11c.131-.051.236.025.296.168.017.168-.062.257-.2.251a.245.245 0 0 1-.198-.108c-.087-.142-.033-.27.106-.323l-.004.011Zm2.692-.316c.484-.789.969-1.578 1.46-2.37.275-.437.63-.641 1.036-.233.366.375.385 1.165.028 1.448-.73.592-1.467 1.187-2.52 1.144l-.004.011Zm9.432.052c-.089-.297.238-.374.442-.423.331-.089.61.018.767.366.014.267-.139.394-.305.429-.353.058-.763.089-.896-.375l-.008.003Zm22.818-14.532c.096.44-.023.69-.338.753-.216.043-.316-.151-.344-.365-.032-.289-.077-.65.243-.745.239-.072.391.18.439.357Zm60.523 10.373c-1.071.169-1.265 1.09-1.148 2.027.257 2.159.353 4.34 1.344 6.362.966 1.983.929 4.234.497 6.463-.139.715-.64 1.19-.79 1.939-.261 1.296-.677 2.546-.622 3.906.027.68-.457 1.09-.842 1.54-.671.774-1.518 1.323-2.139 2.194-1.101 1.523-2.078 3.124-2.73 4.941-.228.632-.608 1.158-1.12 1.52-1.256.882-2.384 1.958-3.298 3.262-.93 1.33-2.239 2-3.508 2.721-1.452.82-3.879 2.016-5.356 2.779a12.75 12.75 0 0 0-3.792 3.005c-.954 1.106-1.826 2.297-2.949 3.235-.822.695-1.033 1.895-1.379 2.991.915-.536 1.353-1.629 2.117-2.331.768-.714 1.376-1.638 2.364-2.174-.303.496-.537 1.092-.932 1.477-1.342 1.334-2.286 3.078-3.629 4.411a14.269 14.269 0 0 1-2.358 1.89c-1.354.861-2.685 1.82-4.198 2.304-1.471.478-2.804 1.302-4.215 1.922-1.667.738-3.49.875-5.15 1.649-.481.224-.679-.137-.44-.677.079-.176.236-.314.137-.675-.727-.061-1.749.906-2.292-.549l6.344-2.439a1.91 1.91 0 0 0 .494-.258.466.466 0 0 0 .17-.533c-.077-.203-.237-.327-.441-.277-.636.156-1.238.476-1.916.425-1.131-.1-2.273-.012-3.292.555-1.77.983-2.358 1.763-3.293 1.169-1.44-.915-2.541-2.282-3.809-3.429-.608-.545-.551-1.345.139-1.776.92-.567 1.873-1.08 2.54-2.075.273-.397.695-.676 1.067-.965.235-.188.524-.25.756.02.301.352.612.66 1.076.482.604-.232 1.372-.245 1.772-.808 1.135-1.613 2.936-2.374 3.998-4.008.874-1.338 2.196-2.167 2.991-3.562.141-.24.439-.364.656-.554.99-.848 2.033-1.638 2.331-3.144.078-.41.43-.661.681-.962.152-.195.338-.412.159-.665-.222-.313-.49-.18-.715.032-.315.297-.624.61-.935.914-.889.897-1.713 1.885-2.795 2.495-.195.114-.395.279-.722.122.484-.896 1.189-1.527 1.872-2.188.24-.239.552-.417.729-.7.509-.817 1.075-1.541 1.892-1.991.198-.106.336-.353.488-.548.108-.148.293-.307.151-.515-.168-.247-.454-.264-.598-.052-.83 1.185-2.372 1.028-3.199 2.241 1.288-2.1 3.11-3.705 3.998-6.09-.33-.184-.512-.085-.584.108-.604 1.653-1.867 2.644-3.015 3.737-1.747 1.674-3.666 3.093-5.49 4.65-1.348 1.15-2.649 2.37-4.056 3.447-.76.584-1.651.839-2.371 1.475-.13.119-.371.143-.462-.114-.081-.212.002-.4.123-.602 1.112-1.73 2.747-2.904 4.501-3.734 1.634-.774 2.852-2.274 4.057-3.7.783-.934 1.706-1.687 2.632-2.432a3.567 3.567 0 0 0 1.129-1.582c-.719-.084-1.697.282-2.123.787-.095.114-.167.307-.274.329-.389.081-.675.892-1.038.438-.385-.484.298-.718.505-1.06.699-1.174 1.777-1.666 2.925-1.825 1.757-.248 3.08-1.437 4.591-2.437.217.491-.412.918-.118 1.359.17-.153.399-.377.501-.008.276 1.013.685 2.043.137 3.129-.09.17-.082.401-.142.706.434-.06.952-.833 1.22.203.213.823 1.085.546 1.736.85-1.204 3.021-3.108 5.495-4.505 8.59 1.129-1.115 2.001-2.073 2.597-3.343a3.48 3.48 0 0 1 1.601-1.637c1.31-.668 1.839-2.01 1.908-3.506.03-.692.109-1.335.407-1.907 1.038-2.053 1.128-4.413 1.811-6.582.072-.232.051-.516.013-.755-.074-.409-.197-.848-.663-.844-.493.005-.561.44-.568.87-.04 2.243-.632 4.33-1.467 6.353-.382.925-.906 1.195-1.6.81-.671-.375-.963-1.362-.596-2.067 1.21-2.304 2.053-4.798 3.057-7.207.224-.534.222-1.049-.167-1.395-.368-.316-.67.14-.956.377-.22.182-.408.42-.58.65-.108.15-.214.472-.044.533 1.121.396.4 1.18.215 1.698-.522 1.466-1.146 2.882-1.757 4.392-.751-1.326-.754-2.142.13-3.027.637-.644.964-1.421 1.074-2.417-.558.701-1.113 1.41-1.675 2.123-.391.053-.48-.39-.734-.565-.631-.428-1.368-.32-1.781.383-.49.84-1.241 1.382-1.778 2.153-.181.254-.401.436-.692.47-.479.058-.976.755-1.399.266-.478-.556.216-.998.433-1.441a109.953 109.953 0 0 1 2.542-5.005c.252-.467.435-.906.46-1.422.016-.259.005-.518.124-.748.48-.905.715-1.88.807-2.918.045-.445.148-.903.493-1.279.937.408 1.024 1.825 2.025 2.15.149-.69-.353-.983-.64-1.3-.523-.598-.865-1.322-1.264-1.986-.474-.78.112-1.648.072-2.742 1.773 1.468 2.961 3.104 4.335 4.608 1.386 1.53 2.811 3.025 3.959 4.782.277.42.558.68.971.678l-.011-.025c.016-.006.027 0 .046.002-.358-.826-.834-1.567-1.54-2.045-.624-.431-.851-1.18-1.278-1.765-1.641-2.24-3.441-4.3-5.256-6.356-1.472-1.672-1.539-1.83-1.093-4.133-1.05.005-.362 1.248-1.082 1.652a4620.738 4620.738 0 0 0-4.407-5.651c.202 1.284 2.723 5.18 3.921 6.266 0 0 .012-.015.02-.018 0 0 .007.017.002.028.53.74 1.148 1.437.81 2.53-.081.274-.047.631-.368.745-.236.08-.481-.01-.564-.27-.103-.35-.668-.6-.298-1.024.512-.596.398-1.29.42-1.98l-.003-.009c-.06.072-.112.16-.182.187-1.416.67-1.373.625-2.419-.656-1.454-1.776-2.6-3.845-4.283-5.378-.204-.184-.227-.515-.093-.771.636-1.218.294-2.75 1.013-3.94.048-.078.019-.232.075-.292.92-1.035 1.25-2.465 1.979-3.612.347-.541.635-.924.474-1.622-.096-.44-.004-.922.366-1.346.853.42 1.217 1.429 1.87 2.102.366.375.034.823-.417 1.055-.967.498-1.615 1.497-2.514 2.115-.141.093-.273.29-.153.594.672.12 1.204-.279 1.645-.769.603-.68 1.424-.927 2.092-1.476.2-.164.432-.253.6-.007.24.356-.026.555-.246.737-.22.182-.48.311-.686.527-.265.267-.627.58-.294 1.027.256.35.544.18.832-.077.255-.224.551-.396.847-.569.542-.315 1.225-.188 1.554.376.726 1.248.73 2.638.588 4.025-.131 1.306.318 2.641-.298 3.928-.123.262.119.791.267 1.163.519 1.288 1.162 2.51 1.49 3.902.134.57 1.89 1.083 2.348.742.184-.14.325-.379.52-.492.308-.187.655-.174.89.125.201.263.107.571-.097.834-.115.152-.216.317-.305.448.154.428.465.376.724.393.279.02.444.092.349.44-.087.306-.18.575.149.8.329.223.603.127.896-.073.274-.183.555-.369.854-.513.244-.123.554-.242.746.063.491.755.914.31 1.396-.04.849-.609.847-.57 1.523.348.268.355.461.854.965.875l-.015-.034.072.04c-.045-.147-.071-.293-.131-.435-.415-.98-.104-1.692.818-1.531.65.11 1.054.003 1.438-.494.351-.466.855-.232 1.259-.426.546-.58.827-1.34 1.131-2.089.117-.297.311-.752.695-.588.426.177.407.641.237 1.047-.341.832-.606 1.673-.641 2.737.814-.352.881-1.107 1.153-1.698.231-.517.518-.54.845-.15.371.451.835.846 1.069 1.379.685 1.575 2.114 2.378 2.982 3.747a.97.97 0 0 0 .302.312c.158.095.357.204.511.037.198-.212.14-.52-.027-.68-.808-.76-1.362-1.772-2.091-2.601-.537-.61-.579-1.558-1.273-2.05-.22-.159-.04-.5.167-.775 1.28-1.737 1.985-3.769 2.503-5.923.336-1.375.748-2.74 1.114-4.106.252-.914.493-1.834.542-2.864.97-.004 1.853.319 2.739.562.367.102.751.499.899.89.562 1.476 1.546 2.567 2.548 3.66.052.059.044.188.076.37l-.019-.022Zm1.054 2.553c-.036-.191-.166-.394.052-.516.26-.15.426.03.521.296.259.717.375 1.46.484 2.226.177 1.206-.069 2.41.312 3.587-.134.022-.261.041-.395.064-.323-1.89-.643-3.77-.982-5.654l.008-.003Zm-1.731 20.327c.057 1.515-.879 2.303-1.566 3.102a52.246 52.246 0 0 0-3.061 3.989c-.113.16-.24.306-.45.299-.133-2.1 1.891-5.076 5.077-7.39Zm-6.889 9.974s-.044.085-.075.097c-.109.042-.145-.003-.104-.096.012-.034.067-.055.101-.059.023-.009.052.039.078.058Zm-51.99 17.857c1.065-.799 1.834-.005 2.598.568 1.133.848 2.233 1.768 3.338 2.656.007-.003.019.003.03.008-.197-1.082-.637-1.973-1.508-2.563-.441-.297-.66-.816-.912-1.303-.118-.237-.249-.439.04-.628.184-.119.361-.061.458.145.267.568.755.828 1.198 1.193 1.632 1.348 2.993 3.033 4.518 4.509.059.055.051.185.081.3-.476.552-.932.475-1.425.012-.54-.512-1.056-1.072-1.771-1.294.007.017.018.023.033.036l-.039.015c.173.897 1.197.999 1.46 1.939-1.13.561-2.347.64-3.474 1.102-.445.181-.759-.155-1.073-.472-1.109-1.111-2.193-2.27-3.403-3.235a23.785 23.785 0 0 1-1.98-1.788c-.551-.557-.443-.919.254-1.207.302-.116.604-.251.936-.126.215.083.519.248.648.15l-.007-.017Zm-2.097-6.802c-.069-.206.088-.345.251-.427.144-.065.256-.011.322.187.032.183-.042.367-.238.394-.111.013-.307-.067-.335-.154Zm2.777-1.836c.07-.153.245-.27.397-.357.125-.067.252 0 .296.188-.044.28-.234.382-.464.392-.13.012-.307-.066-.229-.223Zm1.847-.992c-.007-.143.096-.241.283-.265.073.002.218.004.219.198-.001.147-.074.272-.215.278-.126 0-.278-.04-.287-.211Zm4.194 3.894c1.089-1.508 2.816-1.764 4.192-2.701-1.318 1.051-2.483 2.443-4.192 2.7Zm4.767-1.259c.117.023.193.033.281.048-.043.133-.066.269-.132.39-.016.027-.144-.021-.224-.04l.071-.406.004.008Zm-1.903 1.52c-.127 1.187-2.232 2.804-4.01 3.088.949-1.648 2.683-1.887 4.01-3.088Zm-.783 14.981s.012-.014.013-.034c-.004-.008-.004-.008.005-.031.223-.047.456-.049.654-.154 1.096-.577 1.101-.589 2.382-.176-.527.669-1.209.503-1.743.495-.401-.012-.931.649-1.256-.14-.041.093-.058.139-.058.139-.02.037-.004-.009.007-.09l-.004-.009Zm1.301-2.494c.801-.999.947-1.036 2.067-.474-.677.468-1.366.626-2.067.474Zm6.349-17.56.047-.017.023-.01.023-.008c.002-.06.1-.02 0 0l.004.008.031-.012s-.012.015-.02.018l.023-.01-.009.063c-.031.012-.069.007-.1.019-1.433 1.037-2.571 2.554-4.403 3.54.612-1.188 1.58-1.453 2.118-2.263.551-.825 1.391-1.157 2.285-1.277a.144.144 0 0 0 .047-.038l-.064-.024-.005.011Zm-2.352 4.135-.069.133c-.042-.013-.099-.02-.129-.047-.092-.091-.085-.201.039-.249.124-.047.183.027.159.163Zm4.228-5.887c.028-.254.116-.492.398-.464.103.01.193.16.267.228.01.385-.235.421-.436.479-.15.048-.241-.082-.221-.246l-.008.003Zm-9.537-2.657s.041-.074.058-.12c.037.025.071.041.108.066-.02.037-.037.102-.061.11-.03.013-.067-.032-.105-.056Zm2.509-1.49c-.508.585-1.088.808-2.073 1.03 1.686-2.243 3.513-3.772 5.359-5.212 1.098-.85 2.285-1.744 3.816-1.613-.823 2.136-2.543 3.323-3.941 4.823a.39.39 0 0 1-.51.07c-1.136-.663-1.936.082-2.654.894l.003.008Zm1.607.267c-.596.716-1.411 1.108-2.062 1.737-.249.242-.527.203-.721-.044-.301-.37.064-.55.252-.68.691-.47 1.409-.902 2.121-1.322.109-.061.264-.014.41.31Zm18.515-42.481c.138.112.274.245.23.67-.226-.088-.424-.109-.539-.23-.247-.265-.754-.06-.817-.591-.009-.064.091-.19.164-.209.39-.12.675.15.958.371l.004-.011Zm-.985-2.666c-.147-.518.321-.474.561-.673.079.378.207.786-.235.868-.1.02-.303-.097-.326-.195Zm4.076 16.343c-.119.503-.66.692-1.003.434-.753-.566-.091-1.19.006-1.919.625.392 1.18.704.997 1.485Zm-5.762-14.46c-.308.44-.759.545-1.32.77-.115.025-.379.127-.65.143-.104.011-.264-.112-.329-.223-.116-.19-.059-.416.124-.515.541-.295.939-.799 1.4-1.2.208-.187.515-.354.732-.077.249.313.324.702.043 1.102Zm3.75 12.257c.056.153.032.308-.082.4-.149.116-.259-.016-.308-.153-.032-.075.007-.217.051-.283.108-.128.232-.089.331.039l.008-.003Zm-3.125-6.66c.359-.021.511.358.598.733.143.636.374 1.287-.146 1.866-.17.192-.388.295-.617.179-.161-.084-.248-.226-.255-.476-.004-.456-.142-.909-.116-1.356.032-.373.046-.913.528-.943l.008-.003Zm-1.732-3.196c-.033-.27.146-.484.375-.582.197-.086.379-.02.405.233.025.273-.097.495-.326.592-.223.047-.438-.035-.461-.24l.007-.003Zm2.109 6.914c.104-.157.275-.242.472-.182.843.25 1.244 1.069 1.093 2.518-.852-.46-1.173-1.261-1.609-1.93-.055-.086-.028-.32.04-.415l.004.009Zm4.809-2.433c-.31-.328-.622-.831-.283-1.136.314-.277.877-.075 1.151.403.242.423.429.886.625 1.307.053.272.129.515.139.773.016.335-.152.662-.428.69-.414.043-.26-.338-.292-.627-.063-.637-.532-1.002-.92-1.407l.008-.003Zm2.052-2.443c-.071-.06-.137-.132-.208-.192-.07-.06-.149-.118-.219-.179.431 0 .928-.357 1.111.245.113.374-.321.473-.681.135l-.003-.009Zm2.92 8.237c.068.246.065.47-.199.592-.185.032-.4-.031-.44-.21-.053-.253.114-.453.339-.54.139-.053.252.001.296.169l.004-.011Zm-1.038-.944c.071.04.139.073.206.125 0 0-.019.105-.05.117-.101.058-.161.023-.188-.103.006-.051.015-.094.028-.147l.004.008Zm2.161 3.022c.091-.21.274-.33.448-.26.151.059.25.273.309.348.082.407.117.743-.033 1.005-.39.695-.817 1.365-1.248 2.027-.153.234-.4.222-.609.049-.193-.16-.113-.375-.035-.55.384-.878.78-1.75 1.176-2.622l-.008.003Zm-1.468-11.947c-.103-.242-.102-.515.137-.675.265-.18.45.022.533.262.137.366.36.552.672.695.38.175.386.698.219.898-.528.602-.338 1.2-.199 1.847.1.449.069.908-.185 1.453-.423-.148-.803-.684-1.393-.272-.587.42-.916-.037-1.035-.701-.181-1.001.147-1.798 1.006-2.129.341-.13.454-.437.686-.633-.149-.244-.324-.469-.446-.733l.005-.012Zm4.431 11.401-.132.411c-.09-.063-.169-.08-.202-.136-.083-.154-.018-.276.125-.321.062-.024.14.034.212.055l-.003-.009Zm-3.388-4.73c-.17.173-.337.014-.419-.16-.11-.239-.358-.484-.085-.774.207-.128.363-.013.457.145.157.242.296.529.036.785l.011.005Zm1.175-9.294s.01.045.009.064c2.097.916 3.547 2.684 4.862 4.62.117.17.17.402.05.565a.284.284 0 0 1-.477-.021c-1.19-1.897-3.011-3.075-4.336-4.803-.066-.091-.072-.235-.091-.364l-.034-.016-.014-.033c-.328.204-.574-.081-.845-.21-.271-.13-.484-.379-.366-.716.156-.44.552-.523.919-.528.206-.002.298.216.26.444-.068.348-.087.686.043 1.015l.039-.015-.019-.002Zm5.074 12.516c.446-1.135.588-2.435 1.568-3.308-.04 1.456-.61 2.745-.945 4.1-.067.288-.394.238-.51-.057-.092-.218-.192-.54-.117-.724l.004-.011Zm-2.266-6.776c-.259.197-.566.15-.709-.145-.337-.688-1.044-1.127-1.141-2.247.773.55 1.577.707 1.903 1.584.106.27.248.585-.053.808Zm-2.121-7.474c.223-.387.618-.412.95-.54.983-.377.944-.343 1.364.692.494 1.23 1.404 2.106 2.284 2.994a166.06 166.06 0 0 1 1.906 1.952c.24.248.48.623.236.94-.291.375-.596.142-.935-.126-1.098-.872-1.979-1.954-2.853-3.106-.586-.767-1.344-1.517-2.238-1.97-.323-.168-.681-.333-.714-.836Zm.546 8.323c-.439.11-.482-.33-.649-.597-.188-.297-.16-.57.18-.702.511-.196.362.26.346.5-.021.29.413.464.123.799Zm-1.44-3.698c.152.02.182.173.188.317-.047.057-.101.165-.139.16-.14-.034-.212-.161-.188-.317.01-.062.101-.165.143-.152l-.004-.008Zm1.462 5.45c.268-.132.377.167.502.294.153.34.025.525-.208.634-.213.092-.337-.074-.396-.276-.072-.235-.181-.514.11-.655l-.008.003Zm7.613-4.99c.316-.189.397.13.46.3.142.335.714.349.536.904-.013.034-.064.063-.106.07-.571.074-.603-.469-.766-.854-.057-.134-.079-.271-.127-.428l.003.009Zm5.484-.541c-1.304-.423-2.335-.776-3.448-.494-.439.11-.767-.26-1.081-.557-.756-.721-1.534-1.434-2.139-2.33-.411-.61-.978-.908-1.537-.508-.622.443-.932.095-1.289-.302-.32-.354-.617-.736-1.006-1.209.621-.53 1.195-.343 1.724-.39.861-.069 1.739.07 2.598-.026.951-.113 1.68.23 2.372.907.744.736 1.444 1.497 2.342 2.067.819.512 1.108 1.597 1.464 2.842Zm-10.079-6.486c-1.901.205-3.779.402-5.488 1.507-.348.22-.785.272-1.186.387-.177.049-.375.028-.527.115-.304.176-.241.94-.731.739-.358-.145-.647-.53-.942-.844-.229-.243-.521-.423-.663-.991 2.45-.718 4.782-1.819 7.27-2.464-1.404.19-2.858.028-4.158.655-1.898.914-3.98 1.053-5.881 1.92-.721.336-1.17-.192-1.835-.277.64-1.122 1.698-1.217 2.448-1.846.294-.24.703-.338.945-.616.833-.943 2.108-.908 2.988-1.762.11-.1.373-.095.524-.036 2.925 1.191 6.023 1.391 9.056 1.967.683.126 1.04.67 1.6 1.272-1.26.231-2.353.136-3.43.249l.01.025Zm-39.31 27.916c-.717 1.112-1.778 1.773-2.728 2.566-.338.286-.757.359-1.324.081.809-2.17 2.775-2.37 4.107-3.515.42.46.094.645-.052.876l-.003-.008Zm-7.116 6.335c-.974.462-1.877.984-2.726 1.72-.402.348-.848.802-1.477.761-.087-1.055.679-1.477 1.227-1.882 1.175-.88 2.408-1.645 3.561-2.575.518-.413 1.166-.604 1.804-.032-.606.991-1.484 1.572-2.389 2.008Zm2.278.535c-.052.642-.376.874-.633 1.138-.182.187-.449.513-.657.107-.158-.31.084-.567.333-.722.269-.171.561-.313.965-.526l-.008.003Zm-10.809 1.032c1.447-.683 2.316-2.563 4.052-2.628.223.528-.109.743-.365.86-1.237.564-2.184 1.94-3.687 1.768Zm5.108-3.024c.148-.777.702-.678 1.162-.719-.293.414-.563.839-1.162.72Zm18.985-.547c-.843 1.025-1.109 2.48-2.474 3.101-.981.446-1.752 1.452-2.643 2.174-.471.375-.903.863-1.509.94-.189-.404.049-.564.21-.694 1.301-.986 2.39-2.26 3.621-3.347.146-.124.349-.26.396-.425.316-1.337 1.193-1.772 2.399-1.75Zm-11.201 9.2c-.018.065-.033.178-.06.178-.065.016-.136-.025-.201-.049.01-.042.023-.116.039-.122.062-.023.138-.014.218-.016l.004.009Zm-6.929 20.078c.042.227-.043.367-.226.466-.451.251-.793.062-1.031-.353-.101-.175-.002-.388.195-.474.372-.162.957.051 1.062.361Zm-2.433.459c.036.511-.477.553-.63.913-.107.236-.282.439-.533.273-.347-.226-.71-.447-.922-.862-.222-.439.033-.771.343-.783.52-.025 1.046.133 1.566.234.068.013.114.142.176.225Zm-5.57-2.87s-.003-.008-.014-.013c-.358.41-.778.522-1.409.308.499-.65.925-.706 1.409-.308.015-.006.023-.029.035-.043a.108.108 0 0 1 .014.053c.107-.002.218.004.325.002-.04.054-.063.15-.105.157-.123.027-.194-.033-.22-.159-.008.003-.016.006-.027 0l-.008.004Zm-1.044 2.484s.015.101 0 .107c-.031.012-.085.033-.111.014-.023-.011-.017-.082-.015-.121.045.002.08-.002.126 0Zm-.685.04c.238.521-.498.843-.543 1.502-.677-.43-1.133-.848-1.474-1.398.168-.347.406-.38.623-.357.48.049 1.144-.294 1.394.253Zm11.681 14.48s.005.202-.042.24c-.204.175-.416-.006-.627.007-.034.004-.083-.026-.211-.074.098-.087.131-.138.165-.142.238-.033.476-.299.711-.02l.004-.011Zm-1.924.554s-.026.088-.046.125c-.046-.002-.1.019-.122-.011-.078-.077-.048-.157.064-.19.031-.012.086.035.1.068l.004.008Zm-5.82 3.425c-.31.606-.787.351-1.291.35.452-.485.796-.841 1.291-.35Zm-58.889 16.141c-.203-.311-.5-.246-.744-.122-.746.384-1.545.175-2.313.295-.253.039-.58-.01-.793-.152-1.861-1.25-3.996-1.703-6.018-2.463-.857-.323-1.332-1.191-2.168-1.443-.457.769-.468.87.208 1.107.668.239 1.274.502 1.806 1.29-2.009.101-3.442-1.265-5.094-1.894-1.765-.684-2.867-2.332-4.61-3.559.95-.219 1.362.264 1.745.574 1.22.971 2.633 1.352 4.042 1.705.678.178 1.284.441 1.896.76l.008-.003c-.059-.308-.326-.663.191-.823.803-.25 1.607-.433 2.446-.279 1.496.282 2.986.253 4.466-.247 1.332-.444 2.64.074 3.937.267 3.116.455 6.234.891 9.398.842.921-.014 2.044-.231 2.826.723.172.216.401.206.633.117.178-.069.387-.256.511-.197 1.591.741 2.98-.377 4.438-.675 3.103-.638 6.204-1.412 9.194-2.552 3.172-1.219 6.39-2.291 9.518-3.698 1.117-.507 2.321-.999 3.587-1.028.508-.011.999-.083 1.48-.307.361-.168.714-.206 1.057.031 1.158.801 2.289.307 3.412-.144 1.502-.597 2.913-1.47 4.457-1.947.405-.126.833-.369 1.204-.151.914.543 1.773.086 2.501-.32.922-.52 1.919-.611 2.85-1.066.059.522-.219.629-.497.843-1.267.983-2.752 1.32-4.161 1.881a40.409 40.409 0 0 0-5.548 2.707c-1.34.788-2.758 1.177-4.37.727-1.961-.55-3.795.301-5.5 1.395-1.987 1.279-4.06 2.377-5.993 3.782a2.815 2.815 0 0 1-2.644.385c-1.269-.447-2.445.005-3.581.53-1.052.492-2.051 1.148-3.039 1.791-.952.619-1.989.764-3.037.817-2.83.135-5.613.64-8.372 1.39-1.823.496-3.712.541-5.577.597-.96.029-1.926.02-2.887.088-.456.03-.899.151-1.326-.093-.163-.385.166-.414.301-.563.254-.293.379-.593.146-.952l.014.034Zm-9.054-1.305c1.106.041 1.554.248 2.284 1.018-1.017.041-1.594-.642-2.284-1.018Zm.818 2.059c-.016.113-.001.253-.048.291-.22.162-.439.09-.632-.069-.082-.066-.065-.218.032-.265.217-.103.439-.11.644.035l.004.008Zm-13.848-13.9c1.012.477 1.318 1.39 1.85 2.032-.88-.274-1.497-.816-1.85-2.032Zm7.047 6.912c-2.016-.023-3.102-1.823-4.941-2.449 1.961-.637 2.213-.51 4.941 2.449Zm-.267-1.396c3.197.367 6.324-.173 9.343.903-.748.356-1.474.703-2.304.507-.58-.137-1.178-.19-1.767-.284-.55-.09-1.076-.014-1.615.222-1.853.829-2.31.664-3.657-1.348Zm9.484-1.719s.056-.08.095-.095c.038-.015.08.018.12.031-.03.032-.055.08-.094.095-.03.012-.08-.018-.121-.031Zm11.559 2.969c1.335-.523 2.668-.987 4.24-.969-.167.347-.217.57-.294.58-1.309.202-2.625.387-3.95.381l.004.008Zm13.304-1.301s.023.011.03.008c.495-.278.994-.586 1.63-.422-.652.776-.668.782-1.63.422l-.046.018s-.008.003-.02-.003c-.85.882-1.74 1.497-3.003 1.427-.873-.043-1.768.33-2.799.551.08-.663.388-.869.762-1.071 1.603-.889 3.234-1.584 5.04-.907.016-.006.02-.017.032-.031l.004.008Zm3.577-1.453c.03-.08.063-.151.103-.225.08-.001.197-.046.233-.002.133.144.004.242-.097.281-.062.024-.151-.039-.231-.057l-.008.003Zm7.952-1.938c1.549-1.569 3.52-1.928 5.656-2.515-.737 1.47-1.942.96-2.805 1.428-.895.48-1.884.715-2.848 1.095l-.003-.008Zm6.228-4.924c2.372-.455 4.577-1.429 6.688-2.776.166.754-.209 1.015-.528 1.089-1.283.308-2.298 1.224-3.405 1.902-1.05.647-1.865.357-2.755-.215Zm9.045-1.97c-.545-.5-1.107-.255-1.667-.516 1.348-.811 2.708-1.041 4.139-.424-.611 1.256-1.634 1.708-2.48.943l.008-.003Zm3.241 2.004c-.71.681-1.502.85-2.48 1.07.948-1.269 1.521-1.509 2.48-1.07Zm-.539-4.823c-.102.098-.249.135-.336-.007-.04-.052-.038-.218.004-.245.107-.089.242-.131.352.001.001.088.031.222-.009.257l-.011-.006Zm1.71 4.548s-.049.184-.099.213c-.183.099-.354.078-.458-.145-.021-.05.051-.156.081-.235.184-.032.363-.014.476.167Zm.592-.004c.57-.735 1.298-1.034 2.089-.803l-2.089.803Zm-44.591 2.608.026-.107.062.083-.077.03-.011-.006ZM31.222 107.53s.014.033.03.047l-.033.051c-.007-.017-.014-.033-.026-.039-.034.004-.038-.005-.014-.033-.017-.042-.017-.042.028-.021l.015-.005.007.016s.004.009.015.014c0 0-.007-.017 0-.02-.28-.407-.459-.893-.278-1.381.384-.984.223-2.022.367-3.021a21.065 21.065 0 0 1 1.859-6.065c.152-.321.345-.61.695-.695.481-.118.825.247.67.754-.611 1.976-1.174 3.963-1.936 5.881-.575 1.447-1.303 2.874-1.372 4.516l-.027.001Zm5.71 16.25c-.977-.481-1.277-1.085-1.06-2.142.729.508.893 1.214 1.06 2.142Zm-1.771-3.25s.005.076.004.116c-.027 0-.07.007-.076-.01-.014-.034-.032-.075-.023-.118.007-.11.045-.105.098.021l-.003-.009Zm-2.175-13.085-.031.012.007.017c.008-.003.015-.006.027-.021l.002.068c-.069.114-.148.076-.102-.049.009-.022.005-.031.01-.042-.015-.034.013-.074 0 0 0 0 .006.017.022.011l.023-.009c.006-.051.07-.047 0 0l.007.016c.008-.002.016-.005.035-.003Zm2.007-12.154c.334-.294.526-.69.723-1.096.156-.332.387-.382.68-.222.341.19.302.458.105.738-.332.468-.495 1.105-1.01 1.352-.278.067-.498.016-.66-.175-.242-.276-.008-.444.161-.597Zm3.615 1.889c-.011-.473.456-.604.734-.837.213-.18.498-.25.754-.368.588-.246 1.09-.166 1.703.114 1.385.635 2.673 1.511 4.107 2.05 1.068.397 1.89 1.384 3.035 1.664.401.099.674.509.816.971.13.436.328.817.598 1.18.74.981.745 2.204.067 3.175-.184.266-.397.231-.599.094-.314-.21-.616-.434-.906-.673-1.813-1.521-3.72-2.88-5.567-4.329-1.24-.973-2.666-1.495-3.944-2.346-.299-.197-.788-.184-.794-.687l-.004-.008Zm15.252 5.168c-.074-.176.017-.298.157-.352.147-.057.26-.003.253-.039.13.349.135.532.022.604-.187.111-.34.005-.42-.207l-.012-.006Zm3.932-.042c-.022-.051.136-.209.241-.259.128-.059.26.017.312.163.052.145.044.294-.01.295-.32.075-.48-.009-.543-.199Zm2.092 2.902c-.135-.425.267-.433.432-.594.25-.155.467-.131.568.151.119.344-.065.589-.333.702-.263.121-.553.096-.667-.259Zm1.454-3.196c-.036-.171.067-.288.213-.305.053-.001.122.118.173.176.01.172-.07.3-.22.309-.061.004-.153-.107-.17-.188l.004.008Zm9.012 4.669c.641.026.901.364 1.224.638-.43.088-.838-.125-1.224-.638Zm3.383-4.696c-.07-.274.141-.453.38-.526.174-.057.359-.089.454.157.025.272-.055.507-.28.613a.368.368 0 0 1-.546-.247l-.008.003Zm3.38 1.862c-.008.003-.02.018-.028.04a.137.137 0 0 1-.055.041c.013-.034.022-.077.034-.111a.093.093 0 0 1-.005-.056.51.51 0 0 1-.011-.025c-1.07.042-1.286-.148-1.386-1.276.605.282 1.174.521 1.386 1.276.015-.006.027 0 .046.002 0 0-.013.054-.022.076.018.042.033.036.056.027l-.015.006Zm1.714 2.348c-.089-.209-.068-.393.12-.523a.456.456 0 0 1 .52-.006c.486.32.753.888.484 1.4-.257.498-.253 1.06-.541 1.59-.612-.213-1.243-.067-1.876-.116.014-.754.453-.651.834-.729.862-.176.875-.229.617-1.2a3.979 3.979 0 0 0-.15-.419l-.008.003Zm4.718-2.456c.003.008.007.016.003.028.009.064.014.14.023.205-.17-.042-.037-.132-.023-.205l-.011-.025-.057-.008c-.356.137-.655.048-.84-.348l-.047.018s-.024-.059-.027-.087c-.015-.013-.038-.024-.053-.038-.007-.017.006-.051.01-.082a.765.765 0 0 1 .038.132c.015.013.03.027.053.038l.01.025c.372-.25.526.265.803.344l.095-.008-.046.018c.015-.006.03.008.05.01l.019-.017Zm.534 3.598c.524-.269.738.086.983.644-1.099.529-2.124.466-3.152.268-.198-.041-.328-.137-.262-.405.048-.184.196-.26.313-.218.75.286 1.438.06 2.118-.289Zm.643-2.348c1.236.39 1.573.932 1.335 2.24-.077-1.031-1.412-1.063-1.335-2.24Zm-53.8 3.658c.484 1.526.14 2.797.202 4.047-.622-1.191-1.105-2.396-.202-4.047Zm161.081-46.878c-.026-1.167.087-2.047-.113-2.923 1.041.971 1.057 1.393.113 2.924Zm9.133-2.908c.102-.418.194-.901.629-.874.552.031 1.25-.17 1.572.612.247.605.403 1.227.307 1.935-.117.872-.076.885-1.082.717.795 1.942 1.104 3.905.65 5.957l-.003-.008c-.001.02-.001.04-.009.042-.078.03-.092-.004-.032-.075 0 0 .026.019.049.03a.069.069 0 0 1 .001-.04c-.072-.361-.203-.67-.495-.87-.332-.232-.632-.175-.772.258-.116.385-.21.8-.212 1.2.008 1.038-.315 2.018-.425 3.034-.081.722-.526 1.243-1.078 1.64-.517-.54-.169-.995.021-1.438.286-.665.578-1.292.066-1.99-.106-.145-.14-.395-.13-.583.251-3.19.156-6.413.954-9.541l-.011-.006Zm-1.971-1.49c.089-.15.245-.142.369-.063.306.193.453.497.355.904-.044.192-.122.368-.279.827-.211-.434-.316-.598-.371-.79-.082-.28-.241-.57-.063-.872l-.011-.005Zm3.81 13.207c.054.213-.058.353-.21.44-.023.01-.13-.115-.154-.193-.037-.151.059-.266.172-.339.068.033.182.047.192.092Zm-.188 2.787c-.812 2.374-1.372 4.876-2.741 6.998-.606 2.606-1.917 4.696-3.741 6.4-.517.48-1.026.977-1.539 1.466.048-.864.552-1.418.92-2.056 1.382-2.39 2.864-4.71 4.182-7.143.997-1.833 1.686-3.84 2.122-5.933.091-.444-.011-1.3.588-1.16.47.111.386.931.212 1.436l-.003-.008Zm-4.575-3.836c-.017-.509.066-.95.584-1.022.18-.02.322.188.307.407-.047.632-.456.643-.891.615Zm-51.075 58.015a5.002 5.002 0 0 0 1.331-.385c1.884-.841 3.874-1.177 5.828-1.725 1.585-.443 3.292-.428 4.765-1.433.446-.307 1.047-.373 1.592-.446 3.12-.431 5.974-1.742 8.761-3.32.059-.032.167.033.379.088-.251.661-.699.94-1.139 1.177-1.318.711-2.634 1.451-3.994 2.042-2.305.993-4.712 1.704-6.939 2.862-1.306.677-2.492.958-3.906.889-1.064-.048-2.113.578-3.095 1.19-1.607 1.007-3.219 2.152-5.09 2.258-1.864.104-3.484 1.057-5.224 1.58-1.308.396-2.616.345-3.923.254-1.597-.116-3.169.08-4.75.279-.548.065-1.091.205-1.628.042-1.293-.398-2.595-.54-3.925-.174-.104.03-.246-.071-.355-.117a.578.578 0 0 1 .402-.709c1.169-.255 1.938-1.328 3.001-1.815 1.024-.471 1.661-1.602 2.661-2.151 1.354-.754 2.687-1.559 4.219-1.7 1.004-.094 1.932-.539 2.935-.72 2.06-.383 4.079-.119 6.104-.012.274.011.734-.029.665.679-.084.907.523 1.491 1.31 1.373l.015-.006Zm5.24-4.135c.489-.334.822-.248 1.163-.272-.312.198-.601.367-1.163.272Zm2.509-.789s.034-.091.065-.123c.087-.072.166-.054.216.063-.017.046-.038.122-.054.128-.076-.009-.151-.039-.235-.065l.008-.003Zm.839-.293c.356-.497.699-.347 1.077-.113-.363.441-.705.417-1.077.113Zm-38.898 20.051c-.668.802-1.386.913-2.387.821.784-.846 1.57-.711 2.387-.821Zm-37.803 11.693c-1.138.35-2.252.418-3.307-.353-.783-.575-1.785-.773-2.41-1.72 2.395.325 4.713-.002 7.052-.386 1.348-.216 2.736-.147 4.099-.262.651-.056 1.262-.164 1.885-.394.56-.206 1.16-.426 1.744-.427 2.57.014 4.525-1.468 6.386-3.214 1.06-1.001 2.188-1.824 3.59-2.101a3.195 3.195 0 0 1 1.36.003c2.297.537 4.522.266 6.725-.649 1.096-.451 2.281-.585 3.308-1.282.133-.09.359-.002.532.194-.275 1.05-.815 1.666-1.888 1.767-.854.086-1.646.594-2.513.801-2.372.581-4.786.721-7.165 1.159-1.16.213-1.186.174-1.213 1.449-.008.597-.396.658-.731.738-1.726.45-3.419 1.042-5.191 1.276-1.611.211-3.059 1.02-4.57 1.64-1.308.542-2.533 1.431-3.986 1.464-.267.006-.631.166-.759-.136-.44-.998-.98-.488-1.58-.248-.48.184-.881.533-1.356.687l-.012-.006Zm17.367-.781c.477.235.766.747 1.216.982 2.928 1.54 5.534 3.72 8.417 5.345 2.115 1.191 4.019 2.735 6.147 4.233-.858.398-1.496.4-2.172-.051-1.917-1.276-3.867-2.482-5.796-3.745-2.041-1.336-4.114-2.64-6.094-4.087-1.455-1.056-2.967-1.992-4.43-3.025-.254-.175-.493-.336-.401-.693.07-.26.316-.316.565-.343.72-.063 1.44-.106 2.075-.604.365-.286.723-.141 1.13.12 3.022 1.952 6.096 3.815 9.101 5.792 1.996 1.315 3.874 2.879 5.907 4.112 1.247.756 2.441 1.581 3.66 2.377.187.123.422.188.445.646-1.268-.232-2.604.077-3.593-1.197-.55-.703-1.361-1.004-2.071-1.47-3.483-2.319-6.982-4.613-10.457-6.934-.856-.576-1.748-1.089-2.486-1.856-.204-.204-.375-.459-.671-.501-.259-.037-.576-.149-.71.234-.09.258.015.568.21.668l.008-.003Zm-16.672 1.827c.207-.468.709-.408.984-.757.128-.166.326-.145.449.061.12.197.066.432-.08.536-.417.287-.849.628-1.345.157l-.008.003Zm108.42-3.555c-.42.453-.66 1.119-1.051 1.62-.85 1.095-1.908 1.911-3.039 2.618-.304.195-.564.304-.838-.067-.308-.407-.249-.799.115-1.046 1.524-1.053 2.503-2.821 4.087-3.819.597-.375 1.083-1.097 1.444-1.839.438-.898 1.013-1.664 1.911-2.116-.84 1.587-1.41 3.343-2.626 4.657l-.003-.008Zm8.24-12.731c-.743 2.134-1.618 4.212-2.414 6.327-.507 1.353-1.585 2.205-2.281 3.387-.138.228-.426.164-.619.005-.249-.206-.117-.51-.004-.69.575-.872.918-1.89 1.418-2.792 1.542-2.733 2.757-5.642 3.995-8.541.079-.176.143-.385.451-.465.093 1.005-.262 1.91-.557 2.763l.011.006Zm.791-4.04s-.04.054-.064.083l.021.05c-.016.006-.023.009-.035.004.03.134.049.263-.095.348-.016.006-.086-.055-.093-.091-.028-.174.047-.252.181-.254l-.011-.025c.008-.003.008-.023.024-.029-.032-.075-.038-.132.025-.175.014.033.047.069.035.084l.012.005Zm17.131-72.566c.045.489.186.97.334 1.448.547 1.823.76 3.686.391 5.599-.164.822-.438 2.173-.512 3.018-.265 2.923-1.083 5.709-2.174 8.337-.814 1.967-1.906 3.787-3.227 5.492-1.607 2.067-3.674 3.582-5.137 5.779-1.693 2.547-3.863 4.54-6.193 6.282-1.786 1.328-3.159 3.101-4.547 4.88-1.755 2.251-3.54 4.475-5.597 6.394-.359.342-.701.766-.334 1.315.408.602.901.364 1.329-.005 2.036-1.736 3.707-3.867 5.294-6.092a19.326 19.326 0 0 1 2.938-3.26c.228-.204.436-.586.931-.329-.143.639-.458 1.256-.526 1.944-.033.285-.185.606-.555.496-.639-.193-.858.29-1.149.792-.527.902-.901 1.931-.959 3.005-.077 1.265-.518 2.495-.686 3.756-.468 3.4-.909 6.799-1.301 10.209-.096.815-.395 1.553-.457 2.384-.063.851-.743 1.2-1.47 1.606-.145-1.043.231-1.898.487-2.716.726-2.303.939-4.71 1.361-7.071.164-.909.535-1.753.608-2.685.029-.4.178-.876-.361-.98-.432-.087-.507.331-.637.663-.349.854-.429 1.79-.646 2.68-.102.419-.21.801-.655.875-.262.042-.54.276-.767-.026-.168-.227-.061-.483.047-.719.165-.374.311-.752.291-1.182-.022-.39-.148-.731-.496-.831-.401-.118-.596.229-.691.577-.258.985-.543 1.97-.702 2.975-.117.745-.626 1.116-.979 1.641-.169.259-.291.034-.441-.064-.258-.164-.488-.026-.494.278-.014 1.581-.89 2.657-1.729 3.758-.208.274-.233.683-.545.881-.416-.22-.071-.508-.04-.754.042-.347-.021-.624-.335-.727-.302-.098-.536.051-.706.33-.388.655-.718 1.385-.747 2.145-.076 1.839-1.152 2.846-2.347 3.763-.796.607-1.632 1.162-2.438 1.744-.152.108-.32.221-.425.378-.212.305-.611.595-.39 1.055.232.484.654.439 1.09.32 1.106-.299 1.95-1.129 2.914-1.723.269-.172.488-.441.814-.498l-.01-.025.031-.012c.004-.138-.154.039-.028-.087.02-.017.07-.046.077-.03.04.073.02.11-.054.128.004.008.008.017-.004.031l-.024.009c.415.852.031 1.73-.11 2.523-.236 1.356.422 2.251.891 3.316.325-1.507.91-2.929.787-4.496-.011-.152-.002-.301.003-.459.049-1.224.946-2.25.664-3.553.637-.643.794-1.716 1.672-2.277.168 1.862-.476 3.53-.77 5.258-.038.248-.146.484-.222.727-.099.32-.099.68.207.787.389.132.396-.318.473-.581.312-1.006.602-2.022.904-3.072.146.09.274.138.273.177-.125 2.403-.156 4.837-2.359 6.307-.562.372-.584.915-.212 1.433.347.48.704.537 1.165.117.827-.746 1.664-1.447 2.166-2.555.576-1.253 1.587-2.138 2.357-3.231.938-1.334 1.838-2.692 3.014-3.805.603-.572.951-1.387.282-2.288-.231-.31-.182-.747-.038-1.172a27.028 27.028 0 0 0 1.293-5.935c.183-1.715.718-3.361.749-5.094.002-.273.088-.706.185-.966.413-1.044.651-2.118.772-3.255.068-.648.097-1.428 1.057-2.031-.571 2.924-.722 5.541-1.229 8.168-.428 2.198-.689 4.429-.908 6.653-.237 2.417-.959 4.727-1.249 7.145.461.027.551-.251.592-.471.173-1.059.489-2.076.764-3.105.756-2.889 1.281-5.815 1.666-8.794.374-2.858 1.063-5.671 1.6-8.505.184-.946.376-1.895.282-2.881a2.504 2.504 0 0 1 .401-1.603c.209-.334.202-.671.187-1.026-.027-.359-.737-.592-.261-.999.585-.487.941-1.325 1.719-1.507.465-.11.551.304.508.67a26.6 26.6 0 0 1-.423 2.401c-.324 1.379-.698 2.749-1.042 4.126-.845 3.38-1.049 6.873-1.659 10.299-.28 1.547-.519 3.108-.777 4.667-.32 1.942-1.113 3.725-1.364 5.68-.031.226-.06.412.159.503.263.113.56.155.746-.15a4.37 4.37 0 0 0 .569-1.396c.31-1.394.699-2.769.933-4.172.181-1.101.604-2.101.834-3.172.19-.89.479-1.76.662-2.667.342-1.698.7-3.402 1.236-5.028.561-1.714.666-3.505.938-5.264.483-3.065 1.19-6.07 1.825-9.097.054-.255.064-.55.204-.73 1.29-1.713 2.68-3.317 4.403-4.602-1.011 1.605-.702 3.568-1.335 5.26a2.145 2.145 0 0 0-.135.743c.061 2.526-.365 5.005-.763 7.464-.302 1.857-.889 3.659-1.351 5.48-.658 2.589-1.446 5.148-1.483 7.887a2.062 2.062 0 0 1-.151.748c-.617 1.58-.836 3.338-1.597 4.856-.188.384-.465 1.025-.556 1.449-.324 1.594-.572 3.217-.987 4.787-.293 1.115-.715 2.221-1.728 3.145.26-1.491.597-2.778.861-4.086-.8.872-1.007 2.041-1.366 3.084-.372 1.096-.799 2.087-1.378 3.078-.769 1.327-1.282 2.838-1.955 4.244-.713 1.481-1.498 2.921-2.223 4.396-.553 1.118-1.492 1.81-2.266 2.681-1.269 1.422-2.324 3.053-3.59 4.484-1.77 2.003-3.669 3.764-5.868 5.223-2.003 1.324-4.165 2.36-6.039 3.946-.601.514-1.32.77-1.989 1.018-2.967 1.111-5.64 2.956-8.508 4.302-1.594.739-3.301 1.191-4.955 1.769-.962.34-1.94.58-2.844 1.229-1.487 1.078-3.163 1.751-4.841 2.358-.348.133-.689.284-1.061.086-.323-.167-.805-.245-1.131-.08-2.536 1.237-5.199 1.852-7.899 2.404-1.342.273-2.659.731-3.99 1.116-1.103.326-2.194.619-3.352.666-.761.03-1.522.38-2.257.663-1.408.541-2.92.413-4.333.965-.804.31-1.672.322-2.506.157-.904-.179-1.84-.393-2.726-.149-.644.179-.722-.579-1.135-.556-.379.019-.15.836-.814.799-1.548-.086-3.184.32-4.637-.095-1.147-.327-2.326-.137-3.418-.592-.437-.183-.841-.095-1.06.407-.261.596-.601.494-1.013.263-1.017-.553-2-1.196-3.23-.976-.308.06-.691-.25-.993-.475-1.462-1.053-2.958-2.015-4.527-2.851-.871-.463-1.539-1.277-2.214-2-1.63-1.747-3.633-2.864-5.437-4.32-1.953-1.575-4.023-2.978-5.935-4.626-1.006-.868-2.162-1.494-3.116-2.45-.262-.259-.622-.578-1.075-.521-.212.646.403.867.445 1.327.007.017.026.019.033.036l.022.05c.64-.1.866.581 1.284.888 2.734 1.994 5.415 4.076 8.217 5.957.602.401 1.138.944 1.806 1.504-.797.326-1.306-.111-1.757-.453-1.535-1.142-3.072-2.263-4.79-3.091-.778-.372-1.41-1.034-1.959-1.757-.549-.723-1.24-1.294-1.929-1.836-.417-.327-.737-.68-.88-1.229-.015.006-.026.001-.042.007.005-.031-.005-.056-.008-.084-.882-.829-2.069-1.209-2.858-2.394 1.317-.565 2.582-.808 3.881-.948.36-.041.602.061.873.297.678.605 1.425 1.116 2.06 1.767 2.092 2.134 4.427 3.931 6.826 5.558 2.559 1.73 5.003 3.699 7.757 5.082.661.33 1.235.858 1.859 1.29.609.417 1.225.832 1.938 1.006.189-.53-.191-.578-.385-.718-1.22-.883-2.416-1.795-3.721-2.519-.972-.532-2.476-1.578-3.375-2.234-2.44-1.767-4.875-3.525-7.259-5.372-1.75-1.351-3.416-2.841-5.09-4.308-.23-.204-.809-.254-.575-.849.138-.355.486-.489.804-.524.353-.038.817-.109.962.36.529 1.801 2.14 2.164 3.303 3.147 1.434 1.22 3.05 2.145 4.657 3.074 3.463 1.996 6.476 4.797 9.793 7.044 1.21.819 2.292 1.843 3.478 2.71.376.273.792.299 1.232.168-1.13-1.073-2.469-1.814-3.683-2.748a512.117 512.117 0 0 0-9.995-7.501c-1.593-1.168-3.355-2.057-4.895-3.294-1.153-.918-2.653-1.421-3.323-3.11 1.208-.61 2.585-.672 3.767-1.409a.268.268 0 0 1 .335.027c2.661 2.46 5.728 4.199 8.664 6.184 2.369 1.599 4.856 2.968 7.267 4.882-.787.244-1.374.197-1.903-.203-1.501-1.144-3.251-1.814-4.733-2.976-2.085-1.631-4.433-2.693-6.658-4.017-.603-.362-1.186-.741-1.684-1.279-.534-.582-1.207-.791-2.096-.702.426.858 1.066 1.244 1.624 1.691 1.031.82 2.24 1.318 3.121 2.4.246.304.754.313 1.118.514 2.57 1.415 5.037 3.015 7.459 4.72 1.717 1.208 3.701 1.983 5.238 3.551.857.877 1.866 1.56 3.012 1.761.555.098 1.219 1.03 1.922.438.035-.13.005-.031.028-.02.015-.006.023-.009.035-.023-1.878-1.312-3.763-2.62-5.72-3.989.906-.688 1.684-.316 2.393.082 2.23 1.274 4.411 2.643 6.65 3.894.709.399 1.201 1.114 1.931 1.437.2.088.437.289.589-.032.147-.29-.064-.491-.262-.62-2.298-1.538-4.589-3.061-7.018-4.676.993.008 1.886-.326 2.672.403.178.165.482.204.609-.049.249-.495.597-.268.95-.307 1.587-.182 2.788.679 3.979 1.642.29.239.615.435.929.645.187.122.421.334.577.002.132-.284-.107-.465-.289-.619-.401-.352-1.021-.434-1.154-1.132.406-.38.799-.132 1.065.028 1.849 1.138 3.725.66 5.599.114.929-.269 1.813-.668 2.8-.804.725-.093 1.373-.751 2.076-1.109a4.228 4.228 0 0 1 2.517-.452c1.563.207 3.119.143 4.612-.304 1.134-.339 2.187-.063 3.233.07 1.495.194 2.646-.424 3.587-1.515.608-.71 1.322-1.17 2.058-1.492 1.256-.541 2.57-1.007 3.77-1.615 1.682-.851 3.271-.839 5.025-.861 1.601-.022 3.227-.579 4.673-1.904 1.631-1.502 3.491-2.762 5.412-3.812a25.23 25.23 0 0 0 2.396-1.524c2.331-1.636 4.871-2.69 7.481-3.538 1.645-.535 3.179-1.31 4.659-2.278.914-.604 1.439-1.574 2.082-2.435.152-.194.222-.474-.023-.671-.246-.198-.432 0-.602.172-.655.642-1.215 1.382-1.959 1.94-1.679 1.24-3.493 2.014-5.456 2.584a21.271 21.271 0 0 0-6.4 3.074c-1.4.985-2.858 1.877-4.237 2.913-.756.573-1.526 1.219-2.478 1.498-.552.163-1.005.687-1.466 1.127-1.708 1.62-3.699 2.016-5.802 1.491-.977-.247-1.762.152-2.455.662-.787.585-1.616.836-2.486 1.16-1.617.602-3.312 1.167-4.645 2.438-1.192 1.139-2.46 1.48-3.955 1.092-1.14-.291-2.284.09-3.411.232-1.155.142-2.283.07-3.42.04-1.115-.019-2.173.096-3.214.633-1.558.803-3.249 1.122-4.872 1.688-.391.14-.792.275-1.169.449-.9.424-1.83.373-2.698-.062-1.409-.713-2.918-.921-4.471-.742-.533.059-.924-.248-1.319-.524-3.72-2.559-7.423-5.144-11.163-7.665-2.455-1.654-4.961-3.24-7.472-4.794-.502-.313-.86-.711-1.247-1.223 1.32-1.023 2.802-1.457 4.282-1.87a.638.638 0 0 1 .591.142c1.623 1.41 3.527 2.147 5.472 2.829.94.33 1.91.667 2.76 1.313 1.277.978 2.804 1.481 4.081 2.478.108.085.266.141.374-.008.125-.174.162-.383-.004-.543-.237-.239-.465-.502-.742-.668-2.293-1.356-4.511-2.877-6.972-3.886-1.1-.453-2.124-1.149-3.365-1.829.964-.527 1.771-.322 2.387.006 1.824.952 3.76 1.551 5.641 2.316.542.22 1.02.668 1.757.687-.12-.771-.578-1.004-1.058-1.267-1.344-.729-2.793-1.241-4.059-2.594 1.417-.437 2.572-1.407 4.056-.45 1.014.651 2.196.936 3.257 1.55.914.524 1.996.847 3.386.517-1.974-1.537-4.024-2.237-5.918-3.309.196-.493.529-.621.884-.738.996-.325 1.982-.675 2.981-.971.463-.139.787-.585.812-1.12.057-1.608.375-.922 3.134-1.672 1.445-.39 2.928-.415 4.407-.429.898-.005 1.478-.695 1.94-1.495.106-.197.098-.408-.086-.522a.52.52 0 0 0-.388-.045c-.116.044-.227.165-.326.271-.66.779-1.525.946-2.407.945-2.013.005-4.016.182-5.992.659-.181.041-.377.107-.536.051-.325-.109-.644-.268-.255-.729 1.034-1.234 1.924-2.617 3.187-3.609.513-.402 1.093-.478 1.656-.636.937-.273 1.863-.571 2.7-1.165.873-.618 1.909-.783 2.92-.607.755.128 1.519.146 2.268.364 1.036.302 2.086-.151 3.122-.276a11.677 11.677 0 0 1 3.006.002c.483.057.978-.007 1.451-.014.082.319-.096.495-.246.523-2.693.461-5.317 1.383-8.025 1.743-1.312.174-2.682.827-3.526 1.638.218.451.476.04.698.013 2.169-.318 4.334-.664 6.496-.999 1.42-.215 2.642-1.113 4.046-1.409 1.23-.259 2.457-.614 3.527-1.337.625-.415 1.365-.388 1.834-1.065.321-.454 1.066-.818 1.573-.877 2.096-.212 4.125-.817 5.834-2.243 1.626-1.364 3.442-1.518 5.327-1.484 1.233.022 2.435.056 3.621-.584.673-.366 1.519-.429 2.28-.439.997-.004 1.761-.473 2.363-1.239.706-.904 1.645-1.557 2.627-2.041 2.621-1.31 5.216-2.726 7.695-4.35 1.359-.892 2.376-2.421 3.974-2.939 1.305-1.785 3.313-2.353 4.946-3.574.987-.73 1.204-1.64 1.511-2.722-.537-.036-.668.462-.972.656-.156.099-.338.266-.496.084-.228-.263-.015-.461.144-.639.226-.252.481-.477.722-.715.32-.308.572-.668.646-1.153.059-.393.318-.843-.105-1.098-.449-.275-.986-.458-1.407.035-.473.561-.95 1.114-1.253 1.843-.997 2.446-2.88 3.695-6.298 3.356-1.946-.196-3.415 1.39-3.944 3.5-.123.495-.533.653-.894.84-2.187 1.104-4.483 1.802-6.774 2.575.565-.771 1.467-.807 2.175-1.303 1.244-.887 2.553-1.682 3.938-2.302.694-.315 1.765-.951 2.381-1.431 1.886-1.474 3.925-2.608 5.993-3.695.206-.108.469-.209.578-.397 1-1.825 2.854-2.547 4.147-4.017 1.108-1.253 2.147-2.538 3.02-3.982.848-1.397 1.768-2.752 2.441-4.285.195-.455.55-.805.905-1.156.411-.41.992-.527 1.266-.282.638.572 1.022.161 1.366-.282 1.284-1.642 3.157-2.255 4.675-3.47.063-.044.172.001.527.01-2.568 3.03-5.131 5.796-7.89 8.735.846.151 1.333-.25 1.655-.617 1.165-1.285 2.515-2.241 3.876-3.212.505-.36 1.029-.63.959-1.497-.032-.416.378-.7.661-.945 1.491-1.303 2.492-3.147 3.976-4.486.496-.444.727-1.301 1.252-1.824.178-.175.43-.302.615-.1.18.193.146.537-.028.701-.789.77-1.146 1.968-2.135 2.563-.468.277-.811.827-1.185 1.282a36.45 36.45 0 0 1-2.765 2.99c.528.419.546-.113.715-.246.678-.524 1.284-1.195 2.002-1.626 2.138-1.26 3.655-3.225 5.028-5.377.162-.257.33-.497.495-.745.709-1.129 1.474-2.172 1.799-3.591.371-1.611 1.686-2.691 2.357-4.146 1.07-2.318 2.757-4.24 3.445-6.801.122-.456.179-.896.182-1.355.005-.264-.074-.535-.331-.592-.296-.061-.436.226-.421.473.079 2.12-1.463 3.345-2.165 5.045-1.007-.722-.943-.698-.64-1.768a21.78 21.78 0 0 0 .82-4.8c.064-1.124.188-2.232.08-3.358-.045-.469-.065-.919-.548-1.55.187 4.5-.29 8.643-1.705 12.612-.35-.04-.276-.546-.596-.579-.941 1.218-1.351 2.738-1.853 4.186a6.703 6.703 0 0 1-2.079 3.017c-1.559 1.29-2.988 2.696-4.243 4.365-.579.777-1.21 1.73-2.367 1.465-.092-.665.249-1.05.581-1.371 1.12-1.073 2.033-2.358 3.031-3.55 1.432-1.717 2.334-3.796 3.404-5.773.618-1.133 1.078-2.341 1.836-3.42 1.331-1.894 1.825-4.253 2.189-6.602.078-.496-.375-.44-.655-.526-.007.003-.008.023-.012.034.165.326.077.67.005.99-.384 1.685-1.35 3.058-2.039 4.598a27.98 27.98 0 0 1 2.034-5.588l-.021-.05s.022.01.03.008c.18-1.169.514-2.27 1.232-3.188.176-.224.342-.511.401-.797.301-1.35.885-2.606 1.068-4 .037-.316.063-.618-.058-.902a.771.771 0 0 0-.656-.487c-.255-.029-.415.188-.53.427-.069.134-.177.282-.174.417.059 1.456-.809 2.744-.617 4.217.073.555-.071.98-.433 1.314-.611-.232-.32-1.307-.907-1.227-.591.09-.622.91-.842 1.452-.051.136-.127.253-.283.566-.444-2.135-.961-4.077-.713-6.147.106-.877-.179-1.847.53-2.597.094-.094.063-.403.011-.588-.071-.274-.061-.677-.408-.69-.397-.022-.137.55-.463.694-.222-1.12-.687-1.963-1.846-2.024-.469-.024-.702-.362-.726-.927-.023-.565-.058-1.116.052-1.684.115-.579-.155-.962-.624-1.219-.472-.266-.777-.178-.935.428-.166.647-.302 1.283-.213 1.96.037.257-.031.566-.23.69-.269.172-.522-.022-.741-.22-.301-.264-.53-.594-.543-1.027-.032-1.204-.615-2.303-.31-3.559-1.187-1.06-1.386-2.764-2.303-4.037-.825-1.142-1.706-2.224-2.571-3.33-1.161-1.49-2.425-2.882-3.626-4.337a2.218 2.218 0 0 0-.778-.605c-.658-.302-1.097.022-1.062.807.023.458.1.915.18 1.36.058.328.28.661.557.487.593-.364.8.082 1.124.443 1.303 1.464 2.65 2.902 3.965 4.352.155.174.25.42.373.625.634 1.05 1.185 2.162 1.928 3.13.378.488.726 1.055.647 1.825-.377.193-.897-.142-1.2.46-.22.436-.599.114-.838-.066-.925-.656-1.884-1.241-2.797-1.911-1.056-.772-1.633-2.009-1.928-3.384-.073-.322.083-.781-.385-.825-.328-.03-.403.3-.543.588-.288.617-1.122.791-2.033.51-.681-.206-.85-.88-.686-1.45.189-.636-.011-.812-.364-1.221-1.78-2.079-3.948-3.61-5.956-5.377a9.608 9.608 0 0 0-4.325-2.16c-1.82-.39-3.602-1.028-5.486-1.102-1.114-.038-2.084-.736-3.14-1.04-1.713-.499-3.349-1.28-4.936-2.16-.067-.032-.086-.16-.169-.314.531-.573 1.413-.445 1.73-.207.532.408.797.267 1.178-.064.229-.205.483-.283.77-.286.225 0 .534.028.668-.121 1.45-1.57 3.128-.453 4.687-.576.712-.06 1.446.29 2.169.256 1.216-.06 2.228.525 3.254 1.035 2.165 1.055 4.322 2.133 6.309 3.596.157.115.427.264.604.323 2.245.732 4.648.587 6.85 1.56.93.41 1.855.852 2.835 1.127.837.233 1.38 1.007 1.907 1.7.498.664 1.108 1.043 1.798 1.313.999.384 1.93.863 2.748 1.667.669.667 1.472 1.224 2.452 1.139 1.311-.114 2.161.746 2.774 1.813 1.083 1.9 2.695 3.05 4.347 4.254.957 2.025 2.459 3.598 3.518 5.545.932 1.714 1.711 3.467 1.91 5.511l-.005.158Zm-26.44 64.392c.308-1.908.627-3.811 1.021-5.684.249-1.176.387-2.445 1.286-3.316.198-.193.391-.501.701-.299.225.147.18.446.142.695-.36 2.784-.666 5.568-1.28 8.304a1.58 1.58 0 0 1-.236.548c-.78 1.068-1.442 2.247-2.546 3.421.107-1.511.725-2.517.908-3.677l.004.008Zm-1.33.132c-.3-1.071-.065-2.066.429-3.025.053 1.04.084 2.069-.429 3.025Zm.779-4.492-.056.206-.002-.047c.013-.054.037-.103.051-.156l.007-.003Zm21.094-42.744c-.186-.483.097-.747.432-.934.152-.088.341-.131.478.108.053.466-.264.695-.561.906-.075.058-.317-.005-.349-.08Z" fill="#66462C" fill-opacity=".1"/><path d="M169.384 64.377c-.046.573.243.958.533 1.343-.195-.46-.386-.913-.53-1.402.007.016-.002.04-.006.05l.003.009Zm-3.29 7.842c.219.432.529.78.847 1.105l-.847-1.105ZM48.667 132.628c-.078.01-.145.026-.223.036l.226-.028-.003-.008Zm86.642-25.867-.05-.118a.538.538 0 0 0-.422-.207c-.031.012-.062.024-.101.019.222.032.41.135.573.306ZM170.087 44l.017-.018-.021.008.004.01ZM145.26 92.662l-.008-.019-.043.017s.008.019.051.002Zm-68.17 11.079-.035.025.039-.015-.005-.01Zm110.172 18.735s.001-.044.006-.056l-.006.056ZM32.923 107.441s-.023.028-.02.037l.054-.021c-.008.003-.016.006-.027.001l-.007-.017Zm-1.714.135.02.047s-.012-.028-.011-.05l-.009.003Zm-.001-.037s-.003-.009-.016-.015c-.009.003-.026.01-.03.022 0 0 .01.028.015.037l.026-.009c-.004-.01-.012-.028-.007-.041l.012.006Zm150.526 21.85-.009-.022-.01.004.019.018Zm-99.089-26.013-.028.054.028-.054Zm54.876 9.286-.009.022c-.004.011 0 .019-.005.031l.044-.046s-.034-.015-.03-.007ZM50.819 86.104c1.662.207 3.232 1.005 4.992.571 2.861-.7 5.532.442 8.146 1.432 1.105.421 2.204.913 3.344 1.204 1.457.384 2.742.016 3.59-1.506.752-1.35 1.514-2.694 2.026-4.204.326-.952-.004-1.944.281-2.949 2.372.353 4.679.936 7.04 1.244 1.206.149 2.717.103 2.995 2.078.009.085.113.161.176.225.848.792 1.14 1.993 1.92 3.046-1.013.117-1.837.103-2.623.308-1.961.51-3.954.372-5.919.514-1.554.111-3.075.385-4.603.622-.311.052-.851-.14-.861.497-.005.604.464.862.903.985.238.074.534-.079.807-.135 2.256-.43 4.494-.988 6.806-.797.754.06 1.561-.095 2.278-.273 1.517-.369 3.043-.547 4.574-.776 1.44-.213 2.882-.397 4.328-.594.3-.037.584-.108.518-.52-.057-.347-.34-.229-.563-.202a18.46 18.46 0 0 1-2.045.164c-2.014.045-2.012.092-2.293-2.378.49.201.934.167 1.433-.015.56-.206.648.723 1.166.884.771.248.994.221 1.315-.72.174-.524.46-.594.863-.448.359.125.668.366.882.702.334.513.578.644 1.073.113.412-.43 1.016-.81 1.5.056.173.303.483.164.757.088.289-.082.487-.528.883-.272.011.132.037.278.028.427-.017.513-.132 1.092.486 1.254.575.148.691-.578 1.085-.816.085-.053.124-.281.125-.428.007-.79.585-1.061 1.027-.93.95.267 1.819-.252 2.711-.186.865.067 1.489-.222 1.933-1.064.11-.208.245-.464.534-.313.119.198.048.39.015.588-.086.5-.025.983.455 1.139.566.19.81-.253.977-.794.187-.578.453-1.118.645-1.708.412-1.257.837-2.55 1.949-3.366.217.598.195 1.141.107 1.7-.033.198.102.39.29.472.189.084.355.01.483-.156.367-.472.684-.934.699-1.621.039-1.63-.517-3.07-.98-4.546-.179-.573-.631-.535-1.03-.266-.18.128-.31.373-.443.57-.341.51-.663.43-1.021.032-.202-.224-.28-.514-.413-.785-.584-1.166-.894-1.154-1.564.047-.069.134-.153.254-.326.525-.52-.443-1.182-.178-1.557-.745-.483-.738-1.278-.958-1.895-1.48-.29-.238-.625-.392-1.034-.273-.71.214-1.447.322-2.135.587-1.598.624-3.238.428-4.84.382-1.684-.043-3.358-.45-5.026-.733-.532-.088-.986.029-1.467.252-.73.34-1.263 1.011-1.938 1.417-1.726 1.023-2.487 2.668-2.442 4.791.014.608.016 1.23.195 1.822.172.576-.163.763-.6.688-.949-.16-1.887-.315-2.845-.453-2.361-.328-4.628-1.09-6.817-2.117a1.15 1.15 0 0 1-.231-.164c-1.197-1-2.61-1.468-4.008-1.903-1.233-.382-2.484-.68-3.626-1.36-.757-.448-1.55-.58-2.387-.22-1.438.621-2.874.735-4.41.382-.966-.222-2.042-.149-2.968.382-1.332.765-2.482 1.918-3.992 2.303-.22.056-.455.37-.448.727.004.456.341.55.622.724.509.31.974-.248 1.523-.099-.096 1.175.729 1.763 1.362 2.473-.785.652-.825.94-.263 1.61.327.39.748.577 1.187.72.283.096.631.069.691.57-.736.216-1.423.315-2.154-.008-.5-.226-1.064-.281-1.601-.425-.428-.118-.884-.176-1.022.412-.13.546.233.913.67.968l-.005.051Zm56.876-8.888s.1 0 .103.01c.03.134-.014.18-.107.108-.014-.014.003-.079.004-.118Zm-1.943.553c.303.418.001.768-.23 1.07-.136.19-.437.14-.442-.044-.004-.903-.73-1.363-1.058-2.18 1.07-.256 1.321.59 1.73 1.154Zm-1.012 2.305c.101-.165.331-.088.419.14.097.654-.219 1.184-.432 1.743-.017.045-.17.065-.242.044-.075-.03-.187-.123-.189-.19a3.293 3.293 0 0 1 .436-1.734l.008-.003Zm-3.62-.028c-.792-.766-.96-1.46-.968-2.479.8.636 1.173 1.242.968 2.479Zm-3.044-5.426c.18-.274.461-.314.746-.278.35.041.513.319.388.64-.167.414.25.76.073 1.149-.58.077-.667-.513-.96-.78-.204-.183-.488-.366-.24-.734l-.007.003Zm-1.83 3.69c-.068.114-.149.115-.206.001-.083-.153-.01-.258.11-.334.065.024.132.056.196.08-.037.083-.051.176-.1.253Zm-1.362-3.26c.398-.144.515.258.63.594.052.272.242.636-.113.753-.363.12-.55-.236-.66-.582-.094-.285-.186-.65.15-.769l-.007.003Zm.271 5.294c.11-.188.277-.281.458-.195.29.132.368.423.334.747-.027.234.079.505-.157.693-.263.1-.396-.15-.559-.301-.296-.275-.255-.602-.064-.938l-.012-.006Zm-24.799 4.242c-.131.05-.266-.034-.295-.208-.057-.347-.044-.722.174-.971.115-.132.314.083.395.295.02.323.118.704-.274.884Zm-2.271-5.45c-.001-.195.039-.376.307-.4.862-.07 2.93 1.393 3.208 2.307.13.349.11.707.034 1.057-.07.3-.151.642-.411.771-.315.15-.506-.175-.655-.4a11.581 11.581 0 0 0-2.147-2.52 1.066 1.066 0 0 1-.333-.807l-.003-.009Zm1.377 6.63c.102.01.252.108.287.211.056.134-.036.277-.21.334-.115.005-.207-.086-.233-.232-.026-.146-.02-.323.156-.313Zm-6.138-9.12c.87.376 1.66.967 2.598 1.249-.3.63-.647.492-.98.319-.579-.304-1.137-.624-1.716-.927-.24-.122-.57-.306-.705.076-.54 1.404-.922.16-1.414.019.825-1.028 1.204-1.173 2.225-.739l-.008.003Zm-.6 5.68.052-.196-.008.003s.012-.014.02-.037c0 0 .009-.023.005-.031l.023.01.014.034c.284.416.798.569.995 1.077.015.033-.006.09-.015.132-.767-.28-.81-.32-.98-1.209l-.01-.025c-.03.08-.063.15-.085.227l-.012.014Zm1.245 4.492s.019.002.026 0l.023.01c.171-.212.369-.404.499-.649.354-.652.953-.62 1.277-.257.45.488.99.66 1.484.976.186.123.39.327.32.607-.067.288-.301.31-.542.315-1.108-.002-2.111-.375-3.046-.989-.015.006-.024.029-.036.043l.014-.054s-.014.054-.006.051l-.021-.05c-.63-.02-1.192-.35-1.785-.54-.23-.077-.477-.235-.396-.51.092-.336.411-.41.686-.292.626.265 1.266.525 1.487 1.345l.016-.006Zm-4.03-9.474s.12.197.096.226c-.199.252-.449.3-.864.148.245-.357.488-.441.769-.374Zm1.596 5.915c-.608-.006-1.152-.397-1.63-1.173.771.121 1.292.437 1.63 1.173Zm-5.028-6.181c.305.019.747-.044.64.493-.07.407.08 1.079-.7 1-.94-.096-.95-.034-1.367 1.362-.423-.743-.73-1.277-1.047-1.836.722-.802 1.552-1.073 2.478-1.01l-.004-.009Zm-3.543 2.384c-.189.043-.354-.05-.4-.265-.053-.232.115-.346.285-.41.209-.081.318.071.385.25.037.258-.09.384-.27.425Z" fill="#66462C" fill-opacity=".1"/><path d="m62.803 82.096.011-.03-.02.008.01.022Zm22.963 61.349c.838-.273 1.697-.39 2.574-.444 2.56-.138 5.04-.761 7.43-1.855 1.477-.675 3.01-1.157 4.619-1.202.382-.01.733-.116 1.067-.283 1.084-.563 2.254-.838 3.366-1.294.394-.152.768-.354 1.152-.531.182-.08.323-.192.259-.45-.085-.307-.287-.317-.537-.29-.559.06-.949.541-1.501.704-2.125.632-4.282 1.063-6.423 1.574-1.013.244-1.988.638-3.023.851-.811.166-1.588.689-2.451.904-2.195.532-4.435.703-6.64 1.19-1.981.441-3.98.587-5.978.265-1.866-.304-3.693-.263-5.545.313-1.601.489-3.147 1.132-4.72 1.708-.673.239-1.297.294-2.01.12-1.791-.449-3.597-.485-5.41.076-.741.227-1.537.28-2.322.212-2.765-.241-5.321-1.369-7.953-2.167-1.766-.537-3.447-1.341-5.128-2.124-.583-.272-1.316-.409-1.688-1.394 1.702.046 3.242.154 4.725.79.086-.519-.647-.529-.326-1.09.373-.649-.099-.828-.521-.87-.4-.031-.82.062-1.223.13-.715.119-1.362-.051-1.98-.426-1.913-1.162-3.879-2.235-5.715-3.533-1.437-1.014-2.997-2-3.458-4.129-.13-.582-.574-.995-1.172-1.261-.39 1.181.27 2.085.485 2.995-1.216.72-1.997.086-2.697-.802-.56-.709-1.158-1.355-1.983-1.816.018.703.421.996.726 1.355.852 1.035 1.878 1.886 2.449 3.233.265.627.705 1.431 1.444 1.478 1.186.059 2.037.773 2.918 1.495 1.972 1.596 4.433 2.138 6.448 3.669 1.207.918 2.788.952 4.019 1.948-.16.538-.568.656-.8.979-.177.243-.398.484-.268.813.133.357.435.582.752.586.31.008.701-.065.907-.28.562-.586 1.147-.5 1.786-.308.84.261 1.693.449 2.52.724 3.306 1.094 6.617 1.796 10.09.753.852-.26 1.864-.357 2.71.047 1.782.852 3.438.216 5.044-.538 2.716-1.278 5.473-1.949 8.428-1.577 1.845.235 3.731.356 5.577-.237l-.023-.011Zm-41.605-5.447c-.097.301-.38.205-.602.213-.67.033-1.238-.352-1.83-.581-2.074-.798-3.736-2.28-4.834-4.3.807.079 1.093.903 1.662 1.248 1.673 1.04 3.325 2.117 5.15 2.816.227.088.595.171.459.593l-.005.011Zm14.432-65.215c2.369-.93 4.528-2.373 6.948-3.479-.345 1.544-1.01 2.734-2.023 3.678-.355.33-.627.708-.41 1.178.227.516.686.622 1.185.42.086-.032.182-.06.264-.1 1.418-.75 2.835-.634 4.248-.039.283.115.556.166.738-.147.26-.47.672-.453 1.08-.552.67-.16 1.328-.413 2.002-.584.274-.076.385-.217.392-.52.008-.383-.172-.577-.497-.578-.225-.001-.457.068-.673.132-.726.24-1.462.095-2.19.141-.516.034-.758-.263-.844-.784-.041-.247-.101-.516-.063-.764.21-1.608-.278-3.123-.414-4.676-.026-.253-.03-.562-.361-.493-.25.047-.186.305-.166.501.109 1.32.16 2.653.335 3.957.317 2.408.09 2.106-1.77 2.238-.088.004-.187-.016-.27-.023-.587-.067-.75-.325-.388-.873.514-.761.727-1.66 1.057-2.497.292-.755-.22-1.434-.893-1.194-1.399.499-2.847.968-4.107 1.773-.808.515-1.61.96-2.462 1.326-.965.42-1.966.795-2.694 1.775.692.551 1.33.423 1.992.158l-.016.026Zm44.214 35.498c-.974.229-1.757 1.016-2.812 1.159-.928.123-1.877.41-2.814.683-1.512.445-2.998 1.357-4.655.758-.117-.042-.28.02-.396.085-.821.461-1.642.923-2.438 1.423-.335.207-.348.582-.192.95.16.376.449.294.704.196.17-.065.364-.16.472-.308.556-.749 1.146-1.161 2.006-.576.153.106.443-.015.663-.07.273-.057.548-.192.68.331-1.56.756-2.993 1.813-4.473 2.781-1.336.883-2.367 2.271-3.878 2.911 1.065.602 1.83-.1 2.582-.701 1.5-1.199 2.93-2.517 4.622-3.343 1.786-.862 3.413-2.246 5.456-2.351.195-.007.325-.125.481-.243.823-.628 1.675-1.208 2.679-1.409.134-.023.333-.021.319-.181-.057-1.049.743-.987 1.28-1.29.37-.211 1.162-.146.974-.803-.23-.797-.844-.123-1.267-.018l.007.016ZM86.622 93.41c-.24-.034-.386.256-.584.342-2.298.99-4.541 2.194-7.097 2.087-2.06-.084-4.076-.554-6.107-.824-2.612-.348-5.211-.983-7.85-1.224-1.946-.176-3.903-.61-5.958.102-.166.034-.446.074-.701.172-.232.09-.37.317-.337.606.042.334.21.581.534.583.18-.001.358-.09.542-.102 3.28-.327 6.566-.451 9.834.15 3.015.553 6.05.943 9.084 1.353 3.293.446 6.082-.977 8.888-2.532.19-.102.326-.29.233-.469-.076-.136-.302-.224-.465-.25l-.016.007Zm66.362 21.186a42.173 42.173 0 0 1 4.267-1.864c.487-.187 1.009-.018 1.463-.348 1.824-1.344 4.056-1.832 5.738-3.51.47-.463 1.057-.776 1.514-1.312.509-.584 1.131-1.047 1.767-1.457.519-.326 1.039-.672 1.496-1.101 1.832-1.706 3.588-3.51 5.618-4.942.582-.409 1.118-.887 1.653-1.365.177-.156.324-.446.164-.676-.168-.247-.42-.12-.606.058-.371.376-.678.883-1.111 1.137-1.714 1.009-3.191 2.365-4.662 3.757-2.381 2.259-5.139 3.883-7.75 5.772-2.461 1.773-5.203 2.925-7.934 4.082-1.534.648-2.878 1.768-4.466 2.33 1.082.557 1.975-.118 2.841-.558l.008-.003Zm-99.338-1.58s-.003-.008-.015-.014c.004.009.023.011.034.017-.644-1.202-1.843-1.675-2.762-2.509-1.05-.949-2.317-1.561-3.51-2.298-3.062-1.898-6.1-3.843-9.156-5.752-.66-.408-1.346-.757-2.13-.757.196.674.694.978 1.202 1.308 2.975 1.97 5.943 3.922 8.988 5.758 2.243 1.346 4.543 2.592 6.684 4.163.197.147.491.141.738.192a.501.501 0 0 0-.058-.094l-.011-.005-.004-.009Zm-17.05-10.966a76.17 76.17 0 0 0 3.253 2.115c-.034-.016-.071-.04-.105-.057a26.705 26.705 0 0 1-3.148-2.058Zm6.206 3.947c1.01.624 2.021 1.247 3.012 1.887.397.257.793.513 1.194.758-1.428-.823-2.815-1.74-4.21-2.653l.004.008Z" fill="#66462C" fill-opacity=".1"/><path d="m36.071 101.7.043.005a2.12 2.12 0 0 0-.02-.046l-.023.041Zm17.686 11.43s-.03-.008-.037-.005l.02.049.009-.022.008-.003v-.019Zm29.464-50.855c.269-2 .054-4.058.347-6.087.113-.774.404-1.702-.357-2.5-.503.787-.998 1.445-.76 2.413.088.356-.034.704-.118 1.058-.324 1.36-.202 2.753-.183 4.117.036 2.506.113 5.006-.015 7.507-.06 1.112-.027 2.19.232 3.247.461-1.014.281-2.14.442-3.205.324-2.168.114-4.363.4-6.555l.012.005Zm-.838 9.758-.028.074s.045.014.049.023c-.011-.027-.01-.07-.021-.097ZM41.12 107.481c-1.538-.936-3.079-1.813-4.914-2.45.83.985 13.497 9.249 14.422 9.477.049-.097.09-.191.14-.287-1.367-.954-2.725-1.93-4.108-2.858-1.864-1.258-3.619-2.704-5.54-3.882Zm30.239-9.669c-1.717.388-3.456-.023-5.188.243a9.97 9.97 0 0 1-2.168.085c-.26-.017-.632.038-.649-.364-.046-.916-.414-.531-.777-.284-.356.243-.71.467-1.06.728-.3.223-.43.535-.263.928.138.326.373.392.679.371.69-.05 1.376-.042 2.055-.118 2.185-.237 4.356-.527 6.537-.753.51-.05.981-.105 1.415-.524-.22-.373-.404-.36-.581-.312Zm27.046 3.767a1.143 1.143 0 0 0-.407.059l-6.227 2.336c-.255.098-.522.21-.75.375-.203.157-.254.419-.151.682.095.246.264.434.518.395.268-.045.524-.163.794-.228.898-.238 1.68-.792 2.504-1.226.972-.509 2.052-.487 3.037-.924l.913-.351c.294-.113.481-.35.408-.692-.076-.35-.368-.423-.646-.443l.007.017ZM47.89 136.417l.124-.281c-3.046-1.67-6.088-3.331-9.134-5.001l-.137.316c2.819 2.194 5.803 3.995 9.155 4.963l-.008.003Zm59.017-28.826c.046.109.096.226.134.338.797-.2 1.64-.271 2.374-.64.661-.332 1.042-.43 1.483.315.21.347.773.549 1.088.253.438-.412-.018-.83-.247-1.179-.251-.381-.558-.681-1.008-.703-1.495-.067-2.588.966-3.812 1.622l-.012-.006Zm69.787.761s.091.024.133.037c-.174-.05.041.013-.133-.037-1.257.834-2.363 1.941-3.797 2.443-.305.108-.566.364-.417.842 1.453-.393 2.731-1.157 3.859-2.253.3-.29.565-.557.352-1.04l.003.008Zm-.82 1.017Zm-34.695-68.071c-.821-.133-1.444.457-2.135.801-.672.326-1.566.232-2.073 1.245 1.603-.422 2.862-1.315 4.208-2.046Zm38.004 65.386-.045-.021-.012.034a.133.133 0 0 1 .057-.013Z" fill="#66462C" fill-opacity=".1"/><path d="M176.701 108.349c1.08-.064 1.967-.454 2.423-1.652-1.028.143-1.571 1.198-2.423 1.652Zm.949-.501c.188-.15.365-.306.557-.448l-.557.448Zm-39.544 10.787c.586-.167 1.099-.316 1.844-.534-.851-.309-1.465-.131-1.844.534Zm7.411-79.522c-1.074.121-1.657.637-2.248 1.089-.055.04.009.278.02.43.645-.453 1.424-.674 2.228-1.519Z" fill="#66462C" fill-opacity=".1"/><path d="M143.28 40.624a1.67 1.67 0 0 1-.206.01l.225-.007-.011-.006-.008.003Zm42.694 48.926c.099-.106.082-.295-.033-.396-.119-.11-.295-.101-.375.027-.294.454-.551.932-.822 1.397.69-.071.888-.644 1.233-1.02l-.003-.008ZM75.5 69.727c.017.51-.221.971.006 1.487.201-.486.318-.978-.005-1.487Zm108.418 22.314c.178-.068.315-.208.243-.443-.066-.219-.258-.29-.428-.206-.166.074-.274.242-.247.475.088.229.263.24.432.174Zm7.596.185c-.761.01-.793.636-1.284.902.632-.038.819-.49 1.284-.902Z" fill="#66462C" fill-opacity=".1"/><path d="m143.067 40.647-.031.012.039-.015a.319.319 0 0 1 .191-.015c-.352-.195-.688-.543-1.086-.108-.02.017-.015.093.007.124.291.453.588.095.88.002Zm42.834 47.735c.514-.295.647-.833 1.106-.853-.463.012-.911.038-1.106.853Zm.499-.63c.085-.032.148-.096.222-.153-.067.074-.131.157-.222.153ZM82.398 72.125l-.044-.022s.021.03.036.044c0 0 .015-.006.011-.014l-.003-.008Zm-.016.016c-.23.332-.411.674-.02 1.215.026-.516.345-.873.02-1.215Zm109.7 19.189-.042-.027.008.018c.009-.003.021.003.046.015l-.012-.006Zm-.344.556c.3-.037.306-.302.296-.561-.224-.08-.42-.053-.489.256-.032.158.039.326.193.305Zm-54.876-20.902c.131-.011.209-.148.226-.3.024-.135-.027-.213-.144-.168-.109.042-.272.104-.302.203-.043.134.078.271.213.268l.007-.003Zm-83.103 42.158-.01.028.038-.015-.013-.031-.005.014-.01.004Z" fill="#66462C" fill-opacity=".1"/><path d="M53.773 113.143c.12.217.296.335.535.281.016-.006.046-.192.017-.239-.165-.239-.358-.184-.552-.042Zm93.189-74.448-.086.076h.109l-.023-.076Zm2.222 18.533s-.068-.052-.105-.076c-.034.071-.098.154-.085.207.025.059.112.093.168.14.084-.081.088-.18.022-.27Zm48.714 21.135-.041-.026c-.013.015-.035.034-.048.05.026-.01.051-.02.089-.024Zm-.141.082s.042-.036.051-.06a.726.726 0 0 1-.139.033c.024.011.063.037.076.022l.012.005Zm-19.064 59.879c-1.501.811-3.204.697-4.755 1.391.74-1.715 2.444-2.069 3.711-3.412-.636-.057-.965.08-1.218.439-.348.494-.719.598-1.158.134-.49-.521-1.005-.1-1.373.178-2.252 1.693-4.773 2.837-7.069 4.469-.767.547-1.655 1.064-2.639 1.141-.356.03-.691.236-.987.515-.433.401-.943.577-1.477.763-.765.274-1.678.265-2.239 1.065-.609.857-1.543 1.264-2.337 1.492-.933.261-1.714.669-2.423 1.311a10.371 10.371 0 0 1-2.864 1.84c-1.736.746-2.895 2.067-3.495 3.922-.341 1.065-.996 1.346-1.784 1.61-.309.099-.638.129-.929.27-2.403 1.147-4.971 1.434-7.513 1.721-2.5.28-5.006.416-7.474 1.025-.335.08-.61.195-.848.462-.127.146-.284.265-.246.503.051.291.225.468.474.46.688-.031 1.386.342 2.045.07 1.811-.736 3.706-.617 5.565-.836 3.279-.395 6.533-.848 9.681-2.126 1.703-.694 3.387-1.818 5.34-1.392.117.023.269-.064.394-.132.824-.453 1.696-.817 2.455-1.382 2.604-1.925 5.369-3.533 8.062-5.269 1.975-1.265 4.104-2.229 6.09-3.508 1.569-1.012 3.44-1.352 4.843-2.757.296-.299.687-.566 1.072-.655 1.39-.33 2.36-1.501 3.578-2.154.412-.217.534-.566.331-1.003-.196-.421-.532-.321-.839-.154l.026-.001Zm-4.248-.769c.09-.064.146-.037.185.075l-.103.224c-.044-.061-.096-.119-.132-.183-.01-.025.023-.096.05-.116Zm-15.539 10.984c-2.348 1.233-4.396 3.11-6.811 4.185-.729.319-1.363 1.03-2.261.927.023-.583.406-.74.699-.94 3.025-2.077 7.307-4.395 8.437-4.596.067.159.057.348-.067.415l.003.009Zm6.457-3.64c-.175.116-.366-.015-.435-.222-.083-.26.07-.387.272-.377.583.038.945-.616 1.661-.668-.374.796-1.001.93-1.498 1.267Zm1.036-1.975c.141-.326.24-.559.489-.587.05-.009.169.101.164.132-.065.336-.276.476-.653.455Zm1.733-1.006c.365-.52.805-.884 1.67-.964-.666.509-1.259.533-1.67.964Zm2.003-1.325c-.059-.182.073-.252.197-.28.065-.015.143.062.218.091-.059.072-.116.152-.175.223-.088-.015-.226-.001-.243-.042l.003.008Zm1.616 2.754c.002.068-.096.135-.148.203-.15.029-.258-.056-.287-.21-.014-.034.108-.149.178-.176.139-.053.272-.017.265.181l-.008.002Zm-.218-3.554c-.093-.071-.074-.176.037-.209.07-.027.154-.02.242-.025-.018.085-.007.197-.05.243-.047.038-.166.035-.218-.004l-.011-.005Zm1.093.543c-.037.209-.167.327-.358.322-.134.003-.259-.124-.209-.26.034-.11.186-.198.302-.243.101-.038.274-.076.27.169l-.005.012Zm-.069-1.015-.011-.025s.004.009 0 .02l.003.008-.008.003c-.037-.024-.067-.052-.104-.076l.101.068c-.004-.008-.007-.017-.003-.028a4.702 4.702 0 0 0-.154-.32 1.62 1.62 0 0 1 .209-.061l-.035.364c.014.033.009.064.009.064l-.007-.017Zm-35.845 11.856c2.289-.501 4.641-.685 6.769-1.97.538-.323.983-.631 1.372-1.199 1.064-1.567 2.373-2.79 4.038-3.576.749-.356 1.683-.423 2.428-1.488-1.146.12-2.076.195-2.997.336-.499.075-.966.312-1.368.7-1.184 1.136-2.674 1.846-3.583 3.353-.097.154-.284.265-.447.347-1.636.833-3.284 1.593-5.085 1.887-3.2.539-6.342 1.299-9.322 2.824-2.653 1.361-5.475 2.028-8.372 2.305-.908.086-1.815.26-2.718.422-.215.044-.479.165-.448.493.032.309.29.366.519.375 1.456.082 2.902.226 4.362-.023 1.667-.291 3.311-.68 4.916-1.287 1.699-.643 3.343-1.412 5.017-2.133 1.566-.68 3.265-1.002 4.927-1.369l-.008.003Zm63.287-32.05s-.003-.031.001-.044c-.017.007-.026.01-.039.026l.038.018Z" fill="#66462C" fill-opacity=".1"/><path d="M199.786 123.622c1.301-1.668 1.019-3.991 2.046-5.709 1.37-2.288 1.691-5.038 1.326-7.748-.138-1.027.575-1.574.598-2.497.045-1.934 1.114-3.639 1.171-5.587.01-.189.165-.375.209-.567.362-1.696.716-3.388.804-5.241-.82.422-.785 1.206-1.057 1.817-.808 1.789-1.556 3.614-1.824 5.594-.522 3.781-1.749 7.386-2.173 11.187-.048.418-.19.783-.31 1.18-.293.988-.703 1.953-.586 3.037.464-.286.379-.847.52-1.3.133-.43.061-1.006.714-1.374-.15 1.43-.529 2.617-.814 3.816-.065.249.081 1.379-.732.437-.162-.191-.677 1.077-.381 1.119.731.089.372.538.402.906.028.301-.351.66.091.938l-.004-.008Zm-74.185 25.133c.855.109 1.694.283 2.583.174.994-.119 1.795-.777 3.164-1.197.551-.377 1.672-.535 2.625-1.174 2.114-1.426 4.386-2.562 6.265-4.413.209-.207.54-.275.354-.651-.143-.296-.437-.29-.727-.208-.678.183-1.264.584-1.869.962-1.72 1.08-3.648 1.646-5.356 2.799-1.164.778-2.442 1.328-3.724 1.85-1.022.412-2.015.658-3.072.626-.374-.011-.79-.017-.843.539-.045.445.288.658.603.702l-.003-.009Zm24.83-2.834c.269.442.616.201.967.008 1.871-1.04 3.681-2.184 5.661-3.013 2.215-.929 4.319-2.186 6.466-3.342 1.318-.711 2.601-1.486 3.912-2.214.393-.219.636-.517.702-1.253-1.666.952-3.16 1.887-4.71 2.667-1.954.995-3.899 2.073-5.942 2.732-1.695.545-3.304 1.163-4.801 2.196-.618.432-1.33.706-1.947 1.138-.29.209-.553.65-.296 1.067l-.012.014Zm-64.864 12.553c.393.267.781.527 1.093.903.716.882 1.612 1.491 2.514 2.049 2.65 1.647 5.138 3.57 7.73 5.317 1.75 1.176 3.392 2.549 5.112 3.785.604.429 1.302.696 1.959 1.036.053-.108.099-.213.152-.321-6.338-4.918-13.132-9.087-19.427-14.498.258 1.224.281 1.322.864 1.72l.003.009Zm18.676-6.917c-.078.157-.148.31-.226.467 1.518 1.332 3.284 2.21 4.981 3.221 1.674 1.001 3.397 1.905 5.084 2.871 1.687.967 3.215 2.344 5.186 2.686-1.452-1.475-3.229-2.397-4.901-3.437-3.305-2.067-6.747-3.886-10.121-5.799l-.003-.009Zm82.295-6.188c.42-.006.767-.227 1.092-.566 1.069-1.131 1.938-2.457 2.884-3.706.264-.355.409-.799.328-1.265-.156-.241-.35-.361-.597-.305-.447.113-.831.31-1.166.73-.845 1.065-1.712 2.118-2.709 3.017-.208.187-.374.455-.516.714-.35.66.015 1.395.684 1.381Zm-76.634 25.405c-.103.439-.049.778.356 1.012.884.516 1.608 1.269 2.32 2.036.266.287.582.418 1.017.105-1.271-1.087-2.482-2.12-3.693-3.153Zm.01.045c.081.3.223.527.397.704-.209-.153-.379-.341-.397-.704Zm1.207 1.258c.36.212.712.427.92.833-.219-.412-.587-.601-.92-.833Zm3.403-2.398c-.088.258-.08.575.136.638.571.16.91 1.003 1.738.704-.429-.905-1.334-.811-1.87-1.334l-.004-.008Zm-.008-.005.004.01s.001-.023.01-.026l-.023.02.009-.004Z" fill="#66462C" fill-opacity=".1"/><path d="M199.9 119.966c.188.016.266-.248.223-.456-.026-.126-.102-.242-.152-.36-.091.084-.205.157-.247.271-.1.233-.145.532.18.553l-.004-.008Zm.05-.857.018.042c.009-.004.019-.008.024-.022l-.042-.02ZM167.748 76.68c-.635 1.305-1.094 2.687-1.827 3.952-1.751 3.047-2.923 6.504-5.164 9.223-.274.33-.223.621.016.909 1.137-1.692 2.637-3.057 3.538-4.99.974-2.076 2.418-3.828 3.472-5.887 1.669-3.24 2.87-6.61 3.456-10.26.049-.31.022-.65.35-.747.798-.239.441-.763.206-1.15-.766-1.213-1.386-2.55-2.407-3.54-.001.02.002.048.001.068.385.845.89 1.613 1.334 2.406.602 1.062.529 1.995.168 2.99-.014.074-.024.136-.045.212-.861 3.279-2.059 6.337-3.478 9.275.355-.778.693-1.55 1.059-2.323.292-.628.268-1.173-.055-1.681-.276-.079-.589-.329-.953-.743-.909-1.042-1.535-2.329-2.457-3.336l-.007.003c.584 1.507 1.493 2.782 2.55 3.835.662.67.579 1.09.235 1.787l.008-.003Zm-3.614 8.443c.493-.939.983-1.886 1.551-2.776.153-.233.275-.475.417-.715a86.276 86.276 0 0 1-1.968 3.49Z" fill="#66462C" fill-opacity=".1"/><path d="M165.002 71.052c.069.012.13.028.198.04.302.371.599.753.897 1.136-.043-.101-.101-.195-.136-.299-.161-.425-.433-.894-.966-.894l.011.025-.004-.008Zm4.39-6.785-.046-.11c.025.06.046.11.052.167-.007-.017.001-.04.002-.06l-.008.003Z" fill="#66462C" fill-opacity=".1"/><path d="M169.358 64.159s-.021-.025-.037-.04l.016.037.017-.006.004.009Zm.737 1.813c-.062-.083-.116-.17-.175-.244.223.527.466 1.037.646 1.59.333 1.02.211 1.816-.408 2.521-.262.295-.369.55-.378.914-.011 1.502-.848 2.67-1.219 3.961-.305.088-.469-.043-.571-.199-.29-.452-.676-.81-1.049-1.182.399.518.806 1.032 1.233 1.53.073.089.139.18.197.275.45.128.805-.223 1.148-1.094.525-1.33.722-2.777 1.27-4.097.041-.094.074-.185.104-.284.362-1.588-.032-2.585-.798-3.691Zm-5.091 5.08-.056-.027c.004.009.011.025.022.03.007-.003.019.003.037.005l-.003-.008Zm12.887 2.108c-.351.66-.847 1.23-1.044 1.997-.53 2.042-1.634 3.79-2.576 5.582-1.068 2.025-2.498 3.81-3.768 5.7-.116.171-.221.328-.133.557.345.198.489-.12.657-.34 1.022-1.327 1.899-2.803 2.95-4.082 1.97-2.382 3.105-5.29 4.491-8.05.147-.29.092-.697.119-1.058.019-.211-.016-.422-.22-.5-.192-.071-.358-.017-.468.19l-.008.004Zm-2.479-8.502c.044-.066.05-.263.027-.273-.723-.374-.904-1.501-1.755-1.69.144.15.268.316.4.479-.14-.16-.264-.327-.408-.476a.484.484 0 0 0-.128-.028c.362.814 1.062 1.323 1.523 2.05.094.16.257.058.341-.062Zm-1.905-2.002.048.01-.021-.05-.011.014-.016.026Zm-15.768 4.795c.298.47.601.927 1.055 1.638-.049-.993-.343-1.473-.829-1.831l-.226.193Zm15.035-6.168-.01.004.009.022s-.009-.022.001-.026Zm.724 1.309s-.006-.056-.017-.081c0 0-.007-.017-.029-.028.003.009.014.014.026.02-.094-.5-.589-.728-.718-1.205-.085.676.268 1.017.734 1.285l.004.009Zm-.216-.423c-.166-.18-.384-.31-.48-.536.096.226.317.365.48.536Z" fill="#66462C" fill-opacity=".1"/><path d="m173.52 62.629.015-.006-.007-.016s-.014-.014-.025-.02a.103.103 0 0 1 .009.064l.008-.022Zm-5.095 26.691c-.193.055-.292.23-.345.425-.022.096.041.16.153.126.179-.069.281-.235.353-.428.003-.098-.048-.156-.161-.123Zm-12.952-6.336c.001-.127-.064-.15-.16-.056-.031.032-.037.083-.054.128a.68.68 0 0 1 .118.023c.032-.032.099-.067.096-.095Zm-.195-4.583-.013.034.054-.02-.041-.014Z" fill="#66462C" fill-opacity=".1"/><path d="M155.157 78.66c.041-.074.07-.154.112-.227-.066.015-.143.025-.205.05-.125.047-.275.056-.293.248-.005.03.038.091.069.099.148.05.243-.045.317-.17Zm5.141 12.062c-.102.059-.272.105-.171.28.079.143.219.07.333-.003.106-.07.205-.156.316-.237-.15-.098-.31-.133-.47-.043l-.008.003Z" fill="#66462C" fill-opacity=".1"/><path d="m160.794 90.79-.013-.03-.009.004.027.012-.005.013Zm8.182-1.859.028-.094-.083.01.055.085Zm-42.557 19.404s-.053-.032-.078-.044l.046.109.036-.056-.004-.009Z" fill="#66462C" fill-opacity=".1"/><path d="M123.927 106.01c.974.792 1.495 1.789 2.415 2.282-.447-1.142-1.19-1.897-2.415-2.282Zm4.35 3.979c-.211-.775-.565-.951-1.032-.985.085.541.462.708 1.032.985Zm-1.065-1.022c-.088-.462-.371-.597-.743-.58.214.248.277.74.743.58Z" fill="#66462C" fill-opacity=".1"/><path d="M127.228 109.006s.017-.007.03-.001a.09.09 0 0 1-.011-.049l-.035.013.016.037Zm-.847-.619.088-.002c-.012-.027-.036-.039-.056-.063l-.035.056.003.009Zm8.297-1.916s-.029-.021-.041-.027l-.009.003.054.033-.004-.009Z" fill="#66462C" fill-opacity=".1"/><path d="M134.631 106.436c.149.352.34.59.714.427l-.014-.034a1.828 1.828 0 0 1-.708-.39l.008-.003Zm.695.365s.022.01.03.007c-.007-.016-.033-.035-.047-.048l.017.041Z" fill="#66462C" fill-opacity=".1"/><path d="M134.737 106.454s-.037-.005-.067-.013l.01.025.054-.021.003.009Zm.592.375s.033.016.052.018l-.055-.045.01.024-.007.003Zm33.092-59.554-.05-.002-.03.043.08-.041ZM62.786 82.077l-.012.034-.005.03.035-.042-.01-.025-.008.003Z" fill="#66462C" fill-opacity=".1"/></svg>