<svg width="404" height="49" fill="none" xmlns="http://www.w3.org/2000/svg"><path d="M220.462 35.884c-.113-.033-.137-.146-.129-.218.008-.073.073-.162.186-.13.363.113.727.218 1.099.331.242.073.339-.048.371-.21l1.067-6.121c-.469-.396-1.139-.784-2.093-1.075-.897-.274-1.559-.298-2.044-.234l-1.067 6.162c-.024.162.033.332.243.396.38.121.759.234 1.139.356.129.04.186.145.17.234-.016.089-.097.153-.227.113a251.866 251.866 0 0 1-4.944-1.575c-.121-.04-.138-.153-.13-.226.017-.073.073-.162.186-.121.364.12.727.234 1.091.355.242.08.331-.04.364-.202.848-4.87 1.688-9.732 2.537-14.602.032-.17-.025-.283-.21-.339l-1.115-.363a.213.213 0 0 1-.146-.218c.024-.097.097-.138.194-.105 1.632.54 3.272 1.058 4.921 1.566a.21.21 0 0 1 .161.218c-.016.09-.081.146-.21.105-.396-.12-.784-.242-1.18-.363-.161-.048-.274.024-.298.178l-1.382 7.97c.501-.04 1.18.017 2.036.284.929.282 1.6.654 2.109 1.017.46-2.665.929-5.338 1.389-8.003.025-.17-.024-.283-.21-.34-.371-.113-.751-.226-1.131-.339a.199.199 0 0 1-.145-.21c.016-.105.097-.137.194-.105 1.648.5 3.304.985 4.969 1.454.113.032.169.13.161.21-.008.089-.08.145-.218.105l-1.188-.34c-.161-.048-.274.025-.298.187-.849 4.87-1.689 9.731-2.538 14.601-.032.162.033.331.251.388.38.113.768.218 1.147.331.13.04.186.146.17.234-.016.09-.105.154-.234.113a324.478 324.478 0 0 1-4.994-1.461l-.024-.008Zm16.094-12.518c2.787.702 4.662 4.958 4.185 9.554-.477 4.587-3.143 7.801-5.93 7.099-2.755-.695-4.581-5.048-4.097-9.635.485-4.604 3.095-7.721 5.85-7.026l-.008.008Zm-1.656 16.25c1.769.443 2.868-3.013 3.32-7.35.453-4.305.178-8.085-1.648-8.545-1.971-.5-2.933 2.972-3.377 7.277-.453 4.337-.097 8.157 1.713 8.617h-.008Zm15.763-13.174c2.796.574 4.662 4.757 4.161 9.401-.492 4.628-3.183 7.996-5.978 7.422-2.764-.565-4.582-4.846-4.081-9.473.501-4.644 3.135-7.907 5.898-7.342v-.008Zm-1.721 16.411c1.77.364 2.885-3.166 3.354-7.543.468-4.345.21-8.133-1.624-8.504-1.98-.404-2.941 3.125-3.418 7.478-.477 4.378-.129 8.198 1.688 8.57Zm9.826 1.883c-.122-.017-.162-.13-.162-.21 0-.073.049-.17.162-.154l1.147.194c.25.04.331-.097.331-.258V29.27c0-.178-.072-.283-.266-.315-.421-.073-.841-.138-1.253-.21-.113-.025-.178-.09-.178-.162 0-.105.073-.17.178-.145 1.608.274 3.224.533 4.84.775 3.353.509 5.543 2.294 5.535 8.86 0 6.622-2.651 7.866-5.535 7.422l-1.091-.17a271.168 271.168 0 0 1-3.7-.606l-.008.017Zm3.975-15.305c-.162-.024-.267.065-.267.226v15.006c0 .178.041.323.251.355.282.04.557.09.84.13 2.093.314 3.434-1.761 3.442-7.358 0-5.79-1.333-7.907-3.442-8.23-.275-.04-.549-.08-.824-.129Zm16.264 18.026c-.113-.008-.162-.121-.17-.194 0-.072.049-.177.17-.161.388.04.767.08 1.155.113.259.024.331-.121.331-.283V31.894c0-.178-.08-.274-.266-.29l-1.261-.122c-.121-.008-.185-.105-.177-.186 0-.105.072-.137.177-.129 1.657.17 3.313.323 4.977.46 2.392.203 4.267 1.164 4.275 4.249 0 2.423-1.099 3.36-2.424 3.497.04 0 .081 0 .121.008 1.325.105 3.127 1.736 3.127 4.466 0 2.81-1.568 4.353-4.501 4.11a321.065 321.065 0 0 1-5.534-.508v.008Zm3.991-15.595c-.161-.016-.275.08-.275.242v6.89l1.447.12c1.494.121 1.907-1.13 1.907-3.505 0-1.712-.299-3.521-2.109-3.667-.323-.024-.655-.056-.978-.08h.008Zm1.325 7.704a95.97 95.97 0 0 1-1.591-.137v7.713c0 .194.113.323.315.34.517.048 1.034.088 1.551.129 1.656.137 2.181-1.35 2.181-3.926 0-2.22-.646-3.973-2.448-4.127l-.008.008Zm15.345 3.684c-.574-.364-1.406-.671-2.651-.728-1.131-.048-1.866.17-2.335.404-.42 1.656-.832 3.303-1.252 4.95-.016.041-.016.074-.016.106 0 .137.089.226.275.234.226.008.452.024.678.032.097 0 .13.081.138.154 0 .072-.049.202-.138.202-.816-.04-1.64-.09-2.456-.13-.105 0-.145-.145-.153-.201 0-.09.056-.162.153-.154.194.008.388.024.59.032.267.016.42-.113.469-.299 1.284-5.031 2.561-10.07 3.845-15.118.025-.178.146-.291.388-.283.59.024 1.172.048 1.762.065.274.008.387.145.436.315 1.301 5.16 2.602 10.321 3.902 15.466.049.153.154.274.364.274.299 0 .59.008.889.017.072 0 .129.08.137.17 0 .056-.04.193-.137.193a312.729 312.729 0 0 1-4.775-.113c-.089 0-.122-.138-.122-.21 0-.073.033-.145.122-.145.323.008.654.024.977.032.138 0 .194-.073.194-.162 0-.032 0-.04-.016-.072-.42-1.672-.848-3.352-1.268-5.024v-.008Zm-4.848-.865c.509-.194 1.236-.331 2.197-.29 1.099.048 1.899.266 2.505.556-.792-3.141-1.583-6.291-2.383-9.433-.776 3.061-1.544 6.114-2.319 9.167Zm12.724 6.607c-.121 0-.169-.105-.169-.178s.048-.178.169-.178h1.164c.258 0 .331-.145.331-.315V33.316c0-.178-.073-.267-.275-.267h-1.187c-.121 0-.186-.089-.178-.161 0-.105.081-.178.178-.178 1.745.008 3.49.008 5.235-.008.122 0 .194.089.194.177 0 .09-.064.162-.194.17-.42 0-.832 0-1.252.008-.17 0-.275.105-.275.267v7.058c1.883-2.334 3.757-4.692 5.64-7.066.016-.04.032-.073.032-.122 0-.12-.105-.218-.258-.218l-1.148.025c-.113 0-.185-.081-.177-.162 0-.105.072-.178.177-.186 1.188-.024 2.384-.056 3.572-.088.121 0 .202.08.194.17 0 .088-.057.16-.194.169-.364.008-.736.024-1.099.032-.17 0-.315.153-.42.283-1.778 2.253-3.547 4.49-5.325 6.72a1042.54 1042.54 0 0 0 6.892 8.245c.186.218.404.299.614.29.243 0 .485-.015.719-.023.138 0 .21.08.21.17 0 .088-.072.177-.21.185-1.81.065-3.619.113-5.429.145-.122 0-.17-.105-.17-.177 0-.073.04-.178.17-.186.323 0 .654-.016.977-.016.186 0 .372-.097.38-.243a.363.363 0 0 0-.089-.194 1385.32 1385.32 0 0 1-5.066-6.016v6.21c0 .162.089.315.315.307.404 0 .808 0 1.204-.008.138 0 .21.09.21.178 0 .089-.072.178-.21.178a284.64 284.64 0 0 1-5.26.008h.008Zm18.56-8.755c.598-.033 1.204-.065 1.81-.105.767-.049 1.325-.412 1.325-1.083v-.444c0-.137.073-.202.162-.202.088 0 .137.065.137.186v3.303c0 .105-.024.178-.137.186-.073 0-.17-.049-.162-.17v-.33c0-.816-.485-1.083-1.277-1.035-.614.04-1.236.073-1.85.105v7.22c0 .146.105.324.331.308l1.293-.073c2.602-.154 4.5-1.446 4.5-4.53V43.2c0-.146.114-.218.227-.227.105-.008.226.04.226.194v4.822c0 .089-.073.137-.194.145-3.369.25-6.747.453-10.116.59-.121 0-.161-.097-.169-.17 0-.072.04-.178.169-.186l1.164-.048c.258-.008.331-.161.331-.331V32.984c0-.178-.081-.266-.275-.258l-1.187.048c-.122 0-.178-.13-.178-.202 0-.105.081-.137.178-.145 3.167-.13 6.326-.315 9.485-.541.121 0 .194.032.194.12v4.822c0 .146-.121.218-.226.226-.113.009-.226-.04-.226-.193v-.372c0-3.085-1.899-4.102-4.501-3.95-.25.017-.501.033-.751.041-.162.008-.267.121-.275.283v7.35l-.008.024Zm17.177 6.905c-.121.016-.162-.09-.162-.162 0-.073.041-.186.162-.194.388-.04.767-.089 1.155-.13.259-.031.332-.185.332-.346v-6.3c-.534-.194-1.277-.282-2.279-.177-.945.105-1.616.347-2.084.605v6.34c0 .162.088.307.315.283.404-.04.8-.081 1.204-.13.137-.016.21.065.21.154s-.073.186-.21.202a287.79 287.79 0 0 1-5.244.509.145.145 0 0 1-.162-.162c0-.072.049-.186.162-.194.388-.032.767-.072 1.155-.105.251-.024.331-.177.331-.347V31.966c0-.178-.08-.258-.274-.242-.396.04-.792.073-1.188.105-.121.008-.178-.073-.178-.146 0-.105.073-.17.178-.177 1.737-.154 3.474-.323 5.211-.509.114-.016.202.049.194.145 0 .09-.064.17-.194.186-.412.04-.832.089-1.244.13-.161.016-.266.129-.266.298v8.206c.492-.243 1.187-.469 2.084-.558.978-.105 1.713-.024 2.279.113v-8.23c0-.177-.081-.258-.275-.233-.396.048-.792.088-1.188.137a.151.151 0 0 1-.178-.145c0-.105.073-.17.178-.186a276.35 276.35 0 0 0 5.203-.622c.114-.016.194.048.194.137 0 .089-.064.17-.194.186a65.95 65.95 0 0 1-1.244.153.287.287 0 0 0-.266.3v15.021c0 .162.088.299.315.275.396-.049.8-.097 1.195-.154.138-.016.21.065.21.154 0 .088-.072.185-.21.202-1.745.226-3.49.436-5.235.621l.008.008Zm14.107-18.527c2.868-.452 5.187 2.9 5.195 7.543 0 4.628-2.327 8.828-5.195 9.28-2.836.452-5.147-3.013-5.147-7.64 0-4.644 2.303-8.73 5.147-9.183Zm.048 16.395c1.826-.29 2.554-4.079 2.554-8.456 0-4.345-.671-7.89-2.554-7.592-2.036.323-2.634 4.063-2.634 8.416 0 4.377.76 7.93 2.634 7.632Zm10.326-17.268c0-.161-.105-.25-.266-.218-.413.081-.825.162-1.237.235-.129.024-.194-.04-.194-.13 0-.088.073-.193.194-.218 1.721-.323 3.442-.662 5.155-1.017.105-.024.178.04.178.145a.217.217 0 0 1-.178.202l-1.171.242c-.194.04-.267.146-.267.323v11.63c0 2.189.961 3.336 2.909 2.924 2.302-.493 3.183-2.14 3.183-4.224v-11.63c0-.161-.105-.242-.267-.21l-1.228.267c-.129.032-.194-.033-.194-.121 0-.09.073-.194.194-.218 1.123-.243 2.238-.493 3.361-.752.097-.024.186.033.178.138a.216.216 0 0 1-.178.202l-1.171.266c-.202.04-.267.145-.267.331v11.63c0 2.722-1.406 4.361-4.177 4.943-3.401.71-4.557-1.034-4.557-3.118v-11.63.008Zm21.25-6.816c0 .372.137 5.274.129 5.533 0 .234-.056.476-.194.517-.234.064-.283-.146-.283-.388 0-1.817-1.058-3.941-2.803-3.49-.695.179-1.341.986-1.341 1.947 0 3.562 6.003 4.095 5.995 8.537 0 2.649-2.23 5.306-5.058 6.033-3.135.8-4.444-1.317-4.436-3.44 0-1.01.436-1.656.889-1.761.46-.113.816.072.808.549 0 .775-.873 1.268-.873 2.237 0 1.728 1.64 2.552 3.418 2.092 1.769-.452 2.909-2.205 2.909-4.006 0-3.675-5.39-3.634-5.39-7.995 0-2.326 1.414-4.16 3.063-4.588.953-.25 1.26.057 1.761-.072 1.188-.316.937-1.947 1.147-2.003.235-.065.235-.065.235.29l.024.008Zm8.62 6.8c.582-.177 1.164-.355 1.754-.533.743-.226 1.284-.727 1.284-1.397v-.444c0-.13.073-.218.162-.242.081-.025.129.032.129.153v3.303c0 .105-.032.186-.129.218-.073.025-.162-.008-.162-.129v-.331c0-.816-.468-.97-1.236-.735-.598.186-1.196.364-1.794.55v7.22c0 .145.105.298.324.234.42-.13.84-.25 1.252-.38 2.529-.775 4.347-2.52 4.347-5.597v-.371c0-.146.097-.243.218-.275.097-.032.218-.008.218.137v4.822c0 .089-.073.161-.186.194a310.07 310.07 0 0 1-9.792 2.996c-.113.032-.162-.056-.162-.13 0-.072.049-.193.162-.225.371-.105.751-.218 1.123-.323.25-.073.323-.243.323-.404V21.03c0-.177-.073-.25-.267-.194-.387.113-.767.226-1.155.331-.121.033-.178-.08-.178-.161 0-.105.073-.154.178-.186 3.07-.88 6.132-1.817 9.187-2.794.113-.04.193-.016.185.072v4.822a.29.29 0 0 1-.218.275c-.113.04-.218.008-.218-.138v-.371c0-3.085-1.834-3.65-4.355-2.884l-.727.219a.354.354 0 0 0-.259.347v7.35l-.008.007ZM8.54 30.771a.315.315 0 0 0 .42.21c.421-.13.841-.258 1.253-.388 2.521-.775 4.048-2.406 3.192-5.362-.033-.121-.073-.243-.105-.356-.04-.145.048-.234.161-.266.105-.032.243 0 .283.137.444 1.543.897 3.085 1.341 4.636.025.089-.032.153-.153.186a325.31 325.31 0 0 0-9.8 3.012c-.114.04-.195-.048-.219-.121-.024-.073-.008-.186.105-.218.372-.121.743-.242 1.123-.363.25-.081.275-.243.226-.404-1.519-4.765-3.046-9.53-4.565-14.295-.056-.17-.153-.235-.355-.17l-1.204.388a.182.182 0 0 1-.234-.113c-.033-.097.032-.178.129-.218a301.317 301.317 0 0 1 5.227-1.648c.186-.056.3 0 .324.073.024.089-.04.202-.227.258a67.59 67.59 0 0 0-1.187.372c-.17.048-.243.185-.194.339 1.486 4.773 2.973 9.538 4.46 14.311Zm10.448-2.359c-.113.033-.186-.056-.21-.129-.016-.073 0-.186.113-.218.38-.105.751-.21 1.13-.307.251-.064.284-.234.243-.388-1.309-4.83-2.626-9.65-3.934-14.48-.049-.178-.154-.235-.348-.186-.404.113-.808.218-1.212.331-.121.032-.21-.032-.226-.105-.024-.097.032-.194.137-.226 1.778-.493 3.563-.97 5.349-1.438.13-.032.218.033.242.121.025.09-.016.178-.161.21-.428.114-.857.226-1.277.332-.17.04-.25.177-.21.33 1.277 4.838 2.561 9.668 3.838 14.506.04.161.17.274.388.218.396-.105.784-.21 1.18-.307.137-.032.226.032.25.121.024.089-.032.194-.162.226a367.76 367.76 0 0 0-5.13 1.373v.016ZM31.665 7.14c.08.363 1.293 5.16 1.35 5.403.048.234.032.468-.098.492-.25.057-.339-.153-.396-.387-.387-1.77-2.036-3.885-3.886-3.449-.727.17-1.268.953-1.042 1.898.832 3.424 7.53 4.079 8.46 8.464.557 2.592-1.261 5.072-4.097 5.726-3.143.735-5.018-1.268-5.535-3.335-.25-.986.073-1.616.525-1.729.469-.113.89.057 1.002.525.186.751-.63 1.244-.404 2.18.412 1.68 2.343 2.456 4.129 2.044 1.778-.412 2.618-2.084 2.222-3.836-.792-3.618-6.642-3.634-7.684-7.834-.55-2.253.59-4.063 2.335-4.466 1.01-.235 1.422.072 1.947-.049 1.26-.283.623-1.882.84-1.93.251-.057.251-.057.332.29V7.14Zm9.049 16.047c-.114.024-.186-.065-.202-.137-.017-.073.008-.186.129-.21.38-.08.76-.154 1.147-.234.259-.049.3-.21.267-.372l-2.957-14.74c-.04-.177-.13-.25-.332-.21l-1.308.267c-.13.025-.21-.048-.219-.12-.016-.106.049-.162.154-.186 1.72-.356 3.442-.695 5.163-1.018 2.488-.469 4.597.008 5.122 3.045.42 2.39-.525 3.585-1.826 4.062.04 0 .081-.016.122-.024 1.349-.25 3.441.912 3.91 3.61.477 2.778-.8 4.644-3.692 5.193-1.826.34-3.652.703-5.47 1.074h-.008ZM41.65 6.72c-.17.032-.259.153-.226.315.436 2.253.872 4.514 1.309 6.768.484-.097.977-.186 1.462-.283 1.51-.283 1.713-1.615 1.285-3.966-.307-1.68-.946-3.384-2.812-3.036l-1.018.193v.009Zm2.78 7.196c-.542.104-1.083.201-1.617.306.485 2.52.978 5.048 1.463 7.568.032.194.17.283.371.25l1.536-.29c1.632-.307 1.89-1.89 1.438-4.426-.388-2.18-1.35-3.756-3.184-3.409h-.008ZM57.14 3.44c3.038-.444 5.979 2.98 6.552 7.592.582 4.596-1.276 8.642-4.136 9.054-2.828.412-5.737-2.948-6.48-7.511-.76-4.58 1.058-8.698 4.064-9.134Zm2.407 16.226c1.819-.267 2.06-3.99 1.471-8.327-.59-4.304-1.794-7.842-3.773-7.551-2.141.315-2.214 4.038-1.551 8.326.67 4.33 1.987 7.826 3.853 7.552Zm14.755-7.188c-.615-.283-1.487-.485-2.756-.348-1.147.122-1.866.46-2.319.76-.234 1.712-.46 3.416-.686 5.128-.016.049 0 .073 0 .105.016.13.12.21.299.194.226-.024.452-.049.678-.08.09-.009.146.056.154.128.008.073-.016.21-.113.227-.816.096-1.632.185-2.448.29-.105.016-.17-.113-.17-.178-.016-.088.032-.17.13-.177l.58-.073c.276-.032.405-.186.43-.38a694.09 694.09 0 0 1 2.213-15.651c.016-.178.121-.315.38-.34.614-.064 1.228-.129 1.842-.185.283-.024.42.089.485.25a672.52 672.52 0 0 1 5.413 14.925c.057.145.17.25.388.234l.889-.072c.08 0 .137.064.153.153 0 .057-.032.194-.121.202-1.592.13-3.183.275-4.767.428-.089.008-.137-.121-.137-.194-.008-.073.016-.153.105-.161l.977-.097c.138-.016.186-.09.178-.178 0-.032 0-.048-.024-.073a490.583 490.583 0 0 0-1.754-4.837Zm-5.002-.146c.493-.282 1.212-.525 2.198-.63 1.123-.12 1.955 0 2.593.202a767.016 767.016 0 0 0-3.401-9.053 637.73 637.73 0 0 0-1.382 9.481H69.3Zm19.423 4.636c-.121 0-.17-.096-.178-.17 0-.072.033-.177.154-.185.388-.024.776-.04 1.163-.064.259-.017.332-.162.316-.332-.25-4.983-.51-9.958-.768-14.94a2.404 2.404 0 0 0-1.172-.251c-.08 0-.17.008-.25.016-.121 0-.194-.08-.202-.153 0-.105.073-.186.178-.186a327.67 327.67 0 0 1 5.599-.267c.121 0 .21.081.21.17 0 .089-.065.17-.202.17-.267.008-.533.024-.808.032-.162 0-.299.105-.29.218 0 .016 0 .048.015.056a493.697 493.697 0 0 1 5.971 13.86L98.096.896c0-.178-.09-.267-.291-.259-.412.008-.832.024-1.253.032-.129 0-.194-.129-.194-.201 0-.105.073-.138.186-.138 1.253-.04 2.513-.072 3.765-.097.13 0 .202.04.211.13 0 .088-.057.21-.202.21l-1.31.024c-.177 0-.282.113-.274.274.121 5.161.25 10.322.372 15.475 0 .105-.073.193-.21.201-.663.017-1.326.033-1.988.057-.25 0-.38-.089-.445-.25A478.833 478.833 0 0 0 90.17 2.14c-.033-.072-.073-.145-.106-.218l.703 14.255c0 .162.105.307.332.299.404-.016.808-.04 1.203-.057.146 0 .219.081.219.17 0 .089-.065.178-.202.186-1.204.056-2.408.113-3.62.177l.024.016Zm18.285-8.835h1.858c.784 0 1.366-.315 1.374-.985v-.445c0-.137.081-.193.169-.193.097 0 .138.072.138.193-.008 1.099-.024 2.205-.033 3.304 0 .105-.032.177-.137.177-.073 0-.161-.064-.17-.177v-.332c.009-.815-.484-1.122-1.3-1.122h-1.899v7.22a.33.33 0 0 0 .331.331h1.301c2.61.016 4.533-1.09 4.597-4.175v-.372c0-.145.113-.21.235-.202.113 0 .226.065.226.21l-.097 4.822c0 .089-.081.129-.202.129-3.377-.065-6.763-.08-10.14-.04-.121 0-.17-.105-.17-.178s.041-.178.162-.178c.388 0 .775-.008 1.163-.008.259 0 .332-.153.332-.315-.033-4.999-.073-10.006-.105-15.005 0-.178-.081-.267-.283-.267-.42 0-.832 0-1.253.008-.121 0-.194-.13-.194-.21 0-.105.081-.137.186-.137 3.329-.04 6.65-.033 9.979.032.121 0 .202.049.202.137-.033 1.608-.057 3.215-.089 4.822 0 .145-.129.21-.234.202-.122 0-.235-.065-.235-.21v-.372c.057-3.077-1.923-4.28-4.662-4.288h-.792c-.177 0-.29.105-.282.266v7.358h.024Zm10.593 8.487c-.122 0-.162-.112-.162-.185s.049-.178.17-.17c.388.017.775.025 1.163.04.259.009.34-.136.348-.298.185-5 .363-9.999.549-14.998 0-.177-.073-.274-.275-.274-.42-.016-.832-.033-1.252-.04-.129 0-.186-.098-.186-.17 0-.105.089-.178.194-.17 1.834.057 3.66.13 5.494.218.13 0 .202.097.194.186 0 .089-.073.161-.21.153-.436-.024-.872-.04-1.309-.056-.178 0-.291.089-.299.258-.218 5-.436 9.99-.646 14.99-.008.161.081.315.307.323.404.016.808.04 1.204.056.137 0 .202.097.202.186s-.089.178-.218.17c-1.754-.08-3.507-.154-5.26-.21l-.008-.008Zm14.381.793c-2.731-.21-5.123-2.431-4.783-8.351.234-4.232 3.013-8.27 6.253-8.02 1.026.08 1.123.46 1.665.5 1.284.106 1.147-1.566 1.373-1.542.251.024.259.024.226.364-.032.355-.299 5.185-.323 5.427-.016.242-.105.452-.242.444-.251-.024-.283-.25-.259-.484.202-2.359-.8-4.208-2.27-4.321-1.98-.154-3.636 3.004-3.967 8.06-.348 5.33 1.212 7.487 2.359 7.567.978.073 2.02-.767 2.133-2.148.129-1.534.251-3.077.38-4.612.016-.177-.049-.274-.259-.29l-1.212-.097c-.121-.008-.177-.105-.169-.178.008-.105.089-.17.202-.161 1.583.12 3.167.258 4.742.395.122.008.194.105.186.194 0 .09-.081.154-.218.146-.25-.025-.501-.049-.751-.065-.178-.016-.283.08-.299.242l-.582 6.582c0 .13-.097.235-.275.218-.404-.032-.097-.953-.929-1.017-.905-.073-1.349 1.276-2.957 1.155l-.024-.008Zm15.18 1.485c-.122-.016-.154-.12-.146-.193.008-.073.065-.17.186-.154l1.155.146c.259.032.348-.105.372-.267.267-2.084.525-4.167.792-6.243-.517-.323-1.253-.59-2.279-.719-.969-.113-1.68-.016-2.173.138-.234 2.1-.477 4.2-.711 6.3-.016.16.056.322.283.346.404.049.8.09 1.204.138.137.016.202.113.185.202-.008.088-.097.17-.234.153-1.745-.21-3.49-.396-5.244-.573-.121-.009-.153-.122-.145-.194.008-.073.065-.17.186-.162l1.155.121c.259.025.339-.113.364-.274.533-4.975 1.058-9.958 1.591-14.933.025-.178-.048-.275-.25-.299-.412-.04-.832-.089-1.244-.13-.13-.015-.178-.104-.17-.185 0-.105.097-.153.202-.145a406.1 406.1 0 0 1 5.47.597c.129.016.202.097.186.186-.008.089-.081.153-.226.137-.437-.048-.873-.105-1.309-.153-.17-.016-.299.073-.315.234l-.922 8.149c.526-.137 1.261-.202 2.174-.089 1.002.121 1.729.38 2.286.654.348-2.721.687-5.443 1.035-8.165.016-.177-.049-.274-.251-.299-.412-.048-.824-.105-1.244-.153-.121-.016-.178-.113-.17-.186.008-.105.097-.153.21-.137 1.818.226 3.644.46 5.462.71.129.017.194.106.186.194-.016.09-.081.154-.226.138-.437-.057-.873-.121-1.301-.178-.178-.024-.299.065-.315.226-.663 4.96-1.325 9.926-1.996 14.885-.024.161.049.323.275.355.396.057.8.105 1.204.162.137.016.194.12.186.21-.009.088-.105.17-.235.145a292.69 292.69 0 0 0-5.235-.678l-.008-.017Zm8.935 1.212c-.121-.016-.153-.13-.137-.202.008-.073.073-.17.194-.153.388.056.767.113 1.155.177.251.04.356-.096.38-.258l2.303-14.86c.032-.178-.041-.275-.243-.307-.436-.065-.88-.138-1.317-.202-.129-.016-.169-.113-.161-.194.016-.105.097-.137.21-.121 1.729.258 3.466.533 5.195.815 2.497.412 4.298 1.583 3.757 4.62-.436 2.39-1.729 3.182-3.111 3.19.041 0 .081.016.122.024 1.349.235 2.916 2.044 2.423 4.733-.509 2.77-2.351 4.087-5.251 3.602a322.79 322.79 0 0 0-5.503-.872l-.016.008Zm6.537-15.143c-.17-.024-.299.057-.323.218-.364 2.27-.736 4.539-1.099 6.8l1.47.243c1.519.25 2.166-.93 2.57-3.28.29-1.687.282-3.504-1.6-3.82l-1.018-.17v.009Zm.129 7.713-1.624-.267a2506.47 2506.47 0 0 0-1.228 7.608c-.032.194.056.323.267.364.517.08 1.026.17 1.543.25 1.64.275 2.424-1.123 2.868-3.667.38-2.18.016-3.99-1.818-4.296l-.008.008Zm15.562-5.46c3.006.63 4.606 4.854 3.563 9.385-1.034 4.515-4.185 7.673-7.013 7.075-2.803-.59-4.379-4.74-3.515-9.288.873-4.563 3.992-7.801 6.965-7.172Zm-3.329 16.064c1.81.38 3.313-3.037 4.25-7.309.938-4.248 1.01-7.98-.953-8.391-2.125-.444-3.466 3.029-4.323 7.285-.864 4.288-.824 8.036 1.026 8.415Zm13.93-12.687c.04-.162-.049-.291-.218-.332-.429-.104-.857-.21-1.285-.306-.137-.033-.186-.122-.162-.21.024-.09.121-.154.243-.13 1.793.428 3.587.873 5.373 1.325.105.024.169.121.145.218-.016.073-.105.145-.226.113a68 68 0 0 0-1.22-.307c-.202-.048-.299.016-.348.194-.945 3.755-1.882 7.519-2.828 11.274-.525 2.125.106 3.659 2.037 4.16 2.278.597 3.538-.55 4.088-2.569 1.01-3.739 2.028-7.478 3.038-11.218.04-.161-.032-.29-.21-.33l-1.277-.34c-.137-.04-.178-.121-.161-.21.024-.089.121-.153.242-.12 1.172.306 2.335.629 3.498.952.106.032.17.121.138.226-.024.073-.113.137-.226.105a67.344 67.344 0 0 0-1.212-.33c-.202-.058-.299.007-.348.185l-3.054 11.218c-.727 2.633-2.456 3.505-5.211 2.794-3.369-.864-4.064-3.028-3.572-5.056a4237.17 4237.17 0 0 0 2.748-11.298l.008-.008Zm17.144 18.68c.372-1.204.752-2.407 1.123-3.61.299-.953-.145-1.729-1.284-2.068-.429-.121-.849-.25-1.277-.371-.671 2.212-1.333 4.425-2.004 6.638-.056.186.016.332.218.396.413.121.817.25 1.229.372.129.04.177.145.153.234-.024.089-.121.145-.258.105a289.272 289.272 0 0 0-5.155-1.535c-.113-.032-.13-.145-.113-.218.024-.072.097-.161.21-.129.379.105.751.218 1.131.331.242.073.363-.048.412-.202 1.414-4.797 2.82-9.594 4.234-14.392.048-.17 0-.282-.202-.339a78.48 78.48 0 0 0-1.285-.371c-.129-.04-.145-.17-.129-.243.032-.097.121-.12.226-.089 1.543.445 3.078.905 4.613 1.365 2.869.873 4.42 2.238 3.386 5.452-.808 2.511-2.327 3.238-4.371 2.948.04.016.081.024.121.04.994.307 2.634 1.777 2.044 3.618-.38 1.18-.751 2.367-1.131 3.546-.234.727-.226 1.179.178 1.308.404.13.363-.428.905-.258.169.056.323.258.25.46-.105.34-.662.396-1.527.113-1.632-.517-2.182-1.502-1.681-3.11l-.016.009Zm1.253-13.94c-.17-.048-.307.016-.356.178-.719 2.39-1.438 4.78-2.165 7.171.283.081.557.17.84.25 1.43.437 2.497-.508 3.297-3.068.84-2.698.355-3.933-1.237-4.418-.129-.04-.258-.08-.379-.113Z" fill="#FFF7BD"/></svg>