<svg width="65" height="61" fill="none" xmlns="http://www.w3.org/2000/svg"><path d="M25.25 11.164c-9.182 2.54-16.383 10.762-17.93 20.212-.888 5.454.04 11.345 3.177 15.945 2.62 3.872 6.54 6.703 10.894 8.285 4.498 1.624 9.43 1.853 14.03.562 4.704-1.311 8.955-4.017 12.338-7.535 6.81-7.099 10.564-18.381 6.665-27.873-2.043-4.934-6.108-8.493-11.018-10.346-5.447-2.04-11.492-1.686-17.022-.125a29.558 29.558 0 0 0-4.291 1.582c-.64.313-.186 1.416.515 1.187 2.786-.937 5.571-1.832 8.48-2.248 2.744-.396 5.592-.417 8.336.104 4.766.916 9.388 3.434 12.132 7.577 5.364 8.118 2.888 19.234-2.6 26.582-5.55 7.39-14.794 12.053-24.016 10.18-4.271-.875-8.315-2.957-11.39-6.12-3.63-3.748-5.364-8.827-5.364-14.01.041-9.305 5.901-18.027 14.113-22.065a22.16 22.16 0 0 1 3.115-1.25c.413-.124.248-.748-.165-.644Z" fill="#66462C"/><path d="M5.995 27.365c.397-.587.616-1.256.834-1.924.239-.71.497-1.398.795-2.067a25.22 25.22 0 0 1 2.065-3.991c1.588-2.492 3.633-4.7 5.996-6.423.318-.243.457-.71.12-1.013-1.41-1.358-3.297-1.986-5.223-1.945-2.005.06-3.852.83-5.4 2.087-1.55 1.236-2.76 2.917-3.635 4.72C.535 18.896-.22 21.287.058 23.657c.258 2.209 1.49 4.377 3.535 5.289.715.303 1.33-.75.615-1.074-1.568-.71-2.522-2.229-2.84-3.91-.377-2.067.259-4.235 1.113-6.058 1.43-3.08 3.892-5.937 7.347-6.464 1.787-.263 3.733.142 5.083 1.419.04-.345.08-.69.12-1.013a24.889 24.889 0 0 0-6.315 6.868 25.185 25.185 0 0 0-2.105 4.214c-.516 1.337-1.132 2.958-.874 4.417.04.122.199.122.258.02Z" fill="#66462C"/><path d="M5.616 27.125c0 .718-.106 1.515-.603 2.013.177-.02.355-.06.532-.08a1.576 1.576 0 0 1-.532-.478c-.142-.2-.213-.418-.373-.598-.178-.2-.568-.12-.622.2-.142.857.568 1.514 1.19 1.793.23.1.497-.12.55-.358.213-.858.373-1.655.089-2.532-.036-.12-.23-.12-.23.04Zm46.626-14.612c-.422-.401-.845-.907-1.352-1.181-.592-.296-1.268.464-.74.928a18.646 18.646 0 0 1 5.726 8.9c.232.822.422 1.665.55 2.53.126.822.105 1.645.274 2.467.148.654.444 1.35 1.077 1.688.76.4 1.48-.043 2.07-.549 2.663-2.299 4.775-5.44 5.113-8.984.296-3.1-1.077-6.41-3.697-8.161-1.732-1.14-3.845-1.35-5.852-.991-1.12.19-2.197.59-3.232 1.033-1.036.443-2.113.928-2.98 1.645-.506.422.043 1.244.635 1.075.887-.253 1.69-.738 2.514-1.096a15.21 15.21 0 0 1 2.471-.928c1.585-.422 3.338-.548 4.86.168 2.43 1.14 3.824 3.902 3.845 6.517.042 3.121-1.712 5.968-3.867 8.12-.274.253-1.035 1.223-1.394.906-.422-.38-.401-1.265-.444-1.75a20.558 20.558 0 0 0-.971-4.66 20.318 20.318 0 0 0-5.852-8.774c-.233.316-.486.633-.719.928.528.274 1.183.359 1.775.485.169.042.317-.169.19-.316Z" fill="#66462C"/><path d="M7.386 11.923c1.157-1.293 2.353-2.586 3.651-3.755a26.12 26.12 0 0 1 4.321-3.037c3.367-1.888 7.079-3.017 10.872-3.571 3.976-.575 8.053-.513 12.028-.041 3.368.39 6.735 1.17 9.879 2.503 1.683.719 3.326 1.601 4.827 2.668 1.562 1.129 2.82 2.483 4.118 3.9.406.43 1.176-.144.831-.657-.932-1.457-2.292-2.668-3.65-3.715-1.36-1.067-2.86-1.97-4.443-2.73C46.636 1.97 43.187 1.048 39.7.555 31.788-.595 23.249-.123 16.027 3.55c-3.53 1.786-7.12 4.495-9.006 8.106-.101.226.183.472.365.267Z" fill="#66462C"/><path d="M12.616 10.74C17.3 7.45 22.58 5.23 28.293 4.423c5.63-.807 11.424-.08 16.704 1.958a32.306 32.306 0 0 1 4.233 1.998c.698.383 1.397.807 2.054 1.251.658.424 1.274.969 2.014 1.312a.469.469 0 0 0 .575-.727c-.452-.524-1.068-.908-1.644-1.312a36.872 36.872 0 0 0-1.89-1.19c-1.294-.727-2.589-1.393-3.945-1.958a35.806 35.806 0 0 0-8.424-2.38 34.141 34.141 0 0 0-17.3 1.896c-3.103 1.19-5.98 2.785-8.548 4.843-.349.283.124.888.494.626Zm18.185 13.917c.28-.585.58-1.129 1-1.63-.34-.147-.66-.293-1-.44-.16 5.936-.44 11.83-.8 17.743-.02.335.32.69.64.67l5.282-.502c.84-.084 1.7-.168 2.54-.23.82-.084 1.76 0 2.421-.586.2-.167.12-.522-.08-.647-.7-.44-1.56-.188-2.34-.105l-2.641.251c-1.72.146-3.441.314-5.182.48l.64.67c.34-5.915.56-11.829.68-17.743.02-.794-1.12-.773-1.16 0-.04.668-.2 1.254-.4 1.88-.06.251.28.419.4.189Zm-.208-10.494c-.02 0-.02 0 0 0-.285 0-.549.256-.528.554.02.766.791 1.426 1.522 1.256.873-.213 1.218-1.192 1.4-2.023.061-.383-.101-.745-.466-.852-.569-.17-1.198-.127-1.726.192-.487.298-.974.958-.73 1.554.06.15.264.256.406.256.365-.021.588-.34.913-.511.244-.128.508-.213.792-.17-.163-.235-.325-.448-.467-.66-.04.234-.102.979-.386 1.085-.06.022-.183-.063-.223-.127-.081-.128-.102-.32-.223-.469.02.128.02.235.04.362.02-.021.02-.042.04-.064.163-.234-.162-.51-.364-.383Zm-.202 37.746c-1.188.928.583 2.62 1.928 1.93.717-.383.83-1.22.516-1.821-.359-.674-1.121-1.11-2.018-1.001-.246.036-.38.218-.47.382-.09.2.044.437.246.564.18.11.404.11.583.2.224.128.403.346.403.583 0 .036-.044.127-.022.146.045.09-.202.018.067 0-.022 0-.134 0 0 0-.022-.019-.067 0-.112-.019a.572.572 0 0 1-.202-.182c-.022-.036-.022-.018 0-.036.583-.473-.313-1.201-.919-.746Zm19.38-18.905c.18.167.472.186.697.075.112-.056.225-.13.27-.223.022-.037.067-.093.067-.149.045-.092.112-.222-.023-.037.18-.222.09-.575-.202-.705-.831-.353-1.663.297-1.573 1.002.022.353.27.873.742.984.404.111.876.018 1.236-.13.72-.316 1.169-1.002.966-1.67-.202-.687-.989-1.151-1.843-1.151-.944 0-.944 1.188 0 1.206.585.019.562.761-.022.687.135.093.27.167.404.26-.045-.074-.112-.241-.18-.26-.112-.074.045.111-.157.037.157.056.427-.074.54-.167-.225-.018-.45-.056-.697-.074.067-.037.112-.074.18-.111-.338-.186-.652.204-.405.426Zm-36.865 2.428c-.672-.329-1.59-.035-1.836.536-.134.294-.089.692.247.9.313.172.805.155 1.141.068 1.477-.346 2.014-1.833 1.074-2.749-.56-.553-1.633.242-1.007.813.425.38-.246 1.003-.806.95.202.087.381.174.582.26.068.121.023.017.135-.052.112-.052-.112-.052.067-.017.56.121.873-.484.403-.709Zm.126-6.866c.022.02.022.041.045.083 0-.084-.023-.125-.045-.188v.042c0 .208.18.438.385.48.407.062.77-.042 1.086-.292-.136.041-.271.104-.407.145.43 0 .724-.354.86-.708.113-.354 0-.688-.249-.959-.226-.229-.634-.208-.883-.041-.226.166-.362.541-.158.792l.045.083c-.023 0-.068-.167-.023-.042.023.104-.022-.146 0-.062 0 .125.045-.105.023-.042l-.045.063c.067-.105-.023-.042 0 0a.607.607 0 0 0-.136.395c.045-.125.113-.229.158-.354 0 .021-.045.021-.045.042-.023.042.068-.042.023-.02-.023 0-.046.02-.068.04.045 0-.068.042 0 0-.023 0-.023 0-.046.022.114 0-.045.02 0 0a.544.544 0 0 0-.43.187c.136-.062.272-.083.385-.104-.022 0-.068-.02-.09-.02-.295-.126-.498.228-.385.457Zm3.574-4.776c.142-.37.326-.76.383-1.185.043-.24-.042-.482-.213-.574-.17-.074-.369-.019-.468.204-.157.389-.213.814-.299 1.222-.085.444.426.778.597.333Zm4.22-4.132c.016-.079.031-.131.047-.21.032-.105.063-.21.079-.316 0-.078.016-.157.016-.21-.047.158-.095.342-.142.526l.016-.053a1.077 1.077 0 0 0 .11-.893c-.063-.29-.252-.526-.457-.5-.174 0-.332.131-.426.394a1.162 1.162 0 0 0-.063.526c.015.184.063.316.142.473l.015.053a6.91 6.91 0 0 0-.126-.552c0 .052 0 .079.016.131 0 .132.016.263.063.395l.016.026c.016.079.047.158.063.236.047.21.205.316.331.316.126 0 .253-.131.3-.342Zm3.83-2.942c.057-.118.1-.26.156-.38l.042-.07c.028-.072.028-.072.014-.048.029-.047.085-.237.113-.356.071-.308-.07-.688-.24-.806-.198-.142-.396 0-.509.285a2.651 2.651 0 0 0-.056.213c0 .071-.014.119-.014.19 0-.071 0-.071 0 0-.015.047-.043.07-.043.095-.028.142-.07.284-.099.427-.07.26.057.593.198.688.17.118.34 0 .438-.238Zm15.64.282c.496-.07.89-.947.612-1.685-.102-.277-.32-.393-.51-.254-.175.115-.292.438-.234.761 0 .024.044.208.03.208 0 0 0-.161-.015-.023.014.093 0 .07 0 0 0 .023-.015.07-.015.093.015-.07-.014.138 0 0 0 .023 0 .023.03-.024-.015.023-.044.047-.059.047-.248.207-.131.923.16.877Zm3.716 1.259a.84.84 0 0 0 .17.368c.072.105-.025-.052 0 0a.686.686 0 0 0 .339.316 1 1 0 0 0 .678 0c.606-.184.993-.92.703-1.579-.122-.263-.485-.42-.751-.342-.267.08-.533.369-.485.71 0 .106.024.422.024.132 0 .08 0 .053.025-.105-.025.079 0 .053.048-.079.073-.079-.073.158 0 0-.073.026-.073.026-.097.053-.097.105.146-.053.049.026.096-.026-.122.105 0 0 .096 0-.146.053 0 0-.122 0-.243.053-.364.105.121-.026.267-.026.388-.052-.073-.027.073.052.024 0-.024 0 .049.052.073.079-.146-.185-.34-.29-.557-.185a.478.478 0 0 0-.267.553ZM49.406 21a.436.436 0 0 0-.355.191.452.452 0 0 0-.03.339 1.29 1.29 0 0 0 .03-.25c-.118.19-.014.441.133.573.06.06.148.103.237.133.118.03.266.014.37-.06a.468.468 0 0 0 .147-.146c.015-.03.03-.074.044-.103.045-.133 0-.265-.074-.368a.407.407 0 0 0-.28-.147.356.356 0 0 0-.34.103l-.015.015a.3.3 0 0 0 .074-.06s-.015 0-.015.015a.727.727 0 0 0 .104-.044c.03 0 .059-.014.088-.014h-.03c.03 0 .075.014.104.014a.21.21 0 0 1-.089-.03c.045.016.074.03.104.045-.015-.015-.044-.015-.06-.03.03.015.045.03.075.045-.089-.06-.178-.118-.281-.103.088.059.192.103.28.162 0-.015-.014-.03-.014-.045.015.03.015.06.03.074 0 .015 0 .03.014.059v-.03c0 .03-.015.06-.015.089v-.015c-.014.03-.03.059-.03.088 0 0 0-.015.016-.015a.115.115 0 0 0-.06.06l.015-.015c-.014.014-.044.03-.059.044 0 0 .015-.015.03-.015-.03.015-.06.015-.074.03.074-.03.148-.06.177-.133a.276.276 0 0 0 .03-.191.288.288 0 0 0-.281-.265Zm.704 7.653c.077.077.154.155.23.201a.825.825 0 0 0 .2.109.326.326 0 0 0 .37-.047.326.326 0 0 0 .046-.387 1.348 1.348 0 0 0-.308-.418c-.138-.14-.4-.155-.538 0-.139.154-.154.402 0 .542ZM14.442 44.001c-.192-.015-.354.151-.413.332-.014.046-.014.091-.014.136.014.046 0 .03 0 0 0 .015-.015.076-.015.091 0 .151.103.272.206.347-.044-.06-.088-.12-.147-.18.03.014.044.045.059.09.044.12.191.166.309.181a.513.513 0 0 0 .456-.211.49.49 0 0 0 .06-.544.313.313 0 0 0-.545 0c-.045.03-.104.105-.03.015-.03.045.074-.03.03-.015-.015 0-.015.015-.03.015s-.044.015-.044.015c-.03.015-.03.015 0 0s.015-.015 0 0c-.103.015-.162.106-.22.196.087-.045.176-.105.264-.15h-.03c.015-.016.089.03.074.014 0-.015-.03-.015-.044-.015.03.03.059.046.088.076l.015.03c0-.015 0-.015 0 0s-.015.015 0 0c0-.03-.015.045 0 0s-.015.015 0 0c0 0 0-.045-.015-.03-.014.03.015 0 .03-.015-.015.015-.03.015-.03.015-.014 0-.014 0 0 0h.045c.088-.015.147-.136.132-.212-.015-.105-.103-.166-.191-.181Zm2.71 3.482c.202.085.403.153.605.238.221.085.383.22.624.272.242.034.484-.051.585-.238.08-.17.02-.425-.202-.51-.241-.085-.463-.068-.705-.118-.222-.035-.443-.086-.665-.12-.322-.067-.564.34-.242.476Zm6.175 4.035c-.664.415-.214 1.333.429 1.464.428.087.814-.153 1.028-.503a2.25 2.25 0 0 0 .193-.48 1.46 1.46 0 0 0-.022-.613c-.128-.437-.728-.524-.92-.153-.087.175-.172.306-.215.503 0 .022-.021.066-.021.088 0 .021-.022.021-.022.021.022-.021.022-.043 0 0 0 0-.064.088-.021.022.043-.043-.043.066-.043.066-.021 0-.043.065 0 0 .064 0 .107 0 .064-.022-.021 0-.043 0 0 0 .022 0 .064 0 .086.022.021.022.021.022 0 0-.043.022-.043-.088 0 0 0-.022-.022-.044 0 0-.022-.088-.022.065-.022.087 0 .044 0 .11-.042.153.364-.328-.065-.918-.472-.655Zm17.641-1.683c.3-.232.559-.484.838-.737.15-.169.237-.421.172-.632a.717.717 0 0 0-.451-.442.624.624 0 0 0-.624.169c-.3.315-.559.631-.817.968-.172.232-.064.569.13.716.236.19.515.148.752-.042Zm3.936-4.995a4.56 4.56 0 0 0 .498-.407c.195-.15.412-.3.52-.514.108-.235.13-.555-.108-.748-.217-.193-.498-.214-.758-.107-.216.107-.346.342-.498.535-.152.17-.282.32-.411.492-.174.213-.217.534 0 .748.216.236.54.193.758 0Zm4.062-3.462c.017-.678.136-1.683-.203-2.22a.298.298 0 0 0-.526 0c-.339.537-.22 1.566-.203 2.22.017.818.915.841.932 0ZM17.3 53.06c-.361.235-.702.352-1.002.666-.281.313-.521.626-.762.959a9.103 9.103 0 0 0-1.082 2.212c-.36 1.076-1.042 3.62.581 4.051.722.196 1.443-.196 1.984-.607a17.65 17.65 0 0 0 1.964-1.683c1.162-1.194 2.425-2.603 2.986-4.169.2-.587-.621-.802-.942-.392-.862 1.077-1.503 2.232-2.445 3.25-.46.489-.942.978-1.463 1.409-.42.391-.942.92-1.523 1.057-.601.137-.4-.764-.36-1.116.06-.665.24-1.311.48-1.938a7.64 7.64 0 0 1 1.503-2.348c.22-.255.321-.529.541-.783.241-.294-.1-.803-.46-.568Zm24.162-.886c-.26.087.538 2.106.638 2.302.299.651.698 1.26 1.136 1.803.818.999 2.114 2.041 3.43 1.628 1.396-.434 1.495-2.106 1.196-3.388-.2-.847-.538-1.65-.837-2.476-.32-.912-.598-1.846-1.057-2.715-.339-.673-1.296-.217-1.117.522.22 1.02.678 1.998 1.037 2.997.3.803.678 1.585.878 2.41.16.652.1 1.5-.698 1.521-.658 0-1.276-.5-1.735-.956a6.944 6.944 0 0 1-1.336-1.91c-.3-.63-.399-1.63-.897-2.086-.4-.37-1.037-.217-1.097.391-.04.391.32.912.718.608.279-.239.12-.76-.26-.651ZM9.731 21.405c.4-.322 1.017-.128 1.256.301.32.602 1.137.194.997-.45-.279-1.397-2.392-1.762-2.93-.409-.22.494.279.902.677.558Zm44.388-2.119c.023-.02.046-.02.07-.041.093.102.209.184.301.265-.07-.163-.232-.245-.301-.387v.448c.162-.204.07-.326.255-.408.232-.102.464-.204.696-.326.51-.265.882-.714.859-1.245a.634.634 0 0 0-.51-.571c-.372-.082-.72.081-.836.408-.07.245-.186.306-.464.428-.58.286-1.254.674-1.184 1.327.023.265.186.47.487.571-.139-.04.14.123.186.163a.748.748 0 0 0 .51.062c.186-.041-.162.04 0 0 .07-.041.14-.041.21-.062a.759.759 0 0 0 .278-.244c.232-.327-.255-.592-.557-.388ZM4.118 26.978c.273-.313.547-.563.802-.896.255-.313.492-.646.748-.98.455-.625.893-1.25 1.312-1.917.073-.125-.073-.25-.164-.146-.529.625-1.04 1.25-1.513 1.917-.237.292-.456.605-.675.917-.237.334-.4.667-.62 1.021-.036.063.055.146.11.084Zm-1.398-1.56c-.042-.428-.589-.233-.694.059-.084.214.042.389.253.466.336.156.693-.038.967-.233.504-.37.967-.856 1.408-1.284.484-.447.967-.894 1.45-1.361.968-.934 1.998-1.848 2.86-2.879.105-.097-.042-.253-.168-.155-1.198.875-2.27 1.945-3.364 2.956-.525.506-1.051 1.012-1.577 1.498-.273.253-.525.525-.777.778-.106.077-.316.291-.42.31-.106-.018-.19-.057-.295-.077.084-.078.105-.097.063-.039.042.136.294.098.294-.039Zm-.555-5.444c1.386-1.395 2.792-2.79 4.278-4.077a50.244 50.244 0 0 1 2.29-1.919c.743-.589 1.547-1.134 2.23-1.788.1-.087-.02-.24-.141-.174-.864.48-1.647 1.155-2.41 1.788-.703.588-1.427 1.177-2.11 1.81a47.563 47.563 0 0 0-4.278 4.207c-.08.088.06.24.14.153Z" fill="#66462C"/><path d="M3.128 18.988c1.613-.884 3.284-1.767 4.821-2.783.114-.075.02-.263-.114-.188-1.632.846-3.226 1.843-4.783 2.82-.114.057-.019.207.076.15Zm48.108-6.003c.827-.436 1.634-.908 2.461-1.38.743-.436 1.613-.855 2.25-1.378.148-.123-.043-.28-.213-.21-.848.332-1.655.926-2.419 1.38-.785.453-1.527.907-2.27 1.378-.128.088.042.28.19.21Zm2.097.965c.79-.671 1.522-1.403 2.333-2.033.751-.59 1.562-1.098 2.294-1.707.098-.082 0-.244-.12-.204-.929.346-1.779.935-2.55 1.545-.79.65-1.621 1.341-2.254 2.175-.139.183.158.365.297.223Zm3.772-1.815c-.356.522-.695 1.066-1.069 1.564-.089.114 0 .34.125.295.748-.295 1.372-.907 1.818-1.723.089-.158-.125-.362-.214-.226a4.71 4.71 0 0 1-1.693 1.632l.178.226c.303-.566.642-1.11.98-1.654.054-.091-.071-.204-.125-.114ZM11 23.054c.115 3.305.25 6.63.385 9.935.134 3.305.192 6.65.48 9.934 0 .102.135.102.135 0 0-3.304-.23-6.63-.385-9.934-.154-3.305-.307-6.61-.5-9.935 0-.061-.115-.082-.115 0Zm1-1.963c.152 6.708.38 13.395.592 20.103.061 1.905.076 3.83.259 5.715.015.121.137.121.137 0 .045-1.662-.046-3.344-.092-5.006-.06-1.661-.121-3.343-.167-5.005l-.364-10.092c-.076-1.905-.137-3.81-.213-5.715-.015-.121-.152-.121-.152 0Zm3.005-.985c-.03 7.73.09 15.46.27 23.19.06 2.186 0 4.412.33 6.598.03.141.33.141.33 0 .15-1.923 0-3.865-.06-5.788-.06-1.942-.09-3.885-.15-5.808l-.27-11.595c-.03-2.206-.09-4.411-.12-6.597 0-.141-.33-.141-.33 0Zm4.464-5.061c.37 9.066.37 18.152-.078 27.198-.118 2.559-.352 5.117-.391 7.656 0 .12.176.14.195.02.293-2.216.39-4.473.489-6.689.117-2.296.195-4.573.253-6.87.098-4.492.079-9.025-.039-13.538a344.954 344.954 0 0 0-.332-7.777c0-.06-.097-.06-.097 0Zm20.396-1.005c.027-.635.081-1.29.162-1.925h-.324c0 1.29.216 2.62.324 3.91.08 1.31.162 2.62.216 3.93.135 2.54.215 5.098.215 7.637.028 5.18-.161 10.338-.62 15.497-.135 1.474-.27 2.948-.431 4.401-.19 1.474-.432 2.948-.405 4.422 0 .103.189.123.243.02.377-1.248.485-2.558.647-3.828.162-1.269.297-2.538.405-3.807.242-2.6.431-5.22.54-7.84.242-5.221.215-10.462-.082-15.703-.08-1.474-.189-2.948-.297-4.422-.107-1.412-.134-2.866-.431-4.258-.027-.123-.35-.082-.324.041.081.635.081 1.27.081 1.925 0 .04.081.04.081 0Zm1.757 1.067c.015 4.795.124 9.57.093 14.366a437.87 437.87 0 0 1-.357 14.285c-.11 2.702-.265 5.425-.358 8.128 0 .162.171.142.187 0 .42-4.755.56-9.571.684-14.367.124-4.754.155-9.51.108-14.284-.03-2.703-.062-5.426-.202-8.128 0-.143-.155-.143-.155 0Zm2.762-.982a221.38 221.38 0 0 1-.593 28.605c-.123 1.35-.246 2.72-.394 4.07-.149 1.349-.42 2.719-.395 4.068 0 .145.271.187.32.042.321-1.142.37-2.346.494-3.488.123-1.183.247-2.366.346-3.57.222-2.388.395-4.775.518-7.142.272-4.795.37-9.611.296-14.406a303.3 303.3 0 0 0-.271-8.18c-.025-.165-.346-.165-.321 0Zm2.692 3.081c.047-.704.093-1.409.21-2.092-.07 0-.14-.02-.21-.02-.185 2.03.023 4.122.047 6.152.046 2.092.07 4.164.116 6.256.07 4.143.139 8.265.255 12.408.046 2.32.116 4.64.255 6.981 0 .145.232.145.232 0 .07-4.143-.07-8.265-.162-12.408-.093-4.143-.21-8.266-.302-12.409-.023-1.14-.046-2.258-.093-3.397-.023-1.18 0-2.382-.139-3.563-.023-.124-.232-.145-.209-.02.023.704-.023 1.408-.07 2.112 0 .042.07.042.07 0ZM48 16.104c.347 3.936.578 7.913.693 11.87.058 1.957.073 3.915.058 5.852 0 2.02-.13 4.06-.087 6.058 0 .124.145.165.16.041.187-1.916.158-3.936.172-5.873.015-2.02-.014-4.039-.072-6.058a162.74 162.74 0 0 0-.779-11.91c0-.125-.159-.104-.144.02Zm3 4.001c.1 2.449.2 4.918.276 7.386l.15 3.633c.051 1.244 0 2.509.177 3.733.025.18.351.2.377 0 .075-1.204-.076-2.449-.151-3.653-.05-1.224-.126-2.469-.176-3.713l-.377-7.386c0-.14-.276-.14-.276 0Zm7.211 2.854a86.142 86.142 0 0 0 2.497-2.927c.78-.934 1.638-1.848 2.277-2.886.06-.104-.08-.187-.14-.125-.918.83-1.657 1.869-2.456 2.824a82.367 82.367 0 0 0-2.358 2.927c-.1.125.06.312.18.187Zm.096 1.992c1.58-1.56 3.204-3.054 4.644-4.7.14-.152-.046-.326-.209-.217-1.648 1.473-3.158 3.098-4.69 4.68-.163.15.093.39.255.237ZM10.114 10.977c.492-.46.88-1.132 1.178-1.745.3-.633.599-1.343.704-2.052.035-.192-.193-.25-.264-.077-.228.69-.422 1.38-.739 2.033-.281.613-.668 1.17-.985 1.764-.035.077.053.134.106.077Zm1.144-.052c.529-.794.998-1.588 1.488-2.403.234-.407.47-.815.704-1.201.215-.365.47-.708.548-1.116.02-.171-.117-.257-.235-.171-.293.279-.489.686-.685 1.03l-.704 1.222c-.47.815-.94 1.63-1.35 2.467-.098.193.136.344.234.172Zm3.079-1.055a9.441 9.441 0 0 1 1.069-2.565c.252-.402.524-.805.815-1.165.253-.297.564-.551.758-.911.078-.149-.078-.276-.194-.212-.719.381-1.321 1.377-1.73 2.076a10.776 10.776 0 0 0-1.048 2.67c-.058.234.272.34.33.106Z" fill="#66462C"/><path d="M16.286 6.925c.576-.872 1.217-1.745 1.694-2.687.083-.154-.115-.325-.23-.188-.641.856-1.168 1.814-1.727 2.721-.099.172.148.326.263.154ZM44.29 5.95c.474-.472.968-.926 1.423-1.399.435-.415.95-.831 1.266-1.342.079-.113-.08-.264-.198-.189-.494.34-.91.85-1.345 1.267-.455.472-.929.945-1.384 1.436-.158.152.08.378.237.227Zm1.965.961a9.94 9.94 0 0 1 .811-1.444c.288-.407.643-.745.896-1.174.102-.158-.017-.361-.169-.27-.389.225-.727.744-1.014 1.173-.305.474-.541.97-.761 1.534-.085.204.152.384.237.181Zm1.058.033c.916-.893 1.93-1.746 2.671-2.775.059-.077-.058-.213-.156-.155-1.014.737-1.891 1.766-2.769 2.658-.175.175.078.446.254.272Zm1.013 1c.89-.865 1.893-1.708 2.65-2.706.089-.133-.09-.289-.2-.222-1.003.754-1.849 1.775-2.717 2.64-.178.177.089.466.267.288Zm.927.011c.311-.294.622-.588.916-.899.277-.276.622-.535.812-.863.07-.121-.069-.242-.172-.173-.329.19-.605.536-.865.795-.31.31-.605.604-.898.915-.139.156.069.363.207.225Zm1.1 1.007c.905-.59 1.832-1.161 2.623-1.822.068-.072-.022-.18-.113-.126-.995.5-1.877 1.126-2.804 1.716-.18.143.09.357.294.232Zm1.837.032c.595-.18 1.19-.362 1.762-.723.088-.06.044-.271-.044-.271-.617.09-1.211.331-1.806.602-.176.06-.11.452.088.392Z" fill="#66462C"/><path d="m52.043 9.245.398.401c.114.115.247.287.399.344.094.038.19-.038.151-.153-.075-.153-.227-.286-.341-.4-.133-.134-.285-.268-.417-.402-.114-.114-.323.077-.19.21Zm-8.738-4.3a6.38 6.38 0 0 0 .651-.684c.134-.15-.067-.35-.217-.217-.25.2-.467.417-.684.65-.167.168.084.418.25.251ZM20.83 44.086a73.875 73.875 0 0 0-.624 5.796c-.135 1.946-.304 4.04-.135 6.007.017.148.168.148.168 0 .17-1.925.102-3.871.22-5.817.118-1.989.304-3.977.54-5.944.017-.127-.152-.19-.169-.042Zm2.078-.016c-.167 1.79-.333 3.58-.484 5.391-.152 1.79-.379 3.601-.424 5.391 0 .167.197.209.212.042.242-1.748.287-3.56.423-5.328.137-1.832.258-3.664.363-5.495.016-.105-.09-.084-.09 0Zm1.868 1.045c-.138 1.63-.293 3.239-.431 4.868-.12 1.61-.31 3.24-.345 4.849 0 .183.259.245.293.04.207-1.588.259-3.218.38-4.807.12-1.65.224-3.3.327-4.95 0-.163-.207-.143-.224 0Zm1.874 1.993c-.55 2.503-.85 5.155-.5 7.7.025.256.5.256.474 0-.15-2.567-.124-5.069.375-7.614.025-.192-.3-.278-.35-.086Zm2.122.998c-.262 2.237-.525 4.453-.77 6.69-.034.272.315.272.35 0 .21-2.216.437-4.432.647-6.648.018-.167-.21-.209-.227-.042Zm1.928 1.988a15.8 15.8 0 0 0-.541 2.368c-.123.774-.246 1.635-.074 2.41.05.216.369.13.393-.043.099-.732.025-1.506.099-2.26.073-.818.22-1.614.417-2.389.05-.172-.245-.258-.294-.086Zm-13.63 3.177a7.258 7.258 0 0 1 1.564 1.245c.425.446.738 1.01 1.185 1.455.067.07.2 0 .178-.093-.357-1.339-1.698-2.325-2.793-2.865-.157-.07-.29.164-.134.258Zm-1.03 1.946c.38.369.805.721 1.274 1.04.425.285.916.604 1.453.739.178.033.313-.135.178-.218-.402-.286-.916-.47-1.34-.739a8.645 8.645 0 0 1-1.23-.973c-.156-.151-.49-.017-.334.15Zm.005 1.106.898.898c.256.256.534.62.876.77.107.042.214-.065.171-.15-.17-.342-.513-.642-.77-.898-.298-.3-.598-.599-.897-.898-.171-.15-.428.107-.278.278Z" fill="#66462C"/><path d="M16.05 56.273c.264.225.529.47.793.694.095.094.208-.037.132-.112-.245-.263-.472-.545-.699-.808-.15-.15-.377.094-.226.226Zm27.227-2.342c.418-.55.859-1.079 1.346-1.541.418-.397 1.022-.705 1.347-1.167.093-.11-.047-.243-.186-.22-.603.132-1.16.726-1.578 1.123-.465.506-.883 1.057-1.185 1.673-.092.154.14.286.256.132Z" fill="#66462C"/><path d="M43.296 53.96a33.96 33.96 0 0 0 1.459-1.406c.446-.44.952-.897 1.236-1.422.04-.067-.061-.17-.142-.118-.587.355-1.033.863-1.479 1.32-.446.474-.912.948-1.337 1.456-.122.119.121.288.263.17Zm.992.964c.316-.483.632-.966.93-1.449.278-.424.631-.869.78-1.37.019-.097-.093-.136-.149-.078-.39.328-.65.85-.91 1.275-.298.483-.614.965-.912 1.467-.111.174.149.329.26.155Zm.933.045c.241-.205.537-.38.741-.673.093-.117 0-.322-.111-.293-.26.088-.519.38-.778.556-.167.146-.018.556.148.41ZM33.893 42.03A599.877 599.877 0 0 0 33 55.878c0 .164.464.164.464 0 .25-4.622.429-9.224.536-13.846 0-.041-.107-.041-.107 0Zm1.843 2.08c-.131 1.814-.29 3.65-.42 5.485l-.158 2.649c-.052.48-.079.939-.105 1.418-.026.418-.105.835 0 1.252.026.125.263.104.289 0 .157-.397.131-.834.157-1.252.027-.48.053-.96.08-1.418.052-.876.104-1.773.157-2.649.105-1.835.184-3.67.262-5.486.027-.145-.262-.145-.262 0Zm2.04 2c-.15 1.145-.298 2.29-.429 3.456-.074.488-.13.976-.186 1.484-.056.573-.205 1.252-.149 1.824.019.148.168.17.224.042.167-.487.186-1.06.242-1.569l.167-1.738c.13-1.145.242-2.312.354-3.478.018-.148-.205-.19-.224-.021Z" fill="#66462C"/></svg>