<svg width="55" height="62" fill="none" xmlns="http://www.w3.org/2000/svg"><path d="M44.07 58.191c-3.145.032-6.361-.176-9.425-.906-3.063-.73-6.03-1.896-8.813-3.415-6.515-3.59-11.795-9.124-15.948-15.245C6.552 33.69 3.91 28.237 2.678 22.393c-1.119-5.392-.912-11.175 1.68-16.117.66-1.253 1.445-2.577 2.67-3.348 1.238-.786 2.593-.64 3.766.196 1.216.85 2.067 2.15 2.875 3.352 1.134 1.669 2.268 3.309 3.402 4.977.567.82 1.12 1.626 1.687 2.446.51.735 1.049 1.47 1.46 2.276.725 1.483.18 3.02-.28 4.499-.922 2.902-1.222 5.948-.789 8.968.405 2.907 1.571 5.76 3.525 7.996 1.813 2.065 4.357 3.54 7.024 4.128 2.71.602 5.56.3 7.938-1.116 1.098-.645 2.449-1.797 3.805-1.228.72.298 1.286.92 1.824 1.487l2.024 2.108c1.317 1.373 2.661 2.746 3.936 4.16 1.16 1.302 2.28 2.703 2.92 4.327 1.024 2.542.754 6.096-2.02 7.37-2.676 1.233-5.813-.301-7.668-2.296-2.576-2.774-3.731-6.516-5.801-9.626-1.007-1.54-2.239-2.913-3.78-3.948-.763-.51-1.464.729-.7 1.239 3.336 2.24 4.732 6.279 6.59 9.628 1.732 3.053 4.111 5.995 7.71 6.754 1.455.301 2.964.236 4.316-.38 1.422-.63 2.448-1.882 2.98-3.32 1.215-3.31-.263-6.757-2.331-9.359-1.176-1.513-2.549-2.858-3.88-4.217-1.33-1.386-2.633-2.886-4.062-4.174-.637-.58-1.372-1.091-2.218-1.235-.763-.144-1.496.023-2.2.303-1.352.56-2.45 1.543-3.858 2.018-2.65.866-5.613.433-8.1-.845-2.614-1.349-4.568-3.612-5.663-6.338-1.138-2.882-1.375-6.099-.863-9.13.263-1.593.822-3.058 1.141-4.622.167-.79.249-1.58.12-2.384-.145-.875-.57-1.666-1.053-2.401-1.12-1.71-2.324-3.365-3.473-5.048-1.12-1.626-2.197-3.266-3.359-4.85-.893-1.201-1.926-2.432-3.311-3.085a4.448 4.448 0 0 0-4.301.225c-1.31.828-2.236 2.122-2.98 3.46a21.461 21.461 0 0 0-1.72 4.014C.794 12.02.507 14.938.672 17.83c.303 6.01 2.382 11.885 5.263 17.128 3.661 6.67 8.633 12.823 14.77 17.357 5.444 4.039 11.956 6.67 18.742 7.046 1.594.075 3.16-.075 4.738-.38.437-.097.322-.803-.115-.79Z" fill="#66462C"/><path d="M2.673 8.937c.377.707.934 1.348 1.422 2.001a130.046 130.046 0 0 0 4.531 5.854 167.9 167.9 0 0 0 6.523 7.487c1.286 1.396 2.6 2.793 3.955 4.12.47.47 1.173-.232.716-.716-2.27-2.38-4.54-4.733-6.713-7.182-2.202-2.478-4.293-5.037-6.37-7.61a131.82 131.82 0 0 1-1.692-2.16c-.574-.74-1.093-1.562-1.75-2.246-.342-.342-.825.056-.622.452Zm31.805 34.994c-.326-.581-.651-1.163-1.04-1.71-.333-.462-.626-1.075-1.135-1.36-.218-.123-.519.12-.459.373.131.578.63 1.044.962 1.505.404.532.856 1.016 1.308 1.5.156.156.486-.09.364-.308ZM7.714.577a355.775 355.775 0 0 1 7.109 8.965 167.077 167.077 0 0 1 3.34 4.51c.543.743 1.071 1.5 1.6 2.256.242.357.499.728.756 1.07.3.357.528.757.956.928.186.072.386-.128.386-.3 0-.456-.314-.856-.543-1.227-.242-.386-.528-.757-.785-1.128-.528-.756-1.07-1.499-1.613-2.24a266.267 266.267 0 0 0-3.398-4.512A143.48 143.48 0 0 0 8.142.177c-.271-.27-.642.129-.428.4Zm31.733 38.714c.261.878 1.149 1.443 1.775 2.07a64.724 64.724 0 0 1 2.008 2.006 57.127 57.127 0 0 1 3.706 4.294 56.772 56.772 0 0 1 3.282 4.662c1.045 1.66 1.9 3.425 2.885 5.115.38.645 1.285.082 1.006-.579-.753-1.78-1.825-3.498-2.87-5.13a59.157 59.157 0 0 0-3.367-4.747 49.815 49.815 0 0 0-3.88-4.378 64.765 64.765 0 0 0-2.05-1.963c-.656-.597-1.38-1.439-2.275-1.57-.115.002-.261.091-.22.22ZM4.867 8.367c-.23.288-.458.605-.702.878.057.03.087.06.144.09.308-1.246.617-2.463 1.126-3.617.482-1.127 1.167-2.105 1.736-3.172.026-.055-.061-.115-.087-.06-.83.889-1.393 2.097-1.861 3.21-.468 1.141-.89 2.355-1.056 3.606-.01.098.09.144.143.062a19.5 19.5 0 0 1 .675-.88c.053-.083-.064-.2-.118-.117Z" fill="#66462C"/><path d="M4.697 10.613c.614-1.211 1.186-2.435 1.758-3.658.264-.59.542-1.166.806-1.755.264-.59.6-1.196.751-1.81.018-.1-.094-.123-.139-.05-.388.524-.629 1.225-.893 1.815-.265.618-.558 1.237-.824 1.855a115.585 115.585 0 0 0-1.528 3.563c-.06.059.051.11.069.04Zm.44 2.036c.45-1.103.874-2.205 1.338-3.293.408-.979.927-1.986 1.17-3.017a.117.117 0 0 0-.218-.08c-.545.952-.831 2.08-1.199 3.1-.395 1.1-.818 2.175-1.214 3.277-.042.042.081.082.123.013Zm8.273 11.437c.263-1.631.555-3.234.972-4.823.208-.795.445-1.59.709-2.356.25-.78.626-1.547.793-2.328.028-.14-.167-.223-.237-.097-.432.682-.668 1.56-.933 2.327a33.12 33.12 0 0 0-.695 2.37c-.403 1.603-.723 3.234-.847 4.893-.027.111.21.153.237.014Zm1.623.032c.448-1.617.897-3.233 1.33-4.864l.652-2.447c.19-.731.506-1.532.484-2.307 0-.085-.128-.129-.184-.044-.388.644-.52 1.517-.681 2.248-.204.802-.407 1.632-.624 2.447-.406 1.631-.798 3.277-1.19 4.894-.026.141.172.2.213.073Zm.864-.053c.37-1.22.592-2.479.949-3.712.343-1.22.74-2.442 1.111-3.662.073-.206-.238-.267-.325-.074a28.79 28.79 0 0 0-1.248 3.72c-.33 1.206-.674 2.453-.786 3.68.01.178.254.199.299.048Zm1.688 1.558c.158-2.123.792-4.085 1.592-6.08.061-.167-.184-.241-.271-.1-1.017 1.892-1.508 4.11-1.665 6.206-.022.207.336.195.344-.026Zm16.78 21.094c.33-1.052.617-2.119.904-3.186.137-.512.274-.995.41-1.507.137-.512.33-1.024.353-1.566.013-.128-.188-.187-.258-.06-.237.44-.317.952-.44 1.422-.15.526-.287 1.067-.423 1.607-.273 1.081-.546 2.134-.775 3.23-.042.128.187.188.229.06Zm1.758.663a29.12 29.12 0 0 1 .82-3.73c.337-1.191.812-2.36 1.149-3.551.049-.156-.17-.258-.276-.099-.64 1.121-1.01 2.425-1.348 3.644a27.279 27.279 0 0 0-.738 3.755c-.04.253.353.234.393-.02Zm1.186 1.328c.838-1.792 1.239-3.819 1.211-5.754-.01-.213-.31-.194-.313.005-.143 1.938-.598 3.766-1.252 5.626-.089.2.25.337.354.123Zm6.486 9.953a85.74 85.74 0 0 1 1.5-5.257c.557-1.734 1.297-3.427 1.797-5.16.03-.114-.125-.184-.183-.07-.81 1.595-1.34 3.386-1.853 5.077-.557 1.762-1.015 3.566-1.431 5.384-.03.085.14.14.17.026Zm1.225-.871c-.318-.085.105-.594.163-.681.088-.175.118-.32.163-.508.089-.406.164-.826.282-1.233.208-.84.444-1.682.71-2.523.545-1.697 1.38-3.28 2.027-4.935.059-.174-.173-.23-.26-.114-.745 1.09-1.245 2.338-1.715 3.557a30.187 30.187 0 0 0-1.181 3.888c-.149.666-.196 1.318-.533 1.914-.16.276-.25.71.024.955.46.403.9-.468.408-.552-.173-.028-.232.204-.088.232Zm1.199.305c-.053.111-.069.068-.12-.147-.089-.09-.106-.16-.068-.259-.005-.142.088-.295.139-.435.101-.308.188-.603.29-.912.188-.603.361-1.221.55-1.825.161-.576.35-1.15.512-1.727.174-.618.445-1.275.504-1.926.02-.199-.257-.366-.348-.157-.25.487-.369 1.05-.518 1.585a58.413 58.413 0 0 1-.512 1.727c-.337 1.138-.758 2.3-.994 3.484-.045.283-.06.623.136.873.149.176.41.3.603.167.277-.188.192-.874-.243-.735-.212.034-.143.32.069.287Zm1.286.069L49.758 56c.697-.697 1.439-1.378 2-2.181.089-.119-.107-.315-.226-.226-.788.576-1.484 1.303-2.181 2a76.368 76.368 0 0 0-2.164 2.254c-.178.208.124.51.316.317Z" fill="#66462C"/><path d="M49.642 56.91c.299-.933.611-1.88.781-2.838.042-.195-.215-.242-.282-.073-.376.91-.611 1.88-.846 2.827-.056.233.279.305.347.084ZM2.158 13.99c-.157 1.146-.06 2.347.023 3.507.07 1.116.195 2.233.35 3.35a39.168 39.168 0 0 0 1.658 6.925 41.868 41.868 0 0 0 6.558 12.333c1.595 2.076 3.402 4.138 5.506 5.704.113.085.24-.1.142-.198-1.638-1.666-3.304-3.247-4.772-5.055a41.463 41.463 0 0 1-3.88-5.72A42.656 42.656 0 0 1 2.996 21.85a40.146 40.146 0 0 1-.547-3.887c-.125-1.315-.08-2.658-.22-3.959-.015-.042-.071-.013-.071-.013Z" fill="#66462C"/><path d="M3.297 14.537c-.345 3.05-.017 6.19.757 9.164.76 2.904 1.955 5.88 3.819 8.273.07.099.224-.026.167-.139-1.529-2.67-2.876-5.326-3.665-8.314-.774-2.946-.989-5.973-.854-9.011.014-.126-.224-.113-.224.027Z" fill="#66462C"/><path d="M4.946 14.52c-.186 2.337-.05 4.663.352 6.979.401 2.259 1.014 4.646 2.1 6.703.071.154.337.06.279-.11-.751-2.192-1.543-4.316-1.973-6.603a33.22 33.22 0 0 1-.534-6.967c-.002-.14-.198-.142-.224-.002Zm2.439 3.324a20.03 20.03 0 0 0 .096 5.342c.132.865.322 1.729.584 2.577.234.82.523 1.754 1.004 2.47.07.1.26.053.232-.09-.204-.85-.597-1.653-.845-2.487a19.976 19.976 0 0 1-.585-2.49c-.307-1.743-.353-3.547-.226-5.325.031-.174-.229-.17-.26.003Zm2.473 6.604c.139.856.222 1.768.494 2.592.01.066.117.062.12-.018-.017-.9-.234-1.78-.359-2.65-.034-.145-.289-.068-.255.076ZM36.746 56.73c1.133.645 2.348 1.084 3.613 1.258.06.002.057-.087-.003-.09-1.252-.217-2.435-.596-3.582-1.226l-.028.059Z" fill="#66462C"/><path d="M25.242 51.81c2.132 2.19 4.768 3.847 7.65 4.916 1.462.541 2.967.954 4.517 1.18.717.112 1.463.197 2.209.223.746.027 1.564.097 2.296-.063.158-.043.1-.244-.028-.258-.746-.084-1.507-.01-2.267-.052a22.03 22.03 0 0 1-2.367-.238 22.307 22.307 0 0 1-4.202-1.094c-2.867-1.054-5.46-2.67-7.722-4.701-.057-.029-.13.043-.086.086Z" fill="#66462C"/><path d="M26.916 51.839a33.677 33.677 0 0 0 14.443 5.883c.222.032.313-.312.09-.344a35.412 35.412 0 0 1-14.439-5.662c-.098-.07-.164.08-.094.123Zm1.69.032c1.93.925 3.884 1.768 5.905 2.46.996.345 2.006.677 3.015.953.533.153 1.05.29 1.57.43.503.123 1.023.318 1.537.317.14.003.204-.204.063-.263-.422-.206-.897-.273-1.331-.382-.518-.138-1.05-.263-1.569-.43a48.055 48.055 0 0 1-3.029-.939 67.368 67.368 0 0 1-6.041-2.352c-.154-.045-.26.147-.12.206Zm1.263-1.202c1.48.683 3.021 1.25 4.609 1.686.786.226 1.574.393 2.39.532.803.153 1.649.32 2.484.299.202-.005.238-.294.052-.333-.803-.153-1.622-.205-2.44-.343-.774-.125-1.547-.308-2.32-.49a29.102 29.102 0 0 1-4.639-1.628c-.157-.069-.307.194-.136.276Zm2.925-1.375a4.121 4.121 0 0 0 2.154 1.818c.782.291 1.882.409 2.523-.087.092-.063-.025-.207-.12-.199-.814.118-1.488.27-2.34-.038a3.684 3.684 0 0 1-1.952-1.643c-.107-.183-.371-.035-.265.15Zm1.616-1.481c.793.401 1.618.955 2.487 1.22.168.047.227-.166.104-.258-.703-.522-1.633-.848-2.427-1.25-.198-.108-.363.18-.165.288Z" fill="#66462C"/><path d="M33.176 46.444c.379.787 1.294 1.237 2.146.954.173-.06.119-.318-.083-.287-.735.138-1.45-.17-1.774-.843-.084-.2-.373-.024-.29.176Zm3.603 12.787c3.567.783 7.278 1.306 10.93 1.255.116 0 .101-.158-.014-.158-3.667-.193-7.291-.487-10.902-1.198-.043-.014-.072.072-.014.101Z" fill="#66462C"/><path d="M36.77 58.405c1.693 1.347 3.816 1.568 5.896 1.544 2.325-.038 4.634-.322 6.931.218.217.043.303-.274.086-.318-2.124-.597-4.39-.327-6.556-.217-2.18.097-4.447.048-6.27-1.313-.058-.087-.144.028-.086.086Z" fill="#66462C"/><path d="M38.877 58.863a15.99 15.99 0 0 0 4.944 1.462c1.631.203 3.448.25 5.054-.172.156-.043.144-.313-.041-.297-1.647.18-3.238.36-4.897.156a16.268 16.268 0 0 1-4.945-1.348c-.142-.056-.242.13-.115.2Z" fill="#66462C"/><path d="M40.09 58.435a8.431 8.431 0 0 0 3.701 1.561c1.178.18 2.734.251 3.887-.278.14-.06.077-.294-.063-.263-.641.072-1.272.268-1.913.312a8.12 8.12 0 0 1-1.945-.09 8.759 8.759 0 0 1-3.538-1.399c-.123-.094-.225.09-.13.157Z" fill="#66462C"/><path d="M40.146 57.666a9.469 9.469 0 0 0 3.424 1.544c1.162.266 2.51.428 3.701.087.128-.046.119-.229-.022-.225-1.253-.01-2.439.078-3.656-.214a9.154 9.154 0 0 1-3.285-1.464c-.152-.122-.328.164-.162.272Z" fill="#66462C"/><path d="M40.953 57.646a6.462 6.462 0 0 0 3.322 1.946 7 7 0 0 0 1.989.163c.568-.03 1.37-.095 1.845-.457.104-.076.08-.25-.066-.246-.582.016-1.186.28-1.769.325a6.299 6.299 0 0 1-1.887-.152 6.037 6.037 0 0 1-3.18-1.834c-.155-.155-.41.099-.254.255Z" fill="#66462C"/><path d="M38.857 57.202c1.36.914 2.913 1.547 4.528 1.769a10.07 10.07 0 0 0 2.452.054c.711-.07 1.693-.147 2.282-.561.084-.055.066-.241-.062-.23-.37.02-.695.142-1.036.22-.41.09-.837.166-1.263.213a9.915 9.915 0 0 1-2.252-.022 10.518 10.518 0 0 1-4.581-1.598c-.087-.06-.155.096-.068.155Zm-1.273 2.011c1.841.97 3.865 1.587 5.96 1.74 2.01.154 4.316-.016 6.186-.818.17-.084.057-.337-.112-.28-.97.239-1.898.548-2.91.69a16.361 16.361 0 0 1-3.093.141c-2.081-.111-4.12-.602-6.003-1.501-.056-.056-.084 0-.028.028Z" fill="#66462C"/><path d="M35.976 58.43a14.238 14.238 0 0 0 6.372 2.435c1.12.143 2.24.143 3.363.03 1.066-.112 2.303-.254 3.246-.805.114-.058.045-.213-.083-.198-1.109.156-2.178.552-3.315.679a15.652 15.652 0 0 1-3.364-.03c-2.196-.272-4.316-1.013-6.161-2.225-.084-.085-.143.058-.058.114Z" fill="#66462C"/><path d="M34.754 58.027c2.163.902 4.452 1.538 6.783 1.824 1.193.156 2.4.215 3.593.203.59.001 1.18-.026 1.769-.08.533-.056 1.15-.054 1.641-.292.085-.028.07-.183-.028-.197-.534-.085-1.095.054-1.614.095a25.54 25.54 0 0 1-5.193-.066 27.576 27.576 0 0 1-6.867-1.656c-.113-.056-.182.126-.084.169Z" fill="#66462C"/><path d="M33.947 57.219a18.922 18.922 0 0 0 5.845 2.326c1 .204 2.013.338 3.04.372 1.013.047 2.155.082 3.138-.156.185-.042.155-.356-.045-.357-1.013.01-1.996.161-2.995.128a18.772 18.772 0 0 1-3.097-.372c-2.013-.396-3.957-1.147-5.745-2.169-.157-.044-.27.156-.141.228Z" fill="#66462C"/><path d="M33.506 57.609a14.589 14.589 0 0 0 4.944 2.76c.882.287 1.775.479 2.678.573.919.11 1.976.222 2.857-.003.124-.038.09-.233-.035-.25-.862-.08-1.718.035-2.595-.06a14.36 14.36 0 0 1-2.747-.561 15.372 15.372 0 0 1-4.954-2.607c-.113-.087-.248.048-.148.148Z" fill="#66462C"/><path d="M32.708 58.45a14.914 14.914 0 0 0 5.109 1.858c1.687.268 3.662.358 5.305-.156.151-.04.136-.328-.042-.288-.85.106-1.672.267-2.535.277a15.209 15.209 0 0 1-2.73-.162 15.55 15.55 0 0 1-5.012-1.708c-.11-.082-.219.11-.095.178Z" fill="#66462C"/><path d="M31.879 57.62c1.597.927 3.278 1.714 5.042 2.277.875.288 1.749.52 2.651.696.874.176 1.847.423 2.747.345.127-.013.153-.181.026-.225-.86-.246-1.803-.295-2.677-.471a22.243 22.243 0 0 1-2.567-.668c-1.763-.562-3.472-1.265-5.097-2.165-.141-.029-.238.153-.125.21Z" fill="#66462C"/><path d="M29.406 56.797a13.217 13.217 0 0 0 5.574 3.175c2.003.564 4.429.788 6.486.194.168-.058.144-.337-.038-.321-1.048.137-2.082.288-3.142.272-1.075-.03-2.12-.2-3.149-.468-2.087-.563-3.987-1.588-5.561-3.05-.097-.096-.28.087-.17.198Z" fill="#66462C"/><path d="M29.415 56.803a21.467 21.467 0 0 0 5.737 2.6c1.99.57 4.232.918 6.324.732.16-.018.164-.25.005-.261-2.13-.09-4.187-.223-6.25-.777a21.592 21.592 0 0 1-5.74-2.484c-.085-.056-.176.12-.076.19Zm5.767.004a24.424 24.424 0 0 0 5.121 1.396 30.51 30.51 0 0 0 2.534.298c.883.052 1.794.131 2.694.029.211-.019.218-.328.007-.337-.883-.052-1.796.009-2.693-.057a26.157 26.157 0 0 1-2.605-.283 29.934 29.934 0 0 1-4.998-1.244c-.112-.025-.171.144-.06.198Z" fill="#66462C"/><path d="M36.054 56.023c2.43.986 4.99 1.62 7.625 1.847.658.064 1.345.1 2.004.107.407.01 1.205.156 1.503-.225.44-.551-.625-.681-.447-.22.041.098.196.054.197-.058-.016.182-2.609.053-2.847.014a31.143 31.143 0 0 1-2.773-.338 28.788 28.788 0 0 1-5.133-1.422c-.181-.069-.31.227-.129.295Z" fill="#66462C"/><path d="M37.268 55.602a18.89 18.89 0 0 0 6.744 1.965 19.15 19.15 0 0 0 1.791.084c.48-.004 1.1.076 1.553-.125.666-.301.065-1.101-.277-.675-.071.1.07.211.154.154-.326.214-.41.215-.792.232a4.986 4.986 0 0 1-.649.005c-.367.003-.748-.008-1.143-.033a15.526 15.526 0 0 1-2.537-.29 18.48 18.48 0 0 1-4.715-1.586c-.154-.07-.297.186-.129.269Z" fill="#66462C"/><path d="M37.698 55.201c1.447.642 2.924 1.17 4.46 1.526.782.178 1.564.328 2.347.42l1.067.119c.441.038.84.006 1.268-.026.114-.002.159-.187.031-.229-1.508-.214-3.031-.356-4.539-.684a24.83 24.83 0 0 1-4.489-1.44c-.17-.056-.344.23-.145.314Z" fill="#66462C"/><path d="M37.669 54.364a10.955 10.955 0 0 0 4.362 2.142c1.535.369 3.333.502 4.8-.056.14-.054.137-.307-.031-.281-1.556.164-3.029.301-4.59-.04a10.4 10.4 0 0 1-4.278-2.03c-.197-.114-.461.122-.263.265Z" fill="#66462C"/><path d="M38.104 53.966a18.962 18.962 0 0 0 4.278 1.383c.705.138 1.395.231 2.1.31.75.063 1.544.14 2.296-.002.177-.032.181-.326.005-.353-.661-.094-1.354-.04-2.03-.09a18.642 18.642 0 0 1-2.248-.279 18.639 18.639 0 0 1-4.206-1.281c-.22-.07-.4.226-.195.312Z" fill="#66462C"/><path d="M39.003 54.028a54.567 54.567 0 0 0 5.978 1.757c.312.069 1.272.163.994-.467-.124-.286-.593-.403-.607-.038-.01.098.148.175.215.107-.147.177-1.388-.252-1.6-.303-.54-.134-1.095-.283-1.635-.417a72.66 72.66 0 0 1-3.26-.988c-.243-.108-.327.268-.085.349Z" fill="#66462C"/><path d="M38.528 51.938a18.86 18.86 0 0 0 7.003 3.188.27.27 0 0 0 .272-.103c.196-.422.018-.976-.505-1.043-.125-.016-.162.134-.078.218.155.155.283.337.179.582.095-.04.177-.065.272-.104a19.017 19.017 0 0 1-6.916-3.05c-.265-.13-.423.17-.227.312Z" fill="#66462C"/><path d="M38.519 51.926a6.044 6.044 0 0 0 2.93 1.76c1.037.285 2.343.39 3.354-.132.133-.076.08-.28-.068-.278-1.09.083-2.092.251-3.159-.034a5.709 5.709 0 0 1-2.742-1.631c-.187-.216-.502.099-.316.315Z" fill="#66462C"/><path d="M39.65 51.421c.183.184.395.367.578.55.057.057.142-.028.085-.085-.183-.183-.366-.395-.55-.578-.056-.085-.184.042-.113.113Zm-.957 3.661c1.23.408 2.501.716 3.788.84.65.056 1.301.083 1.966.067.608-.015 1.33.026 1.91-.216.085-.029.113-.198 0-.227-.594-.083-1.23.074-1.824.075a27.585 27.585 0 0 1-1.881-.038c-1.33-.11-2.63-.362-3.888-.741-.156-.014-.213.212-.071.24Z" fill="#66462C"/><path d="M40.93 55.118a4.33 4.33 0 0 0 2.064.279c.566-.058 1.358-.23 1.741-.669.07-.07 0-.198-.099-.184-.283.058-.552.214-.82.313a4.57 4.57 0 0 1-.977.186 3.997 3.997 0 0 1-1.824-.293c-.212-.098-.297.27-.085.368Zm-1.446-2.548c.791.508 1.653.916 2.543 1.21.778.24 1.838.591 2.658.42.17-.03.142-.255.001-.312-.41-.126-.877-.11-1.287-.18a12.801 12.801 0 0 1-1.272-.31 10.843 10.843 0 0 1-2.458-1.154c-.212-.127-.397.2-.185.326Zm-1.679-1.779a4.258 4.258 0 0 0 2.204 1.184c.679.14 1.683.208 2.25-.246.099-.07.014-.212-.085-.197-.34-.028-.665.1-1.005.129-.367.03-.763.002-1.117-.068-.749-.154-1.399-.52-1.95-1.043-.182-.24-.48.058-.297.241Z" fill="#66462C"/><path d="M37.806 50.285c.565.366 1.116.747 1.709 1.085.141.085.325-.128.184-.24-.55-.41-1.144-.776-1.709-1.17-.183-.128-.382.212-.184.325Zm8.444 7.89c.65.31 1.4.435 2.12.42.637-.016 1.458-.103 1.982-.542.057-.057.014-.184-.07-.184-.637.072-1.246.342-1.91.358-.694.015-1.358-.11-2.036-.307-.128-.042-.213.184-.086.255Z" fill="#66462C"/><path d="M46.277 58.293a9.663 9.663 0 0 0 5.077.003c.396-.114 1.444-.427 1.091-1.063-.169-.31-.72-.352-.764.059-.014.099.142.14.198.056.071.014.142.028.198.056-.07.099-.142.198-.24.297-.114.085-.298.128-.44.157a4.767 4.767 0 0 1-.679.171c-.481.114-.99.172-1.485.215a9.476 9.476 0 0 1-2.885-.276c-.198-.056-.283.255-.071.325Z" fill="#66462C"/><path d="M46.022 57.814a8.12 8.12 0 0 0 3.45.247c1.047-.144 2.222-.443 3.058-1.138.113-.085-.014-.297-.14-.254-.992.37-1.898.824-2.959.982a7.84 7.84 0 0 1-3.295-.205c-.24-.042-.326.298-.114.368Z" fill="#66462C"/><path d="M47.086 56.74a5.687 5.687 0 0 0 5.217.456c.085-.029.114-.114.114-.199.044-.523-.253-.904-.72-1.087-.126-.042-.197.142-.084.226.31.198.409.523.365.877.043-.071.114-.142.157-.213-1.614.626-3.396.517-4.85-.4-.213-.127-.411.213-.2.34Z" fill="#66462C"/><path d="M46.497 55.65a9.237 9.237 0 0 0 4.382 1.433c.537.027 1.3.026 1.528-.569.143-.396-.054-.848-.507-.847-.141 0-.198.198-.071.268.494.24-.1.694-.412.723-.212.014-.424 0-.636-.013a8.686 8.686 0 0 1-1.499-.223 9.029 9.029 0 0 1-2.614-1.083c-.184-.127-.368.198-.17.311Z" fill="#66462C"/><path d="M46.208 55.42a7.09 7.09 0 0 0 2.657.927c.75.098 1.753.195 2.377-.373.567-.51.286-1.216-.308-1.526-1.017-.535-2.219-.66-3.208-1.252-.084-.056-.184.043-.17.142.251 1.753 2.64 2.47 3.986 1.462.113-.085.142-.227.057-.34a5.209 5.209 0 0 0-1.384-1.1c-.565-.338-1.173-.464-1.752-.731-.085-.029-.17.028-.142.113.126.834.902 1.469 1.737 1.397.877-.059.568-1.246-.025-1.528-.07-.042-.127.071-.057.113.269.184.536.735.267 1.032-.156.156-.538.058-.736.002a1.448 1.448 0 0 1-.987-1.101c-.043.042-.057.085-.1.127 1.131.14 2.19 1.141 2.895 1.96.015-.1.03-.226.058-.34-1.233.922-3.027.205-3.548-1.166l-.142.142c.792.196 1.54.633 2.276.97.324.156.734.282.988.536.424.423-.001.82-.412.949-.623.199-1.414.087-2.05-.038-.736-.14-1.414-.422-2.064-.788-.24-.07-.439.27-.213.41Z" fill="#66462C"/><path d="M48.438 56.496c.777.635 1.867.081 2.279-.726.582-1.147-.25-2.573-.997-3.406-.099-.099-.255.029-.213.156.451.847 1.213 1.78.984 2.798-.185.778-1.148 1.516-1.897.966-.113-.085-.269.1-.156.212Z" fill="#66462C"/><path d="M46.64 56.577c.86.974 2.486 1.154 3.52.289.936-.794 1.294-2.648.263-3.508-.113-.085-.24.015-.198.142.45 1.017.631 2.219-.29 3.055-.893.808-2.32.684-3.14-.134-.098-.127-.254.029-.155.156Z" fill="#66462C"/><path d="M46.477 57.295c1.016 1.158 2.995 1.267 4.073.133.524-.553.766-1.331.726-2.08-.041-.694-.365-1.556-1.015-1.865-.07-.043-.198.056-.142.141.367.565.691 1.031.746 1.738.056.65-.13 1.316-.583 1.798-.936 1.02-2.661.882-3.564-.106-.141-.17-.382.072-.241.241Z" fill="#66462C"/><path d="M46.56 57.11c1.101 1.045 3.052 1.635 4.37.571 1.062-.865 1.363-3.03-.078-3.677-.113-.056-.269.1-.156.213 1.003.832.942 2.557-.205 3.281-1.175.752-2.744.26-3.704-.614-.155-.127-.368.085-.227.227Z" fill="#66462C"/><path d="M46.305 57.583c1.47.365 3.491.827 4.71-.392.808-.808 1.237-2.76-.12-3.267-.17-.056-.283.17-.17.255.931.819.702 2.318-.36 2.985-1.176.752-2.745.374-4.003.108-.184-.042-.27.27-.057.311Z" fill="#66462C"/><path d="M45.615 56.943c.987 1.356 2.85 2.71 4.578 1.886 1.09-.526 2.297-2.551.998-3.51-.127-.099-.255.085-.199.198.282.594.408 1.088.138 1.725-.242.58-.752 1.091-1.346 1.29-1.515.499-3.054-.672-3.928-1.773-.1-.127-.34.057-.241.184Z" fill="#66462C"/><path d="M46.102 58.248c.93 1.695 3.347 2.355 4.99 1.276 1.671-1.107 2.073-3.795.62-5.22-.114-.113-.326.043-.228.17 1.03 1.426.94 3.69-.646 4.711-1.459.951-3.58.362-4.425-1.108-.126-.183-.424-.027-.311.17Z" fill="#66462C"/><path d="M49.942 56.67a1.986 1.986 0 0 0 1.583.393c.07-.015.142-.057.156-.128a6.513 6.513 0 0 0-.021-3.338c-.267-.947-.773-2.218-1.606-2.796-.156-.1-.326.1-.242.24.296.523.706.932.987 1.47.282.564.465 1.144.577 1.738.111.593.167 1.187.109 1.782-.015.155-.001.395-.072.551-.071.184-.085.198-.326.213-.368.03-.735-.14-1.032-.323-.113-.085-.226.114-.113.198Z" fill="#66462C"/><path d="M51.024 55.645c.438.21.876.422 1.3.647.113.057.24-.043.212-.156a18.815 18.815 0 0 0-1.094-3.93c-.507-1.243-1.084-2.529-1.973-3.559-.113-.141-.297.043-.226.17.591 1.187 1.282 2.303 1.788 3.518.52 1.258.928 2.544 1.236 3.873l.17-.17c-.438-.155-.875-.366-1.313-.55-.1-.041-.185.1-.1.157Z" fill="#66462C"/><path d="M49.296 59.385c2.38-1.646 3.335-5.622 1.275-7.88-.112-.114-.297.042-.226.17.69 1.228 1.055 2.529.84 3.958-.215 1.372-.897 2.674-2.002 3.525-.156.1-.029.312.113.227Z" fill="#66462C"/><path d="M47.6 58.98c1.186.932 3.04.914 4.13-.178 1.035-1.035 1.28-3.086.137-4.144-.113-.113-.311.029-.227.17.648 1.158.815 2.657-.22 3.692-.964.992-2.605 1.052-3.706.263-.07-.1-.212.099-.114.198Z" fill="#66462C"/><path d="M46.544 56.701c1.328.903 3.037 2.045 4.735 1.475 1.005-.327 2.479-1.688 1.732-2.86-.07-.1-.24-.07-.241.07-.015.609-.059 1.104-.47 1.6a2.692 2.692 0 0 1-1.473.852c-1.486.3-2.926-.687-4.098-1.462-.212-.127-.383.184-.185.325Z" fill="#66462C"/><path d="M46.36 57.406c1.1 1.044 2.84 1.337 4.185.556a3.583 3.583 0 0 0 1.432-1.601c.27-.609.456-1.444.188-2.08-.084-.169-.296-.07-.31.086-.059.65-.018 1.202-.302 1.825-.256.566-.681 1.077-1.22 1.389-1.175.695-2.716.458-3.69-.459-.197-.17-.48.114-.283.284Z" fill="#66462C"/><path d="M52.016 56.58c.13-1.202.09-2.404-.148-3.606a13.128 13.128 0 0 0-.463-1.71c-.183-.523-.38-1.117-.732-1.554-.113-.142-.326.014-.298.184.14.537.422 1.046.605 1.569.197.537.323 1.088.449 1.64a13.14 13.14 0 0 1 .261 3.492c0 .17.297.183.326-.015Z" fill="#66462C"/><path d="M51.69 53.957c-.35-2.022-.939-4.199-2.038-5.95-.113-.17-.354-.013-.27.156.409.975.873 1.922 1.225 2.925.323.975.562 1.95.743 2.955.042.24.382.154.34-.086Z" fill="#66462C"/></svg>